<svg xmlns="http://www.w3.org/2000/svg" viewBox="0 0 54.932 47.654">
  <defs>
    <style>
      .cls-1 {
        fill: #8c1313;
      }

      .cls-2 {
        fill: #fff;
      }

      .cls-3 {
        fill: #c4c4c4;
        fill-rule: evenodd;
      }
    </style>
  </defs>
  <g id="Group_1351" data-name="Group 1351" transform="translate(-18795 -1550.346)">
    <rect id="Rectangle_1359" data-name="Rectangle 1359" class="cls-1" width="50.03" height="37" rx="18.5" transform="translate(18795 1561)"/>
    <path id="Path_938" data-name="Path 938" class="cls-2" d="M7.692-.492V-7.5a.564.564,0,0,0-.576-.588A.571.571,0,0,0,6.54-7.5v2.856H2.232V-7.5a.571.571,0,0,0-.576-.588A.564.564,0,0,0,1.08-7.5V-.492A.574.574,0,0,0,1.668.1a.562.562,0,0,0,.564-.588V-3.564H6.54V-.492A.579.579,0,0,0,7.116.1.571.571,0,0,0,7.692-.492ZM10.8-.468V-4.74a.556.556,0,0,0-.564-.564.556.556,0,0,0-.564.564V-.468A.549.549,0,0,0,10.236.1.549.549,0,0,0,10.8-.468ZM9.576-6.78a.666.666,0,0,0,.66.66.666.666,0,0,0,.66-.66.666.666,0,0,0-.66-.66A.666.666,0,0,0,9.576-6.78Z" transform="translate(18813 1583)"/>
    <g id="chat" transform="translate(18769.932 1550.346)">
      <g id="Group-5" transform="translate(58 0)">
        <ellipse id="Oval" class="cls-2" cx="11" cy="11.015" rx="11" ry="11.015" transform="translate(0 0)"/>
        <g id="user-copy" transform="translate(0)">
          <path id="Fill-3" class="cls-3" d="M11.188,0A11.057,11.057,0,0,0,3.922,19.5a3.135,3.135,0,0,1,.52-.373l3.284-1.8a1.347,1.347,0,0,0,.7-1.183V14.8a7.358,7.358,0,0,1-1.329-2.768,1.1,1.1,0,0,1-.509-.929V9.622A1.11,1.11,0,0,1,6.952,8.8V6.664S6.516,3.336,11,3.336s4.048,3.328,4.048,3.328V8.8a1.108,1.108,0,0,1,.367.819V11.1a1.11,1.11,0,0,1-.783,1.055A8.173,8.173,0,0,1,13.54,14.37c-.122.171-.233.315-.333.43v1.385a1.348,1.348,0,0,0,.74,1.206l3.517,1.766a2.869,2.869,0,0,1,.576.387A11.063,11.063,0,0,0,11.188,0Z" transform="translate(0 0)"/>
        </g>
      </g>
    </g>
  </g>
</svg>
