<svg xmlns="http://www.w3.org/2000/svg" viewBox="0 0 144 46">
  <defs>
    <style>
      .cls-1 {
        fill: #fff;
      }

      .cls-2 {
        fill: #4d4d4d;
      }

      .cls-3 {
        fill: #8c1313;
      }
    </style>
  </defs>
  <g id="Group_1360" data-name="Group 1360" transform="translate(-18567 -2279)">
    <rect id="Rectangle_1354" data-name="Rectangle 1354" class="cls-1" width="135" height="38" rx="17" transform="translate(18576 2287)"/>
    <path id="Path_947" data-name="Path 947" class="cls-2" d="M7.692-.492V-7.5a.564.564,0,0,0-.576-.588A.571.571,0,0,0,6.54-7.5v2.856H2.232V-7.5a.571.571,0,0,0-.576-.588A.564.564,0,0,0,1.08-7.5V-.492A.574.574,0,0,0,1.668.1a.562.562,0,0,0,.564-.588V-3.564H6.54V-.492A.579.579,0,0,0,7.116.1.571.571,0,0,0,7.692-.492Zm6.468.024V-3.084c0-1.464-.888-2.268-2.472-2.268a4.805,4.805,0,0,0-1.608.264c-.3.12-.528.264-.528.54a.45.45,0,0,0,.48.468,1.211,1.211,0,0,0,.372-.1,3.283,3.283,0,0,1,1.188-.216c1.044,0,1.44.432,1.44,1.38V-2.5a2.354,2.354,0,0,0-1.62-.612c-1.164,0-2.04.564-2.04,1.632,0,.96.828,1.62,1.992,1.62a2.043,2.043,0,0,0,1.692-.72v.108A.539.539,0,0,0,13.608.1.519.519,0,0,0,14.16-.468ZM13.032-1.476c0,.5-.6.852-1.308.852S10.5-.936,10.5-1.476s.492-.852,1.248-.852C12.384-2.328,13.032-2.016,13.032-1.476Zm3.2-3.516a.469.469,0,0,0-.48-.312.488.488,0,0,0-.5.516.506.506,0,0,0,.048.216L17.28-.2a.487.487,0,0,0,.456.3.487.487,0,0,0,.456-.3l1.98-4.368a.506.506,0,0,0,.048-.216.488.488,0,0,0-.5-.516.469.469,0,0,0-.48.312l-1.5,3.432Zm7.392-.36A2.646,2.646,0,0,0,20.94-2.6,2.589,2.589,0,0,0,23.676.144a2.874,2.874,0,0,0,2.136-.876.5.5,0,0,0,.144-.324.454.454,0,0,0-.468-.468.551.551,0,0,0-.372.18,1.844,1.844,0,0,1-1.392.588A1.5,1.5,0,0,1,22.1-2.208h3.588c.324,0,.432-.192.432-.384A2.548,2.548,0,0,0,23.628-5.352ZM25.08-3.12H22.128a1.49,1.49,0,0,1,1.5-1.332A1.463,1.463,0,0,1,25.08-3.12ZM35.568-.468V-3.084c0-1.464-.888-2.268-2.472-2.268a4.805,4.805,0,0,0-1.608.264c-.3.12-.528.264-.528.54a.45.45,0,0,0,.48.468,1.211,1.211,0,0,0,.372-.1A3.283,3.283,0,0,1,33-4.392c1.044,0,1.44.432,1.44,1.38V-2.5a2.354,2.354,0,0,0-1.62-.612c-1.164,0-2.04.564-2.04,1.632,0,.96.828,1.62,1.992,1.62a2.043,2.043,0,0,0,1.692-.72v.108A.539.539,0,0,0,35.016.1.519.519,0,0,0,35.568-.468ZM34.44-1.476c0,.5-.6.852-1.308.852s-1.224-.312-1.224-.852.492-.852,1.248-.852C33.792-2.328,34.44-2.016,34.44-1.476ZM45.792-.468V-2.916A2.169,2.169,0,0,0,43.62-5.352a1.837,1.837,0,0,0-1.728,1.008v-.384a.526.526,0,0,0-.564-.576.539.539,0,0,0-.564.576v4.26A.549.549,0,0,0,41.328.1a.556.556,0,0,0,.564-.564V-2.856a1.376,1.376,0,0,1,1.416-1.476,1.309,1.309,0,0,1,1.356,1.464v2.4A.549.549,0,0,0,45.228.1.541.541,0,0,0,45.792-.468Zm2.868,0V-4.74A.556.556,0,0,0,48.1-5.3a.556.556,0,0,0-.564.564V-.468A.549.549,0,0,0,48.1.1.549.549,0,0,0,48.66-.468ZM47.436-6.78a.666.666,0,0,0,.66.66.666.666,0,0,0,.66-.66.666.666,0,0,0-.66-.66A.666.666,0,0,0,47.436-6.78Zm5.508,1.428A2.642,2.642,0,0,0,50.136-2.6,2.642,2.642,0,0,0,52.944.144,2.536,2.536,0,0,0,54.8-.612a.55.55,0,0,0,.168-.4.472.472,0,0,0-.516-.456c-.2,0-.336.168-.48.288a1.523,1.523,0,0,1-1.02.372,1.659,1.659,0,0,1-1.692-1.8,1.659,1.659,0,0,1,1.692-1.8,1.523,1.523,0,0,1,1.02.372c.144.12.276.288.48.288a.472.472,0,0,0,.516-.456.55.55,0,0,0-.168-.4A2.536,2.536,0,0,0,52.944-5.352Zm5.856,0A2.646,2.646,0,0,0,56.112-2.6,2.589,2.589,0,0,0,58.848.144a2.874,2.874,0,0,0,2.136-.876.5.5,0,0,0,.144-.324.454.454,0,0,0-.468-.468.551.551,0,0,0-.372.18A1.844,1.844,0,0,1,58.9-.756a1.5,1.5,0,0,1-1.62-1.452h3.588c.324,0,.432-.192.432-.384A2.548,2.548,0,0,0,58.8-5.352ZM60.252-3.12H57.3a1.49,1.49,0,0,1,1.5-1.332A1.463,1.463,0,0,1,60.252-3.12Zm5.664.516A2.591,2.591,0,0,0,68.424.144,2.163,2.163,0,0,0,70.308-.888V-.48A.542.542,0,0,0,70.86.1a.523.523,0,0,0,.54-.564V-7.524a.549.549,0,0,0-.564-.564.549.549,0,0,0-.564.564v3.2a2.158,2.158,0,0,0-1.848-1.032A2.556,2.556,0,0,0,65.916-2.6Zm1.128,0a1.623,1.623,0,0,1,1.608-1.812A1.7,1.7,0,0,1,70.272-2.6a1.7,1.7,0,0,1-1.62,1.812A1.623,1.623,0,0,1,67.044-2.6ZM77.688-.468V-3.084c0-1.464-.888-2.268-2.472-2.268a4.805,4.805,0,0,0-1.608.264c-.3.12-.528.264-.528.54a.45.45,0,0,0,.48.468,1.211,1.211,0,0,0,.372-.1,3.283,3.283,0,0,1,1.188-.216c1.044,0,1.44.432,1.44,1.38V-2.5a2.354,2.354,0,0,0-1.62-.612c-1.164,0-2.04.564-2.04,1.632,0,.96.828,1.62,1.992,1.62a2.043,2.043,0,0,0,1.692-.72v.108A.539.539,0,0,0,77.136.1.519.519,0,0,0,77.688-.468ZM76.56-1.476c0,.5-.6.852-1.308.852s-1.224-.312-1.224-.852.492-.852,1.248-.852C75.912-2.328,76.56-2.016,76.56-1.476Zm7.188-3.312a.469.469,0,0,0-.48-.516.513.513,0,0,0-.528.408L81.36-1.164,79.824-4.992a.479.479,0,0,0-.48-.312.478.478,0,0,0-.5.5.775.775,0,0,0,.048.228L80.76-.084a3.568,3.568,0,0,1-1.368,1.5.5.5,0,0,0-.288.468.476.476,0,0,0,.5.456.578.578,0,0,0,.288-.084,5.072,5.072,0,0,0,2.22-2.784c.672-1.548,1.224-3,1.584-4A.863.863,0,0,0,83.748-4.788Zm2.664.36v-3.1a.549.549,0,0,0-.564-.564.549.549,0,0,0-.564.564v3.1L85.56-2.34a.282.282,0,0,0,.288.276c.18,0,.252-.12.276-.276Zm-1.284,3.8a.722.722,0,0,0,.72.72.722.722,0,0,0,.72-.72.722.722,0,0,0-.72-.72A.722.722,0,0,0,85.128-.624Z" transform="translate(18606 2308)"/>
    <g id="Group_1346" data-name="Group 1346" transform="translate(11900 2210)">
      <path id="Path_490" data-name="Path 490" class="cls-3" d="M12,0A12,12,0,1,1,0,12,12,12,0,0,1,12,0Z" transform="translate(6667 69)"/>
      <g id="bank" transform="translate(7019.946 357.258)">
        <g id="Group_500" data-name="Group 500" transform="translate(-347.946 -283.258)">
          <g id="Group_499" data-name="Group 499" transform="translate(0 0)">
            <path id="Path_365" data-name="Path 365" class="cls-1" d="M14.027,6.046,9.333,3.026a.2.2,0,1,0-.218.339L13.74,6.341H12.662L7.4,2.953a.547.547,0,0,0-.59,0L1.54,6.341H.462L7.1,2.069l.94.6a.2.2,0,1,0,.218-.339l-.94-.6a.4.4,0,0,0-.436,0L.175,6.046a.379.379,0,0,0,.205.7H1.4v1.3a.335.335,0,0,0,.265.327v.355A.334.334,0,0,0,2,9.065h.028v2.472a.2.2,0,0,0,.4,0V8.863a.2.2,0,0,0-.2-.2h-.16V8.383H3.5v.278h-.16a.2.2,0,0,0-.2.2V13.32a.2.2,0,0,0,.2.2H3.5v.3H2.066v-.3h.16a.2.2,0,0,0,.2-.2V12.8a.2.2,0,0,0-.4,0v.314H2a.334.334,0,0,0-.334.334v.355a.335.335,0,0,0-.265.327v.407H.683a.4.4,0,0,0-.4.4v.424a.4.4,0,0,0,.4.4H13.519a.4.4,0,0,0,.4-.4v-.424a.4.4,0,0,0-.4-.4H12.8v-.407a.335.335,0,0,0-.265-.327v-.355a.334.334,0,0,0-.334-.334h-.028V9.065h.028a.334.334,0,0,0,.334-.334V8.376a.335.335,0,0,0,.265-.327v-1.3h1.017a.379.379,0,0,0,.205-.7Zm-7-2.753a.142.142,0,0,1,.154,0l4.738,3.049H2.286ZM1.8,6.745H12.4v.494H1.8Zm6.418,7.063v-.355a.334.334,0,0,0-.334-.334H7.857V9.065h.028a.334.334,0,0,0,.334-.334V8.376a.335.335,0,0,0,.265-.327V7.642h1.554v.407a.335.335,0,0,0,.265.327v.355a.334.334,0,0,0,.334.334h.028v4.054h-.028a.334.334,0,0,0-.334.334v.355a.335.335,0,0,0-.265.327v.407H8.484v-.407A.335.335,0,0,0,8.219,13.808Zm-4.32,0v-.355a.334.334,0,0,0-.334-.334H3.537V9.065h.028A.334.334,0,0,0,3.9,8.731V8.376a.335.335,0,0,0,.265-.327V7.642H5.718v.407a.335.335,0,0,0,.265.327v.355a.334.334,0,0,0,.334.334h.028v4.054H6.317a.334.334,0,0,0-.334.334v.355a.335.335,0,0,0-.265.327v.407H4.164v-.407A.335.335,0,0,0,3.9,13.808Zm3.757-.286h.16v.3H6.387v-.3h.16a.2.2,0,0,0,.2-.2V8.863a.2.2,0,0,0-.2-.2h-.16V8.383H7.815v.278h-.16a.2.2,0,0,0-.2.2V13.32A.2.2,0,0,0,7.655,13.522ZM6.185,7.98H6.121V7.642H8.08V7.98h-1.9Zm-.063,6.239a.2.2,0,0,0,.062.01H8.016a.2.2,0,0,0,.064-.011v.324H6.121ZM1.865,7.98H1.8V7.642H3.76V7.98h-1.9ZM1.8,14.218a.2.2,0,0,0,.063.01H3.7a.2.2,0,0,0,.063-.01v.324H1.8v-.324Zm11.719.728v.425H.682v-.425Zm-1.183-.718a.2.2,0,0,0,.064-.011v.324H10.442v-.324a.2.2,0,0,0,.063.01Zm-1.47-5.567h-.16V8.383h1.429v.278h-.16a.2.2,0,0,0-.2.2V13.32a.2.2,0,0,0,.2.2h.16v.3H10.707v-.3h.16a.2.2,0,0,0,.2-.2V8.863A.2.2,0,0,0,10.867,8.662ZM12.4,7.98H10.442V7.642H12.4V7.98Z" transform="translate(0 -1.666)"/>
          </g>
        </g>
      </g>
    </g>
  </g>
</svg>
