<svg xmlns="http://www.w3.org/2000/svg" viewBox="0 0 252 48">
  <defs>
    <style>
      .cls-1 {
        fill: #fff;
      }

      .cls-2 {
        fill: #4d4d4d;
      }

      .cls-3 {
        fill: #8c1313;
      }
    </style>
  </defs>
  <g id="Group_1352" data-name="Group 1352" transform="translate(-18558 -1633)">
    <rect id="Rectangle_1358" data-name="Rectangle 1358" class="cls-1" width="243" height="37" rx="17" transform="translate(18567 1644)"/>
    <path id="Path_939" data-name="Path 939" class="cls-2" d="M7.692-.492V-7.5a.564.564,0,0,0-.576-.588A.571.571,0,0,0,6.54-7.5v2.856H2.232V-7.5a.571.571,0,0,0-.576-.588A.564.564,0,0,0,1.08-7.5V-.492A.574.574,0,0,0,1.668.1a.562.562,0,0,0,.564-.588V-3.564H6.54V-.492A.579.579,0,0,0,7.116.1.571.571,0,0,0,7.692-.492ZM10.8-.468V-4.74a.556.556,0,0,0-.564-.564.556.556,0,0,0-.564.564V-.468A.549.549,0,0,0,10.236.1.549.549,0,0,0,10.8-.468ZM9.576-6.78a.666.666,0,0,0,.66.66.666.666,0,0,0,.66-.66.666.666,0,0,0-.66-.66A.666.666,0,0,0,9.576-6.78ZM13.608-.372v-.48a.482.482,0,0,0-.492-.528.482.482,0,0,0-.492.528v.636a3.747,3.747,0,0,1-.312,1.476.845.845,0,0,0-.108.348A.437.437,0,0,0,12.7,2a.539.539,0,0,0,.492-.36A4.45,4.45,0,0,0,13.608-.372Zm6.612-.12V-7.5a.548.548,0,0,0-.564-.588.567.567,0,0,0-.588.588V-.492A.574.574,0,0,0,19.656.1.562.562,0,0,0,20.22-.492Zm10.008.024V-3.084c0-1.464-.888-2.268-2.472-2.268a4.805,4.805,0,0,0-1.608.264c-.3.12-.528.264-.528.54a.45.45,0,0,0,.48.468,1.211,1.211,0,0,0,.372-.1,3.283,3.283,0,0,1,1.188-.216c1.044,0,1.44.432,1.44,1.38V-2.5a2.354,2.354,0,0,0-1.62-.612c-1.164,0-2.04.564-2.04,1.632,0,.96.828,1.62,1.992,1.62a2.043,2.043,0,0,0,1.692-.72v.108A.539.539,0,0,0,29.676.1.519.519,0,0,0,30.228-.468ZM29.1-1.476c0,.5-.6.852-1.308.852s-1.224-.312-1.224-.852.492-.852,1.248-.852C28.452-2.328,29.1-2.016,29.1-1.476ZM40.752-.468V-2.952c0-1.4-.7-2.4-2.148-2.4a2.259,2.259,0,0,0-2,1.068,1.981,1.981,0,0,0-1.836-1.068,1.88,1.88,0,0,0-1.692,1.008v-.384a.532.532,0,0,0-.564-.576.539.539,0,0,0-.564.576v4.26A.556.556,0,0,0,32.508.1a.549.549,0,0,0,.564-.564V-2.856a1.363,1.363,0,0,1,1.392-1.476,1.3,1.3,0,0,1,1.32,1.464v2.4A.549.549,0,0,0,36.348.1a.542.542,0,0,0,.564-.564V-2.856A1.405,1.405,0,0,1,38.34-4.332c.888,0,1.284.636,1.284,1.464v2.4A.556.556,0,0,0,40.188.1.549.549,0,0,0,40.752-.468ZM50.1-4.788a.469.469,0,0,0-.48-.516.513.513,0,0,0-.528.408l-1.38,3.732L46.176-4.992A.479.479,0,0,0,45.7-5.3a.478.478,0,0,0-.5.5.775.775,0,0,0,.048.228L47.112-.084a3.568,3.568,0,0,1-1.368,1.5.5.5,0,0,0-.288.468.476.476,0,0,0,.5.456.578.578,0,0,0,.288-.084,5.072,5.072,0,0,0,2.22-2.784c.672-1.548,1.224-3,1.584-4A.863.863,0,0,0,50.1-4.788ZM56.316-2.6a2.66,2.66,0,0,0-2.748-2.748A2.66,2.66,0,0,0,50.82-2.6,2.66,2.66,0,0,0,53.568.144,2.66,2.66,0,0,0,56.316-2.6Zm-1.128,0a1.621,1.621,0,0,1-1.62,1.788A1.621,1.621,0,0,1,51.948-2.6a1.621,1.621,0,0,1,1.62-1.788A1.621,1.621,0,0,1,55.188-2.6ZM57.72-4.74v2.448A2.169,2.169,0,0,0,59.892.144,1.837,1.837,0,0,0,61.62-.864V-.48A.526.526,0,0,0,62.184.1a.539.539,0,0,0,.564-.576V-4.74a.549.549,0,0,0-.564-.564.556.556,0,0,0-.564.564v2.388A1.376,1.376,0,0,1,60.2-.876,1.309,1.309,0,0,1,58.848-2.34v-2.4a.549.549,0,0,0-.564-.564A.541.541,0,0,0,57.72-4.74ZM67.728-4.8a.5.5,0,0,0-.528-.528,1.519,1.519,0,0,0-1.524,1.116v-.516a.536.536,0,0,0-.552-.576.555.555,0,0,0-.576.576v4.26A.535.535,0,0,0,65.112.1a.556.556,0,0,0,.564-.564V-2.436c0-1.212.576-1.836,1.524-1.836A.518.518,0,0,0,67.728-4.8Zm4.728-.192a.469.469,0,0,0-.48-.312.488.488,0,0,0-.5.516.505.505,0,0,0,.048.216L73.5-.2a.487.487,0,0,0,.456.3.487.487,0,0,0,.456-.3l1.98-4.368a.506.506,0,0,0,.048-.216.488.488,0,0,0-.5-.516.469.469,0,0,0-.48.312l-1.5,3.432ZM78.768-.468V-4.74A.556.556,0,0,0,78.2-5.3a.556.556,0,0,0-.564.564V-.468A.549.549,0,0,0,78.2.1.549.549,0,0,0,78.768-.468ZM77.544-6.78a.666.666,0,0,0,.66.66.666.666,0,0,0,.66-.66.666.666,0,0,0-.66-.66A.666.666,0,0,0,77.544-6.78Zm6.2,1.98a.5.5,0,0,0-.528-.528A1.519,1.519,0,0,0,81.7-4.212v-.516a.536.536,0,0,0-.552-.576.555.555,0,0,0-.576.576v4.26A.535.535,0,0,0,81.132.1.556.556,0,0,0,81.7-.468V-2.436c0-1.212.576-1.836,1.524-1.836A.518.518,0,0,0,83.748-4.8ZM86.592-.468v-3.8h1.032a.461.461,0,0,0,.468-.468.461.461,0,0,0-.468-.468H86.592V-6.78a.549.549,0,0,0-.564-.564.549.549,0,0,0-.564.564v1.572h-.912a.461.461,0,0,0-.468.468.461.461,0,0,0,.468.468h.912v3.8A.549.549,0,0,0,86.028.1.549.549,0,0,0,86.592-.468Zm2.34-4.272v2.448A2.169,2.169,0,0,0,91.1.144,1.837,1.837,0,0,0,92.832-.864V-.48A.526.526,0,0,0,93.4.1.539.539,0,0,0,93.96-.48V-4.74A.549.549,0,0,0,93.4-5.3a.556.556,0,0,0-.564.564v2.388A1.376,1.376,0,0,1,91.416-.876,1.309,1.309,0,0,1,90.06-2.34v-2.4A.549.549,0,0,0,89.5-5.3.541.541,0,0,0,88.932-4.74ZM100.248-.468V-3.084c0-1.464-.888-2.268-2.472-2.268a4.805,4.805,0,0,0-1.608.264c-.3.12-.528.264-.528.54a.45.45,0,0,0,.48.468,1.211,1.211,0,0,0,.372-.1,3.283,3.283,0,0,1,1.188-.216c1.044,0,1.44.432,1.44,1.38V-2.5a2.354,2.354,0,0,0-1.62-.612c-1.164,0-2.04.564-2.04,1.632,0,.96.828,1.62,1.992,1.62a2.043,2.043,0,0,0,1.692-.72v.108A.539.539,0,0,0,99.7.1.519.519,0,0,0,100.248-.468ZM99.12-1.476c0,.5-.6.852-1.308.852s-1.224-.312-1.224-.852.492-.852,1.248-.852C98.472-2.328,99.12-2.016,99.12-1.476Zm3.972,1.008V-7.524a.549.549,0,0,0-.564-.564.549.549,0,0,0-.564.564V-.468a.549.549,0,0,0,.564.564A.549.549,0,0,0,103.092-.468ZM113.856-2.6a2.556,2.556,0,0,0-2.508-2.748A2.158,2.158,0,0,0,109.5-4.32v-3.2a.549.549,0,0,0-.564-.564.549.549,0,0,0-.564.564V-.468a.523.523,0,0,0,.54.564.542.542,0,0,0,.552-.576V-.888A2.163,2.163,0,0,0,111.348.144,2.591,2.591,0,0,0,113.856-2.6Zm-1.128,0A1.623,1.623,0,0,1,111.12-.792,1.7,1.7,0,0,1,109.5-2.6a1.7,1.7,0,0,1,1.62-1.812A1.623,1.623,0,0,1,112.728-2.6Zm7.08,2.136V-3.084c0-1.464-.888-2.268-2.472-2.268a4.805,4.805,0,0,0-1.608.264c-.3.12-.528.264-.528.54a.45.45,0,0,0,.48.468,1.211,1.211,0,0,0,.372-.1,3.283,3.283,0,0,1,1.188-.216c1.044,0,1.44.432,1.44,1.38V-2.5a2.354,2.354,0,0,0-1.62-.612c-1.164,0-2.04.564-2.04,1.632,0,.96.828,1.62,1.992,1.62a2.043,2.043,0,0,0,1.692-.72v.108a.539.539,0,0,0,.552.564A.519.519,0,0,0,119.808-.468ZM118.68-1.476c0,.5-.6.852-1.308.852s-1.224-.312-1.224-.852.492-.852,1.248-.852C118.032-2.328,118.68-2.016,118.68-1.476Zm7.872,1.008V-2.916a2.169,2.169,0,0,0-2.172-2.436,1.837,1.837,0,0,0-1.728,1.008v-.384a.526.526,0,0,0-.564-.576.539.539,0,0,0-.564.576v4.26a.549.549,0,0,0,.564.564.556.556,0,0,0,.564-.564V-2.856a1.376,1.376,0,0,1,1.416-1.476,1.309,1.309,0,0,1,1.356,1.464v2.4a.549.549,0,0,0,.564.564A.541.541,0,0,0,126.552-.468Zm2.868,0V-1.932l.7-.564L131.964-.12a.459.459,0,0,0,.384.216.5.5,0,0,0,.54-.516.512.512,0,0,0-.12-.324L130.92-3.12l1.62-1.26a.55.55,0,0,0,.264-.432.493.493,0,0,0-.516-.492.557.557,0,0,0-.348.12l-2.52,1.968V-7.524a.549.549,0,0,0-.564-.564.549.549,0,0,0-.564.564V-.468a.549.549,0,0,0,.564.564A.549.549,0,0,0,129.42-.468Zm5.976,0V-4.74a.556.556,0,0,0-.564-.564.556.556,0,0,0-.564.564V-.468a.549.549,0,0,0,.564.564A.549.549,0,0,0,135.4-.468ZM134.172-6.78a.666.666,0,0,0,.66.66.666.666,0,0,0,.66-.66.666.666,0,0,0-.66-.66A.666.666,0,0,0,134.172-6.78Zm8.052,6.312V-2.916a2.169,2.169,0,0,0-2.172-2.436,1.837,1.837,0,0,0-1.728,1.008v-.384a.526.526,0,0,0-.564-.576.539.539,0,0,0-.564.576v4.26A.549.549,0,0,0,137.76.1a.556.556,0,0,0,.564-.564V-2.856a1.376,1.376,0,0,1,1.416-1.476A1.309,1.309,0,0,1,141.1-2.868v2.4A.549.549,0,0,0,141.66.1.541.541,0,0,0,142.224-.468Zm5.76-2.232A1.609,1.609,0,0,1,146.376-1a1.6,1.6,0,0,1-1.62-1.7,1.592,1.592,0,0,1,1.62-1.7A1.6,1.6,0,0,1,147.984-2.7Zm1.128,2.328V-4.74a.526.526,0,0,0-.552-.564.527.527,0,0,0-.54.576v.384a2.136,2.136,0,0,0-1.86-1.008A2.482,2.482,0,0,0,143.628-2.7,2.5,2.5,0,0,0,146.16-.048a2.119,2.119,0,0,0,1.824-1.008v.768c0,1.08-.4,1.716-1.752,1.716A2.917,2.917,0,0,1,144.72,1a.494.494,0,0,0-.8.372.521.521,0,0,0,.3.444,4.154,4.154,0,0,0,2.088.528C148.308,2.34,149.112,1.284,149.112-.372Zm9.768-.1V-3.084c0-1.464-.888-2.268-2.472-2.268a4.805,4.805,0,0,0-1.608.264c-.3.12-.528.264-.528.54a.45.45,0,0,0,.48.468,1.211,1.211,0,0,0,.372-.1,3.283,3.283,0,0,1,1.188-.216c1.044,0,1.44.432,1.44,1.38V-2.5a2.354,2.354,0,0,0-1.62-.612c-1.164,0-2.04.564-2.04,1.632,0,.96.828,1.62,1.992,1.62a2.043,2.043,0,0,0,1.692-.72v.108a.539.539,0,0,0,.552.564A.519.519,0,0,0,158.88-.468Zm-1.128-1.008c0,.5-.6.852-1.308.852s-1.224-.312-1.224-.852.492-.852,1.248-.852C157.1-2.328,157.752-2.016,157.752-1.476Zm6.984.084c0-.972-.672-1.32-1.968-1.692-.864-.252-1.224-.384-1.224-.792s.408-.576,1.008-.576a2.356,2.356,0,0,1,1.14.276,1.093,1.093,0,0,0,.492.168.393.393,0,0,0,.432-.42c0-.24-.228-.432-.552-.588a3.547,3.547,0,0,0-1.488-.336c-1.3,0-2.124.588-2.124,1.488,0,.864.54,1.368,2.016,1.764.84.228,1.176.384,1.176.792,0,.372-.348.612-1,.612a2.262,2.262,0,0,1-1.356-.468.7.7,0,0,0-.444-.168.4.4,0,0,0-.432.4.6.6,0,0,0,.24.468,3.125,3.125,0,0,0,1.908.612C163.992.144,164.736-.5,164.736-1.392Zm5.46,0c0-.972-.672-1.32-1.968-1.692-.864-.252-1.224-.384-1.224-.792s.408-.576,1.008-.576a2.356,2.356,0,0,1,1.14.276,1.093,1.093,0,0,0,.492.168.393.393,0,0,0,.432-.42c0-.24-.228-.432-.552-.588a3.547,3.547,0,0,0-1.488-.336c-1.3,0-2.124.588-2.124,1.488,0,.864.54,1.368,2.016,1.764.84.228,1.176.384,1.176.792,0,.372-.348.612-1,.612a2.262,2.262,0,0,1-1.356-.468.7.7,0,0,0-.444-.168.4.4,0,0,0-.432.4.6.6,0,0,0,.24.468,3.125,3.125,0,0,0,1.908.612C169.452.144,170.2-.5,170.2-1.392Zm2.532.924V-4.74a.556.556,0,0,0-.564-.564.556.556,0,0,0-.564.564V-.468a.549.549,0,0,0,.564.564A.549.549,0,0,0,172.728-.468ZM171.5-6.78a.666.666,0,0,0,.66.66.666.666,0,0,0,.66-.66.666.666,0,0,0-.66-.66A.666.666,0,0,0,171.5-6.78Zm7.164,5.388c0-.972-.672-1.32-1.968-1.692-.864-.252-1.224-.384-1.224-.792s.408-.576,1.008-.576a2.356,2.356,0,0,1,1.14.276,1.093,1.093,0,0,0,.492.168.393.393,0,0,0,.432-.42c0-.24-.228-.432-.552-.588a3.547,3.547,0,0,0-1.488-.336c-1.3,0-2.124.588-2.124,1.488,0,.864.54,1.368,2.016,1.764.84.228,1.176.384,1.176.792,0,.372-.348.612-1,.612a2.262,2.262,0,0,1-1.356-.468.7.7,0,0,0-.444-.168.4.4,0,0,0-.432.4.6.6,0,0,0,.24.468A3.125,3.125,0,0,0,176.5.144C177.924.144,178.668-.5,178.668-1.392Zm3.132.924v-3.8h1.032a.461.461,0,0,0,.468-.468.461.461,0,0,0-.468-.468H181.8V-6.78a.549.549,0,0,0-.564-.564.549.549,0,0,0-.564.564v1.572h-.912a.461.461,0,0,0-.468.468.461.461,0,0,0,.468.468h.912v3.8a.549.549,0,0,0,.564.564A.549.549,0,0,0,181.8-.468Zm6.888,0V-3.084c0-1.464-.888-2.268-2.472-2.268a4.805,4.805,0,0,0-1.608.264c-.3.12-.528.264-.528.54a.45.45,0,0,0,.48.468,1.211,1.211,0,0,0,.372-.1,3.283,3.283,0,0,1,1.188-.216c1.044,0,1.44.432,1.44,1.38V-2.5a2.354,2.354,0,0,0-1.62-.612c-1.164,0-2.04.564-2.04,1.632,0,.96.828,1.62,1.992,1.62a2.043,2.043,0,0,0,1.692-.72v.108a.539.539,0,0,0,.552.564A.519.519,0,0,0,188.688-.468ZM187.56-1.476c0,.5-.6.852-1.308.852s-1.224-.312-1.224-.852.492-.852,1.248-.852C186.912-2.328,187.56-2.016,187.56-1.476Zm7.872,1.008V-2.916a2.169,2.169,0,0,0-2.172-2.436,1.837,1.837,0,0,0-1.728,1.008v-.384a.526.526,0,0,0-.564-.576.539.539,0,0,0-.564.576v4.26a.549.549,0,0,0,.564.564.556.556,0,0,0,.564-.564V-2.856a1.376,1.376,0,0,1,1.416-1.476A1.309,1.309,0,0,1,194.3-2.868v2.4a.549.549,0,0,0,.564.564A.541.541,0,0,0,195.432-.468Zm3.468,0v-3.8h1.032a.461.461,0,0,0,.468-.468.461.461,0,0,0-.468-.468H198.9V-6.78a.549.549,0,0,0-.564-.564.549.549,0,0,0-.564.564v1.572h-.912a.461.461,0,0,0-.468.468.461.461,0,0,0,.468.468h.912v3.8a.549.549,0,0,0,.564.564A.549.549,0,0,0,198.9-.468Zm1.74-.156a.722.722,0,0,0,.72.72.722.722,0,0,0,.72-.72.722.722,0,0,0-.72-.72A.722.722,0,0,0,200.64-.624Z" transform="translate(18591 1666)"/>
    <g id="Group_1350" data-name="Group 1350" transform="translate(11891 1564)">
      <path id="Path_490" data-name="Path 490" class="cls-3" d="M12,0A12,12,0,1,1,0,12,12,12,0,0,1,12,0Z" transform="translate(6667 69)"/>
      <g id="bank" transform="translate(7019.946 357.258)">
        <g id="Group_500" data-name="Group 500" transform="translate(-347.946 -283.258)">
          <g id="Group_499" data-name="Group 499" transform="translate(0 0)">
            <path id="Path_365" data-name="Path 365" class="cls-1" d="M14.027,6.046,9.333,3.026a.2.2,0,1,0-.218.339L13.74,6.341H12.662L7.4,2.953a.547.547,0,0,0-.59,0L1.54,6.341H.462L7.1,2.069l.94.6a.2.2,0,1,0,.218-.339l-.94-.6a.4.4,0,0,0-.436,0L.175,6.046a.379.379,0,0,0,.205.7H1.4v1.3a.335.335,0,0,0,.265.327v.355A.334.334,0,0,0,2,9.065h.028v2.472a.2.2,0,0,0,.4,0V8.863a.2.2,0,0,0-.2-.2h-.16V8.383H3.5v.278h-.16a.2.2,0,0,0-.2.2V13.32a.2.2,0,0,0,.2.2H3.5v.3H2.066v-.3h.16a.2.2,0,0,0,.2-.2V12.8a.2.2,0,0,0-.4,0v.314H2a.334.334,0,0,0-.334.334v.355a.335.335,0,0,0-.265.327v.407H.683a.4.4,0,0,0-.4.4v.424a.4.4,0,0,0,.4.4H13.519a.4.4,0,0,0,.4-.4v-.424a.4.4,0,0,0-.4-.4H12.8v-.407a.335.335,0,0,0-.265-.327v-.355a.334.334,0,0,0-.334-.334h-.028V9.065h.028a.334.334,0,0,0,.334-.334V8.376a.335.335,0,0,0,.265-.327v-1.3h1.017a.379.379,0,0,0,.205-.7Zm-7-2.753a.142.142,0,0,1,.154,0l4.738,3.049H2.286ZM1.8,6.745H12.4v.494H1.8Zm6.418,7.063v-.355a.334.334,0,0,0-.334-.334H7.857V9.065h.028a.334.334,0,0,0,.334-.334V8.376a.335.335,0,0,0,.265-.327V7.642h1.554v.407a.335.335,0,0,0,.265.327v.355a.334.334,0,0,0,.334.334h.028v4.054h-.028a.334.334,0,0,0-.334.334v.355a.335.335,0,0,0-.265.327v.407H8.484v-.407A.335.335,0,0,0,8.219,13.808Zm-4.32,0v-.355a.334.334,0,0,0-.334-.334H3.537V9.065h.028A.334.334,0,0,0,3.9,8.731V8.376a.335.335,0,0,0,.265-.327V7.642H5.718v.407a.335.335,0,0,0,.265.327v.355a.334.334,0,0,0,.334.334h.028v4.054H6.317a.334.334,0,0,0-.334.334v.355a.335.335,0,0,0-.265.327v.407H4.164v-.407A.335.335,0,0,0,3.9,13.808Zm3.757-.286h.16v.3H6.387v-.3h.16a.2.2,0,0,0,.2-.2V8.863a.2.2,0,0,0-.2-.2h-.16V8.383H7.815v.278h-.16a.2.2,0,0,0-.2.2V13.32A.2.2,0,0,0,7.655,13.522ZM6.185,7.98H6.121V7.642H8.08V7.98h-1.9Zm-.063,6.239a.2.2,0,0,0,.062.01H8.016a.2.2,0,0,0,.064-.011v.324H6.121ZM1.865,7.98H1.8V7.642H3.76V7.98h-1.9ZM1.8,14.218a.2.2,0,0,0,.063.01H3.7a.2.2,0,0,0,.063-.01v.324H1.8v-.324Zm11.719.728v.425H.682v-.425Zm-1.183-.718a.2.2,0,0,0,.064-.011v.324H10.442v-.324a.2.2,0,0,0,.063.01Zm-1.47-5.567h-.16V8.383h1.429v.278h-.16a.2.2,0,0,0-.2.2V13.32a.2.2,0,0,0,.2.2h.16v.3H10.707v-.3h.16a.2.2,0,0,0,.2-.2V8.863A.2.2,0,0,0,10.867,8.662ZM12.4,7.98H10.442V7.642H12.4V7.98Z" transform="translate(0 -1.666)"/>
          </g>
        </g>
      </g>
    </g>
  </g>
</svg>
