<svg xmlns="http://www.w3.org/2000/svg" viewBox="0 0 287 75">
  <defs>
    <style>
      .cls-1 {
        fill: #fff;
      }

      .cls-2 {
        fill: #4d4d4d;
      }

      .cls-3 {
        fill: #8c1313;
      }
    </style>
  </defs>
  <g id="Group_1353" data-name="Group 1353" transform="translate(-18555 -1716)">
    <rect id="Rectangle_1357" data-name="Rectangle 1357" class="cls-1" width="275" height="65" rx="17" transform="translate(18567 1726)"/>
    <path id="Path_940" data-name="Path 940" class="cls-2" d="M7.068-7.44a.543.543,0,0,0-.552-.552H.852A.543.543,0,0,0,.3-7.44a.546.546,0,0,0,.552.528H3.12v6.42A.574.574,0,0,0,3.708.1a.562.562,0,0,0,.564-.588v-6.42H6.516A.546.546,0,0,0,7.068-7.44Zm4.5,4.836A2.66,2.66,0,0,0,8.82-5.352,2.66,2.66,0,0,0,6.072-2.6,2.66,2.66,0,0,0,8.82.144,2.66,2.66,0,0,0,11.568-2.6Zm-1.128,0A1.621,1.621,0,0,1,8.82-.816,1.621,1.621,0,0,1,7.2-2.6,1.621,1.621,0,0,1,8.82-4.392,1.621,1.621,0,0,1,10.44-2.6Zm8.424-2.748A2.646,2.646,0,0,0,16.176-2.6,2.589,2.589,0,0,0,18.912.144a2.874,2.874,0,0,0,2.136-.876.5.5,0,0,0,.144-.324.454.454,0,0,0-.468-.468.551.551,0,0,0-.372.18,1.844,1.844,0,0,1-1.392.588,1.5,1.5,0,0,1-1.62-1.452h3.588c.324,0,.432-.192.432-.384A2.548,2.548,0,0,0,18.864-5.352ZM20.316-3.12H17.364a1.49,1.49,0,0,1,1.5-1.332A1.463,1.463,0,0,1,20.316-3.12ZM27.864-.468V-2.916a2.169,2.169,0,0,0-2.172-2.436,1.837,1.837,0,0,0-1.728,1.008v-.384A.526.526,0,0,0,23.4-5.3a.539.539,0,0,0-.564.576v4.26A.549.549,0,0,0,23.4.1a.556.556,0,0,0,.564-.564V-2.856A1.376,1.376,0,0,1,25.38-4.332a1.309,1.309,0,0,1,1.356,1.464v2.4A.549.549,0,0,0,27.3.1.541.541,0,0,0,27.864-.468Zm1.4-2.136A2.556,2.556,0,0,0,31.776.144,2.158,2.158,0,0,0,33.624-.888V1.776a.564.564,0,1,0,1.128,0V-4.74a.523.523,0,0,0-.54-.564.542.542,0,0,0-.552.576v.408a2.163,2.163,0,0,0-1.884-1.032A2.591,2.591,0,0,0,29.268-2.6Zm1.128,0A1.623,1.623,0,0,1,32-4.416,1.7,1.7,0,0,1,33.624-2.6,1.7,1.7,0,0,1,32-.792,1.623,1.623,0,0,1,30.4-2.6Zm6.1-2.136v2.448A2.169,2.169,0,0,0,38.664.144,1.837,1.837,0,0,0,40.392-.864V-.48A.526.526,0,0,0,40.956.1.539.539,0,0,0,41.52-.48V-4.74a.549.549,0,0,0-.564-.564.556.556,0,0,0-.564.564v2.388A1.376,1.376,0,0,1,38.976-.876,1.309,1.309,0,0,1,37.62-2.34v-2.4a.549.549,0,0,0-.564-.564A.541.541,0,0,0,36.492-4.74ZM44.448-.468V-4.74a.556.556,0,0,0-.564-.564.556.556,0,0,0-.564.564V-.468A.549.549,0,0,0,43.884.1.549.549,0,0,0,44.448-.468ZM43.224-6.78a.666.666,0,0,0,.66.66.666.666,0,0,0,.66-.66.666.666,0,0,0-.66-.66A.666.666,0,0,0,43.224-6.78Zm6.2,1.98a.5.5,0,0,0-.528-.528,1.519,1.519,0,0,0-1.524,1.116v-.516a.536.536,0,0,0-.552-.576.555.555,0,0,0-.576.576v4.26A.535.535,0,0,0,46.812.1a.556.556,0,0,0,.564-.564V-2.436c0-1.212.576-1.836,1.524-1.836A.518.518,0,0,0,49.428-4.8Zm3.216-.552A2.646,2.646,0,0,0,49.956-2.6,2.589,2.589,0,0,0,52.692.144a2.874,2.874,0,0,0,2.136-.876.5.5,0,0,0,.144-.324.454.454,0,0,0-.468-.468.551.551,0,0,0-.372.18,1.844,1.844,0,0,1-1.392.588,1.5,1.5,0,0,1-1.62-1.452h3.588c.324,0,.432-.192.432-.384A2.548,2.548,0,0,0,52.644-5.352ZM54.1-3.12H51.144a1.49,1.49,0,0,1,1.5-1.332A1.463,1.463,0,0,1,54.1-3.12ZM64.584-.468V-3.084c0-1.464-.888-2.268-2.472-2.268a4.805,4.805,0,0,0-1.608.264c-.3.12-.528.264-.528.54a.45.45,0,0,0,.48.468,1.211,1.211,0,0,0,.372-.1,3.283,3.283,0,0,1,1.188-.216c1.044,0,1.44.432,1.44,1.38V-2.5a2.354,2.354,0,0,0-1.62-.612c-1.164,0-2.04.564-2.04,1.632,0,.96.828,1.62,1.992,1.62a2.043,2.043,0,0,0,1.692-.72v.108A.539.539,0,0,0,64.032.1.519.519,0,0,0,64.584-.468ZM63.456-1.476c0,.5-.6.852-1.308.852s-1.224-.312-1.224-.852.492-.852,1.248-.852C62.808-2.328,63.456-2.016,63.456-1.476ZM71.784-2.6a2.556,2.556,0,0,0-2.508-2.748A2.158,2.158,0,0,0,67.428-4.32v-3.2a.549.549,0,0,0-.564-.564.549.549,0,0,0-.564.564V-.468A.523.523,0,0,0,66.84.1a.542.542,0,0,0,.552-.576V-.888A2.163,2.163,0,0,0,69.276.144,2.591,2.591,0,0,0,71.784-2.6Zm-1.128,0A1.623,1.623,0,0,1,69.048-.792,1.7,1.7,0,0,1,67.428-2.6a1.7,1.7,0,0,1,1.62-1.812A1.623,1.623,0,0,1,70.656-2.6Zm7.752,0A2.66,2.66,0,0,0,75.66-5.352,2.66,2.66,0,0,0,72.912-2.6,2.66,2.66,0,0,0,75.66.144,2.66,2.66,0,0,0,78.408-2.6Zm-1.128,0A1.621,1.621,0,0,1,75.66-.816,1.621,1.621,0,0,1,74.04-2.6a1.621,1.621,0,0,1,1.62-1.788A1.621,1.621,0,0,1,77.28-2.6ZM79.812-4.74v2.448A2.169,2.169,0,0,0,81.984.144,1.837,1.837,0,0,0,83.712-.864V-.48A.526.526,0,0,0,84.276.1.539.539,0,0,0,84.84-.48V-4.74a.549.549,0,0,0-.564-.564.556.556,0,0,0-.564.564v2.388A1.376,1.376,0,0,1,82.3-.876,1.309,1.309,0,0,1,80.94-2.34v-2.4a.549.549,0,0,0-.564-.564A.541.541,0,0,0,79.812-4.74ZM88.4-.468v-3.8h1.032A.461.461,0,0,0,89.9-4.74a.461.461,0,0,0-.468-.468H88.4V-6.78a.549.549,0,0,0-.564-.564.549.549,0,0,0-.564.564v1.572h-.912a.461.461,0,0,0-.468.468.461.461,0,0,0,.468.468h.912v3.8A.549.549,0,0,0,87.84.1.549.549,0,0,0,88.4-.468Zm10.008-4.32a.469.469,0,0,0-.48-.516A.513.513,0,0,0,97.4-4.9l-1.38,3.732L94.488-4.992a.479.479,0,0,0-.48-.312.478.478,0,0,0-.5.5.775.775,0,0,0,.048.228L95.424-.084a3.568,3.568,0,0,1-1.368,1.5.5.5,0,0,0-.288.468.476.476,0,0,0,.5.456.578.578,0,0,0,.288-.084A5.072,5.072,0,0,0,96.78-.528c.672-1.548,1.224-3,1.584-4A.863.863,0,0,0,98.412-4.788ZM104.628-2.6a2.66,2.66,0,0,0-2.748-2.748A2.66,2.66,0,0,0,99.132-2.6,2.66,2.66,0,0,0,101.88.144,2.66,2.66,0,0,0,104.628-2.6Zm-1.128,0a1.621,1.621,0,0,1-1.62,1.788A1.621,1.621,0,0,1,100.26-2.6a1.621,1.621,0,0,1,1.62-1.788A1.621,1.621,0,0,1,103.5-2.6Zm2.532-2.136v2.448A2.169,2.169,0,0,0,108.2.144a1.837,1.837,0,0,0,1.728-1.008V-.48A.526.526,0,0,0,110.5.1a.539.539,0,0,0,.564-.576V-4.74A.549.549,0,0,0,110.5-5.3a.556.556,0,0,0-.564.564v2.388a1.376,1.376,0,0,1-1.416,1.476A1.309,1.309,0,0,1,107.16-2.34v-2.4A.549.549,0,0,0,106.6-5.3.541.541,0,0,0,106.032-4.74ZM116.04-4.8a.5.5,0,0,0-.528-.528,1.519,1.519,0,0,0-1.524,1.116v-.516a.536.536,0,0,0-.552-.576.555.555,0,0,0-.576.576v4.26a.535.535,0,0,0,.564.564.556.556,0,0,0,.564-.564V-2.436c0-1.212.576-1.836,1.524-1.836A.518.518,0,0,0,116.04-4.8Zm10.008,2.2a2.556,2.556,0,0,0-2.508-2.748,2.158,2.158,0,0,0-1.848,1.032v-3.2a.549.549,0,0,0-.564-.564.549.549,0,0,0-.564.564V-.468A.523.523,0,0,0,121.1.1a.542.542,0,0,0,.552-.576V-.888A2.163,2.163,0,0,0,123.54.144,2.591,2.591,0,0,0,126.048-2.6Zm-1.128,0a1.623,1.623,0,0,1-1.608,1.812,1.7,1.7,0,0,1-1.62-1.812,1.7,1.7,0,0,1,1.62-1.812A1.623,1.623,0,0,1,124.92-2.6ZM132-.468V-3.084c0-1.464-.888-2.268-2.472-2.268a4.805,4.805,0,0,0-1.608.264c-.3.12-.528.264-.528.54a.45.45,0,0,0,.48.468,1.211,1.211,0,0,0,.372-.1,3.283,3.283,0,0,1,1.188-.216c1.044,0,1.44.432,1.44,1.38V-2.5a2.354,2.354,0,0,0-1.62-.612c-1.164,0-2.04.564-2.04,1.632,0,.96.828,1.62,1.992,1.62a2.043,2.043,0,0,0,1.692-.72v.108a.539.539,0,0,0,.552.564A.519.519,0,0,0,132-.468Zm-1.128-1.008c0,.5-.6.852-1.308.852s-1.224-.312-1.224-.852.492-.852,1.248-.852C130.224-2.328,130.872-2.016,130.872-1.476Zm3.972,1.008V-7.524a.549.549,0,0,0-.564-.564.549.549,0,0,0-.564.564V-.468A.549.549,0,0,0,134.28.1.549.549,0,0,0,134.844-.468Zm6.288,0V-3.084c0-1.464-.888-2.268-2.472-2.268a4.805,4.805,0,0,0-1.608.264c-.3.12-.528.264-.528.54a.45.45,0,0,0,.48.468,1.211,1.211,0,0,0,.372-.1,3.283,3.283,0,0,1,1.188-.216c1.044,0,1.44.432,1.44,1.38V-2.5a2.354,2.354,0,0,0-1.62-.612c-1.164,0-2.04.564-2.04,1.632,0,.96.828,1.62,1.992,1.62a2.043,2.043,0,0,0,1.692-.72v.108A.539.539,0,0,0,140.58.1.519.519,0,0,0,141.132-.468ZM140-1.476c0,.5-.6.852-1.308.852s-1.224-.312-1.224-.852.492-.852,1.248-.852C139.356-2.328,140-2.016,140-1.476Zm7.872,1.008V-2.916A2.169,2.169,0,0,0,145.7-5.352a1.837,1.837,0,0,0-1.728,1.008v-.384a.526.526,0,0,0-.564-.576.539.539,0,0,0-.564.576v4.26a.549.549,0,0,0,.564.564.556.556,0,0,0,.564-.564V-2.856a1.376,1.376,0,0,1,1.416-1.476,1.309,1.309,0,0,1,1.356,1.464v2.4a.549.549,0,0,0,.564.564A.541.541,0,0,0,147.876-.468ZM152.1-5.352A2.642,2.642,0,0,0,149.292-2.6,2.642,2.642,0,0,0,152.1.144a2.536,2.536,0,0,0,1.86-.756.55.55,0,0,0,.168-.4.472.472,0,0,0-.516-.456c-.2,0-.336.168-.48.288a1.523,1.523,0,0,1-1.02.372,1.659,1.659,0,0,1-1.692-1.8,1.659,1.659,0,0,1,1.692-1.8,1.523,1.523,0,0,1,1.02.372c.144.12.276.288.48.288a.472.472,0,0,0,.516-.456.55.55,0,0,0-.168-.4A2.536,2.536,0,0,0,152.1-5.352Zm5.856,0A2.646,2.646,0,0,0,155.268-2.6,2.589,2.589,0,0,0,158,.144a2.874,2.874,0,0,0,2.136-.876.5.5,0,0,0,.144-.324.454.454,0,0,0-.468-.468.551.551,0,0,0-.372.18,1.844,1.844,0,0,1-1.392.588,1.5,1.5,0,0,1-1.62-1.452h3.588c.324,0,.432-.192.432-.384A2.548,2.548,0,0,0,157.956-5.352Zm1.452,2.232h-2.952a1.49,1.49,0,0,1,1.5-1.332A1.463,1.463,0,0,1,159.408-3.12Zm11.484.516a2.591,2.591,0,0,0-2.508-2.748A2.163,2.163,0,0,0,166.5-4.32v-.408a.542.542,0,0,0-.552-.576.523.523,0,0,0-.54.564V1.776a.564.564,0,0,0,1.128,0V-.888A2.158,2.158,0,0,0,168.384.144,2.556,2.556,0,0,0,170.892-2.6Zm-1.128,0a1.623,1.623,0,0,1-1.608,1.812,1.7,1.7,0,0,1-1.62-1.812,1.7,1.7,0,0,1,1.62-1.812A1.623,1.623,0,0,1,169.764-2.6Zm3.72,2.136V-7.524a.549.549,0,0,0-.564-.564.549.549,0,0,0-.564.564V-.468A.549.549,0,0,0,172.92.1.549.549,0,0,0,173.484-.468Zm4.152-4.884A2.646,2.646,0,0,0,174.948-2.6,2.589,2.589,0,0,0,177.684.144a2.874,2.874,0,0,0,2.136-.876.5.5,0,0,0,.144-.324.454.454,0,0,0-.468-.468.551.551,0,0,0-.372.18,1.844,1.844,0,0,1-1.392.588,1.5,1.5,0,0,1-1.62-1.452H179.7c.324,0,.432-.192.432-.384A2.548,2.548,0,0,0,177.636-5.352Zm1.452,2.232h-2.952a1.49,1.49,0,0,1,1.5-1.332A1.463,1.463,0,0,1,179.088-3.12ZM186.1-.468V-3.084c0-1.464-.888-2.268-2.472-2.268a4.805,4.805,0,0,0-1.608.264c-.3.12-.528.264-.528.54a.45.45,0,0,0,.48.468,1.211,1.211,0,0,0,.372-.1,3.283,3.283,0,0,1,1.188-.216c1.044,0,1.44.432,1.44,1.38V-2.5a2.354,2.354,0,0,0-1.62-.612c-1.164,0-2.04.564-2.04,1.632,0,.96.828,1.62,1.992,1.62a2.043,2.043,0,0,0,1.692-.72v.108a.539.539,0,0,0,.552.564A.519.519,0,0,0,186.1-.468Zm-1.128-1.008c0,.5-.6.852-1.308.852s-1.224-.312-1.224-.852.492-.852,1.248-.852C184.32-2.328,184.968-2.016,184.968-1.476Zm6.984.084c0-.972-.672-1.32-1.968-1.692-.864-.252-1.224-.384-1.224-.792s.408-.576,1.008-.576a2.356,2.356,0,0,1,1.14.276,1.093,1.093,0,0,0,.492.168.393.393,0,0,0,.432-.42c0-.24-.228-.432-.552-.588a3.547,3.547,0,0,0-1.488-.336c-1.3,0-2.124.588-2.124,1.488,0,.864.54,1.368,2.016,1.764.84.228,1.176.384,1.176.792,0,.372-.348.612-1,.612a2.262,2.262,0,0,1-1.356-.468.7.7,0,0,0-.444-.168.4.4,0,0,0-.432.4.6.6,0,0,0,.24.468,3.125,3.125,0,0,0,1.908.612C191.208.144,191.952-.5,191.952-1.392Zm3.756-3.96A2.646,2.646,0,0,0,193.02-2.6,2.589,2.589,0,0,0,195.756.144a2.874,2.874,0,0,0,2.136-.876.5.5,0,0,0,.144-.324.454.454,0,0,0-.468-.468.551.551,0,0,0-.372.18,1.844,1.844,0,0,1-1.392.588,1.5,1.5,0,0,1-1.62-1.452h3.588c.324,0,.432-.192.432-.384A2.548,2.548,0,0,0,195.708-5.352ZM197.16-3.12h-2.952a1.49,1.49,0,0,1,1.5-1.332A1.463,1.463,0,0,1,197.16-3.12Zm8.352-2.232A2.646,2.646,0,0,0,202.824-2.6,2.589,2.589,0,0,0,205.56.144,2.874,2.874,0,0,0,207.7-.732a.5.5,0,0,0,.144-.324.454.454,0,0,0-.468-.468.551.551,0,0,0-.372.18,1.844,1.844,0,0,1-1.392.588,1.5,1.5,0,0,1-1.62-1.452h3.588c.324,0,.432-.192.432-.384A2.548,2.548,0,0,0,205.512-5.352Zm1.452,2.232h-2.952a1.49,1.49,0,0,1,1.5-1.332A1.463,1.463,0,0,1,206.964-3.12Zm7.548,2.652V-2.916a2.169,2.169,0,0,0-2.172-2.436,1.837,1.837,0,0,0-1.728,1.008v-.384a.526.526,0,0,0-.564-.576.539.539,0,0,0-.564.576v4.26a.549.549,0,0,0,.564.564.556.556,0,0,0,.564-.564V-2.856a1.376,1.376,0,0,1,1.416-1.476,1.309,1.309,0,0,1,1.356,1.464v2.4a.549.549,0,0,0,.564.564A.541.541,0,0,0,214.512-.468Zm3.468,0v-3.8h1.032a.461.461,0,0,0,.468-.468.461.461,0,0,0-.468-.468H217.98V-6.78a.549.549,0,0,0-.564-.564.549.549,0,0,0-.564.564v1.572h-.912a.461.461,0,0,0-.468.468.461.461,0,0,0,.468.468h.912v3.8a.549.549,0,0,0,.564.564A.549.549,0,0,0,217.98-.468Zm4.608-4.884A2.646,2.646,0,0,0,219.9-2.6,2.589,2.589,0,0,0,222.636.144a2.874,2.874,0,0,0,2.136-.876.5.5,0,0,0,.144-.324.454.454,0,0,0-.468-.468.551.551,0,0,0-.372.18,1.844,1.844,0,0,1-1.392.588,1.5,1.5,0,0,1-1.62-1.452h3.588c.324,0,.432-.192.432-.384A2.548,2.548,0,0,0,222.588-5.352ZM224.04-3.12h-2.952a1.49,1.49,0,0,1,1.5-1.332A1.463,1.463,0,0,1,224.04-3.12Zm5.7-1.68a.5.5,0,0,0-.528-.528,1.519,1.519,0,0,0-1.524,1.116v-.516a.536.536,0,0,0-.552-.576.555.555,0,0,0-.576.576v4.26a.535.535,0,0,0,.564.564.556.556,0,0,0,.564-.564V-2.436c0-1.212.576-1.836,1.524-1.836A.518.518,0,0,0,229.74-4.8ZM2.664,13.532v-3.8H3.7a.468.468,0,1,0,0-.936H2.664V7.22A.549.549,0,0,0,2.1,6.656a.549.549,0,0,0-.564.564V8.792H.624a.468.468,0,1,0,0,.936h.912v3.8A.549.549,0,0,0,2.1,14.1.549.549,0,0,0,2.664,13.532Zm7.428,0V11.084A2.169,2.169,0,0,0,7.92,8.648,1.837,1.837,0,0,0,6.192,9.656V6.488a.526.526,0,0,0-.564-.576.539.539,0,0,0-.564.576v7.044a.549.549,0,0,0,.564.564.556.556,0,0,0,.564-.564V11.144A1.376,1.376,0,0,1,7.608,9.668a1.309,1.309,0,0,1,1.356,1.464v2.4a.549.549,0,0,0,.564.564A.541.541,0,0,0,10.092,13.532Zm4.092-4.884A2.646,2.646,0,0,0,11.5,11.4a2.589,2.589,0,0,0,2.736,2.748,2.874,2.874,0,0,0,2.136-.876.5.5,0,0,0,.144-.324.454.454,0,0,0-.468-.468.551.551,0,0,0-.372.18,1.844,1.844,0,0,1-1.392.588,1.5,1.5,0,0,1-1.62-1.452h3.588c.324,0,.432-.192.432-.384A2.548,2.548,0,0,0,14.184,8.648Zm1.452,2.232H12.684a1.49,1.49,0,0,1,1.5-1.332A1.463,1.463,0,0,1,15.636,10.88Zm14.808,2.652V11.048c0-1.4-.7-2.4-2.148-2.4a2.259,2.259,0,0,0-2,1.068,1.981,1.981,0,0,0-1.836-1.068,1.88,1.88,0,0,0-1.692,1.008V9.272A.532.532,0,0,0,22.2,8.7a.539.539,0,0,0-.564.576v4.26a.556.556,0,0,0,.564.564.549.549,0,0,0,.564-.564V11.144a1.363,1.363,0,0,1,1.392-1.476,1.3,1.3,0,0,1,1.32,1.464v2.4a.549.549,0,0,0,.564.564.542.542,0,0,0,.564-.564V11.144a1.405,1.405,0,0,1,1.428-1.476c.888,0,1.284.636,1.284,1.464v2.4a.556.556,0,0,0,.564.564A.549.549,0,0,0,30.444,13.532Zm6.9-2.136a2.748,2.748,0,0,0-5.5,0,2.748,2.748,0,0,0,5.5,0Zm-1.128,0a1.628,1.628,0,1,1-3.24,0,1.628,1.628,0,1,1,3.24,0Zm8.076,0a2.556,2.556,0,0,0-2.508-2.748A2.158,2.158,0,0,0,39.936,9.68v-3.2a.564.564,0,1,0-1.128,0v7.056a.523.523,0,0,0,.54.564.542.542,0,0,0,.552-.576v-.408a2.163,2.163,0,0,0,1.884,1.032A2.591,2.591,0,0,0,44.292,11.4Zm-1.128,0a1.623,1.623,0,0,1-1.608,1.812,1.7,1.7,0,0,1-1.62-1.812,1.7,1.7,0,0,1,1.62-1.812A1.623,1.623,0,0,1,43.164,11.4Zm3.72,2.136V9.26a.564.564,0,1,0-1.128,0v4.272a.564.564,0,1,0,1.128,0ZM45.66,7.22a.66.66,0,1,0,.66-.66A.666.666,0,0,0,45.66,7.22Zm4.152,6.312V6.476a.564.564,0,1,0-1.128,0v7.056a.564.564,0,1,0,1.128,0Zm4.152-4.884A2.646,2.646,0,0,0,51.276,11.4a2.589,2.589,0,0,0,2.736,2.748,2.874,2.874,0,0,0,2.136-.876.5.5,0,0,0,.144-.324.454.454,0,0,0-.468-.468.551.551,0,0,0-.372.18,1.844,1.844,0,0,1-1.392.588,1.5,1.5,0,0,1-1.62-1.452h3.588c.324,0,.432-.192.432-.384A2.548,2.548,0,0,0,53.964,8.648Zm1.452,2.232H52.464a1.49,1.49,0,0,1,1.5-1.332A1.463,1.463,0,0,1,55.416,10.88Zm11.028,2.652V11.084a2.169,2.169,0,0,0-2.172-2.436,1.837,1.837,0,0,0-1.728,1.008V9.272A.526.526,0,0,0,61.98,8.7a.539.539,0,0,0-.564.576v4.26a.549.549,0,0,0,.564.564.556.556,0,0,0,.564-.564V11.144A1.376,1.376,0,0,1,63.96,9.668a1.309,1.309,0,0,1,1.356,1.464v2.4a.549.549,0,0,0,.564.564A.541.541,0,0,0,66.444,13.532Zm1.68-4.272v2.448A2.169,2.169,0,0,0,70.3,14.144a1.837,1.837,0,0,0,1.728-1.008v.384a.526.526,0,0,0,.564.576.539.539,0,0,0,.564-.576V9.26a.549.549,0,0,0-.564-.564.556.556,0,0,0-.564.564v2.388a1.376,1.376,0,0,1-1.416,1.476,1.309,1.309,0,0,1-1.356-1.464V9.26a.549.549,0,0,0-.564-.564A.541.541,0,0,0,68.124,9.26ZM83.76,13.532V11.048c0-1.4-.7-2.4-2.148-2.4a2.259,2.259,0,0,0-2,1.068,1.981,1.981,0,0,0-1.836-1.068A1.88,1.88,0,0,0,76.08,9.656V9.272a.532.532,0,0,0-.564-.576.539.539,0,0,0-.564.576v4.26a.556.556,0,0,0,.564.564.549.549,0,0,0,.564-.564V11.144a1.363,1.363,0,0,1,1.392-1.476,1.3,1.3,0,0,1,1.32,1.464v2.4a.549.549,0,0,0,.564.564.542.542,0,0,0,.564-.564V11.144a1.405,1.405,0,0,1,1.428-1.476c.888,0,1.284.636,1.284,1.464v2.4a.556.556,0,0,0,.564.564A.549.549,0,0,0,83.76,13.532ZM90.984,11.4a2.556,2.556,0,0,0-2.508-2.748A2.158,2.158,0,0,0,86.628,9.68v-3.2a.564.564,0,1,0-1.128,0v7.056a.523.523,0,0,0,.54.564.542.542,0,0,0,.552-.576v-.408a2.163,2.163,0,0,0,1.884,1.032A2.591,2.591,0,0,0,90.984,11.4Zm-1.128,0a1.623,1.623,0,0,1-1.608,1.812,1.7,1.7,0,0,1-1.62-1.812,1.7,1.7,0,0,1,1.62-1.812A1.623,1.623,0,0,1,89.856,11.4ZM94.8,8.648A2.646,2.646,0,0,0,92.112,11.4a2.589,2.589,0,0,0,2.736,2.748,2.874,2.874,0,0,0,2.136-.876.5.5,0,0,0,.144-.324.454.454,0,0,0-.468-.468.551.551,0,0,0-.372.18,1.844,1.844,0,0,1-1.392.588,1.5,1.5,0,0,1-1.62-1.452h3.588c.324,0,.432-.192.432-.384A2.548,2.548,0,0,0,94.8,8.648Zm1.452,2.232H93.3a1.49,1.49,0,0,1,1.5-1.332A1.463,1.463,0,0,1,96.252,10.88Zm5.7-1.68a.5.5,0,0,0-.528-.528A1.519,1.519,0,0,0,99.9,9.788V9.272a.536.536,0,0,0-.552-.576.555.555,0,0,0-.576.576v4.26a.535.535,0,0,0,.564.564.556.556,0,0,0,.564-.564V11.564c0-1.212.576-1.836,1.524-1.836A.518.518,0,0,0,101.952,9.2Zm9.012,4.332V10.916c0-1.464-.888-2.268-2.472-2.268a4.805,4.805,0,0,0-1.608.264c-.3.12-.528.264-.528.54a.45.45,0,0,0,.48.468,1.211,1.211,0,0,0,.372-.1,3.283,3.283,0,0,1,1.188-.216c1.044,0,1.44.432,1.44,1.38V11.5a2.354,2.354,0,0,0-1.62-.612c-1.164,0-2.04.564-2.04,1.632,0,.96.828,1.62,1.992,1.62a2.043,2.043,0,0,0,1.692-.72v.108a.539.539,0,0,0,.552.564A.519.519,0,0,0,110.964,13.532Zm-1.128-1.008c0,.5-.6.852-1.308.852s-1.224-.312-1.224-.852.492-.852,1.248-.852C109.188,11.672,109.836,11.984,109.836,12.524Zm6.984.084c0-.972-.672-1.32-1.968-1.692-.864-.252-1.224-.384-1.224-.792s.408-.576,1.008-.576a2.356,2.356,0,0,1,1.14.276,1.094,1.094,0,0,0,.492.168.393.393,0,0,0,.432-.42c0-.24-.228-.432-.552-.588a3.547,3.547,0,0,0-1.488-.336c-1.3,0-2.124.588-2.124,1.488,0,.864.54,1.368,2.016,1.764.84.228,1.176.384,1.176.792,0,.372-.348.612-1,.612a2.262,2.262,0,0,1-1.356-.468.7.7,0,0,0-.444-.168.4.4,0,0,0-.432.4.6.6,0,0,0,.24.468,3.125,3.125,0,0,0,1.908.612C116.076,14.144,116.82,13.5,116.82,12.608Zm5.46,0c0-.972-.672-1.32-1.968-1.692-.864-.252-1.224-.384-1.224-.792s.408-.576,1.008-.576a2.356,2.356,0,0,1,1.14.276,1.094,1.094,0,0,0,.492.168.393.393,0,0,0,.432-.42c0-.24-.228-.432-.552-.588a3.547,3.547,0,0,0-1.488-.336c-1.3,0-2.124.588-2.124,1.488,0,.864.54,1.368,2.016,1.764.84.228,1.176.384,1.176.792,0,.372-.348.612-1,.612a2.262,2.262,0,0,1-1.356-.468.7.7,0,0,0-.444-.168.4.4,0,0,0-.432.4.6.6,0,0,0,.24.468,3.125,3.125,0,0,0,1.908.612C121.536,14.144,122.28,13.5,122.28,12.608Zm6.564-1.212a2.748,2.748,0,1,0-5.5,0,2.748,2.748,0,1,0,5.5,0Zm-1.128,0a1.628,1.628,0,1,1-3.24,0,1.628,1.628,0,1,1,3.24,0Zm5.076-2.748a2.642,2.642,0,0,0-2.808,2.748,2.642,2.642,0,0,0,2.808,2.748,2.536,2.536,0,0,0,1.86-.756.55.55,0,0,0,.168-.4.472.472,0,0,0-.516-.456c-.2,0-.336.168-.48.288a1.523,1.523,0,0,1-1.02.372,1.659,1.659,0,0,1-1.692-1.8A1.659,1.659,0,0,1,132.8,9.6a1.523,1.523,0,0,1,1.02.372c.144.12.276.288.48.288a.472.472,0,0,0,.516-.456.55.55,0,0,0-.168-.4A2.536,2.536,0,0,0,132.792,8.648Zm4.656,4.884V9.26a.564.564,0,0,0-1.128,0v4.272a.564.564,0,0,0,1.128,0ZM136.224,7.22a.66.66,0,1,0,.66-.66A.666.666,0,0,0,136.224,7.22Zm7.512,6.312V10.916c0-1.464-.888-2.268-2.472-2.268a4.805,4.805,0,0,0-1.608.264c-.3.12-.528.264-.528.54a.45.45,0,0,0,.48.468,1.211,1.211,0,0,0,.372-.1,3.283,3.283,0,0,1,1.188-.216c1.044,0,1.44.432,1.44,1.38V11.5a2.354,2.354,0,0,0-1.62-.612c-1.164,0-2.04.564-2.04,1.632,0,.96.828,1.62,1.992,1.62a2.043,2.043,0,0,0,1.692-.72v.108a.539.539,0,0,0,.552.564A.519.519,0,0,0,143.736,13.532Zm-1.128-1.008c0,.5-.6.852-1.308.852s-1.224-.312-1.224-.852.492-.852,1.248-.852C141.96,11.672,142.608,11.984,142.608,12.524Zm4.584,1.008v-3.8h1.032a.468.468,0,1,0,0-.936h-1.032V7.22a.564.564,0,0,0-1.128,0V8.792h-.912a.468.468,0,0,0,0,.936h.912v3.8a.564.564,0,0,0,1.128,0ZM151.8,8.648a2.646,2.646,0,0,0-2.688,2.748,2.589,2.589,0,0,0,2.736,2.748,2.874,2.874,0,0,0,2.136-.876.5.5,0,0,0,.144-.324.454.454,0,0,0-.468-.468.551.551,0,0,0-.372.18,1.844,1.844,0,0,1-1.392.588,1.5,1.5,0,0,1-1.62-1.452h3.588c.324,0,.432-.192.432-.384A2.548,2.548,0,0,0,151.8,8.648Zm1.452,2.232H150.3a1.49,1.49,0,0,1,1.5-1.332A1.463,1.463,0,0,1,153.252,10.88Zm2.184.516a2.591,2.591,0,0,0,2.508,2.748,2.163,2.163,0,0,0,1.884-1.032v.408a.542.542,0,0,0,.552.576.523.523,0,0,0,.54-.564V6.476a.564.564,0,0,0-1.128,0v3.2a2.158,2.158,0,0,0-1.848-1.032A2.556,2.556,0,0,0,155.436,11.4Zm1.128,0a1.623,1.623,0,0,1,1.608-1.812,1.7,1.7,0,0,1,1.62,1.812,1.7,1.7,0,0,1-1.62,1.812A1.623,1.623,0,0,1,156.564,11.4ZM169.5,9.032a.477.477,0,0,0-.912,0l-1.2,3.252-1.056-3.228a.445.445,0,0,0-.456-.36.475.475,0,0,0-.516.48.7.7,0,0,0,.048.216l1.476,4.38a.435.435,0,0,0,.468.324.477.477,0,0,0,.48-.336l1.212-3.324,1.224,3.324a.473.473,0,0,0,.48.336.45.45,0,0,0,.468-.324l1.476-4.38a.7.7,0,0,0,.048-.216.475.475,0,0,0-.516-.48.445.445,0,0,0-.456.36l-1.056,3.228Zm5.628,4.5V9.26a.564.564,0,0,0-1.128,0v4.272a.564.564,0,0,0,1.128,0ZM173.9,7.22a.66.66,0,1,0,.66-.66A.666.666,0,0,0,173.9,7.22Zm4.788,6.312v-3.8h1.032a.468.468,0,1,0,0-.936h-1.032V7.22a.564.564,0,0,0-1.128,0V8.792h-.912a.468.468,0,0,0,0,.936h.912v3.8a.564.564,0,0,0,1.128,0Zm7.428,0V11.084a2.169,2.169,0,0,0-2.172-2.436,1.837,1.837,0,0,0-1.728,1.008V6.488a.526.526,0,0,0-.564-.576.539.539,0,0,0-.564.576v7.044a.549.549,0,0,0,.564.564.556.556,0,0,0,.564-.564V11.144a1.376,1.376,0,0,1,1.416-1.476,1.309,1.309,0,0,1,1.356,1.464v2.4a.549.549,0,0,0,.564.564A.541.541,0,0,0,186.12,13.532Zm9.348-4.32a.469.469,0,0,0-.48-.516.513.513,0,0,0-.528.408l-1.38,3.732-1.536-3.828a.512.512,0,0,0-.984.192.775.775,0,0,0,.048.228l1.872,4.488a3.568,3.568,0,0,1-1.368,1.5.5.5,0,0,0-.288.468.476.476,0,0,0,.5.456.578.578,0,0,0,.288-.084,5.072,5.072,0,0,0,2.22-2.784c.672-1.548,1.224-3,1.584-4A.863.863,0,0,0,195.468,9.212Zm6.216,2.184a2.748,2.748,0,0,0-5.5,0,2.748,2.748,0,0,0,5.5,0Zm-1.128,0a1.628,1.628,0,1,1-3.24,0,1.628,1.628,0,1,1,3.24,0Zm2.532-2.136v2.448a2.169,2.169,0,0,0,2.172,2.436,1.837,1.837,0,0,0,1.728-1.008v.384a.526.526,0,0,0,.564.576.539.539,0,0,0,.564-.576V9.26a.549.549,0,0,0-.564-.564.556.556,0,0,0-.564.564v2.388a1.376,1.376,0,0,1-1.416,1.476,1.309,1.309,0,0,1-1.356-1.464V9.26a.549.549,0,0,0-.564-.564A.541.541,0,0,0,203.088,9.26ZM213.1,9.2a.5.5,0,0,0-.528-.528,1.519,1.519,0,0,0-1.524,1.116V9.272a.536.536,0,0,0-.552-.576.555.555,0,0,0-.576.576v4.26a.535.535,0,0,0,.564.564.556.556,0,0,0,.564-.564V11.564c0-1.212.576-1.836,1.524-1.836A.518.518,0,0,0,213.1,9.2ZM4.4,28.144a3.1,3.1,0,0,0,3.372-3.336V20.5a.567.567,0,0,0-.588-.588.548.548,0,0,0-.564.588v4.428A2.019,2.019,0,0,1,4.4,27.1a2.019,2.019,0,0,1-2.22-2.172V20.5a.548.548,0,0,0-.564-.588.567.567,0,0,0-.588.588v4.308A3.1,3.1,0,0,0,4.4,28.144Zm11.388-2.268c0-1.368-1.068-1.884-2.988-2.484-1.38-.432-1.968-.684-1.968-1.392,0-.78.756-1.116,1.932-1.116a4.071,4.071,0,0,1,2.052.588.46.46,0,0,0,.228.06.472.472,0,0,0,.492-.516c0-.372-.564-.66-.972-.816a5.161,5.161,0,0,0-1.812-.336c-1.8,0-3.072.72-3.072,2.16,0,1.128.672,1.788,2.808,2.424,1.44.432,2.148.684,2.148,1.488,0,.684-.624,1.2-1.9,1.2a3.842,3.842,0,0,1-2.256-.744.8.8,0,0,0-.408-.144.453.453,0,0,0-.492.468.731.731,0,0,0,.312.54,4.821,4.821,0,0,0,2.832.888C14.736,28.144,15.792,27.16,15.792,25.876Zm8-.132a1.924,1.924,0,0,0-1.716-2.028,1.856,1.856,0,0,0,1.236-1.728c0-1.188-.948-1.98-2.448-1.98h-2.8a.569.569,0,0,0-.576.576v6.828a.579.579,0,0,0,.576.588H21C22.872,28,23.8,26.908,23.8,25.744Zm-1.644-3.612a1.125,1.125,0,0,1-1.224,1.14h-2.28V21.04H20.9C21.648,21.04,22.152,21.4,22.152,22.132ZM21.084,24.3c.972,0,1.56.492,1.56,1.32,0,.792-.564,1.344-1.548,1.344H18.648V24.3Zm12.18,3.228V24.916c0-1.464-.888-2.268-2.472-2.268a4.805,4.805,0,0,0-1.608.264c-.3.12-.528.264-.528.54a.45.45,0,0,0,.48.468,1.211,1.211,0,0,0,.372-.1,3.283,3.283,0,0,1,1.188-.216c1.044,0,1.44.432,1.44,1.38V25.5a2.354,2.354,0,0,0-1.62-.612c-1.164,0-2.04.564-2.04,1.632,0,.96.828,1.62,1.992,1.62a2.043,2.043,0,0,0,1.692-.72v.108a.539.539,0,0,0,.552.564A.519.519,0,0,0,33.264,27.532Zm-1.128-1.008c0,.5-.6.852-1.308.852s-1.224-.312-1.224-.852.492-.852,1.248-.852C31.488,25.672,32.136,25.984,32.136,26.524Zm5.328-3.876a2.749,2.749,0,1,0,0,5.5,2.536,2.536,0,0,0,1.86-.756.55.55,0,0,0,.168-.4.472.472,0,0,0-.516-.456c-.2,0-.336.168-.48.288a1.523,1.523,0,0,1-1.02.372,1.659,1.659,0,0,1-1.692-1.8,1.659,1.659,0,0,1,1.692-1.8,1.523,1.523,0,0,1,1.02.372c.144.12.276.288.48.288a.472.472,0,0,0,.516-.456.55.55,0,0,0-.168-.4A2.536,2.536,0,0,0,37.464,22.648Zm5.988,0a2.749,2.749,0,1,0,0,5.5,2.536,2.536,0,0,0,1.86-.756.55.55,0,0,0,.168-.4.472.472,0,0,0-.516-.456c-.2,0-.336.168-.48.288a1.523,1.523,0,0,1-1.02.372,1.659,1.659,0,0,1-1.692-1.8,1.659,1.659,0,0,1,1.692-1.8,1.523,1.523,0,0,1,1.02.372c.144.12.276.288.48.288a.472.472,0,0,0,.516-.456.55.55,0,0,0-.168-.4A2.536,2.536,0,0,0,43.452,22.648ZM52.128,25.4a2.748,2.748,0,1,0-2.748,2.748A2.66,2.66,0,0,0,52.128,25.4ZM51,25.4a1.628,1.628,0,1,1-3.24,0,1.628,1.628,0,1,1,3.24,0Zm2.532-2.136v2.448A2.169,2.169,0,0,0,55.7,28.144a1.837,1.837,0,0,0,1.728-1.008v.384A.526.526,0,0,0,58,28.1a.539.539,0,0,0,.564-.576V23.26A.549.549,0,0,0,58,22.7a.556.556,0,0,0-.564.564v2.388a1.376,1.376,0,0,1-1.416,1.476A1.309,1.309,0,0,1,54.66,25.66v-2.4A.549.549,0,0,0,54.1,22.7.541.541,0,0,0,53.532,23.26Zm11.856,4.272V25.084a2.169,2.169,0,0,0-2.172-2.436,1.837,1.837,0,0,0-1.728,1.008v-.384a.526.526,0,0,0-.564-.576.539.539,0,0,0-.564.576v4.26a.549.549,0,0,0,.564.564.556.556,0,0,0,.564-.564V25.144A1.376,1.376,0,0,1,62.9,23.668a1.309,1.309,0,0,1,1.356,1.464v2.4a.549.549,0,0,0,.564.564A.541.541,0,0,0,65.388,27.532Zm3.468,0v-3.8h1.032a.468.468,0,1,0,0-.936H68.856V21.22a.564.564,0,1,0-1.128,0v1.572h-.912a.468.468,0,1,0,0,.936h.912v3.8a.564.564,0,1,0,1.128,0Zm1.74-.156a.72.72,0,1,0,.72-.72A.722.722,0,0,0,70.6,27.376Z" transform="translate(18592 1748)"/>
    <g id="Group_1349" data-name="Group 1349" transform="translate(11888 1647)">
      <path id="Path_490" data-name="Path 490" class="cls-3" d="M12,0A12,12,0,1,1,0,12,12,12,0,0,1,12,0Z" transform="translate(6667 69)"/>
      <g id="bank" transform="translate(7019.946 357.258)">
        <g id="Group_500" data-name="Group 500" transform="translate(-347.946 -283.258)">
          <g id="Group_499" data-name="Group 499" transform="translate(0 0)">
            <path id="Path_365" data-name="Path 365" class="cls-1" d="M14.027,6.046,9.333,3.026a.2.2,0,1,0-.218.339L13.74,6.341H12.662L7.4,2.953a.547.547,0,0,0-.59,0L1.54,6.341H.462L7.1,2.069l.94.6a.2.2,0,1,0,.218-.339l-.94-.6a.4.4,0,0,0-.436,0L.175,6.046a.379.379,0,0,0,.205.7H1.4v1.3a.335.335,0,0,0,.265.327v.355A.334.334,0,0,0,2,9.065h.028v2.472a.2.2,0,0,0,.4,0V8.863a.2.2,0,0,0-.2-.2h-.16V8.383H3.5v.278h-.16a.2.2,0,0,0-.2.2V13.32a.2.2,0,0,0,.2.2H3.5v.3H2.066v-.3h.16a.2.2,0,0,0,.2-.2V12.8a.2.2,0,0,0-.4,0v.314H2a.334.334,0,0,0-.334.334v.355a.335.335,0,0,0-.265.327v.407H.683a.4.4,0,0,0-.4.4v.424a.4.4,0,0,0,.4.4H13.519a.4.4,0,0,0,.4-.4v-.424a.4.4,0,0,0-.4-.4H12.8v-.407a.335.335,0,0,0-.265-.327v-.355a.334.334,0,0,0-.334-.334h-.028V9.065h.028a.334.334,0,0,0,.334-.334V8.376a.335.335,0,0,0,.265-.327v-1.3h1.017a.379.379,0,0,0,.205-.7Zm-7-2.753a.142.142,0,0,1,.154,0l4.738,3.049H2.286ZM1.8,6.745H12.4v.494H1.8Zm6.418,7.063v-.355a.334.334,0,0,0-.334-.334H7.857V9.065h.028a.334.334,0,0,0,.334-.334V8.376a.335.335,0,0,0,.265-.327V7.642h1.554v.407a.335.335,0,0,0,.265.327v.355a.334.334,0,0,0,.334.334h.028v4.054h-.028a.334.334,0,0,0-.334.334v.355a.335.335,0,0,0-.265.327v.407H8.484v-.407A.335.335,0,0,0,8.219,13.808Zm-4.32,0v-.355a.334.334,0,0,0-.334-.334H3.537V9.065h.028A.334.334,0,0,0,3.9,8.731V8.376a.335.335,0,0,0,.265-.327V7.642H5.718v.407a.335.335,0,0,0,.265.327v.355a.334.334,0,0,0,.334.334h.028v4.054H6.317a.334.334,0,0,0-.334.334v.355a.335.335,0,0,0-.265.327v.407H4.164v-.407A.335.335,0,0,0,3.9,13.808Zm3.757-.286h.16v.3H6.387v-.3h.16a.2.2,0,0,0,.2-.2V8.863a.2.2,0,0,0-.2-.2h-.16V8.383H7.815v.278h-.16a.2.2,0,0,0-.2.2V13.32A.2.2,0,0,0,7.655,13.522ZM6.185,7.98H6.121V7.642H8.08V7.98h-1.9Zm-.063,6.239a.2.2,0,0,0,.062.01H8.016a.2.2,0,0,0,.064-.011v.324H6.121ZM1.865,7.98H1.8V7.642H3.76V7.98h-1.9ZM1.8,14.218a.2.2,0,0,0,.063.01H3.7a.2.2,0,0,0,.063-.01v.324H1.8v-.324Zm11.719.728v.425H.682v-.425Zm-1.183-.718a.2.2,0,0,0,.064-.011v.324H10.442v-.324a.2.2,0,0,0,.063.01Zm-1.47-5.567h-.16V8.383h1.429v.278h-.16a.2.2,0,0,0-.2.2V13.32a.2.2,0,0,0,.2.2h.16v.3H10.707v-.3h.16a.2.2,0,0,0,.2-.2V8.863A.2.2,0,0,0,10.867,8.662ZM12.4,7.98H10.442V7.642H12.4V7.98Z" transform="translate(0 -1.666)"/>
          </g>
        </g>
      </g>
    </g>
  </g>
</svg>
