<svg xmlns="http://www.w3.org/2000/svg" viewBox="0 0 118.029 37.29">
  <defs>
    <style>
      .cls-1 {
        fill: #8c1313;
      }

      .cls-2 {
        fill: #fff;
      }
    </style>
  </defs>
  <g id="Group_1361" data-name="Group 1361" transform="translate(-18727 -1836)">
    <g id="Group_1354" data-name="Group 1354">
      <path id="Rectangle_1356" data-name="Rectangle 1356" class="cls-1" d="M17,0h84.03a17,17,0,0,1,17,17V37.29a0,0,0,0,1,0,0H17a17,17,0,0,1-17-17V17A17,17,0,0,1,17,0Z" transform="translate(18727 1836)"/>
      <path id="Path_941" data-name="Path 941" class="cls-2" d="M6.588-7.5c0-.336-.216-.492-.552-.492H.876a.5.5,0,0,0-.516.5.5.5,0,0,0,.516.5H5.1A9.5,9.5,0,0,0,2.784-.456.52.52,0,0,0,3.348.1a.526.526,0,0,0,.564-.552A9.706,9.706,0,0,1,6.468-7.188.456.456,0,0,0,6.588-7.5ZM10.5-8.136c-1.548,0-2.628.876-2.628,2.064A1.955,1.955,0,0,0,8.988-4.4,2.235,2.235,0,0,0,7.308-2.28C7.308-.936,8.5.144,10.5.144s3.192-1.08,3.192-2.424A2.235,2.235,0,0,0,12.012-4.4a1.955,1.955,0,0,0,1.116-1.668C13.128-7.26,12.048-8.136,10.5-8.136Zm0,4.308c1.212,0,2.064.588,2.064,1.512S11.7-.792,10.5-.792,8.436-1.4,8.436-2.316,9.288-3.828,10.5-3.828ZM8.976-5.988c0-.744.588-1.212,1.524-1.212s1.524.468,1.524,1.212A1.373,1.373,0,0,1,10.5-4.716,1.373,1.373,0,0,1,8.976-5.988Zm5.88.444a2.509,2.509,0,0,0,2.808,2.508,2.683,2.683,0,0,0,2.328-1.092,5.622,5.622,0,0,1-3.024,3.36c-.24.132-.348.276-.348.48a.436.436,0,0,0,.48.432A.983.983,0,0,0,17.46.06a5.88,5.88,0,0,0,3.7-5.232c0-1.752-1.08-2.964-3.192-2.964C16.14-8.136,14.856-6.984,14.856-5.544Zm1.128-.012c0-.912.72-1.632,1.944-1.632s1.956.624,1.956,1.608c0,1.008-.948,1.6-2,1.6C16.752-3.984,15.984-4.572,15.984-5.556ZM28.536-2.292a2.083,2.083,0,0,0-1.752-2.1A1.827,1.827,0,0,0,28-6.12c0-1.272-1-2.016-2.532-2.016a4.72,4.72,0,0,0-1.764.312c-.3.12-.756.336-.756.72a.425.425,0,0,0,.456.444,1.142,1.142,0,0,0,.528-.168,2.939,2.939,0,0,1,1.44-.348c.876,0,1.5.312,1.5,1.14,0,.744-.588,1.272-1.74,1.272h-.516a.492.492,0,0,0-.516.492.5.5,0,0,0,.516.5h.672c1.212,0,2.124.408,2.124,1.428,0,.972-.852,1.524-2.016,1.524a3.4,3.4,0,0,1-2.34-.852.539.539,0,0,0-.324-.12.492.492,0,0,0-.516.492.541.541,0,0,0,.2.408A4.354,4.354,0,0,0,25.392.144C27.24.144,28.536-.84,28.536-2.292Zm8.256-.288a.464.464,0,0,0-.48-.468h-1.1V-7.536a.513.513,0,0,0-.54-.552.609.609,0,0,0-.492.24l-4.428,4.9a.549.549,0,0,0-.156.372.467.467,0,0,0,.492.468h4.008V-.456A.546.546,0,0,0,34.656.1a.543.543,0,0,0,.552-.552V-2.112h1.1A.464.464,0,0,0,36.792-2.58Zm-2.7-.468H31.08L34.092-6.4ZM44.112-.5a.485.485,0,0,0-.5-.5H39.216c0-1.08.732-1.536,2.352-2.364,1.716-.876,2.472-1.5,2.472-2.652,0-1.392-1.188-2.112-2.9-2.112a5,5,0,0,0-2.184.456c-.528.252-.828.492-.828.852a.485.485,0,0,0,.5.468.492.492,0,0,0,.264-.084,3.6,3.6,0,0,1,2.184-.684c1.116,0,1.836.372,1.836,1.116,0,.8-.876,1.236-2.316,1.98C38.9-3.156,37.968-2.46,37.968-.516A.507.507,0,0,0,38.46,0h5.148A.492.492,0,0,0,44.112-.5Zm7.644-1.788A2.083,2.083,0,0,0,50-4.392,1.827,1.827,0,0,0,51.216-6.12c0-1.272-1-2.016-2.532-2.016a4.72,4.72,0,0,0-1.764.312c-.3.12-.756.336-.756.72a.425.425,0,0,0,.456.444,1.142,1.142,0,0,0,.528-.168,2.939,2.939,0,0,1,1.44-.348c.876,0,1.5.312,1.5,1.14,0,.744-.588,1.272-1.74,1.272h-.516a.492.492,0,0,0-.516.492.5.5,0,0,0,.516.5H48.5c1.212,0,2.124.408,2.124,1.428,0,.972-.852,1.524-2.016,1.524a3.4,3.4,0,0,1-2.34-.852.539.539,0,0,0-.324-.12.492.492,0,0,0-.516.492.541.541,0,0,0,.2.408A4.354,4.354,0,0,0,48.612.144C50.46.144,51.756-.84,51.756-2.292ZM52.92-5.544a2.509,2.509,0,0,0,2.808,2.508,2.683,2.683,0,0,0,2.328-1.092,5.622,5.622,0,0,1-3.024,3.36c-.24.132-.348.276-.348.48a.436.436,0,0,0,.48.432.983.983,0,0,0,.36-.084,5.88,5.88,0,0,0,3.7-5.232c0-1.752-1.08-2.964-3.192-2.964C54.2-8.136,52.92-6.984,52.92-5.544Zm1.128-.012c0-.912.72-1.632,1.944-1.632s1.956.624,1.956,1.608c0,1.008-.948,1.6-2,1.6C54.816-3.984,54.048-4.572,54.048-5.556ZM67.116-2.58a.464.464,0,0,0-.48-.468h-1.1V-7.536a.513.513,0,0,0-.54-.552.609.609,0,0,0-.492.24l-4.428,4.9a.549.549,0,0,0-.156.372.467.467,0,0,0,.492.468h4.008V-.456A.546.546,0,0,0,64.98.1a.543.543,0,0,0,.552-.552V-2.112h1.1A.464.464,0,0,0,67.116-2.58Zm-2.7-.468H61.4L64.416-6.4Zm7.068-5.088c-1.548,0-2.628.876-2.628,2.064A1.955,1.955,0,0,0,69.972-4.4a2.235,2.235,0,0,0-1.68,2.124c0,1.344,1.188,2.424,3.192,2.424s3.192-1.08,3.192-2.424A2.235,2.235,0,0,0,73-4.4a1.955,1.955,0,0,0,1.116-1.668C74.112-7.26,73.032-8.136,71.484-8.136Zm0,4.308c1.212,0,2.064.588,2.064,1.512S72.684-.792,71.484-.792,69.42-1.4,69.42-2.316,70.272-3.828,71.484-3.828ZM69.96-5.988c0-.744.588-1.212,1.524-1.212s1.524.468,1.524,1.212a1.373,1.373,0,0,1-1.524,1.272A1.373,1.373,0,0,1,69.96-5.988Z" transform="translate(18749 1858)"/>
    </g>
  </g>
</svg>
