<svg xmlns="http://www.w3.org/2000/svg" viewBox="0 0 287 71">
  <defs>
    <style>
      .cls-1 {
        fill: #fff;
      }

      .cls-2 {
        fill: #4d4d4d;
      }

      .cls-3 {
        fill: #8c1313;
      }
    </style>
  </defs>
  <g id="Group_1355" data-name="Group 1355" transform="translate(-18555 -1912)">
    <rect id="Rectangle_1353" data-name="Rectangle 1353" class="cls-1" width="278" height="63" rx="17" transform="translate(18564 1920)"/>
    <path id="Path_942" data-name="Path 942" class="cls-2" d="M3.576-4.536,1.2-7.848a.533.533,0,0,0-.456-.24.522.522,0,0,0-.528.516.581.581,0,0,0,.12.348L2.988-3.516V-.492A.567.567,0,0,0,3.576.1a.567.567,0,0,0,.588-.588V-3.516L6.816-7.224a.581.581,0,0,0,.12-.348.522.522,0,0,0-.528-.516.533.533,0,0,0-.456.24ZM11.952-2.6A2.66,2.66,0,0,0,9.2-5.352,2.66,2.66,0,0,0,6.456-2.6,2.66,2.66,0,0,0,9.2.144,2.66,2.66,0,0,0,11.952-2.6Zm-1.128,0A1.621,1.621,0,0,1,9.2-.816,1.621,1.621,0,0,1,7.584-2.6,1.621,1.621,0,0,1,9.2-4.392,1.621,1.621,0,0,1,10.824-2.6ZM13.356-4.74v2.448A2.169,2.169,0,0,0,15.528.144,1.837,1.837,0,0,0,17.256-.864V-.48A.526.526,0,0,0,17.82.1a.539.539,0,0,0,.564-.576V-4.74A.549.549,0,0,0,17.82-5.3a.556.556,0,0,0-.564.564v2.388A1.376,1.376,0,0,1,15.84-.876,1.309,1.309,0,0,1,14.484-2.34v-2.4A.549.549,0,0,0,13.92-5.3.541.541,0,0,0,13.356-4.74Zm13.608-.228a.445.445,0,0,0-.456-.336.445.445,0,0,0-.456.336l-1.2,3.252L23.8-4.944a.445.445,0,0,0-.456-.36.475.475,0,0,0-.516.48.7.7,0,0,0,.048.216l1.476,4.38A.435.435,0,0,0,24.816.1.477.477,0,0,0,25.3-.24l1.212-3.324L27.732-.24a.473.473,0,0,0,.48.336.45.45,0,0,0,.468-.324l1.476-4.38a.7.7,0,0,0,.048-.216.475.475,0,0,0-.516-.48.445.445,0,0,0-.456.36L28.176-1.716Zm5.628,4.5V-4.74a.556.556,0,0,0-.564-.564.556.556,0,0,0-.564.564V-.468A.549.549,0,0,0,32.028.1.549.549,0,0,0,32.592-.468ZM31.368-6.78a.666.666,0,0,0,.66.66.666.666,0,0,0,.66-.66.666.666,0,0,0-.66-.66A.666.666,0,0,0,31.368-6.78ZM35.52-.468V-7.524a.549.549,0,0,0-.564-.564.549.549,0,0,0-.564.564V-.468A.549.549,0,0,0,34.956.1.549.549,0,0,0,35.52-.468Zm2.928,0V-7.524a.549.549,0,0,0-.564-.564.549.549,0,0,0-.564.564V-.468A.549.549,0,0,0,37.884.1.549.549,0,0,0,38.448-.468Zm10.308,0V-2.916a2.169,2.169,0,0,0-2.172-2.436,1.837,1.837,0,0,0-1.728,1.008v-.384a.526.526,0,0,0-.564-.576.539.539,0,0,0-.564.576v4.26A.549.549,0,0,0,44.292.1a.556.556,0,0,0,.564-.564V-2.856a1.376,1.376,0,0,1,1.416-1.476,1.309,1.309,0,0,1,1.356,1.464v2.4A.549.549,0,0,0,48.192.1.541.541,0,0,0,48.756-.468Zm6.9-2.136a2.66,2.66,0,0,0-2.748-2.748A2.66,2.66,0,0,0,50.16-2.6,2.66,2.66,0,0,0,52.908.144,2.66,2.66,0,0,0,55.656-2.6Zm-1.128,0a1.621,1.621,0,0,1-1.62,1.788A1.621,1.621,0,0,1,51.288-2.6a1.621,1.621,0,0,1,1.62-1.788A1.621,1.621,0,0,1,54.528-2.6Zm6.048-2.364A.445.445,0,0,0,60.12-5.3a.445.445,0,0,0-.456.336l-1.2,3.252L57.408-4.944a.445.445,0,0,0-.456-.36.475.475,0,0,0-.516.48.7.7,0,0,0,.048.216L57.96-.228A.435.435,0,0,0,58.428.1a.477.477,0,0,0,.48-.336L60.12-3.564,61.344-.24a.473.473,0,0,0,.48.336.45.45,0,0,0,.468-.324l1.476-4.38a.7.7,0,0,0,.048-.216A.475.475,0,0,0,63.3-5.3a.445.445,0,0,0-.456.36L61.788-1.716Zm11.16.168a.5.5,0,0,0-.528-.528,1.519,1.519,0,0,0-1.524,1.116v-.516a.536.536,0,0,0-.552-.576.555.555,0,0,0-.576.576v4.26A.535.535,0,0,0,69.12.1a.556.556,0,0,0,.564-.564V-2.436c0-1.212.576-1.836,1.524-1.836A.518.518,0,0,0,71.736-4.8Zm3.216-.552A2.646,2.646,0,0,0,72.264-2.6,2.589,2.589,0,0,0,75,.144a2.874,2.874,0,0,0,2.136-.876.5.5,0,0,0,.144-.324.454.454,0,0,0-.468-.468.551.551,0,0,0-.372.18,1.844,1.844,0,0,1-1.392.588,1.5,1.5,0,0,1-1.62-1.452h3.588c.324,0,.432-.192.432-.384A2.548,2.548,0,0,0,74.952-5.352ZM76.4-3.12H73.452a1.49,1.49,0,0,1,1.5-1.332A1.463,1.463,0,0,1,76.4-3.12Zm5-2.232A2.642,2.642,0,0,0,78.6-2.6,2.642,2.642,0,0,0,81.408.144a2.536,2.536,0,0,0,1.86-.756.55.55,0,0,0,.168-.4.472.472,0,0,0-.516-.456c-.2,0-.336.168-.48.288A1.523,1.523,0,0,1,81.42-.8a1.659,1.659,0,0,1-1.692-1.8A1.659,1.659,0,0,1,81.42-4.4a1.523,1.523,0,0,1,1.02.372c.144.12.276.288.48.288a.472.472,0,0,0,.516-.456.55.55,0,0,0-.168-.4A2.536,2.536,0,0,0,81.408-5.352Zm5.856,0A2.646,2.646,0,0,0,84.576-2.6,2.589,2.589,0,0,0,87.312.144a2.874,2.874,0,0,0,2.136-.876.5.5,0,0,0,.144-.324.454.454,0,0,0-.468-.468.551.551,0,0,0-.372.18,1.844,1.844,0,0,1-1.392.588,1.5,1.5,0,0,1-1.62-1.452h3.588c.324,0,.432-.192.432-.384A2.548,2.548,0,0,0,87.264-5.352ZM88.716-3.12H85.764a1.49,1.49,0,0,1,1.5-1.332A1.463,1.463,0,0,1,88.716-3.12ZM92.364-.468V-4.74A.556.556,0,0,0,91.8-5.3a.556.556,0,0,0-.564.564V-.468A.549.549,0,0,0,91.8.1.549.549,0,0,0,92.364-.468ZM91.14-6.78a.666.666,0,0,0,.66.66.666.666,0,0,0,.66-.66.666.666,0,0,0-.66-.66A.666.666,0,0,0,91.14-6.78Zm3.408,1.788a.469.469,0,0,0-.48-.312.488.488,0,0,0-.5.516.505.505,0,0,0,.048.216L95.592-.2a.487.487,0,0,0,.456.3A.487.487,0,0,0,96.5-.2l1.98-4.368a.506.506,0,0,0,.048-.216.488.488,0,0,0-.5-.516.469.469,0,0,0-.48.312l-1.5,3.432Zm7.392-.36A2.646,2.646,0,0,0,99.252-2.6,2.589,2.589,0,0,0,101.988.144a2.874,2.874,0,0,0,2.136-.876.5.5,0,0,0,.144-.324.454.454,0,0,0-.468-.468.551.551,0,0,0-.372.18,1.844,1.844,0,0,1-1.392.588,1.5,1.5,0,0,1-1.62-1.452H104c.324,0,.432-.192.432-.384A2.548,2.548,0,0,0,101.94-5.352Zm1.452,2.232H100.44a1.49,1.49,0,0,1,1.5-1.332A1.463,1.463,0,0,1,103.392-3.12ZM113.88-.468V-3.084c0-1.464-.888-2.268-2.472-2.268a4.805,4.805,0,0,0-1.608.264c-.3.12-.528.264-.528.54a.45.45,0,0,0,.48.468,1.211,1.211,0,0,0,.372-.1,3.283,3.283,0,0,1,1.188-.216c1.044,0,1.44.432,1.44,1.38V-2.5a2.354,2.354,0,0,0-1.62-.612c-1.164,0-2.04.564-2.04,1.632,0,.96.828,1.62,1.992,1.62a2.043,2.043,0,0,0,1.692-.72v.108a.539.539,0,0,0,.552.564A.519.519,0,0,0,113.88-.468Zm-1.128-1.008c0,.5-.6.852-1.308.852s-1.224-.312-1.224-.852.492-.852,1.248-.852C112.1-2.328,112.752-2.016,112.752-1.476Zm7.872,1.008V-2.916a2.169,2.169,0,0,0-2.172-2.436,1.837,1.837,0,0,0-1.728,1.008v-.384a.526.526,0,0,0-.564-.576.539.539,0,0,0-.564.576v4.26A.549.549,0,0,0,116.16.1a.556.556,0,0,0,.564-.564V-2.856a1.376,1.376,0,0,1,1.416-1.476A1.309,1.309,0,0,1,119.5-2.868v2.4A.549.549,0,0,0,120.06.1.541.541,0,0,0,120.624-.468ZM133.716-4a4,4,0,0,0-4.056-4.14A4,4,0,0,0,125.6-4,4,4,0,0,0,129.66.144,4,4,0,0,0,133.716-4Zm-1.152,0a2.886,2.886,0,0,1-2.9,3.1,2.886,2.886,0,0,1-2.9-3.1,2.886,2.886,0,0,1,2.9-3.1A2.886,2.886,0,0,1,132.564-4Zm8.3-3.444a.543.543,0,0,0-.552-.552h-5.664a.543.543,0,0,0-.552.552.546.546,0,0,0,.552.528h2.268v6.42a.574.574,0,0,0,.588.588.562.562,0,0,0,.564-.588v-6.42h2.244A.546.546,0,0,0,140.868-7.44ZM143.4-.492V-3.276h2.484c1.824,0,2.724-.96,2.724-2.34s-.9-2.376-2.724-2.376h-3.048a.554.554,0,0,0-.588.588V-.492a.574.574,0,0,0,.588.588A.562.562,0,0,0,143.4-.492Zm2.712-6.444a1.259,1.259,0,0,1,1.344,1.32,1.232,1.232,0,0,1-1.344,1.284H143.4v-2.6ZM158.532-2.6a2.66,2.66,0,0,0-2.748-2.748A2.66,2.66,0,0,0,153.036-2.6,2.66,2.66,0,0,0,155.784.144,2.66,2.66,0,0,0,158.532-2.6Zm-1.128,0a1.621,1.621,0,0,1-1.62,1.788,1.621,1.621,0,0,1-1.62-1.788,1.621,1.621,0,0,1,1.62-1.788A1.621,1.621,0,0,1,157.4-2.6Zm7.62,2.136V-2.916a2.169,2.169,0,0,0-2.172-2.436,1.837,1.837,0,0,0-1.728,1.008v-.384a.526.526,0,0,0-.564-.576.539.539,0,0,0-.564.576v4.26A.549.549,0,0,0,160.56.1a.556.556,0,0,0,.564-.564V-2.856a1.376,1.376,0,0,1,1.416-1.476A1.309,1.309,0,0,1,163.9-2.868v2.4A.549.549,0,0,0,164.46.1.541.541,0,0,0,165.024-.468Zm9.348-4.32a.469.469,0,0,0-.48-.516.513.513,0,0,0-.528.408l-1.38,3.732-1.536-3.828a.479.479,0,0,0-.48-.312.478.478,0,0,0-.5.5.775.775,0,0,0,.048.228l1.872,4.488a3.568,3.568,0,0,1-1.368,1.5.5.5,0,0,0-.288.468.476.476,0,0,0,.5.456.578.578,0,0,0,.288-.084,5.072,5.072,0,0,0,2.22-2.784c.672-1.548,1.224-3,1.584-4A.863.863,0,0,0,174.372-4.788ZM180.588-2.6a2.66,2.66,0,0,0-2.748-2.748A2.66,2.66,0,0,0,175.092-2.6,2.66,2.66,0,0,0,177.84.144,2.66,2.66,0,0,0,180.588-2.6Zm-1.128,0a1.621,1.621,0,0,1-1.62,1.788A1.621,1.621,0,0,1,176.22-2.6a1.621,1.621,0,0,1,1.62-1.788A1.621,1.621,0,0,1,179.46-2.6Zm2.532-2.136v2.448A2.169,2.169,0,0,0,184.164.144a1.837,1.837,0,0,0,1.728-1.008V-.48a.526.526,0,0,0,.564.576.539.539,0,0,0,.564-.576V-4.74a.549.549,0,0,0-.564-.564.556.556,0,0,0-.564.564v2.388a1.376,1.376,0,0,1-1.416,1.476A1.309,1.309,0,0,1,183.12-2.34v-2.4a.549.549,0,0,0-.564-.564A.541.541,0,0,0,181.992-4.74ZM192-4.8a.5.5,0,0,0-.528-.528,1.519,1.519,0,0,0-1.524,1.116v-.516A.536.536,0,0,0,189.4-5.3a.555.555,0,0,0-.576.576v4.26a.535.535,0,0,0,.564.564.556.556,0,0,0,.564-.564V-2.436c0-1.212.576-1.836,1.524-1.836A.518.518,0,0,0,192-4.8ZM4.08,9.2a.5.5,0,0,0-.528-.528A1.519,1.519,0,0,0,2.028,9.788V9.272A.536.536,0,0,0,1.476,8.7.555.555,0,0,0,.9,9.272v4.26a.535.535,0,0,0,.564.564.556.556,0,0,0,.564-.564V11.564c0-1.212.576-1.836,1.524-1.836A.518.518,0,0,0,4.08,9.2ZM7.3,8.648A2.646,2.646,0,0,0,4.608,11.4a2.589,2.589,0,0,0,2.736,2.748,2.874,2.874,0,0,0,2.136-.876.5.5,0,0,0,.144-.324.454.454,0,0,0-.468-.468.551.551,0,0,0-.372.18,1.844,1.844,0,0,1-1.392.588,1.5,1.5,0,0,1-1.62-1.452H9.36c.324,0,.432-.192.432-.384A2.548,2.548,0,0,0,7.3,8.648ZM8.748,10.88H5.8A1.49,1.49,0,0,1,7.3,9.548,1.463,1.463,0,0,1,8.748,10.88Zm6.54.42a1.616,1.616,0,1,1-3.228,0,1.616,1.616,0,1,1,3.228,0Zm1.128,2.328V9.26a.547.547,0,1,0-1.092.012v.384a2.136,2.136,0,0,0-1.86-1.008A2.482,2.482,0,0,0,10.932,11.3a2.5,2.5,0,0,0,2.532,2.652,2.119,2.119,0,0,0,1.824-1.008v.768c0,1.08-.4,1.716-1.752,1.716A2.917,2.917,0,0,1,12.024,15a.494.494,0,0,0-.8.372.521.521,0,0,0,.3.444,4.154,4.154,0,0,0,2.088.528C15.612,16.34,16.416,15.284,16.416,13.628Zm2.928-.1V9.26a.564.564,0,1,0-1.128,0v4.272a.564.564,0,1,0,1.128,0ZM18.12,7.22a.66.66,0,1,0,.66-.66A.666.666,0,0,0,18.12,7.22Zm7.164,5.388c0-.972-.672-1.32-1.968-1.692-.864-.252-1.224-.384-1.224-.792s.408-.576,1.008-.576a2.356,2.356,0,0,1,1.14.276,1.094,1.094,0,0,0,.492.168.393.393,0,0,0,.432-.42c0-.24-.228-.432-.552-.588a3.547,3.547,0,0,0-1.488-.336c-1.3,0-2.124.588-2.124,1.488,0,.864.54,1.368,2.016,1.764.84.228,1.176.384,1.176.792,0,.372-.348.612-1,.612a2.262,2.262,0,0,1-1.356-.468.7.7,0,0,0-.444-.168.4.4,0,0,0-.432.4.6.6,0,0,0,.24.468,3.125,3.125,0,0,0,1.908.612C24.54,14.144,25.284,13.5,25.284,12.608Zm3.132.924v-3.8h1.032a.468.468,0,0,0,0-.936H28.416V7.22a.564.564,0,1,0-1.128,0V8.792h-.912a.468.468,0,1,0,0,.936h.912v3.8a.564.564,0,1,0,1.128,0Zm4.608-4.884A2.646,2.646,0,0,0,30.336,11.4a2.589,2.589,0,0,0,2.736,2.748,2.874,2.874,0,0,0,2.136-.876.5.5,0,0,0,.144-.324.454.454,0,0,0-.468-.468.551.551,0,0,0-.372.18,1.844,1.844,0,0,1-1.392.588,1.5,1.5,0,0,1-1.62-1.452h3.588c.324,0,.432-.192.432-.384A2.548,2.548,0,0,0,33.024,8.648Zm1.452,2.232H31.524a1.49,1.49,0,0,1,1.5-1.332A1.463,1.463,0,0,1,34.476,10.88Zm5.7-1.68a.5.5,0,0,0-.528-.528,1.519,1.519,0,0,0-1.524,1.116V9.272a.536.536,0,0,0-.552-.576A.555.555,0,0,0,37,9.272v4.26a.535.535,0,0,0,.564.564.556.556,0,0,0,.564-.564V11.564c0-1.212.576-1.836,1.524-1.836A.518.518,0,0,0,40.176,9.2Zm3.216-.552A2.646,2.646,0,0,0,40.7,11.4a2.589,2.589,0,0,0,2.736,2.748,2.874,2.874,0,0,0,2.136-.876.5.5,0,0,0,.144-.324.454.454,0,0,0-.468-.468.551.551,0,0,0-.372.18,1.844,1.844,0,0,1-1.392.588,1.5,1.5,0,0,1-1.62-1.452h3.588c.324,0,.432-.192.432-.384A2.548,2.548,0,0,0,43.392,8.648Zm1.452,2.232H41.892a1.49,1.49,0,0,1,1.5-1.332A1.463,1.463,0,0,1,44.844,10.88Zm2.184.516a2.591,2.591,0,0,0,2.508,2.748,2.163,2.163,0,0,0,1.884-1.032v.408a.542.542,0,0,0,.552.576.523.523,0,0,0,.54-.564V6.476a.564.564,0,1,0-1.128,0v3.2a2.158,2.158,0,0,0-1.848-1.032A2.556,2.556,0,0,0,47.028,11.4Zm1.128,0a1.623,1.623,0,0,1,1.608-1.812,1.7,1.7,0,0,1,1.62,1.812,1.7,1.7,0,0,1-1.62,1.812A1.623,1.623,0,0,1,48.156,11.4ZM66.6,13.532V11.048c0-1.4-.7-2.4-2.148-2.4a2.259,2.259,0,0,0-2,1.068,1.981,1.981,0,0,0-1.836-1.068A1.88,1.88,0,0,0,58.92,9.656V9.272a.532.532,0,0,0-.564-.576.539.539,0,0,0-.564.576v4.26a.556.556,0,0,0,.564.564.549.549,0,0,0,.564-.564V11.144a1.363,1.363,0,0,1,1.392-1.476,1.3,1.3,0,0,1,1.32,1.464v2.4a.549.549,0,0,0,.564.564.542.542,0,0,0,.564-.564V11.144a1.405,1.405,0,0,1,1.428-1.476c.888,0,1.284.636,1.284,1.464v2.4a.556.556,0,0,0,.564.564A.549.549,0,0,0,66.6,13.532ZM73.5,11.4a2.748,2.748,0,1,0-5.5,0,2.748,2.748,0,1,0,5.5,0Zm-1.128,0a1.628,1.628,0,1,1-3.24,0,1.628,1.628,0,1,1,3.24,0Zm8.076,0A2.556,2.556,0,0,0,77.94,8.648,2.158,2.158,0,0,0,76.092,9.68v-3.2a.564.564,0,1,0-1.128,0v7.056a.523.523,0,0,0,.54.564.542.542,0,0,0,.552-.576v-.408a2.163,2.163,0,0,0,1.884,1.032A2.591,2.591,0,0,0,80.448,11.4Zm-1.128,0a1.623,1.623,0,0,1-1.608,1.812,1.7,1.7,0,0,1-1.62-1.812,1.7,1.7,0,0,1,1.62-1.812A1.623,1.623,0,0,1,79.32,11.4Zm3.72,2.136V9.26a.564.564,0,1,0-1.128,0v4.272a.564.564,0,1,0,1.128,0ZM81.816,7.22a.66.66,0,1,0,.66-.66A.666.666,0,0,0,81.816,7.22Zm4.152,6.312V6.476a.564.564,0,1,0-1.128,0v7.056a.564.564,0,1,0,1.128,0ZM90.12,8.648A2.646,2.646,0,0,0,87.432,11.4a2.589,2.589,0,0,0,2.736,2.748,2.874,2.874,0,0,0,2.136-.876.5.5,0,0,0,.144-.324.454.454,0,0,0-.468-.468.551.551,0,0,0-.372.18,1.844,1.844,0,0,1-1.392.588,1.5,1.5,0,0,1-1.62-1.452h3.588c.324,0,.432-.192.432-.384A2.548,2.548,0,0,0,90.12,8.648Zm1.452,2.232H88.62a1.49,1.49,0,0,1,1.5-1.332A1.463,1.463,0,0,1,91.572,10.88ZM102.6,13.532V11.084a2.169,2.169,0,0,0-2.172-2.436A1.837,1.837,0,0,0,98.7,9.656V9.272a.526.526,0,0,0-.564-.576.539.539,0,0,0-.564.576v4.26a.549.549,0,0,0,.564.564.556.556,0,0,0,.564-.564V11.144a1.376,1.376,0,0,1,1.416-1.476,1.309,1.309,0,0,1,1.356,1.464v2.4a.549.549,0,0,0,.564.564A.541.541,0,0,0,102.6,13.532Zm1.68-4.272v2.448a2.169,2.169,0,0,0,2.172,2.436,1.837,1.837,0,0,0,1.728-1.008v.384a.526.526,0,0,0,.564.576.539.539,0,0,0,.564-.576V9.26a.549.549,0,0,0-.564-.564.556.556,0,0,0-.564.564v2.388a1.376,1.376,0,0,1-1.416,1.476,1.309,1.309,0,0,1-1.356-1.464V9.26a.549.549,0,0,0-.564-.564A.541.541,0,0,0,104.28,9.26Zm15.636,4.272V11.048c0-1.4-.7-2.4-2.148-2.4a2.259,2.259,0,0,0-2,1.068,1.981,1.981,0,0,0-1.836-1.068,1.88,1.88,0,0,0-1.692,1.008V9.272a.532.532,0,0,0-.564-.576.539.539,0,0,0-.564.576v4.26a.556.556,0,0,0,.564.564.549.549,0,0,0,.564-.564V11.144a1.363,1.363,0,0,1,1.392-1.476,1.3,1.3,0,0,1,1.32,1.464v2.4a.549.549,0,0,0,.564.564.542.542,0,0,0,.564-.564V11.144A1.405,1.405,0,0,1,117.5,9.668c.888,0,1.284.636,1.284,1.464v2.4a.556.556,0,0,0,.564.564A.549.549,0,0,0,119.916,13.532ZM127.14,11.4a2.556,2.556,0,0,0-2.508-2.748,2.158,2.158,0,0,0-1.848,1.032v-3.2a.564.564,0,1,0-1.128,0v7.056a.523.523,0,0,0,.54.564.542.542,0,0,0,.552-.576v-.408a2.163,2.163,0,0,0,1.884,1.032A2.591,2.591,0,0,0,127.14,11.4Zm-1.128,0a1.623,1.623,0,0,1-1.608,1.812,1.7,1.7,0,0,1-1.62-1.812,1.7,1.7,0,0,1,1.62-1.812A1.623,1.623,0,0,1,126.012,11.4Zm4.944-2.748a2.646,2.646,0,0,0-2.688,2.748A2.589,2.589,0,0,0,131,14.144a2.874,2.874,0,0,0,2.136-.876.5.5,0,0,0,.144-.324.454.454,0,0,0-.468-.468.551.551,0,0,0-.372.18,1.844,1.844,0,0,1-1.392.588,1.5,1.5,0,0,1-1.62-1.452h3.588c.324,0,.432-.192.432-.384A2.548,2.548,0,0,0,130.956,8.648Zm1.452,2.232h-2.952a1.49,1.49,0,0,1,1.5-1.332A1.463,1.463,0,0,1,132.408,10.88Zm5.7-1.68a.5.5,0,0,0-.528-.528,1.519,1.519,0,0,0-1.524,1.116V9.272A.536.536,0,0,0,135.5,8.7a.555.555,0,0,0-.576.576v4.26a.535.535,0,0,0,.564.564.556.556,0,0,0,.564-.564V11.564c0-1.212.576-1.836,1.524-1.836A.518.518,0,0,0,138.108,9.2Zm.2,4.176a.72.72,0,1,0,.72-.72A.722.722,0,0,0,138.312,13.376ZM2.232,27.508V24.724H4.716c1.824,0,2.724-.96,2.724-2.34s-.9-2.376-2.724-2.376H1.668a.554.554,0,0,0-.588.588v6.912a.574.574,0,0,0,.588.588A.562.562,0,0,0,2.232,27.508Zm2.712-6.444a1.259,1.259,0,0,1,1.344,1.32,1.232,1.232,0,0,1-1.344,1.284H2.232v-2.6Zm4.908,6.468V20.476a.564.564,0,1,0-1.128,0v7.056a.564.564,0,1,0,1.128,0ZM14,22.648A2.646,2.646,0,0,0,11.316,25.4a2.589,2.589,0,0,0,2.736,2.748,2.874,2.874,0,0,0,2.136-.876.5.5,0,0,0,.144-.324.454.454,0,0,0-.468-.468.551.551,0,0,0-.372.18,1.844,1.844,0,0,1-1.392.588,1.5,1.5,0,0,1-1.62-1.452h3.588c.324,0,.432-.192.432-.384A2.548,2.548,0,0,0,14,22.648Zm1.452,2.232H12.5A1.49,1.49,0,0,1,14,23.548,1.463,1.463,0,0,1,15.456,24.88Zm7.008,2.652V24.916c0-1.464-.888-2.268-2.472-2.268a4.805,4.805,0,0,0-1.608.264c-.3.12-.528.264-.528.54a.45.45,0,0,0,.48.468,1.211,1.211,0,0,0,.372-.1,3.283,3.283,0,0,1,1.188-.216c1.044,0,1.44.432,1.44,1.38V25.5a2.354,2.354,0,0,0-1.62-.612c-1.164,0-2.04.564-2.04,1.632,0,.96.828,1.62,1.992,1.62a2.043,2.043,0,0,0,1.692-.72v.108a.539.539,0,0,0,.552.564A.519.519,0,0,0,22.464,27.532Zm-1.128-1.008c0,.5-.6.852-1.308.852s-1.224-.312-1.224-.852.492-.852,1.248-.852C20.688,25.672,21.336,25.984,21.336,26.524Zm6.984.084c0-.972-.672-1.32-1.968-1.692-.864-.252-1.224-.384-1.224-.792s.408-.576,1.008-.576a2.356,2.356,0,0,1,1.14.276,1.094,1.094,0,0,0,.492.168.393.393,0,0,0,.432-.42c0-.24-.228-.432-.552-.588a3.547,3.547,0,0,0-1.488-.336c-1.3,0-2.124.588-2.124,1.488,0,.864.54,1.368,2.016,1.764.84.228,1.176.384,1.176.792,0,.372-.348.612-1,.612a2.262,2.262,0,0,1-1.356-.468.7.7,0,0,0-.444-.168.4.4,0,0,0-.432.4.6.6,0,0,0,.24.468,3.125,3.125,0,0,0,1.908.612C27.576,28.144,28.32,27.5,28.32,26.608Zm3.756-3.96A2.646,2.646,0,0,0,29.388,25.4a2.589,2.589,0,0,0,2.736,2.748,2.874,2.874,0,0,0,2.136-.876.5.5,0,0,0,.144-.324.454.454,0,0,0-.468-.468.551.551,0,0,0-.372.18,1.844,1.844,0,0,1-1.392.588,1.5,1.5,0,0,1-1.62-1.452H34.14c.324,0,.432-.192.432-.384A2.548,2.548,0,0,0,32.076,22.648Zm1.452,2.232H30.576a1.49,1.49,0,0,1,1.5-1.332A1.463,1.463,0,0,1,33.528,24.88Zm10.14,1.728c0-.972-.672-1.32-1.968-1.692-.864-.252-1.224-.384-1.224-.792s.408-.576,1.008-.576a2.356,2.356,0,0,1,1.14.276,1.094,1.094,0,0,0,.492.168.393.393,0,0,0,.432-.42c0-.24-.228-.432-.552-.588a3.547,3.547,0,0,0-1.488-.336c-1.3,0-2.124.588-2.124,1.488,0,.864.54,1.368,2.016,1.764.84.228,1.176.384,1.176.792,0,.372-.348.612-1,.612a2.262,2.262,0,0,1-1.356-.468.7.7,0,0,0-.444-.168.4.4,0,0,0-.432.4.6.6,0,0,0,.24.468,3.125,3.125,0,0,0,1.908.612C42.924,28.144,43.668,27.5,43.668,26.608Zm6.432.924V25.084a2.169,2.169,0,0,0-2.172-2.436A1.837,1.837,0,0,0,46.2,23.656V20.488a.526.526,0,0,0-.564-.576.539.539,0,0,0-.564.576v7.044a.549.549,0,0,0,.564.564.556.556,0,0,0,.564-.564V25.144a1.376,1.376,0,0,1,1.416-1.476,1.309,1.309,0,0,1,1.356,1.464v2.4a.549.549,0,0,0,.564.564A.541.541,0,0,0,50.1,27.532Zm6.228,0V24.916c0-1.464-.888-2.268-2.472-2.268a4.805,4.805,0,0,0-1.608.264c-.3.12-.528.264-.528.54a.45.45,0,0,0,.48.468,1.211,1.211,0,0,0,.372-.1,3.283,3.283,0,0,1,1.188-.216c1.044,0,1.44.432,1.44,1.38V25.5a2.354,2.354,0,0,0-1.62-.612c-1.164,0-2.04.564-2.04,1.632,0,.96.828,1.62,1.992,1.62a2.043,2.043,0,0,0,1.692-.72v.108a.539.539,0,0,0,.552.564A.519.519,0,0,0,56.328,27.532ZM55.2,26.524c0,.5-.6.852-1.308.852s-1.224-.312-1.224-.852.492-.852,1.248-.852C54.552,25.672,55.2,25.984,55.2,26.524ZM61.224,23.2a.5.5,0,0,0-.528-.528,1.519,1.519,0,0,0-1.524,1.116v-.516a.536.536,0,0,0-.552-.576.555.555,0,0,0-.576.576v4.26a.535.535,0,0,0,.564.564.556.556,0,0,0,.564-.564V25.564c0-1.212.576-1.836,1.524-1.836A.518.518,0,0,0,61.224,23.2Zm3.216-.552A2.646,2.646,0,0,0,61.752,25.4a2.589,2.589,0,0,0,2.736,2.748,2.874,2.874,0,0,0,2.136-.876.5.5,0,0,0,.144-.324.454.454,0,0,0-.468-.468.551.551,0,0,0-.372.18,1.844,1.844,0,0,1-1.392.588,1.5,1.5,0,0,1-1.62-1.452H66.5c.324,0,.432-.192.432-.384A2.548,2.548,0,0,0,64.44,22.648Zm1.452,2.232H62.94a1.49,1.49,0,0,1,1.5-1.332A1.463,1.463,0,0,1,65.892,24.88Zm7.764,2.652v-3.8h1.032a.468.468,0,1,0,0-.936H73.656V21.22a.564.564,0,1,0-1.128,0v1.572h-.912a.468.468,0,1,0,0,.936h.912v3.8a.564.564,0,1,0,1.128,0Zm7.428,0V25.084a2.169,2.169,0,0,0-2.172-2.436,1.837,1.837,0,0,0-1.728,1.008V20.488a.526.526,0,0,0-.564-.576.539.539,0,0,0-.564.576v7.044a.549.549,0,0,0,.564.564.556.556,0,0,0,.564-.564V25.144A1.376,1.376,0,0,1,78.6,23.668a1.309,1.309,0,0,1,1.356,1.464v2.4a.549.549,0,0,0,.564.564A.541.541,0,0,0,81.084,27.532Zm4.092-4.884A2.646,2.646,0,0,0,82.488,25.4a2.589,2.589,0,0,0,2.736,2.748,2.874,2.874,0,0,0,2.136-.876.5.5,0,0,0,.144-.324.454.454,0,0,0-.468-.468.551.551,0,0,0-.372.18,1.844,1.844,0,0,1-1.392.588,1.5,1.5,0,0,1-1.62-1.452H87.24c.324,0,.432-.192.432-.384A2.548,2.548,0,0,0,85.176,22.648Zm1.452,2.232H83.676a1.49,1.49,0,0,1,1.5-1.332A1.463,1.463,0,0,1,86.628,24.88ZM100.5,24a4.057,4.057,0,1,0-8.112,0,4.057,4.057,0,1,0,8.112,0Zm-1.152,0a2.91,2.91,0,1,1-5.808,0,2.91,2.91,0,1,1,5.808,0Zm8.3-3.444a.543.543,0,0,0-.552-.552h-5.664a.54.54,0,1,0,0,1.08H103.7v6.42a.574.574,0,0,0,.588.588.562.562,0,0,0,.564-.588v-6.42H107.1A.546.546,0,0,0,107.652,20.56Zm2.532,6.948V24.724h2.484c1.824,0,2.724-.96,2.724-2.34s-.9-2.376-2.724-2.376H109.62a.554.554,0,0,0-.588.588v6.912a.574.574,0,0,0,.588.588A.562.562,0,0,0,110.184,27.508Zm2.712-6.444a1.259,1.259,0,0,1,1.344,1.32,1.232,1.232,0,0,1-1.344,1.284h-2.712v-2.6Zm10.56,1.968a.477.477,0,0,0-.912,0l-1.2,3.252-1.056-3.228a.445.445,0,0,0-.456-.36.475.475,0,0,0-.516.48.7.7,0,0,0,.048.216l1.476,4.38a.435.435,0,0,0,.468.324.477.477,0,0,0,.48-.336L123,24.436l1.224,3.324a.473.473,0,0,0,.48.336.45.45,0,0,0,.468-.324l1.476-4.38a.7.7,0,0,0,.048-.216.475.475,0,0,0-.516-.48.445.445,0,0,0-.456.36l-1.056,3.228Zm5.628,4.5V23.26a.564.564,0,1,0-1.128,0v4.272a.564.564,0,1,0,1.128,0ZM127.86,21.22a.66.66,0,1,0,.66-.66A.666.666,0,0,0,127.86,21.22Zm4.788,6.312v-3.8h1.032a.468.468,0,1,0,0-.936h-1.032V21.22a.564.564,0,0,0-1.128,0v1.572h-.912a.468.468,0,0,0,0,.936h.912v3.8a.564.564,0,0,0,1.128,0Zm7.428,0V25.084a2.169,2.169,0,0,0-2.172-2.436,1.837,1.837,0,0,0-1.728,1.008V20.488a.526.526,0,0,0-.564-.576.539.539,0,0,0-.564.576v7.044a.549.549,0,0,0,.564.564.556.556,0,0,0,.564-.564V25.144a1.376,1.376,0,0,1,1.416-1.476,1.309,1.309,0,0,1,1.356,1.464v2.4a.549.549,0,0,0,.564.564A.541.541,0,0,0,140.076,27.532Zm14.028,0V25.048c0-1.4-.7-2.4-2.148-2.4a2.259,2.259,0,0,0-2,1.068,1.981,1.981,0,0,0-1.836-1.068,1.88,1.88,0,0,0-1.692,1.008v-.384a.532.532,0,0,0-.564-.576.539.539,0,0,0-.564.576v4.26a.556.556,0,0,0,.564.564.549.549,0,0,0,.564-.564V25.144a1.363,1.363,0,0,1,1.392-1.476,1.3,1.3,0,0,1,1.32,1.464v2.4a.549.549,0,0,0,.564.564.542.542,0,0,0,.564-.564V25.144a1.405,1.405,0,0,1,1.428-1.476c.888,0,1.284.636,1.284,1.464v2.4a.556.556,0,0,0,.564.564A.549.549,0,0,0,154.1,27.532Zm4.092-4.884a2.646,2.646,0,0,0-2.688,2.748,2.589,2.589,0,0,0,2.736,2.748,2.874,2.874,0,0,0,2.136-.876.5.5,0,0,0,.144-.324.454.454,0,0,0-.468-.468.551.551,0,0,0-.372.18,1.844,1.844,0,0,1-1.392.588,1.5,1.5,0,0,1-1.62-1.452h3.588c.324,0,.432-.192.432-.384A2.548,2.548,0,0,0,158.2,22.648Zm1.452,2.232H156.7a1.49,1.49,0,0,1,1.5-1.332A1.463,1.463,0,0,1,159.648,24.88Zm2.46,2.5a.72.72,0,1,0,.72-.72A.722.722,0,0,0,162.108,27.376Z" transform="translate(18594 1941)"/>
    <g id="Group_1348" data-name="Group 1348" transform="translate(11888 1843)">
      <path id="Path_490" data-name="Path 490" class="cls-3" d="M12,0A12,12,0,1,1,0,12,12,12,0,0,1,12,0Z" transform="translate(6667 69)"/>
      <g id="bank" transform="translate(7019.946 357.258)">
        <g id="Group_500" data-name="Group 500" transform="translate(-347.946 -283.258)">
          <g id="Group_499" data-name="Group 499" transform="translate(0 0)">
            <path id="Path_365" data-name="Path 365" class="cls-1" d="M14.027,6.046,9.333,3.026a.2.2,0,1,0-.218.339L13.74,6.341H12.662L7.4,2.953a.547.547,0,0,0-.59,0L1.54,6.341H.462L7.1,2.069l.94.6a.2.2,0,1,0,.218-.339l-.94-.6a.4.4,0,0,0-.436,0L.175,6.046a.379.379,0,0,0,.205.7H1.4v1.3a.335.335,0,0,0,.265.327v.355A.334.334,0,0,0,2,9.065h.028v2.472a.2.2,0,0,0,.4,0V8.863a.2.2,0,0,0-.2-.2h-.16V8.383H3.5v.278h-.16a.2.2,0,0,0-.2.2V13.32a.2.2,0,0,0,.2.2H3.5v.3H2.066v-.3h.16a.2.2,0,0,0,.2-.2V12.8a.2.2,0,0,0-.4,0v.314H2a.334.334,0,0,0-.334.334v.355a.335.335,0,0,0-.265.327v.407H.683a.4.4,0,0,0-.4.4v.424a.4.4,0,0,0,.4.4H13.519a.4.4,0,0,0,.4-.4v-.424a.4.4,0,0,0-.4-.4H12.8v-.407a.335.335,0,0,0-.265-.327v-.355a.334.334,0,0,0-.334-.334h-.028V9.065h.028a.334.334,0,0,0,.334-.334V8.376a.335.335,0,0,0,.265-.327v-1.3h1.017a.379.379,0,0,0,.205-.7Zm-7-2.753a.142.142,0,0,1,.154,0l4.738,3.049H2.286ZM1.8,6.745H12.4v.494H1.8Zm6.418,7.063v-.355a.334.334,0,0,0-.334-.334H7.857V9.065h.028a.334.334,0,0,0,.334-.334V8.376a.335.335,0,0,0,.265-.327V7.642h1.554v.407a.335.335,0,0,0,.265.327v.355a.334.334,0,0,0,.334.334h.028v4.054h-.028a.334.334,0,0,0-.334.334v.355a.335.335,0,0,0-.265.327v.407H8.484v-.407A.335.335,0,0,0,8.219,13.808Zm-4.32,0v-.355a.334.334,0,0,0-.334-.334H3.537V9.065h.028A.334.334,0,0,0,3.9,8.731V8.376a.335.335,0,0,0,.265-.327V7.642H5.718v.407a.335.335,0,0,0,.265.327v.355a.334.334,0,0,0,.334.334h.028v4.054H6.317a.334.334,0,0,0-.334.334v.355a.335.335,0,0,0-.265.327v.407H4.164v-.407A.335.335,0,0,0,3.9,13.808Zm3.757-.286h.16v.3H6.387v-.3h.16a.2.2,0,0,0,.2-.2V8.863a.2.2,0,0,0-.2-.2h-.16V8.383H7.815v.278h-.16a.2.2,0,0,0-.2.2V13.32A.2.2,0,0,0,7.655,13.522ZM6.185,7.98H6.121V7.642H8.08V7.98h-1.9Zm-.063,6.239a.2.2,0,0,0,.062.01H8.016a.2.2,0,0,0,.064-.011v.324H6.121ZM1.865,7.98H1.8V7.642H3.76V7.98h-1.9ZM1.8,14.218a.2.2,0,0,0,.063.01H3.7a.2.2,0,0,0,.063-.01v.324H1.8v-.324Zm11.719.728v.425H.682v-.425Zm-1.183-.718a.2.2,0,0,0,.064-.011v.324H10.442v-.324a.2.2,0,0,0,.063.01Zm-1.47-5.567h-.16V8.383h1.429v.278h-.16a.2.2,0,0,0-.2.2V13.32a.2.2,0,0,0,.2.2h.16v.3H10.707v-.3h.16a.2.2,0,0,0,.2-.2V8.863A.2.2,0,0,0,10.867,8.662ZM12.4,7.98H10.442V7.642H12.4V7.98Z" transform="translate(0 -1.666)"/>
          </g>
        </g>
      </g>
    </g>
  </g>
</svg>
