<svg xmlns="http://www.w3.org/2000/svg" viewBox="0 0 75.029 37.29">
  <defs>
    <style>
      .cls-1 {
        fill: #8c1313;
      }

      .cls-2 {
        fill: #fff;
      }
    </style>
  </defs>
  <g id="Group_1386" data-name="Group 1386" transform="translate(-18765 -2000)">
    <g id="Group_1356" data-name="Group 1356">
      <path id="Rectangle_1352" data-name="Rectangle 1352" class="cls-1" d="M17,0H58.03a17,17,0,0,1,17,17V37.29a0,0,0,0,1,0,0H17a17,17,0,0,1-17-17V17A17,17,0,0,1,17,0Z" transform="translate(18765 2000)"/>
      <path id="Path_943" data-name="Path 943" class="cls-2" d="M3.912-8.136c-1.548,0-2.628.876-2.628,2.064A1.955,1.955,0,0,0,2.4-4.4,2.235,2.235,0,0,0,.72-2.28C.72-.936,1.908.144,3.912.144S7.1-.936,7.1-2.28A2.235,2.235,0,0,0,5.424-4.4,1.955,1.955,0,0,0,6.54-6.072C6.54-7.26,5.46-8.136,3.912-8.136Zm0,4.308c1.212,0,2.064.588,2.064,1.512S5.112-.792,3.912-.792,1.848-1.4,1.848-2.316,2.7-3.828,3.912-3.828ZM2.388-5.988c0-.744.588-1.212,1.524-1.212s1.524.468,1.524,1.212A1.373,1.373,0,0,1,3.912-4.716,1.373,1.373,0,0,1,2.388-5.988Zm12.456,3.54a2.509,2.509,0,0,0-2.808-2.508A2.683,2.683,0,0,0,9.708-3.864a5.622,5.622,0,0,1,3.024-3.36c.24-.132.348-.276.348-.48a.436.436,0,0,0-.48-.432.983.983,0,0,0-.36.084,5.88,5.88,0,0,0-3.7,5.232A2.883,2.883,0,0,0,11.76.144C13.668.144,14.844-.972,14.844-2.448Zm-1.128.012C13.716-1.524,13-.8,11.772-.8S9.816-1.428,9.816-2.412c0-1.008.948-1.6,2-1.6C12.948-4.008,13.716-3.42,13.716-2.436Zm8.6-.072c0-1.5-1.044-2.6-2.952-2.6a3,3,0,0,0-1.68.456l.36-2.316h3.1a.52.52,0,0,0,.528-.5.515.515,0,0,0-.528-.516H17.628a.516.516,0,0,0-.54.456l-.564,3.552a.45.45,0,0,0,.5.54.6.6,0,0,0,.312-.1,3.571,3.571,0,0,1,1.968-.588c1.224,0,1.884.66,1.884,1.62,0,.984-.8,1.692-2.028,1.692A3.506,3.506,0,0,1,16.9-1.608a.493.493,0,0,0-.312-.108.488.488,0,0,0-.5.516.554.554,0,0,0,.216.4,4.31,4.31,0,0,0,2.868.948C21.2.144,22.32-1.1,22.32-2.508Zm7.8.06a2.509,2.509,0,0,0-2.808-2.508,2.683,2.683,0,0,0-2.328,1.092,5.622,5.622,0,0,1,3.024-3.36c.24-.132.348-.276.348-.48a.436.436,0,0,0-.48-.432.983.983,0,0,0-.36.084,5.88,5.88,0,0,0-3.7,5.232A2.883,2.883,0,0,0,27.036.144C28.944.144,30.12-.972,30.12-2.448Zm-1.128.012c0,.912-.72,1.632-1.944,1.632s-1.956-.624-1.956-1.608c0-1.008.948-1.6,2-1.6C28.224-4.008,28.992-3.42,28.992-2.436ZM36.864-7.5c0-.336-.216-.492-.552-.492h-5.16a.5.5,0,0,0-.516.5.5.5,0,0,0,.516.5h4.224A9.5,9.5,0,0,0,33.06-.456.52.52,0,0,0,33.624.1a.526.526,0,0,0,.564-.552,9.706,9.706,0,0,1,2.556-6.732A.456.456,0,0,0,36.864-7.5Zm3.912-.636c-1.548,0-2.628.876-2.628,2.064A1.955,1.955,0,0,0,39.264-4.4a2.235,2.235,0,0,0-1.68,2.124c0,1.344,1.188,2.424,3.192,2.424s3.192-1.08,3.192-2.424A2.235,2.235,0,0,0,42.288-4.4,1.955,1.955,0,0,0,43.4-6.072C43.4-7.26,42.324-8.136,40.776-8.136Zm0,4.308c1.212,0,2.064.588,2.064,1.512S41.976-.792,40.776-.792,38.712-1.4,38.712-2.316,39.564-3.828,40.776-3.828Zm-1.524-2.16c0-.744.588-1.212,1.524-1.212S42.3-6.732,42.3-5.988a1.373,1.373,0,0,1-1.524,1.272A1.373,1.373,0,0,1,39.252-5.988Z" transform="translate(18780 2022)"/>
    </g>
  </g>
</svg>
