<svg xmlns="http://www.w3.org/2000/svg" viewBox="0 0 147 48">
  <defs>
    <style>
      .cls-1 {
        fill: #fff;
      }

      .cls-2 {
        fill: #4d4d4d;
      }

      .cls-3 {
        fill: #8c1313;
      }
    </style>
  </defs>
  <g id="Group_1357" data-name="Group 1357" transform="translate(-18567 -2050)">
    <rect id="Rectangle_1355" data-name="Rectangle 1355" class="cls-1" width="138" height="37" rx="17" transform="translate(18576 2061)"/>
    <path id="Path_944" data-name="Path 944" class="cls-2" d="M7.068-7.44a.543.543,0,0,0-.552-.552H.852A.543.543,0,0,0,.3-7.44a.546.546,0,0,0,.552.528H3.12v6.42A.574.574,0,0,0,3.708.1a.562.562,0,0,0,.564-.588v-6.42H6.516A.546.546,0,0,0,7.068-7.44ZM13.3-.468V-2.916a2.169,2.169,0,0,0-2.172-2.436A1.837,1.837,0,0,0,9.4-4.344V-7.512a.526.526,0,0,0-.564-.576.539.539,0,0,0-.564.576V-.468A.549.549,0,0,0,8.832.1.556.556,0,0,0,9.4-.468V-2.856a1.376,1.376,0,0,1,1.416-1.476,1.309,1.309,0,0,1,1.356,1.464v2.4A.549.549,0,0,0,12.732.1.541.541,0,0,0,13.3-.468Zm6.228,0V-3.084c0-1.464-.888-2.268-2.472-2.268a4.805,4.805,0,0,0-1.608.264c-.3.12-.528.264-.528.54a.45.45,0,0,0,.48.468,1.211,1.211,0,0,0,.372-.1,3.283,3.283,0,0,1,1.188-.216c1.044,0,1.44.432,1.44,1.38V-2.5a2.354,2.354,0,0,0-1.62-.612c-1.164,0-2.04.564-2.04,1.632,0,.96.828,1.62,1.992,1.62a2.043,2.043,0,0,0,1.692-.72v.108A.539.539,0,0,0,18.972.1.519.519,0,0,0,19.524-.468ZM18.4-1.476c0,.5-.6.852-1.308.852s-1.224-.312-1.224-.852.492-.852,1.248-.852C17.748-2.328,18.4-2.016,18.4-1.476ZM26.268-.468V-2.916A2.169,2.169,0,0,0,24.1-5.352a1.837,1.837,0,0,0-1.728,1.008v-.384A.526.526,0,0,0,21.8-5.3a.539.539,0,0,0-.564.576v4.26A.549.549,0,0,0,21.8.1a.556.556,0,0,0,.564-.564V-2.856a1.376,1.376,0,0,1,1.416-1.476A1.309,1.309,0,0,1,25.14-2.868v2.4A.549.549,0,0,0,25.7.1.541.541,0,0,0,26.268-.468Zm2.868,0V-1.932l.7-.564L31.68-.12A.459.459,0,0,0,32.064.1.5.5,0,0,0,32.6-.42a.512.512,0,0,0-.12-.324L30.636-3.12l1.62-1.26a.55.55,0,0,0,.264-.432A.493.493,0,0,0,32-5.3a.557.557,0,0,0-.348.12l-2.52,1.968V-7.524a.549.549,0,0,0-.564-.564.549.549,0,0,0-.564.564V-.468A.549.549,0,0,0,28.572.1.549.549,0,0,0,29.136-.468Zm12.456-4.32a.469.469,0,0,0-.48-.516.513.513,0,0,0-.528.408L39.2-1.164,37.668-4.992a.479.479,0,0,0-.48-.312.478.478,0,0,0-.5.5.775.775,0,0,0,.048.228L38.6-.084a3.568,3.568,0,0,1-1.368,1.5.5.5,0,0,0-.288.468.476.476,0,0,0,.5.456.578.578,0,0,0,.288-.084A5.072,5.072,0,0,0,39.96-.528c.672-1.548,1.224-3,1.584-4A.863.863,0,0,0,41.592-4.788ZM47.808-2.6A2.66,2.66,0,0,0,45.06-5.352,2.66,2.66,0,0,0,42.312-2.6,2.66,2.66,0,0,0,45.06.144,2.66,2.66,0,0,0,47.808-2.6Zm-1.128,0A1.621,1.621,0,0,1,45.06-.816,1.621,1.621,0,0,1,43.44-2.6a1.621,1.621,0,0,1,1.62-1.788A1.621,1.621,0,0,1,46.68-2.6ZM49.212-4.74v2.448A2.169,2.169,0,0,0,51.384.144,1.837,1.837,0,0,0,53.112-.864V-.48A.526.526,0,0,0,53.676.1.539.539,0,0,0,54.24-.48V-4.74a.549.549,0,0,0-.564-.564.556.556,0,0,0-.564.564v2.388A1.376,1.376,0,0,1,51.7-.876,1.309,1.309,0,0,1,50.34-2.34v-2.4a.549.549,0,0,0-.564-.564A.541.541,0,0,0,49.212-4.74ZM60.852-.492V-3.348H63.4L64.92-.228A.51.51,0,0,0,65.436.1.558.558,0,0,0,66-.48a.645.645,0,0,0-.06-.252L64.6-3.48A2.1,2.1,0,0,0,66.24-5.64c0-1.38-.9-2.352-2.724-2.352H60.288A.554.554,0,0,0,59.7-7.4V-.492A.574.574,0,0,0,60.288.1.562.562,0,0,0,60.852-.492Zm2.892-6.444a1.241,1.241,0,0,1,1.344,1.3,1.232,1.232,0,0,1-1.344,1.284H60.852v-2.58Zm6.324,1.584A2.646,2.646,0,0,0,67.38-2.6,2.589,2.589,0,0,0,70.116.144a2.874,2.874,0,0,0,2.136-.876.5.5,0,0,0,.144-.324.454.454,0,0,0-.468-.468.551.551,0,0,0-.372.18,1.844,1.844,0,0,1-1.392.588,1.5,1.5,0,0,1-1.62-1.452h3.588c.324,0,.432-.192.432-.384A2.548,2.548,0,0,0,70.068-5.352ZM71.52-3.12H68.568a1.49,1.49,0,0,1,1.5-1.332A1.463,1.463,0,0,1,71.52-3.12Zm4.872-2.232A2.646,2.646,0,0,0,73.7-2.6,2.589,2.589,0,0,0,76.44.144a2.874,2.874,0,0,0,2.136-.876.5.5,0,0,0,.144-.324.454.454,0,0,0-.468-.468.551.551,0,0,0-.372.18,1.844,1.844,0,0,1-1.392.588,1.5,1.5,0,0,1-1.62-1.452h3.588c.324,0,.432-.192.432-.384A2.548,2.548,0,0,0,76.392-5.352ZM77.844-3.12H74.892a1.49,1.49,0,0,1,1.5-1.332A1.463,1.463,0,0,1,77.844-3.12ZM89.172-.468V-2.952c0-1.4-.7-2.4-2.148-2.4a2.259,2.259,0,0,0-2,1.068,1.981,1.981,0,0,0-1.836-1.068,1.88,1.88,0,0,0-1.692,1.008v-.384a.532.532,0,0,0-.564-.576.539.539,0,0,0-.564.576v4.26A.556.556,0,0,0,80.928.1a.549.549,0,0,0,.564-.564V-2.856a1.363,1.363,0,0,1,1.392-1.476A1.3,1.3,0,0,1,84.2-2.868v2.4A.549.549,0,0,0,84.768.1a.542.542,0,0,0,.564-.564V-2.856A1.405,1.405,0,0,1,86.76-4.332c.888,0,1.284.636,1.284,1.464v2.4A.556.556,0,0,0,88.608.1.549.549,0,0,0,89.172-.468Zm6.228,0V-3.084c0-1.464-.888-2.268-2.472-2.268a4.805,4.805,0,0,0-1.608.264c-.3.12-.528.264-.528.54a.45.45,0,0,0,.48.468,1.211,1.211,0,0,0,.372-.1,3.283,3.283,0,0,1,1.188-.216c1.044,0,1.44.432,1.44,1.38V-2.5a2.354,2.354,0,0,0-1.62-.612c-1.164,0-2.04.564-2.04,1.632,0,.96.828,1.62,1.992,1.62A2.043,2.043,0,0,0,94.3-.576v.108A.539.539,0,0,0,94.848.1.519.519,0,0,0,95.4-.468ZM94.272-1.476c0,.5-.6.852-1.308.852S91.74-.936,91.74-1.476s.492-.852,1.248-.852C93.624-2.328,94.272-2.016,94.272-1.476Zm2.784.852a.722.722,0,0,0,.72.72.722.722,0,0,0,.72-.72.722.722,0,0,0-.72-.72A.722.722,0,0,0,97.056-.624Z" transform="translate(18597 2083)"/>
    <g id="Group_1347" data-name="Group 1347" transform="translate(11900 1981)">
      <path id="Path_490" data-name="Path 490" class="cls-3" d="M12,0A12,12,0,1,1,0,12,12,12,0,0,1,12,0Z" transform="translate(6667 69)"/>
      <g id="bank" transform="translate(7019.946 357.258)">
        <g id="Group_500" data-name="Group 500" transform="translate(-347.946 -283.258)">
          <g id="Group_499" data-name="Group 499" transform="translate(0 0)">
            <path id="Path_365" data-name="Path 365" class="cls-1" d="M14.027,6.046,9.333,3.026a.2.2,0,1,0-.218.339L13.74,6.341H12.662L7.4,2.953a.547.547,0,0,0-.59,0L1.54,6.341H.462L7.1,2.069l.94.6a.2.2,0,1,0,.218-.339l-.94-.6a.4.4,0,0,0-.436,0L.175,6.046a.379.379,0,0,0,.205.7H1.4v1.3a.335.335,0,0,0,.265.327v.355A.334.334,0,0,0,2,9.065h.028v2.472a.2.2,0,0,0,.4,0V8.863a.2.2,0,0,0-.2-.2h-.16V8.383H3.5v.278h-.16a.2.2,0,0,0-.2.2V13.32a.2.2,0,0,0,.2.2H3.5v.3H2.066v-.3h.16a.2.2,0,0,0,.2-.2V12.8a.2.2,0,0,0-.4,0v.314H2a.334.334,0,0,0-.334.334v.355a.335.335,0,0,0-.265.327v.407H.683a.4.4,0,0,0-.4.4v.424a.4.4,0,0,0,.4.4H13.519a.4.4,0,0,0,.4-.4v-.424a.4.4,0,0,0-.4-.4H12.8v-.407a.335.335,0,0,0-.265-.327v-.355a.334.334,0,0,0-.334-.334h-.028V9.065h.028a.334.334,0,0,0,.334-.334V8.376a.335.335,0,0,0,.265-.327v-1.3h1.017a.379.379,0,0,0,.205-.7Zm-7-2.753a.142.142,0,0,1,.154,0l4.738,3.049H2.286ZM1.8,6.745H12.4v.494H1.8Zm6.418,7.063v-.355a.334.334,0,0,0-.334-.334H7.857V9.065h.028a.334.334,0,0,0,.334-.334V8.376a.335.335,0,0,0,.265-.327V7.642h1.554v.407a.335.335,0,0,0,.265.327v.355a.334.334,0,0,0,.334.334h.028v4.054h-.028a.334.334,0,0,0-.334.334v.355a.335.335,0,0,0-.265.327v.407H8.484v-.407A.335.335,0,0,0,8.219,13.808Zm-4.32,0v-.355a.334.334,0,0,0-.334-.334H3.537V9.065h.028A.334.334,0,0,0,3.9,8.731V8.376a.335.335,0,0,0,.265-.327V7.642H5.718v.407a.335.335,0,0,0,.265.327v.355a.334.334,0,0,0,.334.334h.028v4.054H6.317a.334.334,0,0,0-.334.334v.355a.335.335,0,0,0-.265.327v.407H4.164v-.407A.335.335,0,0,0,3.9,13.808Zm3.757-.286h.16v.3H6.387v-.3h.16a.2.2,0,0,0,.2-.2V8.863a.2.2,0,0,0-.2-.2h-.16V8.383H7.815v.278h-.16a.2.2,0,0,0-.2.2V13.32A.2.2,0,0,0,7.655,13.522ZM6.185,7.98H6.121V7.642H8.08V7.98h-1.9Zm-.063,6.239a.2.2,0,0,0,.062.01H8.016a.2.2,0,0,0,.064-.011v.324H6.121ZM1.865,7.98H1.8V7.642H3.76V7.98h-1.9ZM1.8,14.218a.2.2,0,0,0,.063.01H3.7a.2.2,0,0,0,.063-.01v.324H1.8v-.324Zm11.719.728v.425H.682v-.425Zm-1.183-.718a.2.2,0,0,0,.064-.011v.324H10.442v-.324a.2.2,0,0,0,.063.01Zm-1.47-5.567h-.16V8.383h1.429v.278h-.16a.2.2,0,0,0-.2.2V13.32a.2.2,0,0,0,.2.2h.16v.3H10.707v-.3h.16a.2.2,0,0,0,.2-.2V8.863A.2.2,0,0,0,10.867,8.662ZM12.4,7.98H10.442V7.642H12.4V7.98Z" transform="translate(0 -1.666)"/>
          </g>
        </g>
      </g>
    </g>
  </g>
</svg>
