<svg xmlns="http://www.w3.org/2000/svg" viewBox="0 0 236 58">
  <defs>
    <style>
      .cls-1 {
        fill: #fff;
      }

      .cls-2 {
        fill: #4d4d4d;
      }

      .cls-3 {
        fill: #8c1313;
      }
    </style>
  </defs>
  <g id="Group_1358" data-name="Group 1358" transform="translate(-18567 -2141)">
    <rect id="Rectangle_1351" data-name="Rectangle 1351" class="cls-1" width="227" height="50" rx="17" transform="translate(18576 2149)"/>
    <path id="Path_945" data-name="Path 945" class="cls-2" d="M7.068-7.44a.543.543,0,0,0-.552-.552H.852A.543.543,0,0,0,.3-7.44a.546.546,0,0,0,.552.528H3.12v6.42A.574.574,0,0,0,3.708.1a.562.562,0,0,0,.564-.588v-6.42H6.516A.546.546,0,0,0,7.068-7.44ZM13.3-.468V-2.916a2.169,2.169,0,0,0-2.172-2.436A1.837,1.837,0,0,0,9.4-4.344V-7.512a.526.526,0,0,0-.564-.576.539.539,0,0,0-.564.576V-.468A.549.549,0,0,0,8.832.1.556.556,0,0,0,9.4-.468V-2.856a1.376,1.376,0,0,1,1.416-1.476,1.309,1.309,0,0,1,1.356,1.464v2.4A.549.549,0,0,0,12.732.1.541.541,0,0,0,13.3-.468Zm4.092-4.884A2.646,2.646,0,0,0,14.7-2.6,2.589,2.589,0,0,0,17.436.144a2.874,2.874,0,0,0,2.136-.876.5.5,0,0,0,.144-.324.454.454,0,0,0-.468-.468.551.551,0,0,0-.372.18,1.844,1.844,0,0,1-1.392.588,1.5,1.5,0,0,1-1.62-1.452h3.588c.324,0,.432-.192.432-.384A2.548,2.548,0,0,0,17.388-5.352ZM18.84-3.12H15.888a1.49,1.49,0,0,1,1.5-1.332A1.463,1.463,0,0,1,18.84-3.12ZM30.324-2.6a2.556,2.556,0,0,0-2.508-2.748A2.158,2.158,0,0,0,25.968-4.32v-3.2a.549.549,0,0,0-.564-.564.549.549,0,0,0-.564.564V-.468A.523.523,0,0,0,25.38.1a.542.542,0,0,0,.552-.576V-.888A2.163,2.163,0,0,0,27.816.144,2.591,2.591,0,0,0,30.324-2.6ZM29.2-2.6A1.623,1.623,0,0,1,27.588-.792,1.7,1.7,0,0,1,25.968-2.6a1.7,1.7,0,0,1,1.62-1.812A1.623,1.623,0,0,1,29.2-2.6Zm7.08,2.136V-3.084c0-1.464-.888-2.268-2.472-2.268a4.805,4.805,0,0,0-1.608.264c-.3.12-.528.264-.528.54a.45.45,0,0,0,.48.468,1.211,1.211,0,0,0,.372-.1,3.283,3.283,0,0,1,1.188-.216c1.044,0,1.44.432,1.44,1.38V-2.5a2.354,2.354,0,0,0-1.62-.612c-1.164,0-2.04.564-2.04,1.632,0,.96.828,1.62,1.992,1.62a2.043,2.043,0,0,0,1.692-.72v.108A.539.539,0,0,0,35.724.1.519.519,0,0,0,36.276-.468ZM35.148-1.476c0,.5-.6.852-1.308.852s-1.224-.312-1.224-.852.492-.852,1.248-.852C34.5-2.328,35.148-2.016,35.148-1.476ZM39.12-.468V-7.524a.549.549,0,0,0-.564-.564.549.549,0,0,0-.564.564V-.468A.549.549,0,0,0,38.556.1.549.549,0,0,0,39.12-.468Zm6.288,0V-3.084c0-1.464-.888-2.268-2.472-2.268a4.805,4.805,0,0,0-1.608.264c-.3.12-.528.264-.528.54a.45.45,0,0,0,.48.468,1.211,1.211,0,0,0,.372-.1,3.283,3.283,0,0,1,1.188-.216c1.044,0,1.44.432,1.44,1.38V-2.5a2.354,2.354,0,0,0-1.62-.612c-1.164,0-2.04.564-2.04,1.632,0,.96.828,1.62,1.992,1.62A2.043,2.043,0,0,0,44.3-.576v.108A.539.539,0,0,0,44.856.1.519.519,0,0,0,45.408-.468ZM44.28-1.476c0,.5-.6.852-1.308.852s-1.224-.312-1.224-.852S42.24-2.328,43-2.328C43.632-2.328,44.28-2.016,44.28-1.476ZM52.152-.468V-2.916A2.169,2.169,0,0,0,49.98-5.352a1.837,1.837,0,0,0-1.728,1.008v-.384a.526.526,0,0,0-.564-.576.539.539,0,0,0-.564.576v4.26A.549.549,0,0,0,47.688.1a.556.556,0,0,0,.564-.564V-2.856a1.376,1.376,0,0,1,1.416-1.476,1.309,1.309,0,0,1,1.356,1.464v2.4A.549.549,0,0,0,51.588.1.541.541,0,0,0,52.152-.468Zm4.224-4.884A2.642,2.642,0,0,0,53.568-2.6,2.642,2.642,0,0,0,56.376.144a2.536,2.536,0,0,0,1.86-.756.55.55,0,0,0,.168-.4.472.472,0,0,0-.516-.456c-.2,0-.336.168-.48.288a1.523,1.523,0,0,1-1.02.372A1.659,1.659,0,0,1,54.7-2.6a1.659,1.659,0,0,1,1.692-1.8,1.523,1.523,0,0,1,1.02.372c.144.12.276.288.48.288A.472.472,0,0,0,58.4-4.2a.55.55,0,0,0-.168-.4A2.536,2.536,0,0,0,56.376-5.352Zm5.856,0A2.646,2.646,0,0,0,59.544-2.6,2.589,2.589,0,0,0,62.28.144a2.874,2.874,0,0,0,2.136-.876.5.5,0,0,0,.144-.324.454.454,0,0,0-.468-.468.551.551,0,0,0-.372.18,1.844,1.844,0,0,1-1.392.588,1.5,1.5,0,0,1-1.62-1.452H64.3c.324,0,.432-.192.432-.384A2.548,2.548,0,0,0,62.232-5.352ZM63.684-3.12H60.732a1.49,1.49,0,0,1,1.5-1.332A1.463,1.463,0,0,1,63.684-3.12ZM70.812-.468V-4.74a.556.556,0,0,0-.564-.564.556.556,0,0,0-.564.564V-.468A.549.549,0,0,0,70.248.1.549.549,0,0,0,70.812-.468ZM69.588-6.78a.666.666,0,0,0,.66.66.666.666,0,0,0,.66-.66.666.666,0,0,0-.66-.66A.666.666,0,0,0,69.588-6.78ZM77.64-.468V-2.916a2.169,2.169,0,0,0-2.172-2.436A1.837,1.837,0,0,0,73.74-4.344v-.384a.526.526,0,0,0-.564-.576.539.539,0,0,0-.564.576v4.26A.549.549,0,0,0,73.176.1a.556.556,0,0,0,.564-.564V-2.856a1.376,1.376,0,0,1,1.416-1.476,1.309,1.309,0,0,1,1.356,1.464v2.4A.549.549,0,0,0,77.076.1.541.541,0,0,0,77.64-.468Zm9.348-4.32a.469.469,0,0,0-.48-.516.513.513,0,0,0-.528.408L84.6-1.164,83.064-4.992a.479.479,0,0,0-.48-.312.478.478,0,0,0-.5.5.775.775,0,0,0,.048.228L84-.084a3.568,3.568,0,0,1-1.368,1.5.5.5,0,0,0-.288.468.476.476,0,0,0,.5.456.578.578,0,0,0,.288-.084,5.072,5.072,0,0,0,2.22-2.784c.672-1.548,1.224-3,1.584-4A.863.863,0,0,0,86.988-4.788ZM93.2-2.6a2.66,2.66,0,0,0-2.748-2.748A2.66,2.66,0,0,0,87.708-2.6,2.66,2.66,0,0,0,90.456.144,2.66,2.66,0,0,0,93.2-2.6Zm-1.128,0a1.621,1.621,0,0,1-1.62,1.788A1.621,1.621,0,0,1,88.836-2.6a1.621,1.621,0,0,1,1.62-1.788A1.621,1.621,0,0,1,92.076-2.6ZM94.608-4.74v2.448A2.169,2.169,0,0,0,96.78.144,1.837,1.837,0,0,0,98.508-.864V-.48A.526.526,0,0,0,99.072.1a.539.539,0,0,0,.564-.576V-4.74a.549.549,0,0,0-.564-.564.556.556,0,0,0-.564.564v2.388A1.376,1.376,0,0,1,97.092-.876,1.309,1.309,0,0,1,95.736-2.34v-2.4a.549.549,0,0,0-.564-.564A.541.541,0,0,0,94.608-4.74Zm10.008-.06a.5.5,0,0,0-.528-.528,1.519,1.519,0,0,0-1.524,1.116v-.516a.536.536,0,0,0-.552-.576.555.555,0,0,0-.576.576v4.26A.535.535,0,0,0,102,.1a.556.556,0,0,0,.564-.564V-2.436c0-1.212.576-1.836,1.524-1.836A.518.518,0,0,0,104.616-4.8ZM112.644.144a3.1,3.1,0,0,0,3.372-3.336V-7.5a.567.567,0,0,0-.588-.588.548.548,0,0,0-.564.588v4.428A2.019,2.019,0,0,1,112.644-.9a2.019,2.019,0,0,1-2.22-2.172V-7.5a.548.548,0,0,0-.564-.588.567.567,0,0,0-.588.588v4.308A3.1,3.1,0,0,0,112.644.144Zm11.388-2.268c0-1.368-1.068-1.884-2.988-2.484-1.38-.432-1.968-.684-1.968-1.392,0-.78.756-1.116,1.932-1.116a4.071,4.071,0,0,1,2.052.588.46.46,0,0,0,.228.06.472.472,0,0,0,.492-.516c0-.372-.564-.66-.972-.816A5.161,5.161,0,0,0,121-8.136c-1.8,0-3.072.72-3.072,2.16,0,1.128.672,1.788,2.808,2.424,1.44.432,2.148.684,2.148,1.488,0,.684-.624,1.2-1.9,1.2a3.842,3.842,0,0,1-2.256-.744.8.8,0,0,0-.408-.144.453.453,0,0,0-.492.468.731.731,0,0,0,.312.54,4.821,4.821,0,0,0,2.832.888C122.976.144,124.032-.84,124.032-2.124Zm8-.132a1.924,1.924,0,0,0-1.716-2.028,1.856,1.856,0,0,0,1.236-1.728c0-1.188-.948-1.98-2.448-1.98h-2.8a.569.569,0,0,0-.576.576V-.588a.579.579,0,0,0,.576.588h2.928C131.112,0,132.036-1.092,132.036-2.256Zm-1.644-3.612a1.125,1.125,0,0,1-1.224,1.14h-2.28V-6.96h2.256C129.888-6.96,130.392-6.6,130.392-5.868ZM129.324-3.7c.972,0,1.56.492,1.56,1.32,0,.792-.564,1.344-1.548,1.344h-2.448V-3.7ZM141.5-.468V-3.084c0-1.464-.888-2.268-2.472-2.268a4.805,4.805,0,0,0-1.608.264c-.3.12-.528.264-.528.54a.45.45,0,0,0,.48.468,1.211,1.211,0,0,0,.372-.1,3.283,3.283,0,0,1,1.188-.216c1.044,0,1.44.432,1.44,1.38V-2.5a2.354,2.354,0,0,0-1.62-.612c-1.164,0-2.04.564-2.04,1.632,0,.96.828,1.62,1.992,1.62a2.043,2.043,0,0,0,1.692-.72v.108a.539.539,0,0,0,.552.564A.519.519,0,0,0,141.5-.468Zm-1.128-1.008c0,.5-.6.852-1.308.852s-1.224-.312-1.224-.852.492-.852,1.248-.852C139.728-2.328,140.376-2.016,140.376-1.476ZM145.7-5.352A2.642,2.642,0,0,0,142.9-2.6,2.642,2.642,0,0,0,145.7.144a2.536,2.536,0,0,0,1.86-.756.55.55,0,0,0,.168-.4.472.472,0,0,0-.516-.456c-.2,0-.336.168-.48.288a1.523,1.523,0,0,1-1.02.372,1.659,1.659,0,0,1-1.692-1.8,1.659,1.659,0,0,1,1.692-1.8,1.523,1.523,0,0,1,1.02.372c.144.12.276.288.48.288a.472.472,0,0,0,.516-.456.55.55,0,0,0-.168-.4A2.536,2.536,0,0,0,145.7-5.352Zm5.988,0A2.642,2.642,0,0,0,148.884-2.6,2.642,2.642,0,0,0,151.692.144a2.536,2.536,0,0,0,1.86-.756.55.55,0,0,0,.168-.4.472.472,0,0,0-.516-.456c-.2,0-.336.168-.48.288A1.523,1.523,0,0,1,151.7-.8a1.659,1.659,0,0,1-1.692-1.8A1.659,1.659,0,0,1,151.7-4.4a1.523,1.523,0,0,1,1.02.372c.144.12.276.288.48.288a.472.472,0,0,0,.516-.456.55.55,0,0,0-.168-.4A2.536,2.536,0,0,0,151.692-5.352ZM160.368-2.6a2.66,2.66,0,0,0-2.748-2.748A2.66,2.66,0,0,0,154.872-2.6,2.66,2.66,0,0,0,157.62.144,2.66,2.66,0,0,0,160.368-2.6Zm-1.128,0a1.621,1.621,0,0,1-1.62,1.788A1.621,1.621,0,0,1,156-2.6a1.621,1.621,0,0,1,1.62-1.788A1.621,1.621,0,0,1,159.24-2.6Zm2.532-2.136v2.448A2.169,2.169,0,0,0,163.944.144a1.837,1.837,0,0,0,1.728-1.008V-.48a.526.526,0,0,0,.564.576A.539.539,0,0,0,166.8-.48V-4.74a.549.549,0,0,0-.564-.564.556.556,0,0,0-.564.564v2.388a1.376,1.376,0,0,1-1.416,1.476A1.309,1.309,0,0,1,162.9-2.34v-2.4a.549.549,0,0,0-.564-.564A.541.541,0,0,0,161.772-4.74ZM173.628-.468V-2.916a2.169,2.169,0,0,0-2.172-2.436,1.837,1.837,0,0,0-1.728,1.008v-.384a.526.526,0,0,0-.564-.576.539.539,0,0,0-.564.576v4.26a.549.549,0,0,0,.564.564.556.556,0,0,0,.564-.564V-2.856a1.376,1.376,0,0,1,1.416-1.476A1.309,1.309,0,0,1,172.5-2.868v2.4a.549.549,0,0,0,.564.564A.541.541,0,0,0,173.628-.468Zm3.468,0v-3.8h1.032a.461.461,0,0,0,.468-.468.461.461,0,0,0-.468-.468H177.1V-6.78a.549.549,0,0,0-.564-.564.549.549,0,0,0-.564.564v1.572h-.912a.461.461,0,0,0-.468.468.461.461,0,0,0,.468.468h.912v3.8a.549.549,0,0,0,.564.564A.549.549,0,0,0,177.1-.468ZM3.912,5.864c-1.548,0-2.628.876-2.628,2.064A1.955,1.955,0,0,0,2.4,9.6,2.235,2.235,0,0,0,.72,11.72c0,1.344,1.188,2.424,3.192,2.424S7.1,13.064,7.1,11.72A2.235,2.235,0,0,0,5.424,9.6,1.955,1.955,0,0,0,6.54,7.928C6.54,6.74,5.46,5.864,3.912,5.864Zm0,4.308c1.212,0,2.064.588,2.064,1.512s-.864,1.524-2.064,1.524S1.848,12.6,1.848,11.684,2.7,10.172,3.912,10.172ZM2.388,8.012c0-.744.588-1.212,1.524-1.212s1.524.468,1.524,1.212A1.373,1.373,0,0,1,3.912,9.284,1.373,1.373,0,0,1,2.388,8.012ZM14.2,6.5c0-.336-.216-.492-.552-.492H8.484a.5.5,0,1,0,0,1.008h4.224a9.5,9.5,0,0,0-2.316,6.528.52.52,0,0,0,.564.552.526.526,0,0,0,.564-.552,9.706,9.706,0,0,1,2.556-6.732A.456.456,0,0,0,14.2,6.5Zm2.088-.384a.512.512,0,0,0-.42-.2.528.528,0,0,0-.552.516.576.576,0,0,0,.12.336L17.9,9.98,15.4,13.232a.573.573,0,0,0-.12.336.533.533,0,0,0,.528.528.519.519,0,0,0,.444-.216l2.316-3.024L20.88,13.88a.519.519,0,0,0,.444.216.533.533,0,0,0,.528-.528.573.573,0,0,0-.12-.336L19.224,9.98,21.7,6.764a.576.576,0,0,0,.12-.336.528.528,0,0,0-.552-.516.512.512,0,0,0-.42.2L18.564,9.1Zm8.136,0a.512.512,0,0,0-.42-.2.528.528,0,0,0-.552.516.576.576,0,0,0,.12.336L26.04,9.98l-2.508,3.252a.573.573,0,0,0-.12.336.533.533,0,0,0,.528.528.519.519,0,0,0,.444-.216L26.7,10.856l2.316,3.024a.519.519,0,0,0,.444.216.533.533,0,0,0,.528-.528.573.573,0,0,0-.12-.336L27.36,9.98l2.472-3.216a.576.576,0,0,0,.12-.336.528.528,0,0,0-.552-.516.512.512,0,0,0-.42.2L26.7,9.1Zm8.136,0a.512.512,0,0,0-.42-.2.528.528,0,0,0-.552.516.576.576,0,0,0,.12.336L34.176,9.98l-2.508,3.252a.573.573,0,0,0-.12.336.533.533,0,0,0,.528.528.519.519,0,0,0,.444-.216l2.316-3.024,2.316,3.024a.519.519,0,0,0,.444.216.533.533,0,0,0,.528-.528.573.573,0,0,0-.12-.336L35.5,9.98l2.472-3.216a.576.576,0,0,0,.12-.336.528.528,0,0,0-.552-.516.512.512,0,0,0-.42.2L34.836,9.1Zm8.136,0a.512.512,0,0,0-.42-.2.528.528,0,0,0-.552.516.576.576,0,0,0,.12.336L42.312,9.98,39.8,13.232a.573.573,0,0,0-.12.336.533.533,0,0,0,.528.528.519.519,0,0,0,.444-.216l2.316-3.024,2.316,3.024a.519.519,0,0,0,.444.216.533.533,0,0,0,.528-.528.573.573,0,0,0-.12-.336L43.632,9.98,46.1,6.764a.576.576,0,0,0,.12-.336.528.528,0,0,0-.552-.516.512.512,0,0,0-.42.2L42.972,9.1Zm8.136,0a.512.512,0,0,0-.42-.2.528.528,0,0,0-.552.516.576.576,0,0,0,.12.336L50.448,9.98,47.94,13.232a.573.573,0,0,0-.12.336.533.533,0,0,0,.528.528.519.519,0,0,0,.444-.216l2.316-3.024,2.316,3.024a.519.519,0,0,0,.444.216.533.533,0,0,0,.528-.528.573.573,0,0,0-.12-.336L51.768,9.98,54.24,6.764a.576.576,0,0,0,.12-.336.528.528,0,0,0-.552-.516.512.512,0,0,0-.42.2L51.108,9.1Zm8.136,0a.512.512,0,0,0-.42-.2.528.528,0,0,0-.552.516.576.576,0,0,0,.12.336L58.584,9.98l-2.508,3.252a.573.573,0,0,0-.12.336.533.533,0,0,0,.528.528.519.519,0,0,0,.444-.216l2.316-3.024L61.56,13.88A.519.519,0,0,0,62,14.1a.533.533,0,0,0,.528-.528.573.573,0,0,0-.12-.336L59.9,9.98l2.472-3.216a.576.576,0,0,0,.12-.336.528.528,0,0,0-.552-.516.512.512,0,0,0-.42.2L59.244,9.1Zm8.136,0a.512.512,0,0,0-.42-.2.528.528,0,0,0-.552.516.576.576,0,0,0,.12.336L66.72,9.98l-2.508,3.252a.573.573,0,0,0-.12.336.533.533,0,0,0,.528.528.519.519,0,0,0,.444-.216l2.316-3.024L69.7,13.88a.519.519,0,0,0,.444.216.533.533,0,0,0,.528-.528.573.573,0,0,0-.12-.336L68.04,9.98l2.472-3.216a.576.576,0,0,0,.12-.336.528.528,0,0,0-.552-.516.512.512,0,0,0-.42.2L67.38,9.1ZM78.948,10c0-2.16-1.224-4.14-3.42-4.14s-3.42,1.98-3.42,4.14,1.224,4.14,3.42,4.14S78.948,12.164,78.948,10ZM77.82,10c0,1.764-.9,3.132-2.292,3.132S73.236,11.768,73.236,10s.9-3.132,2.292-3.132S77.82,8.24,77.82,10ZM86.5,13.5a.485.485,0,0,0-.5-.5H81.6c0-1.08.732-1.536,2.352-2.364,1.716-.876,2.472-1.5,2.472-2.652,0-1.392-1.188-2.112-2.9-2.112a5,5,0,0,0-2.184.456c-.528.252-.828.492-.828.852a.485.485,0,0,0,.5.468.492.492,0,0,0,.264-.084,3.6,3.6,0,0,1,2.184-.684c1.116,0,1.836.372,1.836,1.116,0,.8-.876,1.236-2.316,1.98-1.692.876-2.628,1.572-2.628,3.516a.507.507,0,0,0,.492.516h5.148A.492.492,0,0,0,86.5,13.5Zm7.608,0a.485.485,0,0,0-.5-.5H89.208c0-1.08.732-1.536,2.352-2.364,1.716-.876,2.472-1.5,2.472-2.652,0-1.392-1.188-2.112-2.9-2.112a5,5,0,0,0-2.184.456c-.528.252-.828.492-.828.852a.485.485,0,0,0,.5.468.492.492,0,0,0,.264-.084,3.6,3.6,0,0,1,2.184-.684c1.116,0,1.836.372,1.836,1.116,0,.8-.876,1.236-2.316,1.98-1.692.876-2.628,1.572-2.628,3.516a.507.507,0,0,0,.492.516H93.6A.492.492,0,0,0,94.1,13.5Zm6.228.036V9.26a.564.564,0,1,0-1.128,0v4.272a.564.564,0,1,0,1.128,0ZM99.108,7.22a.66.66,0,1,0,.66-.66A.666.666,0,0,0,99.108,7.22Zm7.164,5.388c0-.972-.672-1.32-1.968-1.692-.864-.252-1.224-.384-1.224-.792s.408-.576,1.008-.576a2.356,2.356,0,0,1,1.14.276,1.094,1.094,0,0,0,.492.168.393.393,0,0,0,.432-.42c0-.24-.228-.432-.552-.588a3.547,3.547,0,0,0-1.488-.336c-1.3,0-2.124.588-2.124,1.488,0,.864.54,1.368,2.016,1.764.84.228,1.176.384,1.176.792,0,.372-.348.612-1,.612a2.262,2.262,0,0,1-1.356-.468.7.7,0,0,0-.444-.168.4.4,0,0,0-.432.4.6.6,0,0,0,.24.468,3.125,3.125,0,0,0,1.908.612C105.528,14.144,106.272,13.5,106.272,12.608Zm6.216.9V10.652h2.544l1.524,3.12a.51.51,0,0,0,.516.324.558.558,0,0,0,.564-.576.645.645,0,0,0-.06-.252l-1.344-2.748a2.1,2.1,0,0,0,1.644-2.16c0-1.38-.9-2.352-2.724-2.352h-3.228a.554.554,0,0,0-.588.588v6.912a.574.574,0,0,0,.588.588A.562.562,0,0,0,112.488,13.508Zm2.892-6.444a1.241,1.241,0,0,1,1.344,1.3,1.232,1.232,0,0,1-1.344,1.284h-2.892V7.064Zm8.268,5.544c0-.972-.672-1.32-1.968-1.692-.864-.252-1.224-.384-1.224-.792s.408-.576,1.008-.576a2.356,2.356,0,0,1,1.14.276,1.094,1.094,0,0,0,.492.168.393.393,0,0,0,.432-.42c0-.24-.228-.432-.552-.588a3.547,3.547,0,0,0-1.488-.336c-1.3,0-2.124.588-2.124,1.488,0,.864.54,1.368,2.016,1.764.84.228,1.176.384,1.176.792,0,.372-.348.612-1,.612a2.262,2.262,0,0,1-1.356-.468.7.7,0,0,0-.444-.168.4.4,0,0,0-.432.4.6.6,0,0,0,.24.468,3.125,3.125,0,0,0,1.908.612C122.9,14.144,123.648,13.5,123.648,12.608Zm1.344.768a.72.72,0,1,0,.72-.72A.722.722,0,0,0,124.992,13.376Zm13.26-1.956a.464.464,0,0,0-.48-.468h-1.1V6.464a.513.513,0,0,0-.54-.552.609.609,0,0,0-.492.24l-4.428,4.9a.549.549,0,0,0-.156.372.467.467,0,0,0,.492.468h4.008v1.656a.558.558,0,0,0,1.116,0V11.888h1.1A.464.464,0,0,0,138.252,11.42Zm-2.7-.468H132.54L135.552,7.6Zm7.068-5.088c-1.548,0-2.628.876-2.628,2.064A1.955,1.955,0,0,0,141.108,9.6a2.235,2.235,0,0,0-1.68,2.124c0,1.344,1.188,2.424,3.192,2.424s3.192-1.08,3.192-2.424a2.235,2.235,0,0,0-1.68-2.124,1.955,1.955,0,0,0,1.116-1.668C145.248,6.74,144.168,5.864,142.62,5.864Zm0,4.308c1.212,0,2.064.588,2.064,1.512s-.864,1.524-2.064,1.524-2.064-.612-2.064-1.524S141.408,10.172,142.62,10.172ZM141.1,8.012c0-.744.588-1.212,1.524-1.212s1.524.468,1.524,1.212a1.549,1.549,0,0,1-3.048,0Zm5.88.444a2.509,2.509,0,0,0,2.808,2.508,2.683,2.683,0,0,0,2.328-1.092,5.622,5.622,0,0,1-3.024,3.36c-.24.132-.348.276-.348.48a.436.436,0,0,0,.48.432.983.983,0,0,0,.36-.084,5.88,5.88,0,0,0,3.7-5.232c0-1.752-1.08-2.964-3.192-2.964C148.26,5.864,146.976,7.016,146.976,8.456Zm1.128-.012c0-.912.72-1.632,1.944-1.632S152,7.436,152,8.42c0,1.008-.948,1.6-2,1.6C148.872,10.016,148.1,9.428,148.1,8.444ZM160.2,6.5c0-.336-.216-.492-.552-.492h-5.16a.5.5,0,1,0,0,1.008h4.224a9.5,9.5,0,0,0-2.316,6.528.52.52,0,0,0,.564.552.526.526,0,0,0,.564-.552,9.706,9.706,0,0,1,2.556-6.732A.456.456,0,0,0,160.2,6.5Zm3.912-.636c-1.548,0-2.628.876-2.628,2.064A1.955,1.955,0,0,0,162.6,9.6a2.235,2.235,0,0,0-1.68,2.124c0,1.344,1.188,2.424,3.192,2.424s3.192-1.08,3.192-2.424a2.235,2.235,0,0,0-1.68-2.124,1.955,1.955,0,0,0,1.116-1.668C166.74,6.74,165.66,5.864,164.112,5.864Zm0,4.308c1.212,0,2.064.588,2.064,1.512s-.864,1.524-2.064,1.524-2.064-.612-2.064-1.524S162.9,10.172,164.112,10.172Zm-1.524-2.16c0-.744.588-1.212,1.524-1.212s1.524.468,1.524,1.212a1.549,1.549,0,0,1-3.048,0Zm6.072,5.364a.72.72,0,1,0,.72-.72A.722.722,0,0,0,168.66,13.376Z" transform="translate(18606 2170)"/>
    <g id="Group_1345" data-name="Group 1345" transform="translate(11900 2072)">
      <path id="Path_490" data-name="Path 490" class="cls-3" d="M12,0A12,12,0,1,1,0,12,12,12,0,0,1,12,0Z" transform="translate(6667 69)"/>
      <g id="bank" transform="translate(7019.946 357.258)">
        <g id="Group_500" data-name="Group 500" transform="translate(-347.946 -283.258)">
          <g id="Group_499" data-name="Group 499" transform="translate(0 0)">
            <path id="Path_365" data-name="Path 365" class="cls-1" d="M14.027,6.046,9.333,3.026a.2.2,0,1,0-.218.339L13.74,6.341H12.662L7.4,2.953a.547.547,0,0,0-.59,0L1.54,6.341H.462L7.1,2.069l.94.6a.2.2,0,1,0,.218-.339l-.94-.6a.4.4,0,0,0-.436,0L.175,6.046a.379.379,0,0,0,.205.7H1.4v1.3a.335.335,0,0,0,.265.327v.355A.334.334,0,0,0,2,9.065h.028v2.472a.2.2,0,0,0,.4,0V8.863a.2.2,0,0,0-.2-.2h-.16V8.383H3.5v.278h-.16a.2.2,0,0,0-.2.2V13.32a.2.2,0,0,0,.2.2H3.5v.3H2.066v-.3h.16a.2.2,0,0,0,.2-.2V12.8a.2.2,0,0,0-.4,0v.314H2a.334.334,0,0,0-.334.334v.355a.335.335,0,0,0-.265.327v.407H.683a.4.4,0,0,0-.4.4v.424a.4.4,0,0,0,.4.4H13.519a.4.4,0,0,0,.4-.4v-.424a.4.4,0,0,0-.4-.4H12.8v-.407a.335.335,0,0,0-.265-.327v-.355a.334.334,0,0,0-.334-.334h-.028V9.065h.028a.334.334,0,0,0,.334-.334V8.376a.335.335,0,0,0,.265-.327v-1.3h1.017a.379.379,0,0,0,.205-.7Zm-7-2.753a.142.142,0,0,1,.154,0l4.738,3.049H2.286ZM1.8,6.745H12.4v.494H1.8Zm6.418,7.063v-.355a.334.334,0,0,0-.334-.334H7.857V9.065h.028a.334.334,0,0,0,.334-.334V8.376a.335.335,0,0,0,.265-.327V7.642h1.554v.407a.335.335,0,0,0,.265.327v.355a.334.334,0,0,0,.334.334h.028v4.054h-.028a.334.334,0,0,0-.334.334v.355a.335.335,0,0,0-.265.327v.407H8.484v-.407A.335.335,0,0,0,8.219,13.808Zm-4.32,0v-.355a.334.334,0,0,0-.334-.334H3.537V9.065h.028A.334.334,0,0,0,3.9,8.731V8.376a.335.335,0,0,0,.265-.327V7.642H5.718v.407a.335.335,0,0,0,.265.327v.355a.334.334,0,0,0,.334.334h.028v4.054H6.317a.334.334,0,0,0-.334.334v.355a.335.335,0,0,0-.265.327v.407H4.164v-.407A.335.335,0,0,0,3.9,13.808Zm3.757-.286h.16v.3H6.387v-.3h.16a.2.2,0,0,0,.2-.2V8.863a.2.2,0,0,0-.2-.2h-.16V8.383H7.815v.278h-.16a.2.2,0,0,0-.2.2V13.32A.2.2,0,0,0,7.655,13.522ZM6.185,7.98H6.121V7.642H8.08V7.98h-1.9Zm-.063,6.239a.2.2,0,0,0,.062.01H8.016a.2.2,0,0,0,.064-.011v.324H6.121ZM1.865,7.98H1.8V7.642H3.76V7.98h-1.9ZM1.8,14.218a.2.2,0,0,0,.063.01H3.7a.2.2,0,0,0,.063-.01v.324H1.8v-.324Zm11.719.728v.425H.682v-.425Zm-1.183-.718a.2.2,0,0,0,.064-.011v.324H10.442v-.324a.2.2,0,0,0,.063.01Zm-1.47-5.567h-.16V8.383h1.429v.278h-.16a.2.2,0,0,0-.2.2V13.32a.2.2,0,0,0,.2.2h.16v.3H10.707v-.3h.16a.2.2,0,0,0,.2-.2V8.863A.2.2,0,0,0,10.867,8.662ZM12.4,7.98H10.442V7.642H12.4V7.98Z" transform="translate(0 -1.666)"/>
          </g>
        </g>
      </g>
    </g>
  </g>
</svg>
