<svg xmlns="http://www.w3.org/2000/svg" viewBox="0 0 63.932 47.944">
  <defs>
    <style>
      .cls-1 {
        fill: #8c1313;
      }

      .cls-2 {
        fill: #fff;
      }

      .cls-3 {
        fill: #c4c4c4;
        fill-rule: evenodd;
      }
    </style>
  </defs>
  <g id="Group_1359" data-name="Group 1359" transform="translate(-18786 -2215.346)">
    <rect id="Rectangle_1350" data-name="Rectangle 1350" class="cls-1" width="54.03" height="37.29" rx="12" transform="translate(18786 2226)"/>
    <path id="Path_946" data-name="Path 946" class="cls-2" d="M8.772-4a4,4,0,0,0-4.056-4.14A4,4,0,0,0,.66-4,4,4,0,0,0,4.716.144,4,4,0,0,0,8.772-4ZM7.62-4a2.886,2.886,0,0,1-2.9,3.1A2.886,2.886,0,0,1,1.812-4a2.886,2.886,0,0,1,2.9-3.1A2.886,2.886,0,0,1,7.62-4ZM11.46-.468V-1.932l.7-.564L14-.12A.459.459,0,0,0,14.388.1a.5.5,0,0,0,.54-.516.512.512,0,0,0-.12-.324L12.96-3.12l1.62-1.26a.55.55,0,0,0,.264-.432.493.493,0,0,0-.516-.492.557.557,0,0,0-.348.12L11.46-3.216V-7.524a.549.549,0,0,0-.564-.564.549.549,0,0,0-.564.564V-.468A.549.549,0,0,0,10.9.1.549.549,0,0,0,11.46-.468Zm4.788-.156a.722.722,0,0,0,.72.72.722.722,0,0,0,.72-.72.722.722,0,0,0-.72-.72A.722.722,0,0,0,16.248-.624Z" transform="translate(18803 2248)"/>
    <g id="chat" transform="translate(18769.932 2215.346)">
      <g id="Group-5" transform="translate(58 0)">
        <ellipse id="Oval" class="cls-2" cx="11" cy="11.015" rx="11" ry="11.015" transform="translate(0 0)"/>
        <g id="user-copy" transform="translate(0)">
          <path id="Fill-3" class="cls-3" d="M11.188,0A11.057,11.057,0,0,0,3.922,19.5a3.135,3.135,0,0,1,.52-.373l3.284-1.8a1.347,1.347,0,0,0,.7-1.183V14.8a7.358,7.358,0,0,1-1.329-2.768,1.1,1.1,0,0,1-.509-.929V9.622A1.11,1.11,0,0,1,6.952,8.8V6.664S6.516,3.336,11,3.336s4.048,3.328,4.048,3.328V8.8a1.108,1.108,0,0,1,.367.819V11.1a1.11,1.11,0,0,1-.783,1.055A8.173,8.173,0,0,1,13.54,14.37c-.122.171-.233.315-.333.43v1.385a1.348,1.348,0,0,0,.74,1.206l3.517,1.766a2.869,2.869,0,0,1,.576.387A11.063,11.063,0,0,0,11.188,0Z" transform="translate(0 0)"/>
        </g>
      </g>
    </g>
  </g>
</svg>
