<?xml version="1.0" standalone="no"?>
<!DOCTYPE svg PUBLIC "-//W3C//DTD SVG 1.1//EN" "http://www.w3.org/Graphics/SVG/1.1/DTD/svg11.dtd" >
<svg xmlns="http://www.w3.org/2000/svg" xmlns:xlink="http://www.w3.org/1999/xlink" version="1.1">
<metadata>
Created by FontForge 20160405 at Tue Jul 17 02:39:00 2018
 By www-data
Copyright (c) 2008 by Process Type Foundry. All rights reserved.
</metadata>
<defs>
<font id="BryantPro-Regular" horiz-adv-x="650" >
  <font-face 
    font-family="Bryant Pro Regular"
    font-weight="400"
    font-stretch="normal"
    units-per-em="1000"
    panose-1="2 11 5 3 4 0 0 2 0 3"
    ascent="750"
    descent="-250"
    x-height="434"
    cap-height="674"
    bbox="-45 -281 1186 926"
    underline-thickness="20"
    underline-position="-133"
    stemh="52"
    stemv="60"
    unicode-range="U+0020-FB02"
  />
<missing-glyph horiz-adv-x="686" 
d="M110 0v666h466v-666h-466zM527 616h-340l340 -527v527zM159 576v-527h339z" />
    <glyph glyph-name="fi" unicode="fi" horiz-adv-x="538" 
d="M459 22c0 -17 -13 -30 -30 -30s-30 13 -30 30v390c0 17 13 30 30 30s30 -13 30 -30v-390zM392 558c0 20 17 37 37 37s37 -17 37 -37s-17 -37 -37 -37s-37 17 -37 37zM167 434h114c13 0 25 -11 25 -25s-12 -25 -25 -25h-114v-362c0 -17 -13 -30 -30 -30s-30 13 -30 30v362
h-70c-14 0 -25 11 -25 25s11 25 25 25h70v62c0 109 47 170 160 170h21c14 0 25 -11 25 -25s-11 -25 -25 -25h-18c-69 0 -103 -30 -103 -119v-63z" />
    <glyph glyph-name="fl" unicode="fl" horiz-adv-x="541" 
d="M461 22c0 -17 -13 -30 -30 -30s-30 13 -30 30v622c0 17 13 30 30 30s30 -13 30 -30v-622zM167 434h114c13 0 25 -11 25 -25s-12 -25 -25 -25h-114v-362c0 -17 -13 -30 -30 -30s-30 13 -30 30v362h-70c-14 0 -25 11 -25 25s11 25 25 25h70v62c0 109 47 170 160 170h21
c14 0 25 -11 25 -25s-11 -25 -25 -25h-18c-69 0 -103 -30 -103 -119v-63z" />
    <glyph glyph-name=".notdef" horiz-adv-x="686" 
d="M110 0v666h466v-666h-466zM527 616h-340l340 -527v527zM159 576v-527h339z" />
    <glyph glyph-name="space" unicode=" " horiz-adv-x="300" 
 />
    <glyph glyph-name="exclam" unicode="!" horiz-adv-x="280" 
d="M170 369l-14 -195c-1 -11 -7 -18 -16 -18s-15 7 -16 18l-14 195v275c0 16 12 30 30 30s30 -14 30 -30v-275zM98 36c0 23 19 42 42 42s42 -19 42 -42s-19 -42 -42 -42s-42 19 -42 42z" />
    <glyph glyph-name="quotedbl" unicode="&#x22;" horiz-adv-x="382" 
d="M129 458c0 -14 -10 -27 -27 -27s-27 13 -27 27v189c0 14 10 27 27 27s27 -13 27 -27v-189zM307 458c0 -14 -10 -27 -27 -27s-27 13 -27 27v189c0 14 10 27 27 27s27 -13 27 -27v-189z" />
    <glyph glyph-name="numbersign" unicode="#" horiz-adv-x="716" 
d="M664 459c0 -13 -10 -25 -25 -25h-97l-21 -193h95c13 0 22 -9 22 -22s-10 -25 -25 -25h-97l-20 -176c-2 -15 -9 -26 -27 -26c-20 0 -25 15 -23 30l19 172h-239l-21 -177c-2 -14 -10 -25 -27 -25s-24 13 -23 26l20 176h-92c-13 0 -23 10 -23 22c0 16 11 25 25 25h96l21 193
h-95c-12 0 -22 10 -22 22c0 14 9 25 27 25h95l19 168c2 16 11 25 27 25c14 0 25 -9 23 -29l-19 -164h239l19 168c2 16 12 25 28 25s25 -11 23 -27l-19 -166h94c12 0 23 -8 23 -22zM492 434h-239l-22 -193h239z" />
    <glyph glyph-name="dollar" unicode="$" horiz-adv-x="611" 
d="M541 175c0 -91 -74 -156 -202 -167v-90c0 -13 -10 -26 -28 -26s-28 13 -28 26v91c-75 6 -144 34 -194 74c-9 8 -14 15 -14 24c0 14 11 24 25 24c9 0 17 -4 24 -9c48 -34 98 -63 191 -63c101 0 167 44 167 116c0 74 -84 105 -181 139c-160 56 -217 107 -217 186
c0 95 79 152 206 157v91c0 13 10 26 28 26s28 -13 28 -26v-92c55 -5 113 -24 161 -55c9 -6 14 -12 14 -21c0 -12 -9 -26 -27 -26c-5 0 -11 2 -16 5c-59 33 -117 48 -166 48c-111 0 -169 -37 -169 -106c0 -66 52 -90 163 -132c158 -59 235 -93 235 -194z" />
    <glyph glyph-name="percent" unicode="%" horiz-adv-x="847" 
d="M785 147c0 -89 -69 -159 -160 -159s-160 70 -160 159c0 88 69 159 160 159s160 -71 160 -159zM643 651c0 -6 -2 -11 -5 -16l-389 -634c-4 -7 -11 -13 -21 -13c-16 0 -24 12 -24 24c0 6 3 12 9 22l384 628c5 9 13 13 22 13c13 0 24 -9 24 -24zM734 147
c0 63 -43 114 -109 114s-109 -51 -109 -114s43 -114 109 -114s109 51 109 114zM380 519c0 -89 -69 -159 -160 -159s-160 70 -160 159c0 88 69 159 160 159s160 -71 160 -159zM329 519c0 63 -43 114 -109 114s-109 -51 -109 -114s43 -114 109 -114s109 51 109 114z" />
    <glyph glyph-name="ampersand" unicode="&#x26;" horiz-adv-x="716" 
d="M696 34c0 -7 -3 -12 -7 -16c-19 -20 -59 -30 -86 -30c-67 0 -92 27 -131 79c-48 -48 -123 -79 -200 -79c-136 0 -202 79 -202 171c0 113 83 174 187 225c-45 58 -74 109 -74 166c0 73 52 128 143 128c85 0 137 -56 137 -129c0 -72 -57 -136 -134 -180
c69 -105 150 -223 150 -223c33 44 49 85 68 128c4 9 11 15 22 15c17 0 27 -11 27 -25c0 -3 -1 -6 -2 -9c-20 -48 -43 -95 -85 -151c30 -41 50 -71 94 -71c28 0 43 8 62 19c3 2 7 3 11 3c12 0 20 -10 20 -21zM409 546c0 48 -29 86 -85 86c-50 0 -85 -25 -85 -83
c0 -45 29 -96 65 -142c57 28 105 85 105 139zM443 108c-56 82 -107 155 -161 236c-87 -49 -154 -92 -154 -183c0 -74 50 -126 147 -126c63 0 123 27 168 73z" />
    <glyph glyph-name="quotesingle" unicode="'" horiz-adv-x="204" 
d="M129 458c0 -14 -10 -27 -27 -27s-27 13 -27 27v189c0 14 10 27 27 27s27 -13 27 -27v-189z" />
    <glyph glyph-name="parenleft" unicode="(" horiz-adv-x="315" 
d="M220 698c5 7 11 12 22 12c17 0 28 -13 28 -26c0 -6 -2 -11 -5 -16c-77 -134 -115 -250 -115 -398s38 -264 115 -398c3 -5 5 -10 5 -16c0 -13 -11 -26 -28 -26c-11 0 -17 5 -22 12c-95 154 -130 288 -130 428s35 274 130 428z" />
    <glyph glyph-name="parenright" unicode=")" horiz-adv-x="315" 
d="M95 698c95 -154 130 -288 130 -428s-35 -274 -130 -428c-5 -7 -11 -12 -22 -12c-17 0 -28 13 -28 26c0 6 2 11 5 16c77 134 115 250 115 398s-38 264 -115 398c-3 5 -5 10 -5 16c0 13 11 26 28 26c11 0 17 -5 22 -12z" />
    <glyph glyph-name="asterisk" unicode="*" horiz-adv-x="410" 
d="M205 566l58 100c4 6 8 8 15 8c10 0 18 -7 18 -16c0 -5 -1 -7 -3 -11l-58 -96h113c10 0 17 -7 17 -17s-7 -17 -17 -17h-113l58 -95c3 -5 4 -8 4 -12c0 -10 -9 -16 -19 -16c-7 0 -12 4 -16 11l-57 98l-57 -98c-4 -7 -9 -11 -16 -11c-10 0 -19 6 -19 16c0 4 1 7 4 12l58 95
h-113c-10 0 -17 7 -17 17s7 17 17 17h113l-58 96c-2 4 -3 6 -3 11c0 9 8 16 18 16c7 0 11 -2 15 -8z" />
    <glyph glyph-name="plus" unicode="+" horiz-adv-x="560" 
d="M84 350h167v169c0 16 13 29 29 29s29 -13 29 -29v-169h167c16 0 29 -11 29 -27s-13 -27 -29 -27h-167v-169c0 -16 -13 -29 -29 -29s-29 13 -29 29v169h-167c-16 0 -29 11 -29 27s13 27 29 27z" />
    <glyph glyph-name="comma" unicode="," horiz-adv-x="206" 
d="M131 25c0 -59 -7 -106 -27 -160c-5 -14 -12 -27 -31 -27c-16 0 -26 10 -26 24c0 8 3 14 5 20c19 56 25 94 25 143v43c0 16 10 28 27 28s27 -12 27 -28v-43z" />
    <glyph glyph-name="hyphen" unicode="-" horiz-adv-x="438" 
d="M96 223c-14 0 -26 9 -26 25s12 25 26 25h246c14 0 26 -9 26 -25s-12 -25 -26 -25h-246z" />
    <glyph glyph-name="period" unicode="." horiz-adv-x="234" 
d="M75 36c0 23 19 42 42 42s42 -19 42 -42s-19 -42 -42 -42s-42 19 -42 42z" />
    <glyph glyph-name="slash" unicode="/" horiz-adv-x="450" 
d="M385 699c0 -4 -1 -9 -2 -12l-265 -774c-5 -13 -13 -20 -27 -20c-18 0 -26 12 -26 24c0 4 1 8 2 12l266 777c4 12 12 19 27 19c12 0 25 -9 25 -26z" />
    <glyph glyph-name="zero" unicode="0" horiz-adv-x="684" 
d="M624 333c0 -187 -109 -345 -282 -345s-282 158 -282 345s109 345 282 345s282 -158 282 -345zM564 333c0 159 -81 291 -222 291s-222 -132 -222 -291s81 -291 222 -291s222 132 222 291z" />
    <glyph glyph-name="one" unicode="1" horiz-adv-x="364" 
d="M264 22c0 -16 -12 -30 -30 -30s-30 14 -30 30v586l-137 -42c-4 -1 -8 -2 -11 -2c-14 0 -28 11 -28 27s10 24 23 28l164 51c7 2 15 4 20 4c18 0 29 -12 29 -31v-621z" />
    <glyph glyph-name="two" unicode="2" horiz-adv-x="627" 
d="M562 26c0 -14 -12 -26 -26 -26h-442c-15 0 -27 13 -27 27c0 173 82 228 217 293c157 75 212 111 212 189c0 76 -64 116 -174 116c-77 0 -141 -20 -199 -64c-4 -3 -9 -6 -16 -6c-15 0 -26 11 -26 25c0 16 13 27 37 42c59 38 133 56 208 56c140 0 230 -63 230 -170
c0 -84 -50 -142 -219 -221c-146 -68 -208 -117 -208 -235h407c15 0 26 -11 26 -26z" />
    <glyph glyph-name="three" unicode="3" horiz-adv-x="627" 
d="M562 187c0 -120 -109 -199 -254 -199c-109 0 -180 33 -241 84c-7 6 -12 13 -12 23c0 17 14 25 28 25c6 0 12 -2 18 -7c54 -44 117 -75 207 -75c110 0 194 55 194 151c0 84 -65 146 -195 146h-72c-15 0 -26 13 -26 26c0 14 11 26 26 26h65c99 0 158 53 158 123
c0 78 -56 117 -149 117c-52 0 -95 -14 -135 -34c-9 -5 -17 -9 -27 -9c-16 0 -25 11 -25 23c0 16 12 25 26 32c52 28 112 39 165 39c124 0 205 -63 205 -164c0 -59 -30 -112 -114 -148c88 -15 158 -78 158 -179z" />
    <glyph glyph-name="four" unicode="4" horiz-adv-x="637" 
d="M614 213c0 -15 -12 -25 -26 -25h-110v-166c0 -17 -11 -30 -29 -30s-29 13 -29 30v166h-364c-17 0 -26 10 -26 25c0 6 3 13 9 19l385 429c8 9 17 13 27 13c19 0 27 -15 27 -32v-404h110c14 0 26 -10 26 -25zM420 238v343l-308 -343h308z" />
    <glyph glyph-name="five" unicode="5" horiz-adv-x="634" 
d="M572 206c0 -121 -95 -219 -254 -219c-102 0 -183 31 -242 86c-6 6 -11 12 -11 21c0 16 13 26 28 26c7 0 13 -3 18 -7c61 -52 122 -74 207 -74c123 0 194 71 194 165c0 103 -75 162 -181 162c-69 0 -124 -18 -181 -66c-6 -5 -14 -8 -23 -8c-21 0 -29 16 -27 30l51 319
c3 16 14 25 30 25h309c15 0 27 -11 27 -26c0 -14 -11 -26 -27 -26h-287l-41 -250c41 35 104 53 171 53c140 0 239 -78 239 -211z" />
    <glyph glyph-name="six" unicode="6" horiz-adv-x="629" 
d="M576 204c0 -117 -88 -216 -250 -216c-169 0 -256 91 -256 234c0 192 115 361 292 438c19 8 41 18 62 18c15 0 25 -8 25 -20c0 -15 -10 -20 -30 -28c-179 -72 -254 -186 -297 -339c42 79 124 119 220 119c143 0 234 -89 234 -206zM518 203c0 94 -65 158 -183 158
c-106 0 -203 -66 -203 -161s58 -163 196 -163c112 0 190 68 190 166z" />
    <glyph glyph-name="seven" unicode="7" horiz-adv-x="555" 
d="M525 641c0 -7 -3 -13 -7 -18c-143 -184 -231 -349 -231 -601c0 -17 -11 -30 -30 -30s-30 13 -30 30c0 250 90 430 220 592h-385c-15 0 -27 11 -27 26c0 14 12 26 27 26h432c20 0 31 -9 31 -25z" />
    <glyph glyph-name="eight" unicode="8" horiz-adv-x="652" 
d="M113 513c0 102 92 165 213 165s213 -63 213 -165c0 -66 -42 -114 -113 -146c90 -24 160 -85 160 -182c0 -113 -97 -197 -260 -197s-260 84 -260 197c0 97 70 158 160 182c-71 32 -113 80 -113 146zM326 338c-107 0 -201 -53 -201 -152c0 -91 76 -149 201 -149
s201 58 201 149c0 99 -94 152 -201 152zM326 386c90 0 156 53 156 124c0 75 -62 120 -156 120s-156 -45 -156 -120c0 -71 66 -124 156 -124z" />
    <glyph glyph-name="nine" unicode="9" horiz-adv-x="628" 
d="M57 462c0 117 90 216 250 216c169 0 256 -91 256 -234c0 -192 -115 -361 -292 -438c-19 -8 -41 -18 -62 -18c-15 0 -25 8 -25 20c0 15 10 20 30 28c179 72 254 186 297 339c-42 -79 -124 -119 -220 -119c-149 0 -234 89 -234 206zM115 463c0 -94 65 -158 183 -158
c106 0 203 66 203 161s-58 163 -196 163c-112 0 -190 -68 -190 -166z" />
    <glyph glyph-name="colon" unicode=":" horiz-adv-x="234" 
d="M75 36c0 23 19 42 42 42s42 -19 42 -42s-19 -42 -42 -42s-42 19 -42 42zM75 332c0 23 19 42 42 42s42 -19 42 -42s-19 -42 -42 -42s-42 19 -42 42z" />
    <glyph glyph-name="semicolon" unicode=";" horiz-adv-x="229" 
d="M140 25c0 -59 -8 -106 -28 -160c-5 -14 -11 -27 -31 -27c-16 0 -26 10 -26 24c0 7 3 15 5 20c21 53 24 94 24 143v42c0 16 11 29 28 29s28 -13 28 -29v-42zM70 332c0 23 19 42 42 42s42 -19 42 -42s-19 -42 -42 -42s-42 19 -42 42z" />
    <glyph glyph-name="less" unicode="&#x3c;" horiz-adv-x="540" 
d="M470 527c0 -12 -6 -19 -16 -24l-332 -180l332 -180c10 -5 16 -12 16 -24c0 -13 -10 -25 -26 -25c-6 0 -11 1 -16 4l-362 202c-10 6 -16 12 -16 23s6 17 16 23l362 202c5 3 10 4 16 4c16 0 26 -12 26 -25z" />
    <glyph glyph-name="equal" unicode="=" horiz-adv-x="550" 
d="M437 433c14 0 28 -10 28 -26s-14 -26 -28 -26h-324c-14 0 -28 10 -28 26s14 26 28 26h324zM437 259c14 0 28 -10 28 -26s-14 -26 -28 -26h-324c-14 0 -28 10 -28 26s14 26 28 26h324z" />
    <glyph glyph-name="greater" unicode="&#x3e;" horiz-adv-x="540" 
d="M70 527c0 13 10 25 26 25c6 0 11 -1 16 -4l362 -202c10 -6 16 -12 16 -23s-6 -17 -16 -23l-362 -202c-5 -3 -10 -4 -16 -4c-16 0 -26 12 -26 25c0 12 6 19 16 24l332 180l-332 180c-10 5 -16 12 -16 24z" />
    <glyph glyph-name="question" unicode="?" horiz-adv-x="492" 
d="M447 529c0 -50 -27 -100 -100 -160c-80 -65 -92 -79 -92 -155v-41c0 -16 -13 -28 -31 -28c-17 0 -29 13 -29 28v40c0 102 29 124 98 181c68 57 94 89 94 135c0 69 -57 95 -137 95c-58 0 -103 -14 -155 -45c-5 -3 -11 -6 -18 -6c-14 0 -27 11 -27 26c0 13 8 19 22 28
c51 33 113 51 182 51c112 0 193 -54 193 -149zM183 36c0 23 19 42 42 42s42 -19 42 -42s-19 -42 -42 -42s-42 19 -42 42z" />
    <glyph glyph-name="at" unicode="@" horiz-adv-x="756" 
d="M716 66c0 -11 -5 -16 -14 -20c-78 -40 -169 -58 -255 -58c-251 0 -389 157 -389 352c0 192 122 338 327 338c149 0 224 -79 224 -212v-264c0 -14 -9 -25 -25 -25s-25 11 -25 25v38c-22 -35 -64 -67 -126 -67c-97 0 -167 74 -167 171s70 171 167 171c62 0 104 -32 126 -67
v28c0 105 -60 158 -175 158c-175 0 -276 -128 -276 -294c0 -169 116 -308 339 -308c78 0 151 15 239 51c2 1 6 2 11 2c13 0 19 -11 19 -19zM435 217c71 0 123 51 123 127s-52 127 -123 127s-118 -54 -118 -127s47 -127 118 -127z" />
    <glyph glyph-name="A" unicode="A" horiz-adv-x="716" 
d="M386 654l278 -621c2 -4 4 -9 4 -14c0 -15 -11 -27 -29 -27c-15 0 -23 9 -27 19l-82 183h-344l-82 -183c-4 -10 -12 -19 -27 -19c-18 0 -29 12 -29 27c0 5 2 10 4 14l278 621c6 13 14 20 28 20s22 -7 28 -20zM209 247h298l-149 343z" />
    <glyph glyph-name="B" unicode="B" horiz-adv-x="647" 
d="M602 183c0 -94 -75 -183 -226 -183h-251c-17 0 -30 14 -30 30v606c0 17 11 30 30 30h227c114 0 197 -63 197 -164c0 -68 -29 -114 -103 -144c85 -14 156 -72 156 -175zM489 496c0 77 -53 118 -136 118h-198v-237h203c84 0 131 56 131 119zM377 325h-222v-273h225
c108 0 162 61 162 137c0 86 -63 136 -165 136z" />
    <glyph glyph-name="C" unicode="C" horiz-adv-x="705" 
d="M391 678c119 0 202 -55 256 -126c4 -6 8 -12 8 -20c0 -16 -12 -27 -28 -27c-9 0 -15 3 -21 11c-50 63 -110 107 -215 107c-173 0 -273 -138 -273 -290s100 -290 273 -290c105 0 165 44 215 107c6 8 12 11 21 11c16 0 28 -11 28 -27c0 -8 -4 -14 -8 -20
c-54 -71 -137 -126 -256 -126c-202 0 -333 155 -333 345s131 345 333 345z" />
    <glyph glyph-name="D" unicode="D" horiz-adv-x="692" 
d="M647 333c0 -186 -130 -333 -332 -333h-190c-18 0 -30 14 -30 30v606c0 17 13 30 30 30h190c202 0 332 -147 332 -333zM587 333c0 157 -102 279 -276 279h-156v-558h156c174 0 276 122 276 279z" />
    <glyph glyph-name="E" unicode="E" horiz-adv-x="583" 
d="M155 317v-263h356c15 0 27 -12 27 -27s-12 -27 -27 -27h-386c-17 0 -30 13 -30 30v606c0 17 13 30 30 30h385c15 0 27 -12 27 -27s-12 -27 -27 -27h-355v-241h206c15 0 27 -12 27 -27s-12 -27 -27 -27h-206z" />
    <glyph glyph-name="F" unicode="F" horiz-adv-x="557" 
d="M155 22c0 -17 -13 -30 -30 -30s-30 13 -30 30v614c0 17 13 30 30 30h385c15 0 27 -12 27 -27s-12 -27 -27 -27h-355v-241h206c15 0 27 -12 27 -27s-12 -27 -27 -27h-206v-295z" />
    <glyph glyph-name="G" unicode="G" horiz-adv-x="731" 
d="M669 123c0 -10 -3 -17 -8 -23c-54 -61 -150 -112 -270 -112c-224 0 -333 173 -333 345c0 194 138 345 333 345c91 0 174 -34 230 -93c5 -6 8 -13 8 -21c0 -15 -11 -26 -27 -26c-8 0 -15 2 -21 8c-51 49 -112 77 -190 77c-165 0 -273 -133 -273 -290
c0 -156 93 -294 275 -294c87 0 166 33 218 85v148h-191c-14 0 -26 11 -26 26s12 26 26 26h220c16 0 29 -11 29 -28v-173z" />
    <glyph glyph-name="H" unicode="H" horiz-adv-x="715" 
d="M95 22v622c0 17 13 30 30 30s30 -13 30 -30v-277h405v277c0 17 13 30 30 30s30 -13 30 -30v-622c0 -17 -13 -30 -30 -30s-30 13 -30 30v290h-405v-290c0 -17 -13 -30 -30 -30s-30 13 -30 30z" />
    <glyph glyph-name="I" unicode="I" horiz-adv-x="260" 
d="M160 22c0 -17 -13 -30 -30 -30s-30 13 -30 30v622c0 17 13 30 30 30s30 -13 30 -30v-622z" />
    <glyph glyph-name="J" unicode="J" horiz-adv-x="591" 
d="M263 41c119 0 178 79 178 207v396c0 17 13 30 30 30s30 -13 30 -30v-394c0 -149 -74 -262 -237 -262c-128 0 -201 75 -227 181c-1 4 -2 11 -2 14c0 19 12 29 29 29c16 0 24 -9 27 -24c21 -92 72 -147 172 -147z" />
    <glyph glyph-name="K" unicode="K" horiz-adv-x="661" 
d="M155 285l387 381c6 6 12 8 20 8c18 0 29 -13 29 -26c0 -10 -2 -15 -9 -22l-220 -216l238 -373c4 -7 6 -11 6 -18c0 -14 -11 -27 -29 -27c-14 0 -20 6 -25 14l-232 364l-165 -162v-186c0 -17 -13 -30 -30 -30s-30 13 -30 30v622c0 17 13 30 30 30s30 -13 30 -30v-359z" />
    <glyph glyph-name="L" unicode="L" horiz-adv-x="575" 
d="M155 54h358c15 0 27 -12 27 -27s-12 -27 -27 -27h-388c-17 0 -30 13 -30 30v614c0 17 13 30 30 30s30 -13 30 -30v-590z" />
    <glyph glyph-name="M" unicode="M" horiz-adv-x="846" 
d="M423 76l271 579c6 12 13 19 28 19c17 0 29 -12 29 -29v-624c0 -16 -11 -29 -29 -29c-16 0 -28 13 -28 29v510l-243 -521c-5 -11 -13 -18 -28 -18s-23 7 -28 18l-243 521v-510c0 -16 -12 -29 -28 -29c-18 0 -29 13 -29 29v624c0 17 12 29 29 29c15 0 22 -7 28 -19z" />
    <glyph glyph-name="N" unicode="N" horiz-adv-x="723" 
d="M628 20c0 -15 -10 -28 -29 -28c-11 0 -17 5 -23 13l-424 559v-544c0 -15 -12 -28 -28 -28c-17 0 -29 13 -29 28v625c0 17 12 29 30 29c10 0 18 -6 23 -13l423 -560v544c0 17 12 29 29 29s28 -13 28 -29v-625z" />
    <glyph glyph-name="O" unicode="O" horiz-adv-x="774" 
d="M722 333c0 -186 -134 -345 -334 -345s-336 159 -336 345s136 345 336 345s334 -159 334 -345zM662 333c0 153 -102 292 -274 292s-276 -139 -276 -292s104 -292 276 -292s274 139 274 292z" />
    <glyph glyph-name="P" unicode="P" horiz-adv-x="627" 
d="M597 479c0 -106 -73 -187 -205 -187h-237v-270c0 -17 -12 -30 -30 -30c-17 0 -30 13 -30 30v614c0 17 14 30 30 30h267c132 0 205 -81 205 -187zM537 479c0 76 -50 133 -133 133h-249v-266h249c83 0 133 57 133 133z" />
    <glyph glyph-name="Q" unicode="Q" horiz-adv-x="774" 
d="M655 -74c2 -4 4 -8 4 -13c0 -15 -12 -25 -27 -25c-12 0 -18 6 -23 14l-71 120c-44 -22 -95 -34 -150 -34c-200 0 -336 159 -336 345s136 345 336 345s334 -159 334 -345c0 -116 -52 -221 -139 -284zM662 333c0 153 -102 292 -274 292s-276 -139 -276 -292
s104 -292 276 -292c46 0 87 10 123 27l-56 96c-3 6 -6 10 -6 17c0 16 13 25 27 25c9 0 17 -4 22 -13l57 -97c69 55 107 143 107 237z" />
    <glyph glyph-name="R" unicode="R" horiz-adv-x="685" 
d="M617 481c0 -91 -53 -162 -151 -180l130 -266c2 -4 4 -9 4 -14c0 -15 -12 -29 -29 -29c-15 0 -22 6 -28 17l-141 287h-247v-274c0 -17 -12 -30 -30 -30c-17 0 -30 13 -30 30v614c0 17 14 30 30 30h287c132 0 205 -79 205 -185zM557 481c0 76 -50 131 -133 131h-269v-262
h269c83 0 133 55 133 131z" />
    <glyph glyph-name="S" unicode="S" horiz-adv-x="634" 
d="M579 165c0 -107 -94 -177 -248 -177c-99 0 -190 35 -252 83c-9 8 -14 16 -14 25c0 14 11 24 25 24c9 0 17 -4 24 -9c50 -35 121 -71 216 -71c120 0 189 49 189 123c0 77 -75 110 -192 145c-198 60 -248 122 -248 200c0 116 115 170 248 170c79 0 152 -21 215 -64
c9 -6 14 -12 14 -21c0 -12 -9 -26 -27 -26c-5 0 -11 2 -16 5c-62 38 -127 54 -187 54c-104 0 -187 -35 -187 -118c0 -68 55 -102 189 -146c157 -52 251 -86 251 -197z" />
    <glyph glyph-name="T" unicode="T" horiz-adv-x="582" 
d="M321 22c0 -17 -13 -30 -30 -30s-30 13 -30 30v590h-216c-15 0 -27 12 -27 27s12 27 27 27h492c15 0 27 -12 27 -27s-12 -27 -27 -27h-216v-590z" />
    <glyph glyph-name="U" unicode="U" horiz-adv-x="738" 
d="M369 -12c-174 0 -281 107 -281 274v382c0 17 13 30 30 30s30 -13 30 -30v-386c0 -130 67 -217 221 -217s221 87 221 217v386c0 17 13 30 30 30s30 -13 30 -30v-382c0 -167 -107 -274 -281 -274z" />
    <glyph glyph-name="V" unicode="V" horiz-adv-x="610" 
d="M305 -8c-15 0 -22 8 -27 19l-265 623c-2 5 -3 10 -3 14c0 15 13 26 28 26c11 0 20 -5 25 -16l242 -570l242 570c5 11 14 16 25 16c15 0 28 -11 28 -26c0 -4 -1 -9 -3 -14l-265 -623c-5 -11 -12 -19 -27 -19z" />
    <glyph glyph-name="W" unicode="W" horiz-adv-x="944" 
d="M499 653l188 -552l183 552c4 13 11 21 26 21s28 -10 28 -27c0 -3 -1 -8 -2 -12l-208 -624c-4 -11 -11 -19 -27 -19c-15 0 -23 7 -27 19l-188 554l-188 -554c-4 -12 -12 -19 -27 -19c-16 0 -23 8 -27 19l-208 624c-1 4 -2 9 -2 12c0 17 13 27 28 27s22 -8 26 -21l183 -552
l188 552c4 13 13 21 27 21s23 -8 27 -21z" />
    <glyph glyph-name="X" unicode="X" horiz-adv-x="640" 
d="M540 3l-220 285l-220 -285c-5 -6 -12 -11 -25 -11c-14 0 -25 9 -25 25c0 6 2 12 6 18l231 300l-228 296c-4 6 -6 11 -6 17c0 15 12 26 27 26c12 0 17 -4 23 -11l217 -281l217 281c6 7 11 11 23 11c15 0 27 -11 27 -26c0 -6 -2 -11 -6 -17l-228 -296l231 -300
c4 -6 6 -12 6 -18c0 -16 -11 -25 -25 -25c-13 0 -20 5 -25 11z" />
    <glyph glyph-name="Y" unicode="Y" horiz-adv-x="552" 
d="M541 630l-235 -338v-270c0 -17 -13 -30 -30 -30s-30 13 -30 30v270l-235 338c-4 6 -6 12 -6 17c0 17 12 27 27 27c10 0 19 -4 26 -14l218 -312l218 312c7 10 16 14 26 14c15 0 27 -10 27 -27c0 -5 -2 -11 -6 -17z" />
    <glyph glyph-name="Z" unicode="Z" horiz-adv-x="637" 
d="M575 26c0 -15 -12 -26 -27 -26h-439c-16 0 -29 10 -29 26c0 7 3 13 7 19l401 569h-376c-15 0 -27 11 -27 26s12 26 27 26h427c16 0 28 -9 28 -26c0 -7 -3 -14 -8 -20l-398 -568h387c14 0 27 -11 27 -26z" />
    <glyph glyph-name="bracketleft" unicode="[" horiz-adv-x="342" 
d="M287 -123c0 -15 -12 -26 -26 -26h-128c-18 0 -28 13 -28 29v776c0 19 13 30 28 30h128c14 0 26 -11 26 -26s-12 -26 -26 -26h-96v-731h96c14 0 26 -11 26 -26z" />
    <glyph glyph-name="backslash" unicode="\" horiz-adv-x="450" 
d="M65 699c0 17 14 26 26 26c13 0 22 -6 27 -21l265 -775c1 -4 2 -8 2 -12c0 -12 -10 -24 -26 -24c-15 0 -22 7 -27 20l-265 774c-1 3 -2 8 -2 12z" />
    <glyph glyph-name="bracketright" unicode="]" horiz-adv-x="342" 
d="M55 -123c0 15 12 26 26 26h96v731h-96c-14 0 -26 11 -26 26s12 26 26 26h128c15 0 28 -11 28 -30v-776c0 -16 -10 -29 -28 -29h-128c-14 0 -26 11 -26 26z" />
    <glyph glyph-name="asciicircum" unicode="^" horiz-adv-x="468" 
d="M257 659l152 -268c2 -4 4 -9 4 -14c0 -14 -9 -24 -26 -24c-11 0 -17 6 -22 14l-131 234l-131 -234c-5 -8 -11 -14 -22 -14c-17 0 -26 10 -26 24c0 5 2 10 4 14l152 268c6 10 13 15 23 15s17 -5 23 -15z" />
    <glyph glyph-name="underscore" unicode="_" horiz-adv-x="438" 
d="M439 -44h-440v31h440v-31z" />
    <glyph glyph-name="grave" unicode="`" horiz-adv-x="329" 
d="M224 536c0 -13 -11 -24 -24 -24s-19 7 -25 16l-69 97c-3 4 -6 9 -6 17c0 14 12 23 25 23c10 0 17 -5 21 -11l72 -102c4 -6 6 -10 6 -16z" />
    <glyph glyph-name="a" unicode="a" horiz-adv-x="516" 
d="M441 22c0 -16 -11 -30 -30 -30s-30 14 -30 30v22c-34 -38 -88 -56 -149 -56c-107 0 -175 56 -175 131c0 80 73 133 184 133c65 0 117 -27 140 -54v59c0 95 -47 138 -145 138c-48 0 -84 -10 -123 -26c-3 -1 -8 -3 -14 -3c-16 0 -26 9 -26 25c0 10 7 18 15 22
c39 20 86 33 153 33c126 0 200 -67 200 -188v-236zM381 119c0 55 -68 88 -136 88c-78 0 -128 -35 -128 -88c0 -54 50 -87 124 -87c73 0 140 34 140 87z" />
    <glyph glyph-name="b" unicode="b" horiz-adv-x="590" 
d="M140 22c0 -17 -13 -30 -30 -30s-30 13 -30 30v622c0 17 13 30 30 30s30 -13 30 -30v-290c38 57 99 92 179 92c122 0 219 -96 219 -229s-97 -229 -219 -229c-80 0 -141 35 -179 92v-58zM478 217c0 104 -68 178 -168 178c-103 0 -170 -81 -170 -178s67 -178 170 -178
c100 0 168 74 168 178z" />
    <glyph glyph-name="c" unicode="c" horiz-adv-x="507" 
d="M282 446c82 0 146 -39 176 -84c4 -6 6 -11 6 -18c0 -15 -13 -25 -29 -25c-10 0 -16 6 -21 12c-36 43 -73 63 -132 63c-98 0 -169 -79 -169 -177s71 -177 169 -177c59 0 96 20 132 63c5 6 11 12 21 12c16 0 29 -10 29 -25c0 -7 -2 -12 -6 -18c-30 -45 -94 -84 -176 -84
c-131 0 -229 98 -229 229s98 229 229 229z" />
    <glyph glyph-name="d" unicode="d" horiz-adv-x="590" 
d="M450 22v58c-38 -57 -99 -92 -179 -92c-122 0 -219 96 -219 229s97 229 219 229c80 0 141 -35 179 -92v290c0 17 13 30 30 30s30 -13 30 -30v-622c0 -17 -13 -30 -30 -30s-30 13 -30 30zM112 217c0 -104 68 -178 168 -178c103 0 170 81 170 178s-67 178 -170 178
c-100 0 -168 -74 -168 -178z" />
    <glyph glyph-name="e" unicode="e" horiz-adv-x="538" 
d="M275 446c123 0 210 -96 210 -224c0 -14 -12 -25 -25 -25h-347c3 -80 63 -158 168 -158c56 0 100 20 136 63c5 6 12 13 23 13c16 0 25 -12 25 -25c0 -7 -2 -12 -6 -18c-34 -47 -99 -84 -178 -84c-143 0 -229 108 -229 229c0 122 91 229 223 229zM430 247
c-8 84 -69 149 -155 149c-88 0 -152 -67 -160 -149h315z" />
    <glyph glyph-name="f" unicode="f" horiz-adv-x="321" 
d="M167 434h114c13 0 25 -11 25 -25s-12 -25 -25 -25h-114v-362c0 -17 -13 -30 -30 -30s-30 13 -30 30v362h-70c-14 0 -25 11 -25 25s11 25 25 25h70v62c0 109 47 170 160 170h21c14 0 25 -11 25 -25s-11 -25 -25 -25h-18c-69 0 -103 -30 -103 -119v-63z" />
    <glyph glyph-name="g" unicode="g" horiz-adv-x="590" 
d="M450 94c-35 -57 -105 -92 -176 -92c-122 0 -222 87 -222 222s100 222 222 222c89 0 150 -49 176 -92v58c0 17 13 30 30 30s30 -13 30 -30v-377c0 -135 -70 -230 -230 -230c-78 0 -139 21 -178 45c-9 5 -18 13 -18 26c0 14 10 22 23 22c9 0 18 -4 26 -8
c41 -22 89 -36 147 -36c124 0 170 75 170 177v63zM111 224c0 -105 69 -173 169 -173c96 0 170 79 170 173s-74 173 -170 173c-100 0 -169 -68 -169 -173z" />
    <glyph glyph-name="h" unicode="h" horiz-adv-x="565" 
d="M490 245v-223c0 -17 -13 -30 -30 -30s-30 13 -30 30v222c0 90 -47 147 -140 147c-85 0 -150 -62 -150 -160v-209c0 -17 -13 -30 -30 -30s-30 13 -30 30v622c0 17 13 30 30 30s30 -13 30 -30v-284c32 55 90 86 163 86c116 0 187 -85 187 -201z" />
    <glyph glyph-name="i" unicode="i" horiz-adv-x="220" 
d="M140 22c0 -17 -13 -30 -30 -30s-30 13 -30 30v390c0 17 13 30 30 30s30 -13 30 -30v-390zM72 566c0 21 17 38 38 38s38 -17 38 -38s-17 -38 -38 -38s-38 17 -38 38z" />
    <glyph glyph-name="j" unicode="j" horiz-adv-x="220" 
d="M-6 -145c75 0 86 32 86 102v455c0 17 13 30 30 30s30 -13 30 -30v-459c0 -100 -34 -148 -141 -148h-17c-14 0 -25 11 -25 25s11 25 25 25h12zM72 566c0 21 17 38 38 38s38 -17 38 -38s-17 -38 -38 -38s-38 17 -38 38z" />
    <glyph glyph-name="k" unicode="k" horiz-adv-x="480" 
d="M140 172v-150c0 -17 -13 -30 -30 -30s-30 13 -30 30v622c0 17 13 30 30 30s30 -13 30 -30v-404l244 194c6 5 12 8 20 8c16 0 27 -14 27 -27c0 -9 -4 -15 -14 -23l-167 -132l182 -222c6 -8 8 -13 8 -19c0 -15 -13 -27 -30 -27c-9 0 -15 5 -21 12l-182 222z" />
    <glyph glyph-name="l" unicode="l" horiz-adv-x="220" 
d="M140 22c0 -17 -13 -30 -30 -30s-30 13 -30 30v622c0 17 13 30 30 30s30 -13 30 -30v-622z" />
    <glyph glyph-name="m" unicode="m" horiz-adv-x="903" 
d="M828 245v-223c0 -17 -13 -30 -30 -30s-30 13 -30 30v222c0 90 -45 147 -138 147c-85 0 -146 -62 -146 -160v-209c0 -17 -13 -30 -30 -30s-30 13 -30 30v222c0 90 -45 147 -138 147c-85 0 -146 -62 -146 -160v-209c0 -17 -13 -30 -30 -30s-30 13 -30 30v390
c0 17 13 30 30 30s30 -13 30 -30v-52c32 55 86 86 159 86c80 0 139 -43 166 -101c42 73 101 101 178 101c116 0 185 -85 185 -201z" />
    <glyph glyph-name="n" unicode="n" horiz-adv-x="565" 
d="M490 245v-223c0 -17 -13 -30 -30 -30s-30 13 -30 30v222c0 90 -47 147 -140 147c-85 0 -150 -62 -150 -160v-209c0 -17 -13 -30 -30 -30s-30 13 -30 30v390c0 17 13 30 30 30s30 -13 30 -30v-52c32 55 90 86 163 86c116 0 187 -85 187 -201z" />
    <glyph glyph-name="o" unicode="o" horiz-adv-x="560" 
d="M508 217c0 -127 -94 -229 -228 -229s-228 102 -228 229s94 229 228 229s228 -102 228 -229zM448 217c0 102 -74 177 -168 177s-168 -75 -168 -177s74 -177 168 -177s168 75 168 177z" />
    <glyph glyph-name="p" unicode="p" horiz-adv-x="590" 
d="M140 412v-58c38 57 99 92 179 92c122 0 219 -96 219 -229s-97 -229 -219 -229c-80 0 -141 35 -179 92v-245c0 -17 -13 -30 -30 -30s-30 13 -30 30v577c0 17 13 30 30 30s30 -13 30 -30zM478 217c0 104 -68 178 -168 178c-103 0 -170 -81 -170 -178s67 -178 170 -178
c100 0 168 74 168 178z" />
    <glyph glyph-name="q" unicode="q" horiz-adv-x="590" 
d="M450 412c0 17 13 30 30 30s30 -13 30 -30v-577c0 -17 -13 -30 -30 -30s-30 13 -30 30v245c-38 -57 -99 -92 -179 -92c-122 0 -219 96 -219 229s97 229 219 229c80 0 141 -35 179 -92v58zM112 217c0 -104 68 -178 168 -178c103 0 170 81 170 178s-67 178 -170 178
c-100 0 -168 -74 -168 -178z" />
    <glyph glyph-name="r" unicode="r" horiz-adv-x="329" 
d="M314 416c0 -18 -14 -27 -30 -27c-86 0 -144 -82 -144 -194v-173c0 -16 -13 -30 -30 -30c-16 0 -30 14 -30 30v390c0 18 13 30 30 30c18 0 30 -13 30 -30v-70c19 57 73 100 144 100c17 0 30 -10 30 -26z" />
    <glyph glyph-name="s" unicode="s" horiz-adv-x="468" 
d="M418 109c0 -70 -62 -121 -173 -121c-66 0 -125 21 -168 57c-8 6 -12 15 -12 23c0 13 10 22 23 22c10 0 17 -4 23 -9c38 -30 88 -47 137 -47c70 0 112 28 112 72c0 50 -51 65 -115 83c-133 37 -175 78 -175 141c0 78 69 116 172 116c45 0 93 -12 135 -35
c16 -8 27 -17 27 -30s-9 -23 -25 -23c-8 0 -15 4 -24 9c-32 17 -74 30 -114 30c-65 0 -113 -19 -113 -65c0 -41 28 -62 122 -89c99 -29 168 -55 168 -134z" />
    <glyph glyph-name="t" unicode="t" horiz-adv-x="323" 
d="M192 434h101c13 0 25 -11 25 -25s-12 -25 -25 -25h-101v-362c0 -17 -13 -30 -30 -30s-30 13 -30 30v362h-89c-14 0 -25 11 -25 25s11 25 25 25h89v140c0 17 13 30 30 30s30 -13 30 -30v-140z" />
    <glyph glyph-name="u" unicode="u" horiz-adv-x="565" 
d="M75 189v223c0 17 13 30 30 30s30 -13 30 -30v-222c0 -90 47 -147 140 -147c85 0 150 62 150 160v209c0 17 13 30 30 30s30 -13 30 -30v-390c0 -17 -13 -30 -30 -30s-30 13 -30 30v52c-32 -55 -90 -86 -163 -86c-116 0 -187 85 -187 201z" />
    <glyph glyph-name="v" unicode="v" horiz-adv-x="438" 
d="M69 424l150 -339l150 339c5 12 12 18 26 18c17 0 28 -12 28 -27c0 -5 -2 -11 -4 -15l-175 -391c-5 -10 -11 -17 -25 -17s-20 7 -25 17l-175 391c-2 4 -4 10 -4 15c0 15 11 27 28 27c14 0 21 -6 26 -18z" />
    <glyph glyph-name="w" unicode="w" horiz-adv-x="644" 
d="M347 423l117 -334l109 333c4 12 10 20 25 20c16 0 28 -10 28 -26c0 -4 -1 -8 -2 -12l-132 -394c-4 -11 -13 -18 -27 -18s-23 7 -27 19l-116 330l-116 -330c-4 -12 -13 -19 -27 -19s-23 7 -27 18l-132 394c-1 4 -2 8 -2 12c0 16 12 26 28 26c15 0 21 -8 25 -20l109 -333
l117 334c4 11 11 19 25 19s21 -8 25 -19z" />
    <glyph glyph-name="x" unicode="x" horiz-adv-x="468" 
d="M234 258l138 173c6 8 12 11 21 11c17 0 28 -11 28 -26c0 -8 -3 -12 -7 -18l-146 -180l149 -182c4 -6 6 -11 6 -18c0 -15 -12 -26 -27 -26c-10 0 -16 4 -21 10l-141 176l-141 -176c-5 -6 -11 -10 -21 -10c-15 0 -27 11 -27 26c0 7 2 12 6 18l149 182l-146 180
c-4 6 -7 10 -7 18c0 15 11 26 28 26c9 0 15 -3 21 -11z" />
    <glyph glyph-name="y" unicode="y" horiz-adv-x="433" 
d="M418 415c0 -4 -1 -8 -3 -13c0 0 -98 -240 -147 -356c-39 -93 -102 -183 -191 -236c-5 -3 -10 -5 -18 -5c-16 0 -26 11 -26 25c0 11 6 18 18 25c55 38 96 79 136 148l-170 397c-2 5 -4 10 -4 15c0 15 11 27 28 27c14 0 21 -7 26 -19l151 -356l148 358c4 10 11 17 25 17
c17 0 27 -12 27 -27z" />
    <glyph glyph-name="z" unicode="z" horiz-adv-x="467" 
d="M422 24c0 -15 -11 -24 -25 -24h-312c-13 0 -25 11 -25 24c0 8 3 13 7 19l273 343h-254c-13 0 -25 10 -25 24c0 15 12 24 25 24h308c15 0 25 -10 25 -24c0 -7 -2 -12 -6 -18l-274 -344h258c14 0 25 -10 25 -24z" />
    <glyph glyph-name="braceleft" unicode="{" horiz-adv-x="347" 
d="M211 157v-222c0 -29 10 -39 37 -39h34c13 0 25 -11 25 -26s-12 -26 -25 -26h-43c-62 0 -88 35 -88 92v232c0 48 -19 71 -71 71h-8c-15 0 -27 11 -27 26s12 26 27 26h8c52 0 71 23 71 71v232c0 57 26 92 88 92h43c13 0 25 -11 25 -26s-12 -26 -25 -26h-34
c-27 0 -37 -10 -37 -39v-222c0 -63 -20 -101 -85 -108c65 -7 85 -45 85 -108z" />
    <glyph glyph-name="bar" unicode="|" horiz-adv-x="278" 
d="M115 -174v885c0 13 9 24 24 24s24 -11 24 -24v-885c0 -13 -9 -24 -24 -24s-24 11 -24 24z" />
    <glyph glyph-name="braceright" unicode="}" horiz-adv-x="347" 
d="M136 -65v222c0 63 20 101 85 108c-65 7 -85 45 -85 108v222c0 29 -10 39 -37 39h-34c-13 0 -25 11 -25 26s12 26 25 26h43c62 0 88 -35 88 -92v-232c0 -48 19 -71 71 -71h8c15 0 27 -11 27 -26s-12 -26 -27 -26h-8c-52 0 -71 -23 -71 -71v-232c0 -57 -26 -92 -88 -92h-43
c-13 0 -25 11 -25 26s12 26 25 26h34c27 0 37 10 37 39z" />
    <glyph glyph-name="asciitilde" unicode="~" horiz-adv-x="508" 
d="M60 229c0 6 1 9 4 14c25 42 60 75 112 75c29 0 49 -7 91 -30c37 -20 54 -31 77 -31c30 0 46 16 72 49c5 7 10 12 20 12c13 0 22 -10 22 -21c0 -5 -1 -10 -4 -14c-28 -42 -63 -75 -113 -75c-30 0 -51 13 -92 33c-39 19 -54 28 -74 28c-24 0 -41 -8 -73 -49
c-5 -7 -10 -12 -20 -12c-13 0 -22 10 -22 21z" />
    <glyph glyph-name="nbspace" unicode="&#xa0;" horiz-adv-x="300" 
 />
    <glyph glyph-name="exclamdown" unicode="&#xa1;" horiz-adv-x="280" 
d="M156 271l14 -195v-241c0 -16 -12 -30 -30 -30s-30 14 -30 30v241l14 195c1 11 7 18 16 18s15 -7 16 -18zM98 404c0 23 19 42 42 42s42 -19 42 -42s-19 -42 -42 -42s-42 19 -42 42z" />
    <glyph glyph-name="cent" unicode="&#xa2;" horiz-adv-x="566" 
d="M80 333c0 121 83 214 199 227v92c0 13 10 26 28 26s28 -13 28 -26v-92c69 -7 123 -42 150 -82c4 -6 6 -11 6 -18c0 -15 -13 -25 -29 -25c-10 0 -16 6 -21 12c-36 43 -73 63 -132 63c-98 0 -169 -79 -169 -177s71 -177 169 -177c59 0 96 20 132 63c5 6 11 12 21 12
c16 0 29 -10 29 -25c0 -7 -2 -12 -6 -18c-27 -40 -81 -76 -150 -83v-91c0 -13 -10 -26 -28 -26s-28 13 -28 26v91c-116 14 -199 107 -199 228z" />
    <glyph glyph-name="sterling" unicode="&#xa3;" horiz-adv-x="638" 
d="M578 632c0 -13 -7 -25 -25 -25c-3 0 -9 1 -14 3c-29 10 -63 14 -96 14c-103 0 -146 -55 -146 -159v-94h223c14 0 28 -9 28 -26s-14 -26 -28 -26h-223v-267h254c14 0 27 -11 27 -26c0 -16 -13 -26 -27 -26h-462c-15 0 -29 9 -29 26s14 26 29 26h148v267h-129
c-14 0 -29 8 -29 26s15 26 29 26h129v95c0 140 76 212 204 212c42 0 76 -3 114 -19c12 -5 23 -13 23 -27z" />
    <glyph glyph-name="currency" unicode="&#xa4;" horiz-adv-x="656" 
d="M581 98c0 -6 -3 -12 -7 -16s-10 -7 -17 -7c-6 0 -11 2 -17 7l-75 76c-36 -30 -84 -47 -137 -47c-54 0 -102 17 -138 47l-75 -76c-5 -5 -10 -7 -16 -7c-7 0 -13 3 -17 7s-7 10 -7 16s3 12 7 17l75 74c-33 38 -51 89 -51 144c0 54 18 104 50 143l-74 74c-4 4 -7 10 -7 16
s3 13 7 17s10 7 17 7c6 0 11 -3 16 -8l74 -74c37 29 85 47 139 47s101 -18 138 -48l74 75c6 5 11 8 17 8c7 0 13 -3 17 -7s7 -11 7 -17s-3 -12 -7 -16l-75 -74c32 -39 51 -89 51 -143c0 -55 -20 -105 -52 -144l76 -74c5 -5 7 -10 7 -17zM493 333c0 95 -70 172 -165 172
c-96 0 -166 -77 -166 -172s70 -172 166 -172c95 0 165 77 165 172z" />
    <glyph glyph-name="yen" unicode="&#xa5;" horiz-adv-x="582" 
d="M94 340c-14 0 -26 9 -26 23s12 23 26 23h110l-148 244c-4 6 -6 12 -6 17c0 16 12 27 27 27c11 0 19 -5 25 -15l189 -313l189 313c6 10 14 15 25 15c15 0 27 -11 27 -27c0 -5 -2 -11 -6 -17l-148 -244h110c14 0 26 -9 26 -23s-12 -23 -26 -23h-138l-29 -48v-66h167
c14 0 26 -9 26 -23s-12 -23 -26 -23h-167v-158c0 -17 -13 -30 -30 -30s-30 13 -30 30v158h-167c-14 0 -26 9 -26 23s12 23 26 23h167v66l-29 48h-138z" />
    <glyph glyph-name="brokenbar" unicode="&#xa6;" horiz-adv-x="278" 
d="M115 356v355c0 13 9 24 24 24s24 -11 24 -24v-355c0 -13 -9 -24 -24 -24s-24 11 -24 24zM115 -174v355c0 13 9 24 24 24s24 -11 24 -24v-355c0 -13 -9 -24 -24 -24s-24 11 -24 24z" />
    <glyph glyph-name="section" unicode="&#xa7;" horiz-adv-x="617" 
d="M537 256c0 -51 -27 -95 -81 -127c38 -27 57 -56 57 -101c0 -76 -78 -138 -201 -138c-76 0 -162 30 -213 70c-10 8 -14 15 -14 26c0 13 10 22 24 22c10 0 19 -4 27 -10c45 -36 110 -59 179 -59c81 0 138 34 138 88c0 60 -63 83 -168 124c-135 53 -197 91 -197 169
c0 61 39 99 92 125c-41 33 -54 59 -54 102c0 87 82 131 205 131c58 0 121 -13 167 -40c13 -7 18 -15 18 -25c0 -13 -10 -25 -25 -25c-10 0 -17 5 -26 10c-38 20 -88 31 -137 31c-77 0 -142 -21 -142 -81c0 -65 65 -89 158 -124c135 -51 193 -86 193 -168zM479 250
c0 58 -49 83 -162 128c-34 14 -67 25 -93 39c-40 -18 -78 -44 -78 -93c0 -58 58 -83 159 -124c47 -19 66 -27 107 -44c40 21 67 59 67 94z" />
    <glyph glyph-name="dieresis" unicode="&#xa8;" horiz-adv-x="366" 
d="M60 565c0 22 18 40 40 40s40 -18 40 -40s-18 -40 -40 -40s-40 18 -40 40zM226 565c0 22 18 40 40 40s40 -18 40 -40s-18 -40 -40 -40s-40 18 -40 40z" />
    <glyph glyph-name="copyright" unicode="&#xa9;" horiz-adv-x="806" 
d="M58 333c0 190 145 345 345 345s345 -155 345 -345s-145 -345 -345 -345s-345 155 -345 345zM106 333c0 -164 118 -302 297 -302s297 138 297 302s-118 302 -297 302s-297 -138 -297 -302zM417 503c55 0 102 -27 130 -63c4 -5 6 -11 6 -17c0 -15 -12 -23 -24 -23
c-8 0 -16 4 -22 11c-25 31 -52 45 -90 45c-74 0 -117 -55 -117 -123s43 -123 117 -123c38 0 65 14 90 45c6 7 14 11 22 11c12 0 24 -8 24 -23c0 -6 -2 -12 -6 -17c-28 -36 -75 -63 -130 -63c-105 0 -169 75 -169 170s64 170 169 170z" />
    <glyph glyph-name="ordfeminine" unicode="&#xaa;" horiz-adv-x="415" 
d="M340 399c0 -14 -9 -24 -23 -24s-22 10 -22 24v9c-19 -21 -56 -36 -99 -36c-69 0 -121 30 -121 86c0 55 52 86 122 86c38 0 75 -12 97 -32v41c0 58 -32 84 -92 84c-34 0 -60 -7 -84 -18c-2 -1 -6 -2 -9 -2c-13 0 -20 8 -20 19c0 12 11 19 24 25c26 12 64 17 92 17
c87 0 135 -45 135 -127v-152zM294 458c0 34 -47 52 -89 52s-84 -14 -84 -52c0 -35 34 -52 79 -52c49 0 94 20 94 52z" />
    <glyph glyph-name="guillemotleft" unicode="&#xab;" horiz-adv-x="569" 
d="M272 367c0 -9 -5 -16 -10 -21l-141 -133l141 -133c5 -5 10 -12 10 -21c0 -13 -12 -24 -27 -24c-8 0 -13 3 -19 8l-158 152c-6 6 -8 11 -8 18s2 12 8 18l158 152c6 5 11 8 19 8c15 0 27 -11 27 -24zM499 367c0 -9 -5 -16 -10 -21l-141 -133l141 -133c5 -5 10 -12 10 -21
c0 -13 -12 -24 -27 -24c-8 0 -13 3 -19 8l-158 152c-6 6 -8 11 -8 18s2 12 8 18l158 152c6 5 11 8 19 8c15 0 27 -11 27 -24z" />
    <glyph glyph-name="logicalnot" unicode="&#xac;" horiz-adv-x="625" 
d="M104 328h392c16 0 29 -11 29 -27v-196c0 -16 -13 -29 -29 -29s-29 13 -29 29v169h-363c-16 0 -29 11 -29 27s13 27 29 27z" />
    <glyph glyph-name="registered" unicode="&#xae;" horiz-adv-x="416" 
d="M376 512c0 -92 -70 -166 -168 -166s-168 74 -168 166c0 93 70 166 168 166s168 -73 168 -166zM346 512c0 75 -51 138 -138 138s-138 -63 -138 -138s51 -138 138 -138s138 63 138 138zM276 549c0 -23 -10 -41 -31 -50l32 -51c1 -2 2 -4 2 -8c0 -6 -7 -13 -15 -13
c-7 0 -11 4 -14 9l-34 58h-31v-55c0 -6 -6 -13 -14 -13s-15 7 -15 13v149c0 8 7 15 15 15h43c40 0 62 -22 62 -54zM217 576h-32v-55h32c19 0 29 13 29 28c0 16 -10 27 -29 27z" />
    <glyph glyph-name="macron" unicode="&#xaf;" horiz-adv-x="389" 
d="M307 582c11 0 22 -9 22 -22s-11 -22 -22 -22h-225c-11 0 -22 9 -22 22s11 22 22 22h225z" />
    <glyph glyph-name="degree" unicode="&#xb0;" horiz-adv-x="304" 
d="M264 565c0 -61 -42 -112 -112 -112s-112 51 -112 112s42 113 112 113s112 -52 112 -113zM222 565c0 43 -26 76 -70 76s-70 -33 -70 -76s26 -75 70 -75s70 32 70 75z" />
    <glyph glyph-name="plusminus" unicode="&#xb1;" horiz-adv-x="580" 
d="M94 53h392c16 0 29 -10 29 -26s-13 -27 -29 -27h-392c-16 0 -29 11 -29 27s13 26 29 26zM94 360h167v159c0 16 13 29 29 29s29 -13 29 -29v-159h167c16 0 29 -11 29 -27s-13 -27 -29 -27h-167v-159c0 -16 -13 -29 -29 -29s-29 13 -29 29v159h-167c-16 0 -29 11 -29 27
s13 27 29 27z" />
    <glyph glyph-name="twosuperior" unicode="&#xb2;" horiz-adv-x="473" 
d="M263 434c-78 -43 -112 -69 -117 -122h228c13 0 24 -9 24 -22c0 -14 -11 -24 -24 -24h-260c-14 0 -24 11 -24 25c0 99 65 134 141 178c61 35 111 58 111 103c0 42 -37 58 -90 58c-37 0 -67 -10 -97 -26c-25 -13 -42 0 -42 16c0 11 5 18 16 25c37 22 82 33 124 33
c86 0 141 -36 141 -106c0 -65 -55 -96 -131 -138z" />
    <glyph glyph-name="threesuperior" unicode="&#xb3;" horiz-adv-x="449" 
d="M155 484c0 13 11 22 25 22h36c56 0 87 31 87 67c0 40 -34 60 -78 60c-31 0 -55 -6 -84 -17c-22 -8 -36 4 -36 18c0 11 6 18 18 23c31 14 67 21 102 21c78 0 128 -37 128 -103c0 -41 -23 -72 -67 -89c54 -9 88 -47 88 -102c0 -70 -58 -124 -155 -124
c-55 0 -105 17 -141 44c-9 6 -13 15 -13 22c0 19 22 31 45 14c32 -23 67 -35 108 -35c66 0 106 32 106 80c0 53 -43 76 -108 76h-36c-13 0 -25 9 -25 23z" />
    <glyph glyph-name="acute" unicode="&#xb4;" horiz-adv-x="329" 
d="M105 536c0 6 2 10 6 16l72 102c4 6 12 11 21 11c13 0 25 -8 25 -23c0 -8 -3 -13 -6 -17l-69 -97c-6 -8 -12 -16 -25 -16s-24 11 -24 24z" />
    <glyph glyph-name="mu" unicode="&#xb5;" horiz-adv-x="565" 
d="M75 412c0 17 13 30 30 30s30 -13 30 -30v-222c0 -95 40 -147 140 -147c85 0 150 62 150 160v209c0 17 13 30 30 30s30 -13 30 -30v-390c0 -17 -13 -30 -30 -30s-30 13 -30 30v52c-32 -55 -90 -86 -163 -86c-52 0 -96 18 -127 47v-200c0 -17 -13 -30 -30 -30
s-30 13 -30 30v577z" />
    <glyph glyph-name="paragraph" unicode="&#xb6;" horiz-adv-x="603" 
d="M283 -167v460h-14c-114 0 -209 66 -209 186c0 126 97 187 209 187h206c15 0 28 -10 28 -28v-618c0 -15 -13 -28 -28 -28s-28 13 -28 28v597h-108v-784c0 -15 -13 -28 -28 -28s-28 13 -28 28zM118 479c0 -89 60 -139 150 -139h15v277h-16c-84 0 -149 -44 -149 -138z" />
    <glyph glyph-name="periodcentered" unicode="&#xb7;" horiz-adv-x="234" 
d="M75 270c0 23 19 42 42 42s42 -19 42 -42s-19 -42 -42 -42s-42 19 -42 42z" />
    <glyph glyph-name="cedilla" unicode="&#xb8;" horiz-adv-x="303" 
d="M248 -121c0 -42 -33 -74 -99 -74c-21 0 -46 3 -70 13c-9 4 -14 11 -14 18c0 12 11 24 27 18c19 -7 36 -11 56 -11c35 0 54 13 54 35c0 18 -13 31 -44 31c-23 0 -35 -7 -52 -7c-12 0 -19 9 -19 17c0 4 1 8 4 15l29 67h41l-26 -63c10 5 24 8 37 8c46 0 76 -25 76 -67z" />
    <glyph glyph-name="onesuperior" unicode="&#xb9;" horiz-adv-x="348" 
d="M186 290v331l-85 -28c-19 -5 -31 7 -31 20c0 11 7 19 20 23l94 32c9 3 18 6 27 6c18 0 27 -11 27 -27v-357c0 -14 -11 -26 -26 -26s-26 12 -26 26z" />
    <glyph glyph-name="ordmasculine" unicode="&#xba;" horiz-adv-x="414" 
d="M359 526c0 -83 -58 -154 -152 -154s-152 70 -152 154s58 152 152 152s152 -69 152 -152zM207 413c67 0 106 49 106 113s-39 110 -106 110s-106 -46 -106 -110s39 -113 106 -113z" />
    <glyph glyph-name="guillemotright" unicode="&#xbb;" horiz-adv-x="569" 
d="M297 367c0 13 12 24 27 24c8 0 13 -3 19 -8l158 -152c6 -6 8 -11 8 -18s-2 -12 -8 -18l-158 -152c-6 -5 -11 -8 -19 -8c-15 0 -27 11 -27 24c0 9 5 16 10 21l141 133l-141 133c-5 5 -10 12 -10 21zM70 367c0 13 12 24 27 24c8 0 13 -3 19 -8l158 -152c6 -6 8 -11 8 -18
s-2 -12 -8 -18l-158 -152c-6 -5 -11 -8 -19 -8c-15 0 -27 11 -27 24c0 9 5 16 10 21l141 133l-141 133c-5 5 -10 12 -10 21z" />
    <glyph glyph-name="onequarter" unicode="&#xbc;" horiz-adv-x="891" 
d="M196 290v331l-85 -28c-19 -5 -31 7 -31 20c0 11 7 19 20 23l94 32c9 3 18 6 27 6c18 0 27 -11 27 -27v-357c0 -14 -11 -26 -26 -26s-26 12 -26 26zM654 640l-424 -639c-6 -9 -13 -13 -22 -13c-13 0 -24 9 -24 22c0 5 2 10 5 15l424 639c6 10 13 14 23 14
c12 0 24 -7 24 -22c0 -5 -2 -10 -6 -16zM748 22c0 -14 -11 -26 -26 -26s-26 12 -26 26v91h-208c-14 0 -23 8 -23 20c0 9 5 16 9 20l226 244c7 8 15 11 24 11c15 0 24 -9 24 -26v-227h54c14 0 24 -7 24 -21c0 -12 -9 -21 -24 -21h-54v-91zM534 155h162v175z" />
    <glyph glyph-name="onehalf" unicode="&#xbd;" horiz-adv-x="940" 
d="M654 640l-424 -639c-6 -9 -13 -13 -22 -13c-13 0 -24 9 -24 22c0 5 2 10 5 15l424 639c6 10 13 14 23 14c12 0 24 -7 24 -22c0 -5 -2 -10 -6 -16zM730 168c-78 -43 -112 -69 -117 -122h228c13 0 24 -9 24 -22c0 -14 -11 -24 -24 -24h-260c-14 0 -24 11 -24 25
c0 99 65 134 141 178c61 35 111 58 111 103c0 42 -37 58 -90 58c-37 0 -67 -10 -97 -26c-25 -13 -42 0 -42 16c0 11 5 18 16 25c37 22 82 33 124 33c86 0 141 -36 141 -106c0 -65 -55 -96 -131 -138zM196 290v331l-85 -28c-19 -5 -31 7 -31 20c0 11 7 19 20 23l94 32
c9 3 18 6 27 6c18 0 27 -11 27 -27v-357c0 -14 -11 -26 -26 -26s-26 12 -26 26z" />
    <glyph glyph-name="threequarters" unicode="&#xbe;" horiz-adv-x="962" 
d="M155 484c0 13 11 22 25 22h36c56 0 87 31 87 67c0 40 -34 60 -78 60c-31 0 -55 -6 -84 -17c-22 -8 -36 4 -36 18c0 11 6 18 18 23c31 14 67 21 102 21c78 0 128 -37 128 -103c0 -41 -23 -72 -67 -89c54 -9 88 -47 88 -102c0 -70 -58 -124 -155 -124
c-55 0 -105 17 -141 44c-9 6 -13 15 -13 22c0 19 22 31 45 14c32 -23 67 -35 108 -35c66 0 106 32 106 80c0 53 -43 76 -108 76h-36c-13 0 -25 9 -25 23zM725 640l-424 -639c-6 -9 -13 -13 -22 -13c-13 0 -24 9 -24 22c0 5 2 10 5 15l424 639c6 10 13 14 23 14
c12 0 24 -7 24 -22c0 -5 -2 -10 -6 -16zM819 22c0 -14 -11 -26 -26 -26s-26 12 -26 26v91h-208c-14 0 -23 8 -23 20c0 9 5 16 9 20l226 244c7 8 15 11 24 11c15 0 24 -9 24 -26v-227h54c14 0 24 -7 24 -21c0 -12 -9 -21 -24 -21h-54v-91zM605 155h162v175z" />
    <glyph glyph-name="questiondown" unicode="&#xbf;" horiz-adv-x="482" 
d="M50 -56c0 54 22 91 96 150c72 57 92 74 92 141v30c0 16 13 28 31 28c17 0 29 -13 29 -28v-29c0 -85 -29 -110 -98 -167c-68 -57 -90 -79 -90 -126c0 -62 58 -86 137 -86c58 0 103 15 155 46c5 3 12 6 20 6c14 0 25 -11 25 -25c0 -13 -8 -19 -22 -28
c-51 -33 -113 -51 -182 -51c-112 0 -193 44 -193 139zM310 404c0 -23 -19 -42 -42 -42s-42 19 -42 42s19 42 42 42s42 -19 42 -42z" />
    <glyph glyph-name="Agrave" unicode="&#xc0;" horiz-adv-x="716" 
d="M386 654l278 -621c2 -4 4 -9 4 -14c0 -15 -11 -27 -29 -27c-15 0 -23 9 -27 19l-82 183h-344l-82 -183c-4 -10 -12 -19 -27 -19c-18 0 -29 12 -29 27c0 5 2 10 4 14l278 621c6 13 14 20 28 20s22 -7 28 -20zM209 247h298l-149 343zM314 827l55 -62c5 -6 8 -12 8 -19
c0 -12 -11 -23 -25 -23c-9 0 -15 4 -24 14l-55 59c-6 7 -8 11 -8 20c0 11 10 23 25 23c10 0 19 -6 24 -12z" />
    <glyph glyph-name="Aacute" unicode="&#xc1;" horiz-adv-x="716" 
d="M386 654l278 -621c2 -4 4 -9 4 -14c0 -15 -11 -27 -29 -27c-15 0 -23 9 -27 19l-82 183h-344l-82 -183c-4 -10 -12 -19 -27 -19c-18 0 -29 12 -29 27c0 5 2 10 4 14l278 621c6 13 14 20 28 20s22 -7 28 -20zM209 247h298l-149 343zM338 765l55 62c5 6 14 12 24 12
c15 0 25 -12 25 -23c0 -9 -2 -13 -8 -20l-55 -59c-9 -10 -15 -14 -24 -14c-14 0 -25 11 -25 23c0 7 3 13 8 19z" />
    <glyph glyph-name="Acircumflex" unicode="&#xc2;" horiz-adv-x="716" 
d="M386 654l278 -621c2 -4 4 -9 4 -14c0 -15 -11 -27 -29 -27c-15 0 -23 9 -27 19l-82 183h-344l-82 -183c-4 -10 -12 -19 -27 -19c-18 0 -29 12 -29 27c0 5 2 10 4 14l278 621c6 13 14 20 28 20s22 -7 28 -20zM209 247h298l-149 343zM376 831l91 -69c5 -5 9 -9 9 -19
c0 -11 -11 -20 -23 -20c-7 0 -11 2 -16 6l-80 57l-80 -57c-5 -4 -9 -6 -16 -6c-12 0 -23 9 -23 20c0 10 4 14 9 19l91 69c7 5 11 8 19 8s12 -3 19 -8z" />
    <glyph glyph-name="Atilde" unicode="&#xc3;" horiz-adv-x="716" 
d="M386 654l278 -621c2 -4 4 -9 4 -14c0 -15 -11 -27 -29 -27c-15 0 -23 9 -27 19l-82 183h-344l-82 -183c-4 -10 -12 -19 -27 -19c-18 0 -29 12 -29 27c0 5 2 10 4 14l278 621c6 13 14 20 28 20s22 -7 28 -20zM209 247h298l-149 343zM417 727c-22 0 -36 8 -59 21
c-20 11 -30 18 -47 18c-13 0 -24 -4 -37 -19l-11 -12c-4 -4 -9 -9 -19 -9c-11 0 -23 9 -23 21c0 6 2 11 6 16c3 4 6 8 10 13c20 25 41 37 74 37c18 0 33 -4 51 -14c24 -13 39 -25 54 -25c14 0 20 6 35 21l10 10c4 4 9 9 19 9c11 0 23 -8 23 -20c0 -7 -2 -12 -6 -17
c-3 -4 -8 -10 -12 -15c-18 -20 -39 -35 -68 -35z" />
    <glyph glyph-name="Adieresis" unicode="&#xc4;" horiz-adv-x="716" 
d="M386 654l278 -621c2 -4 4 -9 4 -14c0 -15 -11 -27 -29 -27c-15 0 -23 9 -27 19l-82 183h-344l-82 -183c-4 -10 -12 -19 -27 -19c-18 0 -29 12 -29 27c0 5 2 10 4 14l278 621c6 13 14 20 28 20s22 -7 28 -20zM209 247h298l-149 343zM220 785c0 22 18 40 40 40
s40 -18 40 -40s-18 -40 -40 -40s-40 18 -40 40zM416 785c0 22 18 40 40 40s40 -18 40 -40s-18 -40 -40 -40s-40 18 -40 40z" />
    <glyph glyph-name="Aring" unicode="&#xc5;" horiz-adv-x="716" 
d="M430 715c0 -30 -17 -54 -42 -65l276 -617c2 -4 4 -9 4 -14c0 -15 -11 -27 -29 -27c-15 0 -23 9 -27 19l-82 183h-344l-82 -183c-4 -10 -12 -19 -27 -19c-18 0 -29 12 -29 27c0 5 2 10 4 14l276 617c-25 11 -42 35 -42 65c0 40 31 71 72 71s72 -31 72 -71zM209 247h298
l-149 343zM396 715c0 22 -15 41 -38 41s-38 -19 -38 -41s15 -41 38 -41s38 19 38 41z" />
    <glyph glyph-name="AE" unicode="&#xc6;" horiz-adv-x="940" 
d="M636 0c-15 0 -24 9 -28 19l-78 175h-344l-82 -183c-4 -10 -12 -19 -27 -19c-18 0 -29 12 -29 27c0 5 2 10 4 14l278 613c6 13 14 20 30 20h507c15 0 27 -12 27 -27s-12 -27 -27 -27h-466l109 -241h208c15 0 27 -12 27 -27s-12 -27 -27 -27h-183l119 -263h214
c15 0 27 -12 27 -27s-12 -27 -27 -27h-232zM209 247h298l-149 338z" />
    <glyph glyph-name="Ccedilla" unicode="&#xc7;" horiz-adv-x="705" 
d="M500 -121c0 -42 -33 -74 -99 -74c-21 0 -46 3 -70 13c-9 4 -14 11 -14 18c0 12 11 24 27 18c19 -7 36 -11 56 -11c35 0 54 13 54 35c0 18 -13 31 -44 31c-23 0 -35 -7 -52 -7c-12 0 -19 9 -19 17c0 4 1 8 4 15l23 55c-188 12 -308 162 -308 344c0 190 131 345 333 345
c119 0 202 -55 256 -126c4 -6 8 -12 8 -20c0 -16 -12 -27 -28 -27c-9 0 -15 3 -21 11c-50 63 -110 107 -215 107c-173 0 -273 -138 -273 -290s100 -290 273 -290c105 0 165 44 215 107c6 8 12 11 21 11c16 0 28 -11 28 -27c0 -8 -4 -14 -8 -20c-52 -68 -129 -120 -239 -125
l-21 -51c10 5 24 8 37 8c46 0 76 -25 76 -67z" />
    <glyph glyph-name="Egrave" unicode="&#xc8;" horiz-adv-x="583" 
d="M155 317v-263h356c15 0 27 -12 27 -27s-12 -27 -27 -27h-386c-17 0 -30 13 -30 30v606c0 17 13 30 30 30h385c15 0 27 -12 27 -27s-12 -27 -27 -27h-355v-241h206c15 0 27 -12 27 -27s-12 -27 -27 -27h-206zM288 827l55 -62c5 -6 8 -12 8 -19c0 -12 -11 -23 -25 -23
c-9 0 -15 4 -24 14l-55 59c-6 7 -8 11 -8 20c0 11 10 23 25 23c10 0 19 -6 24 -12z" />
    <glyph glyph-name="Eacute" unicode="&#xc9;" horiz-adv-x="583" 
d="M155 317v-263h356c15 0 27 -12 27 -27s-12 -27 -27 -27h-386c-17 0 -30 13 -30 30v606c0 17 13 30 30 30h385c15 0 27 -12 27 -27s-12 -27 -27 -27h-355v-241h206c15 0 27 -12 27 -27s-12 -27 -27 -27h-206zM286 765l55 62c5 6 14 12 24 12c15 0 25 -12 25 -23
c0 -9 -2 -13 -8 -20l-55 -59c-9 -10 -15 -14 -24 -14c-14 0 -25 11 -25 23c0 7 3 13 8 19z" />
    <glyph glyph-name="Ecircumflex" unicode="&#xca;" horiz-adv-x="583" 
d="M155 317v-263h356c15 0 27 -12 27 -27s-12 -27 -27 -27h-386c-17 0 -30 13 -30 30v606c0 17 13 30 30 30h385c15 0 27 -12 27 -27s-12 -27 -27 -27h-355v-241h206c15 0 27 -12 27 -27s-12 -27 -27 -27h-206zM337 831l91 -69c5 -5 9 -9 9 -19c0 -11 -11 -20 -23 -20
c-7 0 -11 2 -16 6l-80 57l-80 -57c-5 -4 -9 -6 -16 -6c-12 0 -23 9 -23 20c0 10 4 14 9 19l91 69c7 5 11 8 19 8s12 -3 19 -8z" />
    <glyph glyph-name="Edieresis" unicode="&#xcb;" horiz-adv-x="583" 
d="M155 317v-263h356c15 0 27 -12 27 -27s-12 -27 -27 -27h-386c-17 0 -30 13 -30 30v606c0 17 13 30 30 30h385c15 0 27 -12 27 -27s-12 -27 -27 -27h-355v-241h206c15 0 27 -12 27 -27s-12 -27 -27 -27h-206zM182 785c0 22 18 40 40 40s40 -18 40 -40s-18 -40 -40 -40
s-40 18 -40 40zM378 785c0 22 18 40 40 40s40 -18 40 -40s-18 -40 -40 -40s-40 18 -40 40z" />
    <glyph glyph-name="Igrave" unicode="&#xcc;" horiz-adv-x="260" 
d="M160 22c0 -17 -13 -30 -30 -30s-30 13 -30 30v622c0 17 13 30 30 30s30 -13 30 -30v-622zM97 827l55 -62c5 -6 8 -12 8 -19c0 -12 -11 -23 -25 -23c-9 0 -15 4 -24 14l-55 59c-6 7 -8 11 -8 20c0 11 10 23 25 23c10 0 19 -6 24 -12z" />
    <glyph glyph-name="Iacute" unicode="&#xcd;" horiz-adv-x="260" 
d="M160 22c0 -17 -13 -30 -30 -30s-30 13 -30 30v622c0 17 13 30 30 30s30 -13 30 -30v-622zM107 765l55 62c5 6 14 12 24 12c15 0 25 -12 25 -23c0 -9 -2 -13 -8 -20l-55 -59c-9 -10 -15 -14 -24 -14c-14 0 -25 11 -25 23c0 7 3 13 8 19z" />
    <glyph glyph-name="Icircumflex" unicode="&#xce;" horiz-adv-x="260" 
d="M160 22c0 -17 -13 -30 -30 -30s-30 13 -30 30v622c0 17 13 30 30 30s30 -13 30 -30v-622zM149 831l91 -69c5 -5 9 -9 9 -19c0 -11 -11 -20 -23 -20c-7 0 -11 2 -16 6l-80 57l-80 -57c-5 -4 -9 -6 -16 -6c-12 0 -23 9 -23 20c0 10 4 14 9 19l91 69c7 5 11 8 19 8
s12 -3 19 -8z" />
    <glyph glyph-name="Idieresis" unicode="&#xcf;" horiz-adv-x="260" 
d="M160 22c0 -17 -13 -30 -30 -30s-30 13 -30 30v622c0 17 13 30 30 30s30 -13 30 -30v-622zM-8 785c0 22 18 40 40 40s40 -18 40 -40s-18 -40 -40 -40s-40 18 -40 40zM188 785c0 22 18 40 40 40s40 -18 40 -40s-18 -40 -40 -40s-40 18 -40 40z" />
    <glyph glyph-name="Eth" unicode="&#xd0;" horiz-adv-x="747" 
d="M695 333c0 -186 -130 -333 -332 -333h-190c-18 0 -30 14 -30 30v277h-77c-14 0 -28 10 -28 26s14 26 28 26h77v277c0 17 13 30 30 30h190c202 0 332 -147 332 -333zM363 359c14 0 28 -10 28 -26s-14 -26 -28 -26h-160v-253h156c174 0 276 122 276 279s-102 279 -276 279
h-156v-253h160z" />
    <glyph glyph-name="Ntilde" unicode="&#xd1;" horiz-adv-x="723" 
d="M628 20c0 -15 -10 -28 -29 -28c-11 0 -17 5 -23 13l-424 559v-544c0 -15 -12 -28 -28 -28c-17 0 -29 13 -29 28v625c0 17 12 29 30 29c10 0 18 -6 23 -13l423 -560v544c0 17 12 29 29 29s28 -13 28 -29v-625zM419 727c-22 0 -36 8 -59 21c-20 11 -30 18 -47 18
c-13 0 -24 -4 -37 -19l-11 -12c-4 -4 -9 -9 -19 -9c-11 0 -23 9 -23 21c0 6 2 11 6 16c3 4 6 8 10 13c20 25 41 37 74 37c18 0 33 -4 51 -14c24 -13 39 -25 54 -25c14 0 20 6 35 21l10 10c4 4 9 9 19 9c11 0 23 -8 23 -20c0 -7 -2 -12 -6 -17c-3 -4 -8 -10 -12 -15
c-18 -20 -39 -35 -68 -35z" />
    <glyph glyph-name="Ograve" unicode="&#xd2;" horiz-adv-x="786" 
d="M728 333c0 -186 -134 -345 -334 -345s-336 159 -336 345s136 345 336 345s334 -159 334 -345zM668 333c0 153 -102 292 -274 292s-276 -139 -276 -292s104 -292 276 -292s274 139 274 292zM360 827l55 -62c5 -6 8 -12 8 -19c0 -12 -11 -23 -25 -23c-9 0 -15 4 -24 14
l-55 59c-6 7 -8 11 -8 20c0 11 10 23 25 23c10 0 19 -6 24 -12z" />
    <glyph glyph-name="Oacute" unicode="&#xd3;" horiz-adv-x="774" 
d="M722 333c0 -186 -134 -345 -334 -345s-336 159 -336 345s136 345 336 345s334 -159 334 -345zM662 333c0 153 -102 292 -274 292s-276 -139 -276 -292s104 -292 276 -292s274 139 274 292zM364 765l55 62c5 6 14 12 24 12c15 0 25 -12 25 -23c0 -9 -2 -13 -8 -20l-55 -59
c-9 -10 -15 -14 -24 -14c-14 0 -25 11 -25 23c0 7 3 13 8 19z" />
    <glyph glyph-name="Ocircumflex" unicode="&#xd4;" horiz-adv-x="774" 
d="M722 333c0 -186 -134 -345 -334 -345s-336 159 -336 345s136 345 336 345s334 -159 334 -345zM662 333c0 153 -102 292 -274 292s-276 -139 -276 -292s104 -292 276 -292s274 139 274 292zM407 831l91 -69c5 -5 9 -9 9 -19c0 -11 -11 -20 -23 -20c-7 0 -11 2 -16 6
l-80 57l-80 -57c-5 -4 -9 -6 -16 -6c-12 0 -23 9 -23 20c0 10 4 14 9 19l91 69c7 5 11 8 19 8s12 -3 19 -8z" />
    <glyph glyph-name="Otilde" unicode="&#xd5;" horiz-adv-x="774" 
d="M722 333c0 -186 -134 -345 -334 -345s-336 159 -336 345s136 345 336 345s334 -159 334 -345zM662 333c0 153 -102 292 -274 292s-276 -139 -276 -292s104 -292 276 -292s274 139 274 292zM445 727c-22 0 -36 8 -59 21c-20 11 -30 18 -47 18c-13 0 -24 -4 -37 -19
l-11 -12c-4 -4 -9 -9 -19 -9c-11 0 -23 9 -23 21c0 6 2 11 6 16c3 4 6 8 10 13c20 25 41 37 74 37c18 0 33 -4 51 -14c24 -13 39 -25 54 -25c14 0 20 6 35 21l10 10c4 4 9 9 19 9c11 0 23 -8 23 -20c0 -7 -2 -12 -6 -17c-3 -4 -8 -10 -12 -15c-18 -20 -39 -35 -68 -35z" />
    <glyph glyph-name="Odieresis" unicode="&#xd6;" horiz-adv-x="774" 
d="M722 333c0 -186 -134 -345 -334 -345s-336 159 -336 345s136 345 336 345s334 -159 334 -345zM662 333c0 153 -102 292 -274 292s-276 -139 -276 -292s104 -292 276 -292s274 139 274 292zM250 785c0 22 18 40 40 40s40 -18 40 -40s-18 -40 -40 -40s-40 18 -40 40z
M446 785c0 22 18 40 40 40s40 -18 40 -40s-18 -40 -40 -40s-40 18 -40 40z" />
    <glyph glyph-name="multiply" unicode="&#xd7;" horiz-adv-x="505" 
d="M134 482l118 -118l118 118c6 6 13 8 21 8c17 0 28 -13 28 -28c0 -9 -2 -15 -8 -21l-118 -118l117 -117c6 -6 10 -11 10 -21c0 -16 -14 -29 -29 -29c-8 0 -15 3 -21 8l-118 118l-118 -118c-5 -5 -11 -8 -20 -8c-17 0 -29 12 -29 29c0 8 3 15 8 20l118 118l-118 118
c-5 6 -8 12 -8 21c0 17 13 28 29 28c8 0 15 -3 20 -8z" />
    <glyph glyph-name="Oslash" unicode="&#xd8;" horiz-adv-x="774" 
d="M59 -25l92 109c-63 64 -99 153 -99 249c0 186 136 345 336 345c79 0 149 -26 203 -68l92 110c5 5 10 8 17 8c15 0 22 -11 22 -22c0 -6 -2 -10 -5 -14l-93 -111c62 -63 98 -152 98 -248c0 -186 -134 -345 -334 -345c-80 0 -150 25 -205 68l-90 -108c-5 -6 -11 -10 -19 -10
c-11 0 -22 10 -22 21c0 7 3 11 7 16zM112 333c0 -78 26 -152 75 -206l369 441c-44 36 -101 57 -168 57c-172 0 -276 -139 -276 -292zM662 333c0 77 -26 151 -74 205l-370 -440c45 -36 102 -57 170 -57c172 0 274 139 274 292z" />
    <glyph glyph-name="Ugrave" unicode="&#xd9;" horiz-adv-x="744" 
d="M372 -12c-174 0 -281 107 -281 274v382c0 17 13 30 30 30s30 -13 30 -30v-386c0 -130 67 -217 221 -217s221 87 221 217v386c0 17 13 30 30 30s30 -13 30 -30v-382c0 -167 -107 -274 -281 -274zM346 827l55 -62c5 -6 8 -12 8 -19c0 -12 -11 -23 -25 -23
c-9 0 -15 4 -24 14l-55 59c-6 7 -8 11 -8 20c0 11 10 23 25 23c10 0 19 -6 24 -12z" />
    <glyph glyph-name="Uacute" unicode="&#xda;" horiz-adv-x="744" 
d="M372 -12c-174 0 -281 107 -281 274v382c0 17 13 30 30 30s30 -13 30 -30v-386c0 -130 67 -217 221 -217s221 87 221 217v386c0 17 13 30 30 30s30 -13 30 -30v-382c0 -167 -107 -274 -281 -274zM340 765l55 62c5 6 14 12 24 12c15 0 25 -12 25 -23c0 -9 -2 -13 -8 -20
l-55 -59c-9 -10 -15 -14 -24 -14c-14 0 -25 11 -25 23c0 7 3 13 8 19z" />
    <glyph glyph-name="Ucircumflex" unicode="&#xdb;" horiz-adv-x="744" 
d="M372 -12c-174 0 -281 107 -281 274v382c0 17 13 30 30 30s30 -13 30 -30v-386c0 -130 67 -217 221 -217s221 87 221 217v386c0 17 13 30 30 30s30 -13 30 -30v-382c0 -167 -107 -274 -281 -274zM390 831l91 -69c5 -5 9 -9 9 -19c0 -11 -11 -20 -23 -20c-7 0 -11 2 -16 6
l-80 57l-80 -57c-5 -4 -9 -6 -16 -6c-12 0 -23 9 -23 20c0 10 4 14 9 19l91 69c7 5 11 8 19 8s12 -3 19 -8z" />
    <glyph glyph-name="Udieresis" unicode="&#xdc;" horiz-adv-x="744" 
d="M372 -12c-174 0 -281 107 -281 274v382c0 17 13 30 30 30s30 -13 30 -30v-386c0 -130 67 -217 221 -217s221 87 221 217v386c0 17 13 30 30 30s30 -13 30 -30v-382c0 -167 -107 -274 -281 -274zM233 785c0 22 18 40 40 40s40 -18 40 -40s-18 -40 -40 -40s-40 18 -40 40z
M429 785c0 22 18 40 40 40s40 -18 40 -40s-18 -40 -40 -40s-40 18 -40 40z" />
    <glyph glyph-name="Yacute" unicode="&#xdd;" horiz-adv-x="552" 
d="M541 630l-235 -338v-270c0 -17 -13 -30 -30 -30s-30 13 -30 30v270l-235 338c-4 6 -6 12 -6 17c0 17 12 27 27 27c10 0 19 -4 26 -14l218 -312l218 312c7 10 16 14 26 14c15 0 27 -10 27 -27c0 -5 -2 -11 -6 -17zM257 765l55 62c5 6 14 12 24 12c15 0 25 -12 25 -23
c0 -9 -2 -13 -8 -20l-55 -59c-9 -10 -15 -14 -24 -14c-14 0 -25 11 -25 23c0 7 3 13 8 19z" />
    <glyph glyph-name="Thorn" unicode="&#xde;" horiz-adv-x="632" 
d="M597 336c0 -106 -73 -187 -205 -187h-237v-127c0 -17 -12 -30 -30 -30c-17 0 -30 13 -30 30v622c0 17 13 30 30 30s30 -13 30 -30v-121h237c132 0 205 -81 205 -187zM155 203h249c83 0 133 57 133 133s-50 133 -133 133h-249v-266z" />
    <glyph glyph-name="germandbls" unicode="&#xdf;" horiz-adv-x="626" 
d="M581 105c0 -67 -58 -117 -162 -117c-50 0 -105 16 -144 45c-8 6 -14 13 -14 22c0 14 10 24 24 24c9 0 15 -4 22 -9c31 -20 66 -36 114 -36c67 0 102 28 102 67c0 49 -38 68 -102 93c-88 34 -127 62 -127 121c0 42 21 66 57 108c32 38 60 65 60 106c0 69 -64 98 -131 98
c-92 0 -135 -49 -135 -142v-463c0 -16 -12 -30 -30 -30s-30 14 -30 30v461c0 122 64 195 195 195c113 0 189 -58 189 -149c0 -48 -24 -78 -57 -118c-37 -45 -58 -62 -58 -94c0 -33 16 -48 95 -78c80 -30 132 -65 132 -134z" />
    <glyph glyph-name="agrave" unicode="&#xe0;" horiz-adv-x="516" 
d="M441 22c0 -16 -11 -30 -30 -30s-30 14 -30 30v22c-34 -38 -88 -56 -149 -56c-107 0 -175 56 -175 131c0 80 73 133 184 133c65 0 117 -27 140 -54v59c0 95 -47 138 -145 138c-48 0 -84 -10 -123 -26c-3 -1 -8 -3 -14 -3c-16 0 -26 9 -26 25c0 10 7 18 15 22
c39 20 86 33 153 33c126 0 200 -67 200 -188v-236zM381 119c0 55 -68 88 -136 88c-78 0 -128 -35 -128 -88c0 -54 50 -87 124 -87c73 0 140 34 140 87zM286 536c0 -13 -11 -24 -24 -24s-19 7 -25 16l-69 97c-3 4 -6 9 -6 17c0 14 12 23 25 23c10 0 17 -5 21 -11l72 -102
c4 -6 6 -10 6 -16z" />
    <glyph glyph-name="aacute" unicode="&#xe1;" horiz-adv-x="516" 
d="M441 22c0 -16 -11 -30 -30 -30s-30 14 -30 30v22c-34 -38 -88 -56 -149 -56c-107 0 -175 56 -175 131c0 80 73 133 184 133c65 0 117 -27 140 -54v59c0 95 -47 138 -145 138c-48 0 -84 -10 -123 -26c-3 -1 -8 -3 -14 -3c-16 0 -26 9 -26 25c0 10 7 18 15 22
c39 20 86 33 153 33c126 0 200 -67 200 -188v-236zM381 119c0 55 -68 88 -136 88c-78 0 -128 -35 -128 -88c0 -54 50 -87 124 -87c73 0 140 34 140 87zM216 536c0 6 2 10 6 16l72 102c4 6 12 11 21 11c13 0 25 -8 25 -23c0 -8 -3 -13 -6 -17l-69 -97c-6 -8 -12 -16 -25 -16
s-24 11 -24 24z" />
    <glyph glyph-name="acircumflex" unicode="&#xe2;" horiz-adv-x="516" 
d="M441 22c0 -16 -11 -30 -30 -30s-30 14 -30 30v22c-34 -38 -88 -56 -149 -56c-107 0 -175 56 -175 131c0 80 73 133 184 133c65 0 117 -27 140 -54v59c0 95 -47 138 -145 138c-48 0 -84 -10 -123 -26c-3 -1 -8 -3 -14 -3c-16 0 -26 9 -26 25c0 10 7 18 15 22
c39 20 86 33 153 33c126 0 200 -67 200 -188v-236zM381 119c0 55 -68 88 -136 88c-78 0 -128 -35 -128 -88c0 -54 50 -87 124 -87c73 0 140 34 140 87zM273 638l95 -88c5 -5 9 -9 9 -19c0 -11 -11 -20 -23 -20c-7 0 -11 2 -16 6l-84 74l-84 -74c-5 -4 -9 -6 -16 -6
c-12 0 -23 9 -23 20c0 10 4 14 9 19l95 88c6 6 11 8 19 8s13 -2 19 -8z" />
    <glyph glyph-name="atilde" unicode="&#xe3;" horiz-adv-x="516" 
d="M441 22c0 -16 -11 -30 -30 -30s-30 14 -30 30v22c-34 -38 -88 -56 -149 -56c-107 0 -175 56 -175 131c0 80 73 133 184 133c65 0 117 -27 140 -54v59c0 95 -47 138 -145 138c-48 0 -84 -10 -123 -26c-3 -1 -8 -3 -14 -3c-16 0 -26 9 -26 25c0 10 7 18 15 22
c39 20 86 33 153 33c126 0 200 -67 200 -188v-236zM381 119c0 55 -68 88 -136 88c-78 0 -128 -35 -128 -88c0 -54 50 -87 124 -87c73 0 140 34 140 87zM308 519c-22 0 -36 8 -59 21c-20 11 -30 18 -47 18c-13 0 -24 -4 -37 -19l-11 -12c-4 -4 -9 -9 -19 -9
c-11 0 -23 9 -23 21c0 6 2 11 6 16c3 4 6 8 10 13c20 25 41 37 74 37c18 0 33 -4 51 -14c24 -13 39 -25 54 -25c14 0 20 6 35 21l10 10c4 4 9 9 19 9c11 0 23 -8 23 -20c0 -7 -2 -12 -6 -17c-3 -4 -8 -10 -12 -15c-18 -20 -39 -35 -68 -35z" />
    <glyph glyph-name="adieresis" unicode="&#xe4;" horiz-adv-x="516" 
d="M441 22c0 -16 -11 -30 -30 -30s-30 14 -30 30v22c-34 -38 -88 -56 -149 -56c-107 0 -175 56 -175 131c0 80 73 133 184 133c65 0 117 -27 140 -54v59c0 95 -47 138 -145 138c-48 0 -84 -10 -123 -26c-3 -1 -8 -3 -14 -3c-16 0 -26 9 -26 25c0 10 7 18 15 22
c39 20 86 33 153 33c126 0 200 -67 200 -188v-236zM381 119c0 55 -68 88 -136 88c-78 0 -128 -35 -128 -88c0 -54 50 -87 124 -87c73 0 140 34 140 87zM135 565c0 22 18 40 40 40s40 -18 40 -40s-18 -40 -40 -40s-40 18 -40 40zM301 565c0 22 18 40 40 40s40 -18 40 -40
s-18 -40 -40 -40s-40 18 -40 40z" />
    <glyph glyph-name="aring" unicode="&#xe5;" horiz-adv-x="516" 
d="M441 22c0 -16 -11 -30 -30 -30s-30 14 -30 30v22c-34 -38 -88 -56 -149 -56c-107 0 -175 56 -175 131c0 80 73 133 184 133c65 0 117 -27 140 -54v59c0 95 -47 138 -145 138c-48 0 -84 -10 -123 -26c-3 -1 -8 -3 -14 -3c-16 0 -26 9 -26 25c0 10 7 18 15 22
c39 20 86 33 153 33c126 0 200 -67 200 -188v-236zM381 119c0 55 -68 88 -136 88c-78 0 -128 -35 -128 -88c0 -54 50 -87 124 -87c73 0 140 34 140 87zM325 570c0 -40 -31 -71 -72 -71s-72 31 -72 71s31 71 72 71s72 -31 72 -71zM291 570c0 22 -15 41 -38 41
s-38 -19 -38 -41s15 -41 38 -41s38 19 38 41z" />
    <glyph glyph-name="ae" unicode="&#xe6;" horiz-adv-x="867" 
d="M604 446c123 0 210 -96 210 -224c0 -14 -12 -25 -25 -25h-347c0 -81 53 -159 168 -159c56 0 100 21 136 64c5 6 12 13 23 13c16 0 25 -12 25 -25c0 -7 -2 -12 -6 -18c-34 -47 -99 -84 -178 -84c-93 0 -157 44 -185 90c-36 -55 -100 -90 -190 -90c-112 0 -178 56 -178 131
c0 80 73 133 184 133c65 0 117 -27 140 -54v59c0 95 -47 138 -145 138c-48 0 -84 -10 -123 -26c-3 -1 -8 -3 -14 -3c-16 0 -26 9 -26 25c0 10 7 18 15 22c39 20 86 33 153 33c88 0 151 -34 176 -107c41 72 105 107 187 107zM381 119c0 55 -68 88 -136 88
c-78 0 -128 -35 -128 -88c0 -54 46 -87 124 -87c73 0 140 34 140 87zM759 247c-8 84 -69 149 -155 149c-88 0 -153 -65 -160 -149h315z" />
    <glyph glyph-name="ccedilla" unicode="&#xe7;" horiz-adv-x="507" 
d="M387 -121c0 -42 -33 -74 -99 -74c-21 0 -46 3 -70 13c-9 4 -14 11 -14 18c0 12 11 24 27 18c19 -7 36 -11 56 -11c35 0 54 13 54 35c0 18 -13 31 -44 31c-23 0 -35 -7 -52 -7c-12 0 -19 9 -19 17c0 4 1 8 4 15l24 56c-117 12 -201 105 -201 227c0 131 98 229 229 229
c82 0 146 -39 176 -84c4 -6 6 -11 6 -18c0 -15 -13 -25 -29 -25c-10 0 -16 6 -21 12c-36 43 -73 63 -132 63c-98 0 -169 -79 -169 -177s71 -177 169 -177c59 0 96 20 132 63c5 6 11 12 21 12c16 0 29 -10 29 -25c0 -7 -2 -12 -6 -18c-29 -43 -88 -79 -163 -83l-21 -51
c10 5 24 8 37 8c46 0 76 -25 76 -67z" />
    <glyph glyph-name="egrave" unicode="&#xe8;" horiz-adv-x="538" 
d="M275 446c123 0 210 -96 210 -224c0 -14 -12 -25 -25 -25h-347c3 -80 63 -158 168 -158c56 0 100 20 136 63c5 6 12 13 23 13c16 0 25 -12 25 -25c0 -7 -2 -12 -6 -18c-34 -47 -99 -84 -178 -84c-143 0 -229 108 -229 229c0 122 91 229 223 229zM430 247
c-8 84 -69 149 -155 149c-88 0 -152 -67 -160 -149h315zM311 536c0 -13 -11 -24 -24 -24s-19 7 -25 16l-69 97c-3 4 -6 9 -6 17c0 14 12 23 25 23c10 0 17 -5 21 -11l72 -102c4 -6 6 -10 6 -16z" />
    <glyph glyph-name="eacute" unicode="&#xe9;" horiz-adv-x="538" 
d="M275 446c123 0 210 -96 210 -224c0 -14 -12 -25 -25 -25h-347c3 -80 63 -158 168 -158c56 0 100 20 136 63c5 6 12 13 23 13c16 0 25 -12 25 -25c0 -7 -2 -12 -6 -18c-34 -47 -99 -84 -178 -84c-143 0 -229 108 -229 229c0 122 91 229 223 229zM430 247
c-8 84 -69 149 -155 149c-88 0 -152 -67 -160 -149h315zM228 536c0 6 2 10 6 16l72 102c4 6 12 11 21 11c13 0 25 -8 25 -23c0 -8 -3 -13 -6 -17l-69 -97c-6 -8 -12 -16 -25 -16s-24 11 -24 24z" />
    <glyph glyph-name="ecircumflex" unicode="&#xea;" horiz-adv-x="538" 
d="M275 446c123 0 210 -96 210 -224c0 -14 -12 -25 -25 -25h-347c3 -80 63 -158 168 -158c56 0 100 20 136 63c5 6 12 13 23 13c16 0 25 -12 25 -25c0 -7 -2 -12 -6 -18c-34 -47 -99 -84 -178 -84c-143 0 -229 108 -229 229c0 122 91 229 223 229zM430 247
c-8 84 -69 149 -155 149c-88 0 -152 -67 -160 -149h315zM303 638l95 -88c5 -5 9 -9 9 -19c0 -11 -11 -20 -23 -20c-7 0 -11 2 -16 6l-84 74l-84 -74c-5 -4 -9 -6 -16 -6c-12 0 -23 9 -23 20c0 10 4 14 9 19l95 88c6 6 11 8 19 8s13 -2 19 -8z" />
    <glyph glyph-name="edieresis" unicode="&#xeb;" horiz-adv-x="538" 
d="M275 446c123 0 210 -96 210 -224c0 -14 -12 -25 -25 -25h-347c3 -80 63 -158 168 -158c56 0 100 20 136 63c5 6 12 13 23 13c16 0 25 -12 25 -25c0 -7 -2 -12 -6 -18c-34 -47 -99 -84 -178 -84c-143 0 -229 108 -229 229c0 122 91 229 223 229zM430 247
c-8 84 -69 149 -155 149c-88 0 -152 -67 -160 -149h315zM158 565c0 22 18 40 40 40s40 -18 40 -40s-18 -40 -40 -40s-40 18 -40 40zM324 565c0 22 18 40 40 40s40 -18 40 -40s-18 -40 -40 -40s-40 18 -40 40z" />
    <glyph glyph-name="igrave" unicode="&#xec;" horiz-adv-x="220" 
d="M140 22c0 -17 -13 -30 -30 -30s-30 13 -30 30v390c0 17 13 30 30 30s30 -13 30 -30v-390zM136 536c0 -13 -11 -24 -24 -24s-19 7 -25 16l-69 97c-3 4 -6 9 -6 17c0 14 12 23 25 23c10 0 17 -5 21 -11l72 -102c4 -6 6 -10 6 -16z" />
    <glyph glyph-name="iacute" unicode="&#xed;" horiz-adv-x="220" 
d="M140 22c0 -17 -13 -30 -30 -30s-30 13 -30 30v390c0 17 13 30 30 30s30 -13 30 -30v-390zM81 536c0 6 2 10 6 16l72 102c4 6 12 11 21 11c13 0 25 -8 25 -23c0 -8 -3 -13 -6 -17l-69 -97c-6 -8 -12 -16 -25 -16s-24 11 -24 24z" />
    <glyph glyph-name="icircumflex" unicode="&#xee;" horiz-adv-x="220" 
d="M140 22c0 -17 -13 -30 -30 -30s-30 13 -30 30v390c0 17 13 30 30 30s30 -13 30 -30v-390zM129 638l95 -88c5 -5 9 -9 9 -19c0 -11 -11 -20 -23 -20c-7 0 -11 2 -16 6l-84 74l-84 -74c-5 -4 -9 -6 -16 -6c-12 0 -23 9 -23 20c0 10 4 14 9 19l95 88c6 6 11 8 19 8
s13 -2 19 -8z" />
    <glyph glyph-name="idieresis" unicode="&#xef;" horiz-adv-x="220" 
d="M140 22c0 -17 -13 -30 -30 -30s-30 13 -30 30v390c0 17 13 30 30 30s30 -13 30 -30v-390zM-18 565c0 22 18 40 40 40s40 -18 40 -40s-18 -40 -40 -40s-40 18 -40 40zM148 565c0 22 18 40 40 40s40 -18 40 -40s-18 -40 -40 -40s-40 18 -40 40z" />
    <glyph glyph-name="eth" unicode="&#xf0;" horiz-adv-x="544" 
d="M320 589l50 42c5 4 10 7 17 7c11 0 23 -12 23 -23c0 -9 -4 -14 -10 -19l-45 -38c87 -80 137 -186 137 -333c0 -123 -76 -237 -221 -237c-153 0 -216 118 -216 213c0 125 89 209 211 209c70 0 136 -37 172 -93c-18 84 -59 154 -120 211l-61 -51c-5 -4 -10 -6 -17 -6
c-13 0 -24 10 -24 22c0 9 5 15 11 20l56 46c-45 37 -68 49 -121 77c-8 4 -13 11 -13 21c0 12 10 21 23 21c4 0 8 -1 12 -3c48 -21 97 -52 136 -86zM113 201c0 -93 63 -166 158 -166c104 0 162 81 162 165c0 103 -78 163 -159 163c-104 0 -161 -66 -161 -162z" />
    <glyph glyph-name="ntilde" unicode="&#xf1;" horiz-adv-x="565" 
d="M490 245v-223c0 -17 -13 -30 -30 -30s-30 13 -30 30v222c0 90 -47 147 -140 147c-85 0 -150 -62 -150 -160v-209c0 -17 -13 -30 -30 -30s-30 13 -30 30v390c0 17 13 30 30 30s30 -13 30 -30v-52c32 55 90 86 163 86c116 0 187 -85 187 -201zM338 519c-22 0 -36 8 -59 21
c-20 11 -30 18 -47 18c-13 0 -24 -4 -37 -19l-11 -12c-4 -4 -9 -9 -19 -9c-11 0 -23 9 -23 21c0 6 2 11 6 16c3 4 6 8 10 13c20 25 41 37 74 37c18 0 33 -4 51 -14c24 -13 39 -25 54 -25c14 0 20 6 35 21l10 10c4 4 9 9 19 9c11 0 23 -8 23 -20c0 -7 -2 -12 -6 -17
c-3 -4 -8 -10 -12 -15c-18 -20 -39 -35 -68 -35z" />
    <glyph glyph-name="ograve" unicode="&#xf2;" horiz-adv-x="560" 
d="M508 217c0 -127 -94 -229 -228 -229s-228 102 -228 229s94 229 228 229s228 -102 228 -229zM448 217c0 102 -74 177 -168 177s-168 -75 -168 -177s74 -177 168 -177s168 75 168 177zM299 536c0 -13 -11 -24 -24 -24s-19 7 -25 16l-69 97c-3 4 -6 9 -6 17
c0 14 12 23 25 23c10 0 17 -5 21 -11l72 -102c4 -6 6 -10 6 -16z" />
    <glyph glyph-name="oacute" unicode="&#xf3;" horiz-adv-x="560" 
d="M508 217c0 -127 -94 -229 -228 -229s-228 102 -228 229s94 229 228 229s228 -102 228 -229zM448 217c0 102 -74 177 -168 177s-168 -75 -168 -177s74 -177 168 -177s168 75 168 177zM236 536c0 6 2 10 6 16l72 102c4 6 12 11 21 11c13 0 25 -8 25 -23c0 -8 -3 -13 -6 -17
l-69 -97c-6 -8 -12 -16 -25 -16s-24 11 -24 24z" />
    <glyph glyph-name="ocircumflex" unicode="&#xf4;" horiz-adv-x="560" 
d="M508 217c0 -127 -94 -229 -228 -229s-228 102 -228 229s94 229 228 229s228 -102 228 -229zM448 217c0 102 -74 177 -168 177s-168 -75 -168 -177s74 -177 168 -177s168 75 168 177zM299 638l95 -88c5 -5 9 -9 9 -19c0 -11 -11 -20 -23 -20c-7 0 -11 2 -16 6l-84 74
l-84 -74c-5 -4 -9 -6 -16 -6c-12 0 -23 9 -23 20c0 10 4 14 9 19l95 88c6 6 11 8 19 8s13 -2 19 -8z" />
    <glyph glyph-name="otilde" unicode="&#xf5;" horiz-adv-x="560" 
d="M508 217c0 -127 -94 -229 -228 -229s-228 102 -228 229s94 229 228 229s228 -102 228 -229zM448 217c0 102 -74 177 -168 177s-168 -75 -168 -177s74 -177 168 -177s168 75 168 177zM344 519c-22 0 -36 8 -59 21c-20 11 -30 18 -47 18c-13 0 -24 -4 -37 -19l-11 -12
c-4 -4 -9 -9 -19 -9c-11 0 -23 9 -23 21c0 6 2 11 6 16c3 4 6 8 10 13c20 25 41 37 74 37c18 0 33 -4 51 -14c24 -13 39 -25 54 -25c14 0 20 6 35 21l10 10c4 4 9 9 19 9c11 0 23 -8 23 -20c0 -7 -2 -12 -6 -17c-3 -4 -8 -10 -12 -15c-18 -20 -39 -35 -68 -35z" />
    <glyph glyph-name="odieresis" unicode="&#xf6;" horiz-adv-x="560" 
d="M508 217c0 -127 -94 -229 -228 -229s-228 102 -228 229s94 229 228 229s228 -102 228 -229zM448 217c0 102 -74 177 -168 177s-168 -75 -168 -177s74 -177 168 -177s168 75 168 177zM152 565c0 22 18 40 40 40s40 -18 40 -40s-18 -40 -40 -40s-40 18 -40 40zM318 565
c0 22 18 40 40 40s40 -18 40 -40s-18 -40 -40 -40s-40 18 -40 40z" />
    <glyph glyph-name="divide" unicode="&#xf7;" horiz-adv-x="570" 
d="M476 296h-382c-16 0 -29 11 -29 27s13 27 29 27h382c16 0 29 -11 29 -27s-13 -27 -29 -27zM243 147c0 23 19 42 42 42s42 -19 42 -42s-19 -42 -42 -42s-42 19 -42 42zM243 499c0 23 19 42 42 42s42 -19 42 -42s-19 -42 -42 -42s-42 19 -42 42z" />
    <glyph glyph-name="oslash" unicode="&#xf8;" horiz-adv-x="560" 
d="M58 -29l63 79c-44 41 -69 101 -69 167c0 127 94 229 228 229c49 0 92 -14 128 -37l63 79c4 5 9 8 16 8c12 0 20 -8 21 -18c0 -6 -1 -9 -5 -14l-64 -80c43 -42 69 -101 69 -167c0 -127 -94 -229 -228 -229c-49 0 -93 13 -128 37l-62 -77c-6 -7 -10 -10 -17 -10
c-9 0 -21 7 -21 18c0 7 3 11 6 15zM448 217c0 48 -17 91 -45 122l-217 -271c27 -18 59 -28 94 -28c94 0 168 75 168 177zM112 217c0 -49 17 -92 44 -123l217 272c-26 18 -58 28 -93 28c-94 0 -168 -75 -168 -177z" />
    <glyph glyph-name="ugrave" unicode="&#xf9;" horiz-adv-x="565" 
d="M75 189v223c0 17 13 30 30 30s30 -13 30 -30v-222c0 -90 47 -147 140 -147c85 0 150 62 150 160v209c0 17 13 30 30 30s30 -13 30 -30v-390c0 -17 -13 -30 -30 -30s-30 13 -30 30v52c-32 -55 -90 -86 -163 -86c-116 0 -187 85 -187 201zM327 536c0 -13 -11 -24 -24 -24
s-19 7 -25 16l-69 97c-3 4 -6 9 -6 17c0 14 12 23 25 23c10 0 17 -5 21 -11l72 -102c4 -6 6 -10 6 -16z" />
    <glyph glyph-name="uacute" unicode="&#xfa;" horiz-adv-x="565" 
d="M75 189v223c0 17 13 30 30 30s30 -13 30 -30v-222c0 -90 47 -147 140 -147c85 0 150 62 150 160v209c0 17 13 30 30 30s30 -13 30 -30v-390c0 -17 -13 -30 -30 -30s-30 13 -30 30v52c-32 -55 -90 -86 -163 -86c-116 0 -187 85 -187 201zM242 536c0 6 2 10 6 16l72 102
c4 6 12 11 21 11c13 0 25 -8 25 -23c0 -8 -3 -13 -6 -17l-69 -97c-6 -8 -12 -16 -25 -16s-24 11 -24 24z" />
    <glyph glyph-name="ucircumflex" unicode="&#xfb;" horiz-adv-x="565" 
d="M75 189v223c0 17 13 30 30 30s30 -13 30 -30v-222c0 -90 47 -147 140 -147c85 0 150 62 150 160v209c0 17 13 30 30 30s30 -13 30 -30v-390c0 -17 -13 -30 -30 -30s-30 13 -30 30v52c-32 -55 -90 -86 -163 -86c-116 0 -187 85 -187 201zM304 638l95 -88c5 -5 9 -9 9 -19
c0 -11 -11 -20 -23 -20c-7 0 -11 2 -16 6l-84 74l-84 -74c-5 -4 -9 -6 -16 -6c-12 0 -23 9 -23 20c0 10 4 14 9 19l95 88c6 6 11 8 19 8s13 -2 19 -8z" />
    <glyph glyph-name="udieresis" unicode="&#xfc;" horiz-adv-x="565" 
d="M75 189v223c0 17 13 30 30 30s30 -13 30 -30v-222c0 -90 47 -147 140 -147c85 0 150 62 150 160v209c0 17 13 30 30 30s30 -13 30 -30v-390c0 -17 -13 -30 -30 -30s-30 13 -30 30v52c-32 -55 -90 -86 -163 -86c-116 0 -187 85 -187 201zM160 565c0 22 18 40 40 40
s40 -18 40 -40s-18 -40 -40 -40s-40 18 -40 40zM326 565c0 22 18 40 40 40s40 -18 40 -40s-18 -40 -40 -40s-40 18 -40 40z" />
    <glyph glyph-name="yacute" unicode="&#xfd;" horiz-adv-x="433" 
d="M418 415c0 -4 -1 -8 -3 -13c0 0 -98 -240 -147 -356c-39 -93 -102 -183 -191 -236c-5 -3 -10 -5 -18 -5c-16 0 -26 11 -26 25c0 11 6 18 18 25c55 38 96 79 136 148l-170 397c-2 5 -4 10 -4 15c0 15 11 27 28 27c14 0 21 -7 26 -19l151 -356l148 358c4 10 11 17 25 17
c17 0 27 -12 27 -27zM180 536c0 6 2 10 6 16l72 102c4 6 12 11 21 11c13 0 25 -8 25 -23c0 -8 -3 -13 -6 -17l-69 -97c-6 -8 -12 -16 -25 -16s-24 11 -24 24z" />
    <glyph glyph-name="thorn" unicode="&#xfe;" horiz-adv-x="590" 
d="M140 644v-290c38 57 99 92 179 92c122 0 219 -96 219 -229s-97 -229 -219 -229c-80 0 -141 35 -179 92v-245c0 -17 -13 -30 -30 -30s-30 13 -30 30v809c0 17 13 30 30 30s30 -13 30 -30zM478 217c0 104 -68 178 -168 178c-103 0 -170 -81 -170 -178s67 -178 170 -178
c100 0 168 74 168 178z" />
    <glyph glyph-name="ydieresis" unicode="&#xff;" horiz-adv-x="433" 
d="M418 415c0 -4 -1 -8 -3 -13c0 0 -98 -240 -147 -356c-39 -93 -102 -183 -191 -236c-5 -3 -10 -5 -18 -5c-16 0 -26 11 -26 25c0 11 6 18 18 25c55 38 96 79 136 148l-170 397c-2 5 -4 10 -4 15c0 15 11 27 28 27c14 0 21 -7 26 -19l151 -356l148 358c4 10 11 17 25 17
c17 0 27 -12 27 -27zM95 565c0 22 18 40 40 40s40 -18 40 -40s-18 -40 -40 -40s-40 18 -40 40zM261 565c0 22 18 40 40 40s40 -18 40 -40s-18 -40 -40 -40s-40 18 -40 40z" />
    <glyph glyph-name="Amacron" unicode="&#x100;" horiz-adv-x="716" 
d="M386 654l278 -621c2 -4 4 -9 4 -14c0 -15 -11 -27 -29 -27c-15 0 -23 9 -27 19l-82 183h-344l-82 -183c-4 -10 -12 -19 -27 -19c-18 0 -29 12 -29 27c0 5 2 10 4 14l278 621c6 13 14 20 28 20s22 -7 28 -20zM209 247h298l-149 343zM481 792c11 0 22 -9 22 -22
s-11 -22 -22 -22h-245c-11 0 -22 9 -22 22s11 22 22 22h245z" />
    <glyph glyph-name="amacron" unicode="&#x101;" horiz-adv-x="516" 
d="M441 22c0 -16 -11 -30 -30 -30s-30 14 -30 30v22c-34 -38 -88 -56 -149 -56c-107 0 -175 56 -175 131c0 80 73 133 184 133c65 0 117 -27 140 -54v59c0 95 -47 138 -145 138c-48 0 -84 -10 -123 -26c-3 -1 -8 -3 -14 -3c-16 0 -26 9 -26 25c0 10 7 18 15 22
c39 20 86 33 153 33c126 0 200 -67 200 -188v-236zM381 119c0 55 -68 88 -136 88c-78 0 -128 -35 -128 -88c0 -54 50 -87 124 -87c73 0 140 34 140 87zM370 582c11 0 22 -9 22 -22s-11 -22 -22 -22h-225c-11 0 -22 9 -22 22s11 22 22 22h225z" />
    <glyph glyph-name="Abreve" unicode="&#x102;" horiz-adv-x="716" 
d="M386 654l278 -621c2 -4 4 -9 4 -14c0 -15 -11 -27 -29 -27c-15 0 -23 9 -27 19l-82 183h-344l-82 -183c-4 -10 -12 -19 -27 -19c-18 0 -29 12 -29 27c0 5 2 10 4 14l278 621c6 13 14 20 28 20s22 -7 28 -20zM209 247h298l-149 343zM454 816c0 14 11 23 24 23
c12 0 23 -9 23 -22c0 -70 -53 -96 -134 -96s-134 26 -134 96c0 13 11 22 23 22c13 0 24 -9 24 -23c0 -42 34 -54 87 -54s87 12 87 54z" />
    <glyph glyph-name="abreve" unicode="&#x103;" horiz-adv-x="516" 
d="M441 22c0 -16 -11 -30 -30 -30s-30 14 -30 30v22c-34 -38 -88 -56 -149 -56c-107 0 -175 56 -175 131c0 80 73 133 184 133c65 0 117 -27 140 -54v59c0 95 -47 138 -145 138c-48 0 -84 -10 -123 -26c-3 -1 -8 -3 -14 -3c-16 0 -26 9 -26 25c0 10 7 18 15 22
c39 20 86 33 153 33c126 0 200 -67 200 -188v-236zM381 119c0 55 -68 88 -136 88c-78 0 -128 -35 -128 -88c0 -54 50 -87 124 -87c73 0 140 34 140 87zM335 615c0 14 11 23 24 23c12 0 23 -9 23 -22c0 -70 -47 -106 -124 -106s-124 36 -124 106c0 13 11 22 23 22
c13 0 24 -9 24 -23c0 -42 20 -64 77 -64s77 22 77 64z" />
    <glyph glyph-name="Aogonek" unicode="&#x104;" horiz-adv-x="716" 
d="M386 654l278 -621c2 -4 4 -10 4 -14c0 -12 -5 -17 -13 -23c-54 -34 -99 -65 -99 -107c0 -22 15 -32 41 -32c13 0 25 3 36 6c18 5 28 -4 28 -17c0 -10 -5 -16 -14 -20c-15 -7 -39 -11 -58 -11c-53 0 -83 27 -83 69c0 59 60 94 112 117c-2 3 -5 7 -7 12l-81 181h-344
l-82 -183c-4 -10 -12 -19 -27 -19c-18 0 -29 12 -29 27c0 5 2 10 4 14l278 621c6 13 14 20 28 20s22 -7 28 -20zM209 247h298l-149 343z" />
    <glyph glyph-name="aogonek" unicode="&#x105;" horiz-adv-x="516" 
d="M405 -137c18 5 28 -4 28 -17c0 -10 -5 -16 -14 -20c-15 -7 -42 -11 -61 -11c-53 0 -80 25 -80 66c0 58 59 98 110 119c-5 5 -7 13 -7 22v22c-34 -38 -88 -56 -149 -56c-107 0 -175 56 -175 131c0 80 73 133 184 133c65 0 117 -27 140 -54v59c0 95 -47 138 -145 138
c-48 0 -84 -10 -123 -26c-3 -1 -8 -3 -14 -3c-16 0 -26 9 -26 25c0 10 7 18 15 22c39 20 86 33 153 33c126 0 200 -67 200 -188v-236c0 -15 -5 -20 -13 -25c-32 -22 -100 -59 -100 -109c0 -22 15 -31 41 -31c13 0 25 3 36 6zM381 119c0 55 -68 88 -136 88
c-78 0 -128 -35 -128 -88c0 -54 50 -87 124 -87c73 0 140 34 140 87z" />
    <glyph glyph-name="Cacute" unicode="&#x106;" horiz-adv-x="705" 
d="M391 678c119 0 202 -55 256 -126c4 -6 8 -12 8 -20c0 -16 -12 -27 -28 -27c-9 0 -15 3 -21 11c-50 63 -110 107 -215 107c-173 0 -273 -138 -273 -290s100 -290 273 -290c105 0 165 44 215 107c6 8 12 11 21 11c16 0 28 -11 28 -27c0 -8 -4 -14 -8 -20
c-54 -71 -137 -126 -256 -126c-202 0 -333 155 -333 345s131 345 333 345zM348 765l55 62c5 6 14 12 24 12c15 0 25 -12 25 -23c0 -9 -2 -13 -8 -20l-55 -59c-9 -10 -15 -14 -24 -14c-14 0 -25 11 -25 23c0 7 3 13 8 19z" />
    <glyph glyph-name="cacute" unicode="&#x107;" horiz-adv-x="507" 
d="M282 446c82 0 146 -39 176 -84c4 -6 6 -11 6 -18c0 -15 -13 -25 -29 -25c-10 0 -16 6 -21 12c-36 43 -73 63 -132 63c-98 0 -169 -79 -169 -177s71 -177 169 -177c59 0 96 20 132 63c5 6 11 12 21 12c16 0 29 -10 29 -25c0 -7 -2 -12 -6 -18c-30 -45 -94 -84 -176 -84
c-131 0 -229 98 -229 229s98 229 229 229zM229 536c0 6 2 10 6 16l72 102c4 6 12 11 21 11c13 0 25 -8 25 -23c0 -8 -3 -13 -6 -17l-69 -97c-6 -8 -12 -16 -25 -16s-24 11 -24 24z" />
    <glyph glyph-name="Ccircumflex" unicode="&#x108;" horiz-adv-x="705" 
d="M391 678c119 0 202 -55 256 -126c4 -6 8 -12 8 -20c0 -16 -12 -27 -28 -27c-9 0 -15 3 -21 11c-50 63 -110 107 -215 107c-173 0 -273 -138 -273 -290s100 -290 273 -290c105 0 165 44 215 107c6 8 12 11 21 11c16 0 28 -11 28 -27c0 -8 -4 -14 -8 -20
c-54 -71 -137 -126 -256 -126c-202 0 -333 155 -333 345s131 345 333 345zM406 831l91 -69c5 -5 9 -9 9 -19c0 -11 -11 -20 -23 -20c-7 0 -11 2 -16 6l-80 57l-80 -57c-5 -4 -9 -6 -16 -6c-12 0 -23 9 -23 20c0 10 4 14 9 19l91 69c7 5 11 8 19 8s12 -3 19 -8z" />
    <glyph glyph-name="ccircumflex" unicode="&#x109;" horiz-adv-x="507" 
d="M282 446c82 0 146 -39 176 -84c4 -6 6 -11 6 -18c0 -15 -13 -25 -29 -25c-10 0 -16 6 -21 12c-36 43 -73 63 -132 63c-98 0 -169 -79 -169 -177s71 -177 169 -177c59 0 96 20 132 63c5 6 11 12 21 12c16 0 29 -10 29 -25c0 -7 -2 -12 -6 -18c-30 -45 -94 -84 -176 -84
c-131 0 -229 98 -229 229s98 229 229 229zM307 638l95 -88c5 -5 9 -9 9 -19c0 -11 -11 -20 -23 -20c-7 0 -11 2 -16 6l-84 74l-84 -74c-5 -4 -9 -6 -16 -6c-12 0 -23 9 -23 20c0 10 4 14 9 19l95 88c6 6 11 8 19 8s13 -2 19 -8z" />
    <glyph glyph-name="Cdotaccent" unicode="&#x10a;" horiz-adv-x="705" 
d="M391 678c119 0 202 -55 256 -126c4 -6 8 -12 8 -20c0 -16 -12 -27 -28 -27c-9 0 -15 3 -21 11c-50 63 -110 107 -215 107c-173 0 -273 -138 -273 -290s100 -290 273 -290c105 0 165 44 215 107c6 8 12 11 21 11c16 0 28 -11 28 -27c0 -8 -4 -14 -8 -20
c-54 -71 -137 -126 -256 -126c-202 0 -333 155 -333 345s131 345 333 345zM354 779c0 21 17 38 38 38s38 -17 38 -38s-17 -38 -38 -38s-38 17 -38 38z" />
    <glyph glyph-name="cdotaccent" unicode="&#x10b;" horiz-adv-x="507" 
d="M282 446c82 0 146 -39 176 -84c4 -6 6 -11 6 -18c0 -15 -13 -25 -29 -25c-10 0 -16 6 -21 12c-36 43 -73 63 -132 63c-98 0 -169 -79 -169 -177s71 -177 169 -177c59 0 96 20 132 63c5 6 11 12 21 12c16 0 29 -10 29 -25c0 -7 -2 -12 -6 -18c-30 -45 -94 -84 -176 -84
c-131 0 -229 98 -229 229s98 229 229 229zM246 566c0 21 17 38 38 38s38 -17 38 -38s-17 -38 -38 -38s-38 17 -38 38z" />
    <glyph glyph-name="Ccaron" unicode="&#x10c;" horiz-adv-x="705" 
d="M391 678c119 0 202 -55 256 -126c4 -6 8 -12 8 -20c0 -16 -12 -27 -28 -27c-9 0 -15 3 -21 11c-50 63 -110 107 -215 107c-173 0 -273 -138 -273 -290s100 -290 273 -290c105 0 165 44 215 107c6 8 12 11 21 11c16 0 28 -11 28 -27c0 -8 -4 -14 -8 -20
c-54 -71 -137 -126 -256 -126c-202 0 -333 155 -333 345s131 345 333 345zM501 798l-91 -69c-7 -5 -11 -8 -19 -8s-12 3 -19 8l-91 69c-5 5 -9 9 -9 19c0 11 11 20 23 20c7 0 11 -2 16 -6l80 -57l80 57c5 4 9 6 16 6c12 0 23 -9 23 -20c0 -10 -4 -14 -9 -19z" />
    <glyph glyph-name="ccaron" unicode="&#x10d;" horiz-adv-x="507" 
d="M282 446c82 0 146 -39 176 -84c4 -6 6 -11 6 -18c0 -15 -13 -25 -29 -25c-10 0 -16 6 -21 12c-36 43 -73 63 -132 63c-98 0 -169 -79 -169 -177s71 -177 169 -177c59 0 96 20 132 63c5 6 11 12 21 12c16 0 29 -10 29 -25c0 -7 -2 -12 -6 -18c-30 -45 -94 -84 -176 -84
c-131 0 -229 98 -229 229s98 229 229 229zM398 604l-95 -88c-6 -6 -11 -8 -19 -8s-13 2 -19 8l-95 88c-5 5 -9 9 -9 19c0 11 11 20 23 20c7 0 11 -2 16 -6l84 -74l84 74c5 4 9 6 16 6c12 0 23 -9 23 -20c0 -10 -4 -14 -9 -19z" />
    <glyph glyph-name="Dcaron" unicode="&#x10e;" horiz-adv-x="699" 
d="M647 333c0 -186 -130 -333 -332 -333h-190c-18 0 -30 14 -30 30v606c0 17 13 30 30 30h190c202 0 332 -147 332 -333zM587 333c0 157 -102 279 -276 279h-156v-558h156c174 0 276 122 276 279zM439 798l-91 -69c-7 -5 -11 -8 -19 -8s-12 3 -19 8l-91 69c-5 5 -9 9 -9 19
c0 11 11 20 23 20c7 0 11 -2 16 -6l80 -57l80 57c5 4 9 6 16 6c12 0 23 -9 23 -20c0 -10 -4 -14 -9 -19z" />
    <glyph glyph-name="dcaron" unicode="&#x10f;" horiz-adv-x="735" 
d="M450 22v58c-38 -57 -99 -92 -179 -92c-122 0 -219 96 -219 229s97 229 219 229c80 0 141 -35 179 -92v290c0 17 13 30 30 30s30 -13 30 -30v-622c0 -17 -13 -30 -30 -30s-30 13 -30 30zM112 217c0 -104 68 -178 168 -178c103 0 170 81 170 178s-67 178 -170 178
c-100 0 -168 -74 -168 -178zM700 614c0 -37 -4 -78 -17 -119c-4 -14 -13 -27 -30 -27c-16 0 -25 10 -25 24c0 8 3 14 5 20c12 37 15 70 15 98v36c0 16 9 28 26 28s26 -12 26 -28v-32z" />
    <glyph glyph-name="Dcroat" unicode="&#x110;" horiz-adv-x="811" 
d="M695 333c0 -186 -130 -333 -332 -333h-190c-18 0 -30 14 -30 30v277h-77c-14 0 -28 10 -28 26s14 26 28 26h77v277c0 17 13 30 30 30h190c202 0 332 -147 332 -333zM363 359c14 0 28 -10 28 -26s-14 -26 -28 -26h-160v-253h156c174 0 276 122 276 279s-102 279 -276 279
h-156v-253h160z" />
    <glyph glyph-name="dcroat" unicode="&#x111;" horiz-adv-x="651" 
d="M318 525c-14 0 -26 7 -26 23s12 22 26 22h132v74c0 17 13 30 30 30s30 -13 30 -30v-74h83c14 0 26 -6 26 -22s-12 -23 -26 -23h-83v-503c0 -17 -13 -30 -30 -30s-30 13 -30 30v58c-38 -57 -99 -92 -179 -92c-122 0 -219 96 -219 229s97 229 219 229c80 0 141 -35 179 -92
v171h-132zM112 217c0 -104 68 -178 168 -178c103 0 170 81 170 178s-67 178 -170 178c-100 0 -168 -74 -168 -178z" />
    <glyph glyph-name="Emacron" unicode="&#x112;" horiz-adv-x="583" 
d="M155 317v-263h356c15 0 27 -12 27 -27s-12 -27 -27 -27h-386c-17 0 -30 13 -30 30v606c0 17 13 30 30 30h385c15 0 27 -12 27 -27s-12 -27 -27 -27h-355v-241h206c15 0 27 -12 27 -27s-12 -27 -27 -27h-206zM443 792c11 0 22 -9 22 -22s-11 -22 -22 -22h-245
c-11 0 -22 9 -22 22s11 22 22 22h245z" />
    <glyph glyph-name="emacron" unicode="&#x113;" horiz-adv-x="538" 
d="M275 446c123 0 210 -96 210 -224c0 -14 -12 -25 -25 -25h-347c3 -80 63 -158 168 -158c56 0 100 20 136 63c5 6 12 13 23 13c16 0 25 -12 25 -25c0 -7 -2 -12 -6 -18c-34 -47 -99 -84 -178 -84c-143 0 -229 108 -229 229c0 122 91 229 223 229zM430 247
c-8 84 -69 149 -155 149c-88 0 -152 -67 -160 -149h315zM393 582c11 0 22 -9 22 -22s-11 -22 -22 -22h-225c-11 0 -22 9 -22 22s11 22 22 22h225z" />
    <glyph glyph-name="Ebreve" unicode="&#x114;" horiz-adv-x="583" 
d="M155 317v-263h356c15 0 27 -12 27 -27s-12 -27 -27 -27h-386c-17 0 -30 13 -30 30v606c0 17 13 30 30 30h385c15 0 27 -12 27 -27s-12 -27 -27 -27h-355v-241h206c15 0 27 -12 27 -27s-12 -27 -27 -27h-206zM403 816c0 14 11 23 24 23c12 0 23 -9 23 -22
c0 -70 -53 -96 -134 -96s-134 26 -134 96c0 13 11 22 23 22c13 0 24 -9 24 -23c0 -42 34 -54 87 -54s87 12 87 54z" />
    <glyph glyph-name="ebreve" unicode="&#x115;" horiz-adv-x="538" 
d="M275 446c123 0 210 -96 210 -224c0 -14 -12 -25 -25 -25h-347c3 -80 63 -158 168 -158c56 0 100 20 136 63c5 6 12 13 23 13c16 0 25 -12 25 -25c0 -7 -2 -12 -6 -18c-34 -47 -99 -84 -178 -84c-143 0 -229 108 -229 229c0 122 91 229 223 229zM430 247
c-8 84 -69 149 -155 149c-88 0 -152 -67 -160 -149h315zM355 615c0 14 11 23 24 23c12 0 23 -9 23 -22c0 -70 -47 -106 -124 -106s-124 36 -124 106c0 13 11 22 23 22c13 0 24 -9 24 -23c0 -42 20 -64 77 -64s77 22 77 64z" />
    <glyph glyph-name="Edotaccent" unicode="&#x116;" horiz-adv-x="583" 
d="M155 317v-263h356c15 0 27 -12 27 -27s-12 -27 -27 -27h-386c-17 0 -30 13 -30 30v606c0 17 13 30 30 30h385c15 0 27 -12 27 -27s-12 -27 -27 -27h-355v-241h206c15 0 27 -12 27 -27s-12 -27 -27 -27h-206zM277 779c0 21 17 38 38 38s38 -17 38 -38s-17 -38 -38 -38
s-38 17 -38 38z" />
    <glyph glyph-name="edotaccent" unicode="&#x117;" horiz-adv-x="538" 
d="M275 446c123 0 210 -96 210 -224c0 -14 -12 -25 -25 -25h-347c3 -80 63 -158 168 -158c56 0 100 20 136 63c5 6 12 13 23 13c16 0 25 -12 25 -25c0 -7 -2 -12 -6 -18c-34 -47 -99 -84 -178 -84c-143 0 -229 108 -229 229c0 122 91 229 223 229zM430 247
c-8 84 -69 149 -155 149c-88 0 -152 -67 -160 -149h315zM237 566c0 21 17 38 38 38s38 -17 38 -38s-17 -38 -38 -38s-38 17 -38 38z" />
    <glyph glyph-name="Eogonek" unicode="&#x118;" horiz-adv-x="583" 
d="M490 -137c18 5 28 -4 28 -17c0 -10 -5 -16 -14 -20c-15 -7 -39 -11 -58 -11c-53 0 -83 27 -83 69c0 59 54 94 104 116h-342c-17 0 -30 13 -30 30v606c0 17 13 30 30 30h385c15 0 27 -12 27 -27s-12 -27 -27 -27h-355v-241h206c15 0 27 -12 27 -27s-12 -27 -27 -27h-206
v-263h356c15 0 27 -12 27 -27c0 -11 -7 -20 -16 -25c-54 -31 -109 -64 -109 -114c0 -22 15 -31 41 -31c13 0 25 3 36 6z" />
    <glyph glyph-name="eogonek" unicode="&#x119;" horiz-adv-x="538" 
d="M347 -137c18 5 28 -4 28 -17c0 -10 -5 -16 -14 -20c-15 -7 -39 -11 -58 -11c-53 0 -83 26 -83 68c0 49 53 87 100 108c-13 -2 -26 -3 -39 -3c-143 0 -229 108 -229 229c0 122 91 229 223 229c123 0 210 -96 210 -224c0 -14 -12 -25 -25 -25h-347c3 -80 63 -158 168 -158
c56 0 100 20 136 63c5 6 12 13 23 13c16 0 26 -11 26 -25c0 -7 -3 -12 -7 -18c-15 -20 -33 -35 -56 -50c-56 -36 -133 -87 -133 -134c0 -22 15 -31 41 -31c13 0 25 3 36 6zM430 247c-8 84 -69 149 -155 149c-88 0 -152 -67 -160 -149h315z" />
    <glyph glyph-name="Ecaron" unicode="&#x11a;" horiz-adv-x="583" 
d="M155 317v-263h356c15 0 27 -12 27 -27s-12 -27 -27 -27h-386c-17 0 -30 13 -30 30v606c0 17 13 30 30 30h385c15 0 27 -12 27 -27s-12 -27 -27 -27h-355v-241h206c15 0 27 -12 27 -27s-12 -27 -27 -27h-206zM425 798l-91 -69c-7 -5 -11 -8 -19 -8s-12 3 -19 8l-91 69
c-5 5 -9 9 -9 19c0 11 11 20 23 20c7 0 11 -2 16 -6l80 -57l80 57c5 4 9 6 16 6c12 0 23 -9 23 -20c0 -10 -4 -14 -9 -19z" />
    <glyph glyph-name="ecaron" unicode="&#x11b;" horiz-adv-x="538" 
d="M275 446c123 0 210 -96 210 -224c0 -14 -12 -25 -25 -25h-347c3 -80 63 -158 168 -158c56 0 100 20 136 63c5 6 12 13 23 13c16 0 25 -12 25 -25c0 -7 -2 -12 -6 -18c-34 -47 -99 -84 -178 -84c-143 0 -229 108 -229 229c0 122 91 229 223 229zM430 247
c-8 84 -69 149 -155 149c-88 0 -152 -67 -160 -149h315zM391 604l-95 -88c-6 -6 -11 -8 -19 -8s-13 2 -19 8l-95 88c-5 5 -9 9 -9 19c0 11 11 20 23 20c7 0 11 -2 16 -6l84 -74l84 74c5 4 9 6 16 6c12 0 23 -9 23 -20c0 -10 -4 -14 -9 -19z" />
    <glyph glyph-name="Gcircumflex" unicode="&#x11c;" horiz-adv-x="731" 
d="M669 123c0 -10 -3 -17 -8 -23c-54 -61 -150 -112 -270 -112c-224 0 -333 173 -333 345c0 194 138 345 333 345c91 0 174 -34 230 -93c5 -6 8 -13 8 -21c0 -15 -11 -26 -27 -26c-8 0 -15 2 -21 8c-51 49 -112 77 -190 77c-165 0 -273 -133 -273 -290
c0 -156 93 -294 275 -294c87 0 166 33 218 85v148h-191c-14 0 -26 11 -26 26s12 26 26 26h220c16 0 29 -11 29 -28v-173zM406 831l91 -69c5 -5 9 -9 9 -19c0 -11 -11 -20 -23 -20c-7 0 -11 2 -16 6l-80 57l-80 -57c-5 -4 -9 -6 -16 -6c-12 0 -23 9 -23 20c0 10 4 14 9 19
l91 69c7 5 11 8 19 8s12 -3 19 -8z" />
    <glyph glyph-name="gcircumflex" unicode="&#x11d;" horiz-adv-x="590" 
d="M450 94c-35 -57 -105 -92 -176 -92c-122 0 -222 87 -222 222s100 222 222 222c89 0 150 -49 176 -92v58c0 17 13 30 30 30s30 -13 30 -30v-377c0 -135 -70 -230 -230 -230c-78 0 -139 21 -178 45c-9 5 -18 13 -18 26c0 14 10 22 23 22c9 0 18 -4 26 -8
c41 -22 89 -36 147 -36c124 0 170 75 170 177v63zM111 224c0 -105 69 -173 169 -173c96 0 170 79 170 173s-74 173 -170 173c-100 0 -169 -68 -169 -173zM318 638l95 -88c5 -5 9 -9 9 -19c0 -11 -11 -20 -23 -20c-7 0 -11 2 -16 6l-84 74l-84 -74c-5 -4 -9 -6 -16 -6
c-12 0 -23 9 -23 20c0 10 4 14 9 19l95 88c6 6 11 8 19 8s13 -2 19 -8z" />
    <glyph glyph-name="Gbreve" unicode="&#x11e;" horiz-adv-x="731" 
d="M669 123c0 -10 -3 -17 -8 -23c-54 -61 -150 -112 -270 -112c-224 0 -333 173 -333 345c0 194 138 345 333 345c91 0 174 -34 230 -93c5 -6 8 -13 8 -21c0 -15 -11 -26 -27 -26c-8 0 -15 2 -21 8c-51 49 -112 77 -190 77c-165 0 -273 -133 -273 -290
c0 -156 93 -294 275 -294c87 0 166 33 218 85v148h-191c-14 0 -26 11 -26 26s12 26 26 26h220c16 0 29 -11 29 -28v-173zM470 816c0 14 11 23 24 23c12 0 23 -9 23 -22c0 -70 -53 -96 -134 -96s-134 26 -134 96c0 13 11 22 23 22c13 0 24 -9 24 -23c0 -42 34 -54 87 -54
s87 12 87 54z" />
    <glyph glyph-name="gbreve" unicode="&#x11f;" horiz-adv-x="590" 
d="M450 94c-35 -57 -105 -92 -176 -92c-122 0 -222 87 -222 222s100 222 222 222c89 0 150 -49 176 -92v58c0 17 13 30 30 30s30 -13 30 -30v-377c0 -135 -70 -230 -230 -230c-78 0 -139 21 -178 45c-9 5 -18 13 -18 26c0 14 10 22 23 22c9 0 18 -4 26 -8
c41 -22 89 -36 147 -36c124 0 170 75 170 177v63zM111 224c0 -105 69 -173 169 -173c96 0 170 79 170 173s-74 173 -170 173c-100 0 -169 -68 -169 -173zM376 615c0 14 11 23 24 23c12 0 23 -9 23 -22c0 -70 -47 -106 -124 -106s-124 36 -124 106c0 13 11 22 23 22
c13 0 24 -9 24 -23c0 -42 20 -64 77 -64s77 22 77 64z" />
    <glyph glyph-name="Gdotaccent" unicode="&#x120;" horiz-adv-x="731" 
d="M669 123c0 -10 -3 -17 -8 -23c-54 -61 -150 -112 -270 -112c-224 0 -333 173 -333 345c0 194 138 345 333 345c91 0 174 -34 230 -93c5 -6 8 -13 8 -21c0 -15 -11 -26 -27 -26c-8 0 -15 2 -21 8c-51 49 -112 77 -190 77c-165 0 -273 -133 -273 -290
c0 -156 93 -294 275 -294c87 0 166 33 218 85v148h-191c-14 0 -26 11 -26 26s12 26 26 26h220c16 0 29 -11 29 -28v-173zM346 779c0 21 17 38 38 38s38 -17 38 -38s-17 -38 -38 -38s-38 17 -38 38z" />
    <glyph glyph-name="gdotaccent" unicode="&#x121;" horiz-adv-x="590" 
d="M450 94c-35 -57 -105 -92 -176 -92c-122 0 -222 87 -222 222s100 222 222 222c89 0 150 -49 176 -92v58c0 17 13 30 30 30s30 -13 30 -30v-377c0 -135 -70 -230 -230 -230c-78 0 -139 21 -178 45c-9 5 -18 13 -18 26c0 14 10 22 23 22c9 0 18 -4 26 -8
c41 -22 89 -36 147 -36c124 0 170 75 170 177v63zM111 224c0 -105 69 -173 169 -173c96 0 170 79 170 173s-74 173 -170 173c-100 0 -169 -68 -169 -173zM254 566c0 21 17 38 38 38s38 -17 38 -38s-17 -38 -38 -38s-38 17 -38 38z" />
    <glyph glyph-name="Gcommaaccent" unicode="&#x122;" horiz-adv-x="731" 
d="M669 123c0 -10 -3 -17 -8 -23c-54 -61 -150 -112 -270 -112c-224 0 -333 173 -333 345c0 194 138 345 333 345c91 0 174 -34 230 -93c5 -6 8 -13 8 -21c0 -15 -11 -26 -27 -26c-8 0 -15 2 -21 8c-51 49 -112 77 -190 77c-165 0 -273 -133 -273 -290
c0 -156 93 -294 275 -294c87 0 166 33 218 85v148h-191c-14 0 -26 11 -26 26s12 26 26 26h220c16 0 29 -11 29 -28v-173zM437 -135c0 -37 -4 -78 -17 -119c-4 -14 -13 -27 -30 -27c-16 0 -25 10 -25 24c0 8 3 14 5 20c12 37 15 70 15 98v36c0 16 9 28 26 28s26 -12 26 -28
v-32z" />
    <glyph glyph-name="gcommaaccent" unicode="&#x123;" horiz-adv-x="590" 
d="M259 578c0 37 4 73 17 114c4 14 13 27 30 27c16 0 25 -10 25 -24c0 -8 -3 -14 -5 -20c-12 -37 -15 -60 -15 -93v-29c0 -16 -9 -28 -26 -28s-26 12 -26 28v25zM450 94c-35 -57 -105 -92 -176 -92c-122 0 -222 87 -222 222s100 222 222 222c89 0 150 -49 176 -92v58
c0 17 13 30 30 30s30 -13 30 -30v-377c0 -135 -70 -230 -230 -230c-78 0 -139 21 -178 45c-9 5 -18 13 -18 26c0 14 10 22 23 22c9 0 18 -4 26 -8c41 -22 89 -36 147 -36c124 0 170 75 170 177v63zM111 224c0 -105 69 -173 169 -173c96 0 170 79 170 173s-74 173 -170 173
c-100 0 -169 -68 -169 -173z" />
    <glyph glyph-name="Hcircumflex" unicode="&#x124;" horiz-adv-x="715" 
d="M95 22v622c0 17 13 30 30 30s30 -13 30 -30v-277h405v277c0 17 13 30 30 30s30 -13 30 -30v-622c0 -17 -13 -30 -30 -30s-30 13 -30 30v290h-405v-290c0 -17 -13 -30 -30 -30s-30 13 -30 30zM376 831l91 -69c5 -5 9 -9 9 -19c0 -11 -11 -20 -23 -20c-7 0 -11 2 -16 6
l-80 57l-80 -57c-5 -4 -9 -6 -16 -6c-12 0 -23 9 -23 20c0 10 4 14 9 19l91 69c7 5 11 8 19 8s12 -3 19 -8z" />
    <glyph glyph-name="hcircumflex" unicode="&#x125;" horiz-adv-x="565" 
d="M490 245v-223c0 -17 -13 -30 -30 -30s-30 13 -30 30v222c0 90 -47 147 -140 147c-85 0 -150 -62 -150 -160v-209c0 -17 -13 -30 -30 -30s-30 13 -30 30v622c0 17 13 30 30 30s30 -13 30 -30v-284c32 55 90 86 163 86c116 0 187 -85 187 -201zM130 831l91 -69
c5 -5 9 -9 9 -19c0 -11 -11 -20 -23 -20c-7 0 -11 2 -16 6l-80 57l-80 -57c-5 -4 -9 -6 -16 -6c-12 0 -23 9 -23 20c0 10 4 14 9 19l91 69c7 5 11 8 19 8s12 -3 19 -8z" />
    <glyph glyph-name="Hbar" unicode="&#x126;" horiz-adv-x="791" 
d="M61 498c-14 0 -26 6 -26 22s12 22 26 22h72v102c0 17 13 30 30 30s30 -13 30 -30v-102h405v102c0 17 13 30 30 30s30 -13 30 -30v-102h72c14 0 26 -6 26 -22s-12 -22 -26 -22h-72v-476c0 -17 -13 -30 -30 -30s-30 13 -30 30v290h-405v-290c0 -17 -13 -30 -30 -30
s-30 13 -30 30v476h-72zM193 367h405v131h-405v-131z" />
    <glyph glyph-name="hbar" unicode="&#x127;" horiz-adv-x="599" 
d="M41 525c-14 0 -26 7 -26 23s12 21 26 21h73v75c0 17 13 30 30 30s30 -13 30 -30v-75h142c14 0 26 -5 26 -21s-12 -23 -26 -23h-142v-165c32 55 90 86 163 86c116 0 187 -85 187 -201v-223c0 -17 -13 -30 -30 -30s-30 13 -30 30v222c0 90 -47 147 -140 147
c-85 0 -150 -62 -150 -160v-209c0 -17 -13 -30 -30 -30s-30 13 -30 30v503h-73z" />
    <glyph glyph-name="Itilde" unicode="&#x128;" horiz-adv-x="260" 
d="M160 22c0 -17 -13 -30 -30 -30s-30 13 -30 30v622c0 17 13 30 30 30s30 -13 30 -30v-622zM187 727c-22 0 -36 8 -59 21c-20 11 -30 18 -47 18c-13 0 -24 -4 -37 -19l-11 -12c-4 -4 -9 -9 -19 -9c-11 0 -23 9 -23 21c0 6 2 11 6 16c3 4 6 8 10 13c20 25 41 37 74 37
c18 0 33 -4 51 -14c24 -13 39 -25 54 -25c14 0 20 6 35 21l10 10c4 4 9 9 19 9c11 0 23 -8 23 -20c0 -7 -2 -12 -6 -17c-3 -4 -8 -10 -12 -15c-18 -20 -39 -35 -68 -35z" />
    <glyph glyph-name="itilde" unicode="&#x129;" horiz-adv-x="220" 
d="M140 22c0 -17 -13 -30 -30 -30s-30 13 -30 30v390c0 17 13 30 30 30s30 -13 30 -30v-390zM165 519c-22 0 -36 8 -59 21c-20 11 -30 18 -47 18c-13 0 -24 -4 -37 -19l-11 -12c-4 -4 -9 -9 -19 -9c-11 0 -23 9 -23 21c0 6 2 11 6 16c3 4 6 8 10 13c20 25 41 37 74 37
c18 0 33 -4 51 -14c24 -13 39 -25 54 -25c14 0 20 6 35 21l10 10c4 4 9 9 19 9c11 0 23 -8 23 -20c0 -7 -2 -12 -6 -17c-3 -4 -8 -10 -12 -15c-18 -20 -39 -35 -68 -35z" />
    <glyph glyph-name="Imacron" unicode="&#x12a;" horiz-adv-x="260" 
d="M160 22c0 -17 -13 -30 -30 -30s-30 13 -30 30v622c0 17 13 30 30 30s30 -13 30 -30v-622zM252 792c11 0 22 -9 22 -22s-11 -22 -22 -22h-245c-11 0 -22 9 -22 22s11 22 22 22h245z" />
    <glyph glyph-name="imacron" unicode="&#x12b;" horiz-adv-x="220" 
d="M140 22c0 -17 -13 -30 -30 -30s-30 13 -30 30v390c0 17 13 30 30 30s30 -13 30 -30v-390zM223 582c11 0 22 -9 22 -22s-11 -22 -22 -22h-225c-11 0 -22 9 -22 22s11 22 22 22h225z" />
    <glyph glyph-name="Ibreve" unicode="&#x12c;" horiz-adv-x="260" 
d="M160 22c0 -17 -13 -30 -30 -30s-30 13 -30 30v622c0 17 13 30 30 30s30 -13 30 -30v-622zM217 816c0 14 11 23 24 23c12 0 23 -9 23 -22c0 -70 -53 -96 -134 -96s-134 26 -134 96c0 13 11 22 23 22c13 0 24 -9 24 -23c0 -42 34 -54 87 -54s87 12 87 54z" />
    <glyph glyph-name="ibreve" unicode="&#x12d;" horiz-adv-x="220" 
d="M140 22c0 -17 -13 -30 -30 -30s-30 13 -30 30v390c0 17 13 30 30 30s30 -13 30 -30v-390zM187 615c0 14 11 23 24 23c12 0 23 -9 23 -22c0 -70 -47 -106 -124 -106s-124 36 -124 106c0 13 11 22 23 22c13 0 24 -9 24 -23c0 -42 20 -64 77 -64s77 22 77 64z" />
    <glyph glyph-name="Iogonek" unicode="&#x12e;" horiz-adv-x="260" 
d="M150 -142c13 0 20 -7 20 -19c0 -11 -6 -18 -18 -21c-9 -2 -18 -3 -28 -3c-60 0 -75 36 -75 70c0 51 34 84 65 112c-9 4 -14 14 -14 25v622c0 17 13 30 30 30s30 -13 30 -30v-622c0 -11 -4 -17 -9 -22c-34 -39 -52 -73 -52 -109c0 -18 4 -34 34 -34c7 0 13 1 17 1z" />
    <glyph glyph-name="iogonek" unicode="&#x12f;" horiz-adv-x="220" 
d="M130 -142c13 0 20 -7 20 -19c0 -11 -6 -18 -18 -21c-9 -2 -18 -3 -28 -3c-60 0 -75 36 -75 70c0 51 34 84 65 112c-9 4 -14 14 -14 25v390c0 17 13 30 30 30s30 -13 30 -30v-390c0 -11 -4 -17 -9 -22c-34 -39 -52 -73 -52 -109c0 -18 4 -34 34 -34c7 0 13 1 17 1zM72 566
c0 21 17 38 38 38s38 -17 38 -38s-17 -38 -38 -38s-38 17 -38 38z" />
    <glyph glyph-name="Idotaccent" unicode="&#x130;" horiz-adv-x="260" 
d="M160 22c0 -17 -13 -30 -30 -30s-30 13 -30 30v622c0 17 13 30 30 30s30 -13 30 -30v-622zM92 779c0 21 17 38 38 38s38 -17 38 -38s-17 -38 -38 -38s-38 17 -38 38z" />
    <glyph glyph-name="dotlessi" unicode="&#x131;" horiz-adv-x="220" 
d="M140 22c0 -17 -13 -30 -30 -30s-30 13 -30 30v390c0 17 13 30 30 30s30 -13 30 -30v-390z" />
    <glyph glyph-name="IJ" unicode="&#x132;" horiz-adv-x="851" 
d="M160 22c0 -17 -13 -30 -30 -30s-30 13 -30 30v622c0 17 13 30 30 30s30 -13 30 -30v-622zM523 41c119 0 178 79 178 207v396c0 17 13 30 30 30s30 -13 30 -30v-394c0 -149 -74 -262 -237 -262c-128 0 -201 75 -227 181c-1 4 -2 11 -2 14c0 19 12 29 29 29
c16 0 24 -9 27 -24c21 -92 72 -147 172 -147z" />
    <glyph glyph-name="ij" unicode="&#x133;" horiz-adv-x="440" 
d="M140 22c0 -17 -13 -30 -30 -30s-30 13 -30 30v390c0 17 13 30 30 30s30 -13 30 -30v-390zM72 566c0 21 17 38 38 38s38 -17 38 -38s-17 -38 -38 -38s-38 17 -38 38zM214 -145c75 0 86 32 86 102v455c0 17 13 30 30 30s30 -13 30 -30v-459c0 -100 -34 -148 -141 -148h-17
c-14 0 -25 11 -25 25s11 25 25 25h12zM292 566c0 21 17 38 38 38s38 -17 38 -38s-17 -38 -38 -38s-38 17 -38 38z" />
    <glyph glyph-name="Jcircumflex" unicode="&#x134;" horiz-adv-x="591" 
d="M263 41c119 0 178 79 178 207v396c0 17 13 30 30 30s30 -13 30 -30v-394c0 -149 -74 -262 -237 -262c-128 0 -201 75 -227 181c-1 4 -2 11 -2 14c0 19 12 29 29 29c16 0 24 -9 27 -24c21 -92 72 -147 172 -147zM492 831l91 -69c5 -5 9 -9 9 -19c0 -11 -11 -20 -23 -20
c-7 0 -11 2 -16 6l-80 57l-80 -57c-5 -4 -9 -6 -16 -6c-12 0 -23 9 -23 20c0 10 4 14 9 19l91 69c7 5 11 8 19 8s12 -3 19 -8z" />
    <glyph glyph-name="jcircumflex" unicode="&#x135;" horiz-adv-x="220" 
d="M-8 -145c75 0 86 32 86 102v455c0 17 13 30 30 30s30 -13 30 -30v-459c0 -100 -34 -148 -141 -148h-17c-14 0 -25 11 -25 25s11 25 25 25h12zM126 638l95 -88c5 -5 9 -9 9 -19c0 -11 -11 -20 -23 -20c-7 0 -11 2 -16 6l-84 74l-84 -74c-5 -4 -9 -6 -16 -6
c-12 0 -23 9 -23 20c0 10 4 14 9 19l95 88c6 6 11 8 19 8s13 -2 19 -8z" />
    <glyph glyph-name="Kcommaaccent" unicode="&#x136;" horiz-adv-x="661" 
d="M155 285l387 381c6 6 12 8 20 8c18 0 29 -13 29 -26c0 -10 -2 -15 -9 -22l-220 -216l238 -373c4 -7 6 -11 6 -18c0 -14 -11 -27 -29 -27c-14 0 -20 6 -25 14l-232 364l-165 -162v-186c0 -17 -13 -30 -30 -30s-30 13 -30 30v622c0 17 13 30 30 30s30 -13 30 -30v-359z
M357 -135c0 -37 -4 -78 -17 -119c-4 -14 -13 -27 -30 -27c-16 0 -25 10 -25 24c0 8 3 14 5 20c12 37 15 70 15 98v36c0 16 9 28 26 28s26 -12 26 -28v-32z" />
    <glyph glyph-name="kcommaaccent" unicode="&#x137;" horiz-adv-x="480" 
d="M140 172v-150c0 -17 -13 -30 -30 -30s-30 13 -30 30v622c0 17 13 30 30 30s30 -13 30 -30v-404l244 194c6 5 12 8 20 8c16 0 27 -14 27 -27c0 -9 -4 -15 -14 -23l-167 -132l182 -222c6 -8 8 -13 8 -19c0 -15 -13 -27 -30 -27c-9 0 -15 5 -21 12l-182 222zM272 -135
c0 -37 -4 -78 -17 -119c-4 -14 -13 -27 -30 -27c-16 0 -25 10 -25 24c0 8 3 14 5 20c12 37 15 70 15 98v36c0 16 9 28 26 28s26 -12 26 -28v-32z" />
    <glyph glyph-name="kgreenlandic" unicode="&#x138;" horiz-adv-x="480" 
d="M140 172v-150c0 -17 -13 -30 -30 -30s-30 13 -30 30v390c0 17 13 30 30 30s30 -13 30 -30v-172l244 194c6 5 12 8 20 8c16 0 27 -14 27 -27c0 -9 -4 -15 -14 -23l-167 -132l182 -222c6 -8 8 -13 8 -19c0 -15 -13 -27 -30 -27c-9 0 -15 5 -21 12l-182 222z" />
    <glyph glyph-name="Lacute" unicode="&#x139;" horiz-adv-x="575" 
d="M155 54h358c15 0 27 -12 27 -27s-12 -27 -27 -27h-388c-17 0 -30 13 -30 30v614c0 17 13 30 30 30s30 -13 30 -30v-590zM103 765l55 62c5 6 14 12 24 12c15 0 25 -12 25 -23c0 -9 -2 -13 -8 -20l-55 -59c-9 -10 -15 -14 -24 -14c-14 0 -25 11 -25 23c0 7 3 13 8 19z" />
    <glyph glyph-name="lacute" unicode="&#x13a;" horiz-adv-x="220" 
d="M140 22c0 -17 -13 -30 -30 -30s-30 13 -30 30v622c0 17 13 30 30 30s30 -13 30 -30v-622zM89 765l55 62c5 6 14 12 24 12c15 0 25 -12 25 -23c0 -9 -2 -13 -8 -20l-55 -59c-9 -10 -15 -14 -24 -14c-14 0 -25 11 -25 23c0 7 3 13 8 19z" />
    <glyph glyph-name="Lcommaaccent" unicode="&#x13b;" horiz-adv-x="575" 
d="M155 54h358c15 0 27 -12 27 -27s-12 -27 -27 -27h-388c-17 0 -30 13 -30 30v614c0 17 13 30 30 30s30 -13 30 -30v-590zM337 -135c0 -37 -4 -78 -17 -119c-4 -14 -13 -27 -30 -27c-16 0 -25 10 -25 24c0 8 3 14 5 20c12 37 15 70 15 98v36c0 16 9 28 26 28s26 -12 26 -28
v-32z" />
    <glyph glyph-name="lcommaaccent" unicode="&#x13c;" horiz-adv-x="220" 
d="M140 22c0 -17 -13 -30 -30 -30s-30 13 -30 30v622c0 17 13 30 30 30s30 -13 30 -30v-622zM134 -135c0 -37 -4 -78 -17 -119c-4 -14 -13 -27 -30 -27c-16 0 -25 10 -25 24c0 8 3 14 5 20c12 37 15 70 15 98v36c0 16 9 28 26 28s26 -12 26 -28v-32z" />
    <glyph glyph-name="Lcaron" unicode="&#x13d;" horiz-adv-x="575" 
d="M155 54h358c15 0 27 -12 27 -27s-12 -27 -27 -27h-388c-17 0 -30 13 -30 30v614c0 17 13 30 30 30s30 -13 30 -30v-590zM403 614c0 -37 -4 -78 -17 -119c-4 -14 -13 -27 -30 -27c-16 0 -25 10 -25 24c0 8 3 14 5 20c12 37 15 70 15 98v36c0 16 9 28 26 28s26 -12 26 -28
v-32z" />
    <glyph glyph-name="lcaron" unicode="&#x13e;" horiz-adv-x="352" 
d="M140 22c0 -17 -13 -30 -30 -30s-30 13 -30 30v622c0 17 13 30 30 30s30 -13 30 -30v-622zM326 614c0 -37 -4 -78 -17 -119c-4 -14 -13 -27 -30 -27c-16 0 -25 10 -25 24c0 8 3 14 5 20c12 37 15 70 15 98v36c0 16 9 28 26 28s26 -12 26 -28v-32z" />
    <glyph glyph-name="Ldot" unicode="&#x13f;" horiz-adv-x="575" 
d="M155 54h358c15 0 27 -12 27 -27s-12 -27 -27 -27h-388c-17 0 -30 13 -30 30v614c0 17 13 30 30 30s30 -13 30 -30v-590zM312 317c0 23 19 42 42 42s42 -19 42 -42s-19 -42 -42 -42s-42 19 -42 42z" />
    <glyph glyph-name="ldot" unicode="&#x140;" horiz-adv-x="352" 
d="M140 22c0 -17 -13 -30 -30 -30s-30 13 -30 30v622c0 17 13 30 30 30s30 -13 30 -30v-622zM231 251c0 23 19 42 42 42s42 -19 42 -42s-19 -42 -42 -42s-42 19 -42 42z" />
    <glyph glyph-name="Lslash" unicode="&#x141;" horiz-adv-x="605" 
d="M40 334l85 25v285c0 17 13 30 30 30s30 -13 30 -30v-268l191 56c3 1 8 2 12 2c14 0 27 -9 27 -25c0 -15 -10 -23 -20 -26l-210 -61v-268h358c15 0 27 -12 27 -27s-12 -27 -27 -27h-388c-17 0 -30 13 -30 30v275l-66 -19c-3 -1 -8 -2 -12 -2c-14 0 -27 9 -27 24
s10 23 20 26z" />
    <glyph glyph-name="lslash" unicode="&#x142;" horiz-adv-x="323" 
d="M60 374l68 20v250c0 17 13 30 30 30s30 -13 30 -30v-233l73 21c3 1 8 2 12 2c14 0 27 -9 27 -25c0 -15 -10 -23 -20 -26l-92 -26v-335c0 -17 -13 -30 -30 -30s-30 13 -30 30v318l-49 -14c-3 -1 -8 -2 -12 -2c-14 0 -27 9 -27 24s10 23 20 26z" />
    <glyph glyph-name="Nacute" unicode="&#x143;" horiz-adv-x="723" 
d="M628 20c0 -15 -10 -28 -29 -28c-11 0 -17 5 -23 13l-424 559v-544c0 -15 -12 -28 -28 -28c-17 0 -29 13 -29 28v625c0 17 12 29 30 29c10 0 18 -6 23 -13l423 -560v544c0 17 12 29 29 29s28 -13 28 -29v-625zM332 765l55 62c5 6 14 12 24 12c15 0 25 -12 25 -23
c0 -9 -2 -13 -8 -20l-55 -59c-9 -10 -15 -14 -24 -14c-14 0 -25 11 -25 23c0 7 3 13 8 19z" />
    <glyph glyph-name="nacute" unicode="&#x144;" horiz-adv-x="565" 
d="M490 245v-223c0 -17 -13 -30 -30 -30s-30 13 -30 30v222c0 90 -47 147 -140 147c-85 0 -150 -62 -150 -160v-209c0 -17 -13 -30 -30 -30s-30 13 -30 30v390c0 17 13 30 30 30s30 -13 30 -30v-52c32 55 90 86 163 86c116 0 187 -85 187 -201zM229 536c0 6 2 10 6 16
l72 102c4 6 12 11 21 11c13 0 25 -8 25 -23c0 -8 -3 -13 -6 -17l-69 -97c-6 -8 -12 -16 -25 -16s-24 11 -24 24z" />
    <glyph glyph-name="Ncommaaccent" unicode="&#x145;" horiz-adv-x="723" 
d="M628 20c0 -15 -10 -28 -29 -28c-11 0 -17 5 -23 13l-424 559v-544c0 -15 -12 -28 -28 -28c-17 0 -29 13 -29 28v625c0 17 12 29 30 29c10 0 18 -6 23 -13l423 -560v544c0 17 12 29 29 29s28 -13 28 -29v-625zM377 -135c0 -37 -4 -78 -17 -119c-4 -14 -13 -27 -30 -27
c-16 0 -25 10 -25 24c0 8 3 14 5 20c12 37 15 70 15 98v36c0 16 9 28 26 28s26 -12 26 -28v-32z" />
    <glyph glyph-name="ncommaaccent" unicode="&#x146;" horiz-adv-x="565" 
d="M490 245v-223c0 -17 -13 -30 -30 -30s-30 13 -30 30v222c0 90 -47 147 -140 147c-85 0 -150 -62 -150 -160v-209c0 -17 -13 -30 -30 -30s-30 13 -30 30v390c0 17 13 30 30 30s30 -13 30 -30v-52c32 55 90 86 163 86c116 0 187 -85 187 -201zM311 -135
c0 -37 -4 -78 -17 -119c-4 -14 -13 -27 -30 -27c-16 0 -25 10 -25 24c0 8 3 14 5 20c12 37 15 70 15 98v36c0 16 9 28 26 28s26 -12 26 -28v-32z" />
    <glyph glyph-name="Ncaron" unicode="&#x147;" horiz-adv-x="723" 
d="M628 20c0 -15 -10 -28 -29 -28c-11 0 -17 5 -23 13l-424 559v-544c0 -15 -12 -28 -28 -28c-17 0 -29 13 -29 28v625c0 17 12 29 30 29c10 0 18 -6 23 -13l423 -560v544c0 17 12 29 29 29s28 -13 28 -29v-625zM474 798l-91 -69c-7 -5 -11 -8 -19 -8s-12 3 -19 8l-91 69
c-5 5 -9 9 -9 19c0 11 11 20 23 20c7 0 11 -2 16 -6l80 -57l80 57c5 4 9 6 16 6c12 0 23 -9 23 -20c0 -10 -4 -14 -9 -19z" />
    <glyph glyph-name="ncaron" unicode="&#x148;" horiz-adv-x="565" 
d="M490 245v-223c0 -17 -13 -30 -30 -30s-30 13 -30 30v222c0 90 -47 147 -140 147c-85 0 -150 -62 -150 -160v-209c0 -17 -13 -30 -30 -30s-30 13 -30 30v390c0 17 13 30 30 30s30 -13 30 -30v-52c32 55 90 86 163 86c116 0 187 -85 187 -201zM397 604l-95 -88
c-6 -6 -11 -8 -19 -8s-13 2 -19 8l-95 88c-5 5 -9 9 -9 19c0 11 11 20 23 20c7 0 11 -2 16 -6l84 -74l84 74c5 4 9 6 16 6c12 0 23 -9 23 -20c0 -10 -4 -14 -9 -19z" />
    <glyph glyph-name="napostrophe" unicode="&#x149;" horiz-adv-x="631" 
d="M84 646v-48c0 -56 -5 -107 -27 -157c-4 -10 -11 -20 -28 -20c-13 0 -24 10 -24 22c0 7 3 13 4 16c19 47 23 86 23 136v51c0 16 10 28 26 28s26 -12 26 -28zM556 245v-223c0 -17 -13 -30 -30 -30s-30 13 -30 30v222c0 90 -47 147 -140 147c-85 0 -150 -62 -150 -160v-209
c0 -17 -13 -30 -30 -30s-30 13 -30 30v390c0 17 13 30 30 30s30 -13 30 -30v-52c32 55 90 86 163 86c116 0 187 -85 187 -201z" />
    <glyph glyph-name="Eng" unicode="&#x14a;" horiz-adv-x="723" 
d="M628 -47c0 -100 -34 -148 -141 -148h-17c-14 0 -25 11 -25 25s11 25 25 25h12c75 0 89 29 89 99v57l-419 553v-544c0 -15 -12 -28 -28 -28c-17 0 -29 13 -29 28v625c0 17 12 29 30 29c10 0 18 -6 23 -13l423 -560v544c0 17 12 29 29 29s28 -13 28 -29v-692z" />
    <glyph glyph-name="eng" unicode="&#x14b;" horiz-adv-x="565" 
d="M430 244c0 90 -47 147 -140 147c-85 0 -150 -62 -150 -160v-209c0 -17 -13 -30 -30 -30s-30 13 -30 30v390c0 17 13 30 30 30s30 -13 30 -30v-52c32 55 90 86 163 86c116 0 187 -85 187 -201v-167c0 -94 -41 -190 -128 -267c-4 -4 -10 -6 -15 -6c-18 0 -32 12 -32 27
c0 6 0 13 8 19c65 55 107 128 107 226v167z" />
    <glyph glyph-name="Omacron" unicode="&#x14c;" horiz-adv-x="774" 
d="M722 333c0 -186 -134 -345 -334 -345s-336 159 -336 345s136 345 336 345s334 -159 334 -345zM662 333c0 153 -102 292 -274 292s-276 -139 -276 -292s104 -292 276 -292s274 139 274 292zM510 792c11 0 22 -9 22 -22s-11 -22 -22 -22h-245c-11 0 -22 9 -22 22
s11 22 22 22h245z" />
    <glyph glyph-name="omacron" unicode="&#x14d;" horiz-adv-x="560" 
d="M508 217c0 -127 -94 -229 -228 -229s-228 102 -228 229s94 229 228 229s228 -102 228 -229zM448 217c0 102 -74 177 -168 177s-168 -75 -168 -177s74 -177 168 -177s168 75 168 177zM393 582c11 0 22 -9 22 -22s-11 -22 -22 -22h-225c-11 0 -22 9 -22 22s11 22 22 22h225
z" />
    <glyph glyph-name="Obreve" unicode="&#x14e;" horiz-adv-x="774" 
d="M722 333c0 -186 -134 -345 -334 -345s-336 159 -336 345s136 345 336 345s334 -159 334 -345zM662 333c0 153 -102 292 -274 292s-276 -139 -276 -292s104 -292 276 -292s274 139 274 292zM474 816c0 14 11 23 24 23c12 0 23 -9 23 -22c0 -70 -53 -96 -134 -96
s-134 26 -134 96c0 13 11 22 23 22c13 0 24 -9 24 -23c0 -42 34 -54 87 -54s87 12 87 54z" />
    <glyph glyph-name="obreve" unicode="&#x14f;" horiz-adv-x="560" 
d="M508 217c0 -127 -94 -229 -228 -229s-228 102 -228 229s94 229 228 229s228 -102 228 -229zM448 217c0 102 -74 177 -168 177s-168 -75 -168 -177s74 -177 168 -177s168 75 168 177zM366 615c0 14 11 23 24 23c12 0 23 -9 23 -22c0 -70 -47 -106 -124 -106
s-124 36 -124 106c0 13 11 22 23 22c13 0 24 -9 24 -23c0 -42 20 -64 77 -64s77 22 77 64z" />
    <glyph glyph-name="Ohungarumlaut" unicode="&#x150;" horiz-adv-x="774" 
d="M722 333c0 -186 -134 -345 -334 -345s-336 159 -336 345s136 345 336 345s334 -159 334 -345zM662 333c0 153 -102 292 -274 292s-276 -139 -276 -292s104 -292 276 -292s274 139 274 292zM295 747c0 6 2 10 6 16l45 65c4 6 12 11 21 11c13 0 25 -8 25 -23
c0 -8 -3 -13 -6 -17l-42 -60c-6 -8 -12 -16 -25 -16s-24 11 -24 24zM455 747c0 6 2 10 6 16l45 65c4 6 12 11 21 11c13 0 25 -8 25 -23c0 -8 -3 -13 -6 -17l-42 -60c-6 -8 -12 -16 -25 -16s-24 11 -24 24z" />
    <glyph glyph-name="ohungarumlaut" unicode="&#x151;" horiz-adv-x="560" 
d="M508 217c0 -127 -94 -229 -228 -229s-228 102 -228 229s94 229 228 229s228 -102 228 -229zM448 217c0 102 -74 177 -168 177s-168 -75 -168 -177s74 -177 168 -177s168 75 168 177zM179 536c0 6 2 10 6 16l72 102c4 6 12 11 21 11c13 0 25 -8 25 -23c0 -8 -3 -13 -6 -17
l-69 -97c-6 -8 -12 -16 -25 -16s-24 11 -24 24zM339 536c0 6 2 10 6 16l72 102c4 6 12 11 21 11c13 0 25 -8 25 -23c0 -8 -3 -13 -6 -17l-69 -97c-6 -8 -12 -16 -25 -16s-24 11 -24 24z" />
    <glyph glyph-name="OE" unicode="&#x152;" horiz-adv-x="1150" 
d="M722 317v-263h356c15 0 27 -12 27 -27s-12 -27 -27 -27h-386c-17 0 -30 13 -30 30v111c-56 -92 -154 -153 -274 -153c-200 0 -336 159 -336 345s136 345 336 345c120 0 216 -61 274 -153v111c0 17 13 30 30 30h385c15 0 27 -12 27 -27s-12 -27 -27 -27h-355v-241h206
c15 0 27 -12 27 -27s-12 -27 -27 -27h-206zM662 333c0 153 -102 292 -274 292s-276 -139 -276 -292s104 -292 276 -292s274 139 274 292z" />
    <glyph glyph-name="oe" unicode="&#x153;" horiz-adv-x="934" 
d="M671 446c123 0 210 -96 210 -224c0 -14 -12 -25 -25 -25h-347c3 -80 63 -158 168 -158c56 0 100 20 136 63c5 6 12 13 23 13c16 0 25 -12 25 -25c0 -7 -2 -12 -6 -18c-34 -47 -99 -84 -178 -84c-94 0 -163 46 -199 111c-38 -67 -110 -111 -198 -111
c-134 0 -228 102 -228 229s94 229 228 229c89 0 160 -45 198 -112c37 66 106 112 193 112zM448 217c0 102 -74 177 -168 177s-168 -75 -168 -177s74 -177 168 -177s168 75 168 177zM826 247c-8 84 -69 149 -155 149c-88 0 -152 -67 -160 -149h315z" />
    <glyph glyph-name="Racute" unicode="&#x154;" horiz-adv-x="685" 
d="M617 481c0 -91 -53 -162 -151 -180l130 -266c2 -4 4 -9 4 -14c0 -15 -12 -29 -29 -29c-15 0 -22 6 -28 17l-141 287h-247v-274c0 -17 -12 -30 -30 -30c-17 0 -30 13 -30 30v614c0 17 14 30 30 30h287c132 0 205 -79 205 -185zM557 481c0 76 -50 131 -133 131h-269v-262
h269c83 0 133 55 133 131zM298 765l55 62c5 6 14 12 24 12c15 0 25 -12 25 -23c0 -9 -2 -13 -8 -20l-55 -59c-9 -10 -15 -14 -24 -14c-14 0 -25 11 -25 23c0 7 3 13 8 19z" />
    <glyph glyph-name="racute" unicode="&#x155;" horiz-adv-x="329" 
d="M314 416c0 -18 -14 -27 -30 -27c-86 0 -144 -82 -144 -194v-173c0 -16 -13 -30 -30 -30c-16 0 -30 14 -30 30v390c0 18 13 30 30 30c18 0 30 -13 30 -30v-70c19 57 73 100 144 100c17 0 30 -10 30 -26zM141 536c0 6 2 10 6 16l72 102c4 6 12 11 21 11c13 0 25 -8 25 -23
c0 -8 -3 -13 -6 -17l-69 -97c-6 -8 -12 -16 -25 -16s-24 11 -24 24z" />
    <glyph glyph-name="Rcommaaccent" unicode="&#x156;" horiz-adv-x="685" 
d="M617 481c0 -91 -53 -162 -151 -180l130 -266c2 -4 4 -9 4 -14c0 -15 -12 -29 -29 -29c-15 0 -22 6 -28 17l-141 287h-247v-274c0 -17 -12 -30 -30 -30c-17 0 -30 13 -30 30v614c0 17 14 30 30 30h287c132 0 205 -79 205 -185zM557 481c0 76 -50 131 -133 131h-269v-262
h269c83 0 133 55 133 131zM363 -135c0 -37 -4 -78 -17 -119c-4 -14 -13 -27 -30 -27c-16 0 -25 10 -25 24c0 8 3 14 5 20c12 37 15 70 15 98v36c0 16 9 28 26 28s26 -12 26 -28v-32z" />
    <glyph glyph-name="rcommaaccent" unicode="&#x157;" horiz-adv-x="329" 
d="M314 416c0 -18 -14 -27 -30 -27c-86 0 -144 -82 -144 -194v-173c0 -16 -13 -30 -30 -30c-16 0 -30 14 -30 30v390c0 18 13 30 30 30c18 0 30 -13 30 -30v-70c19 57 73 100 144 100c17 0 30 -10 30 -26zM135 -135c0 -37 -4 -78 -17 -119c-4 -14 -13 -27 -30 -27
c-16 0 -25 10 -25 24c0 8 3 14 5 20c12 37 15 70 15 98v36c0 16 9 28 26 28s26 -12 26 -28v-32z" />
    <glyph glyph-name="Rcaron" unicode="&#x158;" horiz-adv-x="685" 
d="M617 481c0 -91 -53 -162 -151 -180l130 -266c2 -4 4 -9 4 -14c0 -15 -12 -29 -29 -29c-15 0 -22 6 -28 17l-141 287h-247v-274c0 -17 -12 -30 -30 -30c-17 0 -30 13 -30 30v614c0 17 14 30 30 30h287c132 0 205 -79 205 -185zM557 481c0 76 -50 131 -133 131h-269v-262
h269c83 0 133 55 133 131zM440 798l-91 -69c-7 -5 -11 -8 -19 -8s-12 3 -19 8l-91 69c-5 5 -9 9 -9 19c0 11 11 20 23 20c7 0 11 -2 16 -6l80 -57l80 57c5 4 9 6 16 6c12 0 23 -9 23 -20c0 -10 -4 -14 -9 -19z" />
    <glyph glyph-name="rcaron" unicode="&#x159;" horiz-adv-x="329" 
d="M314 416c0 -18 -14 -27 -30 -27c-86 0 -144 -82 -144 -194v-173c0 -16 -13 -30 -30 -30c-16 0 -30 14 -30 30v390c0 18 13 30 30 30c18 0 30 -13 30 -30v-70c19 57 73 100 144 100c17 0 30 -10 30 -26zM297 604l-95 -88c-6 -6 -11 -8 -19 -8s-13 2 -19 8l-95 88
c-5 5 -9 9 -9 19c0 11 11 20 23 20c7 0 11 -2 16 -6l84 -74l84 74c5 4 9 6 16 6c12 0 23 -9 23 -20c0 -10 -4 -14 -9 -19z" />
    <glyph glyph-name="Sacute" unicode="&#x15a;" horiz-adv-x="634" 
d="M579 165c0 -107 -94 -177 -248 -177c-99 0 -190 35 -252 83c-9 8 -14 16 -14 25c0 14 11 24 25 24c9 0 17 -4 24 -9c50 -35 121 -71 216 -71c120 0 189 49 189 123c0 77 -75 110 -192 145c-198 60 -248 122 -248 200c0 116 115 170 248 170c79 0 152 -21 215 -64
c9 -6 14 -12 14 -21c0 -12 -9 -26 -27 -26c-5 0 -11 2 -16 5c-62 38 -127 54 -187 54c-104 0 -187 -35 -187 -118c0 -68 55 -102 189 -146c157 -52 251 -86 251 -197zM292 765l55 62c5 6 14 12 24 12c15 0 25 -12 25 -23c0 -9 -2 -13 -8 -20l-55 -59c-9 -10 -15 -14 -24 -14
c-14 0 -25 11 -25 23c0 7 3 13 8 19z" />
    <glyph glyph-name="sacute" unicode="&#x15b;" horiz-adv-x="468" 
d="M418 109c0 -70 -62 -121 -173 -121c-66 0 -125 21 -168 57c-8 6 -12 15 -12 23c0 13 10 22 23 22c10 0 17 -4 23 -9c38 -30 88 -47 137 -47c70 0 112 28 112 72c0 50 -51 65 -115 83c-133 37 -175 78 -175 141c0 78 69 116 172 116c45 0 93 -12 135 -35
c16 -8 27 -17 27 -30s-9 -23 -25 -23c-8 0 -15 4 -24 9c-32 17 -74 30 -114 30c-65 0 -113 -19 -113 -65c0 -41 28 -62 122 -89c99 -29 168 -55 168 -134zM188 536c0 6 2 10 6 16l72 102c4 6 12 11 21 11c13 0 25 -8 25 -23c0 -8 -3 -13 -6 -17l-69 -97
c-6 -8 -12 -16 -25 -16s-24 11 -24 24z" />
    <glyph glyph-name="Scircumflex" unicode="&#x15c;" horiz-adv-x="634" 
d="M579 165c0 -107 -94 -177 -248 -177c-99 0 -190 35 -252 83c-9 8 -14 16 -14 25c0 14 11 24 25 24c9 0 17 -4 24 -9c50 -35 121 -71 216 -71c120 0 189 49 189 123c0 77 -75 110 -192 145c-198 60 -248 122 -248 200c0 116 115 170 248 170c79 0 152 -21 215 -64
c9 -6 14 -12 14 -21c0 -12 -9 -26 -27 -26c-5 0 -11 2 -16 5c-62 38 -127 54 -187 54c-104 0 -187 -35 -187 -118c0 -68 55 -102 189 -146c157 -52 251 -86 251 -197zM348 831l91 -69c5 -5 9 -9 9 -19c0 -11 -11 -20 -23 -20c-7 0 -11 2 -16 6l-80 57l-80 -57
c-5 -4 -9 -6 -16 -6c-12 0 -23 9 -23 20c0 10 4 14 9 19l91 69c7 5 11 8 19 8s12 -3 19 -8z" />
    <glyph glyph-name="scircumflex" unicode="&#x15d;" horiz-adv-x="468" 
d="M418 109c0 -70 -62 -121 -173 -121c-66 0 -125 21 -168 57c-8 6 -12 15 -12 23c0 13 10 22 23 22c10 0 17 -4 23 -9c38 -30 88 -47 137 -47c70 0 112 28 112 72c0 50 -51 65 -115 83c-133 37 -175 78 -175 141c0 78 69 116 172 116c45 0 93 -12 135 -35
c16 -8 27 -17 27 -30s-9 -23 -25 -23c-8 0 -15 4 -24 9c-32 17 -74 30 -114 30c-65 0 -113 -19 -113 -65c0 -41 28 -62 122 -89c99 -29 168 -55 168 -134zM261 638l95 -88c5 -5 9 -9 9 -19c0 -11 -11 -20 -23 -20c-7 0 -11 2 -16 6l-84 74l-84 -74c-5 -4 -9 -6 -16 -6
c-12 0 -23 9 -23 20c0 10 4 14 9 19l95 88c6 6 11 8 19 8s13 -2 19 -8z" />
    <glyph glyph-name="Scedilla" unicode="&#x15e;" horiz-adv-x="634" 
d="M436 -121c0 -42 -33 -74 -99 -74c-21 0 -46 3 -70 13c-9 4 -14 11 -14 18c0 12 11 24 27 18c19 -7 36 -11 56 -11c35 0 54 13 54 35c0 18 -13 31 -44 31c-23 0 -35 -7 -52 -7c-12 0 -19 9 -19 17c0 4 1 8 4 15l24 55c-88 6 -168 38 -224 82c-9 8 -14 16 -14 25
c0 14 11 24 25 24c9 0 17 -4 24 -9c50 -35 121 -71 216 -71c120 0 189 49 189 123c0 77 -75 110 -192 145c-198 60 -248 122 -248 200c0 116 115 170 248 170c79 0 152 -21 215 -64c9 -6 14 -12 14 -21c0 -12 -9 -26 -27 -26c-5 0 -11 2 -16 5c-62 38 -127 54 -187 54
c-104 0 -187 -35 -187 -118c0 -68 55 -102 189 -146c157 -52 251 -86 251 -197c0 -104 -89 -173 -236 -177l-20 -50c10 5 24 8 37 8c46 0 76 -25 76 -67z" />
    <glyph glyph-name="Scedilla" unicode="&#xf6c1;" horiz-adv-x="634" 
d="M436 -121c0 -42 -33 -74 -99 -74c-21 0 -46 3 -70 13c-9 4 -14 11 -14 18c0 12 11 24 27 18c19 -7 36 -11 56 -11c35 0 54 13 54 35c0 18 -13 31 -44 31c-23 0 -35 -7 -52 -7c-12 0 -19 9 -19 17c0 4 1 8 4 15l24 55c-88 6 -168 38 -224 82c-9 8 -14 16 -14 25
c0 14 11 24 25 24c9 0 17 -4 24 -9c50 -35 121 -71 216 -71c120 0 189 49 189 123c0 77 -75 110 -192 145c-198 60 -248 122 -248 200c0 116 115 170 248 170c79 0 152 -21 215 -64c9 -6 14 -12 14 -21c0 -12 -9 -26 -27 -26c-5 0 -11 2 -16 5c-62 38 -127 54 -187 54
c-104 0 -187 -35 -187 -118c0 -68 55 -102 189 -146c157 -52 251 -86 251 -197c0 -104 -89 -173 -236 -177l-20 -50c10 5 24 8 37 8c46 0 76 -25 76 -67z" />
    <glyph glyph-name="scedilla" unicode="&#x15f;" horiz-adv-x="468" 
d="M418 109c0 -68 -58 -117 -162 -121l-20 -50c10 5 24 8 37 8c46 0 76 -25 76 -67s-33 -74 -99 -74c-21 0 -46 3 -70 13c-9 4 -14 11 -14 18c0 12 11 24 27 18c19 -7 36 -11 56 -11c35 0 54 13 54 35c0 18 -13 31 -44 31c-23 0 -35 -7 -52 -7c-12 0 -19 9 -19 17
c0 4 1 8 4 15l24 56c-54 5 -103 24 -139 55c-8 6 -12 15 -12 23c0 13 10 22 23 22c10 0 17 -4 23 -9c38 -30 88 -47 137 -47c70 0 112 28 112 72c0 50 -51 65 -115 83c-133 37 -175 78 -175 141c0 78 69 116 172 116c45 0 93 -12 135 -35c16 -8 27 -17 27 -30
s-9 -23 -25 -23c-8 0 -15 4 -24 9c-32 17 -74 30 -114 30c-65 0 -113 -19 -113 -65c0 -41 28 -62 122 -89c99 -29 168 -55 168 -134z" />
    <glyph glyph-name="scedilla" unicode="&#xf6c2;" horiz-adv-x="468" 
d="M418 109c0 -68 -58 -117 -162 -121l-20 -50c10 5 24 8 37 8c46 0 76 -25 76 -67s-33 -74 -99 -74c-21 0 -46 3 -70 13c-9 4 -14 11 -14 18c0 12 11 24 27 18c19 -7 36 -11 56 -11c35 0 54 13 54 35c0 18 -13 31 -44 31c-23 0 -35 -7 -52 -7c-12 0 -19 9 -19 17
c0 4 1 8 4 15l24 56c-54 5 -103 24 -139 55c-8 6 -12 15 -12 23c0 13 10 22 23 22c10 0 17 -4 23 -9c38 -30 88 -47 137 -47c70 0 112 28 112 72c0 50 -51 65 -115 83c-133 37 -175 78 -175 141c0 78 69 116 172 116c45 0 93 -12 135 -35c16 -8 27 -17 27 -30
s-9 -23 -25 -23c-8 0 -15 4 -24 9c-32 17 -74 30 -114 30c-65 0 -113 -19 -113 -65c0 -41 28 -62 122 -89c99 -29 168 -55 168 -134z" />
    <glyph glyph-name="Scaron" unicode="&#x160;" horiz-adv-x="634" 
d="M579 165c0 -107 -94 -177 -248 -177c-99 0 -190 35 -252 83c-9 8 -14 16 -14 25c0 14 11 24 25 24c9 0 17 -4 24 -9c50 -35 121 -71 216 -71c120 0 189 49 189 123c0 77 -75 110 -192 145c-198 60 -248 122 -248 200c0 116 115 170 248 170c79 0 152 -21 215 -64
c9 -6 14 -12 14 -21c0 -12 -9 -26 -27 -26c-5 0 -11 2 -16 5c-62 38 -127 54 -187 54c-104 0 -187 -35 -187 -118c0 -68 55 -102 189 -146c157 -52 251 -86 251 -197zM441 798l-91 -69c-7 -5 -11 -8 -19 -8s-12 3 -19 8l-91 69c-5 5 -9 9 -9 19c0 11 11 20 23 20
c7 0 11 -2 16 -6l80 -57l80 57c5 4 9 6 16 6c12 0 23 -9 23 -20c0 -10 -4 -14 -9 -19z" />
    <glyph glyph-name="scaron" unicode="&#x161;" horiz-adv-x="468" 
d="M418 109c0 -70 -62 -121 -173 -121c-66 0 -125 21 -168 57c-8 6 -12 15 -12 23c0 13 10 22 23 22c10 0 17 -4 23 -9c38 -30 88 -47 137 -47c70 0 112 28 112 72c0 50 -51 65 -115 83c-133 37 -175 78 -175 141c0 78 69 116 172 116c45 0 93 -12 135 -35
c16 -8 27 -17 27 -30s-9 -23 -25 -23c-8 0 -15 4 -24 9c-32 17 -74 30 -114 30c-65 0 -113 -19 -113 -65c0 -41 28 -62 122 -89c99 -29 168 -55 168 -134zM355 604l-95 -88c-6 -6 -11 -8 -19 -8s-13 2 -19 8l-95 88c-5 5 -9 9 -9 19c0 11 11 20 23 20c7 0 11 -2 16 -6
l84 -74l84 74c5 4 9 6 16 6c12 0 23 -9 23 -20c0 -10 -4 -14 -9 -19z" />
    <glyph glyph-name="Tcommaaccent" unicode="&#x162;" horiz-adv-x="582" 
d="M321 22c0 -17 -13 -30 -30 -30s-30 13 -30 30v590h-216c-15 0 -27 12 -27 27s12 27 27 27h492c15 0 27 -12 27 -27s-12 -27 -27 -27h-216v-590zM317 -135c0 -37 -4 -78 -17 -119c-4 -14 -13 -27 -30 -27c-16 0 -25 10 -25 24c0 8 3 14 5 20c12 37 15 70 15 98v36
c0 16 9 28 26 28s26 -12 26 -28v-32z" />
    <glyph glyph-name="Tcommaaccent" unicode="&#x21a;" horiz-adv-x="582" 
d="M321 22c0 -17 -13 -30 -30 -30s-30 13 -30 30v590h-216c-15 0 -27 12 -27 27s12 27 27 27h492c15 0 27 -12 27 -27s-12 -27 -27 -27h-216v-590zM317 -135c0 -37 -4 -78 -17 -119c-4 -14 -13 -27 -30 -27c-16 0 -25 10 -25 24c0 8 3 14 5 20c12 37 15 70 15 98v36
c0 16 9 28 26 28s26 -12 26 -28v-32z" />
    <glyph glyph-name="tcommaaccent" unicode="&#x163;" horiz-adv-x="323" 
d="M192 434h101c13 0 25 -11 25 -25s-12 -25 -25 -25h-101v-362c0 -17 -13 -30 -30 -30s-30 13 -30 30v362h-89c-14 0 -25 11 -25 25s11 25 25 25h89v140c0 17 13 30 30 30s30 -13 30 -30v-140zM188 -135c0 -37 -4 -78 -17 -119c-4 -14 -13 -27 -30 -27c-16 0 -25 10 -25 24
c0 8 3 14 5 20c12 37 15 70 15 98v36c0 16 9 28 26 28s26 -12 26 -28v-32z" />
    <glyph glyph-name="tcommaaccent" unicode="&#x21b;" horiz-adv-x="323" 
d="M192 434h101c13 0 25 -11 25 -25s-12 -25 -25 -25h-101v-362c0 -17 -13 -30 -30 -30s-30 13 -30 30v362h-89c-14 0 -25 11 -25 25s11 25 25 25h89v140c0 17 13 30 30 30s30 -13 30 -30v-140zM188 -135c0 -37 -4 -78 -17 -119c-4 -14 -13 -27 -30 -27c-16 0 -25 10 -25 24
c0 8 3 14 5 20c12 37 15 70 15 98v36c0 16 9 28 26 28s26 -12 26 -28v-32z" />
    <glyph glyph-name="Tcaron" unicode="&#x164;" horiz-adv-x="582" 
d="M321 22c0 -17 -13 -30 -30 -30s-30 13 -30 30v590h-216c-15 0 -27 12 -27 27s12 27 27 27h492c15 0 27 -12 27 -27s-12 -27 -27 -27h-216v-590zM401 798l-91 -69c-7 -5 -11 -8 -19 -8s-12 3 -19 8l-91 69c-5 5 -9 9 -9 19c0 11 11 20 23 20c7 0 11 -2 16 -6l80 -57l80 57
c5 4 9 6 16 6c12 0 23 -9 23 -20c0 -10 -4 -14 -9 -19z" />
    <glyph glyph-name="tcaron" unicode="&#x165;" horiz-adv-x="423" 
d="M192 434h101c13 0 25 -11 25 -25s-12 -25 -25 -25h-101v-362c0 -17 -13 -30 -30 -30s-30 13 -30 30v362h-89c-14 0 -25 11 -25 25s11 25 25 25h89v140c0 17 13 30 30 30s30 -13 30 -30v-140zM388 677c0 -37 -4 -75 -15 -111c-4 -14 -13 -27 -30 -27c-16 0 -25 10 -25 24
c0 8 3 14 5 20c11 33 13 62 13 90v26c0 16 9 28 26 28s26 -12 26 -28v-22z" />
    <glyph glyph-name="Tbar" unicode="&#x166;" horiz-adv-x="582" 
d="M102 330c-14 0 -26 8 -26 24s12 24 26 24h159v234h-216c-15 0 -27 12 -27 27s12 27 27 27h492c15 0 27 -12 27 -27s-12 -27 -27 -27h-216v-234h159c14 0 26 -8 26 -24s-12 -24 -26 -24h-159v-308c0 -17 -13 -30 -30 -30s-30 13 -30 30v308h-159z" />
    <glyph glyph-name="tbar" unicode="&#x167;" horiz-adv-x="323" 
d="M44 198c-14 0 -26 9 -26 25s12 25 26 25h88v136h-89c-14 0 -25 11 -25 25s11 25 25 25h89v140c0 17 13 30 30 30s30 -13 30 -30v-140h101c13 0 25 -11 25 -25s-12 -25 -25 -25h-101v-136h100c14 0 26 -9 26 -25s-12 -25 -26 -25h-100v-176c0 -17 -13 -30 -30 -30
s-30 13 -30 30v176h-88z" />
    <glyph glyph-name="Utilde" unicode="&#x168;" horiz-adv-x="744" 
d="M372 -12c-174 0 -281 107 -281 274v382c0 17 13 30 30 30s30 -13 30 -30v-386c0 -130 67 -217 221 -217s221 87 221 217v386c0 17 13 30 30 30s30 -13 30 -30v-382c0 -167 -107 -274 -281 -274zM432 727c-22 0 -36 8 -59 21c-20 11 -30 18 -47 18c-13 0 -24 -4 -37 -19
l-11 -12c-4 -4 -9 -9 -19 -9c-11 0 -23 9 -23 21c0 6 2 11 6 16c3 4 6 8 10 13c20 25 41 37 74 37c18 0 33 -4 51 -14c24 -13 39 -25 54 -25c14 0 20 6 35 21l10 10c4 4 9 9 19 9c11 0 23 -8 23 -20c0 -7 -2 -12 -6 -17c-3 -4 -8 -10 -12 -15c-18 -20 -39 -35 -68 -35z" />
    <glyph glyph-name="utilde" unicode="&#x169;" horiz-adv-x="565" 
d="M75 189v223c0 17 13 30 30 30s30 -13 30 -30v-222c0 -90 47 -147 140 -147c85 0 150 62 150 160v209c0 17 13 30 30 30s30 -13 30 -30v-390c0 -17 -13 -30 -30 -30s-30 13 -30 30v52c-32 -55 -90 -86 -163 -86c-116 0 -187 85 -187 201zM345 519c-22 0 -36 8 -59 21
c-20 11 -30 18 -47 18c-13 0 -24 -4 -37 -19l-11 -12c-4 -4 -9 -9 -19 -9c-11 0 -23 9 -23 21c0 6 2 11 6 16c3 4 6 8 10 13c20 25 41 37 74 37c18 0 33 -4 51 -14c24 -13 39 -25 54 -25c14 0 20 6 35 21l10 10c4 4 9 9 19 9c11 0 23 -8 23 -20c0 -7 -2 -12 -6 -17
c-3 -4 -8 -10 -12 -15c-18 -20 -39 -35 -68 -35z" />
    <glyph glyph-name="Umacron" unicode="&#x16a;" horiz-adv-x="744" 
d="M372 -12c-174 0 -281 107 -281 274v382c0 17 13 30 30 30s30 -13 30 -30v-386c0 -130 67 -217 221 -217s221 87 221 217v386c0 17 13 30 30 30s30 -13 30 -30v-382c0 -167 -107 -274 -281 -274zM495 792c11 0 22 -9 22 -22s-11 -22 -22 -22h-245c-11 0 -22 9 -22 22
s11 22 22 22h245z" />
    <glyph glyph-name="umacron" unicode="&#x16b;" horiz-adv-x="565" 
d="M75 189v223c0 17 13 30 30 30s30 -13 30 -30v-222c0 -90 47 -147 140 -147c85 0 150 62 150 160v209c0 17 13 30 30 30s30 -13 30 -30v-390c0 -17 -13 -30 -30 -30s-30 13 -30 30v52c-32 -55 -90 -86 -163 -86c-116 0 -187 85 -187 201zM397 582c11 0 22 -9 22 -22
s-11 -22 -22 -22h-225c-11 0 -22 9 -22 22s11 22 22 22h225z" />
    <glyph glyph-name="Ubreve" unicode="&#x16c;" horiz-adv-x="744" 
d="M372 -12c-174 0 -281 107 -281 274v382c0 17 13 30 30 30s30 -13 30 -30v-386c0 -130 67 -217 221 -217s221 87 221 217v386c0 17 13 30 30 30s30 -13 30 -30v-382c0 -167 -107 -274 -281 -274zM460 816c0 14 11 23 24 23c12 0 23 -9 23 -22c0 -70 -53 -96 -134 -96
s-134 26 -134 96c0 13 11 22 23 22c13 0 24 -9 24 -23c0 -42 34 -54 87 -54s87 12 87 54z" />
    <glyph glyph-name="ubreve" unicode="&#x16d;" horiz-adv-x="565" 
d="M75 189v223c0 17 13 30 30 30s30 -13 30 -30v-222c0 -90 47 -147 140 -147c85 0 150 62 150 160v209c0 17 13 30 30 30s30 -13 30 -30v-390c0 -17 -13 -30 -30 -30s-30 13 -30 30v52c-32 -55 -90 -86 -163 -86c-116 0 -187 85 -187 201zM362 615c0 14 11 23 24 23
c12 0 23 -9 23 -22c0 -70 -47 -106 -124 -106s-124 36 -124 106c0 13 11 22 23 22c13 0 24 -9 24 -23c0 -42 20 -64 77 -64s77 22 77 64z" />
    <glyph glyph-name="Uring" unicode="&#x16e;" horiz-adv-x="744" 
d="M372 -12c-174 0 -281 107 -281 274v382c0 17 13 30 30 30s30 -13 30 -30v-386c0 -130 67 -217 221 -217s221 87 221 217v386c0 17 13 30 30 30s30 -13 30 -30v-382c0 -167 -107 -274 -281 -274zM445 780c0 -40 -31 -71 -72 -71s-72 31 -72 71s31 71 72 71s72 -31 72 -71z
M411 780c0 22 -15 41 -38 41s-38 -19 -38 -41s15 -41 38 -41s38 19 38 41z" />
    <glyph glyph-name="uring" unicode="&#x16f;" horiz-adv-x="565" 
d="M75 189v223c0 17 13 30 30 30s30 -13 30 -30v-222c0 -90 47 -147 140 -147c85 0 150 62 150 160v209c0 17 13 30 30 30s30 -13 30 -30v-390c0 -17 -13 -30 -30 -30s-30 13 -30 30v52c-32 -55 -90 -86 -163 -86c-116 0 -187 85 -187 201zM356 570c0 -40 -31 -71 -72 -71
s-72 31 -72 71s31 71 72 71s72 -31 72 -71zM322 570c0 22 -15 41 -38 41s-38 -19 -38 -41s15 -41 38 -41s38 19 38 41z" />
    <glyph glyph-name="Uhungarumlaut" unicode="&#x170;" horiz-adv-x="744" 
d="M372 -12c-174 0 -281 107 -281 274v382c0 17 13 30 30 30s30 -13 30 -30v-386c0 -130 67 -217 221 -217s221 87 221 217v386c0 17 13 30 30 30s30 -13 30 -30v-382c0 -167 -107 -274 -281 -274zM260 747c0 6 2 10 6 16l45 65c4 6 12 11 21 11c13 0 25 -8 25 -23
c0 -8 -3 -13 -6 -17l-42 -60c-6 -8 -12 -16 -25 -16s-24 11 -24 24zM420 747c0 6 2 10 6 16l45 65c4 6 12 11 21 11c13 0 25 -8 25 -23c0 -8 -3 -13 -6 -17l-42 -60c-6 -8 -12 -16 -25 -16s-24 11 -24 24z" />
    <glyph glyph-name="uhungarumlaut" unicode="&#x171;" horiz-adv-x="565" 
d="M75 189v223c0 17 13 30 30 30s30 -13 30 -30v-222c0 -90 47 -147 140 -147c85 0 150 62 150 160v209c0 17 13 30 30 30s30 -13 30 -30v-390c0 -17 -13 -30 -30 -30s-30 13 -30 30v52c-32 -55 -90 -86 -163 -86c-116 0 -187 85 -187 201zM170 536c0 6 2 10 6 16l72 102
c4 6 12 11 21 11c13 0 25 -8 25 -23c0 -8 -3 -13 -6 -17l-69 -97c-6 -8 -12 -16 -25 -16s-24 11 -24 24zM330 536c0 6 2 10 6 16l72 102c4 6 12 11 21 11c13 0 25 -8 25 -23c0 -8 -3 -13 -6 -17l-69 -97c-6 -8 -12 -16 -25 -16s-24 11 -24 24z" />
    <glyph glyph-name="Uogonek" unicode="&#x172;" horiz-adv-x="744" 
d="M462 -137c18 5 28 -4 28 -17c0 -10 -5 -16 -14 -20c-15 -7 -39 -11 -58 -11c-53 0 -83 27 -83 69c0 50 68 93 113 112c-24 -5 -49 -8 -76 -8c-174 0 -281 107 -281 274v382c0 17 13 30 30 30s30 -13 30 -30v-386c0 -130 67 -217 221 -217s221 87 221 217v386
c0 17 13 30 30 30s30 -13 30 -30v-382c0 -110 -42 -181 -112 -229c-51 -35 -156 -95 -156 -145c0 -22 15 -31 41 -31c13 0 25 3 36 6z" />
    <glyph glyph-name="uogonek" unicode="&#x173;" horiz-adv-x="565" 
d="M431 0c-5 6 -6 13 -6 22v52c-32 -55 -90 -86 -163 -86c-116 0 -187 85 -187 201v223c0 17 13 30 30 30s30 -13 30 -30v-222c0 -90 47 -147 140 -147c85 0 150 62 150 160v209c0 17 13 30 30 30s30 -13 30 -30v-390c0 -14 -5 -20 -13 -25c-32 -22 -100 -59 -100 -109
c0 -22 15 -31 41 -31c13 0 25 3 36 6c18 5 28 -4 28 -17c0 -10 -5 -16 -14 -20c-15 -7 -42 -11 -61 -11c-53 0 -80 25 -80 66c0 58 58 98 109 119z" />
    <glyph glyph-name="Wcircumflex" unicode="&#x174;" horiz-adv-x="944" 
d="M499 653l188 -552l183 552c4 13 11 21 26 21s28 -10 28 -27c0 -3 -1 -8 -2 -12l-208 -624c-4 -11 -11 -19 -27 -19c-15 0 -23 7 -27 19l-188 554l-188 -554c-4 -12 -12 -19 -27 -19c-16 0 -23 8 -27 19l-208 624c-1 4 -2 9 -2 12c0 17 13 27 28 27s22 -8 26 -21l183 -552
l188 552c4 13 13 21 27 21s23 -8 27 -21zM491 831l91 -69c5 -5 9 -9 9 -19c0 -11 -11 -20 -23 -20c-7 0 -11 2 -16 6l-80 57l-80 -57c-5 -4 -9 -6 -16 -6c-12 0 -23 9 -23 20c0 10 4 14 9 19l91 69c7 5 11 8 19 8s12 -3 19 -8z" />
    <glyph glyph-name="wcircumflex" unicode="&#x175;" horiz-adv-x="644" 
d="M347 423l117 -334l109 333c4 12 10 20 25 20c16 0 28 -10 28 -26c0 -4 -1 -8 -2 -12l-132 -394c-4 -11 -13 -18 -27 -18s-23 7 -27 19l-116 330l-116 -330c-4 -12 -13 -19 -27 -19s-23 7 -27 18l-132 394c-1 4 -2 8 -2 12c0 16 12 26 28 26c15 0 21 -8 25 -20l109 -333
l117 334c4 11 11 19 25 19s21 -8 25 -19zM341 638l95 -88c5 -5 9 -9 9 -19c0 -11 -11 -20 -23 -20c-7 0 -11 2 -16 6l-84 74l-84 -74c-5 -4 -9 -6 -16 -6c-12 0 -23 9 -23 20c0 10 4 14 9 19l95 88c6 6 11 8 19 8s13 -2 19 -8z" />
    <glyph glyph-name="Ycircumflex" unicode="&#x176;" horiz-adv-x="552" 
d="M541 630l-235 -338v-270c0 -17 -13 -30 -30 -30s-30 13 -30 30v270l-235 338c-4 6 -6 12 -6 17c0 17 12 27 27 27c10 0 19 -4 26 -14l218 -312l218 312c7 10 16 14 26 14c15 0 27 -10 27 -27c0 -5 -2 -11 -6 -17zM295 831l91 -69c5 -5 9 -9 9 -19c0 -11 -11 -20 -23 -20
c-7 0 -11 2 -16 6l-80 57l-80 -57c-5 -4 -9 -6 -16 -6c-12 0 -23 9 -23 20c0 10 4 14 9 19l91 69c7 5 11 8 19 8s12 -3 19 -8z" />
    <glyph glyph-name="ycircumflex" unicode="&#x177;" horiz-adv-x="433" 
d="M418 415c0 -4 -1 -8 -3 -13c0 0 -98 -240 -147 -356c-39 -93 -102 -183 -191 -236c-5 -3 -10 -5 -18 -5c-16 0 -26 11 -26 25c0 11 6 18 18 25c55 38 96 79 136 148l-170 397c-2 5 -4 10 -4 15c0 15 11 27 28 27c14 0 21 -7 26 -19l151 -356l148 358c4 10 11 17 25 17
c17 0 27 -12 27 -27zM238 638l95 -88c5 -5 9 -9 9 -19c0 -11 -11 -20 -23 -20c-7 0 -11 2 -16 6l-84 74l-84 -74c-5 -4 -9 -6 -16 -6c-12 0 -23 9 -23 20c0 10 4 14 9 19l95 88c6 6 11 8 19 8s13 -2 19 -8z" />
    <glyph glyph-name="Ydieresis" unicode="&#x178;" horiz-adv-x="552" 
d="M541 630l-235 -338v-270c0 -17 -13 -30 -30 -30s-30 13 -30 30v270l-235 338c-4 6 -6 12 -6 17c0 17 12 27 27 27c10 0 19 -4 26 -14l218 -312l218 312c7 10 16 14 26 14c15 0 27 -10 27 -27c0 -5 -2 -11 -6 -17zM138 785c0 22 18 40 40 40s40 -18 40 -40
s-18 -40 -40 -40s-40 18 -40 40zM334 785c0 22 18 40 40 40s40 -18 40 -40s-18 -40 -40 -40s-40 18 -40 40z" />
    <glyph glyph-name="Zacute" unicode="&#x179;" horiz-adv-x="637" 
d="M575 26c0 -15 -12 -26 -27 -26h-439c-16 0 -29 10 -29 26c0 7 3 13 7 19l401 569h-376c-15 0 -27 11 -27 26s12 26 27 26h427c16 0 28 -9 28 -26c0 -7 -3 -14 -8 -20l-398 -568h387c14 0 27 -11 27 -26zM289 765l55 62c5 6 14 12 24 12c15 0 25 -12 25 -23
c0 -9 -2 -13 -8 -20l-55 -59c-9 -10 -15 -14 -24 -14c-14 0 -25 11 -25 23c0 7 3 13 8 19z" />
    <glyph glyph-name="zacute" unicode="&#x17a;" horiz-adv-x="467" 
d="M422 24c0 -15 -11 -24 -25 -24h-312c-13 0 -25 11 -25 24c0 8 3 13 7 19l273 343h-254c-13 0 -25 10 -25 24c0 15 12 24 25 24h308c15 0 25 -10 25 -24c0 -7 -2 -12 -6 -18l-274 -344h258c14 0 25 -10 25 -24zM195 536c0 6 2 10 6 16l72 102c4 6 12 11 21 11
c13 0 25 -8 25 -23c0 -8 -3 -13 -6 -17l-69 -97c-6 -8 -12 -16 -25 -16s-24 11 -24 24z" />
    <glyph glyph-name="Zdotaccent" unicode="&#x17b;" horiz-adv-x="637" 
d="M575 26c0 -15 -12 -26 -27 -26h-439c-16 0 -29 10 -29 26c0 7 3 13 7 19l401 569h-376c-15 0 -27 11 -27 26s12 26 27 26h427c16 0 28 -9 28 -26c0 -7 -3 -14 -8 -20l-398 -568h387c14 0 27 -11 27 -26zM288 779c0 21 17 38 38 38s38 -17 38 -38s-17 -38 -38 -38
s-38 17 -38 38z" />
    <glyph glyph-name="zdotaccent" unicode="&#x17c;" horiz-adv-x="467" 
d="M422 24c0 -15 -11 -24 -25 -24h-312c-13 0 -25 11 -25 24c0 8 3 13 7 19l273 343h-254c-13 0 -25 10 -25 24c0 15 12 24 25 24h308c15 0 25 -10 25 -24c0 -7 -2 -12 -6 -18l-274 -344h258c14 0 25 -10 25 -24zM204 566c0 21 17 38 38 38s38 -17 38 -38s-17 -38 -38 -38
s-38 17 -38 38z" />
    <glyph glyph-name="Zcaron" unicode="&#x17d;" horiz-adv-x="637" 
d="M575 26c0 -15 -12 -26 -27 -26h-439c-16 0 -29 10 -29 26c0 7 3 13 7 19l401 569h-376c-15 0 -27 11 -27 26s12 26 27 26h427c16 0 28 -9 28 -26c0 -7 -3 -14 -8 -20l-398 -568h387c14 0 27 -11 27 -26zM434 798l-91 -69c-7 -5 -11 -8 -19 -8s-12 3 -19 8l-91 69
c-5 5 -9 9 -9 19c0 11 11 20 23 20c7 0 11 -2 16 -6l80 -57l80 57c5 4 9 6 16 6c12 0 23 -9 23 -20c0 -10 -4 -14 -9 -19z" />
    <glyph glyph-name="zcaron" unicode="&#x17e;" horiz-adv-x="467" 
d="M422 24c0 -15 -11 -24 -25 -24h-312c-13 0 -25 11 -25 24c0 8 3 13 7 19l273 343h-254c-13 0 -25 10 -25 24c0 15 12 24 25 24h308c15 0 25 -10 25 -24c0 -7 -2 -12 -6 -18l-274 -344h258c14 0 25 -10 25 -24zM360 604l-95 -88c-6 -6 -11 -8 -19 -8s-13 2 -19 8l-95 88
c-5 5 -9 9 -9 19c0 11 11 20 23 20c7 0 11 -2 16 -6l84 -74l84 74c5 4 9 6 16 6c12 0 23 -9 23 -20c0 -10 -4 -14 -9 -19z" />
    <glyph glyph-name="florin" unicode="&#x192;" horiz-adv-x="559" 
d="M509 649c0 -15 -11 -26 -31 -26h-24c-79 0 -100 -31 -114 -108l-23 -131h96c13 0 24 -7 24 -22s-12 -28 -30 -28h-99l-64 -364c-19 -108 -54 -165 -181 -165h-22c-15 0 -24 9 -24 22c0 19 14 28 29 28h23c77 0 99 30 113 109l66 370h-64c-14 0 -24 10 -24 22
c0 20 14 28 30 28h67l24 132c21 115 63 157 179 157h22c15 0 27 -7 27 -24z" />
    <glyph glyph-name="Aringacute" unicode="&#x1fa;" horiz-adv-x="716" 
d="M430 715c0 -30 -17 -54 -42 -65l276 -617c2 -4 4 -9 4 -14c0 -15 -11 -27 -29 -27c-15 0 -23 9 -27 19l-82 183h-344l-82 -183c-4 -10 -12 -19 -27 -19c-18 0 -29 12 -29 27c0 5 2 10 4 14l276 617c-25 11 -42 35 -42 65c0 40 31 71 72 71s72 -31 72 -71zM209 247h298
l-149 343zM396 715c0 22 -15 41 -38 41s-38 -19 -38 -41s15 -41 38 -41s38 19 38 41zM343 870l39 44c5 6 14 12 24 12c15 0 25 -12 25 -23c0 -9 -2 -13 -8 -20l-39 -41c-9 -10 -15 -14 -24 -14c-14 0 -25 11 -25 23c0 7 3 13 8 19z" />
    <glyph glyph-name="aringacute" unicode="&#x1fb;" horiz-adv-x="516" 
d="M325 570c0 -40 -31 -71 -72 -71s-72 31 -72 71s31 71 72 71s72 -31 72 -71zM291 570c0 22 -15 41 -38 41s-38 -19 -38 -41s15 -41 38 -41s38 19 38 41zM233 711c0 6 2 10 6 16l38 54c4 6 12 11 21 11c13 0 25 -8 25 -23c0 -8 -3 -13 -6 -17l-35 -49
c-6 -8 -12 -16 -25 -16s-24 11 -24 24zM441 22c0 -16 -11 -30 -30 -30s-30 14 -30 30v22c-34 -38 -88 -56 -149 -56c-107 0 -175 56 -175 131c0 80 73 133 184 133c65 0 117 -27 140 -54v59c0 95 -47 138 -145 138c-48 0 -84 -10 -123 -26c-3 -1 -8 -3 -14 -3
c-16 0 -26 9 -26 25c0 10 7 18 15 22c39 20 86 33 153 33c126 0 200 -67 200 -188v-236zM381 119c0 55 -68 88 -136 88c-78 0 -128 -35 -128 -88c0 -54 50 -87 124 -87c73 0 140 34 140 87z" />
    <glyph glyph-name="AEacute" unicode="&#x1fc;" horiz-adv-x="940" 
d="M636 0c-15 0 -24 9 -28 19l-78 175h-344l-82 -183c-4 -10 -12 -19 -27 -19c-18 0 -29 12 -29 27c0 5 2 10 4 14l278 613c6 13 14 20 30 20h507c15 0 27 -12 27 -27s-12 -27 -27 -27h-466l109 -241h208c15 0 27 -12 27 -27s-12 -27 -27 -27h-183l119 -263h214
c15 0 27 -12 27 -27s-12 -27 -27 -27h-232zM209 247h298l-149 338zM356 765l55 62c5 6 14 12 24 12c15 0 25 -12 25 -23c0 -9 -2 -13 -8 -20l-55 -59c-9 -10 -15 -14 -24 -14c-14 0 -25 11 -25 23c0 7 3 13 8 19z" />
    <glyph glyph-name="aeacute" unicode="&#x1fd;" horiz-adv-x="867" 
d="M604 446c123 0 210 -96 210 -224c0 -14 -12 -25 -25 -25h-347c0 -81 53 -159 168 -159c56 0 100 21 136 64c5 6 12 13 23 13c16 0 25 -12 25 -25c0 -7 -2 -12 -6 -18c-34 -47 -99 -84 -178 -84c-93 0 -157 44 -185 90c-36 -55 -100 -90 -190 -90c-112 0 -178 56 -178 131
c0 80 73 133 184 133c65 0 117 -27 140 -54v59c0 95 -47 138 -145 138c-48 0 -84 -10 -123 -26c-3 -1 -8 -3 -14 -3c-16 0 -26 9 -26 25c0 10 7 18 15 22c39 20 86 33 153 33c88 0 151 -34 176 -107c41 72 105 107 187 107zM381 119c0 55 -68 88 -136 88
c-78 0 -128 -35 -128 -88c0 -54 46 -87 124 -87c73 0 140 34 140 87zM759 247c-8 84 -69 149 -155 149c-88 0 -153 -65 -160 -149h315zM251 536c0 6 2 10 6 16l72 102c4 6 12 11 21 11c13 0 25 -8 25 -23c0 -8 -3 -13 -6 -17l-69 -97c-6 -8 -12 -16 -25 -16s-24 11 -24 24z
" />
    <glyph glyph-name="Oslashacute" unicode="&#x1fe;" horiz-adv-x="774" 
d="M59 -25l92 109c-63 64 -99 153 -99 249c0 186 136 345 336 345c79 0 149 -26 203 -68l92 110c5 5 10 8 17 8c15 0 22 -11 22 -22c0 -6 -2 -10 -5 -14l-93 -111c62 -63 98 -152 98 -248c0 -186 -134 -345 -334 -345c-80 0 -150 25 -205 68l-90 -108c-5 -6 -11 -10 -19 -10
c-11 0 -22 10 -22 21c0 7 3 11 7 16zM112 333c0 -78 26 -152 75 -206l369 441c-44 36 -101 57 -168 57c-172 0 -276 -139 -276 -292zM662 333c0 77 -26 151 -74 205l-370 -440c45 -36 102 -57 170 -57c172 0 274 139 274 292zM370 765l55 62c5 6 14 12 24 12
c15 0 25 -12 25 -23c0 -9 -2 -13 -8 -20l-55 -59c-9 -10 -15 -14 -24 -14c-14 0 -25 11 -25 23c0 7 3 13 8 19z" />
    <glyph glyph-name="oslashacute" unicode="&#x1ff;" horiz-adv-x="560" 
d="M58 -29l63 79c-44 41 -69 101 -69 167c0 127 94 229 228 229c49 0 92 -14 128 -37l63 79c4 5 9 8 16 8c12 0 20 -8 21 -18c0 -6 -1 -9 -5 -14l-64 -80c43 -42 69 -101 69 -167c0 -127 -94 -229 -228 -229c-49 0 -93 13 -128 37l-62 -77c-6 -7 -10 -10 -17 -10
c-9 0 -21 7 -21 18c0 7 3 11 6 15zM448 217c0 48 -17 91 -45 122l-217 -271c27 -18 59 -28 94 -28c94 0 168 75 168 177zM112 217c0 -49 17 -92 44 -123l217 272c-26 18 -58 28 -93 28c-94 0 -168 -75 -168 -177zM247 536c0 6 2 10 6 16l72 102c4 6 12 11 21 11
c13 0 25 -8 25 -23c0 -8 -3 -13 -6 -17l-69 -97c-6 -8 -12 -16 -25 -16s-24 11 -24 24z" />
    <glyph glyph-name="Scommaaccent" unicode="&#x218;" horiz-adv-x="634" 
d="M579 165c0 -107 -94 -177 -248 -177c-99 0 -190 35 -252 83c-9 8 -14 16 -14 25c0 14 11 24 25 24c9 0 17 -4 24 -9c50 -35 121 -71 216 -71c120 0 189 49 189 123c0 77 -75 110 -192 145c-198 60 -248 122 -248 200c0 116 115 170 248 170c79 0 152 -21 215 -64
c9 -6 14 -12 14 -21c0 -12 -9 -26 -27 -26c-5 0 -11 2 -16 5c-62 38 -127 54 -187 54c-104 0 -187 -35 -187 -118c0 -68 55 -102 189 -146c157 -52 251 -86 251 -197zM361 -135c0 -37 -4 -78 -17 -119c-4 -14 -13 -27 -30 -27c-16 0 -25 10 -25 24c0 8 3 14 5 20
c12 37 15 70 15 98v36c0 16 9 28 26 28s26 -12 26 -28v-32z" />
    <glyph glyph-name="scommaaccent" unicode="&#x219;" horiz-adv-x="468" 
d="M418 109c0 -70 -62 -121 -173 -121c-66 0 -125 21 -168 57c-8 6 -12 15 -12 23c0 13 10 22 23 22c10 0 17 -4 23 -9c38 -30 88 -47 137 -47c70 0 112 28 112 72c0 50 -51 65 -115 83c-133 37 -175 78 -175 141c0 78 69 116 172 116c45 0 93 -12 135 -35
c16 -8 27 -17 27 -30s-9 -23 -25 -23c-8 0 -15 4 -24 9c-32 17 -74 30 -114 30c-65 0 -113 -19 -113 -65c0 -41 28 -62 122 -89c99 -29 168 -55 168 -134zM275 -135c0 -37 -4 -78 -17 -119c-4 -14 -13 -27 -30 -27c-16 0 -25 10 -25 24c0 8 3 14 5 20c12 37 15 70 15 98v36
c0 16 9 28 26 28s26 -12 26 -28v-32z" />
    <glyph glyph-name="circumflex" unicode="&#x2c6;" horiz-adv-x="366" 
d="M202 638l95 -88c5 -5 9 -9 9 -19c0 -11 -11 -20 -23 -20c-7 0 -11 2 -16 6l-84 74l-84 -74c-5 -4 -9 -6 -16 -6c-12 0 -23 9 -23 20c0 10 4 14 9 19l95 88c6 6 11 8 19 8s13 -2 19 -8z" />
    <glyph glyph-name="caron" unicode="&#x2c7;" horiz-adv-x="366" 
d="M297 604l-95 -88c-6 -6 -11 -8 -19 -8s-13 2 -19 8l-95 88c-5 5 -9 9 -9 19c0 11 11 20 23 20c7 0 11 -2 16 -6l84 -74l84 74c5 4 9 6 16 6c12 0 23 -9 23 -20c0 -10 -4 -14 -9 -19z" />
    <glyph glyph-name="breve" unicode="&#x2d8;" horiz-adv-x="368" 
d="M261 615c0 14 11 23 24 23c12 0 23 -9 23 -22c0 -70 -47 -106 -124 -106s-124 36 -124 106c0 13 11 22 23 22c13 0 24 -9 24 -23c0 -42 20 -64 77 -64s77 22 77 64z" />
    <glyph glyph-name="dotaccent" unicode="&#x2d9;" horiz-adv-x="230" 
d="M77 566c0 21 17 38 38 38s38 -17 38 -38s-17 -38 -38 -38s-38 17 -38 38z" />
    <glyph glyph-name="ring" unicode="&#x2da;" horiz-adv-x="284" 
d="M214 570c0 -40 -31 -71 -72 -71s-72 31 -72 71s31 71 72 71s72 -31 72 -71zM180 570c0 22 -15 41 -38 41s-38 -19 -38 -41s15 -41 38 -41s38 19 38 41z" />
    <glyph glyph-name="ogonek" unicode="&#x2db;" horiz-adv-x="320" 
d="M202 -137c18 5 28 -4 28 -17c0 -10 -5 -16 -14 -20c-15 -7 -39 -11 -58 -11c-53 0 -83 27 -83 69c0 55 58 95 110 116h45c-54 -33 -105 -70 -105 -112c0 -22 15 -31 41 -31c13 0 25 3 36 6z" />
    <glyph glyph-name="tilde" unicode="&#x2dc;" horiz-adv-x="402" 
d="M256 519c-22 0 -36 8 -59 21c-20 11 -30 18 -47 18c-13 0 -24 -4 -37 -19l-11 -12c-4 -4 -9 -9 -19 -9c-11 0 -23 9 -23 21c0 6 2 11 6 16c3 4 6 8 10 13c20 25 41 37 74 37c18 0 33 -4 51 -14c24 -13 39 -25 54 -25c14 0 20 6 35 21l10 10c4 4 9 9 19 9
c11 0 23 -8 23 -20c0 -7 -2 -12 -6 -17c-3 -4 -8 -10 -12 -15c-18 -20 -39 -35 -68 -35z" />
    <glyph glyph-name="hungarumlaut" unicode="&#x2dd;" horiz-adv-x="474" 
d="M105 536c0 6 2 10 6 16l72 102c4 6 12 11 21 11c13 0 25 -8 25 -23c0 -8 -3 -13 -6 -17l-69 -97c-6 -8 -12 -16 -25 -16s-24 11 -24 24zM265 536c0 6 2 10 6 16l72 102c4 6 12 11 21 11c13 0 25 -8 25 -23c0 -8 -3 -13 -6 -17l-69 -97c-6 -8 -12 -16 -25 -16
s-24 11 -24 24z" />
    <glyph glyph-name="Omega" unicode="&#x3a9;" horiz-adv-x="832" 
d="M416 625c-168 0 -276 -123 -276 -281c0 -120 78 -227 181 -291c12 -7 18 -16 18 -26c0 -16 -12 -27 -28 -27h-188c-16 0 -28 12 -28 28s12 28 28 28h110c-102 85 -153 179 -153 290c0 189 131 332 336 332s336 -143 336 -332c0 -111 -51 -205 -153 -290h110
c16 0 28 -12 28 -28s-12 -28 -28 -28h-188c-16 0 -28 11 -28 27c0 10 6 19 18 26c103 64 181 171 181 291c0 158 -108 281 -276 281z" />
    <glyph glyph-name="pi" unicode="&#x3c0;" horiz-adv-x="654" 
d="M599 409c0 -14 -11 -25 -25 -25h-107v-278c0 -44 13 -62 61 -62h22c14 0 24 -9 24 -23s-10 -24 -24 -24h-29c-72 0 -112 25 -112 104v283h-188v-364c0 -16 -13 -28 -29 -28c-18 0 -29 12 -29 28v364h-93c-14 0 -25 11 -25 25s11 25 25 25h504c14 0 25 -11 25 -25z" />
    <glyph glyph-name="Wgrave" unicode="&#x1e80;" horiz-adv-x="944" 
d="M499 653l188 -552l183 552c4 13 11 21 26 21s28 -10 28 -27c0 -3 -1 -8 -2 -12l-208 -624c-4 -11 -11 -19 -27 -19c-15 0 -23 7 -27 19l-188 554l-188 -554c-4 -12 -12 -19 -27 -19c-16 0 -23 8 -27 19l-208 624c-1 4 -2 9 -2 12c0 17 13 27 28 27s22 -8 26 -21l183 -552
l188 552c4 13 13 21 27 21s23 -8 27 -21zM432 827l55 -62c5 -6 8 -12 8 -19c0 -12 -11 -23 -25 -23c-9 0 -15 4 -24 14l-55 59c-6 7 -8 11 -8 20c0 11 10 23 25 23c10 0 19 -6 24 -12z" />
    <glyph glyph-name="wgrave" unicode="&#x1e81;" horiz-adv-x="644" 
d="M347 423l117 -334l109 333c4 12 10 20 25 20c16 0 28 -10 28 -26c0 -4 -1 -8 -2 -12l-132 -394c-4 -11 -13 -18 -27 -18s-23 7 -27 19l-116 330l-116 -330c-4 -12 -13 -19 -27 -19s-23 7 -27 18l-132 394c-1 4 -2 8 -2 12c0 16 12 26 28 26c15 0 21 -8 25 -20l109 -333
l117 334c4 11 11 19 25 19s21 -8 25 -19zM337 536c0 -13 -11 -24 -24 -24s-19 7 -25 16l-69 97c-3 4 -6 9 -6 17c0 14 12 23 25 23c10 0 17 -5 21 -11l72 -102c4 -6 6 -10 6 -16z" />
    <glyph glyph-name="Wacute" unicode="&#x1e82;" horiz-adv-x="944" 
d="M499 653l188 -552l183 552c4 13 11 21 26 21s28 -10 28 -27c0 -3 -1 -8 -2 -12l-208 -624c-4 -11 -11 -19 -27 -19c-15 0 -23 7 -27 19l-188 554l-188 -554c-4 -12 -12 -19 -27 -19c-16 0 -23 8 -27 19l-208 624c-1 4 -2 9 -2 12c0 17 13 27 28 27s22 -8 26 -21l183 -552
l188 552c4 13 13 21 27 21s23 -8 27 -21zM456 765l55 62c5 6 14 12 24 12c15 0 25 -12 25 -23c0 -9 -2 -13 -8 -20l-55 -59c-9 -10 -15 -14 -24 -14c-14 0 -25 11 -25 23c0 7 3 13 8 19z" />
    <glyph glyph-name="wacute" unicode="&#x1e83;" horiz-adv-x="644" 
d="M347 423l117 -334l109 333c4 12 10 20 25 20c16 0 28 -10 28 -26c0 -4 -1 -8 -2 -12l-132 -394c-4 -11 -13 -18 -27 -18s-23 7 -27 19l-116 330l-116 -330c-4 -12 -13 -19 -27 -19s-23 7 -27 18l-132 394c-1 4 -2 8 -2 12c0 16 12 26 28 26c15 0 21 -8 25 -20l109 -333
l117 334c4 11 11 19 25 19s21 -8 25 -19zM302 536c0 6 2 10 6 16l72 102c4 6 12 11 21 11c13 0 25 -8 25 -23c0 -8 -3 -13 -6 -17l-69 -97c-6 -8 -12 -16 -25 -16s-24 11 -24 24z" />
    <glyph glyph-name="Wdieresis" unicode="&#x1e84;" horiz-adv-x="944" 
d="M499 653l188 -552l183 552c4 13 11 21 26 21s28 -10 28 -27c0 -3 -1 -8 -2 -12l-208 -624c-4 -11 -11 -19 -27 -19c-15 0 -23 7 -27 19l-188 554l-188 -554c-4 -12 -12 -19 -27 -19c-16 0 -23 8 -27 19l-208 624c-1 4 -2 9 -2 12c0 17 13 27 28 27s22 -8 26 -21l183 -552
l188 552c4 13 13 21 27 21s23 -8 27 -21zM334 785c0 22 18 40 40 40s40 -18 40 -40s-18 -40 -40 -40s-40 18 -40 40zM530 785c0 22 18 40 40 40s40 -18 40 -40s-18 -40 -40 -40s-40 18 -40 40z" />
    <glyph glyph-name="wdieresis" unicode="&#x1e85;" horiz-adv-x="644" 
d="M347 423l117 -334l109 333c4 12 10 20 25 20c16 0 28 -10 28 -26c0 -4 -1 -8 -2 -12l-132 -394c-4 -11 -13 -18 -27 -18s-23 7 -27 19l-116 330l-116 -330c-4 -12 -13 -19 -27 -19s-23 7 -27 18l-132 394c-1 4 -2 8 -2 12c0 16 12 26 28 26c15 0 21 -8 25 -20l109 -333
l117 334c4 11 11 19 25 19s21 -8 25 -19zM199 565c0 22 18 40 40 40s40 -18 40 -40s-18 -40 -40 -40s-40 18 -40 40zM365 565c0 22 18 40 40 40s40 -18 40 -40s-18 -40 -40 -40s-40 18 -40 40z" />
    <glyph glyph-name="Ygrave" unicode="&#x1ef2;" horiz-adv-x="552" 
d="M541 630l-235 -338v-270c0 -17 -13 -30 -30 -30s-30 13 -30 30v270l-235 338c-4 6 -6 12 -6 17c0 17 12 27 27 27c10 0 19 -4 26 -14l218 -312l218 312c7 10 16 14 26 14c15 0 27 -10 27 -27c0 -5 -2 -11 -6 -17zM235 827l55 -62c5 -6 8 -12 8 -19c0 -12 -11 -23 -25 -23
c-9 0 -15 4 -24 14l-55 59c-6 7 -8 11 -8 20c0 11 10 23 25 23c10 0 19 -6 24 -12z" />
    <glyph glyph-name="ygrave" unicode="&#x1ef3;" horiz-adv-x="433" 
d="M418 415c0 -4 -1 -8 -3 -13c0 0 -98 -240 -147 -356c-39 -93 -102 -183 -191 -236c-5 -3 -10 -5 -18 -5c-16 0 -26 11 -26 25c0 11 6 18 18 25c55 38 96 79 136 148l-170 397c-2 5 -4 10 -4 15c0 15 11 27 28 27c14 0 21 -7 26 -19l151 -356l148 358c4 10 11 17 25 17
c17 0 27 -12 27 -27zM248 536c0 -13 -11 -24 -24 -24s-19 7 -25 16l-69 97c-3 4 -6 9 -6 17c0 14 12 23 25 23c10 0 17 -5 21 -11l72 -102c4 -6 6 -10 6 -16z" />
    <glyph glyph-name="endash" unicode="&#x2013;" horiz-adv-x="571" 
d="M96 223c-14 0 -26 9 -26 25s12 25 26 25h379c14 0 26 -9 26 -25s-12 -25 -26 -25h-379z" />
    <glyph glyph-name="emdash" unicode="&#x2014;" horiz-adv-x="767" 
d="M96 223c-14 0 -26 9 -26 25s12 25 26 25h575c14 0 26 -9 26 -25s-12 -25 -26 -25h-575z" />
    <glyph glyph-name="quoteleft" unicode="&#x2018;" horiz-adv-x="219" 
d="M75 487c0 59 7 106 27 160c5 14 12 27 31 27c16 0 26 -10 26 -24c0 -8 -3 -14 -5 -20c-19 -56 -25 -94 -25 -143v-43c0 -16 -10 -28 -27 -28s-27 12 -27 28v43z" />
    <glyph glyph-name="quoteright" unicode="&#x2019;" horiz-adv-x="219" 
d="M154 603c0 -59 -7 -106 -27 -160c-5 -14 -12 -27 -31 -27c-16 0 -26 10 -26 24c0 8 3 14 5 20c19 56 25 94 25 143v43c0 16 10 28 27 28s27 -12 27 -28v-43z" />
    <glyph glyph-name="quotesinglbase" unicode="&#x201a;" horiz-adv-x="206" 
d="M131 25c0 -59 -7 -106 -27 -160c-5 -14 -12 -27 -31 -27c-16 0 -26 10 -26 24c0 8 3 14 5 20c19 56 25 94 25 143v43c0 16 10 28 27 28s27 -12 27 -28v-43z" />
    <glyph glyph-name="quotedblleft" unicode="&#x201c;" horiz-adv-x="396" 
d="M252 487c0 59 7 106 27 160c5 14 12 27 31 27c16 0 26 -10 26 -24c0 -8 -3 -14 -5 -20c-19 -56 -25 -94 -25 -143v-43c0 -16 -10 -28 -27 -28s-27 12 -27 28v43zM75 487c0 59 7 106 27 160c5 14 12 27 31 27c16 0 26 -10 26 -24c0 -8 -3 -14 -5 -20
c-19 -56 -25 -94 -25 -143v-43c0 -16 -10 -28 -27 -28s-27 12 -27 28v43z" />
    <glyph glyph-name="quotedblright" unicode="&#x201d;" horiz-adv-x="396" 
d="M154 603c0 -59 -7 -106 -27 -160c-5 -14 -12 -27 -31 -27c-16 0 -26 10 -26 24c0 8 3 14 5 20c19 56 25 94 25 143v43c0 16 10 28 27 28s27 -12 27 -28v-43zM331 603c0 -59 -7 -106 -27 -160c-5 -14 -12 -27 -31 -27c-16 0 -26 10 -26 24c0 8 3 14 5 20
c19 56 25 94 25 143v43c0 16 10 28 27 28s27 -12 27 -28v-43z" />
    <glyph glyph-name="quotedblbase" unicode="&#x201e;" horiz-adv-x="383" 
d="M131 25c0 -59 -7 -106 -27 -160c-5 -14 -12 -27 -31 -27c-16 0 -26 10 -26 24c0 8 3 14 5 20c19 56 25 94 25 143v43c0 16 10 28 27 28s27 -12 27 -28v-43zM308 25c0 -59 -7 -106 -27 -160c-5 -14 -12 -27 -31 -27c-16 0 -26 10 -26 24c0 8 3 14 5 20c19 56 25 94 25 143
v43c0 16 10 28 27 28s27 -12 27 -28v-43z" />
    <glyph glyph-name="dagger" unicode="&#x2020;" horiz-adv-x="460" 
d="M89 502h112v143c0 16 13 29 29 29s29 -13 29 -29v-143h112c16 0 29 -10 29 -26s-13 -26 -29 -26h-112v-501c0 -16 -13 -29 -29 -29s-29 13 -29 29v501h-112c-16 0 -29 10 -29 26s13 26 29 26z" />
    <glyph glyph-name="daggerdbl" unicode="&#x2021;" horiz-adv-x="500" 
d="M221 92h-112c-16 0 -29 10 -29 26s13 26 29 26h112v306h-112c-16 0 -29 10 -29 26s13 26 29 26h112v143c0 16 13 29 29 29s29 -13 29 -29v-143h112c16 0 29 -10 29 -26s-13 -26 -29 -26h-112v-306h112c16 0 29 -10 29 -26s-13 -26 -29 -26h-112v-143
c0 -16 -13 -29 -29 -29s-29 13 -29 29v143z" />
    <glyph glyph-name="bullet" unicode="&#x2022;" horiz-adv-x="354" 
d="M65 321c0 62 50 112 112 112s112 -50 112 -112s-50 -112 -112 -112s-112 50 -112 112z" />
    <glyph glyph-name="ellipsis" unicode="&#x2026;" horiz-adv-x="702" 
d="M75 36c0 23 19 42 42 42s42 -19 42 -42s-19 -42 -42 -42s-42 19 -42 42zM309 36c0 23 19 42 42 42s42 -19 42 -42s-19 -42 -42 -42s-42 19 -42 42zM543 36c0 23 19 42 42 42s42 -19 42 -42s-19 -42 -42 -42s-42 19 -42 42z" />
    <glyph glyph-name="perthousand" unicode="&#x2030;" horiz-adv-x="1248" 
d="M785 147c0 -89 -69 -159 -160 -159s-160 70 -160 159c0 88 69 159 160 159s160 -71 160 -159zM643 651c0 -6 -2 -11 -5 -16l-389 -634c-4 -7 -11 -13 -21 -13c-16 0 -24 12 -24 24c0 6 3 12 9 22l384 628c5 9 13 13 22 13c13 0 24 -9 24 -24zM734 147
c0 63 -43 114 -109 114s-109 -51 -109 -114s43 -114 109 -114s109 51 109 114zM380 519c0 -89 -69 -159 -160 -159s-160 70 -160 159c0 88 69 159 160 159s160 -71 160 -159zM329 519c0 63 -43 114 -109 114s-109 -51 -109 -114s43 -114 109 -114s109 51 109 114zM1186 147
c0 -89 -69 -159 -160 -159s-160 70 -160 159c0 88 69 159 160 159s160 -71 160 -159zM1135 147c0 63 -43 114 -109 114s-109 -51 -109 -114s43 -114 109 -114s109 51 109 114z" />
    <glyph glyph-name="guilsinglleft" unicode="&#x2039;" horiz-adv-x="342" 
d="M272 367c0 -9 -5 -16 -10 -21l-141 -133l141 -133c5 -5 10 -12 10 -21c0 -13 -12 -24 -27 -24c-8 0 -13 3 -19 8l-158 152c-6 6 -8 11 -8 18s2 12 8 18l158 152c6 5 11 8 19 8c15 0 27 -11 27 -24z" />
    <glyph glyph-name="guilsinglright" unicode="&#x203a;" horiz-adv-x="342" 
d="M70 367c0 13 12 24 27 24c8 0 13 -3 19 -8l158 -152c6 -6 8 -11 8 -18s-2 -12 -8 -18l-158 -152c-6 -5 -11 -8 -19 -8c-15 0 -27 11 -27 24c0 9 5 16 10 21l141 133l-141 133c-5 5 -10 12 -10 21z" />
    <glyph glyph-name="fraction" unicode="&#x2044;" horiz-adv-x="486" 
d="M475 640l-424 -639c-6 -9 -13 -13 -22 -13c-13 0 -24 9 -24 22c0 5 2 10 5 15l424 639c6 10 13 14 23 14c12 0 24 -7 24 -22c0 -5 -2 -10 -6 -16z" />
    <glyph glyph-name="Euro" unicode="&#x20ac;" horiz-adv-x="714" 
d="M419 678c111 0 179 -64 223 -141c4 -7 7 -13 7 -20c0 -16 -12 -27 -28 -27c-11 0 -18 5 -23 14c-47 81 -100 122 -179 122c-111 0 -178 -83 -203 -190h224c14 0 26 -9 26 -23s-12 -23 -26 -23h-232c-2 -19 -3 -38 -3 -57c0 -20 1 -39 3 -57h232c14 0 26 -9 26 -23
s-12 -23 -26 -23h-224c25 -107 92 -190 203 -190c79 0 132 41 179 122c5 9 12 14 23 14c16 0 28 -11 28 -27c0 -7 -3 -13 -7 -20c-44 -77 -112 -141 -223 -141c-142 0 -234 102 -264 242h-89c-14 0 -26 9 -26 23s12 23 26 23h82c-2 18 -3 37 -3 57c0 19 1 38 3 57h-82
c-14 0 -26 9 -26 23s12 23 26 23h89c30 140 122 242 264 242z" />
    <glyph glyph-name="uni2113" unicode="&#x2113;" horiz-adv-x="541" 
d="M37 214c35 14 71 28 107 44v224c0 136 76 196 180 196c100 0 157 -61 157 -155c0 -90 -55 -156 -141 -216c-38 -27 -85 -53 -136 -77v-80c0 -63 19 -110 110 -110c48 0 85 14 128 34c21 8 38 -3 38 -22c0 -12 -8 -21 -21 -27c-40 -21 -95 -37 -151 -37
c-128 0 -164 67 -164 179v37c-30 -13 -60 -25 -89 -35c-21 -8 -35 6 -35 21c0 11 5 19 17 24zM204 483v-197c119 56 219 133 219 236c0 67 -36 105 -100 105c-75 0 -119 -46 -119 -144z" />
    <glyph glyph-name="uni2116" unicode="&#x2116;" horiz-adv-x="1085" 
d="M628 20c0 -15 -10 -28 -29 -28c-11 0 -17 5 -23 13l-424 559v-544c0 -15 -12 -28 -28 -28c-17 0 -29 13 -29 28v625c0 17 12 29 30 29c10 0 18 -6 23 -13l423 -560v544c0 17 12 29 29 29s28 -13 28 -29v-625zM1050 526c0 -83 -58 -154 -152 -154s-152 71 -152 154
s58 152 152 152s152 -69 152 -152zM898 417c69 0 103 56 103 109s-34 106 -103 106s-103 -53 -103 -106s34 -109 103 -109zM1017 313c14 0 28 -6 28 -22s-14 -22 -28 -22h-238c-14 0 -28 6 -28 22s14 22 28 22h238z" />
    <glyph glyph-name="trademark" unicode="&#x2122;" horiz-adv-x="742" 
d="M316 648c0 -11 -9 -19 -20 -19h-90v-241c0 -12 -9 -20 -20 -20c-13 0 -21 8 -21 20v241h-90c-11 0 -20 8 -20 19s9 18 20 18h221c11 0 20 -7 20 -18zM517 424l112 232c4 8 9 14 19 14c12 0 19 -8 19 -19v-264c0 -11 -8 -19 -19 -19s-20 8 -20 19v185l-92 -192
c-4 -7 -9 -12 -19 -12s-15 5 -19 12l-92 192v-185c0 -11 -9 -19 -20 -19s-19 8 -19 19v264c0 11 7 19 19 19c10 0 15 -6 19 -14z" />
    <glyph glyph-name="estimated" unicode="&#x212e;" horiz-adv-x="844" 
d="M779 333v-6c0 -9 -7 -16 -16 -16h-556v-213c54 -45 127 -77 215 -77c114 0 195 39 279 119c5 5 9 7 15 7c10 0 17 -8 17 -16c0 -6 -3 -10 -7 -14c-78 -74 -166 -129 -304 -129c-202 0 -357 162 -357 345c0 187 163 345 357 345s357 -162 357 -345zM422 645
c-88 0 -159 -32 -215 -81v-221h430v221c-56 49 -128 81 -215 81z" />
    <glyph glyph-name="partialdiff" unicode="&#x2202;" horiz-adv-x="576" 
d="M60 161c0 147 95 239 240 239c74 0 127 -40 154 -87v9c0 146 -75 263 -206 311c-10 4 -15 11 -15 21c0 14 10 24 26 24c7 0 18 -4 25 -7c134 -58 227 -179 227 -341c0 -198 -95 -345 -265 -345c-130 0 -186 91 -186 176zM439 225c0 70 -53 124 -138 124
c-110 0 -182 -69 -182 -185c0 -69 35 -129 130 -129c109 0 190 89 190 190z" />
    <glyph glyph-name="Delta" unicode="&#x2206;" horiz-adv-x="692" 
d="M370 656l254 -611c3 -7 4 -10 6 -15c1 -3 2 -7 2 -9c0 -12 -8 -21 -27 -21h-518c-19 0 -27 9 -27 21c0 2 1 6 2 9c2 5 3 8 6 15l254 611c4 11 11 18 24 18s20 -7 24 -18zM130 49h432l-216 533z" />
    <glyph glyph-name="product" unicode="&#x220f;" horiz-adv-x="751" 
d="M680 666c14 0 26 -11 26 -25c0 -15 -12 -25 -26 -25h-124v-596c0 -16 -13 -28 -28 -28s-28 12 -28 28v596h-249v-596c0 -16 -13 -28 -28 -28s-28 12 -28 28v596h-124c-14 0 -26 10 -26 25c0 14 12 25 26 25h609z" />
    <glyph glyph-name="summation" unicode="&#x2211;" horiz-adv-x="579" 
d="M382 324l-228 -341h324c15 0 26 -11 26 -25c0 -15 -11 -26 -26 -26h-377c-15 0 -26 11 -26 26c0 6 3 12 7 17l242 366l-242 366c-4 5 -7 11 -7 17c0 15 11 26 26 26h377c15 0 26 -11 26 -26c0 -14 -11 -25 -26 -25h-324l228 -341c4 -5 7 -11 7 -17s-3 -12 -7 -17z" />
    <glyph glyph-name="minus" unicode="&#x2212;" horiz-adv-x="561" 
d="M111 298c-14 0 -26 9 -26 25s12 25 26 25h339c14 0 26 -9 26 -25s-12 -25 -26 -25h-339z" />
    <glyph glyph-name="radical" unicode="&#x221a;" horiz-adv-x="562" 
d="M497 652c0 -4 -2 -10 -3 -13l-194 -626c-4 -12 -13 -21 -27 -21c-10 0 -16 5 -22 14l-171 245c-4 6 -5 10 -5 16c0 16 12 25 26 25c10 0 16 -4 22 -12l141 -206l182 585c4 12 11 19 25 19c16 0 26 -11 26 -26z" />
    <glyph glyph-name="infinity" unicode="&#x221e;" horiz-adv-x="802" 
d="M582 369c90 0 150 -45 150 -135s-60 -135 -150 -135c-82 0 -136 48 -181 101c-45 -53 -99 -101 -181 -101c-90 0 -150 45 -150 135s60 135 150 135c82 0 136 -48 181 -101c45 53 99 101 181 101zM580 147c61 0 98 30 98 87s-37 87 -98 87c-56 0 -105 -37 -146 -87
c41 -50 90 -87 146 -87zM222 147c56 0 105 37 146 87c-41 50 -90 87 -146 87c-61 0 -98 -30 -98 -87s37 -87 98 -87z" />
    <glyph glyph-name="integral" unicode="&#x222b;" horiz-adv-x="447" 
d="M382 647c0 -16 -12 -25 -25 -25h-13c-70 0 -98 -28 -98 -110v-546c0 -107 -40 -161 -152 -161h-18c-14 0 -26 9 -26 25s12 25 26 25h15c76 0 95 31 95 107v547c0 107 46 163 156 163h15c14 0 25 -10 25 -25z" />
    <glyph glyph-name="approxequal" unicode="&#x2248;" horiz-adv-x="545" 
d="M353 190c-24 0 -42 5 -73 19c-29 13 -51 25 -73 25c-27 0 -45 -8 -79 -38c-5 -4 -9 -6 -16 -6c-11 0 -22 11 -22 21c0 9 4 13 8 17c41 37 65 53 109 53c24 0 42 -5 73 -19c35 -16 51 -25 73 -25c27 0 45 8 79 38c5 4 9 6 16 6c11 0 22 -11 22 -21c0 -9 -4 -13 -8 -17
c-41 -37 -65 -53 -109 -53zM353 344c-24 0 -42 5 -73 19c-29 13 -51 25 -73 25c-27 0 -45 -8 -79 -38c-5 -4 -9 -6 -16 -6c-11 0 -22 11 -22 21c0 9 4 13 8 17c41 37 65 53 109 53c24 0 42 -5 73 -19c35 -16 51 -25 73 -25c27 0 45 8 79 38c5 4 9 6 16 6c11 0 22 -11 22 -21
c0 -9 -4 -13 -8 -17c-41 -37 -65 -53 -109 -53z" />
    <glyph glyph-name="notequal" unicode="&#x2260;" horiz-adv-x="550" 
d="M390 476l-24 -43h71c14 0 28 -10 28 -26s-14 -26 -28 -26h-100l-67 -122h167c14 0 28 -10 28 -26s-14 -26 -28 -26h-196l-34 -62c-6 -10 -13 -15 -24 -15s-21 7 -21 19c0 4 1 9 4 14l24 44h-77c-14 0 -28 10 -28 26s14 26 28 26h105l67 122h-172c-14 0 -28 10 -28 26
s14 26 28 26h201l36 65c4 7 11 12 20 12c16 0 23 -12 23 -23c0 -4 -1 -8 -3 -11z" />
    <glyph glyph-name="lessequal" unicode="&#x2264;" horiz-adv-x="588" 
d="M477 48c14 0 26 -10 26 -24s-12 -24 -26 -24h-370c-15 0 -27 10 -27 24s12 24 27 24h370zM477 465c0 -11 -5 -17 -14 -22l-289 -149l289 -149c9 -5 14 -11 14 -22c0 -16 -12 -25 -25 -25c-5 0 -10 1 -14 3l-328 170c-9 5 -15 12 -15 23s6 18 15 23l328 170c4 2 9 3 14 3
c13 0 25 -9 25 -25z" />
    <glyph glyph-name="greaterequal" unicode="&#x2265;" horiz-adv-x="588" 
d="M111 48h370c15 0 27 -10 27 -24s-12 -24 -27 -24h-370c-14 0 -26 10 -26 24s12 24 26 24zM111 465c0 16 12 25 25 25c5 0 10 -1 14 -3l328 -170c9 -5 15 -12 15 -23s-6 -18 -15 -23l-328 -170c-4 -2 -9 -3 -14 -3c-13 0 -25 9 -25 25c0 11 5 17 14 22l289 149l-289 149
c-9 5 -14 11 -14 22z" />
    <glyph glyph-name="lozenge" unicode="&#x25ca;" horiz-adv-x="644" 
d="M50 333c0 8 2 11 6 17l245 311c6 7 13 13 21 13s15 -6 21 -13l245 -311c4 -6 6 -9 6 -17s-2 -11 -6 -17l-245 -311c-6 -7 -13 -13 -21 -13s-15 6 -21 13l-245 311c-4 6 -6 9 -6 17zM322 61l213 272l-213 272l-213 -272z" />
    <glyph glyph-name="apple" unicode="&#xf8ff;" horiz-adv-x="851" 
d="M771 333h-333v-333h-333v666h666v-333z" />
    <glyph glyph-name="Acute" horiz-adv-x="322" 
d="M118 765l55 62c5 6 14 12 24 12c15 0 25 -12 25 -23c0 -9 -2 -13 -8 -20l-55 -59c-9 -10 -15 -14 -24 -14c-14 0 -25 11 -25 23c0 7 3 13 8 19z" />
    <glyph glyph-name="Breve" horiz-adv-x="448" 
d="M311 816c0 14 11 23 24 23c12 0 23 -9 23 -22c0 -70 -53 -96 -134 -96s-134 26 -134 96c0 13 11 22 23 22c13 0 24 -9 24 -23c0 -42 34 -54 87 -54s87 12 87 54z" />
    <glyph glyph-name="Caron" horiz-adv-x="418" 
d="M319 798l-91 -69c-7 -5 -11 -8 -19 -8s-12 3 -19 8l-91 69c-5 5 -9 9 -9 19c0 11 11 20 23 20c7 0 11 -2 16 -6l80 -57l80 57c5 4 9 6 16 6c12 0 23 -9 23 -20c0 -10 -4 -14 -9 -19z" />
    <glyph glyph-name="Circumflex" horiz-adv-x="418" 
d="M228 831l91 -69c5 -5 9 -9 9 -19c0 -11 -11 -20 -23 -20c-7 0 -11 2 -16 6l-80 57l-80 -57c-5 -4 -9 -6 -16 -6c-12 0 -23 9 -23 20c0 10 4 14 9 19l91 69c7 5 11 8 19 8s12 -3 19 -8z" />
    <glyph glyph-name="commaaccent" horiz-adv-x="356" 
d="M203 -135c0 -37 -4 -78 -17 -119c-4 -14 -13 -27 -30 -27c-16 0 -25 10 -25 24c0 8 3 14 5 20c12 37 15 70 15 98v36c0 16 9 28 26 28s26 -12 26 -28v-32z" />
    <glyph glyph-name="Dieresis" horiz-adv-x="456" 
d="M90 785c0 22 18 40 40 40s40 -18 40 -40s-18 -40 -40 -40s-40 18 -40 40zM286 785c0 22 18 40 40 40s40 -18 40 -40s-18 -40 -40 -40s-40 18 -40 40z" />
    <glyph glyph-name="Dotaccent" horiz-adv-x="256" 
d="M90 779c0 21 17 38 38 38s38 -17 38 -38s-17 -38 -38 -38s-38 17 -38 38z" />
    <glyph glyph-name="Grave" horiz-adv-x="322" 
d="M149 827l55 -62c5 -6 8 -12 8 -19c0 -12 -11 -23 -25 -23c-9 0 -15 4 -24 14l-55 59c-6 7 -8 11 -8 20c0 11 10 23 25 23c10 0 19 -6 24 -12z" />
    <glyph glyph-name="Hungarumlaut" horiz-adv-x="457" 
d="M110 747c0 6 2 10 6 16l45 65c4 6 12 11 21 11c13 0 25 -8 25 -23c0 -8 -3 -13 -6 -17l-42 -60c-6 -8 -12 -16 -25 -16s-24 11 -24 24zM270 747c0 6 2 10 6 16l45 65c4 6 12 11 21 11c13 0 25 -8 25 -23c0 -8 -3 -13 -6 -17l-42 -60c-6 -8 -12 -16 -25 -16s-24 11 -24 24
z" />
    <glyph glyph-name="Macron" horiz-adv-x="469" 
d="M357 792c11 0 22 -9 22 -22s-11 -22 -22 -22h-245c-11 0 -22 9 -22 22s11 22 22 22h245z" />
    <glyph glyph-name="Ring" horiz-adv-x="324" 
d="M234 780c0 -40 -31 -71 -72 -71s-72 31 -72 71s31 71 72 71s72 -31 72 -71zM200 780c0 22 -15 41 -38 41s-38 -19 -38 -41s15 -41 38 -41s38 19 38 41z" />
    <glyph glyph-name="Tilde" horiz-adv-x="437" 
d="M276 727c-22 0 -36 8 -59 21c-20 11 -30 18 -47 18c-13 0 -24 -4 -37 -19l-11 -12c-4 -4 -9 -9 -19 -9c-11 0 -23 9 -23 21c0 6 2 11 6 16c3 4 6 8 10 13c20 25 41 37 74 37c18 0 33 -4 51 -14c24 -13 39 -25 54 -25c14 0 20 6 35 21l10 10c4 4 9 9 19 9
c11 0 23 -8 23 -20c0 -7 -2 -12 -6 -17c-3 -4 -8 -10 -12 -15c-18 -20 -39 -35 -68 -35z" />
    <glyph glyph-name="a.salt" horiz-adv-x="582" 
d="M442 22v58c-38 -57 -97 -92 -177 -92c-122 0 -215 96 -215 229s93 229 215 229c80 0 139 -35 177 -92v58c0 17 13 30 30 30s30 -13 30 -30v-390c0 -17 -13 -30 -30 -30s-30 13 -30 30zM110 217c0 -104 63 -178 163 -178c103 0 169 81 169 178s-66 178 -169 178
c-100 0 -163 -74 -163 -178z" />
    <glyph glyph-name="y.salt" horiz-adv-x="565" 
d="M485 32c0 -133 -52 -227 -216 -227c-63 0 -124 14 -163 38c-9 5 -18 13 -18 26c0 14 11 22 23 22c9 0 18 -4 26 -8c39 -20 79 -29 130 -29c127 0 158 71 158 173v57c-32 -55 -90 -86 -163 -86c-116 0 -187 85 -187 201v213c0 17 13 30 30 30s30 -13 30 -30v-212
c0 -90 47 -147 140 -147c85 0 150 62 150 160v199c0 17 13 30 30 30s30 -13 30 -30v-380z" />
    <glyph glyph-name="aacute.salt" horiz-adv-x="582" 
d="M246 536c0 6 2 10 6 16l72 102c4 6 12 11 21 11c13 0 25 -8 25 -23c0 -8 -3 -13 -6 -17l-69 -97c-6 -8 -12 -16 -25 -16s-24 11 -24 24zM442 22v58c-38 -57 -97 -92 -177 -92c-122 0 -215 96 -215 229s93 229 215 229c80 0 139 -35 177 -92v58c0 17 13 30 30 30
s30 -13 30 -30v-390c0 -17 -13 -30 -30 -30s-30 13 -30 30zM110 217c0 -104 63 -178 163 -178c103 0 169 81 169 178s-66 178 -169 178c-100 0 -163 -74 -163 -178z" />
    <glyph glyph-name="abreve.salt" horiz-adv-x="582" 
d="M442 22v58c-38 -57 -97 -92 -177 -92c-122 0 -215 96 -215 229s93 229 215 229c80 0 139 -35 177 -92v58c0 17 13 30 30 30s30 -13 30 -30v-390c0 -17 -13 -30 -30 -30s-30 13 -30 30zM110 217c0 -104 63 -178 163 -178c103 0 169 81 169 178s-66 178 -169 178
c-100 0 -163 -74 -163 -178zM374 615c0 14 11 23 24 23c12 0 23 -9 23 -22c0 -70 -47 -106 -124 -106s-124 36 -124 106c0 13 11 22 23 22c13 0 24 -9 24 -23c0 -42 20 -64 77 -64s77 22 77 64z" />
    <glyph glyph-name="acircumflex.salt" horiz-adv-x="582" 
d="M314 638l95 -88c5 -5 9 -9 9 -19c0 -11 -11 -20 -23 -20c-7 0 -11 2 -16 6l-84 74l-84 -74c-5 -4 -9 -6 -16 -6c-12 0 -23 9 -23 20c0 10 4 14 9 19l95 88c6 6 11 8 19 8s13 -2 19 -8zM442 22v58c-38 -57 -97 -92 -177 -92c-122 0 -215 96 -215 229s93 229 215 229
c80 0 139 -35 177 -92v58c0 17 13 30 30 30s30 -13 30 -30v-390c0 -17 -13 -30 -30 -30s-30 13 -30 30zM110 217c0 -104 63 -178 163 -178c103 0 169 81 169 178s-66 178 -169 178c-100 0 -163 -74 -163 -178z" />
    <glyph glyph-name="adieresis.salt" horiz-adv-x="582" 
d="M171 565c0 22 18 40 40 40s40 -18 40 -40s-18 -40 -40 -40s-40 18 -40 40zM337 565c0 22 18 40 40 40s40 -18 40 -40s-18 -40 -40 -40s-40 18 -40 40zM442 22v58c-38 -57 -97 -92 -177 -92c-122 0 -215 96 -215 229s93 229 215 229c80 0 139 -35 177 -92v58
c0 17 13 30 30 30s30 -13 30 -30v-390c0 -17 -13 -30 -30 -30s-30 13 -30 30zM110 217c0 -104 63 -178 163 -178c103 0 169 81 169 178s-66 178 -169 178c-100 0 -163 -74 -163 -178z" />
    <glyph glyph-name="agrave.salt" horiz-adv-x="582" 
d="M321 536c0 -13 -11 -24 -24 -24s-19 7 -25 16l-69 97c-3 4 -6 9 -6 17c0 14 12 23 25 23c10 0 17 -5 21 -11l72 -102c4 -6 6 -10 6 -16zM442 22v58c-38 -57 -97 -92 -177 -92c-122 0 -215 96 -215 229s93 229 215 229c80 0 139 -35 177 -92v58c0 17 13 30 30 30
s30 -13 30 -30v-390c0 -17 -13 -30 -30 -30s-30 13 -30 30zM110 217c0 -104 63 -178 163 -178c103 0 169 81 169 178s-66 178 -169 178c-100 0 -163 -74 -163 -178z" />
    <glyph glyph-name="amacron.salt" horiz-adv-x="582" 
d="M442 22v58c-38 -57 -97 -92 -177 -92c-122 0 -215 96 -215 229s93 229 215 229c80 0 139 -35 177 -92v58c0 17 13 30 30 30s30 -13 30 -30v-390c0 -17 -13 -30 -30 -30s-30 13 -30 30zM110 217c0 -104 63 -178 163 -178c103 0 169 81 169 178s-66 178 -169 178
c-100 0 -163 -74 -163 -178zM411 582c11 0 22 -9 22 -22s-11 -22 -22 -22h-225c-11 0 -22 9 -22 22s11 22 22 22h225z" />
    <glyph glyph-name="aogonek.salt" horiz-adv-x="582" 
d="M448 0c-5 6 -6 13 -6 22v58c-38 -57 -97 -92 -177 -92c-122 0 -215 96 -215 229s93 229 215 229c80 0 139 -35 177 -92v58c0 17 13 30 30 30s30 -13 30 -30v-390c0 -14 -5 -20 -13 -25c-32 -22 -100 -59 -100 -109c0 -22 15 -31 41 -31c13 0 25 3 36 6c18 5 28 -4 28 -17
c0 -10 -5 -16 -14 -20c-15 -7 -42 -11 -61 -11c-53 0 -80 25 -80 66c0 58 58 98 109 119zM110 217c0 -104 63 -178 163 -178c103 0 169 81 169 178s-66 178 -169 178c-100 0 -163 -74 -163 -178z" />
    <glyph glyph-name="aring.salt" horiz-adv-x="582" 
d="M358 570c0 -40 -31 -71 -72 -71s-72 31 -72 71s31 71 72 71s72 -31 72 -71zM324 570c0 22 -15 41 -38 41s-38 -19 -38 -41s15 -41 38 -41s38 19 38 41zM442 22v58c-38 -57 -97 -92 -177 -92c-122 0 -215 96 -215 229s93 229 215 229c80 0 139 -35 177 -92v58
c0 17 13 30 30 30s30 -13 30 -30v-390c0 -17 -13 -30 -30 -30s-30 13 -30 30zM110 217c0 -104 63 -178 163 -178c103 0 169 81 169 178s-66 178 -169 178c-100 0 -163 -74 -163 -178z" />
    <glyph glyph-name="aringacute.salt" horiz-adv-x="582" 
d="M442 22v58c-38 -57 -97 -92 -177 -92c-122 0 -215 96 -215 229s93 229 215 229c80 0 139 -35 177 -92v58c0 17 13 30 30 30s30 -13 30 -30v-390c0 -17 -13 -30 -30 -30s-30 13 -30 30zM110 217c0 -104 63 -178 163 -178c103 0 169 81 169 178s-66 178 -169 178
c-100 0 -163 -74 -163 -178zM353 570c0 -40 -31 -71 -72 -71s-72 31 -72 71s31 71 72 71s72 -31 72 -71zM319 570c0 22 -15 41 -38 41s-38 -19 -38 -41s15 -41 38 -41s38 19 38 41zM253 711c0 6 2 10 6 16l38 54c4 6 12 11 21 11c13 0 25 -8 25 -23c0 -8 -3 -13 -6 -17
l-35 -49c-6 -8 -12 -16 -25 -16s-24 11 -24 24z" />
    <glyph glyph-name="atilde.salt" horiz-adv-x="582" 
d="M347 519c-22 0 -36 8 -59 21c-20 11 -30 18 -47 18c-13 0 -24 -4 -37 -19l-11 -12c-4 -4 -9 -9 -19 -9c-11 0 -23 9 -23 21c0 6 2 11 6 16c3 4 6 8 10 13c20 25 41 37 74 37c18 0 33 -4 51 -14c24 -13 39 -25 54 -25c14 0 20 6 35 21l10 10c4 4 9 9 19 9
c11 0 23 -8 23 -20c0 -7 -2 -12 -6 -17c-3 -4 -8 -10 -12 -15c-18 -20 -39 -35 -68 -35zM442 22v58c-38 -57 -97 -92 -177 -92c-122 0 -215 96 -215 229s93 229 215 229c80 0 139 -35 177 -92v58c0 17 13 30 30 30s30 -13 30 -30v-390c0 -17 -13 -30 -30 -30s-30 13 -30 30z
M110 217c0 -104 63 -178 163 -178c103 0 169 81 169 178s-66 178 -169 178c-100 0 -163 -74 -163 -178z" />
    <glyph glyph-name="yacute.salt" horiz-adv-x="565" 
d="M241 536c0 6 2 10 6 16l72 102c4 6 12 11 21 11c13 0 25 -8 25 -23c0 -8 -3 -13 -6 -17l-69 -97c-6 -8 -12 -16 -25 -16s-24 11 -24 24zM485 32c0 -133 -52 -227 -216 -227c-63 0 -124 14 -163 38c-9 5 -18 13 -18 26c0 14 11 22 23 22c9 0 18 -4 26 -8
c39 -20 79 -29 130 -29c127 0 158 71 158 173v57c-32 -55 -90 -86 -163 -86c-116 0 -187 85 -187 201v213c0 17 13 30 30 30s30 -13 30 -30v-212c0 -90 47 -147 140 -147c85 0 150 62 150 160v199c0 17 13 30 30 30s30 -13 30 -30v-380z" />
    <glyph glyph-name="ycircumflex.salt" horiz-adv-x="565" 
d="M485 32c0 -133 -52 -227 -216 -227c-63 0 -124 14 -163 38c-9 5 -18 13 -18 26c0 14 11 22 23 22c9 0 18 -4 26 -8c39 -20 79 -29 130 -29c127 0 158 71 158 173v57c-32 -55 -90 -86 -163 -86c-116 0 -187 85 -187 201v213c0 17 13 30 30 30s30 -13 30 -30v-212
c0 -90 47 -147 140 -147c85 0 150 62 150 160v199c0 17 13 30 30 30s30 -13 30 -30v-380zM305 638l95 -88c5 -5 9 -9 9 -19c0 -11 -11 -20 -23 -20c-7 0 -11 2 -16 6l-84 74l-84 -74c-5 -4 -9 -6 -16 -6c-12 0 -23 9 -23 20c0 10 4 14 9 19l95 88c6 6 11 8 19 8s13 -2 19 -8
z" />
    <glyph glyph-name="ydieresis.salt" horiz-adv-x="565" 
d="M162 565c0 22 18 40 40 40s40 -18 40 -40s-18 -40 -40 -40s-40 18 -40 40zM328 565c0 22 18 40 40 40s40 -18 40 -40s-18 -40 -40 -40s-40 18 -40 40zM485 32c0 -133 -52 -227 -216 -227c-63 0 -124 14 -163 38c-9 5 -18 13 -18 26c0 14 11 22 23 22c9 0 18 -4 26 -8
c39 -20 79 -29 130 -29c127 0 158 71 158 173v57c-32 -55 -90 -86 -163 -86c-116 0 -187 85 -187 201v213c0 17 13 30 30 30s30 -13 30 -30v-212c0 -90 47 -147 140 -147c85 0 150 62 150 160v199c0 17 13 30 30 30s30 -13 30 -30v-380z" />
    <glyph glyph-name="ygrave.salt" horiz-adv-x="565" 
d="M485 32c0 -133 -52 -227 -216 -227c-63 0 -124 14 -163 38c-9 5 -18 13 -18 26c0 14 11 22 23 22c9 0 18 -4 26 -8c39 -20 79 -29 130 -29c127 0 158 71 158 173v57c-32 -55 -90 -86 -163 -86c-116 0 -187 85 -187 201v213c0 17 13 30 30 30s30 -13 30 -30v-212
c0 -90 47 -147 140 -147c85 0 150 62 150 160v199c0 17 13 30 30 30s30 -13 30 -30v-380zM326 536c0 -13 -11 -24 -24 -24s-19 7 -25 16l-69 97c-3 4 -6 9 -6 17c0 14 12 23 25 23c10 0 17 -5 21 -11l72 -102c4 -6 6 -10 6 -16z" />
    <glyph glyph-name="minus.onum" horiz-adv-x="551" 
d="M106 183c-14 0 -26 9 -26 25s12 25 26 25h339c14 0 26 -9 26 -25s-12 -25 -26 -25h-339z" />
    <glyph glyph-name="multiply.onum" horiz-adv-x="545" 
d="M154 376l118 -118l118 118c6 6 13 8 21 8c17 0 28 -13 28 -28c0 -9 -2 -15 -8 -21l-118 -118l117 -117c6 -6 10 -11 10 -21c0 -16 -14 -29 -29 -29c-8 0 -15 3 -21 8l-118 118l-118 -118c-5 -5 -11 -8 -20 -8c-17 0 -29 12 -29 29c0 8 3 15 8 20l118 118l-118 118
c-5 6 -8 12 -8 21c0 17 13 28 29 28c8 0 15 -3 20 -8z" />
    <glyph glyph-name="numbersign.onum" horiz-adv-x="707" 
d="M657 397c0 -13 -10 -25 -25 -25h-97l-19 -173h95c13 0 22 -9 22 -22s-10 -25 -25 -25h-97l-15 -134c-2 -15 -9 -26 -27 -26c-20 0 -25 15 -23 30l14 130h-239l-16 -135c-2 -15 -10 -25 -27 -25c-18 0 -24 13 -23 26l15 134h-92c-13 0 -23 10 -23 22c0 16 11 25 25 25h96
l19 173h-95c-12 0 -22 10 -22 22c0 14 9 25 27 25h95l15 130c2 16 11 25 27 25c15 0 25 -9 23 -29l-15 -126h239l15 130c2 16 11 25 28 25c16 0 25 -11 23 -27l-15 -128h94c12 0 23 -8 23 -22zM485 372h-239l-20 -173h239z" />
    <glyph glyph-name="dollar.onum" horiz-adv-x="562" 
d="M497 152c0 -83 -77 -144 -183 -152v-79c0 -15 -11 -26 -26 -26c-14 0 -25 11 -25 26v80c-82 6 -141 36 -178 63c-11 8 -15 15 -15 25c0 13 10 22 24 22c6 0 13 -2 21 -7c47 -32 104 -56 175 -56c93 0 149 43 149 100c0 65 -59 87 -146 112c-170 49 -204 95 -204 166
c0 74 60 132 184 139v80c0 15 11 26 26 26c14 0 25 -11 25 -26v-80c62 -4 110 -23 147 -50c8 -6 12 -13 12 -22c0 -12 -10 -23 -24 -23c-5 0 -11 2 -18 6c-43 25 -91 42 -144 42c-99 0 -150 -36 -150 -90c0 -53 38 -77 147 -111c122 -38 203 -67 203 -165z" />
    <glyph glyph-name="plus.onum" horiz-adv-x="604" 
d="M106 244h167v169c0 16 13 29 29 29s29 -13 29 -29v-169h167c16 0 29 -11 29 -27s-13 -27 -29 -27h-167v-169c0 -16 -13 -29 -29 -29s-29 13 -29 29v169h-167c-16 0 -29 11 -29 27s13 27 29 27z" />
    <glyph glyph-name="zero.onum" horiz-adv-x="614" 
d="M307 494c154 0 252 -112 252 -253s-98 -253 -252 -253s-252 112 -252 253s98 253 252 253zM499 241c0 111 -75 201 -192 201s-192 -90 -192 -201s75 -201 192 -201s192 90 192 201z" />
    <glyph glyph-name="one.onum" horiz-adv-x="367" 
d="M217 421l-148 -45c-4 -1 -8 -2 -11 -2c-14 0 -28 11 -28 27c0 15 10 23 24 27l178 56c6 2 11 3 15 3c18 0 30 -10 30 -31v-434c0 -16 -12 -30 -30 -30s-30 14 -30 30v399z" />
    <glyph glyph-name="two.onum" horiz-adv-x="562" 
d="M504 25c0 -13 -10 -25 -26 -25h-377c-21 0 -36 14 -36 31c0 16 11 26 29 37c71 44 113 68 187 115c91 58 146 99 146 168c0 52 -39 92 -133 92c-60 0 -107 -16 -161 -45c-6 -3 -11 -4 -16 -4c-15 0 -25 11 -25 24c0 11 5 19 17 26c50 29 117 50 186 50
c127 0 192 -57 192 -141c0 -94 -77 -150 -168 -207c-69 -43 -102 -63 -159 -96h318c15 0 26 -10 26 -25z" />
    <glyph glyph-name="three.onum" horiz-adv-x="553" 
d="M153 177c0 14 12 26 26 26h13c116 0 209 53 209 136c0 68 -46 104 -139 104c-47 0 -89 -11 -131 -30c-24 -11 -41 3 -41 19c0 12 6 21 22 28c48 22 99 34 155 34c122 0 194 -57 194 -152c0 -77 -64 -138 -151 -159c115 -11 188 -85 188 -178c0 -113 -96 -200 -247 -200
c-84 0 -154 25 -203 56c-9 6 -13 13 -13 22c0 18 22 34 45 20c49 -30 100 -47 168 -47c116 0 190 60 190 147c0 103 -94 148 -234 148h-25c-14 0 -26 12 -26 26z" />
    <glyph glyph-name="four.onum" horiz-adv-x="618" 
d="M562 26h-100v-191c0 -17 -13 -30 -29 -30c-18 0 -29 13 -29 30v191h-341c-14 0 -25 9 -25 23c0 8 3 15 8 21l362 405c9 9 16 12 27 12c19 0 27 -13 27 -30v-383h100c15 0 26 -9 26 -24c0 -14 -11 -24 -26 -24zM117 74h287v321z" />
    <glyph glyph-name="five.onum" horiz-adv-x="576" 
d="M521 14c0 -112 -81 -209 -250 -209c-71 0 -139 19 -196 57c-11 7 -17 14 -17 24c0 14 11 25 25 25c6 0 13 -2 19 -6c48 -29 98 -50 169 -50c131 0 190 71 190 157c0 94 -65 150 -178 150c-49 0 -86 -9 -127 -30c-6 -3 -14 -8 -25 -8c-20 0 -29 13 -27 29l41 304
c2 16 12 25 29 25h277c15 0 27 -11 27 -26s-12 -26 -27 -26h-253l-32 -243c36 19 87 27 129 27c135 0 226 -77 226 -200z" />
    <glyph glyph-name="six.onum" horiz-adv-x="592" 
d="M401 635c-128 -65 -236 -189 -276 -342c34 78 114 117 203 117c147 0 214 -101 214 -205c0 -109 -89 -217 -235 -217c-161 0 -235 105 -235 236c0 190 133 366 304 449c7 3 13 5 19 5c14 0 23 -9 23 -20c0 -10 -5 -17 -17 -23zM486 204c0 91 -55 157 -164 157
c-97 0 -187 -62 -187 -163c0 -91 61 -161 174 -161c107 0 177 75 177 167z" />
    <glyph glyph-name="seven.onum" horiz-adv-x="513" 
d="M485 457c0 -9 -3 -16 -6 -22c-103 -218 -186 -382 -307 -611c-7 -13 -16 -19 -28 -19c-14 0 -27 11 -27 26c0 5 2 10 5 16c116 218 194 370 294 583h-348c-14 0 -26 11 -26 25c0 16 12 27 26 27h389c17 0 28 -10 28 -25z" />
    <glyph glyph-name="eight.onum" horiz-adv-x="624" 
d="M312 -12c-154 0 -249 84 -249 197c0 94 68 160 152 182c-65 28 -106 79 -106 146c0 95 84 165 203 165s203 -70 203 -165c0 -67 -41 -118 -106 -146c84 -22 152 -88 152 -182c0 -113 -95 -197 -249 -197zM312 38c106 0 189 58 189 147c0 98 -84 153 -189 153
s-189 -55 -189 -153c0 -89 83 -147 189 -147zM312 386c84 0 145 52 145 122c0 72 -52 122 -145 122s-145 -50 -145 -122c0 -70 61 -122 145 -122z" />
    <glyph glyph-name="nine.onum" horiz-adv-x="595" 
d="M206 -152c126 66 237 187 276 341c-34 -78 -114 -117 -203 -117c-147 0 -214 101 -214 205c0 119 93 217 235 217c161 0 235 -105 235 -236c0 -190 -133 -365 -304 -448c-7 -3 -13 -5 -19 -5c-14 0 -23 9 -23 20c0 10 5 17 17 23zM121 278c0 -91 55 -157 164 -157
c97 0 187 62 187 163c0 95 -61 161 -174 161c-107 0 -177 -75 -177 -167z" />
    <glyph glyph-name="less.onum" horiz-adv-x="550" 
d="M480 421c0 -12 -6 -19 -16 -24l-332 -180l332 -180c10 -5 16 -12 16 -24c0 -13 -10 -25 -26 -25c-6 0 -11 1 -16 4l-362 202c-10 6 -16 12 -16 23s6 17 16 23l362 202c5 3 10 4 16 4c16 0 26 -12 26 -25z" />
    <glyph glyph-name="equal.onum" horiz-adv-x="560" 
d="M442 325c14 0 28 -10 28 -26s-14 -26 -28 -26h-324c-14 0 -28 10 -28 26s14 26 28 26h324zM442 151c14 0 28 -10 28 -26s-14 -26 -28 -26h-324c-14 0 -28 10 -28 26s14 26 28 26h324z" />
    <glyph glyph-name="greater.onum" horiz-adv-x="550" 
d="M70 421c0 13 10 25 26 25c6 0 11 -1 16 -4l362 -202c10 -6 16 -12 16 -23s-6 -17 -16 -23l-362 -202c-5 -3 -10 -4 -16 -4c-16 0 -26 12 -26 25c0 12 6 19 16 24l332 180l-332 180c-10 5 -16 12 -16 24z" />
    <glyph glyph-name="cent.onum" horiz-adv-x="566" 
d="M80 261c0 126 83 214 199 227v102c0 13 10 26 28 26s28 -13 28 -26v-102c69 -7 123 -42 150 -82c4 -6 6 -11 6 -18c0 -15 -13 -25 -29 -25c-10 0 -16 6 -21 12c-36 43 -73 63 -132 63c-98 0 -169 -73 -169 -177s71 -177 169 -177c59 0 96 20 132 63c5 6 11 12 21 12
c16 0 29 -10 29 -25c0 -7 -2 -12 -6 -18c-27 -40 -81 -76 -150 -83v-101c0 -13 -10 -26 -28 -26s-28 13 -28 26v101c-116 14 -199 102 -199 228z" />
    <glyph glyph-name="sterling.onum" horiz-adv-x="648" 
d="M298 255v-206h244c14 0 28 -9 28 -24c0 -16 -14 -25 -28 -25h-444c-15 0 -28 9 -28 25c0 15 13 24 28 24h140v206h-124c-15 0 -28 10 -28 25s13 25 28 25h124v79c0 134 60 194 200 194c48 0 93 -11 131 -31c13 -7 19 -15 19 -27c0 -13 -10 -24 -26 -24c-5 0 -11 1 -17 4
c-35 15 -66 24 -107 24c-98 0 -141 -29 -141 -137v-82h219c14 0 28 -10 28 -25s-14 -25 -28 -25h-218z" />
    <glyph glyph-name="notequal.onum" horiz-adv-x="560" 
d="M395 368l-24 -43h71c14 0 28 -10 28 -26s-14 -26 -28 -26h-100l-67 -122h167c14 0 28 -10 28 -26s-14 -26 -28 -26h-196l-34 -62c-6 -10 -13 -15 -24 -15s-21 7 -21 19c0 4 1 9 4 14l24 44h-77c-14 0 -28 10 -28 26s14 26 28 26h105l67 122h-172c-14 0 -28 10 -28 26
s14 26 28 26h201l36 65c4 7 11 12 20 12c16 0 23 -12 23 -23c0 -4 -1 -8 -3 -11z" />
    <glyph glyph-name="plusminus.onum" horiz-adv-x="630" 
d="M511 0h-392c-16 0 -29 11 -29 27s13 26 29 26h167v160h-167c-16 0 -29 10 -29 26s13 27 29 27h167v147c0 16 13 29 29 29s29 -13 29 -29v-147h167c16 0 29 -11 29 -27s-13 -26 -29 -26h-167v-160h167c16 0 29 -10 29 -26s-13 -27 -29 -27z" />
    <glyph glyph-name="yen.onum" horiz-adv-x="580" 
d="M290 279l174 281c6 9 12 14 25 14c15 0 26 -10 26 -25c0 -6 -2 -11 -6 -18l-123 -196h103c12 0 21 -9 21 -20c0 -12 -9 -21 -21 -21h-130l-39 -62v-44h168c12 0 22 -8 22 -21c0 -12 -10 -20 -22 -20h-168v-124c0 -18 -13 -31 -30 -31s-30 13 -30 31v124h-168
c-12 0 -22 8 -22 20c0 13 10 21 22 21h168v44l-39 62h-130c-12 0 -21 9 -21 21c0 11 9 20 21 20h103l-123 196c-4 7 -6 12 -6 18c0 15 11 25 26 25c13 0 19 -5 25 -14z" />
    <glyph glyph-name="florin.onum" horiz-adv-x="539" 
d="M229 241h-85c-14 0 -25 11 -25 24c0 16 12 26 30 26h89l24 133c19 108 62 150 165 150h44c16 0 28 -9 28 -24s-10 -26 -31 -26h-40c-68 0 -94 -25 -106 -98l-23 -135h117c15 0 25 -10 25 -24c0 -15 -12 -26 -30 -26h-122l-49 -277c-19 -109 -52 -159 -180 -159h-25
c-13 0 -25 9 -25 23c0 19 14 27 29 27h27c82 0 99 29 113 106z" />
    <glyph glyph-name="approxequal.onum" horiz-adv-x="565" 
d="M358 80c-24 0 -42 5 -73 19c-29 13 -51 25 -73 25c-27 0 -45 -8 -79 -38c-5 -4 -9 -6 -16 -6c-11 0 -22 11 -22 21c0 9 4 13 8 17c41 37 65 53 109 53c24 0 42 -5 73 -19c35 -16 51 -25 73 -25c27 0 45 8 79 38c5 4 9 6 16 6c11 0 22 -11 22 -21c0 -9 -4 -13 -8 -17
c-41 -37 -65 -53 -109 -53zM358 234c-24 0 -42 5 -73 19c-29 13 -51 25 -73 25c-27 0 -45 -8 -79 -38c-5 -4 -9 -6 -16 -6c-11 0 -22 11 -22 21c0 9 4 13 8 17c41 37 65 53 109 53c24 0 42 -5 73 -19c35 -16 51 -25 73 -25c27 0 45 8 79 38c5 4 9 6 16 6c11 0 22 -11 22 -21
c0 -9 -4 -13 -8 -17c-41 -37 -65 -53 -109 -53z" />
    <glyph glyph-name="divide.onum" horiz-adv-x="586" 
d="M472 190h-358c-16 0 -29 11 -29 27s13 27 29 27h358c16 0 29 -11 29 -27s-13 -27 -29 -27zM251 66c0 23 19 42 42 42s42 -19 42 -42s-19 -42 -42 -42s-42 19 -42 42zM251 368c0 23 19 42 42 42s42 -19 42 -42s-19 -42 -42 -42s-42 19 -42 42z" />
    <glyph glyph-name="Euro.onum" horiz-adv-x="714" 
d="M218 283c0 -19 1 -38 5 -56h300c11 0 21 -8 21 -20s-10 -20 -21 -20h-290c30 -86 100 -147 205 -147c58 0 109 16 159 60c8 7 15 10 22 10c16 0 25 -12 25 -25c0 -7 -2 -13 -9 -20c-53 -51 -120 -77 -199 -77c-132 0 -231 79 -265 199h-94c-11 0 -22 7 -22 20
s11 20 22 20h85c-3 18 -4 36 -4 56c0 19 1 38 4 56h-85c-11 0 -22 7 -22 20s11 20 22 20h94c34 120 133 199 265 199c79 0 146 -26 199 -77c7 -7 9 -13 9 -20c0 -13 -9 -25 -25 -25c-7 0 -14 3 -22 10c-50 44 -101 60 -159 60c-105 0 -175 -62 -205 -147h290
c11 0 21 -8 21 -20s-10 -20 -21 -20h-300c-4 -18 -5 -37 -5 -56z" />
    <glyph glyph-name="minus.tnum" 
d="M155 298c-14 0 -26 9 -26 25s12 25 26 25h339c14 0 26 -9 26 -25s-12 -25 -26 -25h-339z" />
    <glyph glyph-name="multiply.tnum" 
d="M206 482l118 -118l118 118c6 6 13 8 21 8c17 0 28 -13 28 -28c0 -9 -2 -15 -8 -21l-118 -118l117 -117c6 -6 10 -11 10 -21c0 -16 -14 -29 -29 -29c-8 0 -15 3 -21 8l-118 118l-118 -118c-5 -5 -11 -8 -20 -8c-17 0 -29 12 -29 29c0 8 3 15 8 20l118 118l-118 118
c-5 6 -8 12 -8 21c0 17 13 28 29 28c8 0 15 -3 20 -8z" />
    <glyph glyph-name="numbersign.tnum" horiz-adv-x="716" 
d="M664 459c0 -13 -10 -25 -25 -25h-97l-21 -193h95c13 0 22 -9 22 -22s-10 -25 -25 -25h-97l-20 -176c-2 -15 -9 -26 -27 -26c-20 0 -25 15 -23 30l19 172h-239l-21 -177c-2 -14 -10 -25 -27 -25s-24 13 -23 26l20 176h-92c-13 0 -23 10 -23 22c0 16 11 25 25 25h96l21 193
h-95c-12 0 -22 10 -22 22c0 14 9 25 27 25h95l19 168c2 16 11 25 27 25c14 0 25 -9 23 -29l-19 -164h239l19 168c2 16 12 25 28 25s25 -11 23 -27l-19 -166h94c12 0 23 -8 23 -22zM492 434h-239l-22 -193h239z" />
    <glyph glyph-name="dollar.tnum" 
d="M558 175c0 -91 -74 -156 -202 -167v-90c0 -13 -10 -26 -28 -26s-28 13 -28 26v91c-75 6 -144 34 -194 74c-9 8 -14 15 -14 24c0 14 11 24 25 24c9 0 17 -4 24 -9c48 -34 98 -63 191 -63c101 0 167 44 167 116c0 74 -84 105 -181 139c-160 56 -217 107 -217 186
c0 95 79 152 206 157v91c0 13 10 26 28 26s28 -13 28 -26v-92c55 -5 113 -24 161 -55c9 -6 14 -12 14 -21c0 -12 -9 -26 -27 -26c-5 0 -11 2 -16 5c-59 33 -117 48 -166 48c-111 0 -169 -37 -169 -106c0 -66 52 -90 163 -132c158 -59 235 -93 235 -194z" />
    <glyph glyph-name="plus.tnum" 
d="M129 350h167v169c0 16 13 29 29 29s29 -13 29 -29v-169h167c16 0 29 -11 29 -27s-13 -27 -29 -27h-167v-169c0 -16 -13 -29 -29 -29s-29 13 -29 29v169h-167c-16 0 -29 11 -29 27s13 27 29 27z" />
    <glyph glyph-name="zero.tnum" 
d="M604 333c0 -187 -106 -345 -279 -345s-279 158 -279 345s106 345 279 345s279 -158 279 -345zM544 333c0 159 -78 291 -219 291s-219 -132 -219 -291s78 -291 219 -291s219 132 219 291z" />
    <glyph glyph-name="one.tnum" 
d="M106 0c-14 0 -26 12 -26 26c0 15 11 26 26 26h202v556l-163 -43c-4 -1 -8 -2 -11 -2c-14 0 -28 11 -28 27s10 24 23 28l190 52c7 2 15 4 20 4c18 0 29 -12 29 -31v-591h194c15 0 26 -11 26 -26c0 -14 -12 -26 -26 -26h-456z" />
    <glyph glyph-name="two.tnum" 
d="M579 26c0 -14 -12 -26 -26 -26h-442c-15 0 -27 13 -27 27c0 173 82 228 217 293c157 75 212 111 212 189c0 76 -64 116 -174 116c-77 0 -141 -20 -199 -64c-4 -3 -9 -6 -16 -6c-15 0 -26 11 -26 25c0 16 13 27 37 42c59 38 133 56 208 56c140 0 230 -63 230 -170
c0 -84 -50 -142 -219 -221c-146 -68 -208 -117 -208 -235h407c15 0 26 -11 26 -26z" />
    <glyph glyph-name="three.tnum" 
d="M563 187c0 -120 -109 -199 -254 -199c-109 0 -180 33 -241 84c-7 6 -12 13 -12 23c0 17 14 25 28 25c6 0 12 -2 18 -7c54 -44 117 -75 207 -75c110 0 194 55 194 151c0 84 -65 146 -195 146h-72c-15 0 -26 13 -26 26c0 14 11 26 26 26h65c99 0 158 53 158 123
c0 78 -56 117 -149 117c-52 0 -95 -14 -135 -34c-9 -5 -17 -9 -27 -9c-16 0 -25 11 -25 23c0 16 12 25 26 32c52 28 112 39 165 39c124 0 205 -63 205 -164c0 -59 -30 -112 -114 -148c88 -15 158 -78 158 -179z" />
    <glyph glyph-name="four.tnum" 
d="M65 228l159 426c5 14 15 20 27 20c16 0 30 -14 23 -34l-148 -408h310v191c0 16 13 29 29 29s29 -13 29 -29v-191h90c14 0 26 -10 26 -25s-12 -25 -26 -25h-90v-160c0 -17 -11 -30 -29 -30s-29 13 -29 30v160h-351c-17 0 -26 10 -26 25c0 6 3 14 6 21z" />
    <glyph glyph-name="five.tnum" 
d="M575 206c0 -121 -92 -219 -251 -219c-102 0 -181 31 -240 86c-6 6 -11 12 -11 21c0 16 13 26 28 26c7 0 13 -3 18 -7c61 -52 128 -74 203 -74c123 0 193 71 193 165c0 103 -72 162 -178 162c-69 0 -122 -18 -179 -66c-6 -5 -14 -8 -23 -8c-21 0 -29 16 -27 30l51 319
c3 16 14 25 30 25h308c15 0 27 -11 27 -26c0 -14 -11 -26 -27 -26h-286l-41 -250c43 34 102 53 169 53c140 0 236 -78 236 -211z" />
    <glyph glyph-name="six.tnum" 
d="M584 204c0 -117 -90 -216 -250 -216c-169 0 -256 91 -256 234c0 192 115 361 292 438c19 8 41 18 62 18c15 0 25 -8 25 -20c0 -15 -10 -20 -30 -28c-179 -72 -254 -186 -297 -339c42 79 124 119 220 119c143 0 234 -89 234 -206zM526 203c0 94 -65 158 -183 158
c-106 0 -203 -66 -203 -161s58 -163 196 -163c112 0 190 68 190 166z" />
    <glyph glyph-name="seven.tnum" 
d="M570 641c0 -7 -3 -13 -7 -18c-143 -184 -254 -343 -254 -601c0 -17 -11 -30 -30 -30s-30 13 -30 30c0 250 112 437 243 592h-405c-15 0 -27 11 -27 26c0 14 12 26 27 26h452c20 0 31 -9 31 -25z" />
    <glyph glyph-name="eight.tnum" 
d="M112 513c0 102 92 165 213 165s213 -63 213 -165c0 -66 -42 -114 -113 -146c90 -24 160 -85 160 -182c0 -113 -97 -197 -260 -197s-260 84 -260 197c0 97 70 158 160 182c-71 32 -113 80 -113 146zM325 338c-107 0 -201 -53 -201 -152c0 -91 76 -149 201 -149
s201 58 201 149c0 99 -94 152 -201 152zM325 386c90 0 156 53 156 124c0 75 -62 120 -156 120s-156 -45 -156 -120c0 -71 66 -124 156 -124z" />
    <glyph glyph-name="nine.tnum" 
d="M72 462c0 117 90 216 250 216c169 0 256 -91 256 -234c0 -192 -115 -361 -292 -438c-19 -8 -41 -18 -62 -18c-15 0 -25 8 -25 20c0 15 10 20 30 28c179 72 254 186 297 339c-42 -79 -124 -119 -220 -119c-149 0 -234 89 -234 206zM130 463c0 -94 65 -158 183 -158
c106 0 203 66 203 161s-58 163 -196 163c-112 0 -190 -68 -190 -166z" />
    <glyph glyph-name="less.tnum" 
d="M535 527c0 -12 -6 -19 -16 -24l-332 -180l332 -180c10 -5 16 -12 16 -24c0 -13 -10 -25 -26 -25c-6 0 -11 1 -16 4l-362 202c-10 6 -16 12 -16 23s6 17 16 23l362 202c5 3 10 4 16 4c16 0 26 -12 26 -25z" />
    <glyph glyph-name="equal.tnum" 
d="M487 433c14 0 28 -10 28 -26s-14 -26 -28 -26h-324c-14 0 -28 10 -28 26s14 26 28 26h324zM487 259c14 0 28 -10 28 -26s-14 -26 -28 -26h-324c-14 0 -28 10 -28 26s14 26 28 26h324z" />
    <glyph glyph-name="greater.tnum" 
d="M115 527c0 13 10 25 26 25c6 0 11 -1 16 -4l362 -202c10 -6 16 -12 16 -23s-6 -17 -16 -23l-362 -202c-5 -3 -10 -4 -16 -4c-16 0 -26 12 -26 25c0 12 6 19 16 24l332 180l-332 180c-10 5 -16 12 -16 24z" />
    <glyph glyph-name="cent.tnum" 
d="M132 333c0 121 83 214 199 227v92c0 13 10 26 28 26s28 -13 28 -26v-92c69 -7 123 -42 150 -82c4 -6 6 -11 6 -18c0 -15 -13 -25 -29 -25c-10 0 -16 6 -21 12c-36 43 -73 63 -132 63c-98 0 -169 -79 -169 -177s71 -177 169 -177c59 0 96 20 132 63c5 6 11 12 21 12
c16 0 29 -10 29 -25c0 -7 -2 -12 -6 -18c-27 -40 -81 -76 -150 -83v-91c0 -13 -10 -26 -28 -26s-28 13 -28 26v91c-116 14 -199 107 -199 228z" />
    <glyph glyph-name="sterling.tnum" 
d="M553 632c0 -13 -7 -25 -25 -25c-3 0 -9 1 -14 3c-29 10 -63 14 -96 14c-103 0 -146 -55 -146 -159v-94h223c14 0 28 -9 28 -26s-14 -26 -28 -26h-223v-267h254c14 0 27 -11 27 -26c0 -16 -13 -26 -27 -26h-462c-15 0 -29 9 -29 26s14 26 29 26h148v267h-129
c-14 0 -29 8 -29 26s15 26 29 26h129v95c0 140 76 212 204 212c42 0 76 -3 114 -19c12 -5 23 -13 23 -27z" />
    <glyph glyph-name="notequal.tnum" 
d="M440 476l-24 -43h71c14 0 28 -10 28 -26s-14 -26 -28 -26h-100l-67 -122h167c14 0 28 -10 28 -26s-14 -26 -28 -26h-196l-34 -62c-6 -10 -13 -15 -24 -15s-21 7 -21 19c0 4 1 9 4 14l24 44h-77c-14 0 -28 10 -28 26s14 26 28 26h105l67 122h-172c-14 0 -28 10 -28 26
s14 26 28 26h201l36 65c4 7 11 12 20 12c16 0 23 -12 23 -23c0 -4 -1 -8 -3 -11z" />
    <glyph glyph-name="plusminus.tnum" 
d="M129 53h392c16 0 29 -10 29 -26s-13 -27 -29 -27h-392c-16 0 -29 11 -29 27s13 26 29 26zM129 360h167v159c0 16 13 29 29 29s29 -13 29 -29v-159h167c16 0 29 -11 29 -27s-13 -27 -29 -27h-167v-159c0 -16 -13 -29 -29 -29s-29 13 -29 29v159h-167c-16 0 -29 11 -29 27
s13 27 29 27z" />
    <glyph glyph-name="yen.tnum" 
d="M128 340c-14 0 -26 9 -26 23s12 23 26 23h110l-148 244c-4 6 -6 12 -6 17c0 16 12 27 27 27c11 0 19 -5 25 -15l189 -313l189 313c6 10 14 15 25 15c15 0 27 -11 27 -27c0 -5 -2 -11 -6 -17l-148 -244h110c14 0 26 -9 26 -23s-12 -23 -26 -23h-138l-29 -48v-66h167
c14 0 26 -9 26 -23s-12 -23 -26 -23h-167v-158c0 -17 -13 -30 -30 -30s-30 13 -30 30v158h-167c-14 0 -26 9 -26 23s12 23 26 23h167v66l-29 48h-138z" />
    <glyph glyph-name="florin.tnum" 
d="M540 649c0 -15 -11 -26 -31 -26h-24c-79 0 -100 -31 -114 -108l-23 -131h96c13 0 24 -7 24 -22s-12 -28 -30 -28h-99l-64 -364c-19 -108 -54 -165 -181 -165h-22c-15 0 -24 9 -24 22c0 19 14 28 29 28h23c77 0 99 30 113 109l66 370h-64c-14 0 -24 10 -24 22
c0 20 14 28 30 28h67l24 132c21 115 63 157 179 157h22c15 0 27 -7 27 -24z" />
    <glyph glyph-name="approxequal.tnum" 
d="M398 190c-24 0 -42 5 -73 19c-29 13 -51 25 -73 25c-27 0 -45 -8 -79 -38c-5 -4 -9 -6 -16 -6c-11 0 -22 11 -22 21c0 9 4 13 8 17c41 37 65 53 109 53c24 0 42 -5 73 -19c35 -16 51 -25 73 -25c27 0 45 8 79 38c5 4 9 6 16 6c11 0 22 -11 22 -21c0 -9 -4 -13 -8 -17
c-41 -37 -65 -53 -109 -53zM398 344c-24 0 -42 5 -73 19c-29 13 -51 25 -73 25c-27 0 -45 -8 -79 -38c-5 -4 -9 -6 -16 -6c-11 0 -22 11 -22 21c0 9 4 13 8 17c41 37 65 53 109 53c24 0 42 -5 73 -19c35 -16 51 -25 73 -25c27 0 45 8 79 38c5 4 9 6 16 6c11 0 22 -11 22 -21
c0 -9 -4 -13 -8 -17c-41 -37 -65 -53 -109 -53z" />
    <glyph glyph-name="divide.tnum" 
d="M516 296h-382c-16 0 -29 11 -29 27s13 27 29 27h382c16 0 29 -11 29 -27s-13 -27 -29 -27zM283 147c0 23 19 42 42 42s42 -19 42 -42s-19 -42 -42 -42s-42 19 -42 42zM283 499c0 23 19 42 42 42s42 -19 42 -42s-19 -42 -42 -42s-42 19 -42 42z" />
    <glyph glyph-name="Euro.tnum" 
d="M369 678c101 0 167 -63 206 -137c3 -6 4 -10 4 -15c0 -16 -12 -25 -26 -25c-12 0 -20 5 -27 17c-40 72 -88 109 -157 109c-112 0 -167 -81 -184 -191h248c14 0 26 -9 26 -23s-12 -23 -26 -23h-253c-2 -19 -2 -38 -2 -57c0 -20 0 -39 2 -57h253c14 0 26 -9 26 -23
s-12 -23 -26 -23h-248c17 -110 72 -191 184 -191c69 0 117 37 157 109c7 12 15 17 27 17c14 0 26 -9 26 -25c0 -5 -1 -9 -4 -15c-39 -74 -105 -137 -206 -137c-147 0 -223 102 -244 242h-76c-14 0 -26 9 -26 23s12 23 26 23h71c-2 18 -2 37 -2 57c0 19 0 38 2 57h-71
c-14 0 -26 9 -26 23s12 23 26 23h76c21 140 97 242 244 242z" />
    <glyph glyph-name="minusonum.tnum" 
d="M155 183c-14 0 -26 9 -26 25s12 25 26 25h339c14 0 26 -9 26 -25s-12 -25 -26 -25h-339z" />
    <glyph glyph-name="multiplyonum.tnum" 
d="M206 376l118 -118l118 118c6 6 13 8 21 8c17 0 28 -13 28 -28c0 -9 -2 -15 -8 -21l-118 -118l117 -117c6 -6 10 -11 10 -21c0 -16 -14 -29 -29 -29c-8 0 -15 3 -21 8l-118 118l-118 -118c-5 -5 -11 -8 -20 -8c-17 0 -29 12 -29 29c0 8 3 15 8 20l118 118l-118 118
c-5 6 -8 12 -8 21c0 17 13 28 29 28c8 0 15 -3 20 -8z" />
    <glyph glyph-name="numbersignonum.tnum" 
d="M616 397c0 -13 -10 -25 -25 -25h-87l-19 -173h85c13 0 22 -9 22 -22s-10 -25 -25 -25h-87l-15 -134c-2 -15 -9 -26 -27 -26c-20 0 -25 15 -23 30l14 130h-239l-16 -135c-2 -15 -10 -25 -27 -25c-18 0 -24 13 -23 26l15 134h-82c-13 0 -23 10 -23 22c0 16 11 25 25 25h86
l19 173h-85c-12 0 -22 10 -22 22c0 14 9 25 27 25h85l15 130c2 16 11 25 27 25c15 0 25 -9 23 -29l-15 -126h239l15 130c2 16 11 25 28 25c16 0 25 -11 23 -27l-15 -128h84c12 0 23 -8 23 -22zM454 372h-239l-20 -173h239z" />
    <glyph glyph-name="dollaronum.tnum" 
d="M538 152c0 -83 -77 -144 -183 -152v-79c0 -15 -11 -26 -26 -26c-14 0 -25 11 -25 26v80c-82 6 -141 36 -178 63c-11 8 -15 15 -15 25c0 13 10 22 24 22c6 0 13 -2 21 -7c47 -32 104 -56 175 -56c93 0 149 43 149 100c0 65 -59 87 -146 112c-170 49 -204 95 -204 166
c0 74 60 132 184 139v80c0 15 11 26 26 26c14 0 25 -11 25 -26v-80c62 -4 110 -23 147 -50c8 -6 12 -13 12 -22c0 -12 -10 -23 -24 -23c-5 0 -11 2 -18 6c-43 25 -91 42 -144 42c-99 0 -150 -36 -150 -90c0 -53 38 -77 147 -111c122 -38 203 -67 203 -165z" />
    <glyph glyph-name="plusonum.tnum" 
d="M129 244h167v169c0 16 13 29 29 29s29 -13 29 -29v-169h167c16 0 29 -11 29 -27s-13 -27 -29 -27h-167v-169c0 -16 -13 -29 -29 -29s-29 13 -29 29v169h-167c-16 0 -29 11 -29 27s13 27 29 27z" />
    <glyph glyph-name="zeroonum.tnum" 
d="M325 494c154 0 252 -112 252 -253s-98 -253 -252 -253s-252 112 -252 253s98 253 252 253zM517 241c0 111 -75 201 -192 201s-192 -90 -192 -201s75 -201 192 -201s192 90 192 201z" />
    <glyph glyph-name="oneonum.tnum" 
d="M103 0c-14 0 -26 11 -26 25c0 15 11 25 26 25h204v371l-163 -43c-4 -1 -8 -2 -11 -2c-14 0 -28 11 -28 27s10 24 23 28l190 52c7 2 15 4 20 4c18 0 29 -12 29 -31v-406h191c15 0 26 -10 26 -25c0 -14 -12 -25 -26 -25h-455z" />
    <glyph glyph-name="twoonum.tnum" 
d="M551 25c0 -13 -10 -25 -26 -25h-377c-21 0 -36 14 -36 31c0 16 11 26 29 37c71 44 113 68 187 115c91 58 146 99 146 168c0 52 -39 92 -133 92c-60 0 -107 -16 -161 -45c-6 -3 -11 -4 -16 -4c-15 0 -25 11 -25 24c0 11 5 19 17 26c50 29 117 50 186 50
c127 0 192 -57 192 -141c0 -94 -77 -150 -168 -207c-69 -43 -102 -63 -159 -96h318c15 0 26 -10 26 -25z" />
    <glyph glyph-name="threeonum.tnum" 
d="M201 177c0 14 12 26 26 26h23c116 0 209 53 209 136c0 68 -46 104 -139 104c-47 0 -89 -11 -131 -30c-24 -11 -41 3 -41 19c0 12 6 21 22 28c48 22 99 34 155 34c122 0 194 -57 194 -152c0 -77 -64 -138 -151 -159c115 -11 188 -85 188 -178c0 -113 -96 -200 -247 -200
c-84 0 -154 25 -203 56c-9 6 -13 13 -13 22c0 18 22 34 45 20c49 -30 100 -47 168 -47c116 0 190 60 190 147c0 103 -94 148 -234 148h-35c-14 0 -26 12 -26 26z" />
    <glyph glyph-name="fouronum.tnum" 
d="M577 26h-106v-191c0 -17 -13 -30 -29 -30c-18 0 -29 13 -29 30v191h-331c-14 0 -25 9 -25 23c0 8 3 15 8 21l352 405c9 9 16 12 27 12c19 0 27 -13 27 -30v-383h106c15 0 26 -9 26 -24c0 -14 -11 -24 -26 -24zM136 74h277v321z" />
    <glyph glyph-name="fiveonum.tnum" 
d="M564 14c0 -112 -81 -209 -250 -209c-71 0 -139 19 -196 57c-11 7 -17 14 -17 24c0 14 11 25 25 25c6 0 13 -2 19 -6c48 -29 98 -50 169 -50c131 0 190 71 190 157c0 94 -65 150 -178 150c-49 0 -86 -9 -127 -30c-6 -3 -14 -8 -25 -8c-20 0 -29 13 -27 29l41 304
c2 16 12 25 29 25h281c15 0 27 -11 27 -26s-12 -26 -27 -26h-257l-32 -243c36 19 87 27 129 27c135 0 226 -77 226 -200z" />
    <glyph glyph-name="sixonum.tnum" 
d="M426 635c-128 -65 -236 -189 -276 -342c34 78 114 117 203 117c147 0 214 -101 214 -205c0 -109 -89 -217 -235 -217c-161 0 -235 105 -235 236c0 190 133 366 304 449c7 3 13 5 19 5c14 0 23 -9 23 -20c0 -10 -5 -17 -17 -23zM511 204c0 91 -55 157 -164 157
c-97 0 -187 -62 -187 -163c0 -91 61 -161 174 -161c107 0 177 75 177 167z" />
    <glyph glyph-name="sevenonum.tnum" 
d="M569 457c0 -9 -3 -16 -6 -22c-103 -218 -193 -387 -313 -611c-7 -13 -15 -19 -28 -19c-14 0 -26 11 -26 26c0 5 2 10 5 16c117 213 199 370 299 583h-367c-14 0 -26 11 -26 25c0 16 12 27 26 27h408c17 0 28 -10 28 -25z" />
    <glyph glyph-name="eightonum.tnum" 
d="M325 -12c-154 0 -249 84 -249 197c0 94 68 160 152 182c-65 28 -106 79 -106 146c0 95 84 165 203 165s203 -70 203 -165c0 -67 -41 -118 -106 -146c84 -22 152 -88 152 -182c0 -113 -95 -197 -249 -197zM325 38c106 0 189 58 189 147c0 98 -84 153 -189 153
s-189 -55 -189 -153c0 -89 83 -147 189 -147zM325 386c84 0 145 52 145 122c0 72 -52 122 -145 122s-145 -50 -145 -122c0 -70 61 -122 145 -122z" />
    <glyph glyph-name="nineonum.tnum" 
d="M239 -152c128 65 237 187 276 341c-34 -78 -114 -117 -203 -117c-147 0 -214 101 -214 205c0 119 93 217 235 217c161 0 235 -105 235 -236c0 -190 -133 -365 -304 -448c-7 -3 -13 -5 -19 -5c-14 0 -23 9 -23 20c0 10 5 17 17 23zM154 278c0 -91 55 -157 164 -157
c97 0 187 62 187 163c0 95 -61 161 -174 161c-107 0 -177 -75 -177 -167z" />
    <glyph glyph-name="lessonum.tnum" 
d="M535 421c0 -12 -6 -19 -16 -24l-332 -180l332 -180c10 -5 16 -12 16 -24c0 -13 -10 -25 -26 -25c-6 0 -11 1 -16 4l-362 202c-10 6 -16 12 -16 23s6 17 16 23l362 202c5 3 10 4 16 4c16 0 26 -12 26 -25z" />
    <glyph glyph-name="equalonum.tnum" 
d="M487 325c14 0 28 -10 28 -26s-14 -26 -28 -26h-324c-14 0 -28 10 -28 26s14 26 28 26h324zM487 151c14 0 28 -10 28 -26s-14 -26 -28 -26h-324c-14 0 -28 10 -28 26s14 26 28 26h324z" />
    <glyph glyph-name="greateronum.tnum" 
d="M115 421c0 13 10 25 26 25c6 0 11 -1 16 -4l362 -202c10 -6 16 -12 16 -23s-6 -17 -16 -23l-362 -202c-5 -3 -10 -4 -16 -4c-16 0 -26 12 -26 25c0 12 6 19 16 24l332 180l-332 180c-10 5 -16 12 -16 24z" />
    <glyph glyph-name="centonum.tnum" 
d="M119 261c0 126 83 214 199 227v102c0 13 10 26 28 26s28 -13 28 -26v-102c69 -7 123 -42 150 -82c4 -6 6 -11 6 -18c0 -15 -13 -25 -29 -25c-10 0 -16 6 -21 12c-36 43 -73 63 -132 63c-98 0 -169 -73 -169 -177s71 -177 169 -177c59 0 96 20 132 63c5 6 11 12 21 12
c16 0 29 -10 29 -25c0 -7 -2 -12 -6 -18c-27 -40 -81 -76 -150 -83v-101c0 -13 -10 -26 -28 -26s-28 13 -28 26v101c-116 14 -199 102 -199 228z" />
    <glyph glyph-name="sterlingonum.tnum" 
d="M287 245v-196h244c14 0 28 -9 28 -24c0 -16 -14 -25 -28 -25h-444c-15 0 -28 9 -28 25c0 15 13 24 28 24h140v196h-124c-15 0 -28 10 -28 25s13 25 28 25h124v89c0 134 60 194 200 194c48 0 93 -11 131 -31c13 -7 19 -15 19 -27c0 -13 -10 -24 -26 -24c-5 0 -11 1 -17 4
c-35 15 -66 24 -107 24c-98 0 -141 -29 -141 -137v-92h219c14 0 28 -10 28 -25s-14 -25 -28 -25h-218z" />
    <glyph glyph-name="notequalonum.tnum" 
d="M440 368l-24 -43h71c14 0 28 -10 28 -26s-14 -26 -28 -26h-100l-67 -122h167c14 0 28 -10 28 -26s-14 -26 -28 -26h-196l-34 -62c-6 -10 -13 -15 -24 -15s-21 7 -21 19c0 4 1 9 4 14l24 44h-77c-14 0 -28 10 -28 26s14 26 28 26h105l67 122h-172c-14 0 -28 10 -28 26
s14 26 28 26h201l36 65c4 7 11 12 20 12c16 0 23 -12 23 -23c0 -4 -1 -8 -3 -11z" />
    <glyph glyph-name="plusminusonum.tnum" 
d="M521 0h-392c-16 0 -29 11 -29 27s13 26 29 26h167v160h-167c-16 0 -29 10 -29 26s13 27 29 27h167v147c0 16 13 29 29 29s29 -13 29 -29v-147h167c16 0 29 -11 29 -27s-13 -26 -29 -26h-167v-160h167c16 0 29 -10 29 -26s-13 -27 -29 -27z" />
    <glyph glyph-name="yenonum.tnum" 
d="M325 279l174 281c6 9 12 14 25 14c15 0 26 -10 26 -25c0 -6 -2 -11 -6 -18l-123 -196h103c12 0 21 -9 21 -20c0 -12 -9 -21 -21 -21h-130l-39 -62v-44h168c12 0 22 -8 22 -21c0 -12 -10 -20 -22 -20h-168v-124c0 -18 -13 -31 -30 -31s-30 13 -30 31v124h-168
c-12 0 -22 8 -22 20c0 13 10 21 22 21h168v44l-39 62h-130c-12 0 -21 9 -21 21c0 11 9 20 21 20h103l-123 196c-4 7 -6 12 -6 18c0 15 11 25 26 25c13 0 19 -5 25 -14z" />
    <glyph glyph-name="florinonum.tnum" 
d="M299 241h-85c-14 0 -25 11 -25 24c0 16 12 26 30 26h89l24 133c19 108 62 150 165 150h44c16 0 28 -9 28 -24s-10 -26 -31 -26h-40c-68 0 -94 -25 -106 -98l-23 -135h117c15 0 25 -10 25 -24c0 -15 -12 -26 -30 -26h-122l-49 -277c-19 -109 -52 -159 -180 -159h-25
c-13 0 -25 9 -25 23c0 19 14 27 29 27h27c82 0 99 29 113 106z" />
    <glyph glyph-name="approxequalonum.tnum" 
d="M398 80c-24 0 -42 5 -73 19c-29 13 -51 25 -73 25c-27 0 -45 -8 -79 -38c-5 -4 -9 -6 -16 -6c-11 0 -22 11 -22 21c0 9 4 13 8 17c41 37 65 53 109 53c24 0 42 -5 73 -19c35 -16 51 -25 73 -25c27 0 45 8 79 38c5 4 9 6 16 6c11 0 22 -11 22 -21c0 -9 -4 -13 -8 -17
c-41 -37 -65 -53 -109 -53zM398 234c-24 0 -42 5 -73 19c-29 13 -51 25 -73 25c-27 0 -45 -8 -79 -38c-5 -4 -9 -6 -16 -6c-11 0 -22 11 -22 21c0 9 4 13 8 17c41 37 65 53 109 53c24 0 42 -5 73 -19c35 -16 51 -25 73 -25c27 0 45 8 79 38c5 4 9 6 16 6c11 0 22 -11 22 -21
c0 -9 -4 -13 -8 -17c-41 -37 -65 -53 -109 -53z" />
    <glyph glyph-name="divideonum.tnum" 
d="M504 190h-358c-16 0 -29 11 -29 27s13 27 29 27h358c16 0 29 -11 29 -27s-13 -27 -29 -27zM283 66c0 23 19 42 42 42s42 -19 42 -42s-19 -42 -42 -42s-42 19 -42 42zM283 368c0 23 19 42 42 42s42 -19 42 -42s-19 -42 -42 -42s-42 19 -42 42z" />
    <glyph glyph-name="Euroonum.tnum" 
d="M177 283c0 -19 1 -38 5 -56h300c11 0 21 -8 21 -20s-10 -20 -21 -20h-290c30 -86 100 -147 205 -147c58 0 109 16 159 60c8 7 15 10 22 10c16 0 25 -12 25 -25c0 -7 -2 -13 -9 -20c-53 -51 -120 -77 -199 -77c-132 0 -231 79 -265 199h-84c-11 0 -22 7 -22 20
s11 20 22 20h75c-3 18 -4 36 -4 56c0 19 1 38 4 56h-75c-11 0 -22 7 -22 20s11 20 22 20h84c34 120 133 199 265 199c79 0 146 -26 199 -77c7 -7 9 -13 9 -20c0 -13 -9 -25 -25 -25c-7 0 -14 3 -22 10c-50 44 -101 60 -159 60c-105 0 -175 -62 -205 -147h290
c11 0 21 -8 21 -20s-10 -20 -21 -20h-300c-4 -18 -5 -37 -5 -56z" />
    <glyph glyph-name="parenleft.smcp" horiz-adv-x="315" 
d="M220 678c5 7 11 12 22 12c17 0 28 -13 28 -26c0 -6 -2 -11 -5 -16c-77 -134 -115 -250 -115 -398s38 -264 115 -398c3 -5 5 -10 5 -16c0 -13 -11 -26 -28 -26c-11 0 -17 5 -22 12c-95 154 -130 288 -130 428s35 274 130 428z" />
    <glyph glyph-name="parenright.smcp" horiz-adv-x="315" 
d="M95 678c95 -154 130 -288 130 -428s-35 -274 -130 -428c-5 -7 -11 -12 -22 -12c-17 0 -28 13 -28 26c0 6 2 11 5 16c77 134 115 250 115 398s-38 264 -115 398c-3 5 -5 10 -5 16c0 13 11 26 28 26c11 0 17 -5 22 -12z" />
    <glyph glyph-name="bracketleft.smcp" horiz-adv-x="342" 
d="M287 -143c0 -15 -12 -26 -26 -26h-128c-18 0 -28 13 -28 29v776c0 19 13 30 28 30h128c14 0 26 -11 26 -26s-12 -26 -26 -26h-96v-731h96c14 0 26 -11 26 -26z" />
    <glyph glyph-name="bracketright.smcp" horiz-adv-x="342" 
d="M55 -143c0 15 12 26 26 26h96v731h-96c-14 0 -26 11 -26 26s12 26 26 26h128c15 0 28 -11 28 -30v-776c0 -16 -10 -29 -28 -29h-128c-14 0 -26 11 -26 26z" />
    <glyph glyph-name="a.smcp" horiz-adv-x="618" 
d="M309 508c12 0 20 -5 26 -17l224 -459c2 -4 4 -9 4 -13c0 -16 -12 -27 -29 -27c-14 0 -20 7 -27 20l-64 131h-268l-64 -131c-7 -13 -13 -20 -27 -20c-17 0 -29 11 -29 27c0 4 2 9 4 13l224 459c6 12 14 17 26 17zM420 191l-111 236l-111 -236h222z" />
    <glyph glyph-name="b.smcp" horiz-adv-x="589" 
d="M327 500c99 0 165 -44 165 -123c0 -49 -28 -90 -88 -111c68 -11 123 -49 123 -126c0 -73 -58 -140 -190 -140h-207c-19 0 -30 14 -30 30v440c0 17 13 30 30 30h197zM337 236h-177v-185h179c91 0 129 42 129 93c0 64 -51 92 -131 92zM160 449v-162h169c65 0 103 37 103 83
c0 55 -42 79 -108 79h-164z" />
    <glyph glyph-name="c.smcp" horiz-adv-x="597" 
d="M330 512c82 0 153 -31 199 -80c7 -7 10 -14 10 -22c0 -14 -12 -26 -27 -26c-10 0 -18 4 -27 13c-39 37 -84 63 -150 63c-146 0 -215 -104 -215 -210s69 -210 215 -210c66 0 111 26 150 63c9 9 17 13 27 13c15 0 27 -12 27 -26c0 -8 -3 -15 -10 -22
c-46 -49 -117 -80 -199 -80c-178 0 -270 126 -270 262s92 262 270 262z" />
    <glyph glyph-name="d.smcp" horiz-adv-x="620" 
d="M100 30v440c0 18 13 30 30 30h159c171 0 274 -106 274 -250s-103 -250 -274 -250h-159c-17 0 -30 14 -30 30zM286 448h-126v-396h126c143 0 217 85 217 198s-74 198 -217 198z" />
    <glyph glyph-name="e.smcp" horiz-adv-x="535" 
d="M160 236v-184h299c14 0 26 -12 26 -26s-12 -26 -26 -26h-329c-18 0 -30 14 -30 30v440c0 17 13 30 30 30h318c14 0 26 -12 26 -26s-12 -26 -26 -26h-288v-160h169c14 0 26 -12 26 -26s-12 -26 -26 -26h-169z" />
    <glyph glyph-name="f.smcp" horiz-adv-x="506" 
d="M160 236v-214c0 -17 -13 -30 -30 -30s-30 13 -30 30v448c0 17 13 30 30 30h320c14 0 26 -12 26 -26s-12 -26 -26 -26h-290v-160h171c14 0 26 -12 26 -26s-12 -26 -26 -26h-171z" />
    <glyph glyph-name="g.smcp" horiz-adv-x="626" 
d="M331 221c0 14 11 25 25 25h178c14 0 25 -11 25 -25v-127c0 -8 -4 -14 -9 -20c-45 -48 -128 -86 -219 -86c-177 0 -271 124 -271 262c0 148 104 262 271 262c74 0 145 -25 191 -71c5 -5 10 -11 10 -19c0 -14 -12 -26 -27 -26c-8 0 -14 2 -20 7c-39 33 -85 57 -154 57
c-135 0 -211 -97 -211 -210c0 -107 68 -213 212 -213c69 0 123 23 170 61v98h-146c-14 0 -25 10 -25 25z" />
    <glyph glyph-name="h.smcp" horiz-adv-x="655" 
d="M160 229v-207c0 -17 -13 -30 -30 -30s-30 13 -30 30v456c0 17 13 30 30 30s30 -13 30 -30v-196h335v196c0 17 13 30 30 30s30 -13 30 -30v-456c0 -17 -13 -30 -30 -30s-30 13 -30 30v207h-335z" />
    <glyph glyph-name="i.smcp" horiz-adv-x="270" 
d="M165 478v-456c0 -17 -13 -30 -30 -30s-30 13 -30 30v456c0 17 13 30 30 30s30 -13 30 -30z" />
    <glyph glyph-name="j.smcp" horiz-adv-x="529" 
d="M236 39c95 0 138 56 138 146v293c0 17 13 30 30 30s30 -13 30 -30v-292c0 -114 -63 -198 -198 -198c-112 0 -180 59 -195 145c-3 21 9 33 28 33s26 -12 29 -27c14 -67 62 -100 138 -100z" />
    <glyph glyph-name="k.smcp" horiz-adv-x="593" 
d="M160 478v-249l308 269c7 6 13 10 22 10c17 0 28 -12 28 -27c0 -10 -4 -16 -11 -22l-175 -153l194 -270c4 -6 5 -12 5 -17c0 -13 -11 -27 -28 -27c-13 0 -20 5 -26 13l-188 264l-129 -113v-134c0 -17 -13 -30 -30 -30s-30 13 -30 30v456c0 17 13 30 30 30s30 -13 30 -30z
" />
    <glyph glyph-name="l.smcp" horiz-adv-x="512" 
d="M160 52h286c14 0 26 -11 26 -26s-12 -26 -26 -26h-316c-18 0 -30 14 -30 30v448c0 17 13 30 30 30s30 -13 30 -30v-426z" />
    <glyph glyph-name="m.smcp" horiz-adv-x="740" 
d="M640 479v-458c0 -16 -13 -29 -29 -29s-29 13 -29 29v358l-183 -367c-7 -13 -14 -20 -29 -20s-22 7 -29 20l-183 367v-358c0 -16 -13 -29 -29 -29s-29 13 -29 29v458c0 18 13 29 29 29c17 0 25 -8 32 -22l209 -419l209 419c7 14 15 22 32 22c16 0 29 -11 29 -29z" />
    <glyph glyph-name="n.smcp" horiz-adv-x="649" 
d="M155 494l336 -401v386c0 16 13 29 29 29s29 -13 29 -29v-457c0 -16 -10 -29 -29 -29c-12 0 -20 7 -27 15l-335 397v-384c0 -16 -14 -29 -29 -29c-16 0 -29 13 -29 29v458c0 17 11 29 29 29c12 0 19 -6 26 -14z" />
    <glyph glyph-name="o.smcp" horiz-adv-x="654" 
d="M591 250c0 -141 -97 -262 -264 -262s-264 121 -264 262s97 262 264 262s264 -121 264 -262zM327 39c133 0 204 101 204 211s-71 211 -204 211s-204 -101 -204 -211s71 -211 204 -211z" />
    <glyph glyph-name="p.smcp" horiz-adv-x="561" 
d="M160 213v-191c0 -17 -13 -30 -30 -30s-30 13 -30 30v448c0 18 13 30 30 30h221c113 0 172 -61 172 -144c0 -84 -59 -143 -172 -143h-191zM463 356c0 54 -38 93 -103 93h-200v-185h200c65 0 103 38 103 92z" />
    <glyph glyph-name="q.smcp" horiz-adv-x="654" 
d="M540 -38c4 -6 6 -10 6 -16c0 -14 -12 -25 -25 -25c-9 0 -16 4 -22 13l-52 79c-35 -16 -75 -25 -120 -25c-167 0 -264 121 -264 262s97 262 264 262s264 -121 264 -262c0 -86 -36 -164 -101 -212zM327 39c34 0 64 6 90 18l-45 69c-4 6 -6 11 -6 16c0 15 13 24 26 24
c8 0 16 -4 21 -12l46 -70c47 40 72 101 72 166c0 110 -71 211 -204 211s-204 -101 -204 -211s71 -211 204 -211z" />
    <glyph glyph-name="r.smcp" horiz-adv-x="625" 
d="M160 217v-195c0 -17 -13 -30 -30 -30s-30 13 -30 30v448c0 18 13 30 30 30h246c113 0 172 -59 172 -142c0 -67 -42 -121 -122 -137l102 -187c2 -4 4 -9 4 -15c0 -15 -12 -27 -28 -27c-13 0 -21 6 -26 16l-114 209h-204zM488 358c0 54 -38 91 -103 91h-225v-181h225
c65 0 103 36 103 90z" />
    <glyph glyph-name="s.smcp" horiz-adv-x="564" 
d="M501 131c0 -88 -82 -143 -207 -143c-83 0 -155 25 -208 64c-11 8 -16 16 -16 26c0 14 11 26 28 26c6 0 14 -2 20 -7c48 -35 104 -58 175 -58c91 0 148 35 148 88c0 59 -57 77 -146 100c-159 41 -211 81 -211 153c0 85 72 132 206 132c64 0 123 -14 178 -49
c11 -7 16 -15 16 -25c0 -13 -12 -25 -27 -25c-5 0 -11 1 -17 5c-42 27 -97 43 -149 43c-89 0 -147 -22 -147 -79c0 -53 49 -71 150 -99c127 -35 207 -61 207 -152z" />
    <glyph glyph-name="t.smcp" horiz-adv-x="480" 
d="M270 448v-426c0 -17 -13 -30 -30 -30s-30 13 -30 30v426h-172c-14 0 -26 12 -26 26s12 26 26 26h404c14 0 26 -12 26 -26s-12 -26 -26 -26h-172z" />
    <glyph glyph-name="u.smcp" horiz-adv-x="658" 
d="M329 -12c-142 0 -233 81 -233 209v281c0 17 13 30 30 30s30 -13 30 -30v-286c0 -89 61 -152 173 -152s173 63 173 152v286c0 17 13 30 30 30s30 -13 30 -30v-281c0 -128 -91 -209 -233 -209z" />
    </font>
</defs>
</svg>
