<?xml version="1.0" standalone="no"?>
<!DOCTYPE svg PUBLIC "-//W3C//DTD SVG 1.1//EN" "http://www.w3.org/Graphics/SVG/1.1/DTD/svg11.dtd" >
<svg xmlns="http://www.w3.org/2000/svg" xmlns:xlink="http://www.w3.org/1999/xlink" version="1.1">
<metadata>
Created by FontForge 20160405 at Tue Jul 17 01:22:19 2018
 By www-data
Copyright (c) 2008 by Process Type Foundry. All rights reserved.
</metadata>
<defs>
<font id="BryantPro-Bold" horiz-adv-x="650" >
  <font-face 
    font-family="Bryant Pro Bold"
    font-weight="700"
    font-stretch="normal"
    units-per-em="1000"
    panose-1="2 11 5 3 4 0 0 2 0 3"
    ascent="750"
    descent="-250"
    x-height="434"
    cap-height="674"
    bbox="-47 -292 1208 953"
    underline-thickness="20"
    underline-position="-133"
    stemh="104"
    stemv="120"
    unicode-range="U+0020-FB02"
  />
<missing-glyph horiz-adv-x="666" 
d="M100 0v666h466v-666h-466zM517 616h-340l340 -527v527zM149 576v-527h339z" />
    <glyph glyph-name="fi" unicode="fi" horiz-adv-x="641" 
d="M443 573c0 38 30 68 68 68s68 -30 68 -68s-30 -68 -68 -68s-68 30 -68 68zM451 52v330c0 33 27 60 60 60s60 -27 60 -60v-330c0 -33 -27 -60 -60 -60s-60 27 -60 60zM116 495c0 102 54 175 172 175h40c28 0 50 -22 50 -50s-22 -50 -50 -50h-28c-37 0 -64 -19 -64 -63v-73
h82c28 0 50 -22 50 -50s-22 -50 -50 -50h-82v-282c0 -33 -27 -60 -60 -60s-60 27 -60 60v282h-51c-28 0 -50 22 -50 50s22 50 50 50h51v61z" />
    <glyph glyph-name="fl" unicode="fl" horiz-adv-x="643" 
d="M453 52v562c0 33 27 60 60 60s60 -27 60 -60v-562c0 -33 -27 -60 -60 -60s-60 27 -60 60zM116 495c0 102 54 175 172 175h40c28 0 50 -22 50 -50s-22 -50 -50 -50h-28c-37 0 -64 -19 -64 -63v-73h82c28 0 50 -22 50 -50s-22 -50 -50 -50h-82v-282c0 -33 -27 -60 -60 -60
s-60 27 -60 60v282h-51c-28 0 -50 22 -50 50s22 50 50 50h51v61z" />
    <glyph glyph-name=".notdef" horiz-adv-x="666" 
d="M100 0v666h466v-666h-466zM517 616h-340l340 -527v527zM149 576v-527h339z" />
    <glyph glyph-name="space" unicode=" " horiz-adv-x="290" 
 />
    <glyph glyph-name="exclam" unicode="!" horiz-adv-x="298" 
d="M209 381l-31 -156c-2 -16 -13 -28 -29 -28s-27 12 -29 28l-31 156v233c0 33 27 60 60 60s60 -27 60 -60v-233zM218 62c0 -38 -31 -69 -69 -69s-69 31 -69 69s31 68 69 68s69 -30 69 -68z" />
    <glyph glyph-name="quotedbl" unicode="&#x22;" horiz-adv-x="409" 
d="M349 450c0 -28 -23 -51 -51 -51s-51 23 -51 51v173c0 28 23 51 51 51s51 -23 51 -51v-173zM162 450c0 -28 -23 -51 -51 -51s-51 23 -51 51v173c0 28 23 51 51 51s51 -23 51 -51v-173z" />
    <glyph glyph-name="numbersign" unicode="#" horiz-adv-x="735" 
d="M110 412c-23 0 -40 18 -40 40c0 26 16 50 50 50h81l13 123c3 27 23 49 54 49c25 0 44 -20 44 -44v-5l-13 -123h181l13 123c3 29 23 49 54 49c27 0 44 -20 44 -43v-6l-13 -123h83c22 0 39 -19 39 -41c0 -26 -20 -49 -49 -49h-83l-16 -150h83c22 0 39 -18 39 -40
c0 -26 -20 -50 -49 -50h-83l-14 -131c-3 -27 -22 -49 -54 -49c-24 0 -44 19 -44 44v5l14 131h-181l-14 -131c-3 -28 -23 -49 -54 -49c-24 0 -44 19 -44 44v5l14 131h-81c-22 0 -39 18 -39 40c0 30 22 50 49 50h81l16 150h-81zM289 412l-16 -150h181l16 150h-181z" />
    <glyph glyph-name="dollar" unicode="$" horiz-adv-x="589" 
d="M257 -61v73c-29 3 -58 10 -93 21c-47 17 -104 48 -104 91c0 29 18 47 47 47c11 0 21 -2 29 -7c49 -29 91 -55 169 -55c75 0 115 29 115 73c0 50 -45 76 -137 106c-155 50 -215 104 -215 203c0 96 72 152 193 163v73c0 25 20 46 46 46s46 -21 46 -46v-73
c22 -2 46 -7 70 -13c43 -12 98 -38 98 -75c0 -25 -14 -49 -46 -49c-10 0 -15 1 -22 4c-50 20 -85 36 -144 36c-78 0 -126 -20 -126 -66c0 -47 31 -65 140 -104c127 -45 211 -88 211 -196c0 -89 -59 -160 -185 -178v-74c0 -25 -20 -46 -46 -46s-46 21 -46 46z" />
    <glyph glyph-name="percent" unicode="%" horiz-adv-x="860" 
d="M383 513c0 -92 -71 -165 -169 -165s-169 73 -169 165s71 165 169 165s169 -73 169 -165zM288 513c0 45 -30 81 -74 81s-74 -36 -74 -81s30 -81 74 -81s74 36 74 81zM252 8c-9 -13 -23 -20 -37 -20c-28 0 -46 24 -46 47c0 9 3 19 9 27l428 596c9 13 23 20 37 20
c27 0 47 -21 47 -46c0 -9 -3 -19 -9 -28zM810 153c0 -92 -71 -165 -169 -165s-169 73 -169 165s71 165 169 165s169 -73 169 -165zM715 153c0 45 -30 81 -74 81s-74 -36 -74 -81s30 -81 74 -81s74 36 74 81z" />
    <glyph glyph-name="ampersand" unicode="&#x26;" horiz-adv-x="734" 
d="M722 68c0 -50 -75 -80 -131 -80c-55 0 -105 18 -139 62c-55 -42 -124 -62 -197 -62c-145 0 -220 71 -220 179c0 111 88 171 177 208c-38 43 -65 97 -65 148c0 92 64 155 172 155c97 0 151 -65 151 -148c0 -68 -32 -127 -110 -184l105 -146c22 31 43 63 60 95
c9 17 19 27 43 27c28 0 48 -18 48 -49c0 -36 -59 -119 -88 -151c13 -24 36 -40 64 -40c46 0 62 27 88 27c22 0 42 -13 42 -41zM369 520c0 41 -19 68 -54 68c-36 0 -57 -28 -57 -65c0 -38 18 -73 51 -108c29 20 60 59 60 105zM393 127c-42 57 -82 109 -125 169
c-60 -30 -111 -63 -111 -126c0 -50 33 -86 101 -86c48 0 96 13 135 43z" />
    <glyph glyph-name="quotesingle" unicode="'" horiz-adv-x="222" 
d="M162 450c0 -28 -23 -51 -51 -51s-51 23 -51 51v173c0 28 23 51 51 51s51 -23 51 -51v-173z" />
    <glyph glyph-name="parenleft" unicode="(" horiz-adv-x="337" 
d="M307 -121c0 -27 -25 -49 -52 -49c-19 0 -33 10 -44 25c-85 118 -136 270 -136 415s51 297 136 415c11 15 25 25 44 25c27 0 52 -22 52 -49c0 -10 -3 -19 -8 -28c-60 -115 -104 -231 -104 -363s44 -248 104 -363c5 -9 8 -18 8 -28z" />
    <glyph glyph-name="parenright" unicode=")" horiz-adv-x="337" 
d="M30 -121c0 10 3 19 8 28c60 115 104 231 104 363s-44 248 -104 363c-5 9 -8 18 -8 28c0 27 25 49 52 49c19 0 33 -10 44 -25c85 -118 136 -270 136 -415s-51 -297 -136 -415c-11 -15 -25 -25 -44 -25c-27 0 -52 22 -52 49z" />
    <glyph glyph-name="asterisk" unicode="*" horiz-adv-x="398" 
d="M96 418c0 7 2 12 5 17l42 66h-78c-17 0 -30 13 -30 30s13 30 30 30h78l-42 66c-3 5 -5 9 -5 18c0 16 15 29 31 29c11 0 19 -5 25 -14l47 -73l47 73c6 9 14 14 25 14c16 0 31 -13 31 -29c0 -9 -2 -13 -5 -18l-43 -66h79c17 0 30 -13 30 -30s-13 -30 -30 -30h-79l43 -66
c3 -5 5 -10 5 -17c0 -18 -15 -30 -30 -30c-10 0 -18 3 -26 14l-47 73l-47 -73c-8 -11 -16 -14 -26 -14c-15 0 -30 12 -30 30z" />
    <glyph glyph-name="plus" unicode="+" horiz-adv-x="600" 
d="M535 323c0 -26 -22 -48 -48 -48h-134v-134c0 -29 -24 -53 -53 -53s-53 24 -53 53v134h-134c-27 0 -48 22 -48 48c0 27 21 48 48 48h134v134c0 29 24 53 53 53s53 -24 53 -53v-134h134c26 0 48 -22 48 -48z" />
    <glyph glyph-name="comma" unicode="," horiz-adv-x="246" 
d="M181 49c0 -60 -7 -126 -46 -186c-12 -19 -29 -33 -51 -33c-34 0 -52 21 -52 42c0 15 5 22 11 33c28 51 32 85 32 139v30c0 32 19 56 53 56s53 -23 53 -56v-25z" />
    <glyph glyph-name="hyphen" unicode="-" horiz-adv-x="428" 
d="M368 248c0 -28 -24 -51 -52 -51h-204c-28 0 -52 23 -52 51c0 29 24 52 52 52h204c28 0 52 -23 52 -52z" />
    <glyph glyph-name="period" unicode="." horiz-adv-x="257" 
d="M197 62c0 -38 -31 -69 -69 -69s-68 31 -68 69s30 68 68 68s69 -30 69 -68z" />
    <glyph glyph-name="slash" unicode="/" horiz-adv-x="427" 
d="M141 -72c-7 -21 -24 -35 -50 -35c-31 0 -51 25 -51 52c0 6 1 12 3 18l246 726c8 22 27 36 51 36c33 0 52 -25 52 -52c0 -6 -1 -11 -3 -17z" />
    <glyph glyph-name="zero" unicode="0" horiz-adv-x="674" 
d="M629 333c0 -183 -105 -345 -292 -345s-292 162 -292 345s105 345 292 345s292 -162 292 -345zM509 333c0 143 -74 237 -172 237s-172 -94 -172 -237s74 -237 172 -237s172 94 172 237z" />
    <glyph glyph-name="one" unicode="1" horiz-adv-x="393" 
d="M84 512c-4 -1 -8 -2 -12 -2c-29 0 -57 23 -57 56c0 26 13 44 39 52l174 52c6 2 14 4 20 4c33 0 60 -22 60 -61v-561c0 -33 -27 -60 -60 -60c-32 0 -60 27 -60 60v491z" />
    <glyph glyph-name="two" unicode="2" horiz-adv-x="628" 
d="M578 54c0 -29 -24 -54 -53 -54h-420c-30 0 -53 26 -53 55c0 148 106 226 220 281c120 58 180 82 180 150c0 57 -57 84 -137 84c-69 0 -109 -10 -171 -50c-8 -5 -16 -8 -26 -8c-32 0 -53 23 -53 49c0 39 36 63 97 88c52 21 115 29 159 29c147 0 251 -67 251 -190
c0 -103 -70 -160 -195 -222c-109 -54 -187 -93 -187 -158h335c30 0 53 -25 53 -54z" />
    <glyph glyph-name="three" unicode="3" horiz-adv-x="632" 
d="M582 194c0 -133 -116 -206 -268 -206c-86 0 -187 26 -253 87c-10 10 -21 25 -21 43c0 37 27 53 54 53c12 0 20 -3 30 -10c53 -41 100 -71 190 -71c88 0 148 39 148 110c0 69 -58 100 -163 100h-56c-31 0 -52 26 -52 52c0 29 21 52 52 52h44c96 0 129 38 129 93
c0 53 -42 79 -106 79c-43 0 -79 -10 -105 -22c-19 -9 -35 -19 -57 -19c-32 0 -48 22 -48 47c0 43 53 64 87 76c41 14 92 20 133 20c132 0 216 -63 216 -172c0 -50 -18 -105 -90 -141c85 -26 136 -80 136 -171z" />
    <glyph glyph-name="four" unicode="4" horiz-adv-x="638" 
d="M576 167h-79v-116c0 -33 -26 -59 -59 -59s-59 26 -59 59v116h-312c-29 0 -52 21 -52 50c0 16 7 27 17 39l359 396c16 17 31 22 49 22c39 0 57 -26 57 -59v-348h79c30 0 52 -22 52 -50s-22 -50 -52 -50zM171 267h208v231z" />
    <glyph glyph-name="five" unicode="5" horiz-adv-x="626" 
d="M574 216c0 -143 -120 -228 -268 -228c-85 0 -172 19 -238 74c-14 12 -23 29 -23 43c0 34 25 55 53 55c11 0 20 -3 30 -9c60 -40 102 -60 178 -60c90 0 148 47 148 121c0 71 -63 115 -138 115c-58 0 -97 -10 -149 -36c-10 -5 -18 -7 -29 -7c-41 0 -59 27 -55 56l44 277
c4 30 26 49 57 49h282c30 0 55 -25 55 -55c0 -29 -25 -54 -55 -54h-237l-24 -151c26 14 81 27 118 27c161 0 251 -92 251 -217z" />
    <glyph glyph-name="six" unicode="6" horiz-adv-x="628" 
d="M416 574c-95 -43 -196 -113 -235 -227c38 47 113 69 177 69c144 0 232 -93 232 -211c0 -124 -109 -217 -259 -217c-181 0 -276 108 -276 250c0 197 104 311 226 388c46 29 100 52 152 52c28 0 49 -15 49 -42c0 -29 -22 -42 -66 -62zM470 204c0 65 -47 111 -137 111
c-81 0 -143 -45 -143 -112c0 -72 55 -114 139 -114c74 0 141 42 141 115z" />
    <glyph glyph-name="seven" unicode="7" horiz-adv-x="573" 
d="M558 613c0 -12 -3 -20 -10 -29c-144 -180 -201 -317 -201 -533c0 -33 -25 -59 -60 -59c-36 0 -60 26 -60 59c0 217 59 373 172 507h-326c-30 0 -53 25 -53 54c0 30 24 54 53 54h430c36 0 55 -18 55 -53z" />
    <glyph glyph-name="eight" unicode="8" horiz-adv-x="638" 
d="M590 194c0 -112 -100 -206 -271 -206s-271 94 -271 206c0 80 48 139 125 172c-46 35 -76 79 -76 136c0 99 87 176 222 176s221 -77 221 -176c0 -57 -29 -101 -75 -136c77 -33 125 -92 125 -172zM424 491c0 48 -39 87 -105 87s-105 -35 -105 -87c0 -58 46 -92 105 -92
s105 36 105 92zM470 197c0 59 -54 108 -151 108s-151 -49 -151 -108c0 -63 60 -109 151 -109s151 46 151 109z" />
    <glyph glyph-name="nine" unicode="9" horiz-adv-x="625" 
d="M223 90c120 51 194 119 228 229c-38 -47 -111 -69 -175 -69c-154 0 -232 93 -232 211c0 125 115 217 259 217c177 0 274 -108 274 -250c0 -185 -97 -311 -219 -388c-46 -29 -100 -52 -152 -52c-28 0 -49 15 -49 42c0 29 22 41 66 60zM164 462c0 -65 43 -114 137 -114
c81 0 143 48 143 115c0 72 -58 112 -142 112c-74 0 -138 -37 -138 -113z" />
    <glyph glyph-name="colon" unicode=":" horiz-adv-x="257" 
d="M197 306c0 -38 -31 -69 -69 -69s-68 31 -68 69s30 68 68 68s69 -30 69 -68zM197 62c0 -38 -31 -69 -69 -69s-68 31 -68 69s30 68 68 68s69 -30 69 -68z" />
    <glyph glyph-name="semicolon" unicode=";" horiz-adv-x="257" 
d="M197 305c0 -38 -31 -68 -69 -68s-69 30 -69 68s31 69 69 69s69 -31 69 -69zM183 49c0 -60 -9 -126 -48 -186c-12 -19 -29 -33 -51 -33c-34 0 -52 21 -52 42c0 15 6 22 11 33c24 51 30 85 30 139v30c0 32 21 56 55 56s55 -23 55 -56v-25z" />
    <glyph glyph-name="less" unicode="&#x3c;" horiz-adv-x="559" 
d="M467 456l-287 -133l287 -133c19 -10 27 -22 27 -44c0 -30 -23 -52 -52 -52c-9 0 -19 2 -28 7l-346 176c-17 10 -28 24 -28 46s11 36 28 46l346 176c9 5 19 7 28 7c29 0 52 -22 52 -52c0 -22 -8 -34 -27 -44z" />
    <glyph glyph-name="equal" unicode="=" horiz-adv-x="566" 
d="M491 414c0 -26 -21 -47 -47 -47h-322c-26 0 -47 21 -47 47s21 47 47 47h322c26 0 47 -21 47 -47zM491 233c0 -26 -21 -47 -47 -47h-322c-26 0 -47 21 -47 47s21 47 47 47h322c26 0 47 -21 47 -47z" />
    <glyph glyph-name="greater" unicode="&#x3e;" horiz-adv-x="559" 
d="M379 323l-287 133c-19 11 -27 22 -27 44c0 30 23 52 52 52c9 0 19 -2 28 -7l346 -176c17 -10 28 -24 28 -46s-11 -36 -28 -46l-346 -176c-9 -5 -19 -7 -28 -7c-29 0 -52 22 -52 52c0 22 8 35 27 44z" />
    <glyph glyph-name="question" unicode="?" horiz-adv-x="473" 
d="M443 515c0 -57 -23 -95 -82 -140c-64 -49 -83 -60 -83 -114v-16c0 -32 -23 -56 -59 -56c-35 0 -56 25 -56 55v20c0 82 29 112 80 152c43 34 80 53 80 93c0 43 -41 61 -96 61c-51 0 -77 -9 -123 -28c-8 -3 -18 -5 -27 -5c-28 0 -52 20 -52 50c0 25 19 43 47 57
c48 25 115 34 160 34c125 0 211 -56 211 -163zM290 62c0 -38 -31 -69 -69 -69c-37 0 -68 31 -68 69s31 68 68 68c38 0 69 -30 69 -68z" />
    <glyph glyph-name="at" unicode="@" horiz-adv-x="762" 
d="M738 102c0 -17 -12 -26 -24 -33c-90 -54 -190 -81 -295 -81c-232 0 -384 145 -384 355c0 194 116 335 318 335c156 0 239 -80 239 -219v-241c0 -25 -19 -44 -44 -44c-24 0 -45 19 -45 43c-17 -30 -62 -46 -94 -46c-94 0 -155 79 -155 169c0 91 59 169 155 169
c37 0 76 -15 96 -47v14c0 80 -50 129 -154 129c-150 0 -233 -112 -233 -262c0 -169 108 -282 303 -282c103 0 180 27 264 70c4 2 12 6 19 6c20 0 34 -14 34 -35zM503 340c0 48 -29 89 -80 89s-80 -41 -80 -89s29 -89 80 -89s80 41 80 89z" />
    <glyph glyph-name="A" unicode="A" horiz-adv-x="694" 
d="M552 25l-57 122h-296l-57 -122c-11 -20 -25 -33 -51 -33c-36 0 -58 28 -58 57c0 8 2 16 6 24l256 569c9 20 26 32 52 32s43 -11 52 -32l256 -569c4 -8 6 -16 6 -24c0 -29 -22 -57 -58 -57c-26 0 -40 12 -51 33zM451 254l-104 254l-104 -254h208z" />
    <glyph glyph-name="B" unicode="B" horiz-adv-x="660" 
d="M618 191c0 -99 -81 -191 -236 -191h-241c-34 0 -61 28 -61 62v543c0 34 27 61 61 61h231c133 0 210 -69 210 -165c0 -67 -42 -114 -106 -143c87 -20 142 -83 142 -167zM459 483c0 44 -30 74 -82 74h-175v-151h175c56 0 82 38 82 77zM496 205c0 50 -38 92 -105 92h-189
v-188h190c63 0 104 37 104 96z" />
    <glyph glyph-name="C" unicode="C" horiz-adv-x="667" 
d="M380 101c68 0 109 26 147 55c13 9 26 14 40 14c34 0 55 -26 55 -56c0 -16 -7 -29 -19 -41c-57 -59 -145 -85 -223 -85c-196 0 -340 136 -340 345s144 345 340 345c78 0 166 -26 223 -85c12 -12 19 -25 19 -41c0 -30 -21 -56 -55 -56c-14 0 -27 5 -40 14
c-38 29 -79 55 -147 55c-131 0 -217 -99 -217 -232s86 -232 217 -232z" />
    <glyph glyph-name="D" unicode="D" horiz-adv-x="699" 
d="M657 333c0 -186 -129 -333 -332 -333h-183c-34 0 -62 28 -62 62v543c0 34 28 61 62 61h183c203 0 332 -147 332 -333zM535 333c0 129 -78 220 -216 220h-117v-440h117c138 0 216 91 216 220z" />
    <glyph glyph-name="E" unicode="E" horiz-adv-x="605" 
d="M575 56c0 -32 -26 -56 -58 -56h-375c-34 0 -62 27 -62 61v544c0 34 28 61 62 61h360c32 0 58 -24 58 -56s-26 -57 -58 -57h-300v-159h165c31 0 57 -25 57 -57s-26 -56 -57 -56h-165v-168h315c32 0 58 -25 58 -57z" />
    <glyph glyph-name="F" unicode="F" horiz-adv-x="572" 
d="M564 609c0 -32 -26 -58 -57 -58h-305v-156h170c31 0 56 -26 56 -58s-25 -57 -56 -57h-170v-227c0 -34 -27 -61 -61 -61s-61 27 -61 61v552c0 34 27 61 61 61h366c32 0 57 -25 57 -57z" />
    <glyph glyph-name="G" unicode="G" horiz-adv-x="719" 
d="M669 147c0 -17 -4 -26 -14 -39c-65 -81 -173 -120 -273 -120c-213 0 -342 156 -342 345c0 202 146 345 340 345c78 0 166 -26 223 -85c12 -12 19 -25 19 -41c0 -30 -21 -56 -55 -56c-14 0 -27 5 -40 14c-38 29 -79 55 -147 55c-131 0 -217 -99 -217 -232
c0 -136 80 -238 219 -238c68 0 128 24 167 60v103h-130c-30 0 -56 24 -56 55c0 32 26 55 56 55h188c35 0 62 -28 62 -62v-159z" />
    <glyph glyph-name="H" unicode="H" horiz-adv-x="720" 
d="M640 54c0 -34 -27 -62 -61 -62s-61 28 -61 62v232h-316v-232c0 -34 -26 -62 -60 -62s-62 28 -62 62v558c0 34 28 62 62 62s60 -28 60 -62v-212h316v212c0 34 27 62 61 62s61 -28 61 -62v-558z" />
    <glyph glyph-name="I" unicode="I" horiz-adv-x="292" 
d="M207 54c0 -34 -26 -62 -60 -62s-62 28 -62 62v558c0 34 28 62 62 62s60 -28 60 -62v-558z" />
    <glyph glyph-name="J" unicode="J" horiz-adv-x="609" 
d="M534 262c0 -159 -85 -274 -261 -274c-124 0 -230 81 -252 199c-1 4 -1 12 -1 14c0 34 23 58 59 58c33 0 51 -19 59 -48c18 -66 58 -114 135 -114c99 0 139 65 139 159v356c0 34 28 62 61 62c34 0 61 -29 61 -62v-350z" />
    <glyph glyph-name="K" unicode="K" horiz-adv-x="665" 
d="M202 54c0 -34 -26 -62 -60 -62s-62 28 -62 62v558c0 34 28 62 62 62s60 -28 60 -62v-245l301 291c11 11 25 16 40 16c30 0 59 -24 59 -56c0 -19 -6 -33 -18 -44l-174 -168l203 -324c7 -10 10 -23 10 -34c0 -27 -19 -56 -56 -56c-23 0 -41 9 -51 25l-191 307l-123 -119
v-151z" />
    <glyph glyph-name="L" unicode="L" horiz-adv-x="574" 
d="M494 0h-352c-34 0 -62 28 -62 62v550c0 34 28 62 62 62s60 -28 60 -62v-497h292c31 0 57 -25 57 -57s-26 -57 -57 -58z" />
    <glyph glyph-name="M" unicode="M" horiz-adv-x="832" 
d="M752 49c0 -31 -24 -57 -58 -57c-32 0 -57 26 -57 57v333l-170 -358c-10 -21 -28 -32 -50 -32c-24 0 -39 10 -50 32l-172 358v-332c0 -31 -26 -58 -58 -58c-31 0 -57 27 -57 58v567c0 31 24 57 57 57c27 0 43 -16 54 -36l226 -469l224 469c10 21 29 36 53 36
c36 0 58 -24 58 -58v-567z" />
    <glyph glyph-name="N" unicode="N" horiz-adv-x="722" 
d="M642 49c0 -31 -24 -57 -58 -57c-19 0 -33 7 -44 21l-345 436v-400c0 -32 -26 -57 -58 -57c-31 0 -57 26 -57 57v567c0 31 23 58 60 58c16 0 33 -9 42 -21l345 -436v399c0 31 23 58 57 58s58 -27 58 -58v-567z" />
    <glyph glyph-name="O" unicode="O" horiz-adv-x="774" 
d="M729 333c0 -193 -146 -345 -342 -345s-342 152 -342 345s146 345 342 345s342 -152 342 -345zM606 333c0 127 -83 235 -219 235s-219 -108 -219 -235s83 -235 219 -235s219 108 219 235z" />
    <glyph glyph-name="P" unicode="P" horiz-adv-x="654" 
d="M630 461c0 -113 -71 -203 -237 -203h-191v-205c0 -34 -27 -61 -61 -61s-61 27 -61 61v552c0 34 27 61 61 61h252c166 0 237 -92 237 -205zM507 461c0 44 -30 93 -97 93h-208v-183h208c67 0 97 45 97 90z" />
    <glyph glyph-name="Q" unicode="Q" horiz-adv-x="774" 
d="M652 -63c0 -29 -23 -52 -55 -52c-24 0 -39 12 -48 29l-51 91c-35 -11 -72 -17 -111 -17c-196 0 -342 152 -342 345s146 345 342 345s342 -152 342 -345c0 -115 -52 -215 -135 -278l50 -90c5 -9 8 -16 8 -28zM606 333c0 127 -83 235 -219 235s-219 -108 -219 -235
s83 -235 219 -235c20 0 38 2 56 6l-44 79c-5 9 -7 18 -7 27c0 28 25 54 55 54c22 0 38 -11 48 -29l42 -78c44 44 69 107 69 176z" />
    <glyph glyph-name="R" unicode="R" horiz-adv-x="691" 
d="M628 79c4 -8 7 -17 7 -26c0 -31 -24 -61 -61 -61c-27 0 -44 12 -54 33l-117 241h-201v-213c0 -34 -27 -61 -61 -61s-61 27 -61 61v552c0 34 27 61 61 61h257c166 0 237 -82 237 -200c0 -78 -34 -145 -110 -178zM512 465c0 44 -30 89 -97 89h-213v-183h213
c67 0 97 49 97 94z" />
    <glyph glyph-name="S" unicode="S" horiz-adv-x="624" 
d="M578 186c0 -116 -88 -198 -258 -198c-81 0 -173 25 -231 70c-20 16 -34 36 -34 58c0 31 20 52 51 52c11 0 21 -3 31 -9c54 -34 91 -64 185 -64c96 0 134 39 134 84c0 49 -39 74 -159 106c-181 48 -235 106 -235 206c0 122 105 187 264 187c36 0 85 -6 128 -18
c46 -13 104 -42 104 -82c0 -27 -16 -55 -50 -55c-8 0 -16 1 -24 5c-46 21 -94 42 -157 42c-89 0 -143 -24 -143 -76c0 -49 40 -66 160 -101c137 -40 234 -79 234 -207z" />
    <glyph glyph-name="T" unicode="T" horiz-adv-x="621" 
d="M601 608c0 -31 -25 -57 -58 -57h-171v-497c0 -34 -28 -62 -62 -62s-60 28 -60 62v497h-172c-32 0 -58 26 -58 57c0 32 25 58 58 58h465c32 0 58 -26 58 -58z" />
    <glyph glyph-name="U" unicode="U" horiz-adv-x="722" 
d="M524 256v356c0 34 27 62 61 62s61 -28 61 -62v-343c0 -172 -107 -281 -285 -281s-285 109 -285 281v343c0 34 27 62 61 62s61 -28 61 -62v-356c0 -93 56 -158 163 -158s163 65 163 158z" />
    <glyph glyph-name="V" unicode="V" horiz-adv-x="661" 
d="M635 617c0 -8 -2 -16 -5 -24l-247 -568c-9 -20 -30 -33 -52 -33c-23 0 -43 12 -52 33l-248 568c-3 7 -5 15 -5 23c0 30 25 58 56 58c22 0 44 -12 53 -33l195 -465l197 465c9 20 29 33 51 33c32 0 57 -26 57 -57z" />
    <glyph glyph-name="W" unicode="W" horiz-adv-x="974" 
d="M541 635l144 -428l151 427c7 24 25 40 54 40c37 0 56 -27 56 -57c0 -5 -1 -11 -3 -17l-203 -570c-7 -22 -26 -38 -56 -38c-26 0 -46 14 -54 37l-143 432l-143 -432c-8 -23 -28 -37 -54 -37c-30 0 -49 16 -56 38l-203 570c-2 6 -3 12 -3 17c0 30 19 57 56 57
c29 0 47 -16 54 -40l151 -427l144 428c8 23 25 39 54 39s46 -16 54 -39z" />
    <glyph glyph-name="X" unicode="X" horiz-adv-x="666" 
d="M56 47c0 13 4 26 12 36l195 252l-192 249c-8 10 -12 21 -12 33c0 31 26 57 58 57c17 0 33 -8 43 -21l173 -226l173 226c11 14 26 21 43 21c32 0 58 -26 58 -57c0 -12 -4 -23 -12 -33l-192 -249l195 -252c8 -10 12 -23 12 -36c0 -30 -24 -55 -55 -55c-20 0 -35 7 -47 23
l-175 228l-175 -228c-12 -15 -26 -23 -47 -23c-31 0 -55 25 -55 55z" />
    <glyph glyph-name="Y" unicode="Y" horiz-adv-x="588" 
d="M355 54c0 -34 -26 -62 -60 -62s-62 28 -62 62v239l-212 290c-7 11 -11 23 -11 34c0 30 25 57 55 57c20 0 35 -9 47 -25l182 -248l182 248c12 16 27 25 47 25c30 0 55 -27 55 -57c0 -11 -3 -23 -11 -34l-212 -290v-239z" />
    <glyph glyph-name="Z" unicode="Z" horiz-adv-x="640" 
d="M590 57c0 -31 -25 -57 -57 -57h-413c-32 0 -58 25 -58 57c0 13 5 24 13 34l342 462h-296c-31 0 -57 26 -57 57s26 56 57 56h409c31 0 57 -25 57 -56c0 -13 -5 -25 -13 -35l-342 -462h301c31 0 57 -25 57 -56z" />
    <glyph glyph-name="bracketleft" unicode="[" horiz-adv-x="378" 
d="M333 -99c0 -27 -23 -50 -51 -50h-136c-30 0 -56 26 -56 58v718c0 33 26 59 56 59h136c28 0 51 -23 51 -51s-23 -50 -51 -50h-74v-633h74c28 0 51 -22 51 -51z" />
    <glyph glyph-name="backslash" unicode="\" horiz-adv-x="427" 
d="M286 -72l-248 728c-2 6 -3 11 -3 17c0 29 20 52 52 52c27 0 43 -14 51 -36l246 -726c2 -6 3 -12 3 -18c0 -27 -18 -52 -51 -52c-23 0 -43 14 -50 35z" />
    <glyph glyph-name="bracketright" unicode="]" horiz-adv-x="378" 
d="M45 -99c0 29 23 51 51 51h74v633h-74c-28 0 -51 22 -51 50s23 51 51 51h136c30 0 56 -26 56 -59v-718c0 -32 -26 -58 -56 -58h-136c-28 0 -51 23 -51 50z" />
    <glyph glyph-name="asciicircum" unicode="^" horiz-adv-x="448" 
d="M413 381c0 -27 -20 -48 -49 -48c-18 0 -33 9 -42 24l-98 175l-98 -175c-9 -15 -26 -24 -43 -24c-30 0 -48 21 -48 48c0 8 2 16 7 24l139 244c10 17 24 25 43 25c18 0 33 -9 41 -24l141 -245c4 -8 7 -16 7 -24z" />
    <glyph glyph-name="underscore" unicode="_" horiz-adv-x="452" 
d="M453 -77h-454v64h454v-64z" />
    <glyph glyph-name="grave" unicode="`" horiz-adv-x="316" 
d="M116 666c18 0 29 -7 38 -19l60 -78c7 -8 12 -18 12 -30c0 -25 -25 -46 -48 -46c-20 0 -30 7 -39 19l-58 78c-6 8 -11 19 -11 29c0 29 20 47 46 47z" />
    <glyph glyph-name="a" unicode="a" horiz-adv-x="518" 
d="M340 52v2c-28 -45 -74 -66 -129 -66c-96 0 -156 58 -156 137c0 91 70 137 162 137c46 0 92 -15 121 -46v32c0 67 -24 96 -102 96c-57 0 -92 -22 -119 -22c-29 0 -51 21 -51 49c0 65 134 75 181 75c136 0 211 -66 211 -190v-204c0 -33 -24 -60 -59 -60
c-34 0 -59 27 -59 60zM338 125c0 31 -37 57 -84 57c-49 0 -80 -22 -80 -57s34 -57 80 -57c47 0 84 25 84 57z" />
    <glyph glyph-name="b" unicode="b" horiz-adv-x="566" 
d="M70 52v562c0 33 27 60 60 60s60 -27 60 -60v-239c30 49 81 71 133 71c132 0 203 -111 203 -229s-70 -229 -203 -229c-59 0 -108 27 -137 71v-6c0 -33 -23 -61 -58 -61s-58 27 -58 60zM406 217c0 70 -40 127 -109 127c-68 0 -107 -60 -107 -127s38 -127 107 -127
s109 57 109 127z" />
    <glyph glyph-name="c" unicode="c" horiz-adv-x="484" 
d="M276 446c71 0 125 -27 154 -59c11 -12 17 -24 17 -41c0 -27 -19 -46 -47 -46c-16 0 -26 4 -37 12c-16 12 -43 32 -86 32c-77 0 -117 -60 -117 -127s40 -127 117 -127c43 0 70 20 86 32c11 8 21 12 37 12c28 0 47 -19 47 -46c0 -17 -6 -29 -17 -41
c-29 -32 -83 -59 -154 -59c-145 0 -236 101 -236 229s91 229 236 229z" />
    <glyph glyph-name="d" unicode="d" horiz-adv-x="566" 
d="M496 614v-562c0 -33 -23 -60 -58 -60s-58 28 -58 61v6c-29 -44 -78 -71 -137 -71c-133 0 -203 111 -203 229s71 229 203 229c52 0 103 -22 133 -71v239c0 33 27 60 60 60s60 -27 60 -60zM160 217c0 -70 40 -127 109 -127s107 60 107 127s-39 127 -107 127
c-69 0 -109 -57 -109 -127z" />
    <glyph glyph-name="e" unicode="e" horiz-adv-x="519" 
d="M474 217c0 -19 -12 -39 -43 -39h-266c6 -52 39 -95 108 -95c38 0 69 11 92 29c14 11 26 20 44 20c30 0 48 -19 48 -44c0 -28 -22 -47 -43 -60c-33 -21 -77 -40 -146 -40c-150 0 -228 104 -228 229c0 132 95 229 226 229c125 0 208 -98 208 -229zM360 263
c-9 46 -41 87 -94 87c-55 0 -93 -36 -99 -87h193z" />
    <glyph glyph-name="f" unicode="f" horiz-adv-x="383" 
d="M116 495c0 102 54 175 172 175h40c28 0 50 -22 50 -50s-22 -50 -50 -50h-28c-37 0 -64 -19 -64 -63v-73h82c28 0 50 -22 50 -50s-22 -50 -50 -50h-82v-282c0 -33 -27 -60 -60 -60s-60 27 -60 60v282h-51c-28 0 -50 22 -50 50s22 50 50 50h51v61z" />
    <glyph glyph-name="g" unicode="g" horiz-adv-x="566" 
d="M496 27c0 -143 -76 -222 -239 -222c-60 0 -118 17 -157 37c-20 10 -32 28 -32 48c0 31 21 44 48 44c19 0 36 -8 58 -17c21 -8 47 -17 85 -17c87 0 117 39 117 120v57c-30 -49 -81 -71 -133 -71c-132 0 -203 102 -203 220s70 220 203 220c59 0 108 -27 137 -71v6
c0 34 23 61 58 61s58 -27 58 -60v-355zM160 226c0 -67 40 -118 109 -118c68 0 107 55 107 118s-38 118 -107 118s-109 -51 -109 -118z" />
    <glyph glyph-name="h" unicode="h" horiz-adv-x="560" 
d="M190 373c24 44 67 73 129 73c112 0 176 -86 176 -206v-188c0 -33 -27 -60 -60 -60s-60 27 -60 60v182c0 58 -29 104 -91 104c-67 0 -94 -51 -94 -104v-182c0 -33 -27 -60 -60 -60s-60 27 -60 60v562c0 33 27 60 60 60s60 -27 60 -60v-241z" />
    <glyph glyph-name="i" unicode="i" horiz-adv-x="260" 
d="M62 573c0 38 30 68 68 68s68 -30 68 -68s-30 -68 -68 -68s-68 30 -68 68zM70 52v330c0 33 27 60 60 60s60 -27 60 -60v-330c0 -33 -27 -60 -60 -60s-60 27 -60 60z" />
    <glyph glyph-name="j" unicode="j" horiz-adv-x="260" 
d="M190 382v-407c0 -107 -49 -170 -173 -170h-14c-28 0 -50 22 -50 50s22 50 50 50h2c49 0 65 25 65 65v412c0 33 28 60 61 60s59 -27 59 -60zM63 573c0 38 30 68 68 68s68 -30 68 -68s-30 -68 -68 -68s-68 30 -68 68z" />
    <glyph glyph-name="k" unicode="k" horiz-adv-x="506" 
d="M460 80c7 -9 10 -20 10 -31c0 -31 -21 -57 -56 -57c-17 0 -31 9 -41 23l-132 178l-51 -40v-101c0 -33 -27 -60 -60 -60s-60 27 -60 60v561c0 33 27 61 60 61s60 -28 60 -61v-324l183 141c10 8 22 12 34 12c34 0 57 -25 57 -56c0 -16 -12 -29 -26 -40l-111 -86z" />
    <glyph glyph-name="l" unicode="l" horiz-adv-x="260" 
d="M70 52v562c0 33 27 60 60 60s60 -27 60 -60v-562c0 -33 -27 -60 -60 -60s-60 27 -60 60z" />
    <glyph glyph-name="m" unicode="m" horiz-adv-x="851" 
d="M786 52c0 -33 -28 -60 -61 -60s-60 27 -60 60v182c0 58 -25 104 -87 104c-66 0 -90 -51 -90 -104v-182c0 -33 -27 -60 -60 -60s-61 27 -61 60v182c0 58 -25 104 -87 104c-67 0 -90 -51 -90 -104v-182c0 -33 -27 -60 -60 -60s-60 27 -60 60v329c0 33 23 61 60 61
c35 0 60 -28 60 -61v-8c25 46 71 73 125 73c64 0 111 -29 140 -75c31 45 86 75 154 75c121 0 177 -82 177 -202v-192z" />
    <glyph glyph-name="n" unicode="n" horiz-adv-x="560" 
d="M375 234c0 58 -29 104 -91 104c-67 0 -94 -51 -94 -104v-182c0 -33 -27 -60 -60 -60s-60 27 -60 60v329c0 38 26 61 60 61s60 -23 60 -61v-8c24 44 67 73 129 73c112 0 176 -86 176 -206v-188c0 -33 -27 -60 -60 -60s-60 27 -60 60v182z" />
    <glyph glyph-name="o" unicode="o" horiz-adv-x="542" 
d="M500 217c0 -126 -94 -229 -229 -229s-229 103 -229 229s94 229 229 229s229 -103 229 -229zM382 217c0 67 -42 125 -111 125s-111 -58 -111 -125s42 -125 111 -125s111 58 111 125z" />
    <glyph glyph-name="p" unicode="p" horiz-adv-x="566" 
d="M70 -135v517c0 33 23 60 58 60s58 -28 58 -61v-6c29 44 78 71 137 71c133 0 203 -111 203 -229s-71 -229 -203 -229c-52 0 -103 22 -133 71v-194c0 -33 -27 -60 -60 -60s-60 27 -60 60zM406 217c0 70 -40 127 -109 127s-107 -60 -107 -127s39 -127 107 -127
c69 0 109 57 109 127z" />
    <glyph glyph-name="q" unicode="q" horiz-adv-x="566" 
d="M496 382v-517c0 -33 -27 -60 -60 -60s-60 27 -60 60v194c-30 -49 -81 -71 -133 -71c-132 0 -203 111 -203 229s70 229 203 229c59 0 108 -27 137 -71v6c0 33 23 61 58 61s58 -27 58 -60zM160 217c0 -70 40 -127 109 -127c68 0 107 60 107 127s-38 127 -107 127
s-109 -57 -109 -127z" />
    <glyph glyph-name="r" unicode="r" horiz-adv-x="372" 
d="M362 392c0 -30 -22 -54 -54 -54c-71 0 -117 -49 -117 -130v-156c0 -33 -27 -60 -60 -60s-61 27 -61 60v329c0 36 25 61 61 61c33 0 60 -28 60 -61v-11c21 48 59 76 117 76c35 0 54 -24 54 -54z" />
    <glyph glyph-name="s" unicode="s" horiz-adv-x="459" 
d="M408 359c0 -25 -13 -44 -46 -44c-16 0 -34 11 -53 19c-27 11 -49 16 -74 16c-37 0 -62 -9 -62 -33c0 -25 19 -34 83 -51c95 -26 163 -55 163 -144c0 -80 -67 -134 -180 -134c-62 0 -120 17 -158 45c-19 14 -26 32 -26 51c0 23 20 39 44 39c20 0 33 -8 47 -17
c21 -13 54 -30 96 -30c38 0 63 13 63 36c0 24 -23 34 -82 50c-127 34 -164 84 -164 154c0 73 61 130 179 130c38 0 75 -7 109 -23c35 -16 61 -37 61 -64z" />
    <glyph glyph-name="t" unicode="t" horiz-adv-x="379" 
d="M126 52v282h-67c-28 0 -49 22 -49 50s21 50 49 50h67v124c0 33 27 60 60 60s60 -27 60 -60v-124h78c28 0 50 -22 50 -50s-22 -50 -50 -50h-78v-282c0 -33 -27 -60 -60 -60s-60 27 -60 60z" />
    <glyph glyph-name="u" unicode="u" horiz-adv-x="558" 
d="M183 200c0 -58 29 -104 91 -104c67 0 94 51 94 104v182c0 33 27 60 60 60s60 -27 60 -60v-329c0 -38 -26 -61 -60 -61s-60 23 -60 61v8c-24 -44 -67 -73 -129 -73c-112 0 -176 86 -176 206v188c0 33 27 60 60 60s60 -27 60 -60v-182z" />
    <glyph glyph-name="v" unicode="v" horiz-adv-x="464" 
d="M442 387c0 -8 -2 -15 -5 -22l-156 -341c-9 -19 -28 -32 -49 -32s-40 13 -49 32l-156 341c-3 7 -5 14 -5 22c0 30 23 55 54 55c26 0 42 -13 50 -32l106 -249l106 249c9 20 27 32 50 32c32 0 54 -25 54 -55z" />
    <glyph glyph-name="w" unicode="w" horiz-adv-x="668" 
d="M383 406l83 -230l70 232c7 22 22 34 47 34c31 0 55 -21 55 -52c0 -6 -2 -14 -4 -20l-115 -344c-7 -21 -24 -34 -51 -34s-42 15 -50 36l-84 242l-84 -242c-8 -21 -23 -36 -50 -36s-44 13 -51 34l-115 344c-2 6 -4 14 -4 20c0 31 24 52 55 52c25 0 40 -12 47 -34l70 -232
l83 230c8 22 24 36 49 36s41 -14 49 -36z" />
    <glyph glyph-name="x" unicode="x" horiz-adv-x="492" 
d="M104 442c15 0 28 -6 38 -18l104 -125l104 125c10 12 23 18 38 18c34 0 55 -22 55 -52c0 -12 -3 -23 -13 -34l-117 -138l120 -140c8 -10 12 -20 12 -34c0 -29 -25 -52 -53 -52c-16 0 -31 6 -41 18l-105 127l-105 -127c-10 -12 -25 -18 -41 -18c-28 0 -53 23 -53 52
c0 14 4 24 12 34l120 140l-117 138c-10 11 -13 22 -13 34c0 30 21 52 55 52z" />
    <glyph glyph-name="y" unicode="y" horiz-adv-x="469" 
d="M327 61c-47 -116 -104 -200 -186 -249c-8 -5 -17 -7 -27 -7c-29 0 -54 23 -54 50c0 21 10 34 29 49c42 33 67 58 89 108l-143 353c-3 7 -5 14 -5 22c0 30 22 55 54 55c26 0 42 -12 50 -32l112 -288l94 288c6 20 21 32 50 32c32 0 53 -25 53 -55c0 -8 -2 -17 -4 -22
c-25 -76 -66 -190 -112 -304z" />
    <glyph glyph-name="z" unicode="z" horiz-adv-x="481" 
d="M439 49c0 -29 -23 -49 -50 -49h-289c-25 0 -50 24 -50 49c0 14 4 26 13 37l213 250h-176c-27 0 -50 20 -50 49s23 49 50 49h283c31 0 52 -23 52 -52c0 -13 -5 -24 -13 -34l-213 -250h180c27 0 50 -20 50 -49z" />
    <glyph glyph-name="braceleft" unicode="{" horiz-adv-x="373" 
d="M348 640c0 -26 -21 -46 -46 -46h-26c-19 0 -24 -15 -24 -26v-185c0 -70 -35 -118 -114 -118c79 -1 114 -51 114 -120v-182c0 -12 5 -28 24 -28h26c25 0 46 -19 46 -46c0 -25 -21 -45 -46 -45h-67c-81 0 -101 51 -101 113v209c0 29 -11 45 -47 45h-4c-29 0 -53 25 -53 54
s24 53 53 53h4c36 0 47 16 47 45v210c0 62 20 113 101 113h67c25 0 46 -21 46 -46z" />
    <glyph glyph-name="bar" unicode="|" horiz-adv-x="286" 
d="M181 -160c0 -21 -17 -38 -38 -38s-38 17 -38 38v857c0 21 17 38 38 38s38 -17 38 -38v-857z" />
    <glyph glyph-name="braceright" unicode="}" horiz-adv-x="373" 
d="M25 640c0 25 21 46 46 46h67c81 0 101 -51 101 -113v-210c0 -29 11 -45 47 -45h4c29 0 53 -24 53 -53s-24 -54 -53 -54h-4c-36 0 -47 -16 -47 -45v-209c0 -62 -20 -113 -101 -113h-67c-25 0 -46 20 -46 45c0 27 21 46 46 46h26c19 0 24 16 24 28v182c0 69 35 119 114 120
c-79 0 -114 48 -114 118v185c0 11 -5 26 -24 26h-26c-25 0 -46 20 -46 46z" />
    <glyph glyph-name="asciitilde" unicode="~" horiz-adv-x="509" 
d="M474 290c0 -8 -2 -14 -4 -20c-21 -51 -68 -86 -123 -86c-35 0 -61 15 -87 30c-25 15 -49 28 -78 28c-33 0 -42 -16 -50 -30c-7 -14 -15 -27 -41 -27c-27 0 -46 18 -46 45c0 6 1 13 3 19c20 56 68 90 127 90c42 0 76 -18 106 -34c22 -13 43 -23 63 -23c26 0 34 12 42 25
c8 15 18 28 43 28c27 0 45 -20 45 -45z" />
    <glyph glyph-name="nbspace" unicode="&#xa0;" horiz-adv-x="290" 
 />
    <glyph glyph-name="exclamdown" unicode="&#xa1;" horiz-adv-x="298" 
d="M178 214l31 -126v-223c0 -33 -27 -60 -60 -60s-60 27 -60 60v223l31 126c2 16 13 28 29 28s27 -12 29 -28zM218 377c0 -38 -31 -68 -69 -68s-69 30 -69 68s31 69 69 69s69 -31 69 -69z" />
    <glyph glyph-name="cent" unicode="&#xa2;" horiz-adv-x="547" 
d="M257 34v74c-117 20 -187 112 -187 225s70 205 187 225v74c0 25 20 46 46 46s46 -21 46 -46v-74c50 -8 88 -30 111 -55c11 -12 17 -24 17 -41c0 -27 -19 -46 -47 -46c-16 0 -26 4 -37 12c-16 12 -43 32 -86 32c-77 0 -117 -60 -117 -127s40 -127 117 -127
c43 0 70 20 86 32c11 8 21 12 37 12c28 0 47 -19 47 -46c0 -17 -6 -29 -17 -41c-23 -25 -61 -47 -111 -56v-73c0 -25 -20 -46 -46 -46s-46 21 -46 46z" />
    <glyph glyph-name="sterling" unicode="&#xa3;" horiz-adv-x="663" 
d="M338 280v-180h210c28 0 51 -20 51 -50s-23 -50 -51 -50h-442c-28 0 -51 20 -51 50s23 50 51 50h112v180h-102c-28 0 -51 20 -51 50s23 50 51 50h102v71c0 140 70 227 226 227c42 0 89 -9 131 -27c24 -10 38 -23 38 -49c0 -28 -19 -51 -54 -51c-7 0 -14 2 -21 4
c-31 10 -57 15 -92 15c-76 0 -108 -37 -108 -109v-81h174c28 0 51 -20 51 -50s-23 -50 -51 -50h-174z" />
    <glyph glyph-name="currency" unicode="&#xa4;" horiz-adv-x="640" 
d="M542 333c0 -46 -13 -89 -36 -125l61 -60c8 -9 13 -20 13 -31c0 -23 -18 -45 -45 -45c-12 0 -22 4 -31 13l-61 61c-34 -22 -76 -35 -123 -35s-89 13 -124 35l-60 -61c-9 -9 -19 -13 -31 -13c-27 0 -45 22 -45 45c0 11 5 22 13 31l61 60c-23 36 -36 79 -36 125
s13 89 36 124l-61 61c-8 9 -13 20 -13 31c0 23 18 45 45 45c12 0 22 -4 31 -13l60 -61c35 22 77 35 124 35s89 -13 123 -35l61 61c9 9 19 13 31 13c27 0 45 -22 45 -45c0 -11 -5 -22 -13 -31l-61 -61c23 -35 36 -78 36 -124zM428 333c0 65 -41 121 -108 121
s-108 -56 -108 -121s41 -121 108 -121s108 56 108 121z" />
    <glyph glyph-name="yen" unicode="&#xa5;" horiz-adv-x="610" 
d="M305 391l158 258c12 17 25 25 47 25c28 0 55 -18 55 -50c0 -11 -4 -23 -11 -34l-127 -199h76c20 0 36 -16 36 -36s-16 -36 -36 -36h-122l-16 -26v-42h138c20 0 36 -16 36 -36s-16 -36 -36 -36h-138v-125c0 -34 -24 -62 -60 -62s-60 28 -60 62v125h-138
c-20 0 -36 16 -36 36s16 36 36 36h138v42l-17 26h-121c-20 0 -36 16 -36 36s16 36 36 36h75l-126 199c-7 11 -11 23 -11 34c0 32 26 50 55 50c23 0 35 -8 47 -25z" />
    <glyph glyph-name="brokenbar" unicode="&#xa6;" horiz-adv-x="285" 
d="M180 344c0 -21 -17 -38 -38 -38s-37 17 -37 38v353c0 21 16 38 37 38s38 -17 38 -38v-353zM180 -160c0 -21 -17 -38 -38 -38s-37 17 -37 38v354c0 21 16 37 37 37s38 -16 38 -37v-354z" />
    <glyph glyph-name="section" unicode="&#xa7;" horiz-adv-x="617" 
d="M557 259c0 -41 -22 -88 -75 -120c24 -25 36 -55 36 -94c0 -83 -74 -155 -212 -155c-66 0 -143 24 -189 53c-24 15 -32 31 -32 54c0 22 16 43 46 43c20 0 37 -9 56 -20c30 -17 70 -32 125 -32c56 0 86 18 86 52c0 41 -47 60 -148 96c-144 52 -185 93 -185 175
c0 41 22 86 75 117c-25 27 -36 58 -36 99c0 88 74 151 212 151c66 0 128 -16 174 -45c24 -15 33 -29 33 -52c0 -22 -17 -45 -47 -45c-23 0 -36 11 -56 20c-37 17 -64 24 -113 24c-45 0 -83 -15 -83 -52c0 -47 41 -61 145 -99c141 -51 188 -79 188 -170zM302 342
c-31 10 -58 20 -81 31c-21 -10 -39 -29 -39 -52c0 -44 32 -56 138 -95c29 -11 57 -22 80 -33c21 13 40 32 40 56c0 41 -31 58 -138 93z" />
    <glyph glyph-name="dieresis" unicode="&#xa8;" horiz-adv-x="430" 
d="M370 558c0 -33 -27 -60 -61 -60c-33 0 -60 27 -60 60c0 34 27 61 60 61c34 0 61 -27 61 -61zM181 558c0 -33 -27 -60 -60 -60s-61 27 -61 60c0 34 27 61 61 61c33 0 60 -27 60 -61z" />
    <glyph glyph-name="copyright" unicode="&#xa9;" horiz-adv-x="781" 
d="M736 333c0 -193 -146 -345 -345 -345s-346 152 -346 345s147 345 346 345s345 -152 345 -345zM671 333c0 165 -117 285 -280 285s-281 -120 -281 -285s118 -285 281 -285s280 120 280 285zM486 411c-18 15 -40 35 -82 35c-63 0 -106 -46 -106 -113s43 -113 106 -113
c42 0 64 20 82 35c32 27 69 -11 44 -40c-32 -37 -83 -56 -126 -56c-104 0 -174 71 -174 174s70 174 174 174c43 0 94 -19 126 -56c25 -29 -12 -67 -44 -40z" />
    <glyph glyph-name="ordfeminine" unicode="&#xaa;" horiz-adv-x="391" 
d="M250 415v1c-18 -30 -49 -44 -86 -44c-64 0 -104 39 -104 92c0 60 47 91 108 91c31 0 62 -10 81 -31v27c0 38 -16 59 -68 59c-41 0 -62 -15 -80 -15c-19 0 -34 14 -34 33c0 43 90 50 121 50c91 0 141 -44 141 -127v-136c0 -22 -14 -40 -39 -40c-23 0 -40 18 -40 40z
M249 464c0 25 -25 38 -56 38c-33 0 -54 -15 -54 -38c0 -24 23 -38 54 -38s56 16 56 38z" />
    <glyph glyph-name="guillemotleft" unicode="&#xab;" horiz-adv-x="593" 
d="M288 83c0 -27 -23 -48 -49 -48c-12 0 -23 5 -31 13l-143 133c-10 8 -15 20 -15 32c0 14 5 26 15 35l142 131c9 8 20 14 32 14c26 0 48 -21 48 -48c0 -13 -5 -25 -15 -34l-106 -98l107 -98c10 -9 15 -20 15 -32zM528 83c0 -27 -23 -48 -49 -48c-12 0 -23 5 -31 13
l-143 133c-10 8 -15 20 -15 32c0 14 5 26 15 35l142 131c9 8 20 14 32 14c26 0 48 -21 48 -48c0 -13 -5 -25 -15 -34l-106 -98l107 -98c10 -9 15 -20 15 -32z" />
    <glyph glyph-name="logicalnot" unicode="&#xac;" horiz-adv-x="600" 
d="M462 81c-29 0 -53 24 -53 53v124h-296c-27 0 -48 22 -48 48c0 27 21 48 48 48h354c26 0 48 -22 48 -48v-172c0 -29 -24 -53 -53 -53z" />
    <glyph glyph-name="registered" unicode="&#xae;" horiz-adv-x="402" 
d="M367 511c0 -92 -61 -165 -165 -165s-167 73 -167 165s63 167 167 167s165 -75 165 -167zM328 511c0 69 -43 131 -126 131s-128 -62 -128 -131s45 -129 128 -129s126 60 126 129zM178 496v-47c0 -9 -6 -15 -14 -15s-14 6 -14 15v131c0 8 6 14 14 14h44c41 0 57 -21 57 -49
c0 -20 -8 -36 -26 -43l27 -47c5 -9 0 -21 -12 -21c-6 0 -9 3 -12 7l-31 55h-33zM212 569h-34v-48h34c19 0 25 11 25 24c0 14 -8 24 -25 24z" />
    <glyph glyph-name="macron" unicode="&#xaf;" horiz-adv-x="386" 
d="M341 561c0 -20 -19 -39 -39 -39h-219c-20 0 -38 19 -38 39s18 38 38 38h219c20 0 39 -18 39 -38z" />
    <glyph glyph-name="degree" unicode="&#xb0;" horiz-adv-x="370" 
d="M185 418c-77 0 -130 58 -130 130c0 71 53 130 130 130s130 -59 130 -130c0 -72 -53 -130 -130 -130zM185 619c-43 0 -67 -33 -67 -71c0 -39 24 -71 67 -71s67 32 67 71c0 38 -24 71 -67 71z" />
    <glyph glyph-name="plusminus" unicode="&#xb1;" horiz-adv-x="640" 
d="M555 345c0 -26 -22 -48 -48 -48h-134v-116c0 -29 -24 -53 -53 -53s-53 24 -53 53v116h-134c-27 0 -48 22 -48 48c0 27 21 48 48 48h134v112c0 29 24 53 53 53s53 -24 53 -53v-112h134c26 0 48 -22 48 -48zM133 0c-27 0 -48 19 -48 45c0 27 21 45 48 45h374
c26 0 48 -19 48 -45s-22 -45 -48 -45h-374z" />
    <glyph glyph-name="twosuperior" unicode="&#xb2;" horiz-adv-x="471" 
d="M282 417c-58 -31 -99 -49 -106 -75h192c21 0 38 -17 38 -38s-17 -38 -38 -38h-249c-23 0 -39 18 -39 39c0 93 67 132 135 166c63 31 104 51 104 86c0 30 -32 42 -73 42c-36 0 -64 -11 -91 -22c-33 -14 -59 8 -59 33c0 16 9 31 31 41c34 16 75 27 122 27
c91 0 153 -40 153 -118c0 -73 -51 -106 -120 -143z" />
    <glyph glyph-name="threesuperior" unicode="&#xb3;" horiz-adv-x="454" 
d="M143 477c0 21 17 36 38 36h36c52 0 70 22 70 49c0 26 -20 44 -56 44c-25 0 -55 -7 -77 -16c-8 -3 -15 -4 -22 -4c-23 0 -35 14 -35 33c0 17 9 30 30 38c32 13 70 21 108 21c83 0 136 -40 136 -109c0 -36 -21 -71 -66 -90c52 -12 84 -41 84 -94c0 -73 -64 -125 -164 -125
c-61 0 -115 19 -154 53c-11 10 -16 19 -16 31c0 20 15 36 36 36c10 0 18 -3 27 -10c31 -25 66 -38 106 -38c50 0 81 23 81 57c0 36 -32 52 -90 52h-34c-21 0 -38 15 -38 36z" />
    <glyph glyph-name="acute" unicode="&#xb4;" horiz-adv-x="316" 
d="M200 666c26 0 46 -18 46 -47c0 -10 -5 -21 -11 -29l-58 -78c-9 -12 -19 -19 -39 -19c-23 0 -48 21 -48 46c0 12 5 22 12 30l60 78c9 12 20 19 38 19z" />
    <glyph glyph-name="mu" unicode="&#xb5;" horiz-adv-x="560" 
d="M185 200c0 -58 29 -104 91 -104c67 0 94 51 94 104v182c0 33 27 60 60 60s60 -27 60 -60v-329c0 -38 -26 -61 -60 -61s-60 23 -60 61v8c-24 -44 -67 -73 -129 -73c-20 0 -39 3 -56 8v-131c0 -33 -27 -60 -60 -60s-60 27 -60 60v517c0 33 27 60 60 60s60 -27 60 -60v-182z
" />
    <glyph glyph-name="paragraph" unicode="&#xb6;" horiz-adv-x="585" 
d="M45 468c0 114 89 198 198 198h215c25 0 42 -19 42 -42v-590c0 -23 -17 -42 -42 -42s-42 19 -42 42v556h-89v-743c0 -23 -17 -42 -42 -42s-42 19 -42 42v423c-109 0 -198 84 -198 198z" />
    <glyph glyph-name="periodcentered" unicode="&#xb7;" horiz-adv-x="257" 
d="M197 292c0 -38 -31 -69 -69 -69s-68 31 -68 69s30 68 68 68s69 -30 69 -68z" />
    <glyph glyph-name="cedilla" unicode="&#xb8;" horiz-adv-x="304" 
d="M264 -119c0 -42 -36 -76 -116 -76c-27 0 -98 3 -98 38c0 15 9 27 24 27c23 0 35 -11 72 -11c29 0 41 11 41 24c0 15 -16 22 -38 22c-16 0 -25 -4 -43 -5c-13 -1 -24 8 -24 22c0 13 11 36 29 78h58l-21 -54c8 3 17 4 27 4c57 0 89 -23 89 -69z" />
    <glyph glyph-name="onesuperior" unicode="&#xb9;" horiz-adv-x="364" 
d="M180 306v275l-61 -18c-34 -10 -54 13 -54 36c0 16 10 33 33 40l103 31c9 3 17 4 21 4c24 0 42 -16 42 -43v-325c0 -23 -19 -42 -42 -42s-42 19 -42 42z" />
    <glyph glyph-name="ordmasculine" unicode="&#xba;" horiz-adv-x="396" 
d="M351 525c0 -84 -63 -153 -153 -153s-153 69 -153 153s63 153 153 153s153 -69 153 -153zM272 525c0 45 -28 84 -74 84s-74 -39 -74 -84s28 -84 74 -84s74 39 74 84z" />
    <glyph glyph-name="guillemotright" unicode="&#xbb;" horiz-adv-x="593" 
d="M305 83c0 12 5 23 15 32l107 98l-106 98c-10 9 -15 21 -15 34c0 27 22 48 48 48c12 0 23 -6 32 -14l142 -131c10 -9 15 -21 15 -35c0 -12 -5 -24 -15 -32l-143 -133c-8 -8 -19 -13 -31 -13c-26 0 -49 21 -49 48zM65 83c0 12 5 23 15 32l107 98l-106 98
c-10 9 -15 21 -15 34c0 27 22 48 48 48c12 0 23 -6 32 -14l142 -131c10 -9 15 -21 15 -35c0 -12 -5 -24 -15 -32l-143 -133c-8 -8 -19 -13 -31 -13c-26 0 -49 21 -49 48z" />
    <glyph glyph-name="onequarter" unicode="&#xbc;" horiz-adv-x="893" 
d="M800 104h-40v-67c0 -22 -16 -41 -41 -41s-40 19 -40 41v67h-181c-20 0 -37 13 -37 32c0 11 3 20 12 30l212 226c11 11 22 16 36 16c26 0 39 -16 39 -43v-195h40c23 0 38 -11 38 -32c0 -19 -13 -34 -38 -34zM563 170h116v121zM662 619l-407 -610c-10 -14 -19 -21 -35 -21
c-20 0 -40 15 -40 35c0 7 3 14 8 22l408 613c10 14 21 20 37 20c20 0 38 -14 38 -34c0 -8 -3 -16 -9 -25zM190 306v275l-61 -18c-34 -10 -54 13 -54 36c0 16 10 33 33 40l103 31c9 3 17 4 21 4c24 0 42 -16 42 -43v-325c0 -23 -19 -42 -42 -42s-42 19 -42 42z" />
    <glyph glyph-name="onehalf" unicode="&#xbd;" horiz-adv-x="941" 
d="M662 619l-407 -610c-10 -14 -19 -21 -35 -21c-20 0 -40 15 -40 35c0 7 3 14 8 22l408 613c10 14 21 20 37 20c20 0 38 -14 38 -34c0 -8 -3 -16 -9 -25zM190 306v275l-61 -18c-34 -10 -54 13 -54 36c0 16 10 33 33 40l103 31c9 3 17 4 21 4c24 0 42 -16 42 -43v-325
c0 -23 -19 -42 -42 -42s-42 19 -42 42zM752 151c-58 -31 -99 -49 -106 -75h192c21 0 38 -17 38 -38s-17 -38 -38 -38h-249c-23 0 -39 18 -39 39c0 93 67 132 135 166c63 31 104 51 104 86c0 30 -32 42 -73 42c-36 0 -64 -11 -91 -22c-33 -14 -59 8 -59 33c0 16 9 31 31 41
c34 16 75 27 122 27c91 0 153 -40 153 -118c0 -73 -51 -106 -120 -143z" />
    <glyph glyph-name="threequarters" unicode="&#xbe;" horiz-adv-x="986" 
d="M893 104h-40v-67c0 -22 -16 -41 -41 -41s-40 19 -40 41v67h-181c-20 0 -37 13 -37 32c0 11 3 20 12 30l212 226c11 11 22 16 36 16c26 0 39 -16 39 -43v-195h40c23 0 38 -11 38 -32c0 -19 -13 -34 -38 -34zM656 170h116v121zM755 619l-407 -610c-10 -14 -19 -21 -35 -21
c-20 0 -40 15 -40 35c0 7 3 14 8 22l408 613c10 14 21 20 37 20c20 0 38 -14 38 -34c0 -8 -3 -16 -9 -25zM148 477c0 21 17 36 38 36h36c52 0 70 22 70 49c0 26 -20 44 -56 44c-25 0 -55 -7 -77 -16c-8 -3 -15 -4 -22 -4c-23 0 -35 14 -35 33c0 17 9 30 30 38
c32 13 70 21 108 21c83 0 136 -40 136 -109c0 -36 -21 -71 -66 -90c52 -12 84 -41 84 -94c0 -73 -64 -125 -164 -125c-61 0 -115 19 -154 53c-11 10 -16 19 -16 31c0 20 15 36 36 36c10 0 18 -3 27 -10c31 -25 66 -38 106 -38c50 0 81 23 81 57c0 36 -32 52 -90 52h-34
c-21 0 -38 15 -38 36z" />
    <glyph glyph-name="questiondown" unicode="&#xbf;" horiz-adv-x="473" 
d="M30 -38c0 59 33 99 88 137c44 30 77 47 77 89v16c0 32 24 56 59 56s56 -25 56 -55v-20c0 -66 -27 -91 -80 -128c-43 -30 -80 -53 -80 -90c0 -39 41 -54 96 -54c51 0 77 9 123 28c8 3 18 5 27 5c28 0 52 -20 52 -50c0 -25 -19 -43 -47 -57c-51 -25 -115 -34 -160 -34
c-119 0 -211 50 -211 157zM183 377c0 38 31 69 69 69c37 0 68 -31 68 -69s-31 -68 -68 -68c-38 0 -69 30 -69 68z" />
    <glyph glyph-name="Agrave" unicode="&#xc0;" horiz-adv-x="694" 
d="M552 25l-57 122h-296l-57 -122c-11 -20 -25 -33 -51 -33c-36 0 -58 28 -58 57c0 8 2 16 6 24l256 569c9 20 26 32 52 32s43 -11 52 -32l256 -569c4 -8 6 -16 6 -24c0 -29 -22 -57 -58 -57c-26 0 -40 12 -51 33zM451 254l-104 254l-104 -254h208zM290 879
c18 0 29 -7 38 -19l47 -61c7 -8 12 -18 12 -30c0 -25 -25 -46 -48 -46c-20 0 -30 7 -39 19l-45 61c-6 8 -11 19 -11 29c0 29 20 47 46 47z" />
    <glyph glyph-name="Aacute" unicode="&#xc1;" horiz-adv-x="694" 
d="M552 25l-57 122h-296l-57 -122c-11 -20 -25 -33 -51 -33c-36 0 -58 28 -58 57c0 8 2 16 6 24l256 569c9 20 26 32 52 32s43 -11 52 -32l256 -569c4 -8 6 -16 6 -24c0 -29 -22 -57 -58 -57c-26 0 -40 12 -51 33zM451 254l-104 254l-104 -254h208zM403 879
c26 0 46 -18 46 -47c0 -10 -5 -21 -11 -29l-45 -61c-9 -12 -19 -19 -39 -19c-23 0 -48 21 -48 46c0 12 5 22 12 30l47 61c9 12 20 19 38 19z" />
    <glyph glyph-name="Acircumflex" unicode="&#xc2;" horiz-adv-x="694" 
d="M552 25l-57 122h-296l-57 -122c-11 -20 -25 -33 -51 -33c-36 0 -58 28 -58 57c0 8 2 16 6 24l256 569c9 20 26 32 52 32s43 -11 52 -32l256 -569c4 -8 6 -16 6 -24c0 -29 -22 -57 -58 -57c-26 0 -40 12 -51 33zM451 254l-104 254l-104 -254h208zM373 858l95 -73
c8 -7 14 -15 14 -29c0 -21 -20 -39 -40 -39c-9 0 -18 3 -26 9l-69 53l-69 -53c-8 -6 -17 -9 -26 -9c-20 0 -40 18 -40 39c0 14 6 22 14 29l95 73c9 7 16 11 26 11s17 -4 26 -11z" />
    <glyph glyph-name="Atilde" unicode="&#xc3;" horiz-adv-x="694" 
d="M552 25l-57 122h-296l-57 -122c-11 -20 -25 -33 -51 -33c-36 0 -58 28 -58 57c0 8 2 16 6 24l256 569c9 20 26 32 52 32s43 -11 52 -32l256 -569c4 -8 6 -16 6 -24c0 -29 -22 -57 -58 -57c-26 0 -40 12 -51 33zM451 254l-104 254l-104 -254h208zM503 810
c0 -40 -47 -70 -91 -70c-39 0 -71 32 -104 32c-37 0 -42 -32 -70 -32c-21 0 -39 16 -39 37c0 40 51 74 101 74c43 0 73 -30 104 -30c27 0 41 26 62 26c19 0 37 -14 37 -37z" />
    <glyph glyph-name="Adieresis" unicode="&#xc4;" horiz-adv-x="694" 
d="M552 25l-57 122h-296l-57 -122c-11 -20 -25 -33 -51 -33c-36 0 -58 28 -58 57c0 8 2 16 6 24l256 569c9 20 26 32 52 32s43 -11 52 -32l256 -569c4 -8 6 -16 6 -24c0 -29 -22 -57 -58 -57c-26 0 -40 12 -51 33zM451 254l-104 254l-104 -254h208zM513 794
c0 -33 -27 -60 -61 -60c-33 0 -60 27 -60 60c0 34 27 61 60 61c34 0 61 -27 61 -61zM303 794c0 -33 -27 -60 -60 -60s-61 27 -61 60c0 34 27 61 61 61c33 0 60 -27 60 -61z" />
    <glyph glyph-name="Aring" unicode="&#xc5;" horiz-adv-x="694" 
d="M432 708c0 -28 -14 -50 -34 -64l257 -571c4 -8 6 -16 6 -24c0 -29 -22 -57 -58 -57c-26 0 -41 12 -51 33l-57 122h-296l-57 -122c-11 -20 -25 -33 -51 -33c-36 0 -58 28 -58 57c0 8 2 16 6 24l257 571c-20 14 -34 36 -34 64c0 48 39 79 85 79c48 0 85 -31 85 -79z
M451 254l-104 254l-104 -254h208zM379 708c0 20 -15 32 -32 32s-31 -12 -31 -32s14 -32 31 -32s32 14 32 32z" />
    <glyph glyph-name="AE" unicode="&#xc6;" horiz-adv-x="948" 
d="M599 0c-26 0 -40 12 -51 33l-53 114h-296l-57 -122c-11 -21 -25 -33 -51 -33c-36 0 -58 28 -58 57c0 8 2 16 6 24l256 561c9 20 26 32 52 32h498c32 0 58 -25 58 -57s-26 -58 -58 -58h-408l71 -156h202c31 0 57 -26 57 -58s-26 -57 -57 -57h-150l75 -165h225
c32 0 58 -26 58 -58s-26 -57 -58 -57h-261zM451 254l-104 254l-104 -254h208z" />
    <glyph glyph-name="Ccedilla" unicode="&#xc7;" horiz-adv-x="667" 
d="M501 -119c0 -42 -36 -76 -116 -76c-27 0 -98 3 -98 38c0 15 9 27 24 27c23 0 35 -11 72 -11c29 0 41 11 41 24c0 15 -16 22 -38 22c-16 0 -25 -4 -43 -5c-13 -1 -24 8 -24 22c0 12 9 33 24 68c-177 16 -303 147 -303 343c0 209 144 345 340 345c78 0 166 -26 223 -85
c12 -12 19 -25 19 -41c0 -30 -21 -56 -55 -56c-14 0 -27 5 -40 14c-38 29 -79 55 -147 55c-131 0 -217 -99 -217 -232s86 -232 217 -232c68 0 109 26 147 55c13 9 26 14 40 14c34 0 55 -26 55 -56c0 -16 -7 -29 -19 -41c-52 -54 -129 -80 -202 -84l-16 -43c8 3 17 4 27 4
c57 0 89 -23 89 -69z" />
    <glyph glyph-name="Egrave" unicode="&#xc8;" horiz-adv-x="605" 
d="M575 56c0 -32 -26 -56 -58 -56h-375c-34 0 -62 27 -62 61v544c0 34 28 61 62 61h360c32 0 58 -24 58 -56s-26 -57 -58 -57h-300v-159h165c31 0 57 -25 57 -57s-26 -56 -57 -56h-165v-168h315c32 0 58 -25 58 -57zM267 879c18 0 29 -7 38 -19l47 -61c7 -8 12 -18 12 -30
c0 -25 -25 -46 -48 -46c-20 0 -30 7 -39 19l-45 61c-6 8 -11 19 -11 29c0 29 20 47 46 47z" />
    <glyph glyph-name="Eacute" unicode="&#xc9;" horiz-adv-x="605" 
d="M575 56c0 -32 -26 -56 -58 -56h-375c-34 0 -62 27 -62 61v544c0 34 28 61 62 61h360c32 0 58 -24 58 -56s-26 -57 -58 -57h-300v-159h165c31 0 57 -25 57 -57s-26 -56 -57 -56h-165v-168h315c32 0 58 -25 58 -57zM369 879c26 0 46 -18 46 -47c0 -10 -5 -21 -11 -29
l-45 -61c-9 -12 -19 -19 -39 -19c-23 0 -48 21 -48 46c0 12 5 22 12 30l47 61c9 12 20 19 38 19z" />
    <glyph glyph-name="Ecircumflex" unicode="&#xca;" horiz-adv-x="605" 
d="M575 56c0 -32 -26 -56 -58 -56h-375c-34 0 -62 27 -62 61v544c0 34 28 61 62 61h360c32 0 58 -24 58 -56s-26 -57 -58 -57h-300v-159h165c31 0 57 -25 57 -57s-26 -56 -57 -56h-165v-168h315c32 0 58 -25 58 -57zM354 858l95 -73c8 -7 14 -15 14 -29
c0 -21 -20 -39 -40 -39c-9 0 -18 3 -26 9l-69 53l-69 -53c-8 -6 -17 -9 -26 -9c-20 0 -40 18 -40 39c0 14 6 22 14 29l95 73c9 7 16 11 26 11s17 -4 26 -11z" />
    <glyph glyph-name="Edieresis" unicode="&#xcb;" horiz-adv-x="605" 
d="M575 56c0 -32 -26 -56 -58 -56h-375c-34 0 -62 27 -62 61v544c0 34 28 61 62 61h360c32 0 58 -24 58 -56s-26 -57 -58 -57h-300v-159h165c31 0 57 -25 57 -57s-26 -56 -57 -56h-165v-168h315c32 0 58 -25 58 -57zM491 794c0 -33 -27 -60 -61 -60c-33 0 -60 27 -60 60
c0 34 27 61 60 61c34 0 61 -27 61 -61zM281 794c0 -33 -27 -60 -60 -60s-61 27 -61 60c0 34 27 61 61 61c33 0 60 -27 60 -61z" />
    <glyph glyph-name="Igrave" unicode="&#xcc;" horiz-adv-x="292" 
d="M207 54c0 -34 -26 -62 -60 -62s-62 28 -62 62v558c0 34 28 62 62 62s60 -28 60 -62v-558zM95 879c18 0 29 -7 38 -19l47 -61c7 -8 12 -18 12 -30c0 -25 -25 -46 -48 -46c-20 0 -30 7 -39 19l-45 61c-6 8 -11 19 -11 29c0 29 20 47 46 47z" />
    <glyph glyph-name="Iacute" unicode="&#xcd;" horiz-adv-x="292" 
d="M207 54c0 -34 -26 -62 -60 -62s-62 28 -62 62v558c0 34 28 62 62 62s60 -28 60 -62v-558zM196 879c26 0 46 -18 46 -47c0 -10 -5 -21 -11 -29l-45 -61c-9 -12 -19 -19 -39 -19c-23 0 -48 21 -48 46c0 12 5 22 12 30l47 61c9 12 20 19 38 19z" />
    <glyph glyph-name="Icircumflex" unicode="&#xce;" horiz-adv-x="292" 
d="M207 54c0 -34 -26 -62 -60 -62s-62 28 -62 62v558c0 34 28 62 62 62s60 -28 60 -62v-558zM172 858l95 -73c8 -7 14 -15 14 -29c0 -21 -20 -39 -40 -39c-9 0 -18 3 -26 9l-69 53l-69 -53c-8 -6 -17 -9 -26 -9c-20 0 -40 18 -40 39c0 14 6 22 14 29l95 73c9 7 16 11 26 11
s17 -4 26 -11z" />
    <glyph glyph-name="Idieresis" unicode="&#xcf;" horiz-adv-x="292" 
d="M207 54c0 -34 -26 -62 -60 -62s-62 28 -62 62v558c0 34 28 62 62 62s60 -28 60 -62v-558zM312 794c0 -33 -27 -60 -61 -60c-33 0 -60 27 -60 60c0 34 27 61 60 61c34 0 61 -27 61 -61zM102 794c0 -33 -27 -60 -60 -60s-61 27 -61 60c0 34 27 61 61 61c33 0 60 -27 60 -61
z" />
    <glyph glyph-name="Eth" unicode="&#xd0;" horiz-adv-x="746" 
d="M704 333c0 -186 -129 -333 -332 -333h-183c-34 0 -62 28 -62 62v219h-56c-29 0 -53 24 -53 52c0 30 24 53 53 53h56v219c0 34 28 61 62 61h183c203 0 332 -147 332 -333zM400 333c0 -28 -24 -52 -53 -52h-98v-168h117c138 0 216 91 216 220s-78 220 -216 220h-117v-167
h98c29 0 53 -23 53 -53z" />
    <glyph glyph-name="Ntilde" unicode="&#xd1;" horiz-adv-x="722" 
d="M642 49c0 -31 -24 -57 -58 -57c-19 0 -33 7 -44 21l-345 436v-400c0 -32 -26 -57 -58 -57c-31 0 -57 26 -57 57v567c0 31 23 58 60 58c16 0 33 -9 42 -21l345 -436v399c0 31 23 58 57 58s58 -27 58 -58v-567zM514 810c0 -40 -47 -70 -91 -70c-39 0 -71 32 -104 32
c-37 0 -42 -32 -70 -32c-21 0 -39 16 -39 37c0 40 51 74 101 74c43 0 73 -30 104 -30c27 0 41 26 62 26c19 0 37 -14 37 -37z" />
    <glyph glyph-name="Ograve" unicode="&#xd2;" horiz-adv-x="774" 
d="M729 333c0 -193 -146 -345 -342 -345s-342 152 -342 345s146 345 342 345s342 -152 342 -345zM606 333c0 127 -83 235 -219 235s-219 -108 -219 -235s83 -235 219 -235s219 108 219 235zM339 879c18 0 29 -7 38 -19l47 -61c7 -8 12 -18 12 -30c0 -25 -25 -46 -48 -46
c-20 0 -30 7 -39 19l-45 61c-6 8 -11 19 -11 29c0 29 20 47 46 47z" />
    <glyph glyph-name="Oacute" unicode="&#xd3;" horiz-adv-x="774" 
d="M729 333c0 -193 -146 -345 -342 -345s-342 152 -342 345s146 345 342 345s342 -152 342 -345zM606 333c0 127 -83 235 -219 235s-219 -108 -219 -235s83 -235 219 -235s219 108 219 235zM435 879c26 0 46 -18 46 -47c0 -10 -5 -21 -11 -29l-45 -61
c-9 -12 -19 -19 -39 -19c-23 0 -48 21 -48 46c0 12 5 22 12 30l47 61c9 12 20 19 38 19z" />
    <glyph glyph-name="Ocircumflex" unicode="&#xd4;" horiz-adv-x="774" 
d="M729 333c0 -193 -146 -345 -342 -345s-342 152 -342 345s146 345 342 345s342 -152 342 -345zM606 333c0 127 -83 235 -219 235s-219 -108 -219 -235s83 -235 219 -235s219 108 219 235zM413 858l95 -73c8 -7 14 -15 14 -29c0 -21 -20 -39 -40 -39c-9 0 -18 3 -26 9
l-69 53l-69 -53c-8 -6 -17 -9 -26 -9c-20 0 -40 18 -40 39c0 14 6 22 14 29l95 73c9 7 16 11 26 11s17 -4 26 -11z" />
    <glyph glyph-name="Otilde" unicode="&#xd5;" horiz-adv-x="774" 
d="M729 333c0 -193 -146 -345 -342 -345s-342 152 -342 345s146 345 342 345s342 -152 342 -345zM606 333c0 127 -83 235 -219 235s-219 -108 -219 -235s83 -235 219 -235s219 108 219 235zM547 810c0 -40 -47 -70 -91 -70c-39 0 -71 32 -104 32c-37 0 -42 -32 -70 -32
c-21 0 -39 16 -39 37c0 40 51 74 101 74c43 0 73 -30 104 -30c27 0 41 26 62 26c19 0 37 -14 37 -37z" />
    <glyph glyph-name="Odieresis" unicode="&#xd6;" horiz-adv-x="774" 
d="M729 333c0 -193 -146 -345 -342 -345s-342 152 -342 345s146 345 342 345s342 -152 342 -345zM606 333c0 127 -83 235 -219 235s-219 -108 -219 -235s83 -235 219 -235s219 108 219 235zM553 794c0 -33 -27 -60 -61 -60c-33 0 -60 27 -60 60c0 34 27 61 60 61
c34 0 61 -27 61 -61zM343 794c0 -33 -27 -60 -60 -60s-61 27 -61 60c0 34 27 61 61 61c33 0 60 -27 60 -61z" />
    <glyph glyph-name="multiply" unicode="&#xd7;" horiz-adv-x="490" 
d="M420 173c0 -26 -22 -48 -48 -48c-13 0 -25 5 -34 14l-93 93l-93 -93c-9 -9 -21 -14 -34 -14c-26 0 -48 22 -48 48c0 13 5 25 14 34l93 93l-93 93c-9 9 -14 21 -14 34c0 27 21 49 48 49c13 0 25 -5 34 -14l93 -93l93 93c9 9 21 14 34 14c27 0 48 -21 48 -48
c0 -16 -5 -26 -14 -35l-93 -93l93 -93c9 -9 14 -21 14 -34z" />
    <glyph glyph-name="Oslash" unicode="&#xd8;" horiz-adv-x="774" 
d="M99 -52c-7 -7 -14 -10 -24 -10c-16 0 -30 13 -30 30c0 8 2 15 8 21l87 101c-60 62 -95 148 -95 243c0 193 146 345 342 345c76 0 145 -24 201 -63l88 103c6 7 13 10 23 10c17 0 30 -13 30 -30c0 -8 -2 -14 -7 -20l-88 -103c59 -62 95 -147 95 -242
c0 -193 -146 -345 -342 -345c-76 0 -145 23 -201 62zM168 333c0 -58 17 -112 48 -153l298 348c-34 25 -77 40 -127 40c-136 0 -219 -108 -219 -235zM606 333c0 57 -17 111 -48 152l-298 -348c34 -25 77 -39 127 -39c136 0 219 108 219 235z" />
    <glyph glyph-name="Ugrave" unicode="&#xd9;" horiz-adv-x="722" 
d="M524 256v356c0 34 27 62 61 62s61 -28 61 -62v-343c0 -172 -107 -281 -285 -281s-285 109 -285 281v343c0 34 27 62 61 62s61 -28 61 -62v-356c0 -93 56 -158 163 -158s163 65 163 158zM318 879c18 0 29 -7 38 -19l47 -61c7 -8 12 -18 12 -30c0 -25 -25 -46 -48 -46
c-20 0 -30 7 -39 19l-45 61c-6 8 -11 19 -11 29c0 29 20 47 46 47z" />
    <glyph glyph-name="Uacute" unicode="&#xda;" horiz-adv-x="722" 
d="M524 256v356c0 34 27 62 61 62s61 -28 61 -62v-343c0 -172 -107 -281 -285 -281s-285 109 -285 281v343c0 34 27 62 61 62s61 -28 61 -62v-356c0 -93 56 -158 163 -158s163 65 163 158zM413 879c26 0 46 -18 46 -47c0 -10 -5 -21 -11 -29l-45 -61c-9 -12 -19 -19 -39 -19
c-23 0 -48 21 -48 46c0 12 5 22 12 30l47 61c9 12 20 19 38 19z" />
    <glyph glyph-name="Ucircumflex" unicode="&#xdb;" horiz-adv-x="722" 
d="M524 256v356c0 34 27 62 61 62s61 -28 61 -62v-343c0 -172 -107 -281 -285 -281s-285 109 -285 281v343c0 34 27 62 61 62s61 -28 61 -62v-356c0 -93 56 -158 163 -158s163 65 163 158zM387 858l95 -73c8 -7 14 -15 14 -29c0 -21 -20 -39 -40 -39c-9 0 -18 3 -26 9
l-69 53l-69 -53c-8 -6 -17 -9 -26 -9c-20 0 -40 18 -40 39c0 14 6 22 14 29l95 73c9 7 16 11 26 11s17 -4 26 -11z" />
    <glyph glyph-name="Udieresis" unicode="&#xdc;" horiz-adv-x="722" 
d="M524 256v356c0 34 27 62 61 62s61 -28 61 -62v-343c0 -172 -107 -281 -285 -281s-285 109 -285 281v343c0 34 27 62 61 62s61 -28 61 -62v-356c0 -93 56 -158 163 -158s163 65 163 158zM527 794c0 -33 -27 -60 -61 -60c-33 0 -60 27 -60 60c0 34 27 61 60 61
c34 0 61 -27 61 -61zM317 794c0 -33 -27 -60 -60 -60s-61 27 -61 60c0 34 27 61 61 61c33 0 60 -27 60 -61z" />
    <glyph glyph-name="Yacute" unicode="&#xdd;" horiz-adv-x="588" 
d="M355 54c0 -34 -26 -62 -60 -62s-62 28 -62 62v239l-212 290c-7 11 -11 23 -11 34c0 30 25 57 55 57c20 0 35 -9 47 -25l182 -248l182 248c12 16 27 25 47 25c30 0 55 -27 55 -57c0 -11 -3 -23 -11 -34l-212 -290v-239zM336 879c26 0 46 -18 46 -47c0 -10 -5 -21 -11 -29
l-45 -61c-9 -12 -19 -19 -39 -19c-23 0 -48 21 -48 46c0 12 5 22 12 30l47 61c9 12 20 19 38 19z" />
    <glyph glyph-name="Thorn" unicode="&#xde;" horiz-adv-x="654" 
d="M630 333c0 -113 -71 -203 -237 -203h-191v-77c0 -34 -27 -61 -61 -61s-61 27 -61 61v559c0 34 28 62 62 62s60 -28 60 -62v-74h191c166 0 237 -92 237 -205zM507 333c0 44 -30 93 -97 93h-208v-183h208c67 0 97 45 97 90z" />
    <glyph glyph-name="germandbls" unicode="&#xdf;" horiz-adv-x="641" 
d="M294 677c135 0 207 -69 207 -161c0 -39 -16 -71 -42 -102c-34 -40 -56 -60 -56 -86c0 -24 13 -32 92 -62c85 -32 110 -80 110 -137c0 -74 -47 -141 -183 -141c-45 0 -95 9 -130 30c-19 12 -31 29 -31 48c0 25 15 47 47 47c19 0 29 -10 44 -17c23 -11 46 -20 75 -20
c45 0 64 19 64 42c0 26 -16 44 -75 65c-103 37 -134 79 -134 138c0 46 33 83 61 115c20 23 42 48 42 74c0 44 -38 67 -92 67c-55 0 -102 -27 -102 -103v-422c0 -33 -27 -60 -60 -60s-61 27 -61 60v416c0 133 81 209 224 209z" />
    <glyph glyph-name="agrave" unicode="&#xe0;" horiz-adv-x="518" 
d="M340 52v2c-28 -45 -74 -66 -129 -66c-96 0 -156 58 -156 137c0 91 70 137 162 137c46 0 92 -15 121 -46v32c0 67 -24 96 -102 96c-57 0 -92 -22 -119 -22c-29 0 -51 21 -51 49c0 65 134 75 181 75c136 0 211 -66 211 -190v-204c0 -33 -24 -60 -59 -60
c-34 0 -59 27 -59 60zM338 125c0 31 -37 57 -84 57c-49 0 -80 -22 -80 -57s34 -57 80 -57c47 0 84 25 84 57zM201 666c18 0 29 -7 38 -19l60 -78c7 -8 12 -18 12 -30c0 -25 -25 -46 -48 -46c-20 0 -30 7 -39 19l-58 78c-6 8 -11 19 -11 29c0 29 20 47 46 47z" />
    <glyph glyph-name="aacute" unicode="&#xe1;" horiz-adv-x="518" 
d="M340 52v2c-28 -45 -74 -66 -129 -66c-96 0 -156 58 -156 137c0 91 70 137 162 137c46 0 92 -15 121 -46v32c0 67 -24 96 -102 96c-57 0 -92 -22 -119 -22c-29 0 -51 21 -51 49c0 65 134 75 181 75c136 0 211 -66 211 -190v-204c0 -33 -24 -60 -59 -60
c-34 0 -59 27 -59 60zM338 125c0 31 -37 57 -84 57c-49 0 -80 -22 -80 -57s34 -57 80 -57c47 0 84 25 84 57zM324 666c26 0 46 -18 46 -47c0 -10 -5 -21 -11 -29l-58 -78c-9 -12 -19 -19 -39 -19c-23 0 -48 21 -48 46c0 12 5 22 12 30l60 78c9 12 20 19 38 19z" />
    <glyph glyph-name="acircumflex" unicode="&#xe2;" horiz-adv-x="518" 
d="M340 52v2c-28 -45 -74 -66 -129 -66c-96 0 -156 58 -156 137c0 91 70 137 162 137c46 0 92 -15 121 -46v32c0 67 -24 96 -102 96c-57 0 -92 -22 -119 -22c-29 0 -51 21 -51 49c0 65 134 75 181 75c136 0 211 -66 211 -190v-204c0 -33 -24 -60 -59 -60
c-34 0 -59 27 -59 60zM338 125c0 31 -37 57 -84 57c-49 0 -80 -22 -80 -57s34 -57 80 -57c47 0 84 25 84 57zM239 649c8 7 16 10 26 10s19 -3 27 -10l100 -88c10 -10 13 -19 13 -30c0 -21 -19 -38 -39 -38c-9 0 -18 3 -26 9l-75 66l-74 -66c-8 -6 -17 -9 -26 -9
c-20 0 -38 17 -38 38c0 11 4 22 12 30z" />
    <glyph glyph-name="atilde" unicode="&#xe3;" horiz-adv-x="518" 
d="M340 52v2c-28 -45 -74 -66 -129 -66c-96 0 -156 58 -156 137c0 91 70 137 162 137c46 0 92 -15 121 -46v32c0 67 -24 96 -102 96c-57 0 -92 -22 -119 -22c-29 0 -51 21 -51 49c0 65 134 75 181 75c136 0 211 -66 211 -190v-204c0 -33 -24 -60 -59 -60
c-34 0 -59 27 -59 60zM338 125c0 31 -37 57 -84 57c-49 0 -80 -22 -80 -57s34 -57 80 -57c47 0 84 25 84 57zM415 569c0 -40 -47 -70 -91 -70c-39 0 -71 32 -104 32c-37 0 -42 -32 -70 -32c-21 0 -39 16 -39 37c0 40 51 74 101 74c43 0 73 -30 104 -30c27 0 41 26 62 26
c19 0 37 -14 37 -37z" />
    <glyph glyph-name="adieresis" unicode="&#xe4;" horiz-adv-x="518" 
d="M340 52v2c-28 -45 -74 -66 -129 -66c-96 0 -156 58 -156 137c0 91 70 137 162 137c46 0 92 -15 121 -46v32c0 67 -24 96 -102 96c-57 0 -92 -22 -119 -22c-29 0 -51 21 -51 49c0 65 134 75 181 75c136 0 211 -66 211 -190v-204c0 -33 -24 -60 -59 -60
c-34 0 -59 27 -59 60zM338 125c0 31 -37 57 -84 57c-49 0 -80 -22 -80 -57s34 -57 80 -57c47 0 84 25 84 57zM424 558c0 -33 -27 -60 -61 -60c-33 0 -60 27 -60 60c0 34 27 61 60 61c34 0 61 -27 61 -61zM235 558c0 -33 -27 -60 -60 -60s-61 27 -61 60c0 34 27 61 61 61
c33 0 60 -27 60 -61z" />
    <glyph glyph-name="aring" unicode="&#xe5;" horiz-adv-x="518" 
d="M340 52v2c-28 -45 -74 -66 -129 -66c-96 0 -156 58 -156 137c0 91 70 137 162 137c46 0 92 -15 121 -46v32c0 67 -24 96 -102 96c-57 0 -92 -22 -119 -22c-29 0 -51 21 -51 49c0 65 134 75 181 75c136 0 211 -66 211 -190v-204c0 -33 -24 -60 -59 -60
c-34 0 -59 27 -59 60zM338 125c0 31 -37 57 -84 57c-49 0 -80 -22 -80 -57s34 -57 80 -57c47 0 84 25 84 57zM349 563c0 -46 -37 -82 -85 -82c-46 0 -85 36 -85 82c0 48 39 82 85 82c48 0 85 -34 85 -82zM302 563c0 22 -15 37 -38 37c-22 0 -37 -15 -37 -37
c0 -21 14 -37 37 -37c24 0 38 16 38 37z" />
    <glyph glyph-name="ae" unicode="&#xe6;" horiz-adv-x="817" 
d="M772 217c0 -19 -12 -39 -43 -39h-266c6 -52 39 -95 108 -95c38 0 69 11 92 29c14 11 26 20 44 20c30 0 48 -19 48 -44c0 -28 -22 -47 -43 -60c-33 -21 -77 -40 -146 -40c-73 0 -136 26 -161 67c-59 -48 -107 -67 -181 -67c-102 0 -169 58 -169 137c0 91 70 137 162 137
c46 0 92 -15 121 -46v32c0 67 -24 96 -102 96c-57 0 -92 -22 -119 -22c-29 0 -51 21 -51 49c0 65 134 75 181 75c71 0 116 -22 154 -62c45 49 100 62 163 62c125 0 208 -98 208 -229zM338 125c0 31 -37 57 -84 57c-49 0 -80 -22 -80 -57s34 -57 80 -57c47 0 84 25 84 57z
M658 263c-9 46 -41 87 -94 87c-55 0 -93 -36 -99 -87h193z" />
    <glyph glyph-name="ccedilla" unicode="&#xe7;" horiz-adv-x="482" 
d="M390 -119c0 -42 -36 -76 -116 -76c-27 0 -98 3 -98 38c0 15 9 27 24 27c23 0 35 -11 72 -11c29 0 41 11 41 24c0 15 -16 22 -38 22c-16 0 -25 -4 -43 -5c-13 -1 -24 8 -24 22c0 12 10 33 25 69c-120 17 -193 111 -193 226c0 128 91 229 236 229c71 0 125 -27 154 -59
c11 -12 17 -24 17 -41c0 -27 -19 -46 -47 -46c-16 0 -26 4 -37 12c-16 12 -43 32 -86 32c-77 0 -117 -60 -117 -127s40 -127 117 -127c43 0 70 20 86 32c11 8 21 12 37 12c28 0 47 -19 47 -46c0 -17 -6 -29 -17 -41c-27 -30 -76 -55 -140 -58l-16 -43c8 3 17 4 27 4
c57 0 89 -23 89 -69z" />
    <glyph glyph-name="egrave" unicode="&#xe8;" horiz-adv-x="519" 
d="M474 217c0 -19 -12 -39 -43 -39h-266c6 -52 39 -95 108 -95c38 0 69 11 92 29c14 11 26 20 44 20c30 0 48 -19 48 -44c0 -28 -22 -47 -43 -60c-33 -21 -77 -40 -146 -40c-150 0 -228 104 -228 229c0 132 95 229 226 229c125 0 208 -98 208 -229zM360 263
c-9 46 -41 87 -94 87c-55 0 -93 -36 -99 -87h193zM189 666c18 0 29 -7 38 -19l60 -78c7 -8 12 -18 12 -30c0 -25 -25 -46 -48 -46c-20 0 -30 7 -39 19l-58 78c-6 8 -11 19 -11 29c0 29 20 47 46 47z" />
    <glyph glyph-name="eacute" unicode="&#xe9;" horiz-adv-x="519" 
d="M474 217c0 -19 -12 -39 -43 -39h-266c6 -52 39 -95 108 -95c38 0 69 11 92 29c14 11 26 20 44 20c30 0 48 -19 48 -44c0 -28 -22 -47 -43 -60c-33 -21 -77 -40 -146 -40c-150 0 -228 104 -228 229c0 132 95 229 226 229c125 0 208 -98 208 -229zM360 263
c-9 46 -41 87 -94 87c-55 0 -93 -36 -99 -87h193zM323 666c26 0 46 -18 46 -47c0 -10 -5 -21 -11 -29l-58 -78c-9 -12 -19 -19 -39 -19c-23 0 -48 21 -48 46c0 12 5 22 12 30l60 78c9 12 20 19 38 19z" />
    <glyph glyph-name="ecircumflex" unicode="&#xea;" horiz-adv-x="519" 
d="M474 217c0 -19 -12 -39 -43 -39h-266c6 -52 39 -95 108 -95c38 0 69 11 92 29c14 11 26 20 44 20c30 0 48 -19 48 -44c0 -28 -22 -47 -43 -60c-33 -21 -77 -40 -146 -40c-150 0 -228 104 -228 229c0 132 95 229 226 229c125 0 208 -98 208 -229zM360 263
c-9 46 -41 87 -94 87c-55 0 -93 -36 -99 -87h193zM247 649c8 7 16 10 26 10s19 -3 27 -10l100 -88c10 -10 13 -19 13 -30c0 -21 -19 -38 -39 -38c-9 0 -18 3 -26 9l-75 66l-74 -66c-8 -6 -17 -9 -26 -9c-20 0 -38 17 -38 38c0 11 4 22 12 30z" />
    <glyph glyph-name="edieresis" unicode="&#xeb;" horiz-adv-x="519" 
d="M474 217c0 -19 -12 -39 -43 -39h-266c6 -52 39 -95 108 -95c38 0 69 11 92 29c14 11 26 20 44 20c30 0 48 -19 48 -44c0 -28 -22 -47 -43 -60c-33 -21 -77 -40 -146 -40c-150 0 -228 104 -228 229c0 132 95 229 226 229c125 0 208 -98 208 -229zM360 263
c-9 46 -41 87 -94 87c-55 0 -93 -36 -99 -87h193zM423 558c0 -33 -27 -60 -61 -60c-33 0 -60 27 -60 60c0 34 27 61 60 61c34 0 61 -27 61 -61zM234 558c0 -33 -27 -60 -60 -60s-61 27 -61 60c0 34 27 61 61 61c33 0 60 -27 60 -61z" />
    <glyph glyph-name="igrave" unicode="&#xec;" horiz-adv-x="260" 
d="M70 52v330c0 33 27 60 60 60s60 -27 60 -60v-330c0 -33 -27 -60 -60 -60s-60 27 -60 60zM59 666c18 0 29 -7 38 -19l60 -78c7 -8 12 -18 12 -30c0 -25 -25 -46 -48 -46c-20 0 -30 7 -39 19l-58 78c-6 8 -11 19 -11 29c0 29 20 47 46 47z" />
    <glyph glyph-name="iacute" unicode="&#xed;" horiz-adv-x="260" 
d="M70 52v330c0 33 27 60 60 60s60 -27 60 -60v-330c0 -33 -27 -60 -60 -60s-60 27 -60 60zM185 666c26 0 46 -18 46 -47c0 -10 -5 -21 -11 -29l-58 -78c-9 -12 -19 -19 -39 -19c-23 0 -48 21 -48 46c0 12 5 22 12 30l60 78c9 12 20 19 38 19z" />
    <glyph glyph-name="icircumflex" unicode="&#xee;" horiz-adv-x="260" 
d="M70 52v330c0 33 27 60 60 60s60 -27 60 -60v-330c0 -33 -27 -60 -60 -60s-60 27 -60 60zM103 649c8 7 16 10 26 10s19 -3 27 -10l100 -88c10 -10 13 -19 13 -30c0 -21 -19 -38 -39 -38c-9 0 -18 3 -26 9l-75 66l-74 -66c-8 -6 -17 -9 -26 -9c-20 0 -38 17 -38 38
c0 11 4 22 12 30z" />
    <glyph glyph-name="idieresis" unicode="&#xef;" horiz-adv-x="260" 
d="M70 52v330c0 33 27 60 60 60s60 -27 60 -60v-330c0 -33 -27 -60 -60 -60s-60 27 -60 60zM285 558c0 -33 -27 -60 -61 -60c-33 0 -60 27 -60 60c0 34 27 61 60 61c34 0 61 -27 61 -61zM96 558c0 -33 -27 -60 -60 -60s-61 27 -61 60c0 34 27 61 61 61c33 0 60 -27 60 -61z
" />
    <glyph glyph-name="eth" unicode="&#xf0;" horiz-adv-x="515" 
d="M346 659c24 0 39 -19 39 -39c0 -10 -4 -21 -12 -29l-29 -29c76 -83 136 -195 136 -343c0 -116 -70 -231 -219 -231c-138 0 -221 99 -221 213c0 122 82 209 208 209c37 0 70 -11 96 -29c-13 41 -42 83 -71 110l-30 -30c-8 -8 -19 -12 -29 -12c-21 0 -39 18 -39 39
c0 10 4 21 12 29l28 28c-21 17 -42 33 -60 48c-11 9 -16 22 -16 35c0 28 22 50 48 50c15 0 29 -8 42 -17c19 -13 39 -28 58 -44l30 30c8 8 17 12 29 12zM363 201c0 67 -42 111 -102 111c-62 0 -104 -42 -104 -111c0 -61 41 -111 104 -111c69 0 102 53 102 111z" />
    <glyph glyph-name="ntilde" unicode="&#xf1;" horiz-adv-x="560" 
d="M375 234c0 58 -29 104 -91 104c-67 0 -94 -51 -94 -104v-182c0 -33 -27 -60 -60 -60s-60 27 -60 60v329c0 38 26 61 60 61s60 -23 60 -61v-8c24 44 67 73 129 73c112 0 176 -86 176 -206v-188c0 -33 -27 -60 -60 -60s-60 27 -60 60v182zM440 569c0 -40 -47 -70 -91 -70
c-39 0 -71 32 -104 32c-37 0 -42 -32 -70 -32c-21 0 -39 16 -39 37c0 40 51 74 101 74c43 0 73 -30 104 -30c27 0 41 26 62 26c19 0 37 -14 37 -37z" />
    <glyph glyph-name="ograve" unicode="&#xf2;" horiz-adv-x="542" 
d="M500 217c0 -126 -94 -229 -229 -229s-229 103 -229 229s94 229 229 229s229 -103 229 -229zM382 217c0 67 -42 125 -111 125s-111 -58 -111 -125s42 -125 111 -125s111 58 111 125zM194 666c18 0 29 -7 38 -19l60 -78c7 -8 12 -18 12 -30c0 -25 -25 -46 -48 -46
c-20 0 -30 7 -39 19l-58 78c-6 8 -11 19 -11 29c0 29 20 47 46 47z" />
    <glyph glyph-name="oacute" unicode="&#xf3;" horiz-adv-x="542" 
d="M500 217c0 -126 -94 -229 -229 -229s-229 103 -229 229s94 229 229 229s229 -103 229 -229zM382 217c0 67 -42 125 -111 125s-111 -58 -111 -125s42 -125 111 -125s111 58 111 125zM325 666c26 0 46 -18 46 -47c0 -10 -5 -21 -11 -29l-58 -78c-9 -12 -19 -19 -39 -19
c-23 0 -48 21 -48 46c0 12 5 22 12 30l60 78c9 12 20 19 38 19z" />
    <glyph glyph-name="ocircumflex" unicode="&#xf4;" horiz-adv-x="542" 
d="M500 217c0 -126 -94 -229 -229 -229s-229 103 -229 229s94 229 229 229s229 -103 229 -229zM382 217c0 67 -42 125 -111 125s-111 -58 -111 -125s42 -125 111 -125s111 58 111 125zM244 649c8 7 16 10 26 10s19 -3 27 -10l100 -88c10 -10 13 -19 13 -30
c0 -21 -19 -38 -39 -38c-9 0 -18 3 -26 9l-75 66l-74 -66c-8 -6 -17 -9 -26 -9c-20 0 -38 17 -38 38c0 11 4 22 12 30z" />
    <glyph glyph-name="otilde" unicode="&#xf5;" horiz-adv-x="542" 
d="M500 217c0 -126 -94 -229 -229 -229s-229 103 -229 229s94 229 229 229s229 -103 229 -229zM382 217c0 67 -42 125 -111 125s-111 -58 -111 -125s42 -125 111 -125s111 58 111 125zM433 569c0 -40 -47 -70 -91 -70c-39 0 -71 32 -104 32c-37 0 -42 -32 -70 -32
c-21 0 -39 16 -39 37c0 40 51 74 101 74c43 0 73 -30 104 -30c27 0 41 26 62 26c19 0 37 -14 37 -37z" />
    <glyph glyph-name="odieresis" unicode="&#xf6;" horiz-adv-x="542" 
d="M500 217c0 -126 -94 -229 -229 -229s-229 103 -229 229s94 229 229 229s229 -103 229 -229zM382 217c0 67 -42 125 -111 125s-111 -58 -111 -125s42 -125 111 -125s111 58 111 125zM426 558c0 -33 -27 -60 -61 -60c-33 0 -60 27 -60 60c0 34 27 61 60 61
c34 0 61 -27 61 -61zM237 558c0 -33 -27 -60 -60 -60s-61 27 -61 60c0 34 27 61 61 61c33 0 60 -27 60 -61z" />
    <glyph glyph-name="divide" unicode="&#xf7;" horiz-adv-x="600" 
d="M482 267h-364c-27 0 -48 22 -48 48c0 27 21 48 48 48h364c26 0 48 -22 48 -48s-22 -48 -48 -48zM359 145c0 -32 -27 -59 -59 -59c-33 0 -59 27 -59 59c0 33 26 59 59 59c32 0 59 -26 59 -59zM359 485c0 -32 -27 -59 -59 -59c-33 0 -59 27 -59 59c0 33 26 59 59 59
c32 0 59 -26 59 -59z" />
    <glyph glyph-name="oslash" unicode="&#xf8;" horiz-adv-x="542" 
d="M85 -53c-4 -5 -9 -9 -18 -9c-12 0 -25 12 -25 25c0 5 2 10 5 14l61 76c-42 41 -66 100 -66 164c0 126 94 229 229 229c47 0 90 -13 125 -35l62 77c4 5 9 8 17 8c14 0 25 -11 25 -25c0 -5 -1 -10 -5 -15l-61 -76c42 -41 66 -99 66 -163c0 -126 -94 -229 -229 -229
c-48 0 -90 13 -125 35zM160 217c0 -28 7 -54 20 -75l148 184c-16 10 -35 16 -57 16c-69 0 -111 -58 -111 -125zM382 217c0 27 -7 53 -20 74l-148 -184c16 -10 35 -15 57 -15c69 0 111 58 111 125z" />
    <glyph glyph-name="ugrave" unicode="&#xf9;" horiz-adv-x="558" 
d="M183 200c0 -58 29 -104 91 -104c67 0 94 51 94 104v182c0 33 27 60 60 60s60 -27 60 -60v-329c0 -38 -26 -61 -60 -61s-60 23 -60 61v8c-24 -44 -67 -73 -129 -73c-112 0 -176 86 -176 206v188c0 33 27 60 60 60s60 -27 60 -60v-182zM215 666c18 0 29 -7 38 -19l60 -78
c7 -8 12 -18 12 -30c0 -25 -25 -46 -48 -46c-20 0 -30 7 -39 19l-58 78c-6 8 -11 19 -11 29c0 29 20 47 46 47z" />
    <glyph glyph-name="uacute" unicode="&#xfa;" horiz-adv-x="558" 
d="M183 200c0 -58 29 -104 91 -104c67 0 94 51 94 104v182c0 33 27 60 60 60s60 -27 60 -60v-329c0 -38 -26 -61 -60 -61s-60 23 -60 61v8c-24 -44 -67 -73 -129 -73c-112 0 -176 86 -176 206v188c0 33 27 60 60 60s60 -27 60 -60v-182zM339 666c26 0 46 -18 46 -47
c0 -10 -5 -21 -11 -29l-58 -78c-9 -12 -19 -19 -39 -19c-23 0 -48 21 -48 46c0 12 5 22 12 30l60 78c9 12 20 19 38 19z" />
    <glyph glyph-name="ucircumflex" unicode="&#xfb;" horiz-adv-x="558" 
d="M183 200c0 -58 29 -104 91 -104c67 0 94 51 94 104v182c0 33 27 60 60 60s60 -27 60 -60v-329c0 -38 -26 -61 -60 -61s-60 23 -60 61v8c-24 -44 -67 -73 -129 -73c-112 0 -176 86 -176 206v188c0 33 27 60 60 60s60 -27 60 -60v-182zM250 649c8 7 16 10 26 10
s19 -3 27 -10l100 -88c10 -10 13 -19 13 -30c0 -21 -19 -38 -39 -38c-9 0 -18 3 -26 9l-75 66l-74 -66c-8 -6 -17 -9 -26 -9c-20 0 -38 17 -38 38c0 11 4 22 12 30z" />
    <glyph glyph-name="udieresis" unicode="&#xfc;" horiz-adv-x="558" 
d="M183 200c0 -58 29 -104 91 -104c67 0 94 51 94 104v182c0 33 27 60 60 60s60 -27 60 -60v-329c0 -38 -26 -61 -60 -61s-60 23 -60 61v8c-24 -44 -67 -73 -129 -73c-112 0 -176 86 -176 206v188c0 33 27 60 60 60s60 -27 60 -60v-182zM433 558c0 -33 -27 -60 -61 -60
c-33 0 -60 27 -60 60c0 34 27 61 60 61c34 0 61 -27 61 -61zM244 558c0 -33 -27 -60 -60 -60s-61 27 -61 60c0 34 27 61 61 61c33 0 60 -27 60 -61z" />
    <glyph glyph-name="yacute" unicode="&#xfd;" horiz-adv-x="464" 
d="M322 61c-47 -116 -104 -200 -186 -249c-8 -5 -17 -7 -27 -7c-29 0 -54 23 -54 50c0 21 10 34 29 49c42 33 67 58 89 108l-143 353c-3 7 -5 14 -5 22c0 30 22 55 54 55c26 0 42 -12 50 -32l112 -288l94 288c6 20 21 32 50 32c32 0 53 -25 53 -55c0 -8 -2 -17 -4 -22
c-25 -76 -66 -190 -112 -304zM297 666c26 0 46 -18 46 -47c0 -10 -5 -21 -11 -29l-58 -78c-9 -12 -19 -19 -39 -19c-23 0 -48 21 -48 46c0 12 5 22 12 30l60 78c9 12 20 19 38 19z" />
    <glyph glyph-name="thorn" unicode="&#xfe;" horiz-adv-x="566" 
d="M70 -135v749c0 33 23 60 58 60s58 -28 58 -61v-238c29 44 78 71 137 71c133 0 203 -111 203 -229s-71 -229 -203 -229c-52 0 -103 22 -133 71v-194c0 -33 -27 -60 -60 -60s-60 27 -60 60zM406 217c0 70 -40 127 -109 127s-107 -60 -107 -127s39 -127 107 -127
c69 0 109 57 109 127z" />
    <glyph glyph-name="ydieresis" unicode="&#xff;" horiz-adv-x="464" 
d="M322 61c-47 -116 -104 -200 -186 -249c-8 -5 -17 -7 -27 -7c-29 0 -54 23 -54 50c0 21 10 34 29 49c42 33 67 58 89 108l-143 353c-3 7 -5 14 -5 22c0 30 22 55 54 55c26 0 42 -12 50 -32l112 -288l94 288c6 20 21 32 50 32c32 0 53 -25 53 -55c0 -8 -2 -17 -4 -22
c-25 -76 -66 -190 -112 -304zM389 558c0 -33 -27 -60 -61 -60c-33 0 -60 27 -60 60c0 34 27 61 60 61c34 0 61 -27 61 -61zM200 558c0 -33 -27 -60 -60 -60s-61 27 -61 60c0 34 27 61 61 61c33 0 60 -27 60 -61z" />
    <glyph glyph-name="Amacron" unicode="&#x100;" horiz-adv-x="694" 
d="M552 25l-57 122h-296l-57 -122c-11 -20 -25 -33 -51 -33c-36 0 -58 28 -58 57c0 8 2 16 6 24l256 569c9 20 26 32 52 32s43 -11 52 -32l256 -569c4 -8 6 -16 6 -24c0 -29 -22 -57 -58 -57c-26 0 -40 12 -51 33zM451 254l-104 254l-104 -254h208zM464 743h-233
c-22 0 -41 17 -41 41s19 41 41 41h233c22 0 41 -17 41 -41s-19 -41 -41 -41z" />
    <glyph glyph-name="amacron" unicode="&#x101;" horiz-adv-x="518" 
d="M340 52v2c-28 -45 -74 -66 -129 -66c-96 0 -156 58 -156 137c0 91 70 137 162 137c46 0 92 -15 121 -46v32c0 67 -24 96 -102 96c-57 0 -92 -22 -119 -22c-29 0 -51 21 -51 49c0 65 134 75 181 75c136 0 211 -66 211 -190v-204c0 -33 -24 -60 -59 -60
c-34 0 -59 27 -59 60zM338 125c0 31 -37 57 -84 57c-49 0 -80 -22 -80 -57s34 -57 80 -57c47 0 84 25 84 57zM407 561c0 -20 -19 -39 -39 -39h-219c-20 0 -38 19 -38 39s18 38 38 38h219c20 0 39 -18 39 -38z" />
    <glyph glyph-name="Abreve" unicode="&#x102;" horiz-adv-x="694" 
d="M552 25l-57 122h-296l-57 -122c-11 -20 -25 -33 -51 -33c-36 0 -58 28 -58 57c0 8 2 16 6 24l256 569c9 20 26 32 52 32s43 -11 52 -32l256 -569c4 -8 6 -16 6 -24c0 -29 -22 -57 -58 -57c-26 0 -40 12 -51 33zM451 254l-104 254l-104 -254h208zM493 830
c0 -71 -55 -112 -146 -112s-145 40 -145 114c0 20 17 34 36 35s40 -11 40 -38c0 -29 26 -44 69 -44s69 14 69 44c0 24 19 37 37 37c20 0 40 -12 40 -36z" />
    <glyph glyph-name="abreve" unicode="&#x103;" horiz-adv-x="518" 
d="M340 52v2c-28 -45 -74 -66 -129 -66c-96 0 -156 58 -156 137c0 91 70 137 162 137c46 0 92 -15 121 -46v32c0 67 -24 96 -102 96c-57 0 -92 -22 -119 -22c-29 0 -51 21 -51 49c0 65 134 75 181 75c136 0 211 -66 211 -190v-204c0 -33 -24 -60 -59 -60
c-34 0 -59 27 -59 60zM338 125c0 31 -37 57 -84 57c-49 0 -80 -22 -80 -57s34 -57 80 -57c47 0 84 25 84 57zM408 609c0 -71 -47 -122 -138 -122s-137 50 -137 124c0 20 17 34 36 35s40 -11 40 -38c0 -29 17 -54 61 -54s61 24 61 54c0 24 19 37 37 37c20 0 40 -12 40 -36z
" />
    <glyph glyph-name="Aogonek" unicode="&#x104;" horiz-adv-x="694" 
d="M652 -140c0 -28 -35 -45 -87 -45c-67 0 -96 32 -96 72c0 52 64 94 109 110c-11 5 -19 15 -26 28l-57 122h-296l-57 -122c-11 -20 -25 -33 -51 -33c-36 0 -58 28 -58 57c0 8 2 16 6 24l256 569c9 20 26 32 52 32s43 -11 52 -32l256 -569c4 -8 6 -16 6 -24
c0 -21 -15 -39 -32 -51c-41 -29 -70 -59 -70 -90c0 -14 6 -24 30 -24c16 0 24 5 37 5c16 0 26 -13 26 -29zM451 254l-104 254l-104 -254h208z" />
    <glyph glyph-name="aogonek" unicode="&#x105;" horiz-adv-x="518" 
d="M448 -140c0 -28 -35 -45 -87 -45c-67 0 -96 32 -96 72c0 52 64 94 109 110c-21 9 -34 31 -34 55v2c-28 -45 -74 -66 -129 -66c-96 0 -156 58 -156 137c0 91 70 137 162 137c46 0 92 -15 121 -46v32c0 67 -24 96 -102 96c-57 0 -92 -22 -119 -22c-29 0 -51 21 -51 49
c0 65 134 75 181 75c136 0 211 -66 211 -190v-201c0 -25 -12 -41 -34 -58c-37 -29 -69 -56 -69 -89c0 -14 6 -24 30 -24c16 0 24 5 37 5c16 0 26 -13 26 -29zM338 125c0 31 -37 57 -84 57c-49 0 -80 -22 -80 -57s34 -57 80 -57c47 0 84 25 84 57z" />
    <glyph glyph-name="Cacute" unicode="&#x106;" horiz-adv-x="667" 
d="M380 101c68 0 109 26 147 55c13 9 26 14 40 14c34 0 55 -26 55 -56c0 -16 -7 -29 -19 -41c-57 -59 -145 -85 -223 -85c-196 0 -340 136 -340 345s144 345 340 345c78 0 166 -26 223 -85c12 -12 19 -25 19 -41c0 -30 -21 -56 -55 -56c-14 0 -27 5 -40 14
c-38 29 -79 55 -147 55c-131 0 -217 -99 -217 -232s86 -232 217 -232zM408 879c26 0 46 -18 46 -47c0 -10 -5 -21 -11 -29l-45 -61c-9 -12 -19 -19 -39 -19c-23 0 -48 21 -48 46c0 12 5 22 12 30l47 61c9 12 20 19 38 19z" />
    <glyph glyph-name="cacute" unicode="&#x107;" horiz-adv-x="482" 
d="M276 446c71 0 125 -27 154 -59c11 -12 17 -24 17 -41c0 -27 -19 -46 -47 -46c-16 0 -26 4 -37 12c-16 12 -43 32 -86 32c-77 0 -117 -60 -117 -127s40 -127 117 -127c43 0 70 20 86 32c11 8 21 12 37 12c28 0 47 -19 47 -46c0 -17 -6 -29 -17 -41
c-29 -32 -83 -59 -154 -59c-145 0 -236 101 -236 229s91 229 236 229zM308 666c26 0 46 -18 46 -47c0 -10 -5 -21 -11 -29l-58 -78c-9 -12 -19 -19 -39 -19c-23 0 -48 21 -48 46c0 12 5 22 12 30l60 78c9 12 20 19 38 19z" />
    <glyph glyph-name="Ccircumflex" unicode="&#x108;" horiz-adv-x="667" 
d="M380 101c68 0 109 26 147 55c13 9 26 14 40 14c34 0 55 -26 55 -56c0 -16 -7 -29 -19 -41c-57 -59 -145 -85 -223 -85c-196 0 -340 136 -340 345s144 345 340 345c78 0 166 -26 223 -85c12 -12 19 -25 19 -41c0 -30 -21 -56 -55 -56c-14 0 -27 5 -40 14
c-38 29 -79 55 -147 55c-131 0 -217 -99 -217 -232s86 -232 217 -232zM394 858l95 -73c8 -7 14 -15 14 -29c0 -21 -20 -39 -40 -39c-9 0 -18 3 -26 9l-69 53l-69 -53c-8 -6 -17 -9 -26 -9c-20 0 -40 18 -40 39c0 14 6 22 14 29l95 73c9 7 16 11 26 11s17 -4 26 -11z" />
    <glyph glyph-name="ccircumflex" unicode="&#x109;" horiz-adv-x="482" 
d="M276 446c71 0 125 -27 154 -59c11 -12 17 -24 17 -41c0 -27 -19 -46 -47 -46c-16 0 -26 4 -37 12c-16 12 -43 32 -86 32c-77 0 -117 -60 -117 -127s40 -127 117 -127c43 0 70 20 86 32c11 8 21 12 37 12c28 0 47 -19 47 -46c0 -17 -6 -29 -17 -41
c-29 -32 -83 -59 -154 -59c-145 0 -236 101 -236 229s91 229 236 229zM242 649c8 7 16 10 26 10s19 -3 27 -10l100 -88c10 -10 13 -19 13 -30c0 -21 -19 -38 -39 -38c-9 0 -18 3 -26 9l-75 66l-74 -66c-8 -6 -17 -9 -26 -9c-20 0 -38 17 -38 38c0 11 4 22 12 30z" />
    <glyph glyph-name="Cdotaccent" unicode="&#x10a;" horiz-adv-x="667" 
d="M380 101c68 0 109 26 147 55c13 9 26 14 40 14c34 0 55 -26 55 -56c0 -16 -7 -29 -19 -41c-57 -59 -145 -85 -223 -85c-196 0 -340 136 -340 345s144 345 340 345c78 0 166 -26 223 -85c12 -12 19 -25 19 -41c0 -30 -21 -56 -55 -56c-14 0 -27 5 -40 14
c-38 29 -79 55 -147 55c-131 0 -217 -99 -217 -232s86 -232 217 -232zM306 794c0 38 30 68 68 68s68 -30 68 -68s-30 -68 -68 -68s-68 30 -68 68z" />
    <glyph glyph-name="cdotaccent" unicode="&#x10b;" horiz-adv-x="482" 
d="M276 446c71 0 125 -27 154 -59c11 -12 17 -24 17 -41c0 -27 -19 -46 -47 -46c-16 0 -26 4 -37 12c-16 12 -43 32 -86 32c-77 0 -117 -60 -117 -127s40 -127 117 -127c43 0 70 20 86 32c11 8 21 12 37 12c28 0 47 -19 47 -46c0 -17 -6 -29 -17 -41
c-29 -32 -83 -59 -154 -59c-145 0 -236 101 -236 229s91 229 236 229zM200 573c0 38 30 68 68 68s68 -30 68 -68s-30 -68 -68 -68s-68 30 -68 68z" />
    <glyph glyph-name="Ccaron" unicode="&#x10c;" horiz-adv-x="667" 
d="M380 101c68 0 109 26 147 55c13 9 26 14 40 14c34 0 55 -26 55 -56c0 -16 -7 -29 -19 -41c-57 -59 -145 -85 -223 -85c-196 0 -340 136 -340 345s144 345 340 345c78 0 166 -26 223 -85c12 -12 19 -25 19 -41c0 -30 -21 -56 -55 -56c-14 0 -27 5 -40 14
c-38 29 -79 55 -147 55c-131 0 -217 -99 -217 -232s86 -232 217 -232zM502 800l-95 -73c-9 -7 -16 -11 -26 -11s-17 4 -26 11l-95 73c-8 7 -14 15 -14 29c0 21 20 39 40 39c9 0 18 -3 26 -9l69 -53l69 53c8 6 17 9 26 9c20 0 40 -18 40 -39c0 -14 -6 -22 -14 -29z" />
    <glyph glyph-name="ccaron" unicode="&#x10d;" horiz-adv-x="482" 
d="M276 446c71 0 125 -27 154 -59c11 -12 17 -24 17 -41c0 -27 -19 -46 -47 -46c-16 0 -26 4 -37 12c-16 12 -43 32 -86 32c-77 0 -117 -60 -117 -127s40 -127 117 -127c43 0 70 20 86 32c11 8 21 12 37 12c28 0 47 -19 47 -46c0 -17 -6 -29 -17 -41
c-29 -32 -83 -59 -154 -59c-145 0 -236 101 -236 229s91 229 236 229zM241 494l-102 88c-8 8 -12 19 -12 30c0 21 18 38 38 38c9 0 18 -3 26 -9l76 -66l77 66c8 6 17 9 26 9c20 0 39 -17 39 -38c0 -11 -3 -20 -13 -30l-102 -88c-8 -7 -17 -10 -27 -10s-18 3 -26 10z" />
    <glyph glyph-name="Dcaron" unicode="&#x10e;" horiz-adv-x="699" 
d="M657 333c0 -186 -129 -333 -332 -333h-183c-34 0 -62 28 -62 62v543c0 34 28 61 62 61h183c203 0 332 -147 332 -333zM535 333c0 129 -78 220 -216 220h-117v-440h117c138 0 216 91 216 220zM450 800l-95 -73c-9 -7 -16 -11 -26 -11s-17 4 -26 11l-95 73
c-8 7 -14 15 -14 29c0 21 20 39 40 39c9 0 18 -3 26 -9l69 -53l69 53c8 6 17 9 26 9c20 0 40 -18 40 -39c0 -14 -6 -22 -14 -29z" />
    <glyph glyph-name="dcaron" unicode="&#x10f;" horiz-adv-x="723" 
d="M496 614v-562c0 -33 -23 -60 -58 -60s-58 28 -58 61v6c-29 -44 -78 -71 -137 -71c-133 0 -203 111 -203 229s71 229 203 229c52 0 103 -22 133 -71v239c0 33 27 60 60 60s60 -27 60 -60zM160 217c0 -70 40 -127 109 -127s107 60 107 127s-39 127 -107 127
c-69 0 -109 -57 -109 -127zM724 593c0 -38 -10 -93 -24 -126c-9 -21 -23 -37 -52 -37c-36 0 -52 21 -52 42c0 15 5 25 9 38c10 35 13 56 13 87v21c0 32 19 56 53 56s53 -23 53 -56v-25z" />
    <glyph glyph-name="Dcroat" unicode="&#x110;" horiz-adv-x="811" 
d="M704 333c0 -186 -129 -333 -332 -333h-183c-34 0 -62 28 -62 62v219h-56c-29 0 -53 24 -53 52c0 30 24 53 53 53h56v219c0 34 28 61 62 61h183c203 0 332 -147 332 -333zM400 333c0 -28 -24 -52 -53 -52h-98v-168h117c138 0 216 91 216 220s-78 220 -216 220h-117v-167
h98c29 0 53 -23 53 -53z" />
    <glyph glyph-name="dcroat" unicode="&#x111;" horiz-adv-x="626" 
d="M259 489c-23 0 -41 18 -41 41s18 41 41 41h117v43c0 33 27 60 60 60s60 -27 60 -60v-43h67c23 0 41 -18 41 -41s-18 -41 -41 -41h-67v-437c0 -33 -23 -60 -58 -60s-58 28 -58 61v6c-29 -44 -78 -71 -137 -71c-133 0 -203 111 -203 229s71 229 203 229
c52 0 103 -22 133 -71v114h-117zM160 217c0 -70 40 -127 109 -127s107 60 107 127s-39 127 -107 127c-69 0 -109 -57 -109 -127z" />
    <glyph glyph-name="Emacron" unicode="&#x112;" horiz-adv-x="605" 
d="M575 56c0 -32 -26 -56 -58 -56h-375c-34 0 -62 27 -62 61v544c0 34 28 61 62 61h360c32 0 58 -24 58 -56s-26 -57 -58 -57h-300v-159h165c31 0 57 -25 57 -57s-26 -56 -57 -56h-165v-168h315c32 0 58 -25 58 -57zM444 743h-233c-22 0 -41 17 -41 41s19 41 41 41h233
c22 0 41 -17 41 -41s-19 -41 -41 -41z" />
    <glyph glyph-name="emacron" unicode="&#x113;" horiz-adv-x="519" 
d="M474 217c0 -19 -12 -39 -43 -39h-266c6 -52 39 -95 108 -95c38 0 69 11 92 29c14 11 26 20 44 20c30 0 48 -19 48 -44c0 -28 -22 -47 -43 -60c-33 -21 -77 -40 -146 -40c-150 0 -228 104 -228 229c0 132 95 229 226 229c125 0 208 -98 208 -229zM360 263
c-9 46 -41 87 -94 87c-55 0 -93 -36 -99 -87h193zM414 561c0 -20 -19 -39 -39 -39h-219c-20 0 -38 19 -38 39s18 38 38 38h219c20 0 39 -18 39 -38z" />
    <glyph glyph-name="Ebreve" unicode="&#x114;" horiz-adv-x="605" 
d="M575 56c0 -32 -26 -56 -58 -56h-375c-34 0 -62 27 -62 61v544c0 34 28 61 62 61h360c32 0 58 -24 58 -56s-26 -57 -58 -57h-300v-159h165c31 0 57 -25 57 -57s-26 -56 -57 -56h-165v-168h315c32 0 58 -25 58 -57zM473 830c0 -71 -55 -112 -146 -112s-145 40 -145 114
c0 20 17 34 36 35s40 -11 40 -38c0 -29 26 -44 69 -44s69 14 69 44c0 24 19 37 37 37c20 0 40 -12 40 -36z" />
    <glyph glyph-name="ebreve" unicode="&#x115;" horiz-adv-x="519" 
d="M474 217c0 -19 -12 -39 -43 -39h-266c6 -52 39 -95 108 -95c38 0 69 11 92 29c14 11 26 20 44 20c30 0 48 -19 48 -44c0 -28 -22 -47 -43 -60c-33 -21 -77 -40 -146 -40c-150 0 -228 104 -228 229c0 132 95 229 226 229c125 0 208 -98 208 -229zM360 263
c-9 46 -41 87 -94 87c-55 0 -93 -36 -99 -87h193zM409 609c0 -71 -47 -122 -138 -122s-137 50 -137 124c0 20 17 34 36 35s40 -11 40 -38c0 -29 17 -54 61 -54s61 24 61 54c0 24 19 37 37 37c20 0 40 -12 40 -36z" />
    <glyph glyph-name="Edotaccent" unicode="&#x116;" horiz-adv-x="605" 
d="M575 56c0 -32 -26 -56 -58 -56h-375c-34 0 -62 27 -62 61v544c0 34 28 61 62 61h360c32 0 58 -24 58 -56s-26 -57 -58 -57h-300v-159h165c31 0 57 -25 57 -57s-26 -56 -57 -56h-165v-168h315c32 0 58 -25 58 -57zM261 794c0 38 30 68 68 68s68 -30 68 -68
s-30 -68 -68 -68s-68 30 -68 68z" />
    <glyph glyph-name="edotaccent" unicode="&#x117;" horiz-adv-x="519" 
d="M474 217c0 -19 -12 -39 -43 -39h-266c6 -52 39 -95 108 -95c38 0 69 11 92 29c14 11 26 20 44 20c30 0 48 -19 48 -44c0 -28 -22 -47 -43 -60c-33 -21 -77 -40 -146 -40c-150 0 -228 104 -228 229c0 132 95 229 226 229c125 0 208 -98 208 -229zM360 263
c-9 46 -41 87 -94 87c-55 0 -93 -36 -99 -87h193zM200 573c0 38 30 68 68 68s68 -30 68 -68s-30 -68 -68 -68s-68 30 -68 68z" />
    <glyph glyph-name="Eogonek" unicode="&#x118;" horiz-adv-x="605" 
d="M545 -140c0 -28 -35 -45 -87 -45c-67 0 -96 32 -96 72c0 55 56 92 118 113h-338c-34 0 -62 27 -62 61v544c0 34 28 61 62 61h360c32 0 58 -24 58 -56s-26 -57 -58 -57h-300v-159h165c31 0 57 -25 57 -57s-26 -56 -57 -56h-165v-168h315c32 0 58 -25 58 -57
c0 -23 -10 -40 -29 -49c-53 -27 -94 -69 -94 -99c0 -14 6 -24 30 -24c16 0 24 5 37 5c16 0 26 -13 26 -29z" />
    <glyph glyph-name="eogonek" unicode="&#x119;" horiz-adv-x="519" 
d="M474 217c0 -19 -12 -39 -43 -39h-266c6 -52 39 -95 108 -95c38 0 69 11 92 29c14 11 26 20 44 20c30 0 48 -19 48 -44c0 -28 -22 -47 -43 -60c-7 -4 -13 -7 -21 -12c-50 -31 -102 -69 -102 -108c0 -14 6 -24 30 -24c16 0 24 5 37 5c16 0 26 -13 26 -29
c0 -28 -35 -45 -87 -45c-63 0 -96 24 -96 69c0 53 67 89 113 108c-15 -3 -32 -4 -46 -4c-150 0 -228 104 -228 229c0 132 95 229 226 229c125 0 208 -98 208 -229zM360 263c-9 46 -41 87 -94 87c-55 0 -93 -36 -99 -87h193z" />
    <glyph glyph-name="Ecaron" unicode="&#x11a;" horiz-adv-x="605" 
d="M575 56c0 -32 -26 -56 -58 -56h-375c-34 0 -62 27 -62 61v544c0 34 28 61 62 61h360c32 0 58 -24 58 -56s-26 -57 -58 -57h-300v-159h165c31 0 57 -25 57 -57s-26 -56 -57 -56h-165v-168h315c32 0 58 -25 58 -57zM451 800l-95 -73c-9 -7 -16 -11 -26 -11s-17 4 -26 11
l-95 73c-8 7 -14 15 -14 29c0 21 20 39 40 39c9 0 18 -3 26 -9l69 -53l69 53c8 6 17 9 26 9c20 0 40 -18 40 -39c0 -14 -6 -22 -14 -29z" />
    <glyph glyph-name="ecaron" unicode="&#x11b;" horiz-adv-x="519" 
d="M474 217c0 -19 -12 -39 -43 -39h-266c6 -52 39 -95 108 -95c38 0 69 11 92 29c14 11 26 20 44 20c30 0 48 -19 48 -44c0 -28 -22 -47 -43 -60c-33 -21 -77 -40 -146 -40c-150 0 -228 104 -228 229c0 132 95 229 226 229c125 0 208 -98 208 -229zM360 263
c-9 46 -41 87 -94 87c-55 0 -93 -36 -99 -87h193zM244 494l-102 88c-8 8 -12 19 -12 30c0 21 18 38 38 38c9 0 18 -3 26 -9l76 -66l77 66c8 6 17 9 26 9c20 0 39 -17 39 -38c0 -11 -3 -20 -13 -30l-102 -88c-8 -7 -17 -10 -27 -10s-18 3 -26 10z" />
    <glyph glyph-name="Gcircumflex" unicode="&#x11c;" horiz-adv-x="719" 
d="M669 147c0 -17 -4 -26 -14 -39c-65 -81 -173 -120 -273 -120c-213 0 -342 156 -342 345c0 202 146 345 340 345c78 0 166 -26 223 -85c12 -12 19 -25 19 -41c0 -30 -21 -56 -55 -56c-14 0 -27 5 -40 14c-38 29 -79 55 -147 55c-131 0 -217 -99 -217 -232
c0 -136 80 -238 219 -238c68 0 128 24 167 60v103h-130c-30 0 -56 24 -56 55c0 32 26 55 56 55h188c35 0 62 -28 62 -62v-159zM395 858l95 -73c8 -7 14 -15 14 -29c0 -21 -20 -39 -40 -39c-9 0 -18 3 -26 9l-69 53l-69 -53c-8 -6 -17 -9 -26 -9c-20 0 -40 18 -40 39
c0 14 6 22 14 29l95 73c9 7 16 11 26 11s17 -4 26 -11z" />
    <glyph glyph-name="gcircumflex" unicode="&#x11d;" horiz-adv-x="566" 
d="M496 27c0 -143 -76 -222 -239 -222c-60 0 -118 17 -157 37c-20 10 -32 28 -32 48c0 31 21 44 48 44c19 0 36 -8 58 -17c21 -8 47 -17 85 -17c87 0 117 39 117 120v57c-30 -49 -81 -71 -133 -71c-132 0 -203 102 -203 220s70 220 203 220c59 0 108 -27 137 -71v6
c0 34 23 61 58 61s58 -27 58 -60v-355zM160 226c0 -67 40 -118 109 -118c68 0 107 55 107 118s-38 118 -107 118s-109 -51 -109 -118zM268 649c8 7 16 10 26 10s19 -3 27 -10l100 -88c10 -10 13 -19 13 -30c0 -21 -19 -38 -39 -38c-9 0 -18 3 -26 9l-75 66l-74 -66
c-8 -6 -17 -9 -26 -9c-20 0 -38 17 -38 38c0 11 4 22 12 30z" />
    <glyph glyph-name="Gbreve" unicode="&#x11e;" horiz-adv-x="719" 
d="M669 147c0 -17 -4 -26 -14 -39c-65 -81 -173 -120 -273 -120c-213 0 -342 156 -342 345c0 202 146 345 340 345c78 0 166 -26 223 -85c12 -12 19 -25 19 -41c0 -30 -21 -56 -55 -56c-14 0 -27 5 -40 14c-38 29 -79 55 -147 55c-131 0 -217 -99 -217 -232
c0 -136 80 -238 219 -238c68 0 128 24 167 60v103h-130c-30 0 -56 24 -56 55c0 32 26 55 56 55h188c35 0 62 -28 62 -62v-159zM519 830c0 -71 -55 -112 -146 -112s-145 40 -145 114c0 20 17 34 36 35s40 -11 40 -38c0 -29 26 -44 69 -44s69 14 69 44c0 24 19 37 37 37
c20 0 40 -12 40 -36z" />
    <glyph glyph-name="gbreve" unicode="&#x11f;" horiz-adv-x="566" 
d="M496 27c0 -143 -76 -222 -239 -222c-60 0 -118 17 -157 37c-20 10 -32 28 -32 48c0 31 21 44 48 44c19 0 36 -8 58 -17c21 -8 47 -17 85 -17c87 0 117 39 117 120v57c-30 -49 -81 -71 -133 -71c-132 0 -203 102 -203 220s70 220 203 220c59 0 108 -27 137 -71v6
c0 34 23 61 58 61s58 -27 58 -60v-355zM160 226c0 -67 40 -118 109 -118c68 0 107 55 107 118s-38 118 -107 118s-109 -51 -109 -118zM433 609c0 -71 -47 -122 -138 -122s-137 50 -137 124c0 20 17 34 36 35s40 -11 40 -38c0 -29 17 -54 61 -54s61 24 61 54
c0 24 19 37 37 37c20 0 40 -12 40 -36z" />
    <glyph glyph-name="Gdotaccent" unicode="&#x120;" horiz-adv-x="719" 
d="M669 147c0 -17 -4 -26 -14 -39c-65 -81 -173 -120 -273 -120c-213 0 -342 156 -342 345c0 202 146 345 340 345c78 0 166 -26 223 -85c12 -12 19 -25 19 -41c0 -30 -21 -56 -55 -56c-14 0 -27 5 -40 14c-38 29 -79 55 -147 55c-131 0 -217 -99 -217 -232
c0 -136 80 -238 219 -238c68 0 128 24 167 60v103h-130c-30 0 -56 24 -56 55c0 32 26 55 56 55h188c35 0 62 -28 62 -62v-159zM304 794c0 38 30 68 68 68s68 -30 68 -68s-30 -68 -68 -68s-68 30 -68 68z" />
    <glyph glyph-name="gdotaccent" unicode="&#x121;" horiz-adv-x="566" 
d="M496 27c0 -143 -76 -222 -239 -222c-60 0 -118 17 -157 37c-20 10 -32 28 -32 48c0 31 21 44 48 44c19 0 36 -8 58 -17c21 -8 47 -17 85 -17c87 0 117 39 117 120v57c-30 -49 -81 -71 -133 -71c-132 0 -203 102 -203 220s70 220 203 220c59 0 108 -27 137 -71v6
c0 34 23 61 58 61s58 -27 58 -60v-355zM160 226c0 -67 40 -118 109 -118c68 0 107 55 107 118s-38 118 -107 118s-109 -51 -109 -118zM208 573c0 38 30 68 68 68s68 -30 68 -68s-30 -68 -68 -68s-68 30 -68 68z" />
    <glyph glyph-name="Gcommaaccent" unicode="&#x122;" horiz-adv-x="719" 
d="M669 147c0 -17 -4 -26 -14 -39c-65 -81 -173 -120 -273 -120c-213 0 -342 156 -342 345c0 202 146 345 340 345c78 0 166 -26 223 -85c12 -12 19 -25 19 -41c0 -30 -21 -56 -55 -56c-14 0 -27 5 -40 14c-38 29 -79 55 -147 55c-131 0 -217 -99 -217 -232
c0 -136 80 -238 219 -238c68 0 128 24 167 60v103h-130c-30 0 -56 24 -56 55c0 32 26 55 56 55h188c35 0 62 -28 62 -62v-159zM461 -131c0 -38 -10 -91 -24 -124c-9 -21 -23 -37 -52 -37c-36 0 -52 21 -52 42c0 15 5 25 9 38c9 32 13 54 13 85v11c0 32 19 56 53 56
s53 -23 53 -56v-15z" />
    <glyph glyph-name="gcommaaccent" unicode="&#x123;" horiz-adv-x="566" 
d="M214 576c0 47 11 84 25 117c9 21 21 42 52 42c38 0 50 -24 50 -45c0 -15 -4 -25 -9 -38c-8 -21 -16 -51 -16 -80v-11c0 -32 -17 -56 -51 -56s-51 23 -51 56v15zM496 27c0 -143 -76 -222 -239 -222c-60 0 -118 17 -157 37c-20 10 -32 28 -32 48c0 31 21 44 48 44
c19 0 36 -8 58 -17c21 -8 47 -17 85 -17c87 0 117 39 117 120v57c-30 -49 -81 -71 -133 -71c-132 0 -203 102 -203 220s70 220 203 220c59 0 108 -27 137 -71v6c0 34 23 61 58 61s58 -27 58 -60v-355zM160 226c0 -67 40 -118 109 -118c68 0 107 55 107 118s-38 118 -107 118
s-109 -51 -109 -118z" />
    <glyph glyph-name="Hcircumflex" unicode="&#x124;" horiz-adv-x="720" 
d="M640 54c0 -34 -27 -62 -61 -62s-61 28 -61 62v232h-316v-232c0 -34 -26 -62 -60 -62s-62 28 -62 62v558c0 34 28 62 62 62s60 -28 60 -62v-212h316v212c0 34 27 62 61 62s61 -28 61 -62v-558zM386 858l95 -73c8 -7 14 -15 14 -29c0 -21 -20 -39 -40 -39c-9 0 -18 3 -26 9
l-69 53l-69 -53c-8 -6 -17 -9 -26 -9c-20 0 -40 18 -40 39c0 14 6 22 14 29l95 73c9 7 16 11 26 11s17 -4 26 -11z" />
    <glyph glyph-name="hcircumflex" unicode="&#x125;" horiz-adv-x="560" 
d="M190 373c24 44 67 73 129 73c112 0 176 -86 176 -206v-188c0 -33 -27 -60 -60 -60s-60 27 -60 60v182c0 58 -29 104 -91 104c-67 0 -94 -51 -94 -104v-182c0 -33 -27 -60 -60 -60s-60 27 -60 60v562c0 33 27 60 60 60s60 -27 60 -60v-241zM156 858l95 -73
c8 -7 14 -15 14 -29c0 -21 -20 -39 -40 -39c-9 0 -18 3 -26 9l-69 53l-69 -53c-8 -6 -17 -9 -26 -9c-20 0 -40 18 -40 39c0 14 6 22 14 29l95 73c9 7 16 11 26 11s17 -4 26 -11z" />
    <glyph glyph-name="Hbar" unicode="&#x126;" horiz-adv-x="772" 
d="M61 483c-23 0 -41 14 -41 37s18 37 41 37h45v55c0 34 28 62 62 62s60 -28 60 -62v-55h316v55c0 34 27 62 61 62s61 -28 61 -62v-55h45c23 0 41 -14 41 -37s-18 -37 -41 -37h-45v-429c0 -34 -27 -62 -61 -62s-61 28 -61 62v232h-316v-232c0 -34 -26 -62 -60 -62
s-62 28 -62 62v429h-45zM228 400h316v83h-316v-83z" />
    <glyph glyph-name="hbar" unicode="&#x127;" horiz-adv-x="591" 
d="M56 494c-23 0 -41 16 -41 39s18 39 41 39h45v42c0 33 27 60 60 60s60 -27 60 -60v-42h99c23 0 41 -16 41 -39s-18 -39 -41 -39h-99v-121c24 44 67 73 129 73c112 0 176 -86 176 -206v-188c0 -33 -27 -60 -60 -60s-60 27 -60 60v182c0 58 -29 104 -91 104
c-67 0 -94 -51 -94 -104v-182c0 -33 -27 -60 -60 -60s-60 27 -60 60v442h-45z" />
    <glyph glyph-name="Itilde" unicode="&#x128;" horiz-adv-x="292" 
d="M207 54c0 -34 -26 -62 -60 -62s-62 28 -62 62v558c0 34 28 62 62 62s60 -28 60 -62v-558zM304 810c0 -40 -47 -70 -91 -70c-39 0 -71 32 -104 32c-37 0 -42 -32 -70 -32c-21 0 -39 16 -39 37c0 40 51 74 101 74c43 0 73 -30 104 -30c27 0 41 26 62 26c19 0 37 -14 37 -37
z" />
    <glyph glyph-name="itilde" unicode="&#x129;" horiz-adv-x="260" 
d="M70 52v330c0 33 27 60 60 60s60 -27 60 -60v-330c0 -33 -27 -60 -60 -60s-60 27 -60 60zM287 569c0 -40 -47 -70 -91 -70c-39 0 -71 32 -104 32c-37 0 -42 -32 -70 -32c-21 0 -39 16 -39 37c0 40 51 74 101 74c43 0 73 -30 104 -30c27 0 41 26 62 26c19 0 37 -14 37 -37z
" />
    <glyph glyph-name="Imacron" unicode="&#x12a;" horiz-adv-x="292" 
d="M207 54c0 -34 -26 -62 -60 -62s-62 28 -62 62v558c0 34 28 62 62 62s60 -28 60 -62v-558zM263 743h-233c-22 0 -41 17 -41 41s19 41 41 41h233c22 0 41 -17 41 -41s-19 -41 -41 -41z" />
    <glyph glyph-name="imacron" unicode="&#x12b;" horiz-adv-x="260" 
d="M70 52v330c0 33 27 60 60 60s60 -27 60 -60v-330c0 -33 -27 -60 -60 -60s-60 27 -60 60zM278 561c0 -20 -19 -39 -39 -39h-219c-20 0 -38 19 -38 39s18 38 38 38h219c20 0 39 -18 39 -38z" />
    <glyph glyph-name="Ibreve" unicode="&#x12c;" horiz-adv-x="292" 
d="M207 54c0 -34 -26 -62 -60 -62s-62 28 -62 62v558c0 34 28 62 62 62s60 -28 60 -62v-558zM292 830c0 -71 -55 -112 -146 -112s-145 40 -145 114c0 20 17 34 36 35s40 -11 40 -38c0 -29 26 -44 69 -44s69 14 69 44c0 24 19 37 37 37c20 0 40 -12 40 -36z" />
    <glyph glyph-name="ibreve" unicode="&#x12d;" horiz-adv-x="260" 
d="M70 52v330c0 33 27 60 60 60s60 -27 60 -60v-330c0 -33 -27 -60 -60 -60s-60 27 -60 60zM268 609c0 -71 -47 -122 -138 -122s-137 50 -137 124c0 20 17 34 36 35s40 -11 40 -38c0 -29 17 -54 61 -54s61 24 61 54c0 24 19 37 37 37c20 0 40 -12 40 -36z" />
    <glyph glyph-name="Iogonek" unicode="&#x12e;" horiz-adv-x="292" 
d="M226 -142c0 -28 -25 -43 -77 -43c-67 0 -96 32 -96 72c0 56 50 91 92 105c-33 1 -60 28 -60 62v558c0 34 28 62 62 62s60 -28 60 -62v-558c0 -20 -7 -31 -15 -42c-37 -48 -49 -75 -49 -104c0 -14 6 -24 30 -24c11 0 20 3 27 3c16 0 26 -13 26 -29z" />
    <glyph glyph-name="iogonek" unicode="&#x12f;" horiz-adv-x="260" 
d="M209 -142c0 -28 -25 -43 -77 -43c-67 0 -96 32 -96 72c0 49 50 90 90 105c-31 2 -56 28 -56 60v330c0 33 27 60 60 60s60 -27 60 -60v-326c0 -21 -8 -35 -18 -47c-33 -39 -46 -72 -46 -101c0 -14 6 -24 30 -24c11 0 20 3 27 3c16 0 26 -13 26 -29zM62 573
c0 38 30 68 68 68s68 -30 68 -68s-30 -68 -68 -68s-68 30 -68 68z" />
    <glyph glyph-name="Idotaccent" unicode="&#x130;" horiz-adv-x="292" 
d="M207 54c0 -34 -26 -62 -60 -62s-62 28 -62 62v558c0 34 28 62 62 62s60 -28 60 -62v-558zM78 794c0 38 30 68 68 68s68 -30 68 -68s-30 -68 -68 -68s-68 30 -68 68z" />
    <glyph glyph-name="dotlessi" unicode="&#x131;" horiz-adv-x="260" 
d="M70 52v330c0 33 27 60 60 60s60 -27 60 -60v-330c0 -33 -27 -60 -60 -60s-60 27 -60 60z" />
    <glyph glyph-name="IJ" unicode="&#x132;" horiz-adv-x="901" 
d="M207 54c0 -34 -26 -62 -60 -62s-62 28 -62 62v558c0 34 28 62 62 62s60 -28 60 -62v-558zM826 262c0 -159 -85 -274 -261 -274c-124 0 -230 81 -252 199c-1 4 -1 12 -1 14c0 34 23 58 59 58c33 0 51 -19 59 -48c18 -66 58 -114 135 -114c99 0 139 65 139 159v356
c0 34 28 62 61 62c34 0 61 -29 61 -62v-350z" />
    <glyph glyph-name="ij" unicode="&#x133;" horiz-adv-x="524" 
d="M62 573c0 38 30 68 68 68s68 -30 68 -68s-30 -68 -68 -68s-68 30 -68 68zM70 52v330c0 33 27 60 60 60s60 -27 60 -60v-330c0 -33 -27 -60 -60 -60s-60 27 -60 60zM453 382v-407c0 -107 -49 -170 -173 -170h-14c-28 0 -50 22 -50 50s22 50 50 50h2c49 0 65 25 65 65v412
c0 33 28 60 61 60s59 -27 59 -60zM326 573c0 38 30 68 68 68s68 -30 68 -68s-30 -68 -68 -68s-68 30 -68 68z" />
    <glyph glyph-name="Jcircumflex" unicode="&#x134;" horiz-adv-x="609" 
d="M534 262c0 -159 -85 -274 -261 -274c-124 0 -230 81 -252 199c-1 4 -1 12 -1 14c0 34 23 58 59 58c33 0 51 -19 59 -48c18 -66 58 -114 135 -114c99 0 139 65 139 159v356c0 34 28 62 61 62c34 0 61 -29 61 -62v-350zM498 858l95 -73c8 -7 14 -15 14 -29
c0 -21 -20 -39 -40 -39c-9 0 -18 3 -26 9l-69 53l-69 -53c-8 -6 -17 -9 -26 -9c-20 0 -40 18 -40 39c0 14 6 22 14 29l95 73c9 7 16 11 26 11s17 -4 26 -11z" />
    <glyph glyph-name="jcircumflex" unicode="&#x135;" horiz-adv-x="264" 
d="M194 382v-408c0 -107 -50 -170 -174 -170h-14c-28 0 -50 22 -50 50s22 50 50 50h2c49 0 65 25 65 65v413c0 33 28 60 61 60s60 -27 60 -60zM107 649c8 7 16 10 26 10s19 -3 27 -10l100 -88c10 -10 13 -19 13 -30c0 -21 -19 -38 -39 -38c-9 0 -18 3 -26 9l-75 66l-74 -66
c-8 -6 -17 -9 -26 -9c-20 0 -38 17 -38 38c0 11 4 22 12 30z" />
    <glyph glyph-name="Kcommaaccent" unicode="&#x136;" horiz-adv-x="665" 
d="M202 54c0 -34 -26 -62 -60 -62s-62 28 -62 62v558c0 34 28 62 62 62s60 -28 60 -62v-245l301 291c11 11 25 16 40 16c30 0 59 -24 59 -56c0 -19 -6 -33 -18 -44l-174 -168l203 -324c7 -10 10 -23 10 -34c0 -27 -19 -56 -56 -56c-23 0 -41 9 -51 25l-191 307l-123 -119
v-151zM406 -131c0 -38 -10 -91 -24 -124c-9 -21 -23 -37 -52 -37c-36 0 -52 21 -52 42c0 15 5 25 9 38c9 32 13 54 13 85v11c0 32 19 56 53 56s53 -23 53 -56v-15z" />
    <glyph glyph-name="kcommaaccent" unicode="&#x137;" horiz-adv-x="506" 
d="M460 80c7 -9 10 -20 10 -31c0 -31 -21 -57 -56 -57c-17 0 -31 9 -41 23l-132 178l-51 -40v-101c0 -33 -27 -60 -60 -60s-60 27 -60 60v561c0 33 27 61 60 61s60 -28 60 -61v-324l183 141c10 8 22 12 34 12c34 0 57 -25 57 -56c0 -16 -12 -29 -26 -40l-111 -86zM323 -131
c0 -38 -10 -91 -24 -124c-9 -21 -23 -37 -52 -37c-36 0 -52 21 -52 42c0 15 5 25 9 38c9 32 13 54 13 85v11c0 32 19 56 53 56s53 -23 53 -56v-15z" />
    <glyph glyph-name="kgreenlandic" unicode="&#x138;" horiz-adv-x="510" 
d="M463 80c7 -9 11 -21 11 -32c0 -30 -22 -56 -57 -56c-19 0 -30 9 -41 23l-133 169l-53 -41v-91c0 -33 -27 -60 -60 -60s-60 27 -60 60v329c0 33 27 61 60 61s60 -28 60 -61v-102l183 150c10 8 23 13 35 13c34 0 56 -23 56 -54c0 -21 -14 -33 -28 -45l-109 -93z" />
    <glyph glyph-name="Lacute" unicode="&#x139;" horiz-adv-x="574" 
d="M494 0h-352c-34 0 -62 28 -62 62v550c0 34 28 62 62 62s60 -28 60 -62v-497h292c31 0 57 -25 57 -57s-26 -57 -57 -58zM194 879c26 0 46 -18 46 -47c0 -10 -5 -21 -11 -29l-45 -61c-9 -12 -19 -19 -39 -19c-23 0 -48 21 -48 46c0 12 5 22 12 30l47 61c9 12 20 19 38 19z
" />
    <glyph glyph-name="lacute" unicode="&#x13a;" horiz-adv-x="260" 
d="M70 52v562c0 33 27 60 60 60s60 -27 60 -60v-562c0 -33 -27 -60 -60 -60s-60 27 -60 60zM172 879c26 0 46 -18 46 -47c0 -10 -5 -21 -11 -29l-45 -61c-9 -12 -19 -19 -39 -19c-23 0 -48 21 -48 46c0 12 5 22 12 30l47 61c9 12 20 19 38 19z" />
    <glyph glyph-name="Lcommaaccent" unicode="&#x13b;" horiz-adv-x="574" 
d="M494 0h-352c-34 0 -62 28 -62 62v550c0 34 28 62 62 62s60 -28 60 -62v-497h292c31 0 57 -25 57 -57s-26 -57 -57 -58zM373 -131c0 -38 -10 -91 -24 -124c-9 -21 -23 -37 -52 -37c-36 0 -52 21 -52 42c0 15 5 25 9 38c9 32 13 54 13 85v11c0 32 19 56 53 56
s53 -23 53 -56v-15z" />
    <glyph glyph-name="lcommaaccent" unicode="&#x13c;" horiz-adv-x="260" 
d="M70 52v562c0 33 27 60 60 60s60 -27 60 -60v-562c0 -33 -27 -60 -60 -60s-60 27 -60 60zM180 -131c0 -38 -10 -91 -24 -124c-9 -21 -23 -37 -52 -37c-36 0 -52 21 -52 42c0 15 5 25 9 38c9 32 13 54 13 85v11c0 32 19 56 53 56s53 -23 53 -56v-15z" />
    <glyph glyph-name="Lcaron" unicode="&#x13d;" horiz-adv-x="574" 
d="M494 0h-352c-34 0 -62 28 -62 62v550c0 34 28 62 62 62s60 -28 60 -62v-497h292c31 0 57 -25 57 -57s-26 -57 -57 -58zM465 593c0 -38 -10 -93 -24 -126c-9 -21 -23 -37 -52 -37c-36 0 -52 21 -52 42c0 15 5 25 9 38c10 35 13 56 13 87v21c0 32 19 56 53 56
s53 -23 53 -56v-25z" />
    <glyph glyph-name="lcaron" unicode="&#x13e;" horiz-adv-x="427" 
d="M70 52v562c0 33 27 60 60 60s60 -27 60 -60v-562c0 -33 -27 -60 -60 -60s-60 27 -60 60zM422 593c0 -38 -10 -93 -24 -126c-9 -21 -23 -37 -52 -37c-36 0 -52 21 -52 42c0 15 5 25 9 38c10 35 13 56 13 87v21c0 32 19 56 53 56s53 -23 53 -56v-25z" />
    <glyph glyph-name="Ldot" unicode="&#x13f;" horiz-adv-x="574" 
d="M494 0h-352c-34 0 -62 28 -62 62v550c0 34 28 62 62 62s60 -28 60 -62v-497h292c31 0 57 -25 57 -57s-26 -57 -57 -58zM437 345c0 -38 -31 -69 -69 -69s-68 31 -68 69s30 68 68 68s69 -30 69 -68z" />
    <glyph glyph-name="ldot" unicode="&#x140;" horiz-adv-x="437" 
d="M407 255c0 -38 -31 -69 -69 -69s-68 31 -68 69s30 68 68 68s69 -30 69 -68zM70 52v562c0 33 27 60 60 60s60 -27 60 -60v-562c0 -33 -27 -60 -60 -60s-60 27 -60 60z" />
    <glyph glyph-name="Lslash" unicode="&#x141;" horiz-adv-x="638" 
d="M404 434c29 0 52 -21 52 -52c0 -21 -11 -41 -36 -49l-172 -56v-162h310c31 0 57 -25 57 -57s-26 -58 -57 -58h-370c-34 0 -62 28 -62 62v174l-43 -14c-5 -2 -11 -3 -16 -3c-28 0 -52 24 -52 53c0 24 14 42 35 49l76 25v266c0 34 28 62 62 62s60 -28 60 -62v-226l139 45
c6 2 12 3 17 3z" />
    <glyph glyph-name="lslash" unicode="&#x142;" horiz-adv-x="385" 
d="M247 52c0 -33 -27 -60 -60 -60s-60 27 -60 60v214l-34 -11c-5 -2 -11 -3 -16 -3c-31 0 -52 24 -52 53c0 24 14 42 35 49l67 21v238c0 33 25 61 60 61s60 -28 60 -61v-198l49 16c6 2 11 3 17 3c31 0 52 -23 52 -52c0 -24 -14 -42 -36 -49l-82 -27v-254z" />
    <glyph glyph-name="Nacute" unicode="&#x143;" horiz-adv-x="722" 
d="M642 49c0 -31 -24 -57 -58 -57c-19 0 -33 7 -44 21l-345 436v-400c0 -32 -26 -57 -58 -57c-31 0 -57 26 -57 57v567c0 31 23 58 60 58c16 0 33 -9 42 -21l345 -436v399c0 31 23 58 57 58s58 -27 58 -58v-567zM410 879c26 0 46 -18 46 -47c0 -10 -5 -21 -11 -29l-45 -61
c-9 -12 -19 -19 -39 -19c-23 0 -48 21 -48 46c0 12 5 22 12 30l47 61c9 12 20 19 38 19z" />
    <glyph glyph-name="nacute" unicode="&#x144;" horiz-adv-x="560" 
d="M375 234c0 58 -29 104 -91 104c-67 0 -94 -51 -94 -104v-182c0 -33 -27 -60 -60 -60s-60 27 -60 60v329c0 38 26 61 60 61s60 -23 60 -61v-8c24 44 67 73 129 73c112 0 176 -86 176 -206v-188c0 -33 -27 -60 -60 -60s-60 27 -60 60v182zM336 666c26 0 46 -18 46 -47
c0 -10 -5 -21 -11 -29l-58 -78c-9 -12 -19 -19 -39 -19c-23 0 -48 21 -48 46c0 12 5 22 12 30l60 78c9 12 20 19 38 19z" />
    <glyph glyph-name="Ncommaaccent" unicode="&#x145;" horiz-adv-x="722" 
d="M642 49c0 -31 -24 -57 -58 -57c-19 0 -33 7 -44 21l-345 436v-400c0 -32 -26 -57 -58 -57c-31 0 -57 26 -57 57v567c0 31 23 58 60 58c16 0 33 -9 42 -21l345 -436v399c0 31 23 58 57 58s58 -27 58 -58v-567zM420 -131c0 -38 -10 -91 -24 -124c-9 -21 -23 -37 -52 -37
c-36 0 -52 21 -52 42c0 15 5 25 9 38c9 32 13 54 13 85v11c0 32 19 56 53 56s53 -23 53 -56v-15z" />
    <glyph glyph-name="ncommaaccent" unicode="&#x146;" horiz-adv-x="560" 
d="M375 234c0 58 -29 104 -91 104c-67 0 -94 -51 -94 -104v-182c0 -33 -27 -60 -60 -60s-60 27 -60 60v329c0 38 26 61 60 61s60 -23 60 -61v-8c24 44 67 73 129 73c112 0 176 -86 176 -206v-188c0 -33 -27 -60 -60 -60s-60 27 -60 60v182zM337 -131c0 -38 -10 -91 -24 -124
c-9 -21 -23 -37 -52 -37c-36 0 -52 21 -52 42c0 15 5 25 9 38c9 32 13 54 13 85v11c0 32 19 56 53 56s53 -23 53 -56v-15z" />
    <glyph glyph-name="Ncaron" unicode="&#x147;" horiz-adv-x="722" 
d="M642 49c0 -31 -24 -57 -58 -57c-19 0 -33 7 -44 21l-345 436v-400c0 -32 -26 -57 -58 -57c-31 0 -57 26 -57 57v567c0 31 23 58 60 58c16 0 33 -9 42 -21l345 -436v399c0 31 23 58 57 58s58 -27 58 -58v-567zM487 800l-95 -73c-9 -7 -16 -11 -26 -11s-17 4 -26 11l-95 73
c-8 7 -14 15 -14 29c0 21 20 39 40 39c9 0 18 -3 26 -9l69 -53l69 53c8 6 17 9 26 9c20 0 40 -18 40 -39c0 -14 -6 -22 -14 -29z" />
    <glyph glyph-name="ncaron" unicode="&#x148;" horiz-adv-x="560" 
d="M375 234c0 58 -29 104 -91 104c-67 0 -94 -51 -94 -104v-182c0 -33 -27 -60 -60 -60s-60 27 -60 60v329c0 38 26 61 60 61s60 -23 60 -61v-8c24 44 67 73 129 73c112 0 176 -86 176 -206v-188c0 -33 -27 -60 -60 -60s-60 27 -60 60v182zM262 494l-102 88
c-8 8 -12 19 -12 30c0 21 18 38 38 38c9 0 18 -3 26 -9l76 -66l77 66c8 6 17 9 26 9c20 0 39 -17 39 -38c0 -11 -3 -20 -13 -30l-102 -88c-8 -7 -17 -10 -27 -10s-18 3 -26 10z" />
    <glyph glyph-name="napostrophe" unicode="&#x149;" horiz-adv-x="681" 
d="M496 234c0 58 -29 104 -91 104c-67 0 -94 -51 -94 -104v-182c0 -33 -27 -60 -60 -60s-60 27 -60 60v329c0 38 26 61 60 61s60 -23 60 -61v-8c24 44 67 73 129 73c112 0 176 -86 176 -206v-188c0 -33 -27 -60 -60 -60s-60 27 -60 60v182zM130 553c0 -38 -8 -80 -19 -111
c-8 -21 -21 -41 -50 -41c-33 0 -51 22 -51 47c0 15 6 25 9 38c7 28 8 40 8 71v61c0 32 19 56 53 56s50 -23 50 -56v-65z" />
    <glyph glyph-name="Eng" unicode="&#x14a;" horiz-adv-x="722" 
d="M642 87c-2 -79 -14 -148 -71 -204c-34 -34 -81 -78 -125 -78c-30 0 -50 25 -50 55c0 21 13 34 30 44c46 27 95 70 96 129l-327 416v-400c0 -32 -26 -57 -58 -57c-31 0 -57 26 -57 57v567c0 31 23 58 60 58c16 0 33 -9 42 -21l345 -436v399c0 31 23 58 57 58
s58 -27 58 -58v-529z" />
    <glyph glyph-name="eng" unicode="&#x14b;" horiz-adv-x="560" 
d="M375 234c0 58 -29 104 -91 104c-67 0 -94 -51 -94 -104v-182c0 -33 -27 -60 -60 -60s-60 27 -60 60v329c0 38 26 61 60 61s60 -23 60 -61v-8c24 44 67 73 129 73c112 0 176 -86 176 -206v-162c0 -71 -13 -131 -40 -176s-77 -97 -121 -97c-30 0 -50 25 -50 55
c0 21 15 31 30 44c50 45 61 83 61 158v172z" />
    <glyph glyph-name="Omacron" unicode="&#x14c;" horiz-adv-x="774" 
d="M729 333c0 -193 -146 -345 -342 -345s-342 152 -342 345s146 345 342 345s342 -152 342 -345zM606 333c0 127 -83 235 -219 235s-219 -108 -219 -235s83 -235 219 -235s219 108 219 235zM504 743h-233c-22 0 -41 17 -41 41s19 41 41 41h233c22 0 41 -17 41 -41
s-19 -41 -41 -41z" />
    <glyph glyph-name="omacron" unicode="&#x14d;" horiz-adv-x="542" 
d="M500 217c0 -126 -94 -229 -229 -229s-229 103 -229 229s94 229 229 229s229 -103 229 -229zM382 217c0 67 -42 125 -111 125s-111 -58 -111 -125s42 -125 111 -125s111 58 111 125zM419 561c0 -20 -19 -39 -39 -39h-219c-20 0 -38 19 -38 39s18 38 38 38h219
c20 0 39 -18 39 -38z" />
    <glyph glyph-name="Obreve" unicode="&#x14e;" horiz-adv-x="774" 
d="M729 333c0 -193 -146 -345 -342 -345s-342 152 -342 345s146 345 342 345s342 -152 342 -345zM606 333c0 127 -83 235 -219 235s-219 -108 -219 -235s83 -235 219 -235s219 108 219 235zM533 830c0 -71 -55 -112 -146 -112s-145 40 -145 114c0 20 17 34 36 35
s40 -11 40 -38c0 -29 26 -44 69 -44s69 14 69 44c0 24 19 37 37 37c20 0 40 -12 40 -36z" />
    <glyph glyph-name="obreve" unicode="&#x14f;" horiz-adv-x="542" 
d="M500 217c0 -126 -94 -229 -229 -229s-229 103 -229 229s94 229 229 229s229 -103 229 -229zM382 217c0 67 -42 125 -111 125s-111 -58 -111 -125s42 -125 111 -125s111 58 111 125zM409 609c0 -71 -47 -122 -138 -122s-137 50 -137 124c0 20 17 34 36 35s40 -11 40 -38
c0 -29 17 -54 61 -54s61 24 61 54c0 24 19 37 37 37c20 0 40 -12 40 -36z" />
    <glyph glyph-name="Ohungarumlaut" unicode="&#x150;" horiz-adv-x="774" 
d="M729 333c0 -193 -146 -345 -342 -345s-342 152 -342 345s146 345 342 345s342 -152 342 -345zM606 333c0 127 -83 235 -219 235s-219 -108 -219 -235s83 -235 219 -235s219 108 219 235zM250 758c0 10 3 20 10 29l44 61c9 13 23 19 39 19c25 0 47 -20 47 -47
c0 -9 -3 -18 -9 -27l-45 -60c-9 -11 -21 -20 -36 -20c-29 0 -50 18 -50 45zM446 758c0 10 3 20 10 29l44 61c9 13 23 19 39 19c25 0 47 -20 47 -47c0 -9 -3 -18 -9 -27l-45 -60c-9 -11 -21 -20 -36 -20c-29 0 -50 18 -50 45z" />
    <glyph glyph-name="ohungarumlaut" unicode="&#x151;" horiz-adv-x="542" 
d="M500 217c0 -126 -94 -229 -229 -229s-229 103 -229 229s94 229 229 229s229 -103 229 -229zM382 217c0 67 -42 125 -111 125s-111 -58 -111 -125s42 -125 111 -125s111 58 111 125zM256 663c25 0 44 -17 44 -45c0 -10 -5 -20 -11 -28l-58 -79c-9 -11 -19 -18 -38 -18
c-22 0 -46 20 -46 44c0 12 5 21 12 29l60 79c9 12 19 18 37 18zM436 663c25 0 44 -17 44 -45c0 -10 -5 -20 -11 -28l-58 -79c-9 -11 -19 -18 -38 -18c-22 0 -46 20 -46 44c0 12 5 21 12 29l60 79c9 12 19 18 37 18z" />
    <glyph glyph-name="OE" unicode="&#x152;" horiz-adv-x="1131" 
d="M1101 57c0 -32 -26 -57 -58 -57h-375c-34 0 -62 28 -62 62v23c-46 -58 -134 -97 -219 -97c-196 0 -342 152 -342 345s146 345 342 345c85 0 168 -35 219 -97v24c0 34 28 61 62 61h360c32 0 58 -25 58 -57s-26 -58 -58 -58h-300v-156h165c31 0 57 -26 57 -58
s-26 -57 -57 -57h-165v-165h315c32 0 58 -26 58 -58zM606 333c0 127 -83 235 -219 235s-219 -108 -219 -235s83 -235 219 -235s219 108 219 235z" />
    <glyph glyph-name="oe" unicode="&#x153;" horiz-adv-x="861" 
d="M816 217c0 -19 -12 -39 -43 -39h-266c6 -52 39 -95 108 -95c38 0 69 11 92 29c14 11 26 20 44 20c30 0 48 -19 48 -44c0 -28 -22 -47 -43 -60c-33 -21 -77 -40 -146 -40c-76 0 -134 27 -172 69c-41 -43 -99 -69 -167 -69c-135 0 -229 103 -229 229s94 229 229 229
c69 0 128 -27 169 -71c40 44 99 71 168 71c125 0 208 -98 208 -229zM382 217c0 67 -42 125 -111 125s-111 -58 -111 -125s42 -125 111 -125s111 58 111 125zM702 263c-9 46 -41 87 -94 87c-55 0 -93 -36 -99 -87h193z" />
    <glyph glyph-name="Racute" unicode="&#x154;" horiz-adv-x="691" 
d="M628 79c4 -8 7 -17 7 -26c0 -31 -24 -61 -61 -61c-27 0 -44 12 -54 33l-117 241h-201v-213c0 -34 -27 -61 -61 -61s-61 27 -61 61v552c0 34 27 61 61 61h257c166 0 237 -82 237 -200c0 -78 -34 -145 -110 -178zM512 465c0 44 -30 89 -97 89h-213v-183h213
c67 0 97 49 97 94zM382 879c26 0 46 -18 46 -47c0 -10 -5 -21 -11 -29l-45 -61c-9 -12 -19 -19 -39 -19c-23 0 -48 21 -48 46c0 12 5 22 12 30l47 61c9 12 20 19 38 19z" />
    <glyph glyph-name="racute" unicode="&#x155;" horiz-adv-x="372" 
d="M362 392c0 -30 -22 -54 -54 -54c-71 0 -117 -49 -117 -130v-156c0 -33 -27 -60 -60 -60s-61 27 -61 60v329c0 36 25 61 61 61c33 0 60 -28 60 -61v-11c21 48 59 76 117 76c35 0 54 -24 54 -54zM270 666c26 0 46 -18 46 -47c0 -10 -5 -21 -11 -29l-58 -78
c-9 -12 -19 -19 -39 -19c-23 0 -48 21 -48 46c0 12 5 22 12 30l60 78c9 12 20 19 38 19z" />
    <glyph glyph-name="Rcommaaccent" unicode="&#x156;" horiz-adv-x="691" 
d="M628 79c4 -8 7 -17 7 -26c0 -31 -24 -61 -61 -61c-27 0 -44 12 -54 33l-117 241h-201v-213c0 -34 -27 -61 -61 -61s-61 27 -61 61v552c0 34 27 61 61 61h257c166 0 237 -82 237 -200c0 -78 -34 -145 -110 -178zM512 465c0 44 -30 89 -97 89h-213v-183h213
c67 0 97 49 97 94zM409 -131c0 -38 -10 -91 -24 -124c-9 -21 -23 -37 -52 -37c-36 0 -52 21 -52 42c0 15 5 25 9 38c9 32 13 54 13 85v11c0 32 19 56 53 56s53 -23 53 -56v-15z" />
    <glyph glyph-name="rcommaaccent" unicode="&#x157;" horiz-adv-x="372" 
d="M362 392c0 -30 -22 -54 -54 -54c-71 0 -117 -49 -117 -130v-156c0 -33 -27 -60 -60 -60s-61 27 -61 60v329c0 36 25 61 61 61c33 0 60 -28 60 -61v-11c21 48 59 76 117 76c35 0 54 -24 54 -54zM183 -131c0 -38 -10 -91 -24 -124c-9 -21 -23 -37 -52 -37
c-36 0 -52 21 -52 42c0 15 5 25 9 38c9 32 13 54 13 85v11c0 32 19 56 53 56s53 -23 53 -56v-15z" />
    <glyph glyph-name="Rcaron" unicode="&#x158;" horiz-adv-x="691" 
d="M628 79c4 -8 7 -17 7 -26c0 -31 -24 -61 -61 -61c-27 0 -44 12 -54 33l-117 241h-201v-213c0 -34 -27 -61 -61 -61s-61 27 -61 61v552c0 34 27 61 61 61h257c166 0 237 -82 237 -200c0 -78 -34 -145 -110 -178zM512 465c0 44 -30 89 -97 89h-213v-183h213
c67 0 97 49 97 94zM463 800l-95 -73c-9 -7 -16 -11 -26 -11s-17 4 -26 11l-95 73c-8 7 -14 15 -14 29c0 21 20 39 40 39c9 0 18 -3 26 -9l69 -53l69 53c8 6 17 9 26 9c20 0 40 -18 40 -39c0 -14 -6 -22 -14 -29z" />
    <glyph glyph-name="rcaron" unicode="&#x159;" horiz-adv-x="372" 
d="M362 392c0 -30 -22 -54 -54 -54c-71 0 -117 -49 -117 -130v-156c0 -33 -27 -60 -60 -60s-61 27 -61 60v329c0 36 25 61 61 61c33 0 60 -28 60 -61v-11c21 48 59 76 117 76c35 0 54 -24 54 -54zM180 494l-102 88c-8 8 -12 19 -12 30c0 21 18 38 38 38c9 0 18 -3 26 -9
l76 -66l77 66c8 6 17 9 26 9c20 0 39 -17 39 -38c0 -11 -3 -20 -13 -30l-102 -88c-8 -7 -17 -10 -27 -10s-18 3 -26 10z" />
    <glyph glyph-name="Sacute" unicode="&#x15a;" horiz-adv-x="624" 
d="M578 186c0 -116 -88 -198 -258 -198c-81 0 -173 25 -231 70c-20 16 -34 36 -34 58c0 31 20 52 51 52c11 0 21 -3 31 -9c54 -34 91 -64 185 -64c96 0 134 39 134 84c0 49 -39 74 -159 106c-181 48 -235 106 -235 206c0 122 105 187 264 187c36 0 85 -6 128 -18
c46 -13 104 -42 104 -82c0 -27 -16 -55 -50 -55c-8 0 -16 1 -24 5c-46 21 -94 42 -157 42c-89 0 -143 -24 -143 -76c0 -49 40 -66 160 -101c137 -40 234 -79 234 -207zM364 879c26 0 46 -18 46 -47c0 -10 -5 -21 -11 -29l-45 -61c-9 -12 -19 -19 -39 -19
c-23 0 -48 21 -48 46c0 12 5 22 12 30l47 61c9 12 20 19 38 19z" />
    <glyph glyph-name="sacute" unicode="&#x15b;" horiz-adv-x="459" 
d="M408 359c0 -25 -13 -44 -46 -44c-16 0 -34 11 -53 19c-27 11 -49 16 -74 16c-37 0 -62 -9 -62 -33c0 -25 19 -34 83 -51c95 -26 163 -55 163 -144c0 -80 -67 -134 -180 -134c-62 0 -120 17 -158 45c-19 14 -26 32 -26 51c0 23 20 39 44 39c20 0 33 -8 47 -17
c21 -13 54 -30 96 -30c38 0 63 13 63 36c0 24 -23 34 -82 50c-127 34 -164 84 -164 154c0 73 61 130 179 130c38 0 75 -7 109 -23c35 -16 61 -37 61 -64zM286 666c26 0 46 -18 46 -47c0 -10 -5 -21 -11 -29l-58 -78c-9 -12 -19 -19 -39 -19c-23 0 -48 21 -48 46
c0 12 5 22 12 30l60 78c9 12 20 19 38 19z" />
    <glyph glyph-name="Scircumflex" unicode="&#x15c;" horiz-adv-x="624" 
d="M578 186c0 -116 -88 -198 -258 -198c-81 0 -173 25 -231 70c-20 16 -34 36 -34 58c0 31 20 52 51 52c11 0 21 -3 31 -9c54 -34 91 -64 185 -64c96 0 134 39 134 84c0 49 -39 74 -159 106c-181 48 -235 106 -235 206c0 122 105 187 264 187c36 0 85 -6 128 -18
c46 -13 104 -42 104 -82c0 -27 -16 -55 -50 -55c-8 0 -16 1 -24 5c-46 21 -94 42 -157 42c-89 0 -143 -24 -143 -76c0 -49 40 -66 160 -101c137 -40 234 -79 234 -207zM352 858l95 -73c8 -7 14 -15 14 -29c0 -21 -20 -39 -40 -39c-9 0 -18 3 -26 9l-69 53l-69 -53
c-8 -6 -17 -9 -26 -9c-20 0 -40 18 -40 39c0 14 6 22 14 29l95 73c9 7 16 11 26 11s17 -4 26 -11z" />
    <glyph glyph-name="scircumflex" unicode="&#x15d;" horiz-adv-x="459" 
d="M408 359c0 -25 -13 -44 -46 -44c-16 0 -34 11 -53 19c-27 11 -49 16 -74 16c-37 0 -62 -9 -62 -33c0 -25 19 -34 83 -51c95 -26 163 -55 163 -144c0 -80 -67 -134 -180 -134c-62 0 -120 17 -158 45c-19 14 -26 32 -26 51c0 23 20 39 44 39c20 0 33 -8 47 -17
c21 -13 54 -30 96 -30c38 0 63 13 63 36c0 24 -23 34 -82 50c-127 34 -164 84 -164 154c0 73 61 130 179 130c38 0 75 -7 109 -23c35 -16 61 -37 61 -64zM219 649c8 7 16 10 26 10s19 -3 27 -10l100 -88c10 -10 13 -19 13 -30c0 -21 -19 -38 -39 -38c-9 0 -18 3 -26 9
l-75 66l-74 -66c-8 -6 -17 -9 -26 -9c-20 0 -38 17 -38 38c0 11 4 22 12 30z" />
    <glyph glyph-name="Scedilla" unicode="&#x15e;" horiz-adv-x="624" 
d="M450 -119c0 -42 -36 -76 -116 -76c-27 0 -98 3 -98 38c0 15 9 27 24 27c23 0 35 -11 72 -11c29 0 41 11 41 24c0 15 -16 22 -38 22c-16 0 -27 -4 -43 -5c-13 -1 -24 8 -24 22c0 12 9 32 24 67c-73 5 -152 29 -203 69c-20 16 -34 36 -34 58c0 31 20 52 51 52
c11 0 21 -3 31 -9c54 -34 91 -64 185 -64c96 0 134 39 134 84c0 49 -39 74 -159 106c-181 48 -235 106 -235 206c0 122 105 187 264 187c36 0 85 -6 128 -18c46 -13 104 -42 104 -82c0 -27 -16 -55 -50 -55c-8 0 -16 1 -24 5c-46 21 -94 42 -157 42c-89 0 -143 -24 -143 -76
c0 -49 40 -66 160 -101c137 -40 234 -79 234 -207c0 -109 -78 -187 -228 -197l-16 -43c8 3 17 4 27 4c57 0 89 -23 89 -69z" />
    <glyph glyph-name="Scedilla" unicode="&#xf6c1;" horiz-adv-x="624" 
d="M450 -119c0 -42 -36 -76 -116 -76c-27 0 -98 3 -98 38c0 15 9 27 24 27c23 0 35 -11 72 -11c29 0 41 11 41 24c0 15 -16 22 -38 22c-16 0 -27 -4 -43 -5c-13 -1 -24 8 -24 22c0 12 9 32 24 67c-73 5 -152 29 -203 69c-20 16 -34 36 -34 58c0 31 20 52 51 52
c11 0 21 -3 31 -9c54 -34 91 -64 185 -64c96 0 134 39 134 84c0 49 -39 74 -159 106c-181 48 -235 106 -235 206c0 122 105 187 264 187c36 0 85 -6 128 -18c46 -13 104 -42 104 -82c0 -27 -16 -55 -50 -55c-8 0 -16 1 -24 5c-46 21 -94 42 -157 42c-89 0 -143 -24 -143 -76
c0 -49 40 -66 160 -101c137 -40 234 -79 234 -207c0 -109 -78 -187 -228 -197l-16 -43c8 3 17 4 27 4c57 0 89 -23 89 -69z" />
    <glyph glyph-name="scedilla" unicode="&#x15f;" horiz-adv-x="459" 
d="M408 359c0 -25 -13 -44 -46 -44c-16 0 -34 11 -53 19c-27 11 -52 16 -77 16c-37 0 -62 -9 -62 -33c0 -25 22 -34 86 -51c96 -26 163 -55 163 -144c0 -78 -60 -130 -169 -134l-16 -42c8 3 17 4 27 4c57 0 89 -23 89 -69c0 -42 -36 -76 -116 -76c-27 0 -98 3 -98 38
c0 15 9 27 24 27c23 0 35 -11 72 -11c29 0 41 11 41 24c0 15 -16 22 -38 22c-16 0 -27 -4 -43 -5c-13 -1 -24 8 -24 22c0 12 10 33 25 69c-44 6 -84 21 -112 42c-19 14 -26 32 -26 51c0 23 20 39 44 39c20 0 33 -8 47 -17c21 -13 54 -30 96 -30c38 0 63 13 63 36
c0 24 -23 34 -82 50c-130 35 -167 84 -167 154c0 73 61 130 179 130c38 0 78 -7 112 -23c35 -16 61 -37 61 -64z" />
    <glyph glyph-name="scedilla" unicode="&#xf6c2;" horiz-adv-x="459" 
d="M408 359c0 -25 -13 -44 -46 -44c-16 0 -34 11 -53 19c-27 11 -52 16 -77 16c-37 0 -62 -9 -62 -33c0 -25 22 -34 86 -51c96 -26 163 -55 163 -144c0 -78 -60 -130 -169 -134l-16 -42c8 3 17 4 27 4c57 0 89 -23 89 -69c0 -42 -36 -76 -116 -76c-27 0 -98 3 -98 38
c0 15 9 27 24 27c23 0 35 -11 72 -11c29 0 41 11 41 24c0 15 -16 22 -38 22c-16 0 -27 -4 -43 -5c-13 -1 -24 8 -24 22c0 12 10 33 25 69c-44 6 -84 21 -112 42c-19 14 -26 32 -26 51c0 23 20 39 44 39c20 0 33 -8 47 -17c21 -13 54 -30 96 -30c38 0 63 13 63 36
c0 24 -23 34 -82 50c-130 35 -167 84 -167 154c0 73 61 130 179 130c38 0 78 -7 112 -23c35 -16 61 -37 61 -64z" />
    <glyph glyph-name="Scaron" unicode="&#x160;" horiz-adv-x="624" 
d="M578 186c0 -116 -88 -198 -258 -198c-81 0 -173 25 -231 70c-20 16 -34 36 -34 58c0 31 20 52 51 52c11 0 21 -3 31 -9c54 -34 91 -64 185 -64c96 0 134 39 134 84c0 49 -39 74 -159 106c-181 48 -235 106 -235 206c0 122 105 187 264 187c36 0 85 -6 128 -18
c46 -13 104 -42 104 -82c0 -27 -16 -55 -50 -55c-8 0 -16 1 -24 5c-46 21 -94 42 -157 42c-89 0 -143 -24 -143 -76c0 -49 40 -66 160 -101c137 -40 234 -79 234 -207zM449 800l-95 -73c-9 -7 -16 -11 -26 -11s-17 4 -26 11l-95 73c-8 7 -14 15 -14 29c0 21 20 39 40 39
c9 0 18 -3 26 -9l69 -53l69 53c8 6 17 9 26 9c20 0 40 -18 40 -39c0 -14 -6 -22 -14 -29z" />
    <glyph glyph-name="scaron" unicode="&#x161;" horiz-adv-x="459" 
d="M408 359c0 -25 -13 -44 -46 -44c-16 0 -34 11 -53 19c-27 11 -49 16 -74 16c-37 0 -62 -9 -62 -33c0 -25 19 -34 83 -51c95 -26 163 -55 163 -144c0 -80 -67 -134 -180 -134c-62 0 -120 17 -158 45c-19 14 -26 32 -26 51c0 23 20 39 44 39c20 0 33 -8 47 -17
c21 -13 54 -30 96 -30c38 0 63 13 63 36c0 24 -23 34 -82 50c-127 34 -164 84 -164 154c0 73 61 130 179 130c38 0 75 -7 109 -23c35 -16 61 -37 61 -64zM218 494l-102 88c-8 8 -12 19 -12 30c0 21 18 38 38 38c9 0 18 -3 26 -9l76 -66l77 66c8 6 17 9 26 9
c20 0 39 -17 39 -38c0 -11 -3 -20 -13 -30l-102 -88c-8 -7 -17 -10 -27 -10s-18 3 -26 10z" />
    <glyph glyph-name="Tcommaaccent" unicode="&#x162;" horiz-adv-x="621" 
d="M601 608c0 -31 -25 -57 -58 -57h-171v-497c0 -34 -28 -62 -62 -62s-60 28 -60 62v497h-172c-32 0 -58 26 -58 57c0 32 25 58 58 58h465c32 0 58 -26 58 -58zM361 -131c0 -38 -10 -91 -24 -124c-9 -21 -23 -37 -52 -37c-36 0 -52 21 -52 42c0 15 5 25 9 38
c9 32 13 54 13 85v11c0 32 19 56 53 56s53 -23 53 -56v-15z" />
    <glyph glyph-name="Tcommaaccent" unicode="&#x21a;" horiz-adv-x="621" 
d="M601 608c0 -31 -25 -57 -58 -57h-171v-497c0 -34 -28 -62 -62 -62s-60 28 -60 62v497h-172c-32 0 -58 26 -58 57c0 32 25 58 58 58h465c32 0 58 -26 58 -58zM361 -131c0 -38 -10 -91 -24 -124c-9 -21 -23 -37 -52 -37c-36 0 -52 21 -52 42c0 15 5 25 9 38
c9 32 13 54 13 85v11c0 32 19 56 53 56s53 -23 53 -56v-15z" />
    <glyph glyph-name="tcommaaccent" unicode="&#x163;" horiz-adv-x="379" 
d="M126 52v282h-67c-28 0 -49 22 -49 50s21 50 49 50h67v124c0 33 27 60 60 60s60 -27 60 -60v-124h78c28 0 50 -22 50 -50s-22 -50 -50 -50h-78v-282c0 -33 -27 -60 -60 -60s-60 27 -60 60zM240 -131c0 -38 -10 -91 -24 -124c-9 -21 -23 -37 -52 -37c-36 0 -52 21 -52 42
c0 15 5 25 9 38c9 32 13 54 13 85v11c0 32 19 56 53 56s53 -23 53 -56v-15z" />
    <glyph glyph-name="tcommaaccent" unicode="&#x21b;" horiz-adv-x="379" 
d="M126 52v282h-67c-28 0 -49 22 -49 50s21 50 49 50h67v124c0 33 27 60 60 60s60 -27 60 -60v-124h78c28 0 50 -22 50 -50s-22 -50 -50 -50h-78v-282c0 -33 -27 -60 -60 -60s-60 27 -60 60zM240 -131c0 -38 -10 -91 -24 -124c-9 -21 -23 -37 -52 -37c-36 0 -52 21 -52 42
c0 15 5 25 9 38c9 32 13 54 13 85v11c0 32 19 56 53 56s53 -23 53 -56v-15z" />
    <glyph glyph-name="Tcaron" unicode="&#x164;" horiz-adv-x="621" 
d="M601 608c0 -31 -25 -57 -58 -57h-171v-497c0 -34 -28 -62 -62 -62s-60 28 -60 62v497h-172c-32 0 -58 26 -58 57c0 32 25 58 58 58h465c32 0 58 -26 58 -58zM431 800l-95 -73c-9 -7 -16 -11 -26 -11s-17 4 -26 11l-95 73c-8 7 -14 15 -14 29c0 21 20 39 40 39
c9 0 18 -3 26 -9l69 -53l69 53c8 6 17 9 26 9c20 0 40 -18 40 -39c0 -14 -6 -22 -14 -29z" />
    <glyph glyph-name="tcaron" unicode="&#x165;" horiz-adv-x="460" 
d="M126 52v282h-67c-28 0 -49 22 -49 50s21 50 49 50h67v124c0 33 27 60 60 60s60 -27 60 -60v-124h78c28 0 50 -22 50 -50s-22 -50 -50 -50h-78v-282c0 -33 -27 -60 -60 -60s-60 27 -60 60zM470 674c0 -38 -8 -80 -19 -111c-8 -21 -21 -41 -50 -41c-33 0 -51 22 -51 47
c0 15 6 25 9 38c7 28 8 40 8 71v21c0 32 19 56 53 56s50 -23 50 -56v-25z" />
    <glyph glyph-name="Tbar" unicode="&#x166;" horiz-adv-x="621" 
d="M96 286c-23 0 -43 19 -43 42s20 42 43 42h154v181h-172c-32 0 -58 26 -58 57c0 32 25 58 58 58h465c32 0 58 -26 58 -58c0 -31 -25 -57 -58 -57h-171v-181h154c23 0 43 -19 43 -42s-20 -42 -43 -42h-154v-232c0 -34 -28 -62 -62 -62s-60 28 -60 62v232h-154z" />
    <glyph glyph-name="tbar" unicode="&#x167;" horiz-adv-x="379" 
d="M53 159c-23 0 -43 17 -43 40s20 40 43 40h73v95h-67c-28 0 -49 22 -49 50s21 50 49 50h67v124c0 33 27 60 60 60s60 -27 60 -60v-124h78c28 0 50 -22 50 -50s-22 -50 -50 -50h-78v-95h77c23 0 43 -17 43 -40s-20 -40 -43 -40h-77v-107c0 -33 -27 -60 -60 -60
s-60 27 -60 60v107h-73z" />
    <glyph glyph-name="Utilde" unicode="&#x168;" horiz-adv-x="722" 
d="M524 256v356c0 34 27 62 61 62s61 -28 61 -62v-343c0 -172 -107 -281 -285 -281s-285 109 -285 281v343c0 34 27 62 61 62s61 -28 61 -62v-356c0 -93 56 -158 163 -158s163 65 163 158zM520 810c0 -40 -47 -70 -91 -70c-39 0 -71 32 -104 32c-37 0 -42 -32 -70 -32
c-21 0 -39 16 -39 37c0 40 51 74 101 74c43 0 73 -30 104 -30c27 0 41 26 62 26c19 0 37 -14 37 -37z" />
    <glyph glyph-name="utilde" unicode="&#x169;" horiz-adv-x="558" 
d="M183 200c0 -58 29 -104 91 -104c67 0 94 51 94 104v182c0 33 27 60 60 60s60 -27 60 -60v-329c0 -38 -26 -61 -60 -61s-60 23 -60 61v8c-24 -44 -67 -73 -129 -73c-112 0 -176 86 -176 206v188c0 33 27 60 60 60s60 -27 60 -60v-182zM433 569c0 -40 -47 -70 -91 -70
c-39 0 -71 32 -104 32c-37 0 -42 -32 -70 -32c-21 0 -39 16 -39 37c0 40 51 74 101 74c43 0 73 -30 104 -30c27 0 41 26 62 26c19 0 37 -14 37 -37z" />
    <glyph glyph-name="Umacron" unicode="&#x16a;" horiz-adv-x="722" 
d="M524 256v356c0 34 27 62 61 62s61 -28 61 -62v-343c0 -172 -107 -281 -285 -281s-285 109 -285 281v343c0 34 27 62 61 62s61 -28 61 -62v-356c0 -93 56 -158 163 -158s163 65 163 158zM478 743h-233c-22 0 -41 17 -41 41s19 41 41 41h233c22 0 41 -17 41 -41
s-19 -41 -41 -41z" />
    <glyph glyph-name="umacron" unicode="&#x16b;" horiz-adv-x="558" 
d="M183 200c0 -58 29 -104 91 -104c67 0 94 51 94 104v182c0 33 27 60 60 60s60 -27 60 -60v-329c0 -38 -26 -61 -60 -61s-60 23 -60 61v8c-24 -44 -67 -73 -129 -73c-112 0 -176 86 -176 206v188c0 33 27 60 60 60s60 -27 60 -60v-182zM429 561c0 -20 -19 -39 -39 -39h-219
c-20 0 -38 19 -38 39s18 38 38 38h219c20 0 39 -18 39 -38z" />
    <glyph glyph-name="Ubreve" unicode="&#x16c;" horiz-adv-x="722" 
d="M524 256v356c0 34 27 62 61 62s61 -28 61 -62v-343c0 -172 -107 -281 -285 -281s-285 109 -285 281v343c0 34 27 62 61 62s61 -28 61 -62v-356c0 -93 56 -158 163 -158s163 65 163 158zM507 830c0 -71 -55 -112 -146 -112s-145 40 -145 114c0 20 17 34 36 35
s40 -11 40 -38c0 -29 26 -44 69 -44s69 14 69 44c0 24 19 37 37 37c20 0 40 -12 40 -36z" />
    <glyph glyph-name="ubreve" unicode="&#x16d;" horiz-adv-x="558" 
d="M183 200c0 -58 29 -104 91 -104c67 0 94 51 94 104v182c0 33 27 60 60 60s60 -27 60 -60v-329c0 -38 -26 -61 -60 -61s-60 23 -60 61v8c-24 -44 -67 -73 -129 -73c-112 0 -176 86 -176 206v188c0 33 27 60 60 60s60 -27 60 -60v-182zM419 609c0 -71 -47 -122 -138 -122
s-137 50 -137 124c0 20 17 34 36 35s40 -11 40 -38c0 -29 17 -54 61 -54s61 24 61 54c0 24 19 37 37 37c20 0 40 -12 40 -36z" />
    <glyph glyph-name="Uring" unicode="&#x16e;" horiz-adv-x="722" 
d="M524 256v356c0 34 27 62 61 62s61 -28 61 -62v-343c0 -172 -107 -281 -285 -281s-285 109 -285 281v343c0 34 27 62 61 62s61 -28 61 -62v-356c0 -93 56 -158 163 -158s163 65 163 158zM446 791c0 -47 -37 -79 -85 -79s-85 32 -85 79c0 48 37 79 85 79s85 -31 85 -79z
M398 791c0 19 -14 35 -37 35c-22 0 -37 -16 -37 -35s15 -35 37 -35c23 0 37 16 37 35z" />
    <glyph glyph-name="uring" unicode="&#x16f;" horiz-adv-x="558" 
d="M183 200c0 -58 29 -104 91 -104c67 0 94 51 94 104v182c0 33 27 60 60 60s60 -27 60 -60v-329c0 -38 -26 -61 -60 -61s-60 23 -60 61v8c-24 -44 -67 -73 -129 -73c-112 0 -176 86 -176 206v188c0 33 27 60 60 60s60 -27 60 -60v-182zM366 563c0 -46 -37 -82 -85 -82
c-46 0 -85 36 -85 82c0 48 39 82 85 82c48 0 85 -34 85 -82zM319 563c0 22 -15 37 -38 37c-22 0 -37 -15 -37 -37c0 -21 14 -37 37 -37c24 0 38 16 38 37z" />
    <glyph glyph-name="Uhungarumlaut" unicode="&#x170;" horiz-adv-x="722" 
d="M524 256v356c0 34 27 62 61 62s61 -28 61 -62v-343c0 -172 -107 -281 -285 -281s-285 109 -285 281v343c0 34 27 62 61 62s61 -28 61 -62v-356c0 -93 56 -158 163 -158s163 65 163 158zM213 758c0 10 3 20 10 29l44 61c9 13 23 19 39 19c25 0 47 -20 47 -47
c0 -9 -3 -18 -9 -27l-45 -60c-9 -11 -21 -20 -36 -20c-29 0 -50 18 -50 45zM409 758c0 10 3 20 10 29l44 61c9 13 23 19 39 19c25 0 47 -20 47 -47c0 -9 -3 -18 -9 -27l-45 -60c-9 -11 -21 -20 -36 -20c-29 0 -50 18 -50 45z" />
    <glyph glyph-name="uhungarumlaut" unicode="&#x171;" horiz-adv-x="558" 
d="M183 200c0 -58 29 -104 91 -104c67 0 94 51 94 104v182c0 33 27 60 60 60s60 -27 60 -60v-329c0 -38 -26 -61 -60 -61s-60 23 -60 61v8c-24 -44 -67 -73 -129 -73c-112 0 -176 86 -176 206v188c0 33 27 60 60 60s60 -27 60 -60v-182zM240 663c25 0 44 -17 44 -45
c0 -10 -5 -20 -11 -28l-58 -79c-9 -11 -19 -18 -38 -18c-22 0 -46 20 -46 44c0 12 5 21 12 29l60 79c9 12 19 18 37 18zM420 663c25 0 44 -17 44 -45c0 -10 -5 -20 -11 -28l-58 -79c-9 -11 -19 -18 -38 -18c-22 0 -46 20 -46 44c0 12 5 21 12 29l60 79c9 12 19 18 37 18z
" />
    <glyph glyph-name="Uogonek" unicode="&#x172;" horiz-adv-x="722" 
d="M503 -140c0 -28 -35 -45 -87 -45c-69 0 -96 26 -96 66c0 50 65 93 112 114c-22 -4 -46 -7 -71 -7c-178 0 -285 109 -285 281v343c0 34 27 62 61 62s61 -28 61 -62v-356c0 -93 56 -158 163 -158s163 65 163 158v356c0 34 27 62 61 62s61 -28 61 -62v-343
c0 -123 -48 -191 -124 -242c-45 -30 -112 -76 -112 -119c0 -14 6 -24 30 -24c16 0 24 5 37 5c16 0 26 -13 26 -29z" />
    <glyph glyph-name="uogonek" unicode="&#x173;" horiz-adv-x="558" 
d="M484 -140c0 -28 -35 -45 -87 -45c-67 0 -96 25 -96 65c0 55 74 97 117 113c-29 4 -50 25 -50 60v8c-24 -44 -67 -73 -129 -73c-112 0 -176 86 -176 206v188c0 33 27 60 60 60s60 -27 60 -60v-182c0 -58 29 -104 91 -104c67 0 94 51 94 104v182c0 33 27 60 60 60
s60 -27 60 -60v-329c0 -18 -4 -27 -10 -36c-25 -35 -87 -74 -87 -109c0 -14 6 -24 30 -24c16 0 24 5 37 5c16 0 26 -13 26 -29z" />
    <glyph glyph-name="Wcircumflex" unicode="&#x174;" horiz-adv-x="974" 
d="M541 635l144 -428l151 427c7 24 25 40 54 40c37 0 56 -27 56 -57c0 -5 -1 -11 -3 -17l-203 -570c-7 -22 -26 -38 -56 -38c-26 0 -46 14 -54 37l-143 432l-143 -432c-8 -23 -28 -37 -54 -37c-30 0 -49 16 -56 38l-203 570c-2 6 -3 12 -3 17c0 30 19 57 56 57
c29 0 47 -16 54 -40l151 -427l144 428c8 23 25 39 54 39s46 -16 54 -39zM512 858l95 -73c8 -7 14 -15 14 -29c0 -21 -20 -39 -40 -39c-9 0 -18 3 -26 9l-69 53l-69 -53c-8 -6 -17 -9 -26 -9c-20 0 -40 18 -40 39c0 14 6 22 14 29l95 73c9 7 16 11 26 11s17 -4 26 -11z" />
    <glyph glyph-name="wcircumflex" unicode="&#x175;" horiz-adv-x="668" 
d="M383 406l83 -230l70 232c7 22 22 34 47 34c31 0 55 -21 55 -52c0 -6 -2 -14 -4 -20l-115 -344c-7 -21 -24 -34 -51 -34s-42 15 -50 36l-84 242l-84 -242c-8 -21 -23 -36 -50 -36s-44 13 -51 34l-115 344c-2 6 -4 14 -4 20c0 31 24 52 55 52c25 0 40 -12 47 -34l70 -232
l83 230c8 22 24 36 49 36s41 -14 49 -36zM307 649c8 7 16 10 26 10s19 -3 27 -10l100 -88c10 -10 13 -19 13 -30c0 -21 -19 -38 -39 -38c-9 0 -18 3 -26 9l-75 66l-74 -66c-8 -6 -17 -9 -26 -9c-20 0 -38 17 -38 38c0 11 4 22 12 30z" />
    <glyph glyph-name="Ycircumflex" unicode="&#x176;" horiz-adv-x="588" 
d="M355 54c0 -34 -26 -62 -60 -62s-62 28 -62 62v239l-212 290c-7 11 -11 23 -11 34c0 30 25 57 55 57c20 0 35 -9 47 -25l182 -248l182 248c12 16 27 25 47 25c30 0 55 -27 55 -57c0 -11 -3 -23 -11 -34l-212 -290v-239zM320 858l95 -73c8 -7 14 -15 14 -29
c0 -21 -20 -39 -40 -39c-9 0 -18 3 -26 9l-69 53l-69 -53c-8 -6 -17 -9 -26 -9c-20 0 -40 18 -40 39c0 14 6 22 14 29l95 73c9 7 16 11 26 11s17 -4 26 -11z" />
    <glyph glyph-name="ycircumflex" unicode="&#x177;" horiz-adv-x="464" 
d="M322 61c-47 -116 -104 -200 -186 -249c-8 -5 -17 -7 -27 -7c-29 0 -54 23 -54 50c0 21 10 34 29 49c42 33 67 58 89 108l-143 353c-3 7 -5 14 -5 22c0 30 22 55 54 55c26 0 42 -12 50 -32l112 -288l94 288c6 20 21 32 50 32c32 0 53 -25 53 -55c0 -8 -2 -17 -4 -22
c-25 -76 -66 -190 -112 -304zM210 649c8 7 16 10 26 10s19 -3 27 -10l100 -88c10 -10 13 -19 13 -30c0 -21 -19 -38 -39 -38c-9 0 -18 3 -26 9l-75 66l-74 -66c-8 -6 -17 -9 -26 -9c-20 0 -38 17 -38 38c0 11 4 22 12 30z" />
    <glyph glyph-name="Ydieresis" unicode="&#x178;" horiz-adv-x="588" 
d="M355 54c0 -34 -26 -62 -60 -62s-62 28 -62 62v239l-212 290c-7 11 -11 23 -11 34c0 30 25 57 55 57c20 0 35 -9 47 -25l182 -248l182 248c12 16 27 25 47 25c30 0 55 -27 55 -57c0 -11 -3 -23 -11 -34l-212 -290v-239zM459 794c0 -33 -27 -60 -61 -60
c-33 0 -60 27 -60 60c0 34 27 61 60 61c34 0 61 -27 61 -61zM249 794c0 -33 -27 -60 -60 -60s-61 27 -61 60c0 34 27 61 61 61c33 0 60 -27 60 -61z" />
    <glyph glyph-name="Zacute" unicode="&#x179;" horiz-adv-x="640" 
d="M590 57c0 -31 -25 -57 -57 -57h-413c-32 0 -58 25 -58 57c0 13 5 24 13 34l342 462h-296c-31 0 -57 26 -57 57s26 56 57 56h409c31 0 57 -25 57 -56c0 -13 -5 -25 -13 -35l-342 -462h301c31 0 57 -25 57 -56zM369 879c26 0 46 -18 46 -47c0 -10 -5 -21 -11 -29l-45 -61
c-9 -12 -19 -19 -39 -19c-23 0 -48 21 -48 46c0 12 5 22 12 30l47 61c9 12 20 19 38 19z" />
    <glyph glyph-name="zacute" unicode="&#x17a;" horiz-adv-x="481" 
d="M439 49c0 -29 -23 -49 -50 -49h-289c-25 0 -50 24 -50 49c0 14 4 26 13 37l213 250h-176c-27 0 -50 20 -50 49s23 49 50 49h283c31 0 52 -23 52 -52c0 -13 -5 -24 -13 -34l-213 -250h180c27 0 50 -20 50 -49zM304 666c26 0 46 -18 46 -47c0 -10 -5 -21 -11 -29l-58 -78
c-9 -12 -19 -19 -39 -19c-23 0 -48 21 -48 46c0 12 5 22 12 30l60 78c9 12 20 19 38 19z" />
    <glyph glyph-name="Zdotaccent" unicode="&#x17b;" horiz-adv-x="640" 
d="M590 57c0 -31 -25 -57 -57 -57h-413c-32 0 -58 25 -58 57c0 13 5 24 13 34l342 462h-296c-31 0 -57 26 -57 57s26 56 57 56h409c31 0 57 -25 57 -56c0 -13 -5 -25 -13 -35l-342 -462h301c31 0 57 -25 57 -56zM260 794c0 38 30 68 68 68s68 -30 68 -68s-30 -68 -68 -68
s-68 30 -68 68z" />
    <glyph glyph-name="zdotaccent" unicode="&#x17c;" horiz-adv-x="481" 
d="M439 49c0 -29 -23 -49 -50 -49h-289c-25 0 -50 24 -50 49c0 14 4 26 13 37l213 250h-176c-27 0 -50 20 -50 49s23 49 50 49h283c31 0 52 -23 52 -52c0 -13 -5 -24 -13 -34l-213 -250h180c27 0 50 -20 50 -49zM179 573c0 38 30 68 68 68s68 -30 68 -68s-30 -68 -68 -68
s-68 30 -68 68z" />
    <glyph glyph-name="Zcaron" unicode="&#x17d;" horiz-adv-x="640" 
d="M590 57c0 -31 -25 -57 -57 -57h-413c-32 0 -58 25 -58 57c0 13 5 24 13 34l342 462h-296c-31 0 -57 26 -57 57s26 56 57 56h409c31 0 57 -25 57 -56c0 -13 -5 -25 -13 -35l-342 -462h301c31 0 57 -25 57 -56zM452 800l-95 -73c-9 -7 -16 -11 -26 -11s-17 4 -26 11l-95 73
c-8 7 -14 15 -14 29c0 21 20 39 40 39c9 0 18 -3 26 -9l69 -53l69 53c8 6 17 9 26 9c20 0 40 -18 40 -39c0 -14 -6 -22 -14 -29z" />
    <glyph glyph-name="zcaron" unicode="&#x17e;" horiz-adv-x="481" 
d="M439 49c0 -29 -23 -49 -50 -49h-289c-25 0 -50 24 -50 49c0 14 4 26 13 37l213 250h-176c-27 0 -50 20 -50 49s23 49 50 49h283c31 0 52 -23 52 -52c0 -13 -5 -24 -13 -34l-213 -250h180c27 0 50 -20 50 -49zM228 494l-102 88c-8 8 -12 19 -12 30c0 21 18 38 38 38
c9 0 18 -3 26 -9l76 -66l77 66c8 6 17 9 26 9c20 0 39 -17 39 -38c0 -11 -3 -20 -13 -30l-102 -88c-8 -7 -17 -10 -27 -10s-18 3 -26 10z" />
    <glyph glyph-name="florin" unicode="&#x192;" horiz-adv-x="554" 
d="M208 294h-56c-25 0 -42 17 -42 41c0 36 29 59 60 59h56l18 101c18 102 72 175 203 175h22c29 0 50 -12 50 -41c0 -32 -17 -59 -62 -59h-16c-42 0 -66 -19 -74 -63l-20 -113h71c25 0 42 -17 42 -41c0 -32 -23 -59 -60 -59h-71l-55 -314c-18 -102 -60 -175 -203 -175h-30
c-24 0 -41 17 -41 41c0 40 29 59 59 59h18c46 0 66 19 74 63z" />
    <glyph glyph-name="Aringacute" unicode="&#x1fa;" horiz-adv-x="694" 
d="M432 708c0 -28 -14 -50 -34 -64l257 -571c4 -8 6 -16 6 -24c0 -29 -22 -57 -58 -57c-26 0 -41 12 -51 33l-57 122h-296l-57 -122c-11 -20 -25 -33 -51 -33c-36 0 -58 28 -58 57c0 8 2 16 6 24l257 571c-20 14 -34 36 -34 64c0 48 39 79 85 79c48 0 85 -31 85 -79z
M451 254l-104 254l-104 -254h208zM379 708c0 20 -15 32 -32 32s-31 -12 -31 -32s14 -32 31 -32s32 14 32 32zM394 953c26 0 43 -20 43 -43c0 -10 -5 -21 -11 -29l-32 -44c-9 -12 -19 -19 -39 -19c-23 0 -45 17 -45 42c0 12 5 22 12 30l34 44c9 12 20 19 38 19z" />
    <glyph glyph-name="aringacute" unicode="&#x1fb;" horiz-adv-x="518" 
d="M351 563c0 -46 -37 -82 -85 -82c-47 0 -85 35 -85 82c0 48 39 82 85 82c48 0 85 -34 85 -82zM297 563c0 20 -13 33 -31 33s-31 -13 -31 -33s13 -33 31 -33s31 13 31 33zM312 822c26 0 46 -18 46 -47c0 -10 -5 -21 -11 -29l-32 -44c-9 -12 -19 -19 -39 -19
c-23 0 -48 21 -48 46c0 12 5 22 12 30l34 44c9 12 20 19 38 19zM340 52v2c-28 -45 -74 -66 -129 -66c-96 0 -156 58 -156 137c0 91 70 137 162 137c46 0 92 -15 121 -46v32c0 67 -24 96 -102 96c-57 0 -92 -22 -119 -22c-29 0 -51 21 -51 49c0 65 134 75 181 75
c136 0 211 -66 211 -190v-204c0 -33 -24 -60 -59 -60c-34 0 -59 27 -59 60zM338 125c0 31 -37 57 -84 57c-49 0 -80 -22 -80 -57s34 -57 80 -57c47 0 84 25 84 57z" />
    <glyph glyph-name="AEacute" unicode="&#x1fc;" horiz-adv-x="948" 
d="M599 0c-26 0 -40 12 -51 33l-53 114h-296l-57 -122c-11 -21 -25 -33 -51 -33c-36 0 -58 28 -58 57c0 8 2 16 6 24l256 561c9 20 26 32 52 32h498c32 0 58 -25 58 -57s-26 -58 -58 -58h-408l71 -156h202c31 0 57 -26 57 -58s-26 -57 -57 -57h-150l75 -165h225
c32 0 58 -26 58 -58s-26 -57 -58 -57h-261zM451 254l-104 254l-104 -254h208zM444 879c26 0 46 -18 46 -47c0 -10 -5 -21 -11 -29l-45 -61c-9 -12 -19 -19 -39 -19c-23 0 -48 21 -48 46c0 12 5 22 12 30l47 61c9 12 20 19 38 19z" />
    <glyph glyph-name="aeacute" unicode="&#x1fd;" horiz-adv-x="817" 
d="M772 217c0 -19 -12 -39 -43 -39h-266c6 -52 39 -95 108 -95c38 0 69 11 92 29c14 11 26 20 44 20c30 0 48 -19 48 -44c0 -28 -22 -47 -43 -60c-33 -21 -77 -40 -146 -40c-73 0 -136 26 -161 67c-59 -48 -107 -67 -181 -67c-102 0 -169 58 -169 137c0 91 70 137 162 137
c46 0 92 -15 121 -46v32c0 67 -24 96 -102 96c-57 0 -92 -22 -119 -22c-29 0 -51 21 -51 49c0 65 134 75 181 75c71 0 116 -22 154 -62c45 49 100 62 163 62c125 0 208 -98 208 -229zM338 125c0 31 -37 57 -84 57c-49 0 -80 -22 -80 -57s34 -57 80 -57c47 0 84 25 84 57z
M658 263c-9 46 -41 87 -94 87c-55 0 -93 -36 -99 -87h193zM350 666c26 0 46 -18 46 -47c0 -10 -5 -21 -11 -29l-58 -78c-9 -12 -19 -19 -39 -19c-23 0 -48 21 -48 46c0 12 5 22 12 30l60 78c9 12 20 19 38 19z" />
    <glyph glyph-name="Oslashacute" unicode="&#x1fe;" horiz-adv-x="774" 
d="M99 -52c-7 -7 -14 -10 -24 -10c-16 0 -30 13 -30 30c0 8 2 15 8 21l87 101c-60 62 -95 148 -95 243c0 193 146 345 342 345c76 0 145 -24 201 -63l88 103c6 7 13 10 23 10c17 0 30 -13 30 -30c0 -8 -2 -14 -7 -20l-88 -103c59 -62 95 -147 95 -242
c0 -193 -146 -345 -342 -345c-76 0 -145 23 -201 62zM168 333c0 -58 17 -112 48 -153l298 348c-34 25 -77 40 -127 40c-136 0 -219 -108 -219 -235zM606 333c0 57 -17 111 -48 152l-298 -348c34 -25 77 -39 127 -39c136 0 219 108 219 235zM448 879c26 0 46 -18 46 -47
c0 -10 -5 -21 -11 -29l-45 -61c-9 -12 -19 -19 -39 -19c-23 0 -48 21 -48 46c0 12 5 22 12 30l47 61c9 12 20 19 38 19z" />
    <glyph glyph-name="oslashacute" unicode="&#x1ff;" horiz-adv-x="542" 
d="M85 -53c-4 -5 -9 -9 -18 -9c-12 0 -25 12 -25 25c0 5 2 10 5 14l61 76c-42 41 -66 100 -66 164c0 126 94 229 229 229c47 0 90 -13 125 -35l62 77c4 5 9 8 17 8c14 0 25 -11 25 -25c0 -5 -1 -10 -5 -15l-61 -76c42 -41 66 -99 66 -163c0 -126 -94 -229 -229 -229
c-48 0 -90 13 -125 35zM160 217c0 -28 7 -54 20 -75l148 184c-16 10 -35 16 -57 16c-69 0 -111 -58 -111 -125zM382 217c0 27 -7 53 -20 74l-148 -184c16 -10 35 -15 57 -15c69 0 111 58 111 125zM349 666c26 0 46 -18 46 -47c0 -10 -5 -21 -11 -29l-58 -78
c-9 -12 -19 -19 -39 -19c-23 0 -48 21 -48 46c0 12 5 22 12 30l60 78c9 12 20 19 38 19z" />
    <glyph glyph-name="Scommaaccent" unicode="&#x218;" horiz-adv-x="624" 
d="M578 186c0 -116 -88 -198 -258 -198c-81 0 -173 25 -231 70c-20 16 -34 36 -34 58c0 31 20 52 51 52c11 0 21 -3 31 -9c54 -34 91 -64 185 -64c96 0 134 39 134 84c0 49 -39 74 -159 106c-181 48 -235 106 -235 206c0 122 105 187 264 187c36 0 85 -6 128 -18
c46 -13 104 -42 104 -82c0 -27 -16 -55 -50 -55c-8 0 -16 1 -24 5c-46 21 -94 42 -157 42c-89 0 -143 -24 -143 -76c0 -49 40 -66 160 -101c137 -40 234 -79 234 -207zM388 -131c0 -38 -10 -91 -24 -124c-9 -21 -23 -37 -52 -37c-36 0 -52 21 -52 42c0 15 5 25 9 38
c9 32 13 54 13 85v11c0 32 19 56 53 56s53 -23 53 -56v-15z" />
    <glyph glyph-name="scommaaccent" unicode="&#x219;" horiz-adv-x="459" 
d="M408 359c0 -25 -13 -44 -46 -44c-16 0 -34 11 -53 19c-27 11 -49 16 -74 16c-37 0 -62 -9 -62 -33c0 -25 19 -34 83 -51c95 -26 163 -55 163 -144c0 -80 -67 -134 -180 -134c-62 0 -120 17 -158 45c-19 14 -26 32 -26 51c0 23 20 39 44 39c20 0 33 -8 47 -17
c21 -13 54 -30 96 -30c38 0 63 13 63 36c0 24 -23 34 -82 50c-127 34 -164 84 -164 154c0 73 61 130 179 130c38 0 75 -7 109 -23c35 -16 61 -37 61 -64zM295 -131c0 -38 -10 -91 -24 -124c-9 -21 -23 -37 -52 -37c-36 0 -52 21 -52 42c0 15 5 25 9 38c9 32 13 54 13 85v11
c0 32 19 56 53 56s53 -23 53 -56v-15z" />
    <glyph glyph-name="circumflex" unicode="&#x2c6;" horiz-adv-x="368" 
d="M157 649c8 7 16 10 26 10s19 -3 27 -10l100 -88c10 -10 13 -19 13 -30c0 -21 -19 -38 -39 -38c-9 0 -18 3 -26 9l-75 66l-74 -66c-8 -6 -17 -9 -26 -9c-20 0 -38 17 -38 38c0 11 4 22 12 30z" />
    <glyph glyph-name="caron" unicode="&#x2c7;" horiz-adv-x="372" 
d="M159 494l-102 88c-8 8 -12 19 -12 30c0 21 18 38 38 38c9 0 18 -3 26 -9l76 -66l77 66c8 6 17 9 26 9c20 0 39 -17 39 -38c0 -11 -3 -20 -13 -30l-102 -88c-8 -7 -17 -10 -27 -10s-18 3 -26 10z" />
    <glyph glyph-name="breve" unicode="&#x2d8;" horiz-adv-x="365" 
d="M320 609c0 -71 -47 -122 -138 -122s-137 50 -137 124c0 20 17 34 36 35s40 -11 40 -38c0 -29 17 -54 61 -54s61 24 61 54c0 24 19 37 37 37c20 0 40 -12 40 -36z" />
    <glyph glyph-name="dotaccent" unicode="&#x2d9;" horiz-adv-x="260" 
d="M62 573c0 38 30 68 68 68s68 -30 68 -68s-30 -68 -68 -68s-68 30 -68 68z" />
    <glyph glyph-name="ring" unicode="&#x2da;" horiz-adv-x="280" 
d="M225 563c0 -46 -37 -82 -85 -82c-46 0 -85 36 -85 82c0 48 39 82 85 82c48 0 85 -34 85 -82zM178 563c0 22 -15 37 -38 37c-22 0 -37 -15 -37 -37c0 -21 14 -37 37 -37c24 0 38 16 38 37z" />
    <glyph glyph-name="ogonek" unicode="&#x2db;" horiz-adv-x="318" 
d="M243 -140c0 -28 -35 -45 -87 -45c-67 0 -96 32 -96 72c0 55 74 100 118 113h46c-44 -29 -74 -62 -74 -92c0 -14 6 -24 30 -24c16 0 24 5 37 5c16 0 26 -13 26 -29z" />
    <glyph glyph-name="tilde" unicode="&#x2dc;" horiz-adv-x="394" 
d="M349 569c0 -40 -47 -70 -91 -70c-39 0 -71 32 -104 32c-37 0 -42 -32 -70 -32c-21 0 -39 16 -39 37c0 40 51 74 101 74c43 0 73 -30 104 -30c27 0 41 26 62 26c19 0 37 -14 37 -37z" />
    <glyph glyph-name="hungarumlaut" unicode="&#x2dd;" horiz-adv-x="493" 
d="M199 663c25 0 44 -17 44 -45c0 -10 -5 -20 -11 -28l-58 -79c-9 -11 -19 -18 -38 -18c-22 0 -46 20 -46 44c0 12 5 21 12 29l60 79c9 12 19 18 37 18zM379 663c25 0 44 -17 44 -45c0 -10 -5 -20 -11 -28l-58 -79c-9 -11 -19 -18 -38 -18c-22 0 -46 20 -46 44
c0 12 5 21 12 29l60 79c9 12 19 18 37 18z" />
    <glyph glyph-name="Omega" unicode="&#x3a9;" horiz-adv-x="842" 
d="M762 337c0 -83 -37 -165 -93 -222h52c31 0 56 -26 56 -58s-25 -57 -56 -57h-184c-31 0 -56 25 -56 57c0 21 10 38 28 50c95 65 131 148 131 226c0 136 -88 233 -219 233s-219 -97 -219 -233c0 -78 36 -161 131 -226c18 -12 28 -29 28 -50c0 -32 -25 -57 -56 -57h-184
c-31 0 -56 25 -56 57s25 58 56 58h52c-56 57 -93 139 -93 222c0 193 132 341 341 341s341 -148 341 -341z" />
    <glyph glyph-name="pi" unicode="&#x3c0;" horiz-adv-x="615" 
d="M362 105v233h-114v-292c0 -30 -24 -54 -53 -54c-30 0 -54 24 -54 54v292h-58c-26 0 -48 21 -48 48c0 26 22 48 48 48h443c27 0 49 -22 49 -48c0 -27 -22 -48 -49 -48h-57v-229c0 -15 6 -25 27 -25h14c27 0 48 -20 48 -46s-21 -46 -48 -46h-32c-71 0 -116 37 -116 113z
" />
    <glyph glyph-name="Wgrave" unicode="&#x1e80;" horiz-adv-x="974" 
d="M541 635l144 -428l151 427c7 24 25 40 54 40c37 0 56 -27 56 -57c0 -5 -1 -11 -3 -17l-203 -570c-7 -22 -26 -38 -56 -38c-26 0 -46 14 -54 37l-143 432l-143 -432c-8 -23 -28 -37 -54 -37c-30 0 -49 16 -56 38l-203 570c-2 6 -3 12 -3 17c0 30 19 57 56 57
c29 0 47 -16 54 -40l151 -427l144 428c8 23 25 39 54 39s46 -16 54 -39zM430 879c18 0 29 -7 38 -19l47 -61c7 -8 12 -18 12 -30c0 -25 -25 -46 -48 -46c-20 0 -30 7 -39 19l-45 61c-6 8 -11 19 -11 29c0 29 20 47 46 47z" />
    <glyph glyph-name="wgrave" unicode="&#x1e81;" horiz-adv-x="668" 
d="M383 406l83 -230l70 232c7 22 22 34 47 34c31 0 55 -21 55 -52c0 -6 -2 -14 -4 -20l-115 -344c-7 -21 -24 -34 -51 -34s-42 15 -50 36l-84 242l-84 -242c-8 -21 -23 -36 -50 -36s-44 13 -51 34l-115 344c-2 6 -4 14 -4 20c0 31 24 52 55 52c25 0 40 -12 47 -34l70 -232
l83 230c8 22 24 36 49 36s41 -14 49 -36zM263 666c18 0 29 -7 38 -19l60 -78c7 -8 12 -18 12 -30c0 -25 -25 -46 -48 -46c-20 0 -30 7 -39 19l-58 78c-6 8 -11 19 -11 29c0 29 20 47 46 47z" />
    <glyph glyph-name="Wacute" unicode="&#x1e82;" horiz-adv-x="974" 
d="M541 635l144 -428l151 427c7 24 25 40 54 40c37 0 56 -27 56 -57c0 -5 -1 -11 -3 -17l-203 -570c-7 -22 -26 -38 -56 -38c-26 0 -46 14 -54 37l-143 432l-143 -432c-8 -23 -28 -37 -54 -37c-30 0 -49 16 -56 38l-203 570c-2 6 -3 12 -3 17c0 30 19 57 56 57
c29 0 47 -16 54 -40l151 -427l144 428c8 23 25 39 54 39s46 -16 54 -39zM540 879c26 0 46 -18 46 -47c0 -10 -5 -21 -11 -29l-45 -61c-9 -12 -19 -19 -39 -19c-23 0 -48 21 -48 46c0 12 5 22 12 30l47 61c9 12 20 19 38 19z" />
    <glyph glyph-name="wacute" unicode="&#x1e83;" horiz-adv-x="668" 
d="M383 406l83 -230l70 232c7 22 22 34 47 34c31 0 55 -21 55 -52c0 -6 -2 -14 -4 -20l-115 -344c-7 -21 -24 -34 -51 -34s-42 15 -50 36l-84 242l-84 -242c-8 -21 -23 -36 -50 -36s-44 13 -51 34l-115 344c-2 6 -4 14 -4 20c0 31 24 52 55 52c25 0 40 -12 47 -34l70 -232
l83 230c8 22 24 36 49 36s41 -14 49 -36zM398 666c26 0 46 -18 46 -47c0 -10 -5 -21 -11 -29l-58 -78c-9 -12 -19 -19 -39 -19c-23 0 -48 21 -48 46c0 12 5 22 12 30l60 78c9 12 20 19 38 19z" />
    <glyph glyph-name="Wdieresis" unicode="&#x1e84;" horiz-adv-x="974" 
d="M541 635l144 -428l151 427c7 24 25 40 54 40c37 0 56 -27 56 -57c0 -5 -1 -11 -3 -17l-203 -570c-7 -22 -26 -38 -56 -38c-26 0 -46 14 -54 37l-143 432l-143 -432c-8 -23 -28 -37 -54 -37c-30 0 -49 16 -56 38l-203 570c-2 6 -3 12 -3 17c0 30 19 57 56 57
c29 0 47 -16 54 -40l151 -427l144 428c8 23 25 39 54 39s46 -16 54 -39zM653 794c0 -33 -27 -60 -61 -60c-33 0 -60 27 -60 60c0 34 27 61 60 61c34 0 61 -27 61 -61zM443 794c0 -33 -27 -60 -60 -60s-61 27 -61 60c0 34 27 61 61 61c33 0 60 -27 60 -61z" />
    <glyph glyph-name="wdieresis" unicode="&#x1e85;" horiz-adv-x="668" 
d="M383 406l83 -230l70 232c7 22 22 34 47 34c31 0 55 -21 55 -52c0 -6 -2 -14 -4 -20l-115 -344c-7 -21 -24 -34 -51 -34s-42 15 -50 36l-84 242l-84 -242c-8 -21 -23 -36 -50 -36s-44 13 -51 34l-115 344c-2 6 -4 14 -4 20c0 31 24 52 55 52c25 0 40 -12 47 -34l70 -232
l83 230c8 22 24 36 49 36s41 -14 49 -36zM489 558c0 -33 -27 -60 -61 -60c-33 0 -60 27 -60 60c0 34 27 61 60 61c34 0 61 -27 61 -61zM300 558c0 -33 -27 -60 -60 -60s-61 27 -61 60c0 34 27 61 61 61c33 0 60 -27 60 -61z" />
    <glyph glyph-name="Ygrave" unicode="&#x1ef2;" horiz-adv-x="588" 
d="M355 54c0 -34 -26 -62 -60 -62s-62 28 -62 62v239l-212 290c-7 11 -11 23 -11 34c0 30 25 57 55 57c20 0 35 -9 47 -25l182 -248l182 248c12 16 27 25 47 25c30 0 55 -27 55 -57c0 -11 -3 -23 -11 -34l-212 -290v-239zM236 879c18 0 29 -7 38 -19l47 -61
c7 -8 12 -18 12 -30c0 -25 -25 -46 -48 -46c-20 0 -30 7 -39 19l-45 61c-6 8 -11 19 -11 29c0 29 20 47 46 47z" />
    <glyph glyph-name="ygrave" unicode="&#x1ef3;" horiz-adv-x="464" 
d="M322 61c-47 -116 -104 -200 -186 -249c-8 -5 -17 -7 -27 -7c-29 0 -54 23 -54 50c0 21 10 34 29 49c42 33 67 58 89 108l-143 353c-3 7 -5 14 -5 22c0 30 22 55 54 55c26 0 42 -12 50 -32l112 -288l94 288c6 20 21 32 50 32c32 0 53 -25 53 -55c0 -8 -2 -17 -4 -22
c-25 -76 -66 -190 -112 -304zM178 666c18 0 29 -7 38 -19l60 -78c7 -8 12 -18 12 -30c0 -25 -25 -46 -48 -46c-20 0 -30 7 -39 19l-58 78c-6 8 -11 19 -11 29c0 29 20 47 46 47z" />
    <glyph glyph-name="endash" unicode="&#x2013;" horiz-adv-x="604" 
d="M544 248c0 -28 -24 -51 -52 -51h-380c-28 0 -52 23 -52 51c0 29 24 52 52 52h380c28 0 52 -23 52 -52z" />
    <glyph glyph-name="emdash" unicode="&#x2014;" horiz-adv-x="868" 
d="M808 248c0 -28 -24 -51 -52 -51h-644c-28 0 -52 23 -52 51c0 29 24 52 52 52h644c28 0 52 -23 52 -52z" />
    <glyph glyph-name="quoteleft" unicode="&#x2018;" horiz-adv-x="249" 
d="M60 456c0 60 7 126 46 186c12 19 29 33 51 33c34 0 52 -21 52 -42c0 -15 -5 -22 -11 -33c-28 -51 -32 -85 -32 -139v-30c0 -32 -19 -56 -53 -56s-53 23 -53 56v25z" />
    <glyph glyph-name="quoteright" unicode="&#x2019;" horiz-adv-x="249" 
d="M209 594c0 -60 -7 -126 -46 -186c-12 -19 -29 -33 -51 -33c-34 0 -52 21 -52 42c0 15 5 22 11 33c28 51 32 85 32 139v30c0 32 19 56 53 56s53 -23 53 -56v-25z" />
    <glyph glyph-name="quotesinglbase" unicode="&#x201a;" horiz-adv-x="246" 
d="M181 49c0 -60 -7 -126 -46 -186c-12 -19 -29 -33 -51 -33c-34 0 -52 21 -52 42c0 15 5 22 11 33c28 51 32 85 32 139v30c0 32 19 56 53 56s53 -23 53 -56v-25z" />
    <glyph glyph-name="quotedblleft" unicode="&#x201c;" horiz-adv-x="460" 
d="M271 456c0 60 7 126 46 186c12 19 29 33 51 33c34 0 52 -21 52 -42c0 -15 -5 -22 -11 -33c-28 -51 -32 -85 -32 -139v-30c0 -32 -19 -56 -53 -56s-53 23 -53 56v25zM60 456c0 60 7 126 46 186c12 19 29 33 51 33c34 0 52 -21 52 -42c0 -15 -5 -22 -11 -33
c-28 -51 -32 -85 -32 -139v-30c0 -32 -19 -56 -53 -56s-53 23 -53 56v25z" />
    <glyph glyph-name="quotedblright" unicode="&#x201d;" horiz-adv-x="460" 
d="M209 594c0 -60 -7 -126 -46 -186c-12 -19 -29 -33 -51 -33c-34 0 -52 21 -52 42c0 15 5 22 11 33c28 51 32 85 32 139v30c0 32 19 56 53 56s53 -23 53 -56v-25zM420 594c0 -60 -7 -126 -46 -186c-12 -19 -29 -33 -51 -33c-34 0 -52 21 -52 42c0 15 5 22 11 33
c28 51 32 85 32 139v30c0 32 19 56 53 56s53 -23 53 -56v-25z" />
    <glyph glyph-name="quotedblbase" unicode="&#x201e;" horiz-adv-x="457" 
d="M181 49c0 -60 -7 -126 -46 -186c-12 -19 -29 -33 -51 -33c-34 0 -52 21 -52 42c0 15 5 22 11 33c28 51 32 85 32 139v30c0 32 19 56 53 56s53 -23 53 -56v-25zM392 49c0 -60 -7 -126 -46 -186c-12 -19 -29 -33 -51 -33c-34 0 -52 21 -52 42c0 15 5 22 11 33
c28 51 32 85 32 139v30c0 32 19 56 53 56s53 -23 53 -56v-25z" />
    <glyph glyph-name="dagger" unicode="&#x2020;" horiz-adv-x="457" 
d="M407 467c0 -24 -18 -43 -42 -43h-90v-457c0 -26 -21 -47 -47 -47s-46 21 -46 47v457h-89c-24 0 -43 19 -43 43s19 42 43 42h89v118c0 26 20 47 46 47s47 -21 47 -47v-118h90c24 0 42 -18 42 -42z" />
    <glyph glyph-name="daggerdbl" unicode="&#x2021;" horiz-adv-x="487" 
d="M422 126c0 -24 -19 -43 -43 -43h-89v-116c0 -26 -21 -47 -47 -47s-47 21 -47 47v116h-88c-24 0 -43 19 -43 43s19 43 43 43h88v255h-88c-24 0 -43 19 -43 43s19 43 43 43h88v117c0 26 21 47 47 47s47 -21 47 -47v-117h89c24 0 43 -19 43 -43s-19 -43 -43 -43h-89v-255h89
c24 0 43 -19 43 -43z" />
    <glyph glyph-name="bullet" unicode="&#x2022;" horiz-adv-x="374" 
d="M314 317c0 -70 -57 -127 -127 -127s-127 57 -127 127s57 127 127 127s127 -57 127 -127z" />
    <glyph glyph-name="ellipsis" unicode="&#x2026;" horiz-adv-x="772" 
d="M712 62c0 -38 -31 -69 -69 -69s-69 31 -69 69s31 68 69 68s69 -30 69 -68zM454 62c0 -38 -30 -69 -68 -69s-69 31 -69 69s31 68 69 68s68 -30 68 -68zM197 62c0 -38 -31 -69 -69 -69s-68 31 -68 69s30 68 68 68s69 -30 69 -68z" />
    <glyph glyph-name="perthousand" unicode="&#x2030;" horiz-adv-x="1258" 
d="M383 513c0 -92 -71 -165 -169 -165s-169 73 -169 165s71 165 169 165s169 -73 169 -165zM288 513c0 45 -30 81 -74 81s-74 -36 -74 -81s30 -81 74 -81s74 36 74 81zM252 8c-9 -13 -23 -20 -37 -20c-28 0 -46 24 -46 47c0 9 3 19 9 27l428 596c9 13 23 20 37 20
c27 0 47 -21 47 -46c0 -9 -3 -19 -9 -28zM810 153c0 -92 -71 -165 -169 -165s-169 73 -169 165s71 165 169 165s169 -73 169 -165zM715 153c0 45 -30 81 -74 81s-74 -36 -74 -81s30 -81 74 -81s74 36 74 81zM1208 153c0 -92 -71 -165 -169 -165s-169 73 -169 165
s71 165 169 165s169 -73 169 -165zM1113 153c0 45 -30 81 -74 81s-74 -36 -74 -81s30 -81 74 -81s74 36 74 81z" />
    <glyph glyph-name="guilsinglleft" unicode="&#x2039;" horiz-adv-x="353" 
d="M288 83c0 -27 -23 -48 -49 -48c-12 0 -23 5 -31 13l-143 133c-10 8 -15 20 -15 32c0 14 5 26 15 35l142 131c9 8 20 14 32 14c26 0 48 -21 48 -48c0 -13 -5 -25 -15 -34l-106 -98l107 -98c10 -9 15 -20 15 -32z" />
    <glyph glyph-name="guilsinglright" unicode="&#x203a;" horiz-adv-x="353" 
d="M65 83c0 12 5 23 15 32l107 98l-106 98c-10 9 -15 21 -15 34c0 27 22 48 48 48c12 0 23 -6 32 -14l142 -131c10 -9 15 -21 15 -35c0 -12 -5 -24 -15 -32l-143 -133c-8 -8 -19 -13 -31 -13c-26 0 -49 21 -49 48z" />
    <glyph glyph-name="fraction" unicode="&#x2044;" horiz-adv-x="506" 
d="M80 5c-7 -11 -17 -17 -31 -17c-23 0 -39 19 -39 38c0 7 2 14 7 21l409 614c8 11 20 17 32 17c24 0 38 -19 38 -38c0 -7 -2 -15 -6 -21z" />
    <glyph glyph-name="Euro" unicode="&#x20ac;" horiz-adv-x="692" 
d="M134 368h-68c-20 0 -36 16 -36 36s16 36 36 36h79c33 141 133 238 279 238c93 0 166 -47 205 -96c10 -13 18 -25 18 -41c0 -31 -27 -50 -53 -50c-20 0 -33 8 -45 23c-31 39 -69 64 -120 64c-83 0 -140 -53 -165 -138h168c20 0 36 -16 36 -36s-16 -36 -36 -36h-181
c-1 -11 -1 -23 -1 -35s0 -24 1 -35h181c20 0 36 -16 36 -36s-16 -36 -36 -36h-168c25 -85 82 -138 165 -138c51 0 89 25 120 64c12 15 25 23 45 23c26 0 53 -19 53 -50c0 -16 -8 -28 -18 -41c-39 -49 -112 -96 -205 -96c-146 0 -246 97 -279 238h-79c-20 0 -36 16 -36 36
s16 36 36 36h68c-1 11 -1 23 -1 35s0 24 1 35z" />
    <glyph glyph-name="uni2113" unicode="&#x2113;" horiz-adv-x="608" 
d="M43 230c41 14 82 29 121 45v206c0 129 84 197 208 197c117 0 186 -70 186 -168c0 -117 -101 -214 -274 -289v-45c0 -51 20 -86 95 -86c38 0 71 11 108 23c7 2 14 3 20 3c29 0 48 -18 48 -49c0 -23 -12 -41 -41 -53c-40 -16 -93 -26 -146 -26c-144 0 -203 80 -204 185
c-28 -10 -57 -20 -86 -29c-7 -2 -13 -3 -19 -3c-29 0 -47 23 -47 47c0 20 9 34 31 42zM284 482v-152c101 48 160 103 160 175c0 41 -27 71 -73 71c-54 0 -87 -33 -87 -94z" />
    <glyph glyph-name="uni2116" unicode="&#x2116;" horiz-adv-x="1118" 
d="M652 49c0 -31 -24 -57 -58 -57c-19 0 -33 7 -44 21l-345 436v-400c0 -32 -26 -57 -58 -57c-31 0 -57 26 -57 57v567c0 31 23 58 60 58c16 0 33 -9 42 -21l345 -436v399c0 31 23 58 57 58s58 -27 58 -58v-567zM1063 525c0 -89 -62 -153 -158 -153s-158 64 -158 153
s62 153 158 153s158 -64 158 -153zM978 525c0 45 -29 80 -73 80s-73 -35 -73 -80s29 -80 73 -80s73 35 73 80zM1061 277c0 -26 -21 -43 -47 -43h-218c-26 0 -47 17 -47 43s21 43 47 43h218c26 0 47 -17 47 -43z" />
    <glyph glyph-name="trademark" unicode="&#x2122;" horiz-adv-x="732" 
d="M662 395c0 -15 -12 -27 -28 -27c-15 0 -27 12 -27 27v131c-71 -144 -72 -144 -72 -144c-5 -9 -13 -14 -23 -14c-12 0 -19 4 -24 14l-71 144v-131c0 -15 -12 -27 -28 -27s-28 12 -28 27v247c0 16 12 28 28 28c12 0 21 -7 26 -17l97 -198l97 198c4 10 13 17 25 17
c16 0 28 -12 28 -28v-247zM312 639c0 -16 -12 -28 -28 -28h-82v-214c0 -17 -13 -29 -29 -29c-17 0 -30 12 -30 29v214h-80c-16 0 -28 12 -28 28c0 15 12 27 28 27h221c16 0 28 -12 28 -27z" />
    <glyph glyph-name="estimated" unicode="&#x212e;" horiz-adv-x="834" 
d="M774 333v-6c0 -9 -7 -16 -16 -16h-556v-213c54 -45 127 -77 215 -77c114 0 195 39 279 119c5 5 9 7 15 7c10 0 17 -8 17 -16c0 -6 -3 -10 -7 -14c-78 -74 -166 -129 -304 -129c-202 0 -357 162 -357 345c0 187 163 345 357 345s357 -162 357 -345zM417 645
c-88 0 -159 -32 -215 -81v-221h430v221c-56 49 -128 81 -215 81z" />
    <glyph glyph-name="partialdiff" unicode="&#x2202;" horiz-adv-x="541" 
d="M491 314c0 -169 -69 -326 -262 -326c-114 0 -184 81 -184 176c0 142 81 250 238 250c33 0 64 -10 91 -28c-23 102 -75 155 -144 206c-14 11 -17 23 -17 35c0 33 22 51 57 51c15 0 32 -8 43 -17c92 -70 178 -182 178 -347zM242 93c76 0 120 62 120 131c0 48 -27 85 -79 85
c-71 0 -119 -50 -119 -132c0 -52 33 -84 78 -84z" />
    <glyph glyph-name="Delta" unicode="&#x2206;" horiz-adv-x="714" 
d="M104 0c-33 0 -57 34 -46 66l251 575c8 20 25 33 48 33s39 -13 48 -33l251 -575c10 -29 -7 -66 -43 -66h-509zM357 497l-162 -393h323z" />
    <glyph glyph-name="product" unicode="&#x220f;" horiz-adv-x="763" 
d="M476 46v522h-189v-522c0 -30 -24 -54 -54 -54s-54 24 -54 54v522h-90c-27 0 -49 22 -49 49c0 26 22 49 49 49h585c27 0 49 -23 49 -49c0 -27 -22 -49 -49 -49h-90v-522c0 -30 -24 -54 -54 -54s-54 24 -54 54z" />
    <glyph glyph-name="summation" unicode="&#x2211;" horiz-adv-x="569" 
d="M55 -17c0 11 2 18 7 26l259 332l-258 331c-5 8 -8 18 -8 28c0 28 21 50 50 50h354c28 0 50 -22 50 -50s-22 -51 -50 -51h-247l219 -279c7 -9 9 -21 9 -29s-2 -17 -9 -29l-219 -279h247c28 0 50 -22 50 -50s-22 -51 -50 -51h-354c-28 0 -50 23 -50 51z" />
    <glyph glyph-name="minus" unicode="&#x2212;" horiz-adv-x="514" 
d="M444 298c0 -28 -24 -51 -52 -51h-270c-28 0 -52 23 -52 51c0 29 24 52 52 52h270c28 0 52 -23 52 -52z" />
    <glyph glyph-name="radical" unicode="&#x221a;" horiz-adv-x="542" 
d="M214 14l-146 206c-7 11 -8 19 -8 29c0 27 24 50 51 50c17 0 31 -8 42 -23l85 -121l145 486c7 23 26 37 48 37c31 0 51 -23 51 -52c0 -4 -1 -11 -3 -17l-174 -582c-7 -24 -26 -35 -52 -35c-16 0 -29 8 -39 22z" />
    <glyph glyph-name="infinity" unicode="&#x221e;" horiz-adv-x="803" 
d="M151 232c0 -43 32 -61 73 -61c37 0 76 24 115 61c-39 35 -78 60 -115 60c-41 0 -73 -17 -73 -60zM653 232c0 45 -42 60 -74 60c-37 0 -75 -25 -115 -60c40 -37 78 -61 115 -61c41 0 74 16 74 61zM402 292c54 49 105 87 173 87c96 0 173 -49 173 -147s-80 -148 -173 -148
c-68 0 -120 41 -173 89c-54 -48 -106 -89 -174 -89c-92 0 -173 45 -173 148s78 147 173 147c68 0 121 -42 174 -87z" />
    <glyph glyph-name="integral" unicode="&#x222b;" horiz-adv-x="424" 
d="M260 523v-552c0 -97 -52 -166 -164 -166h-19c-26 0 -47 21 -47 47c0 27 21 48 47 48h8c35 0 60 18 60 60v552c0 97 51 166 163 166h19c26 0 47 -21 47 -47c0 -27 -21 -48 -47 -48h-8c-35 0 -59 -18 -59 -60z" />
    <glyph glyph-name="approxequal" unicode="&#x2248;" horiz-adv-x="538" 
d="M415 454c6 6 14 8 22 8c23 0 41 -17 41 -40c0 -28 -60 -92 -134 -92c-63 0 -81 47 -137 47c-41 0 -68 -38 -95 -38c-19 0 -42 16 -42 38c0 37 63 95 140 95c66 0 100 -50 138 -50c30 0 46 14 67 32zM415 276c6 6 14 8 22 8c22 0 41 -17 41 -40c0 -28 -60 -92 -134 -92
c-63 0 -81 48 -137 48c-41 0 -68 -39 -95 -39c-19 0 -42 16 -42 39c0 36 63 94 140 94c66 0 100 -50 138 -50c30 0 46 14 67 32z" />
    <glyph glyph-name="notequal" unicode="&#x2260;" horiz-adv-x="566" 
d="M212 127c-5 -9 -12 -14 -24 -14c-17 0 -27 12 -27 25c0 5 1 10 3 15l18 36h-60c-26 0 -47 21 -47 47s21 47 47 47h108l40 82h-148c-26 0 -47 21 -47 47s21 47 47 47h196l33 65c4 10 13 15 24 15c17 0 27 -13 27 -26c0 -6 -1 -10 -3 -15l-20 -39h65c26 0 47 -21 47 -47
s-21 -47 -47 -47h-113l-40 -82h153c26 0 47 -21 47 -47s-21 -47 -47 -47h-201z" />
    <glyph glyph-name="lessequal" unicode="&#x2264;" horiz-adv-x="599" 
d="M529 49c0 -28 -21 -49 -48 -49h-367c-28 0 -49 21 -49 49c0 26 21 47 49 47h367c27 0 48 -21 48 -47zM103 296c-16 10 -27 23 -27 44s11 33 27 43l315 146c7 3 17 7 25 7c23 0 46 -20 46 -49c0 -17 -8 -32 -24 -41l-240 -106l240 -106c16 -9 24 -22 24 -40
c0 -30 -24 -50 -46 -50c-9 0 -17 3 -25 7z" />
    <glyph glyph-name="greaterequal" unicode="&#x2265;" horiz-adv-x="599" 
d="M70 49c0 26 21 47 48 47h367c28 0 49 -21 49 -47c0 -28 -21 -49 -49 -49h-367c-27 0 -48 21 -48 49zM496 296l-315 -145c-8 -4 -16 -7 -25 -7c-22 0 -46 20 -46 50c0 18 8 31 24 40l240 106l-240 106c-16 9 -24 24 -24 41c0 29 23 49 46 49c8 0 18 -4 25 -7l315 -146
c16 -10 27 -22 27 -43s-11 -34 -27 -44z" />
    <glyph glyph-name="lozenge" unicode="&#x25ca;" horiz-adv-x="694" 
d="M55 333c0 9 4 15 9 21l245 297c10 13 21 23 38 23s28 -10 38 -23l245 -297c5 -6 9 -12 9 -21s-4 -15 -9 -21l-245 -297c-10 -13 -21 -23 -38 -23s-28 10 -38 23l-245 297c-5 6 -9 12 -9 21zM347 127l168 206l-168 206l-168 -206z" />
    <glyph glyph-name="apple" unicode="&#xf8ff;" horiz-adv-x="831" 
d="M756 333h-333v-333h-333v666h666v-333z" />
    <glyph glyph-name="Acute" horiz-adv-x="323" 
d="M207 879c26 0 46 -18 46 -47c0 -10 -5 -21 -11 -29l-45 -61c-9 -12 -19 -19 -39 -19c-23 0 -48 21 -48 46c0 12 5 22 12 30l47 61c9 12 20 19 38 19z" />
    <glyph glyph-name="Breve" horiz-adv-x="441" 
d="M366 830c0 -71 -55 -112 -146 -112s-145 40 -145 114c0 20 17 34 36 35s40 -11 40 -38c0 -29 26 -44 69 -44s69 14 69 44c0 24 19 37 37 37c20 0 40 -12 40 -36z" />
    <glyph glyph-name="Caron" horiz-adv-x="420" 
d="M331 800l-95 -73c-9 -7 -16 -11 -26 -11s-17 4 -26 11l-95 73c-8 7 -14 15 -14 29c0 21 20 39 40 39c9 0 18 -3 26 -9l69 -53l69 53c8 6 17 9 26 9c20 0 40 -18 40 -39c0 -14 -6 -22 -14 -29z" />
    <glyph glyph-name="Circumflex" horiz-adv-x="420" 
d="M236 858l95 -73c8 -7 14 -15 14 -29c0 -21 -20 -39 -40 -39c-9 0 -18 3 -26 9l-69 53l-69 -53c-8 -6 -17 -9 -26 -9c-20 0 -40 18 -40 39c0 14 6 22 14 29l95 73c9 7 16 11 26 11s17 -4 26 -11z" />
    <glyph glyph-name="commaaccent" horiz-adv-x="356" 
d="M231 -131c0 -38 -10 -91 -24 -124c-9 -21 -23 -37 -52 -37c-36 0 -52 21 -52 42c0 15 5 25 9 38c9 32 13 54 13 85v11c0 32 19 56 53 56s53 -23 53 -56v-15z" />
    <glyph glyph-name="Dieresis" horiz-adv-x="481" 
d="M406 794c0 -33 -27 -60 -61 -60c-33 0 -60 27 -60 60c0 34 27 61 60 61c34 0 61 -27 61 -61zM196 794c0 -33 -27 -60 -60 -60s-61 27 -61 60c0 34 27 61 61 61c33 0 60 -27 60 -61z" />
    <glyph glyph-name="Dotaccent" horiz-adv-x="286" 
d="M75 794c0 38 30 68 68 68s68 -30 68 -68s-30 -68 -68 -68s-68 30 -68 68z" />
    <glyph glyph-name="Hungarumlaut" horiz-adv-x="506" 
d="M100 758c0 10 3 20 10 29l44 61c9 13 23 19 39 19c25 0 47 -20 47 -47c0 -9 -3 -18 -9 -27l-45 -60c-9 -11 -21 -20 -36 -20c-29 0 -50 18 -50 45zM296 758c0 10 3 20 10 29l44 61c9 13 23 19 39 19c25 0 47 -20 47 -47c0 -9 -3 -18 -9 -27l-45 -60
c-9 -11 -21 -20 -36 -20c-29 0 -50 18 -50 45z" />
    <glyph glyph-name="Grave" horiz-adv-x="323" 
d="M116 879c18 0 29 -7 38 -19l47 -61c7 -8 12 -18 12 -30c0 -25 -25 -46 -48 -46c-20 0 -30 7 -39 19l-45 61c-6 8 -11 19 -11 29c0 29 20 47 46 47z" />
    <glyph glyph-name="Macron" horiz-adv-x="465" 
d="M349 743h-233c-22 0 -41 17 -41 41s19 41 41 41h233c22 0 41 -17 41 -41s-19 -41 -41 -41z" />
    <glyph glyph-name="Ring" horiz-adv-x="320" 
d="M245 791c0 -47 -37 -79 -85 -79s-85 32 -85 79c0 48 37 79 85 79s85 -31 85 -79zM197 791c0 19 -14 35 -37 35c-22 0 -37 -16 -37 -35s15 -35 37 -35c23 0 37 16 37 35z" />
    <glyph glyph-name="Tilde" horiz-adv-x="429" 
d="M369 810c0 -40 -47 -70 -91 -70c-39 0 -71 32 -104 32c-37 0 -42 -32 -70 -32c-21 0 -39 16 -39 37c0 40 51 74 101 74c43 0 73 -30 104 -30c27 0 41 26 62 26c19 0 37 -14 37 -37z" />
    <glyph glyph-name="a.salt" horiz-adv-x="568" 
d="M498 382v-330c0 -33 -23 -60 -58 -60s-58 28 -58 61v7c-29 -47 -78 -72 -137 -72c-133 0 -203 111 -203 229s71 229 203 229c52 0 104 -22 133 -71v7c0 33 27 60 60 60s60 -27 60 -60zM162 217c0 -70 40 -127 109 -127s107 60 107 127s-39 127 -107 127
c-69 0 -109 -57 -109 -127z" />
    <glyph glyph-name="y.salt" horiz-adv-x="560" 
d="M185 210c0 -58 29 -104 91 -104c67 0 94 51 94 104v172c0 33 27 60 60 60s60 -27 60 -60v-355c0 -143 -68 -222 -233 -222c-52 0 -103 12 -142 32c-20 10 -32 29 -32 49c0 31 21 44 48 44c19 0 32 -5 54 -15c20 -9 45 -15 77 -15c87 0 108 40 108 117v54
c-24 -44 -67 -73 -129 -73c-112 0 -176 86 -176 206v178c0 33 27 60 60 60s60 -27 60 -60v-172z" />
    <glyph glyph-name="aacute.salt" horiz-adv-x="568" 
d="M340 666c26 0 46 -18 46 -47c0 -10 -5 -21 -11 -29l-58 -78c-9 -12 -19 -19 -39 -19c-23 0 -48 21 -48 46c0 12 5 22 12 30l60 78c9 12 20 19 38 19zM498 382v-330c0 -33 -23 -60 -58 -60s-58 28 -58 61v7c-29 -47 -78 -72 -137 -72c-133 0 -203 111 -203 229
s71 229 203 229c52 0 104 -22 133 -71v7c0 33 27 60 60 60s60 -27 60 -60zM162 217c0 -70 40 -127 109 -127s107 60 107 127s-39 127 -107 127c-69 0 -109 -57 -109 -127z" />
    <glyph glyph-name="abreve.salt" horiz-adv-x="568" 
d="M498 382v-330c0 -33 -23 -60 -58 -60s-58 28 -58 61v7c-29 -47 -78 -72 -137 -72c-133 0 -203 111 -203 229s71 229 203 229c52 0 104 -22 133 -71v7c0 33 27 60 60 60s60 -27 60 -60zM162 217c0 -70 40 -127 109 -127s107 60 107 127s-39 127 -107 127
c-69 0 -109 -57 -109 -127zM431 609c0 -71 -47 -122 -138 -122s-137 50 -137 124c0 20 17 34 36 35s40 -11 40 -38c0 -29 17 -54 61 -54s61 24 61 54c0 24 19 37 37 37c20 0 40 -12 40 -36z" />
    <glyph glyph-name="acircumflex.salt" horiz-adv-x="568" 
d="M266 649c8 7 16 10 26 10s19 -3 27 -10l100 -88c10 -10 13 -19 13 -30c0 -21 -19 -38 -39 -38c-9 0 -18 3 -26 9l-75 66l-74 -66c-8 -6 -17 -9 -26 -9c-20 0 -38 17 -38 38c0 11 4 22 12 30zM498 382v-330c0 -33 -23 -60 -58 -60s-58 28 -58 61v7
c-29 -47 -78 -72 -137 -72c-133 0 -203 111 -203 229s71 229 203 229c52 0 104 -22 133 -71v7c0 33 27 60 60 60s60 -27 60 -60zM162 217c0 -70 40 -127 109 -127s107 60 107 127s-39 127 -107 127c-69 0 -109 -57 -109 -127z" />
    <glyph glyph-name="adieresis.salt" horiz-adv-x="568" 
d="M447 558c0 -33 -27 -60 -61 -60c-33 0 -60 27 -60 60c0 34 27 61 60 61c34 0 61 -27 61 -61zM258 558c0 -33 -27 -60 -60 -60s-61 27 -61 60c0 34 27 61 61 61c33 0 60 -27 60 -61zM498 382v-330c0 -33 -23 -60 -58 -60s-58 28 -58 61v7c-29 -47 -78 -72 -137 -72
c-133 0 -203 111 -203 229s71 229 203 229c52 0 104 -22 133 -71v7c0 33 27 60 60 60s60 -27 60 -60zM162 217c0 -70 40 -127 109 -127s107 60 107 127s-39 127 -107 127c-69 0 -109 -57 -109 -127z" />
    <glyph glyph-name="agrave.salt" horiz-adv-x="568" 
d="M219 666c18 0 29 -7 38 -19l60 -78c7 -8 12 -18 12 -30c0 -25 -25 -46 -48 -46c-20 0 -30 7 -39 19l-58 78c-6 8 -11 19 -11 29c0 29 20 47 46 47zM498 382v-330c0 -33 -23 -60 -58 -60s-58 28 -58 61v7c-29 -47 -78 -72 -137 -72c-133 0 -203 111 -203 229
s71 229 203 229c52 0 104 -22 133 -71v7c0 33 27 60 60 60s60 -27 60 -60zM162 217c0 -70 40 -127 109 -127s107 60 107 127s-39 127 -107 127c-69 0 -109 -57 -109 -127z" />
    <glyph glyph-name="amacron.salt" horiz-adv-x="568" 
d="M498 382v-330c0 -33 -23 -60 -58 -60s-58 28 -58 61v7c-29 -47 -78 -72 -137 -72c-133 0 -203 111 -203 229s71 229 203 229c52 0 104 -22 133 -71v7c0 33 27 60 60 60s60 -27 60 -60zM162 217c0 -70 40 -127 109 -127s107 60 107 127s-39 127 -107 127
c-69 0 -109 -57 -109 -127zM443 561c0 -20 -19 -39 -39 -39h-219c-20 0 -38 19 -38 39s18 38 38 38h219c20 0 39 -18 39 -38z" />
    <glyph glyph-name="aogonek.salt" horiz-adv-x="568" 
d="M496 -140c0 -28 -35 -45 -87 -45c-67 0 -96 35 -96 75c0 55 63 94 103 107c-21 9 -34 31 -34 56v7c-29 -47 -78 -72 -137 -72c-133 0 -203 111 -203 229s71 229 203 229c52 0 104 -22 133 -71v7c0 33 27 60 60 60s60 -27 60 -60v-330c0 -27 -11 -41 -33 -55
c-42 -27 -62 -60 -62 -88c0 -14 7 -25 27 -25c15 0 27 5 40 5c16 0 26 -13 26 -29zM162 217c0 -70 40 -127 109 -127s107 60 107 127s-39 127 -107 127c-69 0 -109 -57 -109 -127z" />
    <glyph glyph-name="aring.salt" horiz-adv-x="568" 
d="M377 563c0 -46 -37 -82 -85 -82c-46 0 -85 36 -85 82c0 48 39 82 85 82c48 0 85 -34 85 -82zM330 563c0 22 -15 37 -38 37c-22 0 -37 -15 -37 -37c0 -21 14 -37 37 -37c24 0 38 16 38 37zM498 382v-330c0 -33 -23 -60 -58 -60s-58 28 -58 61v7c-29 -47 -78 -72 -137 -72
c-133 0 -203 111 -203 229s71 229 203 229c52 0 104 -22 133 -71v7c0 33 27 60 60 60s60 -27 60 -60zM162 217c0 -70 40 -127 109 -127s107 60 107 127s-39 127 -107 127c-69 0 -109 -57 -109 -127z" />
    <glyph glyph-name="aringacute.salt" horiz-adv-x="568" 
d="M498 382v-330c0 -33 -23 -60 -58 -60s-58 28 -58 61v7c-29 -47 -78 -72 -137 -72c-133 0 -203 111 -203 229s71 229 203 229c52 0 104 -22 133 -71v7c0 33 27 60 60 60s60 -27 60 -60zM162 217c0 -70 40 -127 109 -127s107 60 107 127s-39 127 -107 127
c-69 0 -109 -57 -109 -127zM364 563c0 -46 -37 -82 -85 -82c-47 0 -85 35 -85 82c0 48 39 82 85 82c48 0 85 -34 85 -82zM310 563c0 20 -13 33 -31 33s-31 -13 -31 -33s13 -33 31 -33s31 13 31 33zM322 822c26 0 46 -18 46 -47c0 -10 -5 -21 -11 -29l-32 -44
c-9 -12 -19 -19 -39 -19c-23 0 -48 21 -48 46c0 12 5 22 12 30l34 44c9 12 20 19 38 19z" />
    <glyph glyph-name="atilde.salt" horiz-adv-x="568" 
d="M443 569c0 -40 -47 -70 -91 -70c-39 0 -71 32 -104 32c-37 0 -42 -32 -70 -32c-21 0 -39 16 -39 37c0 40 51 74 101 74c43 0 73 -30 104 -30c27 0 41 26 62 26c19 0 37 -14 37 -37zM498 382v-330c0 -33 -23 -60 -58 -60s-58 28 -58 61v7c-29 -47 -78 -72 -137 -72
c-133 0 -203 111 -203 229s71 229 203 229c52 0 104 -22 133 -71v7c0 33 27 60 60 60s60 -27 60 -60zM162 217c0 -70 40 -127 109 -127s107 60 107 127s-39 127 -107 127c-69 0 -109 -57 -109 -127z" />
    <glyph glyph-name="yacute.salt" horiz-adv-x="560" 
d="M341 666c26 0 46 -18 46 -47c0 -10 -5 -21 -11 -29l-58 -78c-9 -12 -19 -19 -39 -19c-23 0 -48 21 -48 46c0 12 5 22 12 30l60 78c9 12 20 19 38 19zM185 210c0 -58 29 -104 91 -104c67 0 94 51 94 104v172c0 33 27 60 60 60s60 -27 60 -60v-355
c0 -143 -68 -222 -233 -222c-52 0 -103 12 -142 32c-20 10 -32 29 -32 49c0 31 21 44 48 44c19 0 32 -5 54 -15c20 -9 45 -15 77 -15c87 0 108 40 108 117v54c-24 -44 -67 -73 -129 -73c-112 0 -176 86 -176 206v178c0 33 27 60 60 60s60 -27 60 -60v-172z" />
    <glyph glyph-name="ycircumflex.salt" horiz-adv-x="560" 
d="M185 210c0 -58 29 -104 91 -104c67 0 94 51 94 104v172c0 33 27 60 60 60s60 -27 60 -60v-355c0 -143 -68 -222 -233 -222c-52 0 -103 12 -142 32c-20 10 -32 29 -32 49c0 31 21 44 48 44c19 0 32 -5 54 -15c20 -9 45 -15 77 -15c87 0 108 40 108 117v54
c-24 -44 -67 -73 -129 -73c-112 0 -176 86 -176 206v178c0 33 27 60 60 60s60 -27 60 -60v-172zM259 649c8 7 16 10 26 10s19 -3 27 -10l100 -88c10 -10 13 -19 13 -30c0 -21 -19 -38 -39 -38c-9 0 -18 3 -26 9l-75 66l-74 -66c-8 -6 -17 -9 -26 -9c-20 0 -38 17 -38 38
c0 11 4 22 12 30z" />
    <glyph glyph-name="ydieresis.salt" horiz-adv-x="560" 
d="M438 558c0 -33 -27 -60 -61 -60c-33 0 -60 27 -60 60c0 34 27 61 60 61c34 0 61 -27 61 -61zM249 558c0 -33 -27 -60 -60 -60s-61 27 -61 60c0 34 27 61 61 61c33 0 60 -27 60 -61zM185 210c0 -58 29 -104 91 -104c67 0 94 51 94 104v172c0 33 27 60 60 60s60 -27 60 -60
v-355c0 -143 -68 -222 -233 -222c-52 0 -103 12 -142 32c-20 10 -32 29 -32 49c0 31 21 44 48 44c19 0 32 -5 54 -15c20 -9 45 -15 77 -15c87 0 108 40 108 117v54c-24 -44 -67 -73 -129 -73c-112 0 -176 86 -176 206v178c0 33 27 60 60 60s60 -27 60 -60v-172z" />
    <glyph glyph-name="ygrave.salt" horiz-adv-x="560" 
d="M185 210c0 -58 29 -104 91 -104c67 0 94 51 94 104v172c0 33 27 60 60 60s60 -27 60 -60v-355c0 -143 -68 -222 -233 -222c-52 0 -103 12 -142 32c-20 10 -32 29 -32 49c0 31 21 44 48 44c19 0 32 -5 54 -15c20 -9 45 -15 77 -15c87 0 108 40 108 117v54
c-24 -44 -67 -73 -129 -73c-112 0 -176 86 -176 206v178c0 33 27 60 60 60s60 -27 60 -60v-172zM229 666c18 0 29 -7 38 -19l60 -78c7 -8 12 -18 12 -30c0 -25 -25 -46 -48 -46c-20 0 -30 7 -39 19l-58 78c-6 8 -11 19 -11 29c0 29 20 47 46 47z" />
    <glyph glyph-name="minus.onum" horiz-adv-x="514" 
d="M444 248c0 -28 -24 -51 -52 -51h-270c-28 0 -52 23 -52 51c0 29 24 52 52 52h270c28 0 52 -23 52 -52z" />
    <glyph glyph-name="multiply.onum" horiz-adv-x="520" 
d="M435 83c0 -26 -22 -48 -48 -48c-13 0 -25 5 -34 14l-93 93l-93 -93c-9 -9 -21 -14 -34 -14c-26 0 -48 22 -48 48c0 13 5 25 14 34l93 93l-93 93c-9 9 -14 21 -14 34c0 27 21 49 48 49c13 0 25 -5 34 -14l93 -93l93 93c9 9 21 14 34 14c27 0 48 -21 48 -48
c0 -16 -5 -26 -14 -35l-93 -93l93 -93c9 -9 14 -21 14 -34z" />
    <glyph glyph-name="numbersign.onum" horiz-adv-x="723" 
d="M113 346c-23 0 -40 15 -40 38c0 28 18 49 50 49h78l10 92c3 29 22 49 53 49c32 0 46 -21 43 -49l-10 -92h173l10 92c3 29 20 49 53 49c32 0 46 -24 43 -49l-10 -92h76c22 0 39 -15 39 -40c0 -27 -20 -47 -49 -47h-76l-14 -134h76c22 0 39 -14 39 -38
c0 -28 -20 -49 -49 -49h-76l-8 -84c-3 -27 -18 -49 -53 -49c-29 0 -45 24 -43 49l8 84h-173l-9 -84c-3 -26 -18 -49 -53 -49c-30 0 -46 23 -43 49l9 84h-78c-22 0 -39 17 -39 39c0 32 22 48 49 48h78l14 134h-78zM287 346l-14 -134h173l14 134h-173z" />
    <glyph glyph-name="dollar.onum" horiz-adv-x="552" 
d="M231 -55v58c-53 8 -102 28 -140 52c-23 14 -33 28 -33 51c0 27 20 47 48 47c11 0 24 -3 37 -12c35 -23 85 -44 139 -44c60 0 99 24 99 63c0 44 -42 59 -120 82c-136 40 -189 85 -189 167c0 87 63 142 167 154v58c0 28 22 50 50 50s50 -22 50 -50v-59
c43 -6 78 -18 110 -32c24 -11 34 -25 34 -48c0 -25 -19 -49 -48 -49c-8 0 -17 2 -26 6c-34 15 -80 30 -127 30c-66 0 -94 -16 -94 -52c0 -35 34 -48 109 -71c138 -42 200 -78 200 -172c0 -90 -60 -155 -166 -171v-58c0 -28 -22 -50 -50 -50s-50 22 -50 50z" />
    <glyph glyph-name="plus.onum" horiz-adv-x="580" 
d="M515 217c0 -26 -22 -48 -48 -48h-124v-124c0 -29 -24 -53 -53 -53s-53 24 -53 53v124h-124c-27 0 -48 22 -48 48c0 27 21 48 48 48h124v124c0 29 24 53 53 53s53 -24 53 -53v-124h124c26 0 48 -22 48 -48z" />
    <glyph glyph-name="zero.onum" horiz-adv-x="608" 
d="M563 241c0 -146 -108 -253 -259 -253s-259 107 -259 253s108 253 259 253s259 -107 259 -253zM165 241c0 -87 56 -151 139 -151s139 64 139 151s-56 151 -139 151s-139 -64 -139 -151z" />
    <glyph glyph-name="one.onum" horiz-adv-x="394" 
d="M89 325c-4 -1 -8 -2 -12 -2c-29 0 -57 23 -57 56c0 26 13 44 39 52l175 52c6 2 14 4 20 4c35 0 60 -22 60 -61v-374c0 -33 -27 -60 -60 -60c-32 0 -60 27 -60 60v304z" />
    <glyph glyph-name="two.onum" horiz-adv-x="557" 
d="M517 50c0 -26 -19 -50 -51 -50h-351c-37 0 -60 25 -60 52c0 21 7 43 35 60c36 22 93 56 146 87c103 59 126 89 126 131c0 40 -29 61 -91 61c-45 0 -79 -12 -117 -26c-8 -3 -16 -5 -24 -5c-30 0 -49 22 -49 50c0 22 11 39 37 51c38 17 95 33 158 33
c125 0 206 -52 206 -153c0 -63 -23 -123 -112 -181c-41 -27 -73 -48 -101 -61h197c29 0 51 -20 51 -49z" />
    <glyph glyph-name="three.onum" horiz-adv-x="545" 
d="M500 10c0 -125 -107 -205 -254 -205c-78 0 -138 16 -201 53c-12 7 -23 20 -23 43c0 34 27 49 54 49c15 0 25 -6 37 -11c43 -20 80 -32 127 -32c90 0 140 41 140 101c0 76 -63 106 -168 106h-40c-31 0 -54 25 -54 54c0 33 23 54 54 54h5c108 0 173 43 173 99
c0 46 -33 71 -97 71c-44 0 -77 -14 -111 -28c-9 -4 -16 -5 -24 -5c-31 0 -50 23 -50 48c0 24 12 38 38 51c46 23 101 36 158 36c125 0 206 -61 206 -164c0 -61 -38 -122 -116 -152c78 -15 146 -65 146 -168z" />
    <glyph glyph-name="four.onum" horiz-adv-x="620" 
d="M558 14h-77v-150c0 -33 -25 -59 -58 -59s-58 26 -58 59v150h-288c-29 0 -52 18 -52 47c0 16 7 27 17 39l334 365c16 17 30 22 49 22c40 0 56 -26 56 -59v-320h77c30 0 52 -19 52 -47s-22 -47 -52 -47zM175 108h190v208z" />
    <glyph glyph-name="five.onum" horiz-adv-x="560" 
d="M525 20c0 -115 -89 -215 -263 -215c-61 0 -129 14 -187 49c-16 10 -25 25 -25 44c0 34 24 50 54 50c11 0 20 -4 30 -9c43 -23 79 -35 132 -35c101 0 140 53 140 113c0 70 -55 103 -135 103c-40 0 -68 -9 -101 -21c-8 -3 -17 -7 -30 -7c-41 0 -59 25 -55 54l39 287
c4 30 26 49 57 49h253c30 0 55 -24 55 -54c0 -29 -25 -52 -55 -52h-203l-22 -166c22 8 51 14 85 14c129 0 231 -72 231 -204z" />
    <glyph glyph-name="six.onum" horiz-adv-x="589" 
d="M394 574c-91 -51 -162 -100 -216 -215c37 41 90 65 154 65c138 0 215 -97 215 -215c0 -126 -98 -221 -249 -221c-156 0 -248 105 -248 244c0 167 81 288 190 372c43 33 112 74 164 74c30 0 50 -20 50 -42c0 -29 -19 -39 -60 -62zM431 210c0 62 -39 117 -124 117
c-81 0 -130 -52 -130 -123c0 -66 42 -119 126 -119c79 0 128 53 128 125z" />
    <glyph glyph-name="seven.onum" horiz-adv-x="514" 
d="M496 430c0 -17 -4 -29 -8 -38c-97 -203 -167 -343 -261 -539c-12 -25 -27 -48 -61 -48c-55 0 -63 53 -47 85c99 198 160 316 242 486h-286c-30 0 -53 24 -53 53c0 30 24 53 53 53h361c32 0 60 -17 60 -52z" />
    <glyph glyph-name="eight.onum" horiz-adv-x="620" 
d="M521 503c0 -57 -24 -101 -77 -137c62 -23 126 -75 126 -172c0 -112 -87 -206 -260 -206s-260 94 -260 206c0 97 64 149 126 172c-53 36 -77 80 -77 137c0 99 76 175 211 175s211 -76 211 -175zM310 87c92 0 141 49 141 108c0 67 -49 110 -141 110s-141 -43 -141 -110
c0 -59 49 -108 141 -108zM310 399c57 0 95 36 95 92c0 52 -33 89 -95 89s-95 -37 -95 -89c0 -56 38 -92 95 -92z" />
    <glyph glyph-name="nine.onum" horiz-adv-x="589" 
d="M214 -90c82 49 143 95 200 213c-37 -41 -90 -65 -154 -65c-138 0 -215 96 -215 214c0 127 103 222 249 222c156 0 245 -99 245 -243c0 -167 -70 -288 -179 -372c-43 -33 -110 -74 -162 -74c-33 0 -50 20 -50 42c0 31 25 39 66 63zM161 272c0 -62 39 -117 124 -117
c81 0 130 52 130 123c0 66 -42 119 -126 119c-79 0 -128 -53 -128 -125z" />
    <glyph glyph-name="less.onum" horiz-adv-x="554" 
d="M472 350l-287 -133l287 -133c19 -10 27 -22 27 -44c0 -30 -23 -52 -52 -52c-9 0 -19 2 -28 7l-346 176c-17 10 -28 24 -28 46s11 36 28 46l346 176c9 5 19 7 28 7c29 0 52 -22 52 -52c0 -22 -8 -34 -27 -44z" />
    <glyph glyph-name="equal.onum" horiz-adv-x="556" 
d="M481 299c0 -26 -21 -47 -47 -47h-312c-26 0 -47 21 -47 47s21 47 47 47h312c26 0 47 -21 47 -47zM481 123c0 -26 -21 -47 -47 -47h-312c-26 0 -47 21 -47 47s21 47 47 47h312c26 0 47 -21 47 -47z" />
    <glyph glyph-name="greater.onum" horiz-adv-x="554" 
d="M369 217l-287 133c-19 10 -27 22 -27 44c0 30 23 52 52 52c9 0 19 -2 28 -7l346 -176c17 -10 28 -24 28 -46s-11 -36 -28 -46l-346 -176c-9 -5 -19 -7 -28 -7c-29 0 -52 22 -52 52c0 22 8 34 27 44z" />
    <glyph glyph-name="cent.onum" horiz-adv-x="563" 
d="M264 -44v80c-115 22 -194 109 -194 225c0 115 79 203 194 224v81c0 28 22 50 50 50s50 -22 50 -50v-81c48 -8 94 -30 117 -54c11 -12 17 -24 17 -41c0 -27 -19 -46 -47 -46c-16 0 -25 3 -37 12c-16 12 -53 32 -96 32c-77 0 -128 -53 -128 -127s51 -127 128 -127
c43 0 76 17 96 32c12 9 21 12 37 12c28 0 47 -19 47 -46c0 -17 -6 -29 -17 -41c-23 -25 -69 -46 -117 -56v-79c0 -28 -22 -50 -50 -50s-50 22 -50 50z" />
    <glyph glyph-name="sterling.onum" horiz-adv-x="654" 
d="M333 233v-139h200c28 0 51 -17 51 -47s-23 -47 -51 -47h-422c-28 0 -51 17 -51 47s23 47 51 47h102v139h-92c-28 0 -51 17 -51 47s23 47 51 47h92v32c0 130 70 219 226 219c37 0 78 -7 120 -25c24 -10 40 -24 40 -50c0 -30 -20 -51 -55 -51c-7 0 -14 2 -21 4
c-31 10 -47 15 -82 15c-76 0 -108 -35 -108 -107v-37h164c28 0 51 -17 51 -47s-23 -47 -51 -47h-164z" />
    <glyph glyph-name="notequal.onum" horiz-adv-x="566" 
d="M212 14c-5 -9 -12 -14 -24 -14c-17 0 -27 12 -27 25c0 5 1 10 3 15l18 36h-55c-26 0 -47 21 -47 47s21 47 47 47h103l40 82h-143c-26 0 -47 21 -47 47s21 47 47 47h191l33 65c4 10 13 15 24 15c17 0 27 -13 27 -26c0 -6 -1 -10 -3 -15l-20 -39h60c26 0 47 -21 47 -47
s-21 -47 -47 -47h-108l-40 -82h148c26 0 47 -21 47 -47s-21 -47 -47 -47h-196z" />
    <glyph glyph-name="plusminus.onum" horiz-adv-x="610" 
d="M128 0c-27 0 -48 20 -48 46c0 27 21 46 48 46h124v121h-124c-27 0 -48 20 -48 46c0 27 21 46 48 46h124v106c0 29 24 53 53 53s53 -24 53 -53v-106h124c26 0 48 -20 48 -46s-22 -46 -48 -46h-124v-121h124c26 0 48 -20 48 -46s-22 -46 -48 -46h-354z" />
    <glyph glyph-name="yen.onum" horiz-adv-x="586" 
d="M530 491l-96 -150h56c20 0 36 -16 36 -36s-16 -36 -36 -36h-102l-36 -56v-8h138c20 0 36 -15 36 -35s-16 -35 -36 -35h-138v-81c0 -34 -25 -62 -59 -62s-59 28 -59 62v81h-138c-20 0 -36 15 -36 35s16 35 36 35h138v8l-36 56h-102c-20 0 -36 16 -36 36s16 36 36 36h56
l-96 150c-7 11 -11 23 -11 34c0 32 23 49 52 49c22 0 36 -9 48 -27l148 -244l148 244c12 18 26 27 48 27c29 0 52 -17 52 -49c0 -11 -4 -23 -11 -34z" />
    <glyph glyph-name="florin.onum" horiz-adv-x="535" 
d="M190 202h-54c-25 0 -44 18 -44 42c0 38 24 58 60 58h56l18 102c18 102 60 170 191 170h32c29 0 51 -13 51 -44c0 -29 -17 -56 -62 -56h-16c-42 0 -66 -18 -74 -63l-19 -109h81c25 0 42 -17 42 -41c0 -32 -23 -59 -60 -59h-81l-40 -230c-18 -102 -59 -167 -202 -167h-23
c-24 0 -41 17 -41 41c0 40 29 59 59 59h11c46 0 66 15 73 57z" />
    <glyph glyph-name="approxequal.onum" horiz-adv-x="568" 
d="M430 364c6 6 14 8 22 8c23 0 41 -17 41 -40c0 -28 -60 -92 -134 -92c-63 0 -81 47 -137 47c-41 0 -68 -38 -95 -38c-19 0 -42 16 -42 38c0 37 63 95 140 95c66 0 100 -50 138 -50c30 0 46 14 67 32zM430 186c6 6 14 8 22 8c22 0 41 -17 41 -40c0 -28 -60 -92 -134 -92
c-63 0 -81 48 -137 48c-41 0 -68 -39 -95 -39c-19 0 -42 16 -42 39c0 36 63 94 140 94c66 0 100 -50 138 -50c30 0 46 14 67 32z" />
    <glyph glyph-name="divide.onum" horiz-adv-x="600" 
d="M482 173h-364c-27 0 -48 22 -48 48c0 27 21 48 48 48h364c26 0 48 -22 48 -48s-22 -48 -48 -48zM359 71c0 -32 -27 -59 -59 -59c-33 0 -59 27 -59 59c0 33 26 59 59 59c32 0 59 -26 59 -59zM359 371c0 -32 -27 -59 -59 -59c-33 0 -59 27 -59 59c0 33 26 59 59 59
c32 0 59 -26 59 -59z" />
    <glyph glyph-name="Euro.onum" horiz-adv-x="678" 
d="M423 578c73 0 139 -23 182 -62c12 -11 18 -22 18 -41c0 -26 -20 -46 -48 -46c-16 0 -26 4 -37 12c-30 22 -63 36 -112 36c-76 0 -126 -35 -151 -90h180c19 0 35 -14 35 -35s-16 -35 -35 -35h-199c-1 -11 -2 -23 -2 -34c0 -12 1 -21 2 -34h199c19 0 35 -14 35 -35
s-16 -35 -35 -35h-180c25 -56 75 -90 151 -90c49 0 82 14 112 36c11 8 21 12 37 12c28 0 48 -20 48 -46c0 -19 -6 -30 -18 -41c-43 -39 -109 -62 -182 -62c-148 0 -239 82 -273 191h-75c-19 0 -35 14 -35 35s16 35 35 35h61c-1 11 -1 22 -1 34c0 11 0 23 1 34h-61
c-19 0 -35 14 -35 35s16 35 35 35h75c34 109 125 191 273 191z" />
    <glyph glyph-name="minus.tnum" 
d="M512 298c0 -28 -24 -51 -52 -51h-270c-28 0 -52 23 -52 51c0 29 24 52 52 52h270c28 0 52 -23 52 -52z" />
    <glyph glyph-name="multiply.tnum" 
d="M500 173c0 -26 -22 -48 -48 -48c-13 0 -25 5 -34 14l-93 93l-93 -93c-9 -9 -21 -14 -34 -14c-26 0 -48 22 -48 48c0 13 5 25 14 34l93 93l-93 93c-9 9 -14 21 -14 34c0 27 21 49 48 49c13 0 25 -5 34 -14l93 -93l93 93c9 9 21 14 34 14c27 0 48 -21 48 -48
c0 -16 -5 -26 -14 -35l-93 -93l93 -93c9 -9 14 -21 14 -34z" />
    <glyph glyph-name="numbersign.tnum" horiz-adv-x="735" 
d="M110 412c-23 0 -40 18 -40 40c0 26 16 50 50 50h81l13 123c3 27 23 49 54 49c25 0 44 -20 44 -44v-5l-13 -123h181l13 123c3 29 23 49 54 49c27 0 44 -20 44 -43v-6l-13 -123h83c22 0 39 -19 39 -41c0 -26 -20 -49 -49 -49h-83l-16 -150h83c22 0 39 -18 39 -40
c0 -26 -20 -50 -49 -50h-83l-14 -131c-3 -27 -22 -49 -54 -49c-24 0 -44 19 -44 44v5l14 131h-181l-14 -131c-3 -28 -23 -49 -54 -49c-24 0 -44 19 -44 44v5l14 131h-81c-22 0 -39 18 -39 40c0 30 22 50 49 50h81l16 150h-81zM289 412l-16 -150h181l16 150h-181z" />
    <glyph glyph-name="dollar.tnum" 
d="M292 -61v73c-29 3 -58 9 -93 21c-47 17 -104 48 -104 91c0 29 18 47 47 47c11 0 21 -2 29 -7c49 -29 91 -55 169 -55c75 0 115 29 115 73c0 50 -46 73 -137 105c-154 54 -215 105 -215 204c0 96 72 152 193 163v73c0 25 20 46 46 46s46 -21 46 -46v-73
c22 -2 46 -7 70 -13c43 -12 98 -38 98 -75c0 -25 -14 -49 -46 -49c-10 0 -15 1 -22 4c-50 21 -85 36 -144 36c-78 0 -126 -20 -126 -66c0 -47 32 -61 140 -102c125 -47 211 -88 211 -198c0 -89 -59 -160 -185 -178v-74c0 -25 -20 -46 -46 -46s-46 21 -46 46z" />
    <glyph glyph-name="plus.tnum" 
d="M560 323c0 -26 -22 -48 -48 -48h-134v-134c0 -29 -24 -53 -53 -53s-53 24 -53 53v134h-134c-27 0 -48 22 -48 48c0 27 21 48 48 48h134v134c0 29 24 53 53 53s53 -24 53 -53v-134h134c26 0 48 -22 48 -48z" />
    <glyph glyph-name="zero.tnum" 
d="M611 333c0 -183 -99 -345 -286 -345s-286 162 -286 345s99 345 286 345s286 -162 286 -345zM491 333c0 143 -68 237 -166 237s-166 -94 -166 -237s68 -237 166 -237s166 94 166 237z" />
    <glyph glyph-name="one.tnum" 
d="M130 0c-30 0 -53 25 -53 54c0 30 24 54 53 54h156v437l-125 -27c-4 -1 -10 -2 -15 -2c-29 0 -57 23 -57 56c0 26 13 46 39 52l189 47c11 3 23 3 29 3c36 0 60 -22 60 -61v-505h139c29 0 53 -24 53 -54c0 -29 -23 -54 -53 -54h-415z" />
    <glyph glyph-name="two.tnum" 
d="M588 54c0 -29 -24 -54 -53 -54h-420c-30 0 -53 26 -53 55c0 148 106 226 220 281c120 58 180 82 180 150c0 57 -57 84 -137 84c-69 0 -109 -10 -171 -50c-8 -5 -16 -8 -26 -8c-32 0 -53 23 -53 49c0 39 36 63 97 88c52 21 115 29 159 29c147 0 251 -67 251 -190
c0 -103 -70 -160 -195 -222c-109 -54 -187 -93 -187 -158h335c30 0 53 -25 53 -54z" />
    <glyph glyph-name="three.tnum" 
d="M595 194c0 -133 -116 -206 -268 -206c-86 0 -187 26 -253 87c-10 10 -21 25 -21 43c0 37 27 53 54 53c12 0 20 -3 30 -10c53 -41 100 -71 190 -71c88 0 148 39 148 110c0 69 -58 100 -163 100h-56c-31 0 -52 26 -52 52c0 29 21 52 52 52h44c96 0 129 38 129 93
c0 53 -42 79 -106 79c-43 0 -79 -10 -105 -22c-19 -9 -35 -19 -57 -19c-32 0 -48 22 -48 47c0 43 53 64 87 76c41 14 92 20 133 20c132 0 216 -63 216 -172c0 -50 -18 -105 -90 -141c85 -26 136 -80 136 -171z" />
    <glyph glyph-name="four.tnum" 
d="M316 596l-136 -336h219v141c0 33 26 59 59 59s59 -26 59 -59v-141h69c29 0 53 -22 53 -52c0 -29 -23 -52 -53 -52h-69v-105c0 -33 -26 -59 -59 -59s-59 26 -59 59v105h-284c-38 0 -72 22 -72 59c0 7 1 15 4 22l161 396c12 29 25 41 53 41c34 0 59 -21 59 -56
c0 -5 -1 -15 -4 -22z" />
    <glyph glyph-name="five.tnum" 
d="M596 216c0 -143 -120 -228 -268 -228c-85 0 -172 19 -238 74c-14 12 -23 29 -23 43c0 34 25 55 53 55c11 0 20 -3 30 -9c60 -40 102 -60 178 -60c90 0 148 47 148 121c0 71 -63 115 -138 115c-58 0 -97 -10 -149 -36c-10 -5 -18 -7 -29 -7c-41 0 -59 27 -55 56l44 277
c4 30 26 49 57 49h282c30 0 55 -25 55 -55c0 -29 -25 -54 -55 -54h-237l-24 -151c26 14 81 27 118 27c161 0 251 -92 251 -217z" />
    <glyph glyph-name="six.tnum" 
d="M421 574c-95 -43 -196 -113 -235 -227c38 47 113 69 177 69c144 0 232 -93 232 -211c0 -124 -109 -217 -259 -217c-181 0 -276 108 -276 250c0 197 104 311 226 388c46 29 100 52 152 52c28 0 49 -15 49 -42c0 -29 -22 -42 -66 -62zM475 204c0 65 -47 111 -137 111
c-81 0 -143 -45 -143 -112c0 -72 55 -114 139 -114c74 0 141 42 141 115z" />
    <glyph glyph-name="seven.tnum" 
d="M617 613c0 -12 -3 -20 -10 -29c-148 -171 -223 -306 -259 -533c-5 -32 -24 -59 -60 -59c-45 0 -65 36 -60 68c32 219 115 387 230 498h-346c-30 0 -53 25 -53 54c0 30 24 54 53 54h450c36 0 55 -18 55 -53z" />
    <glyph glyph-name="eight.tnum" 
d="M596 194c0 -112 -100 -206 -271 -206s-271 94 -271 206c0 80 48 139 125 172c-46 35 -76 79 -76 136c0 99 87 176 222 176s221 -77 221 -176c0 -57 -29 -101 -75 -136c77 -33 125 -92 125 -172zM430 491c0 48 -39 87 -105 87s-105 -35 -105 -87c0 -58 46 -92 105 -92
s105 36 105 92zM476 197c0 59 -54 108 -151 108s-151 -49 -151 -108c0 -63 60 -109 151 -109s151 46 151 109z" />
    <glyph glyph-name="nine.tnum" 
d="M234 90c120 51 194 119 228 229c-38 -47 -111 -69 -175 -69c-154 0 -232 93 -232 211c0 125 115 217 259 217c177 0 274 -108 274 -250c0 -185 -97 -311 -219 -388c-46 -29 -100 -52 -152 -52c-28 0 -49 15 -49 42c0 29 22 41 66 60zM175 462c0 -65 43 -114 137 -114
c81 0 143 48 143 115c0 72 -58 112 -142 112c-74 0 -138 -37 -138 -113z" />
    <glyph glyph-name="less.tnum" 
d="M513 456l-287 -133l287 -133c20 -11 27 -22 27 -44c0 -30 -23 -52 -52 -52c-9 0 -19 2 -28 7l-346 176c-17 10 -28 24 -28 46s11 36 28 46l346 176c9 5 19 7 28 7c29 0 52 -22 52 -52c0 -22 -8 -34 -27 -44z" />
    <glyph glyph-name="equal.tnum" 
d="M533 414c0 -26 -21 -47 -47 -47h-322c-26 0 -47 21 -47 47s21 47 47 47h322c26 0 47 -21 47 -47zM533 233c0 -26 -21 -47 -47 -47h-322c-26 0 -47 21 -47 47s21 47 47 47h322c26 0 47 -21 47 -47z" />
    <glyph glyph-name="greater.tnum" 
d="M424 323l-287 133c-20 10 -27 22 -27 44c0 30 23 52 52 52c9 0 19 -2 28 -7l346 -176c17 -10 28 -24 28 -46s-11 -36 -28 -46l-346 -176c-9 -5 -19 -7 -28 -7c-29 0 -52 22 -52 52c0 22 8 35 27 44z" />
    <glyph glyph-name="cent.tnum" 
d="M301 34v74c-117 20 -187 112 -187 225s70 205 187 225v74c0 25 20 46 46 46s46 -21 46 -46v-74c50 -8 88 -30 111 -55c11 -12 17 -24 17 -41c0 -27 -19 -46 -47 -46c-16 0 -26 4 -37 12c-16 12 -43 32 -86 32c-77 0 -117 -60 -117 -127s40 -127 117 -127
c43 0 70 20 86 32c11 8 21 12 37 12c28 0 47 -19 47 -46c0 -17 -6 -29 -17 -41c-23 -25 -61 -47 -111 -56v-73c0 -25 -20 -46 -46 -46s-46 21 -46 46z" />
    <glyph glyph-name="sterling.tnum" 
d="M328 280v-180h210c28 0 51 -20 51 -50s-23 -50 -51 -50h-433c-28 0 -51 20 -51 50s23 50 51 50h103v180h-93c-28 0 -51 20 -51 50s23 50 51 50h93v71c0 140 70 227 226 227c44 0 78 -7 113 -21c24 -10 42 -22 42 -50s-18 -51 -54 -51c-7 0 -14 2 -21 4
c-27 7 -48 10 -78 10c-76 0 -108 -37 -108 -109v-81h184c28 0 51 -20 51 -50s-23 -50 -51 -50h-184z" />
    <glyph glyph-name="notequal.tnum" 
d="M254 127c-5 -9 -12 -14 -24 -14c-17 0 -27 12 -27 25c0 5 1 10 3 15l18 36h-60c-26 0 -47 21 -47 47s21 47 47 47h108l40 82h-148c-26 0 -47 21 -47 47s21 47 47 47h196l33 65c4 10 13 15 24 15c17 0 27 -13 27 -26c0 -6 -1 -10 -3 -15l-20 -39h65c26 0 47 -21 47 -47
s-21 -47 -47 -47h-113l-40 -82h153c26 0 47 -21 47 -47s-21 -47 -47 -47h-201z" />
    <glyph glyph-name="plusminus.tnum" 
d="M560 345c0 -26 -22 -48 -48 -48h-134v-116c0 -29 -24 -53 -53 -53s-53 24 -53 53v116h-134c-27 0 -48 22 -48 48c0 27 21 48 48 48h134v112c0 29 24 53 53 53s53 -24 53 -53v-112h134c26 0 48 -22 48 -48zM138 0c-27 0 -48 19 -48 45c0 27 21 45 48 45h374
c26 0 48 -19 48 -45s-22 -45 -48 -45h-374z" />
    <glyph glyph-name="yen.tnum" 
d="M325 391l158 258c12 17 25 25 47 25c28 0 55 -18 55 -50c0 -11 -4 -23 -11 -34l-127 -199h76c20 0 36 -16 36 -36s-16 -36 -36 -36h-122l-16 -26v-42h138c20 0 36 -16 36 -36s-16 -36 -36 -36h-138v-125c0 -34 -24 -62 -60 -62s-60 28 -60 62v125h-138
c-20 0 -36 16 -36 36s16 36 36 36h138v42l-17 26h-121c-20 0 -36 16 -36 36s16 36 36 36h75l-126 199c-7 11 -11 23 -11 34c0 32 26 50 55 50c23 0 35 -8 47 -25z" />
    <glyph glyph-name="florin.tnum" 
d="M256 294h-80c-25 0 -42 20 -42 44c0 36 29 56 60 56h80l18 101c19 108 65 175 196 175h44c29 0 55 -13 55 -46c0 -32 -17 -54 -62 -54h-36c-42 0 -66 -19 -74 -63l-20 -113h85c25 0 48 -17 48 -45c0 -32 -23 -55 -60 -55h-91l-55 -314c-18 -102 -60 -175 -203 -175h-43
c-24 0 -48 18 -48 46c0 40 29 54 59 54h38c48 0 66 19 74 63z" />
    <glyph glyph-name="approxequal.tnum" 
d="M468 454c6 6 14 8 22 8c23 0 41 -17 41 -40c0 -28 -60 -92 -134 -92c-63 0 -81 47 -137 47c-41 0 -68 -38 -95 -38c-19 0 -42 16 -42 38c0 37 63 95 140 95c66 0 100 -50 138 -50c30 0 46 14 67 32zM468 276c6 6 14 8 22 8c22 0 41 -17 41 -40c0 -28 -60 -92 -134 -92
c-63 0 -81 48 -137 48c-41 0 -68 -39 -95 -39c-19 0 -42 16 -42 39c0 36 63 94 140 94c66 0 100 -50 138 -50c30 0 46 14 67 32z" />
    <glyph glyph-name="divide.tnum" 
d="M507 267h-364c-27 0 -48 22 -48 48c0 27 21 48 48 48h364c26 0 48 -22 48 -48s-22 -48 -48 -48zM384 145c0 -32 -27 -59 -59 -59c-33 0 -59 27 -59 59c0 33 26 59 59 59c32 0 59 -26 59 -59zM384 485c0 -32 -27 -59 -59 -59c-33 0 -59 27 -59 59c0 33 26 59 59 59
c32 0 59 -26 59 -59z" />
    <glyph glyph-name="Euro.tnum" 
d="M121 368h-58c-20 0 -36 16 -36 36s16 36 36 36h69c22 135 113 238 259 238c93 0 164 -49 203 -98c10 -13 18 -25 18 -41c0 -31 -24 -48 -50 -48c-22 0 -33 9 -45 24c-31 39 -70 63 -121 63c-83 0 -133 -62 -145 -138h208c20 0 36 -16 36 -36s-16 -36 -36 -36h-221
c-1 -11 -1 -23 -1 -35s0 -24 1 -35h221c20 0 36 -16 36 -36s-16 -36 -36 -36h-208c12 -76 62 -138 145 -138c51 0 90 24 121 63c12 15 23 24 45 24c26 0 50 -17 50 -48c0 -16 -8 -28 -18 -41c-39 -49 -110 -98 -203 -98c-146 0 -237 103 -259 238h-69c-20 0 -36 16 -36 36
s16 36 36 36h58c-1 11 -1 23 -1 35s0 24 1 35z" />
    <glyph glyph-name="minusonum.tnum" 
d="M512 248c0 -28 -24 -51 -52 -51h-270c-28 0 -52 23 -52 51c0 29 24 52 52 52h270c28 0 52 -23 52 -52z" />
    <glyph glyph-name="multiplyonum.tnum" 
d="M500 83c0 -26 -22 -48 -48 -48c-13 0 -25 5 -34 14l-93 93l-93 -93c-9 -9 -21 -14 -34 -14c-26 0 -48 22 -48 48c0 13 5 25 14 34l93 93l-93 93c-9 9 -14 21 -14 34c0 27 21 49 48 49c13 0 25 -5 34 -14l93 -93l93 93c9 9 21 14 34 14c27 0 48 -21 48 -48
c0 -16 -5 -26 -14 -35l-93 -93l93 -93c9 -9 14 -21 14 -34z" />
    <glyph glyph-name="numbersignonum.tnum" 
d="M90 346c-23 0 -40 15 -40 38c0 28 18 49 50 49h58l10 92c3 29 22 49 53 49c32 0 45 -21 42 -49l-10 -92h172l10 92c3 29 18 49 51 49c32 0 46 -24 43 -49l-10 -92h56c22 0 39 -15 39 -40c0 -27 -20 -47 -49 -47h-56l-14 -134h56c22 0 39 -14 39 -38
c0 -28 -20 -49 -49 -49h-56l-8 -84c-3 -27 -18 -49 -53 -49c-29 0 -43 24 -41 49l8 84h-172l-9 -84c-3 -26 -17 -49 -52 -49c-30 0 -46 23 -43 49l9 84h-58c-22 0 -39 17 -39 39c0 32 22 48 49 48h58l14 134h-58zM243 346l-14 -134h172l14 134h-172z" />
    <glyph glyph-name="dollaronum.tnum" 
d="M278 -55v58c-53 8 -102 28 -140 52c-23 14 -33 28 -33 51c0 27 20 47 48 47c11 0 24 -3 37 -12c35 -23 85 -44 139 -44c60 0 99 24 99 63c0 44 -42 59 -120 82c-136 40 -189 85 -189 167c0 87 63 142 167 154v58c0 28 22 50 50 50s50 -22 50 -50v-59
c43 -6 78 -18 110 -32c24 -11 34 -25 34 -48c0 -25 -19 -49 -48 -49c-8 0 -17 2 -26 6c-34 15 -80 30 -127 30c-66 0 -94 -16 -94 -52c0 -35 34 -48 109 -71c138 -42 200 -78 200 -172c0 -90 -60 -155 -166 -171v-58c0 -28 -22 -50 -50 -50s-50 22 -50 50z" />
    <glyph glyph-name="plusonum.tnum" 
d="M550 217c0 -26 -22 -48 -48 -48h-124v-124c0 -29 -24 -53 -53 -53s-53 24 -53 53v124h-124c-27 0 -48 22 -48 48c0 27 21 48 48 48h124v124c0 29 24 53 53 53s53 -24 53 -53v-124h124c26 0 48 -22 48 -48z" />
    <glyph glyph-name="zeroonum.tnum" 
d="M584 241c0 -146 -108 -253 -259 -253s-259 107 -259 253s108 253 259 253s259 -107 259 -253zM186 241c0 -87 56 -151 139 -151s139 64 139 151s-56 151 -139 151s-139 -64 -139 -151z" />
    <glyph glyph-name="oneonum.tnum" 
d="M136 0c-30 0 -53 23 -53 52c0 30 24 52 53 52h165v254l-117 -25c-4 -1 -10 -2 -15 -2c-29 0 -57 22 -57 55c0 26 14 47 44 54l176 44c11 3 23 3 29 3c36 0 60 -22 60 -61v-322h148c29 0 53 -22 53 -52c0 -29 -23 -52 -53 -52h-433z" />
    <glyph glyph-name="twoonum.tnum" 
d="M556 50c0 -26 -19 -50 -51 -50h-351c-37 0 -60 25 -60 52c0 21 7 43 35 60c36 22 93 56 146 87c103 59 126 89 126 131c0 40 -29 61 -91 61c-45 0 -79 -12 -117 -26c-8 -3 -16 -5 -24 -5c-30 0 -49 22 -49 50c0 22 11 39 37 51c38 17 95 33 158 33
c125 0 206 -52 206 -153c0 -63 -23 -123 -112 -181c-41 -27 -73 -48 -101 -61h197c29 0 51 -20 51 -49z" />
    <glyph glyph-name="threeonum.tnum" 
d="M564 10c0 -125 -107 -205 -254 -205c-78 0 -138 16 -201 53c-12 7 -23 20 -23 43c0 34 27 49 54 49c15 0 25 -6 37 -11c43 -20 80 -32 127 -32c90 0 140 41 140 101c0 76 -63 106 -168 106h-40c-31 0 -54 25 -54 54c0 33 23 54 54 54h5c108 0 173 43 173 99
c0 46 -33 71 -97 71c-44 0 -77 -14 -111 -28c-9 -4 -16 -5 -24 -5c-31 0 -50 23 -50 48c0 24 12 38 38 51c46 23 101 36 158 36c125 0 206 -61 206 -164c0 -61 -38 -122 -116 -152c78 -15 146 -65 146 -168z" />
    <glyph glyph-name="fouronum.tnum" 
d="M568 14h-80v-150c0 -33 -25 -59 -58 -59s-58 26 -58 59v150h-288c-29 0 -52 18 -52 47c0 16 7 27 17 39l334 365c16 17 30 22 49 22c40 0 56 -26 56 -59v-320h80c30 0 52 -19 52 -47s-22 -47 -52 -47zM182 108h190v208z" />
    <glyph glyph-name="fiveonum.tnum" 
d="M561 20c0 -115 -89 -215 -263 -215c-61 0 -129 14 -187 49c-16 10 -25 25 -25 44c0 34 24 51 54 51c11 0 20 -4 30 -9c43 -23 79 -35 132 -35c97 0 139 52 139 112c0 71 -55 102 -134 102c-40 0 -68 -9 -101 -21c-8 -3 -17 -7 -30 -7c-41 0 -59 26 -55 55l39 287
c4 30 26 49 57 49h249c30 0 55 -24 55 -54c0 -29 -25 -52 -55 -52h-199l-22 -166c22 8 51 14 85 14c129 0 231 -72 231 -204z" />
    <glyph glyph-name="sixonum.tnum" 
d="M420 574c-91 -51 -162 -100 -216 -215c37 41 90 65 154 65c138 0 215 -97 215 -215c0 -126 -98 -221 -249 -221c-156 0 -248 105 -248 244c0 167 81 288 190 372c43 33 112 74 164 74c30 0 50 -20 50 -42c0 -29 -19 -39 -60 -62zM457 210c0 62 -39 117 -124 117
c-81 0 -130 -52 -130 -123c0 -66 42 -119 126 -119c79 0 128 53 128 125z" />
    <glyph glyph-name="sevenonum.tnum" 
d="M569 430c0 -19 -4 -29 -8 -38c-97 -203 -167 -343 -261 -539c-12 -25 -27 -48 -61 -48c-55 0 -63 53 -47 85c99 198 160 316 242 486h-296c-30 0 -53 24 -53 53c0 30 24 53 53 53h371c32 0 60 -17 60 -52z" />
    <glyph glyph-name="eightonum.tnum" 
d="M536 503c0 -57 -24 -101 -77 -137c62 -23 126 -75 126 -172c0 -112 -87 -206 -260 -206s-260 94 -260 206c0 97 64 149 126 172c-53 36 -77 80 -77 137c0 99 76 175 211 175s211 -76 211 -175zM325 87c92 0 141 49 141 108c0 67 -49 110 -141 110s-141 -43 -141 -110
c0 -59 49 -108 141 -108zM325 399c57 0 95 36 95 92c0 52 -33 89 -95 89s-95 -37 -95 -89c0 -56 38 -92 95 -92z" />
    <glyph glyph-name="nineonum.tnum" 
d="M247 -90c82 49 143 95 200 213c-37 -41 -90 -65 -154 -65c-138 0 -215 96 -215 214c0 127 103 222 249 222c156 0 245 -99 245 -243c0 -167 -70 -288 -179 -372c-43 -33 -110 -74 -162 -74c-33 0 -50 20 -50 42c0 31 25 39 66 63zM194 272c0 -62 39 -117 124 -117
c81 0 130 52 130 123c0 66 -42 119 -126 119c-79 0 -128 -53 -128 -125z" />
    <glyph glyph-name="lessonum.tnum" 
d="M509 350l-287 -133l287 -133c19 -10 27 -22 27 -44c0 -30 -23 -52 -52 -52c-9 0 -19 2 -28 7l-346 176c-17 10 -28 24 -28 46s11 36 28 46l346 176c9 5 19 7 28 7c29 0 52 -22 52 -52c0 -22 -8 -34 -27 -44z" />
    <glyph glyph-name="equalonum.tnum" 
d="M528 299c0 -26 -21 -47 -47 -47h-312c-26 0 -47 21 -47 47s21 47 47 47h312c26 0 47 -21 47 -47zM528 123c0 -26 -21 -47 -47 -47h-312c-26 0 -47 21 -47 47s21 47 47 47h312c26 0 47 -21 47 -47z" />
    <glyph glyph-name="greateronum.tnum" 
d="M428 217l-287 133c-19 10 -27 22 -27 44c0 30 23 52 52 52c9 0 19 -2 28 -7l346 -176c17 -10 28 -24 28 -46s-11 -36 -28 -46l-346 -176c-9 -5 -19 -7 -28 -7c-29 0 -52 22 -52 52c0 22 8 34 27 44z" />
    <glyph glyph-name="centonum.tnum" 
d="M305 -44v80c-115 22 -194 109 -194 225c0 115 79 203 194 224v81c0 28 22 50 50 50s50 -22 50 -50v-81c48 -8 94 -30 117 -54c11 -12 17 -24 17 -41c0 -27 -19 -46 -47 -46c-16 0 -25 3 -37 12c-16 12 -53 32 -96 32c-77 0 -128 -53 -128 -127s51 -127 128 -127
c43 0 76 17 96 32c12 9 21 12 37 12c28 0 47 -19 47 -46c0 -17 -6 -29 -17 -41c-23 -25 -69 -46 -117 -56v-79c0 -28 -22 -50 -50 -50s-50 22 -50 50z" />
    <glyph glyph-name="sterlingonum.tnum" 
d="M346 233v-139h200c28 0 51 -17 51 -47s-23 -47 -51 -47h-422c-28 0 -51 17 -51 47s23 47 51 47h102v139h-92c-28 0 -51 17 -51 47s23 47 51 47h92v32c0 130 70 219 226 219c37 0 78 -7 120 -25c24 -10 40 -24 40 -50c0 -30 -20 -51 -55 -51c-7 0 -14 2 -21 4
c-31 10 -47 15 -82 15c-76 0 -108 -35 -108 -107v-37h164c28 0 51 -17 51 -47s-23 -47 -51 -47h-164z" />
    <glyph glyph-name="notequalonum.tnum" 
d="M254 14c-5 -9 -12 -14 -24 -14c-17 0 -27 12 -27 25c0 5 1 10 3 15l18 36h-55c-26 0 -47 21 -47 47s21 47 47 47h103l40 82h-143c-26 0 -47 21 -47 47s21 47 47 47h191l33 65c4 10 13 15 24 15c17 0 27 -13 27 -26c0 -6 -1 -10 -3 -15l-20 -39h60c26 0 47 -21 47 -47
s-21 -47 -47 -47h-108l-40 -82h148c26 0 47 -21 47 -47s-21 -47 -47 -47h-196z" />
    <glyph glyph-name="plusminusonum.tnum" 
d="M148 0c-27 0 -48 20 -48 46c0 27 21 46 48 46h124v121h-124c-27 0 -48 20 -48 46c0 27 21 46 48 46h124v106c0 29 24 53 53 53s53 -24 53 -53v-106h124c26 0 48 -20 48 -46s-22 -46 -48 -46h-124v-121h124c26 0 48 -20 48 -46s-22 -46 -48 -46h-354z" />
    <glyph glyph-name="yenonum.tnum" 
d="M562 491l-96 -150h56c20 0 36 -16 36 -36s-16 -36 -36 -36h-102l-36 -56v-8h138c20 0 36 -15 36 -35s-16 -35 -36 -35h-138v-81c0 -34 -25 -62 -59 -62s-59 28 -59 62v81h-138c-20 0 -36 15 -36 35s16 35 36 35h138v8l-36 56h-102c-20 0 -36 16 -36 36s16 36 36 36h56
l-96 150c-7 11 -11 23 -11 34c0 32 23 49 52 49c22 0 36 -9 48 -27l148 -244l148 244c12 18 26 27 48 27c29 0 52 -17 52 -49c0 -11 -4 -23 -11 -34z" />
    <glyph glyph-name="florinonum.tnum" 
d="M262 202h-54c-25 0 -44 18 -44 42c0 38 24 58 60 58h56l18 102c18 102 60 170 191 170h32c29 0 51 -13 51 -44c0 -29 -17 -56 -62 -56h-16c-42 0 -66 -18 -74 -63l-19 -109h81c25 0 42 -17 42 -41c0 -32 -23 -59 -60 -59h-81l-40 -230c-18 -102 -59 -167 -202 -167h-23
c-24 0 -41 17 -41 41c0 40 29 59 59 59h11c46 0 66 15 73 57z" />
    <glyph glyph-name="approxequalonum.tnum" 
d="M466 364c6 6 14 8 22 8c23 0 41 -17 41 -40c0 -28 -60 -92 -134 -92c-63 0 -81 47 -137 47c-41 0 -68 -38 -95 -38c-19 0 -42 16 -42 38c0 37 63 95 140 95c66 0 100 -50 138 -50c30 0 46 14 67 32zM466 186c6 6 14 8 22 8c22 0 41 -17 41 -40c0 -28 -60 -92 -134 -92
c-63 0 -81 48 -137 48c-41 0 -68 -39 -95 -39c-19 0 -42 16 -42 39c0 36 63 94 140 94c66 0 100 -50 138 -50c30 0 46 14 67 32z" />
    <glyph glyph-name="divideonum.tnum" 
d="M507 173h-364c-27 0 -48 22 -48 48c0 27 21 48 48 48h364c26 0 48 -22 48 -48s-22 -48 -48 -48zM384 71c0 -32 -27 -59 -59 -59c-33 0 -59 27 -59 59c0 33 26 59 59 59c32 0 59 -26 59 -59zM384 371c0 -32 -27 -59 -59 -59c-33 0 -59 27 -59 59c0 33 26 59 59 59
c32 0 59 -26 59 -59z" />
    <glyph glyph-name="Euroonum.tnum" 
d="M408 578c73 0 139 -23 182 -62c12 -11 18 -22 18 -41c0 -26 -20 -46 -48 -46c-16 0 -26 4 -37 12c-30 22 -63 36 -112 36c-76 0 -126 -35 -151 -90h180c19 0 35 -14 35 -35s-16 -35 -35 -35h-199c-1 -11 -2 -23 -2 -34c0 -12 1 -21 2 -34h199c19 0 35 -14 35 -35
s-16 -35 -35 -35h-180c25 -56 75 -90 151 -90c49 0 82 14 112 36c11 8 21 12 37 12c28 0 48 -20 48 -46c0 -19 -6 -30 -18 -41c-43 -39 -109 -62 -182 -62c-148 0 -239 82 -273 191h-75c-19 0 -35 14 -35 35s16 35 35 35h61c-1 11 -1 22 -1 34c0 11 0 23 1 34h-61
c-19 0 -35 14 -35 35s16 35 35 35h75c34 109 125 191 273 191z" />
    <glyph glyph-name="parenleft.smcp" horiz-adv-x="342" 
d="M312 -141c0 -27 -25 -49 -52 -49c-19 0 -33 10 -44 25c-85 118 -136 270 -136 415s51 297 136 415c11 15 25 25 44 25c27 0 52 -22 52 -49c0 -10 -3 -19 -8 -28c-60 -115 -104 -231 -104 -363s44 -248 104 -363c5 -9 8 -18 8 -28z" />
    <glyph glyph-name="parenright.smcp" horiz-adv-x="342" 
d="M30 -141c0 10 3 19 8 28c60 115 104 231 104 363s-44 248 -104 363c-5 9 -8 18 -8 28c0 27 25 49 52 49c19 0 33 -10 44 -25c85 -118 136 -270 136 -415s-51 -297 -136 -415c-11 -15 -25 -25 -44 -25c-27 0 -52 22 -52 49z" />
    <glyph glyph-name="bracketleft.smcp" horiz-adv-x="368" 
d="M333 -119c0 -27 -23 -50 -51 -50h-136c-30 0 -56 26 -56 58v718c0 33 26 59 56 59h136c28 0 51 -23 51 -51s-23 -50 -51 -50h-74v-633h74c28 0 51 -22 51 -51z" />
    <glyph glyph-name="bracketright.smcp" horiz-adv-x="368" 
d="M35 -119c0 29 23 51 51 51h74v633h-74c-28 0 -51 22 -51 50s23 51 51 51h136c30 0 56 -26 56 -59v-718c0 -32 -26 -58 -56 -58h-136c-28 0 -51 23 -51 50z" />
    <glyph glyph-name="a.smcp" horiz-adv-x="588" 
d="M344 476l200 -406c3 -7 6 -17 6 -25c0 -30 -23 -53 -56 -53c-26 0 -41 14 -51 35l-41 82h-216l-41 -82c-10 -21 -25 -35 -51 -35c-33 0 -56 23 -56 53c0 8 3 18 6 25l200 406c10 20 24 32 50 32s39 -12 50 -32zM294 357l-68 -157h135z" />
    <glyph glyph-name="b.smcp" horiz-adv-x="592" 
d="M345 500c110 0 171 -45 171 -122c0 -48 -26 -89 -86 -113c63 -9 114 -46 114 -121c0 -76 -62 -144 -201 -144h-198c-33 0 -60 27 -60 60v380c0 33 27 60 60 60h200zM349 211h-144v-113h146c48 0 75 23 75 57c0 39 -29 56 -77 56zM205 402v-93h135c35 0 56 20 56 47
c0 32 -25 46 -59 46h-132z" />
    <glyph glyph-name="c.smcp" horiz-adv-x="587" 
d="M322 410c-102 0 -154 -77 -154 -160s52 -160 154 -160c47 0 85 17 112 46c11 12 24 25 47 25c34 0 56 -24 56 -52c0 -15 -8 -29 -19 -41c-40 -45 -109 -80 -196 -80c-179 0 -274 125 -274 262s95 262 274 262c87 0 156 -35 196 -80c11 -12 19 -26 19 -41
c0 -28 -22 -52 -56 -52c-23 0 -36 13 -47 25c-27 29 -65 46 -112 46z" />
    <glyph glyph-name="d.smcp" horiz-adv-x="616" 
d="M85 60v380c0 36 27 60 60 60h148c171 0 278 -107 278 -250s-107 -250 -278 -250h-148c-33 0 -60 27 -60 60zM288 398h-83v-296h83c105 0 163 58 163 148s-58 148 -163 148z" />
    <glyph glyph-name="e.smcp" horiz-adv-x="547" 
d="M205 203v-101h249c28 0 51 -23 51 -51s-23 -51 -51 -51h-309c-33 0 -60 27 -60 60v380c0 33 27 60 60 60h297c28 0 51 -23 51 -51s-23 -51 -51 -51h-237v-93h137c28 0 51 -23 51 -51s-23 -51 -51 -51h-137z" />
    <glyph glyph-name="f.smcp" horiz-adv-x="511" 
d="M205 203v-151c0 -33 -27 -60 -60 -60s-60 27 -60 60v388c0 33 27 60 60 60h299c28 0 51 -23 51 -51s-23 -51 -51 -51h-239v-93h139c28 0 51 -23 51 -51s-23 -51 -51 -51h-139z" />
    <glyph glyph-name="g.smcp" horiz-adv-x="619" 
d="M313 225c0 27 22 49 49 49h153c27 0 49 -19 49 -49v-118c0 -13 -4 -24 -15 -35c-45 -45 -123 -84 -216 -84c-194 0 -283 119 -283 262c0 163 111 262 283 262c64 0 139 -21 186 -64c10 -9 19 -22 19 -38c0 -26 -21 -50 -54 -50c-15 0 -26 4 -38 12c-29 19 -61 37 -113 37
c-105 0 -163 -64 -163 -159c0 -88 50 -164 166 -164c50 0 86 15 113 33v57h-87c-27 0 -49 22 -49 49z" />
    <glyph glyph-name="h.smcp" horiz-adv-x="656" 
d="M451 52v153h-246v-153c0 -33 -27 -60 -60 -60s-60 27 -60 60v396c0 33 27 60 60 60s60 -27 60 -60v-138h246v138c0 33 27 60 60 60s60 -27 60 -60v-396c0 -33 -27 -60 -60 -60s-60 27 -60 60z" />
    <glyph glyph-name="i.smcp" horiz-adv-x="296" 
d="M88 52v396c0 33 27 60 60 60s60 -27 60 -60v-396c0 -33 -27 -60 -60 -60s-60 27 -60 60z" />
    <glyph glyph-name="j.smcp" horiz-adv-x="548" 
d="M348 448c0 33 27 60 60 60s60 -27 60 -60v-251c0 -121 -73 -209 -222 -209c-116 0 -194 62 -212 151c-1 5 -1 11 -1 13c0 34 22 56 57 56c38 0 51 -19 59 -46c12 -42 40 -74 97 -74c76 0 102 43 102 104v256z" />
    <glyph glyph-name="k.smcp" horiz-adv-x="592" 
d="M85 448c0 33 27 60 60 60s60 -27 60 -60v-150l225 194c13 10 24 16 41 16c33 0 57 -24 57 -52c0 -19 -6 -31 -19 -42l-132 -112l157 -225c9 -13 10 -22 10 -32c0 -24 -20 -53 -56 -53c-26 0 -39 11 -50 25l-146 212l-87 -76v-101c0 -33 -27 -60 -60 -60s-60 27 -60 60
v396z" />
    <glyph glyph-name="l.smcp" horiz-adv-x="504" 
d="M205 102h220c28 0 51 -23 51 -51s-23 -51 -51 -51h-280c-33 0 -60 27 -60 60v388c0 33 27 60 60 60s60 -27 60 -60v-346z" />
    <glyph glyph-name="m.smcp" horiz-adv-x="736" 
d="M651 457v-408c0 -31 -25 -57 -56 -57s-56 26 -56 57v207l-121 -232c-10 -19 -25 -32 -50 -32s-40 13 -50 32l-121 232v-207c0 -31 -25 -57 -56 -57s-56 26 -56 57v408c0 30 23 51 56 51c27 0 43 -13 54 -33l173 -333l173 333c11 20 27 33 54 33c33 0 56 -21 56 -51z" />
    <glyph glyph-name="n.smcp" horiz-adv-x="644" 
d="M187 486l258 -298v263c0 31 26 57 57 57s57 -26 57 -57v-402c0 -30 -21 -57 -57 -57c-19 0 -33 7 -44 20l-259 294v-257c0 -31 -26 -57 -57 -57s-57 26 -57 57v402c0 30 20 57 57 57c18 0 33 -9 45 -22z" />
    <glyph glyph-name="o.smcp" horiz-adv-x="644" 
d="M594 250c0 -150 -108 -262 -272 -262s-272 112 -272 262s108 262 272 262s272 -112 272 -262zM170 250c0 -91 59 -160 152 -160s152 69 152 160s-59 160 -152 160s-152 -69 -152 -160z" />
    <glyph glyph-name="p.smcp" horiz-adv-x="576" 
d="M205 186v-134c0 -33 -27 -60 -60 -60s-60 27 -60 60v388c0 33 27 60 60 60h202c143 0 203 -71 203 -158s-60 -156 -203 -156h-142zM430 343c0 28 -20 58 -67 58h-158v-116h158c47 0 67 30 67 58z" />
    <glyph glyph-name="q.smcp" horiz-adv-x="644" 
d="M539 -37c0 -24 -17 -45 -43 -45c-21 0 -32 8 -41 23l-38 61c-29 -9 -61 -14 -95 -14c-164 0 -272 112 -272 262s108 262 272 262s272 -112 272 -262c0 -87 -36 -160 -97 -207l36 -57c4 -7 6 -15 6 -23zM170 250c0 -91 59 -160 152 -160c13 0 25 1 37 4l-30 49
c-5 8 -7 16 -7 24c0 28 21 44 45 44c17 0 28 -5 38 -21l31 -50c24 28 38 66 38 110c0 91 -59 160 -152 160s-152 -69 -152 -160z" />
    <glyph glyph-name="r.smcp" horiz-adv-x="621" 
d="M205 188v-136c0 -33 -27 -60 -60 -60s-60 27 -60 60v388c0 33 27 60 60 60h212c143 0 203 -70 203 -157c0 -61 -29 -112 -95 -138l71 -130c5 -8 8 -18 8 -28c0 -30 -23 -55 -56 -55c-26 0 -42 11 -51 28l-92 168h-140zM442 344c0 28 -20 58 -67 58h-170v-117h170
c47 0 67 31 67 59z" />
    <glyph glyph-name="s.smcp" horiz-adv-x="555" 
d="M505 150c0 -99 -84 -162 -216 -162c-91 0 -149 23 -197 56c-22 15 -32 33 -32 50c0 27 22 50 52 50c12 0 26 -4 40 -14c38 -26 78 -44 135 -44c59 0 98 19 98 55c0 37 -48 48 -88 57c-179 40 -225 81 -225 167c0 93 79 147 224 147c54 0 105 -12 152 -35
c27 -13 39 -30 39 -53c0 -24 -19 -45 -48 -45c-10 0 -22 2 -34 8c-34 16 -71 27 -108 27c-69 0 -105 -14 -105 -46c0 -28 26 -36 107 -56c136 -34 206 -64 206 -162z" />
    <glyph glyph-name="t.smcp" horiz-adv-x="528" 
d="M324 398v-346c0 -33 -27 -60 -60 -60s-60 27 -60 60v346h-133c-28 0 -51 23 -51 51s23 51 51 51h386c28 0 51 -23 51 -51s-23 -51 -51 -51h-133z" />
    <glyph glyph-name="u.smcp" horiz-adv-x="644" 
d="M442 196v252c0 33 27 60 60 60s60 -27 60 -60v-243c0 -131 -90 -217 -240 -217s-240 86 -240 217v243c0 33 27 60 60 60s60 -27 60 -60v-252c0 -60 41 -106 120 -106s120 46 120 106z" />
    <glyph glyph-name="v.smcp" horiz-adv-x="564" 
d="M282 156l145 316c9 20 19 36 49 36c35 0 58 -20 58 -51c0 -13 -4 -24 -8 -32l-192 -399c-10 -20 -24 -34 -52 -34s-42 14 -52 34l-192 399c-4 8 -8 19 -8 32c0 31 23 51 58 51c30 0 40 -16 49 -36z" />
    <glyph glyph-name="w.smcp" horiz-adv-x="786" 
d="M498 29l-105 282l-105 -282c-8 -20 -23 -37 -53 -37c-29 0 -44 15 -51 35l-147 409c-2 6 -4 13 -4 19c0 34 24 53 54 53c28 0 42 -12 51 -37l99 -286l102 281c10 27 24 42 54 42s44 -15 54 -42l102 -281l99 286c9 25 23 37 51 37c30 0 54 -19 54 -53c0 -6 -2 -13 -4 -19
l-147 -409c-7 -20 -22 -35 -51 -35c-30 0 -45 17 -53 37z" />
    <glyph glyph-name="x.smcp" horiz-adv-x="596" 
d="M534 43c0 -28 -24 -51 -55 -51c-21 0 -33 9 -47 24l-134 154l-134 -154c-14 -15 -26 -24 -47 -24c-31 0 -55 23 -55 51c0 14 5 24 14 34l152 174l-151 174c-8 10 -13 21 -13 32c0 31 27 51 57 51c18 0 30 -10 40 -20l137 -160l137 160c10 10 22 20 40 20
c30 0 57 -20 57 -51c0 -11 -5 -22 -13 -32l-151 -174l152 -174c9 -10 14 -20 14 -34z" />
    <glyph glyph-name="y.smcp" horiz-adv-x="512" 
d="M482 421l-166 -214v-155c0 -33 -27 -60 -60 -60s-60 27 -60 60v155l-166 214c-10 13 -15 22 -15 36c0 29 21 51 55 51c23 0 37 -10 47 -23l139 -177l139 177c12 15 24 23 47 23c34 0 55 -22 55 -51c0 -14 -5 -23 -15 -36z" />
    <glyph glyph-name="z.smcp" horiz-adv-x="569" 
d="M79 89l265 310h-225c-28 0 -51 23 -51 51s23 50 51 50h341c29 0 51 -22 51 -50c0 -16 -5 -25 -13 -35l-269 -314h234c28 0 51 -23 51 -51s-23 -50 -51 -50h-347c-30 0 -51 25 -51 53c0 14 5 26 14 36z" />
    </font>
</defs>
</svg>
