<svg xmlns="http://www.w3.org/2000/svg" viewBox="0 0 192 95">
  <defs>
    <style>
      .cls-1 {
        fill: #d3f6ff;
      }

      .cls-2 {
        fill: #fff;
      }

      .cls-3 {
        fill: #0099c2;
      }

      .cls-4 {
        fill: #36414c;
      }
    </style>
  </defs>
  <g id="Group_1452" data-name="Group 1452" transform="translate(-16744 1798)">
    <g id="Group_1363" data-name="Group 1363" transform="translate(-609 -3302)">
      <path id="Rectangle_1360" data-name="Rectangle 1360" class="cls-1" d="M0,0H169a12,12,0,0,1,12,12V70a12,12,0,0,1-12,12H12A12,12,0,0,1,0,70V0A0,0,0,0,1,0,0Z" transform="translate(17364 1517)"/>
      <circle id="Ellipse_188" data-name="Ellipse 188" class="cls-2" cx="13" cy="13" r="13" transform="translate(17353 1504)"/>
      <g id="Hi-there" transform="translate(17358 1511)">
        <g id="lifeline-in-a-heart-outline" transform="translate(0 0)">
          <path id="Shape" class="cls-3" d="M15,4.058a3.979,3.979,0,0,1-.206,1.26c-.637,2.9-6.147,6.412-6.381,6.561a.45.45,0,0,1-.239.07.431.431,0,0,1-.24-.07A30.585,30.585,0,0,1,4.745,9.5a.449.449,0,0,1,.58-.685,30.855,30.855,0,0,0,2.851,2.153c1.655-1.086,5.308-3.848,5.755-5.886a3.23,3.23,0,0,0,.17-1.02,3.18,3.18,0,0,0-1.633-2.782,3.2,3.2,0,0,0-3.95.755.461.461,0,0,1-.689,0,3.208,3.208,0,0,0-3.95-.756A3.159,3.159,0,0,0,2.4,5.034a3.53,3.53,0,0,0,.355.889h2.61l.9-2.073a.445.445,0,0,1,.844.076l.66,2.808L8.62,5.324A.445.445,0,0,1,9,5.109h1.62a.45.45,0,0,1,0,.9H9.253L7.967,8.135a.445.445,0,0,1-.38.216.461.461,0,0,1-.07-.005.449.449,0,0,1-.365-.34l-.6-2.558-.476,1.1a.445.445,0,0,1-.41.271H.447a.45.45,0,0,1,0-.9H1.758a3.928,3.928,0,0,1-.215-.65,3.816,3.816,0,0,1-.192-1.215A4.078,4.078,0,0,1,3.449.488a4.117,4.117,0,0,1,4.727.6A4.112,4.112,0,0,1,12.9.488,4.082,4.082,0,0,1,15,4.058Z" transform="translate(0 0)"/>
        </g>
      </g>
    </g>
    <path id="Path_1021" data-name="Path 1021" class="cls-4" d="M7.692-.492V-7.5a.564.564,0,0,0-.576-.588A.571.571,0,0,0,6.54-7.5v2.856H2.232V-7.5a.571.571,0,0,0-.576-.588A.564.564,0,0,0,1.08-7.5V-.492A.574.574,0,0,0,1.668.1a.562.562,0,0,0,.564-.588V-3.564H6.54V-.492A.579.579,0,0,0,7.116.1.571.571,0,0,0,7.692-.492ZM10.8-.468V-4.74a.556.556,0,0,0-.564-.564.556.556,0,0,0-.564.564V-.468A.549.549,0,0,0,10.236.1.549.549,0,0,0,10.8-.468ZM9.576-6.78a.666.666,0,0,0,.66.66.666.666,0,0,0,.66-.66.666.666,0,0,0-.66-.66A.666.666,0,0,0,9.576-6.78ZM13.608-.372v-.48a.482.482,0,0,0-.492-.528.482.482,0,0,0-.492.528v.636a3.747,3.747,0,0,1-.312,1.476.845.845,0,0,0-.108.348A.437.437,0,0,0,12.7,2a.539.539,0,0,0,.492-.36A4.45,4.45,0,0,0,13.608-.372Zm6.612-.12V-7.5a.548.548,0,0,0-.564-.588.567.567,0,0,0-.588.588V-.492A.574.574,0,0,0,19.656.1.562.562,0,0,0,20.22-.492Zm10.008.024V-3.084c0-1.464-.888-2.268-2.472-2.268a4.805,4.805,0,0,0-1.608.264c-.3.12-.528.264-.528.54a.45.45,0,0,0,.48.468,1.211,1.211,0,0,0,.372-.1,3.283,3.283,0,0,1,1.188-.216c1.044,0,1.44.432,1.44,1.38V-2.5a2.354,2.354,0,0,0-1.62-.612c-1.164,0-2.04.564-2.04,1.632,0,.96.828,1.62,1.992,1.62a2.043,2.043,0,0,0,1.692-.72v.108A.539.539,0,0,0,29.676.1.519.519,0,0,0,30.228-.468ZM29.1-1.476c0,.5-.6.852-1.308.852s-1.224-.312-1.224-.852.492-.852,1.248-.852C28.452-2.328,29.1-2.016,29.1-1.476ZM40.752-.468V-2.952c0-1.4-.7-2.4-2.148-2.4a2.259,2.259,0,0,0-2,1.068,1.981,1.981,0,0,0-1.836-1.068,1.88,1.88,0,0,0-1.692,1.008v-.384a.532.532,0,0,0-.564-.576.539.539,0,0,0-.564.576v4.26A.556.556,0,0,0,32.508.1a.549.549,0,0,0,.564-.564V-2.856a1.363,1.363,0,0,1,1.392-1.476,1.3,1.3,0,0,1,1.32,1.464v2.4A.549.549,0,0,0,36.348.1a.542.542,0,0,0,.564-.564V-2.856A1.405,1.405,0,0,1,38.34-4.332c.888,0,1.284.636,1.284,1.464v2.4A.556.556,0,0,0,40.188.1.549.549,0,0,0,40.752-.468ZM51.456-2.6a2.556,2.556,0,0,0-2.508-2.748A2.158,2.158,0,0,0,47.1-4.32v-3.2a.549.549,0,0,0-.564-.564.549.549,0,0,0-.564.564V-.468a.523.523,0,0,0,.54.564.542.542,0,0,0,.552-.576V-.888A2.163,2.163,0,0,0,48.948.144,2.591,2.591,0,0,0,51.456-2.6Zm-1.128,0A1.623,1.623,0,0,1,48.72-.792,1.7,1.7,0,0,1,47.1-2.6a1.7,1.7,0,0,1,1.62-1.812A1.623,1.623,0,0,1,50.328-2.6Zm7.752,0a2.66,2.66,0,0,0-2.748-2.748A2.66,2.66,0,0,0,52.584-2.6,2.66,2.66,0,0,0,55.332.144,2.66,2.66,0,0,0,58.08-2.6Zm-1.128,0a1.621,1.621,0,0,1-1.62,1.788A1.621,1.621,0,0,1,53.712-2.6a1.621,1.621,0,0,1,1.62-1.788A1.621,1.621,0,0,1,56.952-2.6ZM61.188-.468v-3.8H62.22a.461.461,0,0,0,.468-.468.461.461,0,0,0-.468-.468H61.188V-6.78a.549.549,0,0,0-.564-.564.549.549,0,0,0-.564.564v1.572h-.912a.461.461,0,0,0-.468.468.461.461,0,0,0,.468.468h.912v3.8A.549.549,0,0,0,60.624.1.549.549,0,0,0,61.188-.468Zm3.528.852V-4.74a.556.556,0,0,0-.564-.564.556.556,0,0,0-.564.564v5.2c0,.636-.18.948-.876.948h-.024a.454.454,0,0,0-.468.468.461.461,0,0,0,.468.468h.132C64.224,2.34,64.716,1.644,64.716.384ZM63.492-6.78a.666.666,0,0,0,.66.66.666.666,0,0,0,.66-.66.666.666,0,0,0-.66-.66A.666.666,0,0,0,63.492-6.78Zm5.376,1.428A2.646,2.646,0,0,0,66.18-2.6,2.589,2.589,0,0,0,68.916.144a2.874,2.874,0,0,0,2.136-.876.5.5,0,0,0,.144-.324.454.454,0,0,0-.468-.468.551.551,0,0,0-.372.18,1.844,1.844,0,0,1-1.392.588,1.5,1.5,0,0,1-1.62-1.452h3.588c.324,0,.432-.192.432-.384A2.548,2.548,0,0,0,68.868-5.352ZM70.32-3.12H67.368a1.49,1.49,0,0,1,1.5-1.332A1.463,1.463,0,0,1,70.32-3.12ZM74.568-.468v-3.8H75.6a.461.461,0,0,0,.468-.468.461.461,0,0,0-.468-.468H74.568V-6.78A.549.549,0,0,0,74-7.344a.549.549,0,0,0-.564.564v1.572h-.912a.461.461,0,0,0-.468.468.461.461,0,0,0,.468.468h.912v3.8A.549.549,0,0,0,74,.1.549.549,0,0,0,74.568-.468Zm6.084-4.524a.469.469,0,0,0-.48-.312.488.488,0,0,0-.5.516.505.505,0,0,0,.048.216L81.7-.2a.487.487,0,0,0,.456.3.487.487,0,0,0,.456-.3l1.98-4.368a.506.506,0,0,0,.048-.216.488.488,0,0,0-.5-.516.469.469,0,0,0-.48.312l-1.5,3.432ZM86.964-.468V-4.74A.556.556,0,0,0,86.4-5.3a.556.556,0,0,0-.564.564V-.468A.549.549,0,0,0,86.4.1.549.549,0,0,0,86.964-.468ZM85.74-6.78a.666.666,0,0,0,.66.66.666.666,0,0,0,.66-.66.666.666,0,0,0-.66-.66A.666.666,0,0,0,85.74-6.78Zm6.2,1.98a.5.5,0,0,0-.528-.528,1.519,1.519,0,0,0-1.524,1.116v-.516A.536.536,0,0,0,89.34-5.3a.555.555,0,0,0-.576.576v4.26A.535.535,0,0,0,89.328.1a.556.556,0,0,0,.564-.564V-2.436c0-1.212.576-1.836,1.524-1.836A.518.518,0,0,0,91.944-4.8ZM94.788-.468v-3.8H95.82a.461.461,0,0,0,.468-.468.461.461,0,0,0-.468-.468H94.788V-6.78a.549.549,0,0,0-.564-.564.549.549,0,0,0-.564.564v1.572h-.912a.461.461,0,0,0-.468.468.461.461,0,0,0,.468.468h.912v3.8A.549.549,0,0,0,94.224.1.549.549,0,0,0,94.788-.468Zm2.34-4.272v2.448A2.169,2.169,0,0,0,99.3.144a1.837,1.837,0,0,0,1.728-1.008V-.48a.526.526,0,0,0,.564.576.539.539,0,0,0,.564-.576V-4.74a.549.549,0,0,0-.564-.564.556.556,0,0,0-.564.564v2.388A1.376,1.376,0,0,1,99.612-.876,1.309,1.309,0,0,1,98.256-2.34v-2.4a.549.549,0,0,0-.564-.564A.541.541,0,0,0,97.128-4.74ZM108.444-.468V-3.084c0-1.464-.888-2.268-2.472-2.268a4.805,4.805,0,0,0-1.608.264c-.3.12-.528.264-.528.54a.45.45,0,0,0,.48.468,1.211,1.211,0,0,0,.372-.1,3.283,3.283,0,0,1,1.188-.216c1.044,0,1.44.432,1.44,1.38V-2.5a2.354,2.354,0,0,0-1.62-.612c-1.164,0-2.04.564-2.04,1.632,0,.96.828,1.62,1.992,1.62a2.043,2.043,0,0,0,1.692-.72v.108a.539.539,0,0,0,.552.564A.519.519,0,0,0,108.444-.468Zm-1.128-1.008c0,.5-.6.852-1.308.852s-1.224-.312-1.224-.852.492-.852,1.248-.852C106.668-2.328,107.316-2.016,107.316-1.476Zm3.972,1.008V-7.524a.549.549,0,0,0-.564-.564.549.549,0,0,0-.564.564V-.468a.549.549,0,0,0,.564.564A.549.549,0,0,0,111.288-.468Zm9.768,0V-3.084c0-1.464-.888-2.268-2.472-2.268a4.805,4.805,0,0,0-1.608.264c-.3.12-.528.264-.528.54a.45.45,0,0,0,.48.468,1.211,1.211,0,0,0,.372-.1,3.283,3.283,0,0,1,1.188-.216c1.044,0,1.44.432,1.44,1.38V-2.5a2.354,2.354,0,0,0-1.62-.612c-1.164,0-2.04.564-2.04,1.632,0,.96.828,1.62,1.992,1.62a2.043,2.043,0,0,0,1.692-.72v.108A.539.539,0,0,0,120.5.1.519.519,0,0,0,121.056-.468Zm-1.128-1.008c0,.5-.6.852-1.308.852S117.4-.936,117.4-1.476s.492-.852,1.248-.852C119.28-2.328,119.928-2.016,119.928-1.476Zm6.984.084c0-.972-.672-1.32-1.968-1.692-.864-.252-1.224-.384-1.224-.792s.408-.576,1.008-.576a2.356,2.356,0,0,1,1.14.276,1.094,1.094,0,0,0,.492.168.393.393,0,0,0,.432-.42c0-.24-.228-.432-.552-.588a3.547,3.547,0,0,0-1.488-.336c-1.3,0-2.124.588-2.124,1.488,0,.864.54,1.368,2.016,1.764.84.228,1.176.384,1.176.792,0,.372-.348.612-1,.612a2.262,2.262,0,0,1-1.356-.468.7.7,0,0,0-.444-.168.4.4,0,0,0-.432.4.6.6,0,0,0,.24.468,3.125,3.125,0,0,0,1.908.612C126.168.144,126.912-.5,126.912-1.392Zm5.46,0c0-.972-.672-1.32-1.968-1.692-.864-.252-1.224-.384-1.224-.792s.408-.576,1.008-.576a2.356,2.356,0,0,1,1.14.276,1.093,1.093,0,0,0,.492.168.393.393,0,0,0,.432-.42c0-.24-.228-.432-.552-.588a3.547,3.547,0,0,0-1.488-.336c-1.3,0-2.124.588-2.124,1.488,0,.864.54,1.368,2.016,1.764.84.228,1.176.384,1.176.792,0,.372-.348.612-1,.612a2.262,2.262,0,0,1-1.356-.468.7.7,0,0,0-.444-.168.4.4,0,0,0-.432.4.6.6,0,0,0,.24.468A3.125,3.125,0,0,0,130.2.144C131.628.144,132.372-.5,132.372-1.392Zm2.532.924V-4.74a.556.556,0,0,0-.564-.564.556.556,0,0,0-.564.564V-.468A.549.549,0,0,0,134.34.1.549.549,0,0,0,134.9-.468ZM133.68-6.78a.666.666,0,0,0,.66.66.666.666,0,0,0,.66-.66.666.666,0,0,0-.66-.66A.666.666,0,0,0,133.68-6.78Zm7.164,5.388c0-.972-.672-1.32-1.968-1.692-.864-.252-1.224-.384-1.224-.792s.408-.576,1.008-.576a2.356,2.356,0,0,1,1.14.276,1.093,1.093,0,0,0,.492.168.393.393,0,0,0,.432-.42c0-.24-.228-.432-.552-.588a3.547,3.547,0,0,0-1.488-.336c-1.3,0-2.124.588-2.124,1.488,0,.864.54,1.368,2.016,1.764.84.228,1.176.384,1.176.792,0,.372-.348.612-1,.612a2.262,2.262,0,0,1-1.356-.468.7.7,0,0,0-.444-.168.4.4,0,0,0-.432.4.6.6,0,0,0,.24.468,3.125,3.125,0,0,0,1.908.612C140.1.144,140.844-.5,140.844-1.392Zm3.132.924v-3.8h1.032a.461.461,0,0,0,.468-.468.461.461,0,0,0-.468-.468h-1.032V-6.78a.549.549,0,0,0-.564-.564.549.549,0,0,0-.564.564v1.572h-.912a.461.461,0,0,0-.468.468.461.461,0,0,0,.468.468h.912v3.8a.549.549,0,0,0,.564.564A.549.549,0,0,0,143.976-.468Zm6.888,0V-3.084c0-1.464-.888-2.268-2.472-2.268a4.805,4.805,0,0,0-1.608.264c-.3.12-.528.264-.528.54a.45.45,0,0,0,.48.468,1.211,1.211,0,0,0,.372-.1,3.283,3.283,0,0,1,1.188-.216c1.044,0,1.44.432,1.44,1.38V-2.5a2.354,2.354,0,0,0-1.62-.612c-1.164,0-2.04.564-2.04,1.632,0,.96.828,1.62,1.992,1.62a2.043,2.043,0,0,0,1.692-.72v.108a.539.539,0,0,0,.552.564A.519.519,0,0,0,150.864-.468Zm-1.128-1.008c0,.5-.6.852-1.308.852S147.2-.936,147.2-1.476s.492-.852,1.248-.852C149.088-2.328,149.736-2.016,149.736-1.476Zm7.872,1.008V-2.916a2.169,2.169,0,0,0-2.172-2.436,1.837,1.837,0,0,0-1.728,1.008v-.384a.526.526,0,0,0-.564-.576.539.539,0,0,0-.564.576v4.26a.549.549,0,0,0,.564.564.556.556,0,0,0,.564-.564V-2.856a1.376,1.376,0,0,1,1.416-1.476,1.309,1.309,0,0,1,1.356,1.464v2.4a.549.549,0,0,0,.564.564A.541.541,0,0,0,157.608-.468Zm3.468,0v-3.8h1.032a.461.461,0,0,0,.468-.468.461.461,0,0,0-.468-.468h-1.032V-6.78a.549.549,0,0,0-.564-.564.549.549,0,0,0-.564.564v1.572h-.912a.461.461,0,0,0-.468.468.461.461,0,0,0,.468.468h.912v3.8a.549.549,0,0,0,.564.564A.549.549,0,0,0,161.076-.468Zm1.74-.156a.722.722,0,0,0,.72.72.722.722,0,0,0,.72-.72.722.722,0,0,0-.72-.72A.722.722,0,0,0,162.816-.624ZM2.292,15.508V8.5a.548.548,0,0,0-.564-.588A.567.567,0,0,0,1.14,8.5v7.008a.574.574,0,0,0,.588.588A.562.562,0,0,0,2.292,15.508Zm8-4.86A2.642,2.642,0,0,0,7.488,13.4,2.642,2.642,0,0,0,10.3,16.144a2.536,2.536,0,0,0,1.86-.756.55.55,0,0,0,.168-.4.472.472,0,0,0-.516-.456c-.2,0-.336.168-.48.288a1.523,1.523,0,0,1-1.02.372,1.659,1.659,0,0,1-1.692-1.8,1.659,1.659,0,0,1,1.692-1.8,1.523,1.523,0,0,1,1.02.372c.144.12.276.288.48.288a.472.472,0,0,0,.516-.456.55.55,0,0,0-.168-.4A2.536,2.536,0,0,0,10.3,10.648Zm8.016,4.884V12.916c0-1.464-.888-2.268-2.472-2.268a4.805,4.805,0,0,0-1.608.264c-.3.12-.528.264-.528.54a.45.45,0,0,0,.48.468,1.211,1.211,0,0,0,.372-.1,3.283,3.283,0,0,1,1.188-.216c1.044,0,1.44.432,1.44,1.38V13.5a2.354,2.354,0,0,0-1.62-.612c-1.164,0-2.04.564-2.04,1.632,0,.96.828,1.62,1.992,1.62a2.043,2.043,0,0,0,1.692-.72v.108a.539.539,0,0,0,.552.564A.519.519,0,0,0,18.312,15.532Zm-1.128-1.008c0,.5-.6.852-1.308.852s-1.224-.312-1.224-.852.492-.852,1.248-.852C16.536,13.672,17.184,13.984,17.184,14.524Zm7.872,1.008V13.084a2.169,2.169,0,0,0-2.172-2.436,1.837,1.837,0,0,0-1.728,1.008v-.384a.526.526,0,0,0-.564-.576.539.539,0,0,0-.564.576v4.26a.549.549,0,0,0,.564.564.556.556,0,0,0,.564-.564V13.144a1.376,1.376,0,0,1,1.416-1.476,1.309,1.309,0,0,1,1.356,1.464v2.4a.549.549,0,0,0,.564.564A.541.541,0,0,0,25.056,15.532Zm10.248,0V13.084a2.169,2.169,0,0,0-2.172-2.436A1.837,1.837,0,0,0,31.4,11.656V8.488a.526.526,0,0,0-.564-.576.539.539,0,0,0-.564.576v7.044a.549.549,0,0,0,.564.564.556.556,0,0,0,.564-.564V13.144a1.376,1.376,0,0,1,1.416-1.476,1.309,1.309,0,0,1,1.356,1.464v2.4a.549.549,0,0,0,.564.564A.541.541,0,0,0,35.3,15.532ZM39.4,10.648A2.646,2.646,0,0,0,36.708,13.4a2.589,2.589,0,0,0,2.736,2.748,2.874,2.874,0,0,0,2.136-.876.5.5,0,0,0,.144-.324.454.454,0,0,0-.468-.468.551.551,0,0,0-.372.18,1.844,1.844,0,0,1-1.392.588,1.5,1.5,0,0,1-1.62-1.452H41.46c.324,0,.432-.192.432-.384A2.548,2.548,0,0,0,39.4,10.648Zm1.452,2.232H37.9a1.49,1.49,0,0,1,1.5-1.332A1.463,1.463,0,0,1,40.848,12.88ZM44.5,15.532V8.476a.564.564,0,1,0-1.128,0v7.056a.564.564,0,1,0,1.128,0ZM51.78,13.4a2.591,2.591,0,0,0-2.508-2.748,2.163,2.163,0,0,0-1.884,1.032v-.408a.542.542,0,0,0-.552-.576.523.523,0,0,0-.54.564v6.516a.564.564,0,0,0,1.128,0V15.112a2.158,2.158,0,0,0,1.848,1.032A2.556,2.556,0,0,0,51.78,13.4Zm-1.128,0a1.623,1.623,0,0,1-1.608,1.812,1.7,1.7,0,0,1-1.62-1.812,1.7,1.7,0,0,1,1.62-1.812A1.623,1.623,0,0,1,50.652,13.4Zm10.2-2.184a.469.469,0,0,0-.48-.516.513.513,0,0,0-.528.408l-1.38,3.732-1.536-3.828a.512.512,0,0,0-.984.192.775.775,0,0,0,.048.228l1.872,4.488a3.568,3.568,0,0,1-1.368,1.5.5.5,0,0,0-.288.468.476.476,0,0,0,.5.456A.578.578,0,0,0,57,18.256a5.072,5.072,0,0,0,2.22-2.784c.672-1.548,1.224-3,1.584-4A.863.863,0,0,0,60.852,11.212ZM67.068,13.4a2.748,2.748,0,0,0-5.5,0,2.748,2.748,0,0,0,5.5,0Zm-1.128,0a1.628,1.628,0,1,1-3.24,0,1.628,1.628,0,1,1,3.24,0Zm2.532-2.136v2.448a2.169,2.169,0,0,0,2.172,2.436,1.837,1.837,0,0,0,1.728-1.008v.384a.526.526,0,0,0,.564.576.539.539,0,0,0,.564-.576V11.26a.549.549,0,0,0-.564-.564.556.556,0,0,0-.564.564v2.388a1.376,1.376,0,0,1-1.416,1.476A1.309,1.309,0,0,1,69.6,13.66v-2.4a.549.549,0,0,0-.564-.564A.541.541,0,0,0,68.472,11.26Zm13.608-.228a.477.477,0,0,0-.912,0l-1.2,3.252-1.056-3.228a.445.445,0,0,0-.456-.36.475.475,0,0,0-.516.48.7.7,0,0,0,.048.216l1.476,4.38a.435.435,0,0,0,.468.324.477.477,0,0,0,.48-.336l1.212-3.324,1.224,3.324a.473.473,0,0,0,.48.336.45.45,0,0,0,.468-.324l1.476-4.38a.7.7,0,0,0,.048-.216.475.475,0,0,0-.516-.48.445.445,0,0,0-.456.36l-1.056,3.228Zm5.628,4.5V11.26a.564.564,0,1,0-1.128,0v4.272a.564.564,0,1,0,1.128,0ZM86.484,9.22a.66.66,0,1,0,.66-.66A.666.666,0,0,0,86.484,9.22Zm4.788,6.312v-3.8H92.3a.468.468,0,1,0,0-.936H91.272V9.22a.564.564,0,1,0-1.128,0v1.572h-.912a.468.468,0,1,0,0,.936h.912v3.8a.564.564,0,1,0,1.128,0Zm7.428,0V13.084a2.169,2.169,0,0,0-2.172-2.436A1.837,1.837,0,0,0,94.8,11.656V8.488a.526.526,0,0,0-.564-.576.539.539,0,0,0-.564.576v7.044a.549.549,0,0,0,.564.564.556.556,0,0,0,.564-.564V13.144a1.376,1.376,0,0,1,1.416-1.476,1.309,1.309,0,0,1,1.356,1.464v2.4a.549.549,0,0,0,.564.564A.541.541,0,0,0,98.7,15.532ZM109.4,13.4a2.556,2.556,0,0,0-2.508-2.748,2.158,2.158,0,0,0-1.848,1.032v-3.2a.564.564,0,1,0-1.128,0v7.056a.523.523,0,0,0,.54.564.542.542,0,0,0,.552-.576v-.408a2.163,2.163,0,0,0,1.884,1.032A2.591,2.591,0,0,0,109.4,13.4Zm-1.128,0a1.623,1.623,0,0,1-1.608,1.812,1.7,1.7,0,0,1-1.62-1.812,1.7,1.7,0,0,1,1.62-1.812A1.623,1.623,0,0,1,108.276,13.4Zm7.752,0a2.748,2.748,0,1,0-5.5,0,2.748,2.748,0,1,0,5.5,0Zm-1.128,0a1.628,1.628,0,1,1-3.24,0,1.628,1.628,0,1,1,3.24,0Zm7.752,0a2.748,2.748,0,1,0-5.5,0,2.748,2.748,0,1,0,5.5,0Zm-1.128,0a1.628,1.628,0,1,1-3.24,0,1.628,1.628,0,1,1,3.24,0Zm3.72,2.136V14.068l.7-.564,1.848,2.376a.459.459,0,0,0,.384.216.5.5,0,0,0,.54-.516.512.512,0,0,0-.12-.324l-1.848-2.376,1.62-1.26a.55.55,0,0,0,.264-.432.493.493,0,0,0-.516-.492.557.557,0,0,0-.348.12l-2.52,1.968V8.476a.564.564,0,1,0-1.128,0v7.056a.564.564,0,1,0,1.128,0Zm5.976,0V11.26a.564.564,0,0,0-1.128,0v4.272a.564.564,0,0,0,1.128,0ZM130,9.22a.66.66,0,1,0,.66-.66A.666.666,0,0,0,130,9.22Zm8.052,6.312V13.084a2.169,2.169,0,0,0-2.172-2.436,1.837,1.837,0,0,0-1.728,1.008v-.384a.526.526,0,0,0-.564-.576.539.539,0,0,0-.564.576v4.26a.549.549,0,0,0,.564.564.556.556,0,0,0,.564-.564V13.144a1.376,1.376,0,0,1,1.416-1.476,1.309,1.309,0,0,1,1.356,1.464v2.4a.549.549,0,0,0,.564.564A.541.541,0,0,0,138.048,15.532Zm5.76-2.232a1.616,1.616,0,1,1-3.228,0,1.616,1.616,0,1,1,3.228,0Zm1.128,2.328V11.26a.547.547,0,1,0-1.092.012v.384a2.136,2.136,0,0,0-1.86-1.008,2.482,2.482,0,0,0-2.532,2.652,2.5,2.5,0,0,0,2.532,2.652,2.119,2.119,0,0,0,1.824-1.008v.768c0,1.08-.4,1.716-1.752,1.716A2.917,2.917,0,0,1,140.544,17a.494.494,0,0,0-.8.372.521.521,0,0,0,.3.444,4.154,4.154,0,0,0,2.088.528C144.132,18.34,144.936,17.284,144.936,15.628ZM5.388,31.532V28.916c0-1.464-.888-2.268-2.472-2.268a4.805,4.805,0,0,0-1.608.264c-.3.12-.528.264-.528.54a.45.45,0,0,0,.48.468,1.211,1.211,0,0,0,.372-.1,3.283,3.283,0,0,1,1.188-.216c1.044,0,1.44.432,1.44,1.38V29.5a2.354,2.354,0,0,0-1.62-.612c-1.164,0-2.04.564-2.04,1.632,0,.96.828,1.62,1.992,1.62a2.043,2.043,0,0,0,1.692-.72v.108a.539.539,0,0,0,.552.564A.519.519,0,0,0,5.388,31.532ZM4.26,30.524c0,.5-.6.852-1.308.852s-1.224-.312-1.224-.852.492-.852,1.248-.852C3.612,29.672,4.26,29.984,4.26,30.524ZM12.588,29.4a2.591,2.591,0,0,0-2.508-2.748A2.163,2.163,0,0,0,8.2,27.68v-.408a.542.542,0,0,0-.552-.576.523.523,0,0,0-.54.564v6.516a.564.564,0,0,0,1.128,0V31.112a2.158,2.158,0,0,0,1.848,1.032A2.556,2.556,0,0,0,12.588,29.4Zm-1.128,0a1.623,1.623,0,0,1-1.608,1.812,1.823,1.823,0,0,1,0-3.624A1.623,1.623,0,0,1,11.46,29.4Zm8.076,0a2.591,2.591,0,0,0-2.508-2.748,2.163,2.163,0,0,0-1.884,1.032v-.408a.542.542,0,0,0-.552-.576.523.523,0,0,0-.54.564v6.516a.564.564,0,0,0,1.128,0V31.112a2.158,2.158,0,0,0,1.848,1.032A2.556,2.556,0,0,0,19.536,29.4Zm-1.128,0A1.623,1.623,0,0,1,16.8,31.208a1.823,1.823,0,0,1,0-3.624A1.623,1.623,0,0,1,18.408,29.4Zm7.752,0a2.748,2.748,0,1,0-2.748,2.748A2.66,2.66,0,0,0,26.16,29.4Zm-1.128,0a1.628,1.628,0,1,1-3.24,0,1.628,1.628,0,1,1,3.24,0Zm3.72,2.136V27.26a.564.564,0,1,0-1.128,0v4.272a.564.564,0,1,0,1.128,0ZM27.528,25.22a.66.66,0,1,0,.66-.66A.666.666,0,0,0,27.528,25.22Zm8.052,6.312V29.084a2.169,2.169,0,0,0-2.172-2.436,1.837,1.837,0,0,0-1.728,1.008v-.384a.526.526,0,0,0-.564-.576.539.539,0,0,0-.564.576v4.26a.549.549,0,0,0,.564.564.556.556,0,0,0,.564-.564V29.144A1.376,1.376,0,0,1,33.1,27.668a1.309,1.309,0,0,1,1.356,1.464v2.4a.549.549,0,0,0,.564.564A.541.541,0,0,0,35.58,31.532Zm3.468,0v-3.8H40.08a.468.468,0,1,0,0-.936H39.048V25.22a.564.564,0,1,0-1.128,0v1.572h-.912a.468.468,0,1,0,0,.936h.912v3.8a.564.564,0,1,0,1.128,0Zm11.208,0V29.048c0-1.4-.7-2.4-2.148-2.4a2.259,2.259,0,0,0-2,1.068,1.981,1.981,0,0,0-1.836-1.068,1.88,1.88,0,0,0-1.692,1.008v-.384a.532.532,0,0,0-.564-.576.539.539,0,0,0-.564.576v4.26a.556.556,0,0,0,.564.564.549.549,0,0,0,.564-.564V29.144a1.363,1.363,0,0,1,1.392-1.476,1.3,1.3,0,0,1,1.32,1.464v2.4a.549.549,0,0,0,.564.564.542.542,0,0,0,.564-.564V29.144a1.405,1.405,0,0,1,1.428-1.476c.888,0,1.284.636,1.284,1.464v2.4a.556.556,0,0,0,.564.564A.549.549,0,0,0,50.256,31.532Zm4.092-4.884A2.646,2.646,0,0,0,51.66,29.4,2.589,2.589,0,0,0,54.4,32.144a2.874,2.874,0,0,0,2.136-.876.5.5,0,0,0,.144-.324.454.454,0,0,0-.468-.468.551.551,0,0,0-.372.18,1.844,1.844,0,0,1-1.392.588,1.5,1.5,0,0,1-1.62-1.452h3.588c.324,0,.432-.192.432-.384A2.548,2.548,0,0,0,54.348,26.648ZM55.8,28.88H52.848a1.49,1.49,0,0,1,1.5-1.332A1.463,1.463,0,0,1,55.8,28.88Zm7.548,2.652V29.084a2.169,2.169,0,0,0-2.172-2.436,1.837,1.837,0,0,0-1.728,1.008v-.384a.526.526,0,0,0-.564-.576.539.539,0,0,0-.564.576v4.26a.549.549,0,0,0,.564.564.556.556,0,0,0,.564-.564V29.144a1.376,1.376,0,0,1,1.416-1.476,1.309,1.309,0,0,1,1.356,1.464v2.4a.549.549,0,0,0,.564.564A.541.541,0,0,0,63.348,31.532Zm3.468,0v-3.8h1.032a.468.468,0,1,0,0-.936H66.816V25.22a.564.564,0,1,0-1.128,0v1.572h-.912a.468.468,0,1,0,0,.936h.912v3.8a.564.564,0,1,0,1.128,0Zm6.48-.924c0-.972-.672-1.32-1.968-1.692-.864-.252-1.224-.384-1.224-.792s.408-.576,1.008-.576a2.356,2.356,0,0,1,1.14.276,1.094,1.094,0,0,0,.492.168.393.393,0,0,0,.432-.42c0-.24-.228-.432-.552-.588a3.547,3.547,0,0,0-1.488-.336c-1.3,0-2.124.588-2.124,1.488,0,.864.54,1.368,2.016,1.764.84.228,1.176.384,1.176.792,0,.372-.348.612-1,.612a2.262,2.262,0,0,1-1.356-.468.7.7,0,0,0-.444-.168.4.4,0,0,0-.432.4.6.6,0,0,0,.24.468,3.125,3.125,0,0,0,1.908.612C72.552,32.144,73.3,31.5,73.3,30.608Zm9.372.924V28.916c0-1.464-.888-2.268-2.472-2.268a4.805,4.805,0,0,0-1.608.264c-.3.12-.528.264-.528.54a.45.45,0,0,0,.48.468,1.211,1.211,0,0,0,.372-.1,3.283,3.283,0,0,1,1.188-.216c1.044,0,1.44.432,1.44,1.38V29.5a2.354,2.354,0,0,0-1.62-.612c-1.164,0-2.04.564-2.04,1.632,0,.96.828,1.62,1.992,1.62a2.043,2.043,0,0,0,1.692-.72v.108a.539.539,0,0,0,.552.564A.519.519,0,0,0,82.668,31.532ZM81.54,30.524c0,.5-.6.852-1.308.852s-1.224-.312-1.224-.852.492-.852,1.248-.852C80.892,29.672,81.54,29.984,81.54,30.524Zm7.872,1.008V29.084a2.169,2.169,0,0,0-2.172-2.436,1.837,1.837,0,0,0-1.728,1.008v-.384a.526.526,0,0,0-.564-.576.539.539,0,0,0-.564.576v4.26a.549.549,0,0,0,.564.564.556.556,0,0,0,.564-.564V29.144a1.376,1.376,0,0,1,1.416-1.476,1.309,1.309,0,0,1,1.356,1.464v2.4a.549.549,0,0,0,.564.564A.541.541,0,0,0,89.412,31.532Zm1.4-2.136a2.591,2.591,0,0,0,2.508,2.748,2.163,2.163,0,0,0,1.884-1.032v.408a.542.542,0,0,0,.552.576.523.523,0,0,0,.54-.564V24.476a.564.564,0,0,0-1.128,0v3.2a2.158,2.158,0,0,0-1.848-1.032A2.556,2.556,0,0,0,90.816,29.4Zm1.128,0a1.623,1.623,0,0,1,1.608-1.812,1.823,1.823,0,0,1,0,3.624A1.623,1.623,0,0,1,91.944,29.4Zm14.664,2.136V29.084a2.169,2.169,0,0,0-2.172-2.436,1.837,1.837,0,0,0-1.728,1.008V24.488a.526.526,0,0,0-.564-.576.539.539,0,0,0-.564.576v7.044a.549.549,0,0,0,.564.564.556.556,0,0,0,.564-.564V29.144a1.376,1.376,0,0,1,1.416-1.476,1.309,1.309,0,0,1,1.356,1.464v2.4a.549.549,0,0,0,.564.564A.541.541,0,0,0,106.608,31.532Zm4.092-4.884a2.646,2.646,0,0,0-2.688,2.748,2.589,2.589,0,0,0,2.736,2.748,2.874,2.874,0,0,0,2.136-.876.5.5,0,0,0,.144-.324.454.454,0,0,0-.468-.468.551.551,0,0,0-.372.18,1.844,1.844,0,0,1-1.392.588,1.5,1.5,0,0,1-1.62-1.452h3.588c.324,0,.432-.192.432-.384A2.548,2.548,0,0,0,110.7,26.648Zm1.452,2.232H109.2a1.49,1.49,0,0,1,1.5-1.332A1.463,1.463,0,0,1,112.152,28.88Zm7.008,2.652V28.916c0-1.464-.888-2.268-2.472-2.268a4.805,4.805,0,0,0-1.608.264c-.3.12-.528.264-.528.54a.45.45,0,0,0,.48.468,1.211,1.211,0,0,0,.372-.1,3.283,3.283,0,0,1,1.188-.216c1.044,0,1.44.432,1.44,1.38V29.5a2.354,2.354,0,0,0-1.62-.612c-1.164,0-2.04.564-2.04,1.632,0,.96.828,1.62,1.992,1.62a2.043,2.043,0,0,0,1.692-.72v.108a.539.539,0,0,0,.552.564A.519.519,0,0,0,119.16,31.532Zm-1.128-1.008c0,.5-.6.852-1.308.852s-1.224-.312-1.224-.852.492-.852,1.248-.852C117.384,29.672,118.032,29.984,118.032,30.524ZM122,31.532V24.476a.564.564,0,1,0-1.128,0v7.056a.564.564,0,1,0,1.128,0Zm3.564,0v-3.8H126.6a.468.468,0,1,0,0-.936h-1.032V25.22a.564.564,0,1,0-1.128,0v1.572h-.912a.468.468,0,1,0,0,.936h.912v3.8a.564.564,0,1,0,1.128,0Zm7.428,0V29.084a2.169,2.169,0,0,0-2.172-2.436,1.837,1.837,0,0,0-1.728,1.008V24.488a.526.526,0,0,0-.564-.576.539.539,0,0,0-.564.576v7.044a.549.549,0,0,0,.564.564.556.556,0,0,0,.564-.564V29.144a1.376,1.376,0,0,1,1.416-1.476,1.309,1.309,0,0,1,1.356,1.464v2.4a.549.549,0,0,0,.564.564A.541.541,0,0,0,133,31.532ZM4.08,43.2a.5.5,0,0,0-.528-.528,1.519,1.519,0,0,0-1.524,1.116v-.516a.536.536,0,0,0-.552-.576.555.555,0,0,0-.576.576v4.26a.535.535,0,0,0,.564.564.556.556,0,0,0,.564-.564V45.564c0-1.212.576-1.836,1.524-1.836A.518.518,0,0,0,4.08,43.2ZM7.3,42.648A2.646,2.646,0,0,0,4.608,45.4a2.589,2.589,0,0,0,2.736,2.748,2.874,2.874,0,0,0,2.136-.876.5.5,0,0,0,.144-.324.454.454,0,0,0-.468-.468.551.551,0,0,0-.372.18,1.844,1.844,0,0,1-1.392.588,1.5,1.5,0,0,1-1.62-1.452H9.36c.324,0,.432-.192.432-.384A2.548,2.548,0,0,0,7.3,42.648ZM8.748,44.88H5.8a1.49,1.49,0,0,1,1.5-1.332A1.463,1.463,0,0,1,8.748,44.88ZM12.4,47.532V40.476a.564.564,0,1,0-1.128,0v7.056a.564.564,0,0,0,1.128,0Zm6.288,0V44.916c0-1.464-.888-2.268-2.472-2.268a4.805,4.805,0,0,0-1.608.264c-.3.12-.528.264-.528.54a.45.45,0,0,0,.48.468,1.211,1.211,0,0,0,.372-.1,3.283,3.283,0,0,1,1.188-.216c1.044,0,1.44.432,1.44,1.38V45.5a2.354,2.354,0,0,0-1.62-.612c-1.164,0-2.04.564-2.04,1.632,0,.96.828,1.62,1.992,1.62a2.043,2.043,0,0,0,1.692-.72v.108a.539.539,0,0,0,.552.564A.519.519,0,0,0,18.684,47.532Zm-1.128-1.008c0,.5-.6.852-1.308.852s-1.224-.312-1.224-.852.492-.852,1.248-.852C16.908,45.672,17.556,45.984,17.556,46.524Zm4.584,1.008v-3.8h1.032a.468.468,0,0,0,0-.936H22.14V41.22a.564.564,0,1,0-1.128,0v1.572H20.1a.468.468,0,1,0,0,.936h.912v3.8a.564.564,0,0,0,1.128,0Zm4.608-4.884A2.646,2.646,0,0,0,24.06,45.4,2.589,2.589,0,0,0,26.8,48.144a2.874,2.874,0,0,0,2.136-.876.5.5,0,0,0,.144-.324.454.454,0,0,0-.468-.468.551.551,0,0,0-.372.18,1.844,1.844,0,0,1-1.392.588,1.5,1.5,0,0,1-1.62-1.452h3.588c.324,0,.432-.192.432-.384A2.548,2.548,0,0,0,26.748,42.648ZM28.2,44.88H25.248a1.49,1.49,0,0,1,1.5-1.332A1.463,1.463,0,0,1,28.2,44.88Zm2.184.516a2.591,2.591,0,0,0,2.508,2.748,2.163,2.163,0,0,0,1.884-1.032v.408a.542.542,0,0,0,.552.576.523.523,0,0,0,.54-.564V40.476a.564.564,0,1,0-1.128,0v3.2a2.158,2.158,0,0,0-1.848-1.032A2.556,2.556,0,0,0,30.384,45.4Zm1.128,0a1.623,1.623,0,0,1,1.608-1.812,1.823,1.823,0,0,1,0,3.624A1.623,1.623,0,0,1,31.512,45.4Zm9.3,0a2.556,2.556,0,0,0,2.508,2.748,2.158,2.158,0,0,0,1.848-1.032v2.664a.564.564,0,0,0,1.128,0V43.26a.523.523,0,0,0-.54-.564.542.542,0,0,0-.552.576v.408a2.163,2.163,0,0,0-1.884-1.032A2.591,2.591,0,0,0,40.812,45.4Zm1.128,0a1.623,1.623,0,0,1,1.608-1.812,1.823,1.823,0,0,1,0,3.624A1.623,1.623,0,0,1,41.94,45.4Zm6.1-2.136v2.448a2.169,2.169,0,0,0,2.172,2.436,1.837,1.837,0,0,0,1.728-1.008v.384a.526.526,0,0,0,.564.576.539.539,0,0,0,.564-.576V43.26A.549.549,0,0,0,52.5,42.7a.556.556,0,0,0-.564.564v2.388a1.376,1.376,0,0,1-1.416,1.476,1.309,1.309,0,0,1-1.356-1.464v-2.4A.549.549,0,0,0,48.6,42.7.541.541,0,0,0,48.036,43.26Zm9.18-.612A2.646,2.646,0,0,0,54.528,45.4a2.589,2.589,0,0,0,2.736,2.748,2.874,2.874,0,0,0,2.136-.876.5.5,0,0,0,.144-.324.454.454,0,0,0-.468-.468.551.551,0,0,0-.372.18,1.844,1.844,0,0,1-1.392.588,1.5,1.5,0,0,1-1.62-1.452H59.28c.324,0,.432-.192.432-.384A2.548,2.548,0,0,0,57.216,42.648Zm1.452,2.232H55.716a1.49,1.49,0,0,1,1.5-1.332A1.463,1.463,0,0,1,58.668,44.88Zm5.7-1.68a.5.5,0,0,0-.528-.528,1.519,1.519,0,0,0-1.524,1.116v-.516a.536.536,0,0,0-.552-.576.555.555,0,0,0-.576.576v4.26a.535.535,0,0,0,.564.564.556.556,0,0,0,.564-.564V45.564c0-1.212.576-1.836,1.524-1.836A.518.518,0,0,0,64.368,43.2Zm2.172,4.332V43.26a.564.564,0,1,0-1.128,0v4.272a.564.564,0,1,0,1.128,0ZM65.316,41.22a.66.66,0,1,0,.66-.66A.666.666,0,0,0,65.316,41.22Zm5.376,1.428A2.646,2.646,0,0,0,68,45.4a2.589,2.589,0,0,0,2.736,2.748,2.874,2.874,0,0,0,2.136-.876.5.5,0,0,0,.144-.324.454.454,0,0,0-.468-.468.551.551,0,0,0-.372.18,1.844,1.844,0,0,1-1.392.588,1.5,1.5,0,0,1-1.62-1.452h3.588c.324,0,.432-.192.432-.384A2.548,2.548,0,0,0,70.692,42.648Zm1.452,2.232H69.192a1.49,1.49,0,0,1,1.5-1.332A1.463,1.463,0,0,1,72.144,44.88Zm6.6,1.728c0-.972-.672-1.32-1.968-1.692-.864-.252-1.224-.384-1.224-.792s.408-.576,1.008-.576a2.356,2.356,0,0,1,1.14.276,1.094,1.094,0,0,0,.492.168.393.393,0,0,0,.432-.42c0-.24-.228-.432-.552-.588a3.547,3.547,0,0,0-1.488-.336c-1.3,0-2.124.588-2.124,1.488,0,.864.54,1.368,2.016,1.764.84.228,1.176.384,1.176.792,0,.372-.348.612-1,.612a2.262,2.262,0,0,1-1.356-.468.7.7,0,0,0-.444-.168.4.4,0,0,0-.432.4.6.6,0,0,0,.24.468,3.125,3.125,0,0,0,1.908.612C78,48.144,78.744,47.5,78.744,46.608Zm1.344.768a.72.72,0,1,0,.72-.72A.722.722,0,0,0,80.088,47.376Z" transform="translate(16766 -1763)"/>
  </g>
</svg>
