<svg xmlns="http://www.w3.org/2000/svg" viewBox="0 0 218 49.521">
  <defs>
    <style>
      .cls-1 {
        fill: #0099c2;
      }

      .cls-2 {
        fill: #fff;
      }
    </style>
  </defs>
  <g id="Group_1381" data-name="Group 1381" transform="translate(-17353 -1631)">
    <g id="Group_1331" data-name="Group 1331">
      <path id="Rectangle_1321" data-name="Rectangle 1321" class="cls-1" d="M12,0H206a12,12,0,0,1,12,12V49.521a0,0,0,0,1,0,0H12a12,12,0,0,1-12-12V12A12,12,0,0,1,12,0Z" transform="translate(17353 1631)"/>
      <path id="Path_928" data-name="Path 928" class="cls-2" d="M7.692-.492V-7.5a.564.564,0,0,0-.576-.588A.571.571,0,0,0,6.54-7.5v2.856H2.232V-7.5a.571.571,0,0,0-.576-.588A.564.564,0,0,0,1.08-7.5V-.492A.574.574,0,0,0,1.668.1a.562.562,0,0,0,.564-.588V-3.564H6.54V-.492A.579.579,0,0,0,7.116.1.571.571,0,0,0,7.692-.492ZM10.8-.468V-4.74a.556.556,0,0,0-.564-.564.556.556,0,0,0-.564.564V-.468A.549.549,0,0,0,10.236.1.549.549,0,0,0,10.8-.468ZM9.576-6.78a.666.666,0,0,0,.66.66.666.666,0,0,0,.66-.66.666.666,0,0,0-.66-.66A.666.666,0,0,0,9.576-6.78ZM13.608-.372v-.48a.482.482,0,0,0-.492-.528.482.482,0,0,0-.492.528v.636a3.747,3.747,0,0,1-.312,1.476.845.845,0,0,0-.108.348A.437.437,0,0,0,12.7,2a.539.539,0,0,0,.492-.36A4.45,4.45,0,0,0,13.608-.372Zm7.7-4.98A2.642,2.642,0,0,0,18.5-2.6,2.642,2.642,0,0,0,21.312.144a2.536,2.536,0,0,0,1.86-.756.55.55,0,0,0,.168-.4.472.472,0,0,0-.516-.456c-.2,0-.336.168-.48.288a1.523,1.523,0,0,1-1.02.372,1.659,1.659,0,0,1-1.692-1.8,1.659,1.659,0,0,1,1.692-1.8,1.523,1.523,0,0,1,1.02.372c.144.12.276.288.48.288A.472.472,0,0,0,23.34-4.2a.55.55,0,0,0-.168-.4A2.536,2.536,0,0,0,21.312-5.352ZM29.328-.468V-3.084c0-1.464-.888-2.268-2.472-2.268a4.805,4.805,0,0,0-1.608.264c-.3.12-.528.264-.528.54a.45.45,0,0,0,.48.468,1.211,1.211,0,0,0,.372-.1,3.283,3.283,0,0,1,1.188-.216c1.044,0,1.44.432,1.44,1.38V-2.5a2.354,2.354,0,0,0-1.62-.612c-1.164,0-2.04.564-2.04,1.632,0,.96.828,1.62,1.992,1.62a2.043,2.043,0,0,0,1.692-.72v.108A.539.539,0,0,0,28.776.1.519.519,0,0,0,29.328-.468ZM28.2-1.476c0,.5-.6.852-1.308.852s-1.224-.312-1.224-.852.492-.852,1.248-.852C27.552-2.328,28.2-2.016,28.2-1.476ZM36.072-.468V-2.916A2.169,2.169,0,0,0,33.9-5.352a1.837,1.837,0,0,0-1.728,1.008v-.384a.526.526,0,0,0-.564-.576.539.539,0,0,0-.564.576v4.26A.549.549,0,0,0,31.608.1a.556.556,0,0,0,.564-.564V-2.856a1.376,1.376,0,0,1,1.416-1.476,1.309,1.309,0,0,1,1.356,1.464v2.4A.549.549,0,0,0,35.508.1.541.541,0,0,0,36.072-.468Zm9.348-4.32a.469.469,0,0,0-.48-.516.513.513,0,0,0-.528.408l-1.38,3.732L41.5-4.992a.479.479,0,0,0-.48-.312.478.478,0,0,0-.5.5.775.775,0,0,0,.048.228L42.432-.084a3.568,3.568,0,0,1-1.368,1.5.5.5,0,0,0-.288.468.476.476,0,0,0,.5.456.578.578,0,0,0,.288-.084,5.072,5.072,0,0,0,2.22-2.784c.672-1.548,1.224-3,1.584-4A.863.863,0,0,0,45.42-4.788ZM51.636-2.6a2.66,2.66,0,0,0-2.748-2.748A2.66,2.66,0,0,0,46.14-2.6,2.66,2.66,0,0,0,48.888.144,2.66,2.66,0,0,0,51.636-2.6Zm-1.128,0a1.621,1.621,0,0,1-1.62,1.788A1.621,1.621,0,0,1,47.268-2.6a1.621,1.621,0,0,1,1.62-1.788A1.621,1.621,0,0,1,50.508-2.6ZM53.04-4.74v2.448A2.169,2.169,0,0,0,55.212.144,1.837,1.837,0,0,0,56.94-.864V-.48A.526.526,0,0,0,57.5.1a.539.539,0,0,0,.564-.576V-4.74A.549.549,0,0,0,57.5-5.3a.556.556,0,0,0-.564.564v2.388A1.376,1.376,0,0,1,55.524-.876,1.309,1.309,0,0,1,54.168-2.34v-2.4A.549.549,0,0,0,53.6-5.3.541.541,0,0,0,53.04-4.74ZM68.832-2.6a2.556,2.556,0,0,0-2.508-2.748A2.158,2.158,0,0,0,64.476-4.32v-3.2a.549.549,0,0,0-.564-.564.549.549,0,0,0-.564.564V-.468a.523.523,0,0,0,.54.564A.542.542,0,0,0,64.44-.48V-.888A2.163,2.163,0,0,0,66.324.144,2.591,2.591,0,0,0,68.832-2.6ZM67.7-2.6A1.623,1.623,0,0,1,66.1-.792,1.7,1.7,0,0,1,64.476-2.6,1.7,1.7,0,0,1,66.1-4.416,1.623,1.623,0,0,1,67.7-2.6Zm7.752,0a2.66,2.66,0,0,0-2.748-2.748A2.66,2.66,0,0,0,69.96-2.6,2.66,2.66,0,0,0,72.708.144,2.66,2.66,0,0,0,75.456-2.6Zm-1.128,0a1.621,1.621,0,0,1-1.62,1.788A1.621,1.621,0,0,1,71.088-2.6a1.621,1.621,0,0,1,1.62-1.788A1.621,1.621,0,0,1,74.328-2.6Zm7.752,0a2.66,2.66,0,0,0-2.748-2.748A2.66,2.66,0,0,0,76.584-2.6,2.66,2.66,0,0,0,79.332.144,2.66,2.66,0,0,0,82.08-2.6Zm-1.128,0a1.621,1.621,0,0,1-1.62,1.788A1.621,1.621,0,0,1,77.712-2.6a1.621,1.621,0,0,1,1.62-1.788A1.621,1.621,0,0,1,80.952-2.6Zm3.72,2.136V-1.932l.7-.564L87.216-.12A.459.459,0,0,0,87.6.1a.5.5,0,0,0,.54-.516.512.512,0,0,0-.12-.324L86.172-3.12l1.62-1.26a.55.55,0,0,0,.264-.432A.493.493,0,0,0,87.54-5.3a.557.557,0,0,0-.348.12l-2.52,1.968V-7.524a.549.549,0,0,0-.564-.564.549.549,0,0,0-.564.564V-.468A.549.549,0,0,0,84.108.1.549.549,0,0,0,84.672-.468Zm12.816,0V-3.084c0-1.464-.888-2.268-2.472-2.268a4.805,4.805,0,0,0-1.608.264c-.3.12-.528.264-.528.54a.45.45,0,0,0,.48.468,1.211,1.211,0,0,0,.372-.1,3.283,3.283,0,0,1,1.188-.216c1.044,0,1.44.432,1.44,1.38V-2.5a2.354,2.354,0,0,0-1.62-.612c-1.164,0-2.04.564-2.04,1.632,0,.96.828,1.62,1.992,1.62a2.043,2.043,0,0,0,1.692-.72v.108A.539.539,0,0,0,96.936.1.519.519,0,0,0,97.488-.468ZM96.36-1.476c0,.5-.6.852-1.308.852s-1.224-.312-1.224-.852.492-.852,1.248-.852C95.712-2.328,96.36-2.016,96.36-1.476Zm7.872,1.008V-2.916a2.169,2.169,0,0,0-2.172-2.436,1.837,1.837,0,0,0-1.728,1.008v-.384a.526.526,0,0,0-.564-.576.539.539,0,0,0-.564.576v4.26A.549.549,0,0,0,99.768.1a.556.556,0,0,0,.564-.564V-2.856a1.376,1.376,0,0,1,1.416-1.476A1.309,1.309,0,0,1,103.1-2.868v2.4a.549.549,0,0,0,.564.564A.541.541,0,0,0,104.232-.468Zm9.708,0V-3.084c0-1.464-.888-2.268-2.472-2.268a4.805,4.805,0,0,0-1.608.264c-.3.12-.528.264-.528.54a.45.45,0,0,0,.48.468,1.211,1.211,0,0,0,.372-.1,3.283,3.283,0,0,1,1.188-.216c1.044,0,1.44.432,1.44,1.38V-2.5a2.354,2.354,0,0,0-1.62-.612c-1.164,0-2.04.564-2.04,1.632,0,.96.828,1.62,1.992,1.62a2.043,2.043,0,0,0,1.692-.72v.108a.539.539,0,0,0,.552.564A.519.519,0,0,0,113.94-.468Zm-1.128-1.008c0,.5-.6.852-1.308.852s-1.224-.312-1.224-.852.492-.852,1.248-.852C112.164-2.328,112.812-2.016,112.812-1.476ZM121.14-2.6a2.591,2.591,0,0,0-2.508-2.748,2.163,2.163,0,0,0-1.884,1.032v-.408A.542.542,0,0,0,116.2-5.3a.523.523,0,0,0-.54.564V1.776a.564.564,0,1,0,1.128,0V-.888A2.158,2.158,0,0,0,118.632.144,2.556,2.556,0,0,0,121.14-2.6Zm-1.128,0A1.623,1.623,0,0,1,118.4-.792a1.7,1.7,0,0,1-1.62-1.812,1.7,1.7,0,0,1,1.62-1.812A1.623,1.623,0,0,1,120.012-2.6Zm8.076,0a2.591,2.591,0,0,0-2.508-2.748A2.163,2.163,0,0,0,123.7-4.32v-.408a.542.542,0,0,0-.552-.576.523.523,0,0,0-.54.564V1.776a.564.564,0,1,0,1.128,0V-.888A2.158,2.158,0,0,0,125.58.144,2.556,2.556,0,0,0,128.088-2.6Zm-1.128,0a1.623,1.623,0,0,1-1.608,1.812,1.7,1.7,0,0,1-1.62-1.812,1.7,1.7,0,0,1,1.62-1.812A1.623,1.623,0,0,1,126.96-2.6Zm7.752,0a2.66,2.66,0,0,0-2.748-2.748A2.66,2.66,0,0,0,129.216-2.6,2.66,2.66,0,0,0,131.964.144,2.66,2.66,0,0,0,134.712-2.6Zm-1.128,0a1.621,1.621,0,0,1-1.62,1.788,1.621,1.621,0,0,1-1.62-1.788,1.621,1.621,0,0,1,1.62-1.788A1.621,1.621,0,0,1,133.584-2.6ZM137.3-.468V-4.74a.556.556,0,0,0-.564-.564.556.556,0,0,0-.564.564V-.468A.549.549,0,0,0,136.74.1.549.549,0,0,0,137.3-.468ZM136.08-6.78a.666.666,0,0,0,.66.66.666.666,0,0,0,.66-.66.666.666,0,0,0-.66-.66A.666.666,0,0,0,136.08-6.78Zm8.052,6.312V-2.916a2.169,2.169,0,0,0-2.172-2.436,1.837,1.837,0,0,0-1.728,1.008v-.384a.526.526,0,0,0-.564-.576.539.539,0,0,0-.564.576v4.26a.549.549,0,0,0,.564.564.556.556,0,0,0,.564-.564V-2.856a1.376,1.376,0,0,1,1.416-1.476A1.309,1.309,0,0,1,143-2.868v2.4a.549.549,0,0,0,.564.564A.541.541,0,0,0,144.132-.468Zm3.468,0v-3.8h1.032a.461.461,0,0,0,.468-.468.461.461,0,0,0-.468-.468H147.6V-6.78a.549.549,0,0,0-.564-.564.549.549,0,0,0-.564.564v1.572h-.912a.461.461,0,0,0-.468.468.461.461,0,0,0,.468.468h.912v3.8a.549.549,0,0,0,.564.564A.549.549,0,0,0,147.6-.468Zm11.208,0V-2.952c0-1.4-.7-2.4-2.148-2.4a2.259,2.259,0,0,0-2,1.068,1.981,1.981,0,0,0-1.836-1.068,1.88,1.88,0,0,0-1.692,1.008v-.384a.532.532,0,0,0-.564-.576.539.539,0,0,0-.564.576v4.26a.556.556,0,0,0,.564.564.549.549,0,0,0,.564-.564V-2.856a1.363,1.363,0,0,1,1.392-1.476,1.3,1.3,0,0,1,1.32,1.464v2.4A.549.549,0,0,0,154.4.1a.542.542,0,0,0,.564-.564V-2.856A1.405,1.405,0,0,1,156.4-4.332c.888,0,1.284.636,1.284,1.464v2.4a.556.556,0,0,0,.564.564A.549.549,0,0,0,158.808-.468ZM162.9-5.352A2.646,2.646,0,0,0,160.212-2.6,2.589,2.589,0,0,0,162.948.144a2.874,2.874,0,0,0,2.136-.876.5.5,0,0,0,.144-.324.454.454,0,0,0-.468-.468.551.551,0,0,0-.372.18A1.844,1.844,0,0,1,163-.756a1.5,1.5,0,0,1-1.62-1.452h3.588c.324,0,.432-.192.432-.384A2.548,2.548,0,0,0,162.9-5.352Zm1.452,2.232H161.4a1.49,1.49,0,0,1,1.5-1.332A1.463,1.463,0,0,1,164.352-3.12ZM171.9-.468V-2.916a2.169,2.169,0,0,0-2.172-2.436A1.837,1.837,0,0,0,168-4.344v-.384a.526.526,0,0,0-.564-.576.539.539,0,0,0-.564.576v4.26a.549.549,0,0,0,.564.564A.556.556,0,0,0,168-.468V-2.856a1.376,1.376,0,0,1,1.416-1.476,1.309,1.309,0,0,1,1.356,1.464v2.4a.549.549,0,0,0,.564.564A.541.541,0,0,0,171.9-.468Zm3.468,0v-3.8H176.4a.461.461,0,0,0,.468-.468.461.461,0,0,0-.468-.468h-1.032V-6.78a.549.549,0,0,0-.564-.564.549.549,0,0,0-.564.564v1.572h-.912a.461.461,0,0,0-.468.468.461.461,0,0,0,.468.468h.912v3.8A.549.549,0,0,0,174.8.1.549.549,0,0,0,175.368-.468ZM4.5,11.032a.445.445,0,0,0-.456-.336.445.445,0,0,0-.456.336l-1.2,3.252L1.332,11.056a.445.445,0,0,0-.456-.36.475.475,0,0,0-.516.48.7.7,0,0,0,.048.216l1.476,4.38a.435.435,0,0,0,.468.324.477.477,0,0,0,.48-.336l1.212-3.324L5.268,15.76a.473.473,0,0,0,.48.336.45.45,0,0,0,.468-.324l1.476-4.38a.7.7,0,0,0,.048-.216.475.475,0,0,0-.516-.48.445.445,0,0,0-.456.36L5.712,14.284Zm5.628,4.5V11.26A.564.564,0,0,0,9,11.26v4.272a.564.564,0,1,0,1.128,0ZM8.9,9.22a.66.66,0,1,0,.66-.66A.666.666,0,0,0,8.9,9.22Zm4.788,6.312v-3.8h1.032a.468.468,0,0,0,0-.936H13.692V9.22a.564.564,0,1,0-1.128,0v1.572h-.912a.468.468,0,0,0,0,.936h.912v3.8a.564.564,0,1,0,1.128,0Zm7.428,0V13.084a2.169,2.169,0,0,0-2.172-2.436,1.837,1.837,0,0,0-1.728,1.008V8.488a.526.526,0,0,0-.564-.576.539.539,0,0,0-.564.576v7.044a.549.549,0,0,0,.564.564.556.556,0,0,0,.564-.564V13.144a1.376,1.376,0,0,1,1.416-1.476,1.309,1.309,0,0,1,1.356,1.464v2.4a.549.549,0,0,0,.564.564A.541.541,0,0,0,21.12,15.532ZM33.336,12a3.8,3.8,0,0,0-4.008-4h-2.22a.589.589,0,0,0-.588.588v6.816a.589.589,0,0,0,.588.588h2.22A3.8,3.8,0,0,0,33.336,12Zm-1.152,0a2.727,2.727,0,0,1-2.892,2.94h-1.62V9.064h1.62A2.727,2.727,0,0,1,32.184,12Zm5.832-.8a.5.5,0,0,0-.528-.528,1.519,1.519,0,0,0-1.524,1.116v-.516a.536.536,0,0,0-.552-.576.555.555,0,0,0-.576.576v4.26a.535.535,0,0,0,.564.564.556.556,0,0,0,.564-.564V13.564c0-1.212.576-1.836,1.524-1.836A.518.518,0,0,0,38.016,11.2Zm.2,4.176a.72.72,0,1,0,.72-.72A.722.722,0,0,0,38.22,15.376ZM52,14.488V12.5a.551.551,0,0,0-.576-.588H48.96a.515.515,0,0,0-.528.516.525.525,0,0,0,.528.528h1.908v1.476a3.375,3.375,0,0,1-2.22.72A2.873,2.873,0,0,1,45.744,12a2.884,2.884,0,0,1,2.88-3.072,3.051,3.051,0,0,1,1.98.72.638.638,0,0,0,.384.144.51.51,0,0,0,.528-.528.53.53,0,0,0-.18-.384,3.644,3.644,0,0,0-2.712-1.02A3.953,3.953,0,0,0,44.58,12a3.945,3.945,0,0,0,4.068,4.14,4.3,4.3,0,0,0,3.216-1.272A.474.474,0,0,0,52,14.488ZM58.8,13.4a2.748,2.748,0,0,0-5.5,0,2.748,2.748,0,0,0,5.5,0Zm-1.128,0a1.628,1.628,0,1,1-3.24,0,1.628,1.628,0,1,1,3.24,0Zm4.944-2.748A2.646,2.646,0,0,0,59.928,13.4a2.589,2.589,0,0,0,2.736,2.748,2.874,2.874,0,0,0,2.136-.876.5.5,0,0,0,.144-.324.454.454,0,0,0-.468-.468.551.551,0,0,0-.372.18,1.844,1.844,0,0,1-1.392.588,1.5,1.5,0,0,1-1.62-1.452H64.68c.324,0,.432-.192.432-.384A2.548,2.548,0,0,0,62.616,10.648Zm1.452,2.232H61.116a1.49,1.49,0,0,1,1.5-1.332A1.463,1.463,0,0,1,64.068,12.88Zm3.648,2.652V8.476a.564.564,0,1,0-1.128,0v7.056a.564.564,0,1,0,1.128,0Zm8.484-7.1a.461.461,0,0,0-.468-.468h-.42a1.8,1.8,0,0,0-2,2.04v.792H72.6a.468.468,0,0,0,0,.936h.708v3.8a.564.564,0,1,0,1.128,0v-3.8h1.188a.468.468,0,1,0,0-.936H74.436V9.916c0-.792.348-1.02.96-1.02h.336A.461.461,0,0,0,76.2,8.428ZM82.092,13.4a2.748,2.748,0,1,0-5.5,0,2.748,2.748,0,1,0,5.5,0Zm-1.128,0a1.628,1.628,0,1,1-3.24,0,1.628,1.628,0,1,1,3.24,0Zm5.772-2.2a.5.5,0,0,0-.528-.528,1.519,1.519,0,0,0-1.524,1.116v-.516a.536.536,0,0,0-.552-.576.555.555,0,0,0-.576.576v4.26a.535.535,0,0,0,.564.564.556.556,0,0,0,.564-.564V13.564c0-1.212.576-1.836,1.524-1.836A.518.518,0,0,0,86.736,11.2Zm10.3-2.652a.523.523,0,0,0-.54-.54H92.016a.569.569,0,0,0-.576.576V15.52a.576.576,0,1,0,1.152,0V12.436h2.2a.53.53,0,0,0,.54-.54.538.538,0,0,0-.54-.54h-2.2V9.088h3.9A.545.545,0,0,0,97.032,8.548Zm3.432,2.652a.5.5,0,0,0-.528-.528,1.519,1.519,0,0,0-1.524,1.116v-.516a.536.536,0,0,0-.552-.576.555.555,0,0,0-.576.576v4.26a.535.535,0,0,0,.564.564.556.556,0,0,0,.564-.564V13.564c0-1.212.576-1.836,1.524-1.836A.518.518,0,0,0,100.464,11.2Zm2.172,4.332V11.26a.564.564,0,1,0-1.128,0v4.272a.564.564,0,1,0,1.128,0ZM101.412,9.22a.66.66,0,1,0,.66-.66A.666.666,0,0,0,101.412,9.22ZM104.1,13.4a2.591,2.591,0,0,0,2.508,2.748,2.163,2.163,0,0,0,1.884-1.032v.408a.542.542,0,0,0,.552.576.523.523,0,0,0,.54-.564V8.476a.564.564,0,1,0-1.128,0v3.2a2.158,2.158,0,0,0-1.848-1.032A2.556,2.556,0,0,0,104.1,13.4Zm1.128,0a1.623,1.623,0,0,1,1.608-1.812,1.7,1.7,0,0,1,1.62,1.812,1.7,1.7,0,0,1-1.62,1.812A1.623,1.623,0,0,1,105.228,13.4Zm10.644,2.136V12.916c0-1.464-.888-2.268-2.472-2.268a4.805,4.805,0,0,0-1.608.264c-.3.12-.528.264-.528.54a.45.45,0,0,0,.48.468,1.211,1.211,0,0,0,.372-.1,3.283,3.283,0,0,1,1.188-.216c1.044,0,1.44.432,1.44,1.38V13.5a2.354,2.354,0,0,0-1.62-.612c-1.164,0-2.04.564-2.04,1.632,0,.96.828,1.62,1.992,1.62a2.043,2.043,0,0,0,1.692-.72v.108a.539.539,0,0,0,.552.564A.519.519,0,0,0,115.872,15.532Zm-1.128-1.008c0,.5-.6.852-1.308.852s-1.224-.312-1.224-.852.492-.852,1.248-.852C114.1,13.672,114.744,13.984,114.744,14.524Zm7.188-3.312a.469.469,0,0,0-.48-.516.513.513,0,0,0-.528.408l-1.38,3.732-1.536-3.828a.512.512,0,0,0-.984.192.775.775,0,0,0,.048.228l1.872,4.488a3.568,3.568,0,0,1-1.368,1.5.5.5,0,0,0-.288.468.476.476,0,0,0,.5.456.578.578,0,0,0,.288-.084,5.072,5.072,0,0,0,2.22-2.784c.672-1.548,1.224-3,1.584-4A.863.863,0,0,0,121.932,11.212Zm5.856-1.524c0-1.236-.984-1.824-2.448-1.824a4.342,4.342,0,0,0-2.028.492c-.252.132-.42.288-.42.528a.464.464,0,0,0,.48.468.664.664,0,0,0,.312-.072,3.176,3.176,0,0,1,1.608-.408c.84,0,1.368.252,1.368.84,0,.5-.408.84-1.068,1.392a2.183,2.183,0,0,0-1.068,1.992v.312a.529.529,0,0,0,.552.552.545.545,0,0,0,.576-.564v-.288c0-.66.18-.852.9-1.464C127.464,10.876,127.788,10.42,127.788,9.688Zm-3.4,5.688a.72.72,0,1,0,.72-.72A.722.722,0,0,0,124.392,15.376Z" transform="translate(17372 1651)"/>
    </g>
  </g>
</svg>
