<svg xmlns="http://www.w3.org/2000/svg" viewBox="0 0 218 85">
  <defs>
    <style>
      .cls-1 {
        fill: #d3f6ff;
      }

      .cls-2 {
        fill: #36414c;
      }

      .cls-3 {
        fill: #fff;
      }

      .cls-4 {
        fill: #0099c2;
      }
    </style>
  </defs>
  <g id="Group_1364" data-name="Group 1364" transform="translate(-17353 -1695)">
    <path id="Rectangle_1322" data-name="Rectangle 1322" class="cls-1" d="M0,0H201a12,12,0,0,1,12,12V60a12,12,0,0,1-12,12H12A12,12,0,0,1,0,60V0A0,0,0,0,1,0,0Z" transform="translate(17358 1708)"/>
    <path id="Path_929" data-name="Path 929" class="cls-2" d="M6.984-2.124C6.984-3.492,5.916-4.008,4-4.608,2.616-5.04,2.028-5.292,2.028-6c0-.78.756-1.116,1.932-1.116a4.071,4.071,0,0,1,2.052.588.46.46,0,0,0,.228.06.472.472,0,0,0,.492-.516c0-.372-.564-.66-.972-.816a5.161,5.161,0,0,0-1.812-.336c-1.8,0-3.072.72-3.072,2.16,0,1.128.672,1.788,2.808,2.424,1.44.432,2.148.684,2.148,1.488,0,.684-.624,1.2-1.9,1.2A3.842,3.842,0,0,1,1.68-1.608a.8.8,0,0,0-.408-.144.453.453,0,0,0-.492.468.731.731,0,0,0,.312.54A4.821,4.821,0,0,0,3.924.144C5.928.144,6.984-.84,6.984-2.124ZM8.412-4.74v2.448A2.169,2.169,0,0,0,10.584.144,1.837,1.837,0,0,0,12.312-.864V-.48A.526.526,0,0,0,12.876.1.539.539,0,0,0,13.44-.48V-4.74a.549.549,0,0,0-.564-.564.556.556,0,0,0-.564.564v2.388A1.376,1.376,0,0,1,10.9-.876,1.309,1.309,0,0,1,9.54-2.34v-2.4A.549.549,0,0,0,8.976-5.3.541.541,0,0,0,8.412-4.74ZM18.42-4.8a.5.5,0,0,0-.528-.528,1.519,1.519,0,0,0-1.524,1.116v-.516a.536.536,0,0,0-.552-.576.555.555,0,0,0-.576.576v4.26A.535.535,0,0,0,15.8.1a.556.556,0,0,0,.564-.564V-2.436c0-1.212.576-1.836,1.524-1.836A.518.518,0,0,0,18.42-4.8Zm3.216-.552A2.646,2.646,0,0,0,18.948-2.6,2.589,2.589,0,0,0,21.684.144,2.874,2.874,0,0,0,23.82-.732a.5.5,0,0,0,.144-.324.454.454,0,0,0-.468-.468.551.551,0,0,0-.372.18,1.844,1.844,0,0,1-1.392.588,1.5,1.5,0,0,1-1.62-1.452H23.7c.324,0,.432-.192.432-.384A2.548,2.548,0,0,0,21.636-5.352ZM23.088-3.12H20.136a1.49,1.49,0,0,1,1.5-1.332A1.463,1.463,0,0,1,23.088-3.12Zm2.46,2.5a.722.722,0,0,0,.72.72.722.722,0,0,0,.72-.72.722.722,0,0,0-.72-.72A.722.722,0,0,0,25.548-.624ZM39.2-4a3.8,3.8,0,0,0-4.008-4h-2.22a.589.589,0,0,0-.588.588V-.588A.589.589,0,0,0,32.976,0H35.2A3.8,3.8,0,0,0,39.2-4ZM38.052-4a2.727,2.727,0,0,1-2.892,2.94H33.54v-5.88h1.62A2.727,2.727,0,0,1,38.052-4Zm5.832-.8a.5.5,0,0,0-.528-.528,1.519,1.519,0,0,0-1.524,1.116v-.516A.536.536,0,0,0,41.28-5.3a.555.555,0,0,0-.576.576v4.26A.535.535,0,0,0,41.268.1a.556.556,0,0,0,.564-.564V-2.436c0-1.212.576-1.836,1.524-1.836A.518.518,0,0,0,43.884-4.8Zm.2,4.176a.722.722,0,0,0,.72.72.722.722,0,0,0,.72-.72.722.722,0,0,0-.72-.72A.722.722,0,0,0,44.088-.624Zm13.776-.888V-3.5a.551.551,0,0,0-.576-.588h-2.46a.515.515,0,0,0-.528.516.525.525,0,0,0,.528.528h1.908v1.476a3.375,3.375,0,0,1-2.22.72A2.873,2.873,0,0,1,51.612-4a2.884,2.884,0,0,1,2.88-3.072,3.051,3.051,0,0,1,1.98.72.638.638,0,0,0,.384.144.51.51,0,0,0,.528-.528.53.53,0,0,0-.18-.384,3.644,3.644,0,0,0-2.712-1.02A3.953,3.953,0,0,0,50.448-4,3.945,3.945,0,0,0,54.516.144a4.3,4.3,0,0,0,3.216-1.272A.474.474,0,0,0,57.864-1.512Zm6.8-1.092A2.66,2.66,0,0,0,61.92-5.352,2.66,2.66,0,0,0,59.172-2.6,2.66,2.66,0,0,0,61.92.144,2.66,2.66,0,0,0,64.668-2.6Zm-1.128,0A1.621,1.621,0,0,1,61.92-.816,1.621,1.621,0,0,1,60.3-2.6a1.621,1.621,0,0,1,1.62-1.788A1.621,1.621,0,0,1,63.54-2.6Zm4.944-2.748A2.646,2.646,0,0,0,65.8-2.6,2.589,2.589,0,0,0,68.532.144a2.874,2.874,0,0,0,2.136-.876.5.5,0,0,0,.144-.324.454.454,0,0,0-.468-.468.551.551,0,0,0-.372.18,1.844,1.844,0,0,1-1.392.588,1.5,1.5,0,0,1-1.62-1.452h3.588c.324,0,.432-.192.432-.384A2.548,2.548,0,0,0,68.484-5.352ZM69.936-3.12H66.984a1.49,1.49,0,0,1,1.5-1.332A1.463,1.463,0,0,1,69.936-3.12ZM73.584-.468V-7.524a.549.549,0,0,0-.564-.564.549.549,0,0,0-.564.564V-.468A.549.549,0,0,0,73.02.1.549.549,0,0,0,73.584-.468Zm6.408,0V-4.74a.556.556,0,0,0-.564-.564.556.556,0,0,0-.564.564V-.468A.549.549,0,0,0,79.428.1.549.549,0,0,0,79.992-.468ZM78.768-6.78a.666.666,0,0,0,.66.66.666.666,0,0,0,.66-.66.666.666,0,0,0-.66-.66A.666.666,0,0,0,78.768-6.78Zm7.164,5.388c0-.972-.672-1.32-1.968-1.692-.864-.252-1.224-.384-1.224-.792s.408-.576,1.008-.576a2.356,2.356,0,0,1,1.14.276,1.094,1.094,0,0,0,.492.168.393.393,0,0,0,.432-.42c0-.24-.228-.432-.552-.588a3.547,3.547,0,0,0-1.488-.336c-1.3,0-2.124.588-2.124,1.488,0,.864.54,1.368,2.016,1.764.84.228,1.176.384,1.176.792,0,.372-.348.612-1,.612a2.262,2.262,0,0,1-1.356-.468.7.7,0,0,0-.444-.168.4.4,0,0,0-.432.4.6.6,0,0,0,.24.468A3.125,3.125,0,0,0,83.76.144C85.188.144,85.932-.5,85.932-1.392ZM95.3-.468V-3.084c0-1.464-.888-2.268-2.472-2.268a4.805,4.805,0,0,0-1.608.264c-.3.12-.528.264-.528.54a.45.45,0,0,0,.48.468,1.211,1.211,0,0,0,.372-.1,3.283,3.283,0,0,1,1.188-.216c1.044,0,1.44.432,1.44,1.38V-2.5a2.354,2.354,0,0,0-1.62-.612c-1.164,0-2.04.564-2.04,1.632,0,.96.828,1.62,1.992,1.62A2.043,2.043,0,0,0,94.2-.576v.108A.539.539,0,0,0,94.752.1.519.519,0,0,0,95.3-.468ZM94.176-1.476c0,.5-.6.852-1.308.852s-1.224-.312-1.224-.852.492-.852,1.248-.852C93.528-2.328,94.176-2.016,94.176-1.476Zm3.2-3.516A.469.469,0,0,0,96.9-5.3a.488.488,0,0,0-.5.516.505.505,0,0,0,.048.216L98.424-.2a.487.487,0,0,0,.456.3.487.487,0,0,0,.456-.3l1.98-4.368a.506.506,0,0,0,.048-.216.488.488,0,0,0-.5-.516.469.469,0,0,0-.48.312L98.88-1.56Zm9.612,4.524V-3.084c0-1.464-.888-2.268-2.472-2.268a4.805,4.805,0,0,0-1.608.264c-.3.12-.528.264-.528.54a.45.45,0,0,0,.48.468,1.211,1.211,0,0,0,.372-.1,3.283,3.283,0,0,1,1.188-.216c1.044,0,1.44.432,1.44,1.38V-2.5a2.354,2.354,0,0,0-1.62-.612c-1.164,0-2.04.564-2.04,1.632,0,.96.828,1.62,1.992,1.62a2.043,2.043,0,0,0,1.692-.72v.108A.539.539,0,0,0,106.44.1.519.519,0,0,0,106.992-.468Zm-1.128-1.008c0,.5-.6.852-1.308.852s-1.224-.312-1.224-.852.492-.852,1.248-.852C105.216-2.328,105.864-2.016,105.864-1.476Zm3.972,1.008V-4.74a.556.556,0,0,0-.564-.564.556.556,0,0,0-.564.564V-.468a.549.549,0,0,0,.564.564A.549.549,0,0,0,109.836-.468ZM108.612-6.78a.666.666,0,0,0,.66.66.666.666,0,0,0,.66-.66.666.666,0,0,0-.66-.66A.666.666,0,0,0,108.612-6.78Zm4.152,6.312V-7.524a.549.549,0,0,0-.564-.564.549.549,0,0,0-.564.564V-.468A.549.549,0,0,0,112.2.1.549.549,0,0,0,112.764-.468Zm6.288,0V-3.084c0-1.464-.888-2.268-2.472-2.268a4.805,4.805,0,0,0-1.608.264c-.3.12-.528.264-.528.54a.45.45,0,0,0,.48.468,1.211,1.211,0,0,0,.372-.1,3.283,3.283,0,0,1,1.188-.216c1.044,0,1.44.432,1.44,1.38V-2.5a2.354,2.354,0,0,0-1.62-.612c-1.164,0-2.04.564-2.04,1.632,0,.96.828,1.62,1.992,1.62a2.043,2.043,0,0,0,1.692-.72v.108A.539.539,0,0,0,118.5.1.519.519,0,0,0,119.052-.468Zm-1.128-1.008c0,.5-.6.852-1.308.852s-1.224-.312-1.224-.852.492-.852,1.248-.852C117.276-2.328,117.924-2.016,117.924-1.476ZM126.252-2.6a2.556,2.556,0,0,0-2.508-2.748A2.158,2.158,0,0,0,121.9-4.32v-3.2a.549.549,0,0,0-.564-.564.549.549,0,0,0-.564.564V-.468a.523.523,0,0,0,.54.564.542.542,0,0,0,.552-.576V-.888A2.163,2.163,0,0,0,123.744.144,2.591,2.591,0,0,0,126.252-2.6Zm-1.128,0a1.623,1.623,0,0,1-1.608,1.812A1.7,1.7,0,0,1,121.9-2.6a1.7,1.7,0,0,1,1.62-1.812A1.623,1.623,0,0,1,125.124-2.6Zm3.72,2.136V-7.524a.549.549,0,0,0-.564-.564.549.549,0,0,0-.564.564V-.468A.549.549,0,0,0,128.28.1.549.549,0,0,0,128.844-.468ZM133-5.352A2.646,2.646,0,0,0,130.308-2.6,2.589,2.589,0,0,0,133.044.144a2.874,2.874,0,0,0,2.136-.876.5.5,0,0,0,.144-.324.454.454,0,0,0-.468-.468.551.551,0,0,0-.372.18,1.844,1.844,0,0,1-1.392.588,1.5,1.5,0,0,1-1.62-1.452h3.588c.324,0,.432-.192.432-.384A2.548,2.548,0,0,0,133-5.352Zm1.452,2.232H131.5A1.49,1.49,0,0,1,133-4.452,1.463,1.463,0,0,1,134.448-3.12ZM144.936-.468V-3.084c0-1.464-.888-2.268-2.472-2.268a4.805,4.805,0,0,0-1.608.264c-.3.12-.528.264-.528.54a.45.45,0,0,0,.48.468,1.211,1.211,0,0,0,.372-.1,3.283,3.283,0,0,1,1.188-.216c1.044,0,1.44.432,1.44,1.38V-2.5a2.354,2.354,0,0,0-1.62-.612c-1.164,0-2.04.564-2.04,1.632,0,.96.828,1.62,1.992,1.62a2.043,2.043,0,0,0,1.692-.72v.108a.539.539,0,0,0,.552.564A.519.519,0,0,0,144.936-.468Zm-1.128-1.008c0,.5-.6.852-1.308.852s-1.224-.312-1.224-.852.492-.852,1.248-.852C143.16-2.328,143.808-2.016,143.808-1.476Zm4.584,1.008v-3.8h1.032a.461.461,0,0,0,.468-.468.461.461,0,0,0-.468-.468h-1.032V-6.78a.549.549,0,0,0-.564-.564.549.549,0,0,0-.564.564v1.572h-.912a.461.461,0,0,0-.468.468.461.461,0,0,0,.468.468h.912v3.8a.549.549,0,0,0,.564.564A.549.549,0,0,0,148.392-.468Zm-144.84,16V8.488A.523.523,0,0,0,3,7.912a.726.726,0,0,0-.264.048L.708,8.584A.481.481,0,0,0,.3,9.076a.538.538,0,0,0,.564.516.6.6,0,0,0,.144-.024l1.416-.432v6.4a.549.549,0,0,0,.564.564A.549.549,0,0,0,3.552,15.532ZM12.192,12c0-2.16-1.224-4.14-3.42-4.14S5.352,9.844,5.352,12s1.224,4.14,3.42,4.14S12.192,14.164,12.192,12Zm-1.128,0c0,1.764-.9,3.132-2.292,3.132S6.48,13.768,6.48,12s.9-3.132,2.292-3.132S11.064,10.24,11.064,12Zm2.628,3.372a.72.72,0,1,0,.72-.72A.722.722,0,0,0,13.692,15.376Zm0-3.144a.72.72,0,1,0,.72-.72A.722.722,0,0,0,13.692,12.232ZM23.472,12c0-2.16-1.224-4.14-3.42-4.14s-3.42,1.98-3.42,4.14,1.224,4.14,3.42,4.14S23.472,14.164,23.472,12Zm-1.128,0c0,1.764-.9,3.132-2.292,3.132S17.76,13.768,17.76,12s.9-3.132,2.292-3.132S22.344,10.24,22.344,12Zm9.288,0c0-2.16-1.224-4.14-3.42-4.14s-3.42,1.98-3.42,4.14,1.224,4.14,3.42,4.14S31.632,14.164,31.632,12ZM30.5,12c0,1.764-.9,3.132-2.292,3.132S25.92,13.768,25.92,12s.9-3.132,2.292-3.132S30.5,10.24,30.5,12Zm7.716,3.528V13.084a2.169,2.169,0,0,0-2.172-2.436,1.837,1.837,0,0,0-1.728,1.008V8.488a.526.526,0,0,0-.564-.576.539.539,0,0,0-.564.576v7.044a.549.549,0,0,0,.564.564.556.556,0,0,0,.564-.564V13.144a1.376,1.376,0,0,1,1.416-1.476,1.309,1.309,0,0,1,1.356,1.464v2.4a.549.549,0,0,0,.564.564A.541.541,0,0,0,38.22,15.532ZM43.14,11.2a.5.5,0,0,0-.528-.528,1.519,1.519,0,0,0-1.524,1.116v-.516a.536.536,0,0,0-.552-.576.555.555,0,0,0-.576.576v4.26a.535.535,0,0,0,.564.564.556.556,0,0,0,.564-.564V13.564c0-1.212.576-1.836,1.524-1.836A.518.518,0,0,0,43.14,11.2Zm5.148,3.408c0-.972-.672-1.32-1.968-1.692-.864-.252-1.224-.384-1.224-.792s.408-.576,1.008-.576a2.356,2.356,0,0,1,1.14.276,1.094,1.094,0,0,0,.492.168.393.393,0,0,0,.432-.42c0-.24-.228-.432-.552-.588a3.547,3.547,0,0,0-1.488-.336c-1.3,0-2.124.588-2.124,1.488,0,.864.54,1.368,2.016,1.764.84.228,1.176.384,1.176.792,0,.372-.348.612-1,.612a2.262,2.262,0,0,1-1.356-.468.7.7,0,0,0-.444-.168.4.4,0,0,0-.432.4.6.6,0,0,0,.24.468,3.125,3.125,0,0,0,1.908.612C47.544,16.144,48.288,15.5,48.288,14.608Zm2.412,1.02v-.48a.493.493,0,1,0-.984,0v.636A3.747,3.747,0,0,1,49.4,17.26a.845.845,0,0,0-.108.348.437.437,0,0,0,.492.4.539.539,0,0,0,.492-.36A4.45,4.45,0,0,0,50.7,15.628Zm7.872-.1V8.488a.523.523,0,0,0-.552-.576.726.726,0,0,0-.264.048l-2.028.624a.481.481,0,0,0-.408.492.538.538,0,0,0,.564.516.6.6,0,0,0,.144-.024l1.416-.432v6.4a.564.564,0,1,0,1.128,0Zm4.692,0V8.488a.523.523,0,0,0-.552-.576.726.726,0,0,0-.264.048l-2.028.624a.481.481,0,0,0-.408.492.538.538,0,0,0,.564.516.6.6,0,0,0,.144-.024l1.416-.432v6.4a.564.564,0,1,0,1.128,0Zm1.98-.156a.72.72,0,1,0,.72-.72A.722.722,0,0,0,65.244,15.376Zm0-3.144a.72.72,0,1,0,.72-.72A.722.722,0,0,0,65.244,12.232Zm9.384,1.476a2.083,2.083,0,0,0-1.752-2.1A1.827,1.827,0,0,0,74.088,9.88c0-1.272-1-2.016-2.532-2.016a4.72,4.72,0,0,0-1.764.312c-.3.12-.756.336-.756.72a.425.425,0,0,0,.456.444,1.142,1.142,0,0,0,.528-.168,2.939,2.939,0,0,1,1.44-.348c.876,0,1.5.312,1.5,1.14,0,.744-.588,1.272-1.74,1.272H70.7a.492.492,0,0,0-.516.492.5.5,0,0,0,.516.5h.672c1.212,0,2.124.408,2.124,1.428,0,.972-.852,1.524-2.016,1.524a3.4,3.4,0,0,1-2.34-.852.539.539,0,0,0-.324-.12.492.492,0,0,0-.516.492.541.541,0,0,0,.2.408,4.354,4.354,0,0,0,2.976,1.032C73.332,16.144,74.628,15.16,74.628,13.708Zm8.22-1.7c0-2.16-1.224-4.14-3.42-4.14s-3.42,1.98-3.42,4.14,1.224,4.14,3.42,4.14S82.848,14.164,82.848,12ZM81.72,12c0,1.764-.9,3.132-2.292,3.132S77.136,13.768,77.136,12s.9-3.132,2.292-3.132S81.72,10.24,81.72,12Zm7.716,3.528V13.084a2.169,2.169,0,0,0-2.172-2.436,1.837,1.837,0,0,0-1.728,1.008V8.488a.526.526,0,0,0-.564-.576.539.539,0,0,0-.564.576v7.044a.549.549,0,0,0,.564.564.556.556,0,0,0,.564-.564V13.144a1.376,1.376,0,0,1,1.416-1.476,1.309,1.309,0,0,1,1.356,1.464v2.4a.549.549,0,0,0,.564.564A.541.541,0,0,0,89.436,15.532Zm4.92-4.332a.5.5,0,0,0-.528-.528A1.519,1.519,0,0,0,92.3,11.788v-.516a.536.536,0,0,0-.552-.576.555.555,0,0,0-.576.576v4.26a.535.535,0,0,0,.564.564.556.556,0,0,0,.564-.564V13.564c0-1.212.576-1.836,1.524-1.836A.518.518,0,0,0,94.356,11.2ZM99.5,14.608c0-.972-.672-1.32-1.968-1.692-.864-.252-1.224-.384-1.224-.792s.408-.576,1.008-.576a2.356,2.356,0,0,1,1.14.276,1.094,1.094,0,0,0,.492.168.393.393,0,0,0,.432-.42c0-.24-.228-.432-.552-.588a3.547,3.547,0,0,0-1.488-.336c-1.3,0-2.124.588-2.124,1.488,0,.864.54,1.368,2.016,1.764.84.228,1.176.384,1.176.792,0,.372-.348.612-1,.612a2.262,2.262,0,0,1-1.356-.468.7.7,0,0,0-.444-.168.4.4,0,0,0-.432.4.6.6,0,0,0,.24.468,3.125,3.125,0,0,0,1.908.612C98.76,16.144,99.5,15.5,99.5,14.608Zm2.412,1.02v-.48a.493.493,0,1,0-.984,0v.636a3.747,3.747,0,0,1-.312,1.476.845.845,0,0,0-.108.348A.437.437,0,0,0,101,18a.539.539,0,0,0,.492-.36A4.45,4.45,0,0,0,101.916,15.628Zm9.708-.1V12.916c0-1.464-.888-2.268-2.472-2.268a4.805,4.805,0,0,0-1.608.264c-.3.12-.528.264-.528.54a.45.45,0,0,0,.48.468,1.211,1.211,0,0,0,.372-.1,3.283,3.283,0,0,1,1.188-.216c1.044,0,1.44.432,1.44,1.38V13.5a2.354,2.354,0,0,0-1.62-.612c-1.164,0-2.04.564-2.04,1.632,0,.96.828,1.62,1.992,1.62a2.043,2.043,0,0,0,1.692-.72v.108a.539.539,0,0,0,.552.564A.519.519,0,0,0,111.624,15.532ZM110.5,14.524c0,.5-.6.852-1.308.852s-1.224-.312-1.224-.852.492-.852,1.248-.852C109.848,13.672,110.5,13.984,110.5,14.524Zm7.872,1.008V13.084a2.169,2.169,0,0,0-2.172-2.436,1.837,1.837,0,0,0-1.728,1.008v-.384a.526.526,0,0,0-.564-.576.539.539,0,0,0-.564.576v4.26a.549.549,0,0,0,.564.564.556.556,0,0,0,.564-.564V13.144a1.376,1.376,0,0,1,1.416-1.476,1.309,1.309,0,0,1,1.356,1.464v2.4a.549.549,0,0,0,.564.564A.541.541,0,0,0,118.368,15.532Zm1.4-2.136a2.591,2.591,0,0,0,2.508,2.748,2.163,2.163,0,0,0,1.884-1.032v.408a.542.542,0,0,0,.552.576.523.523,0,0,0,.54-.564V8.476a.564.564,0,1,0-1.128,0v3.2a2.158,2.158,0,0,0-1.848-1.032A2.556,2.556,0,0,0,119.772,13.4Zm1.128,0a1.623,1.623,0,0,1,1.608-1.812,1.7,1.7,0,0,1,1.62,1.812,1.7,1.7,0,0,1-1.62,1.812A1.623,1.623,0,0,1,120.9,13.4Zm12.288,2.136V8.488a.523.523,0,0,0-.552-.576.726.726,0,0,0-.264.048l-2.028.624a.481.481,0,0,0-.408.492.538.538,0,0,0,.564.516.6.6,0,0,0,.144-.024l1.416-.432v6.4a.564.564,0,0,0,1.128,0Zm8.22-1.98a2.509,2.509,0,0,0-2.808-2.508,2.683,2.683,0,0,0-2.328,1.092,5.622,5.622,0,0,1,3.024-3.36c.24-.132.348-.276.348-.48a.436.436,0,0,0-.48-.432.983.983,0,0,0-.36.084,5.88,5.88,0,0,0-3.7,5.232,2.883,2.883,0,0,0,3.216,2.964C140.232,16.144,141.408,15.028,141.408,13.552Zm-1.128.012c0,.912-.72,1.632-1.944,1.632s-1.956-.624-1.956-1.608c0-1.008.948-1.6,2-1.6C139.512,11.992,140.28,12.58,140.28,13.564Zm2.544,1.812a.72.72,0,1,0,.72-.72A.722.722,0,0,0,142.824,15.376Zm0-3.144a.72.72,0,1,0,.72-.72A.722.722,0,0,0,142.824,12.232ZM152.6,12c0-2.16-1.224-4.14-3.42-4.14s-3.42,1.98-3.42,4.14,1.224,4.14,3.42,4.14S152.6,14.164,152.6,12Zm-1.128,0c0,1.764-.9,3.132-2.292,3.132s-2.292-1.368-2.292-3.132.9-3.132,2.292-3.132S151.476,10.24,151.476,12Zm9.288,0c0-2.16-1.224-4.14-3.42-4.14s-3.42,1.98-3.42,4.14,1.224,4.14,3.42,4.14S160.764,14.164,160.764,12Zm-1.128,0c0,1.764-.9,3.132-2.292,3.132s-2.292-1.368-2.292-3.132.9-3.132,2.292-3.132S159.636,10.24,159.636,12Zm7.716,3.528V13.084a2.169,2.169,0,0,0-2.172-2.436,1.837,1.837,0,0,0-1.728,1.008V8.488a.526.526,0,0,0-.564-.576.539.539,0,0,0-.564.576v7.044a.549.549,0,0,0,.564.564.556.556,0,0,0,.564-.564V13.144a1.376,1.376,0,0,1,1.416-1.476,1.309,1.309,0,0,1,1.356,1.464v2.4a.549.549,0,0,0,.564.564A.541.541,0,0,0,167.352,15.532Zm4.92-4.332a.5.5,0,0,0-.528-.528,1.519,1.519,0,0,0-1.524,1.116v-.516a.536.536,0,0,0-.552-.576.555.555,0,0,0-.576.576v4.26a.535.535,0,0,0,.564.564.556.556,0,0,0,.564-.564V13.564c0-1.212.576-1.836,1.524-1.836A.518.518,0,0,0,172.272,11.2Zm5.148,3.408c0-.972-.672-1.32-1.968-1.692-.864-.252-1.224-.384-1.224-.792s.408-.576,1.008-.576a2.356,2.356,0,0,1,1.14.276,1.093,1.093,0,0,0,.492.168.393.393,0,0,0,.432-.42c0-.24-.228-.432-.552-.588a3.547,3.547,0,0,0-1.488-.336c-1.3,0-2.124.588-2.124,1.488,0,.864.54,1.368,2.016,1.764.84.228,1.176.384,1.176.792,0,.372-.348.612-1,.612a2.262,2.262,0,0,1-1.356-.468.7.7,0,0,0-.444-.168.4.4,0,0,0-.432.4.6.6,0,0,0,.24.468,3.125,3.125,0,0,0,1.908.612C176.676,16.144,177.42,15.5,177.42,14.608ZM6.06,29.4a2.66,2.66,0,0,0-2.748-2.748,2.748,2.748,0,0,0,0,5.5A2.66,2.66,0,0,0,6.06,29.4Zm-1.128,0a1.628,1.628,0,1,1-3.24,0,1.628,1.628,0,1,1,3.24,0Zm7.62,2.136V29.084a2.169,2.169,0,0,0-2.172-2.436,1.837,1.837,0,0,0-1.728,1.008v-.384a.526.526,0,0,0-.564-.576.539.539,0,0,0-.564.576v4.26a.549.549,0,0,0,.564.564.556.556,0,0,0,.564-.564V29.144a1.376,1.376,0,0,1,1.416-1.476,1.309,1.309,0,0,1,1.356,1.464v2.4a.549.549,0,0,0,.564.564A.541.541,0,0,0,12.552,31.532Zm10.224-7.248a.544.544,0,0,0-1.032,0L19.8,30.056,17.832,24.3a.492.492,0,0,0-.516-.384.485.485,0,0,0-.516.516.731.731,0,0,0,.036.2l2.436,7.056a.529.529,0,0,0,.54.408.5.5,0,0,0,.5-.348l1.944-5.772L24.2,31.748a.5.5,0,0,0,.5.348.529.529,0,0,0,.54-.408l2.436-7.056a.731.731,0,0,0,.036-.2.485.485,0,0,0-.516-.516.492.492,0,0,0-.516.384l-1.968,5.76ZM30.6,26.648A2.646,2.646,0,0,0,27.912,29.4a2.589,2.589,0,0,0,2.736,2.748,2.874,2.874,0,0,0,2.136-.876.5.5,0,0,0,.144-.324.454.454,0,0,0-.468-.468.551.551,0,0,0-.372.18,1.844,1.844,0,0,1-1.392.588,1.5,1.5,0,0,1-1.62-1.452h3.588c.324,0,.432-.192.432-.384A2.548,2.548,0,0,0,30.6,26.648Zm1.452,2.232H29.1a1.49,1.49,0,0,1,1.5-1.332A1.463,1.463,0,0,1,32.052,28.88Zm2.184.516a2.591,2.591,0,0,0,2.508,2.748,2.163,2.163,0,0,0,1.884-1.032v.408a.542.542,0,0,0,.552.576.523.523,0,0,0,.54-.564V24.476a.564.564,0,1,0-1.128,0v3.2a2.158,2.158,0,0,0-1.848-1.032A2.556,2.556,0,0,0,34.236,29.4Zm1.128,0a1.623,1.623,0,0,1,1.608-1.812,1.823,1.823,0,0,1,0,3.624A1.623,1.623,0,0,1,35.364,29.4Zm11.184,2.136V29.084a2.169,2.169,0,0,0-2.172-2.436,1.837,1.837,0,0,0-1.728,1.008v-.384a.526.526,0,0,0-.564-.576.539.539,0,0,0-.564.576v4.26a.549.549,0,0,0,.564.564.556.556,0,0,0,.564-.564V29.144a1.376,1.376,0,0,1,1.416-1.476,1.309,1.309,0,0,1,1.356,1.464v2.4a.549.549,0,0,0,.564.564A.541.541,0,0,0,46.548,31.532Zm4.092-4.884A2.646,2.646,0,0,0,47.952,29.4a2.589,2.589,0,0,0,2.736,2.748,2.874,2.874,0,0,0,2.136-.876.5.5,0,0,0,.144-.324.454.454,0,0,0-.468-.468.551.551,0,0,0-.372.18,1.844,1.844,0,0,1-1.392.588,1.5,1.5,0,0,1-1.62-1.452H52.7c.324,0,.432-.192.432-.384A2.548,2.548,0,0,0,50.64,26.648Zm1.452,2.232H49.14a1.49,1.49,0,0,1,1.5-1.332A1.463,1.463,0,0,1,52.092,28.88Zm6.6,1.728c0-.972-.672-1.32-1.968-1.692-.864-.252-1.224-.384-1.224-.792s.408-.576,1.008-.576a2.356,2.356,0,0,1,1.14.276,1.094,1.094,0,0,0,.492.168.393.393,0,0,0,.432-.42c0-.24-.228-.432-.552-.588a3.547,3.547,0,0,0-1.488-.336c-1.3,0-2.124.588-2.124,1.488,0,.864.54,1.368,2.016,1.764.84.228,1.176.384,1.176.792,0,.372-.348.612-1,.612a2.262,2.262,0,0,1-1.356-.468.7.7,0,0,0-.444-.168.4.4,0,0,0-.432.4.6.6,0,0,0,.24.468,3.125,3.125,0,0,0,1.908.612C57.948,32.144,58.692,31.5,58.692,30.608ZM59.76,29.4a2.591,2.591,0,0,0,2.508,2.748,2.163,2.163,0,0,0,1.884-1.032v.408a.542.542,0,0,0,.552.576.523.523,0,0,0,.54-.564V24.476a.564.564,0,0,0-1.128,0v3.2a2.158,2.158,0,0,0-1.848-1.032A2.556,2.556,0,0,0,59.76,29.4Zm1.128,0A1.623,1.623,0,0,1,62.5,27.584a1.823,1.823,0,0,1,0,3.624A1.623,1.623,0,0,1,60.888,29.4Zm10.644,2.136V28.916c0-1.464-.888-2.268-2.472-2.268a4.805,4.805,0,0,0-1.608.264c-.3.12-.528.264-.528.54a.45.45,0,0,0,.48.468,1.211,1.211,0,0,0,.372-.1,3.283,3.283,0,0,1,1.188-.216c1.044,0,1.44.432,1.44,1.38V29.5a2.354,2.354,0,0,0-1.62-.612c-1.164,0-2.04.564-2.04,1.632,0,.96.828,1.62,1.992,1.62a2.043,2.043,0,0,0,1.692-.72v.108a.539.539,0,0,0,.552.564A.519.519,0,0,0,71.532,31.532ZM70.4,30.524c0,.5-.6.852-1.308.852s-1.224-.312-1.224-.852.492-.852,1.248-.852C69.756,29.672,70.4,29.984,70.4,30.524Zm7.188-3.312a.469.469,0,0,0-.48-.516.513.513,0,0,0-.528.408L75.2,30.836l-1.536-3.828a.512.512,0,0,0-.984.192.775.775,0,0,0,.048.228L74.6,31.916a3.568,3.568,0,0,1-1.368,1.5.5.5,0,0,0-.288.468.476.476,0,0,0,.5.456.578.578,0,0,0,.288-.084,5.072,5.072,0,0,0,2.22-2.784c.672-1.548,1.224-3,1.584-4A.863.863,0,0,0,77.592,27.212Zm.18,4.164a.72.72,0,1,0,.72-.72A.722.722,0,0,0,77.772,31.376Z" transform="translate(17374 1731)"/>
    <circle id="Ellipse_189" data-name="Ellipse 189" class="cls-3" cx="13" cy="13" r="13" transform="translate(17353 1695)"/>
    <g id="Hi-there" transform="translate(17358 1702)">
      <g id="lifeline-in-a-heart-outline" transform="translate(0 0)">
        <path id="Shape" class="cls-4" d="M15,4.058a3.979,3.979,0,0,1-.206,1.26c-.637,2.9-6.147,6.412-6.381,6.561a.45.45,0,0,1-.239.07.431.431,0,0,1-.24-.07A30.585,30.585,0,0,1,4.745,9.5a.449.449,0,0,1,.58-.685,30.855,30.855,0,0,0,2.851,2.153c1.655-1.086,5.308-3.848,5.755-5.886a3.23,3.23,0,0,0,.17-1.02,3.18,3.18,0,0,0-1.633-2.782,3.2,3.2,0,0,0-3.95.755.461.461,0,0,1-.689,0,3.208,3.208,0,0,0-3.95-.756A3.159,3.159,0,0,0,2.4,5.034a3.53,3.53,0,0,0,.355.889h2.61l.9-2.073a.445.445,0,0,1,.844.076l.66,2.808L8.62,5.324A.445.445,0,0,1,9,5.109h1.62a.45.45,0,0,1,0,.9H9.253L7.967,8.135a.445.445,0,0,1-.38.216.461.461,0,0,1-.07-.005.449.449,0,0,1-.365-.34l-.6-2.558-.476,1.1a.445.445,0,0,1-.41.271H.447a.45.45,0,0,1,0-.9H1.758a3.928,3.928,0,0,1-.215-.65,3.816,3.816,0,0,1-.192-1.215A4.078,4.078,0,0,1,3.449.488a4.117,4.117,0,0,1,4.727.6A4.112,4.112,0,0,1,12.9.488,4.082,4.082,0,0,1,15,4.058Z" transform="translate(0 0)"/>
      </g>
    </g>
  </g>
</svg>
