<svg xmlns="http://www.w3.org/2000/svg" viewBox="0 0 130 36.521">
  <defs>
    <style>
      .cls-1 {
        fill: #0099c2;
      }

      .cls-2 {
        fill: #fff;
      }
    </style>
  </defs>
  <g id="Group_1423" data-name="Group 1423" transform="translate(-17441 -1800)">
    <path id="Rectangle_1325" data-name="Rectangle 1325" class="cls-1" d="M12,0H118a12,12,0,0,1,12,12V36.521a0,0,0,0,1,0,0H12a12,12,0,0,1-12-12V12A12,12,0,0,1,12,0Z" transform="translate(17441 1800)"/>
    <path id="Path_973" data-name="Path 973" class="cls-2" d="M4.656-8.136A3.96,3.96,0,0,0,.6-4,3.96,3.96,0,0,0,4.656.144,3.861,3.861,0,0,0,7.68-1.176a.64.64,0,0,0,.156-.408.482.482,0,0,0-.516-.5.651.651,0,0,0-.5.276A2.7,2.7,0,0,1,4.728-.9,2.861,2.861,0,0,1,1.764-4a2.861,2.861,0,0,1,2.964-3.1,2.7,2.7,0,0,1,2.088.912.651.651,0,0,0,.5.276.482.482,0,0,0,.516-.5.64.64,0,0,0-.156-.408A3.861,3.861,0,0,0,4.656-8.136ZM14.436-2.6a2.66,2.66,0,0,0-2.748-2.748A2.66,2.66,0,0,0,8.94-2.6,2.66,2.66,0,0,0,11.688.144,2.66,2.66,0,0,0,14.436-2.6Zm-1.128,0a1.621,1.621,0,0,1-1.62,1.788A1.621,1.621,0,0,1,10.068-2.6a1.621,1.621,0,0,1,1.62-1.788A1.621,1.621,0,0,1,13.308-2.6Zm7.62,2.136V-2.916a2.169,2.169,0,0,0-2.172-2.436,1.837,1.837,0,0,0-1.728,1.008v-.384a.526.526,0,0,0-.564-.576.539.539,0,0,0-.564.576v4.26A.549.549,0,0,0,16.464.1a.556.556,0,0,0,.564-.564V-2.856a1.376,1.376,0,0,1,1.416-1.476A1.309,1.309,0,0,1,19.8-2.868v2.4A.549.549,0,0,0,20.364.1.541.541,0,0,0,20.928-.468Zm7.248,0V-4.74a.556.556,0,0,0-.564-.564.556.556,0,0,0-.564.564V-.468A.549.549,0,0,0,27.612.1.549.549,0,0,0,28.176-.468ZM26.952-6.78a.666.666,0,0,0,.66.66.666.666,0,0,0,.66-.66.666.666,0,0,0-.66-.66A.666.666,0,0,0,26.952-6.78Zm-.9-.792a.461.461,0,0,0-.468-.468h-.42a1.8,1.8,0,0,0-2,2.04v.792h-.708a.461.461,0,0,0-.468.468.461.461,0,0,0,.468.468h.708v3.8A.549.549,0,0,0,23.724.1a.549.549,0,0,0,.564-.564v-3.8h1.188a.461.461,0,0,0,.468-.468.461.461,0,0,0-.468-.468H24.288v-.876c0-.792.348-1.02.96-1.02h.336A.461.461,0,0,0,26.052-7.572Zm7.1,2.772a.5.5,0,0,0-.528-.528A1.519,1.519,0,0,0,31.1-4.212v-.516a.536.536,0,0,0-.552-.576.555.555,0,0,0-.576.576v4.26A.535.535,0,0,0,30.54.1.556.556,0,0,0,31.1-.468V-2.436c0-1.212.576-1.836,1.524-1.836A.518.518,0,0,0,33.156-4.8ZM43.008-.468V-2.952c0-1.4-.7-2.4-2.148-2.4a2.259,2.259,0,0,0-2,1.068A1.981,1.981,0,0,0,37.02-5.352a1.88,1.88,0,0,0-1.692,1.008v-.384a.532.532,0,0,0-.564-.576.539.539,0,0,0-.564.576v4.26A.556.556,0,0,0,34.764.1a.549.549,0,0,0,.564-.564V-2.856A1.363,1.363,0,0,1,36.72-4.332a1.3,1.3,0,0,1,1.32,1.464v2.4A.549.549,0,0,0,38.6.1a.542.542,0,0,0,.564-.564V-2.856A1.405,1.405,0,0,1,40.6-4.332c.888,0,1.284.636,1.284,1.464v2.4A.556.556,0,0,0,42.444.1.549.549,0,0,0,43.008-.468Zm7.872,0V-7.512a.523.523,0,0,0-.552-.576.726.726,0,0,0-.264.048l-2.028.624a.481.481,0,0,0-.408.492.538.538,0,0,0,.564.516.6.6,0,0,0,.144-.024l1.416-.432v6.4A.549.549,0,0,0,50.316.1.549.549,0,0,0,50.88-.468Zm8.22-1.98a2.509,2.509,0,0,0-2.808-2.508,2.683,2.683,0,0,0-2.328,1.092,5.622,5.622,0,0,1,3.024-3.36c.24-.132.348-.276.348-.48a.436.436,0,0,0-.48-.432.983.983,0,0,0-.36.084A5.88,5.88,0,0,0,52.8-2.82,2.883,2.883,0,0,0,56.016.144C57.924.144,59.1-.972,59.1-2.448Zm-1.128.012c0,.912-.72,1.632-1.944,1.632s-1.956-.624-1.956-1.608c0-1.008.948-1.6,2-1.6C57.2-4.008,57.972-3.42,57.972-2.436ZM60.516-.624a.722.722,0,0,0,.72.72.722.722,0,0,0,.72-.72.722.722,0,0,0-.72-.72A.722.722,0,0,0,60.516-.624Zm0-3.144a.722.722,0,0,0,.72.72.722.722,0,0,0,.72-.72.722.722,0,0,0-.72-.72A.722.722,0,0,0,60.516-3.768ZM70.3-4c0-2.16-1.224-4.14-3.42-4.14s-3.42,1.98-3.42,4.14S64.68.144,66.876.144,70.3-1.836,70.3-4ZM69.168-4c0,1.764-.9,3.132-2.292,3.132S64.584-2.232,64.584-4s.9-3.132,2.292-3.132S69.168-5.76,69.168-4Zm9.288,0c0-2.16-1.224-4.14-3.42-4.14s-3.42,1.98-3.42,4.14S72.84.144,75.036.144,78.456-1.836,78.456-4ZM77.328-4c0,1.764-.9,3.132-2.292,3.132S72.744-2.232,72.744-4s.9-3.132,2.292-3.132S77.328-5.76,77.328-4ZM85.044-.468V-2.916a2.169,2.169,0,0,0-2.172-2.436,1.837,1.837,0,0,0-1.728,1.008V-7.512a.526.526,0,0,0-.564-.576.539.539,0,0,0-.564.576V-.468A.549.549,0,0,0,80.58.1a.556.556,0,0,0,.564-.564V-2.856A1.376,1.376,0,0,1,82.56-4.332a1.309,1.309,0,0,1,1.356,1.464v2.4A.549.549,0,0,0,84.48.1.541.541,0,0,0,85.044-.468ZM89.964-4.8a.5.5,0,0,0-.528-.528,1.519,1.519,0,0,0-1.524,1.116v-.516A.536.536,0,0,0,87.36-5.3a.555.555,0,0,0-.576.576v4.26A.535.535,0,0,0,87.348.1a.556.556,0,0,0,.564-.564V-2.436c0-1.212.576-1.836,1.524-1.836A.518.518,0,0,0,89.964-4.8Zm5.148,3.408c0-.972-.672-1.32-1.968-1.692-.864-.252-1.224-.384-1.224-.792s.408-.576,1.008-.576a2.356,2.356,0,0,1,1.14.276,1.094,1.094,0,0,0,.492.168.393.393,0,0,0,.432-.42c0-.24-.228-.432-.552-.588a3.547,3.547,0,0,0-1.488-.336c-1.3,0-2.124.588-2.124,1.488,0,.864.54,1.368,2.016,1.764.84.228,1.176.384,1.176.792,0,.372-.348.612-1,.612a2.262,2.262,0,0,1-1.356-.468.7.7,0,0,0-.444-.168.4.4,0,0,0-.432.4.6.6,0,0,0,.24.468A3.125,3.125,0,0,0,92.94.144C94.368.144,95.112-.5,95.112-1.392Z" transform="translate(17457 1821)"/>
  </g>
</svg>
