<svg xmlns="http://www.w3.org/2000/svg" viewBox="0 0 168 65">
  <defs>
    <style>
      .cls-1 {
        fill: #d3f6ff;
      }

      .cls-2 {
        fill: #36414c;
      }

      .cls-3 {
        fill: #fff;
      }

      .cls-4 {
        fill: #0099c2;
      }
    </style>
  </defs>
  <g id="Group_1365" data-name="Group 1365" transform="translate(-17353 -1844)">
    <path id="Rectangle_1324" data-name="Rectangle 1324" class="cls-1" d="M0,0H151a12,12,0,0,1,12,12V40a12,12,0,0,1-12,12H12A12,12,0,0,1,0,40V0A0,0,0,0,1,0,0Z" transform="translate(17358 1857)"/>
    <path id="Path_931" data-name="Path 931" class="cls-2" d="M8.016-1.512V-3.5a.551.551,0,0,0-.576-.588H4.98a.515.515,0,0,0-.528.516.525.525,0,0,0,.528.528H6.888v1.476a3.375,3.375,0,0,1-2.22.72A2.873,2.873,0,0,1,1.764-4a2.884,2.884,0,0,1,2.88-3.072,3.051,3.051,0,0,1,1.98.72.638.638,0,0,0,.384.144.51.51,0,0,0,.528-.528.53.53,0,0,0-.18-.384,3.644,3.644,0,0,0-2.712-1.02A3.953,3.953,0,0,0,.6-4,3.945,3.945,0,0,0,4.668.144,4.3,4.3,0,0,0,7.884-1.128.474.474,0,0,0,8.016-1.512ZM14.82-2.6a2.66,2.66,0,0,0-2.748-2.748A2.66,2.66,0,0,0,9.324-2.6,2.66,2.66,0,0,0,12.072.144,2.66,2.66,0,0,0,14.82-2.6Zm-1.128,0a1.621,1.621,0,0,1-1.62,1.788A1.621,1.621,0,0,1,10.452-2.6a1.621,1.621,0,0,1,1.62-1.788A1.621,1.621,0,0,1,13.692-2.6ZM17.928-.468v-3.8H18.96a.461.461,0,0,0,.468-.468.461.461,0,0,0-.468-.468H17.928V-6.78a.549.549,0,0,0-.564-.564.549.549,0,0,0-.564.564v1.572h-.912a.461.461,0,0,0-.468.468.461.461,0,0,0,.468.468H16.8v3.8A.549.549,0,0,0,17.364.1.549.549,0,0,0,17.928-.468Zm7.008,0V-4.74a.556.556,0,0,0-.564-.564.556.556,0,0,0-.564.564V-.468A.549.549,0,0,0,24.372.1.549.549,0,0,0,24.936-.468ZM23.712-6.78a.666.666,0,0,0,.66.66.666.666,0,0,0,.66-.66.666.666,0,0,0-.66-.66A.666.666,0,0,0,23.712-6.78ZM28.5-.468v-3.8h1.032A.461.461,0,0,0,30-4.74a.461.461,0,0,0-.468-.468H28.5V-6.78a.549.549,0,0,0-.564-.564.549.549,0,0,0-.564.564v1.572H26.46a.461.461,0,0,0-.468.468.461.461,0,0,0,.468.468h.912v3.8A.549.549,0,0,0,27.936.1.549.549,0,0,0,28.5-.468Zm1.74-.156a.722.722,0,0,0,.72.72.722.722,0,0,0,.72-.72.722.722,0,0,0-.72-.72A.722.722,0,0,0,30.24-.624ZM43.38-2.256a1.924,1.924,0,0,0-1.716-2.028A1.856,1.856,0,0,0,42.9-6.012c0-1.188-.948-1.98-2.448-1.98h-2.8a.569.569,0,0,0-.576.576V-.588A.579.579,0,0,0,37.656,0h2.928C42.456,0,43.38-1.092,43.38-2.256ZM41.736-5.868a1.125,1.125,0,0,1-1.224,1.14h-2.28V-6.96h2.256C41.232-6.96,41.736-6.6,41.736-5.868ZM40.668-3.7c.972,0,1.56.492,1.56,1.32,0,.792-.564,1.344-1.548,1.344H38.232V-3.7ZM50.04-2.6a2.66,2.66,0,0,0-2.748-2.748A2.66,2.66,0,0,0,44.544-2.6,2.66,2.66,0,0,0,47.292.144,2.66,2.66,0,0,0,50.04-2.6Zm-1.128,0a1.621,1.621,0,0,1-1.62,1.788A1.621,1.621,0,0,1,45.672-2.6a1.621,1.621,0,0,1,1.62-1.788A1.621,1.621,0,0,1,48.912-2.6Zm7.752,0a2.66,2.66,0,0,0-2.748-2.748A2.66,2.66,0,0,0,51.168-2.6,2.66,2.66,0,0,0,53.916.144,2.66,2.66,0,0,0,56.664-2.6Zm-1.128,0a1.621,1.621,0,0,1-1.62,1.788A1.621,1.621,0,0,1,52.3-2.6a1.621,1.621,0,0,1,1.62-1.788A1.621,1.621,0,0,1,55.536-2.6Zm3.72,2.136V-1.932l.7-.564L61.8-.12A.459.459,0,0,0,62.184.1a.5.5,0,0,0,.54-.516.512.512,0,0,0-.12-.324L60.756-3.12l1.62-1.26a.55.55,0,0,0,.264-.432.493.493,0,0,0-.516-.492.557.557,0,0,0-.348.12l-2.52,1.968V-7.524a.549.549,0,0,0-.564-.564.549.549,0,0,0-.564.564V-.468A.549.549,0,0,0,58.692.1.549.549,0,0,0,59.256-.468Zm5.976,0V-4.74a.556.556,0,0,0-.564-.564.556.556,0,0,0-.564.564V-.468A.549.549,0,0,0,64.668.1.549.549,0,0,0,65.232-.468ZM64.008-6.78a.666.666,0,0,0,.66.66.666.666,0,0,0,.66-.66.666.666,0,0,0-.66-.66A.666.666,0,0,0,64.008-6.78ZM72.06-.468V-2.916a2.169,2.169,0,0,0-2.172-2.436A1.837,1.837,0,0,0,68.16-4.344v-.384A.526.526,0,0,0,67.6-5.3a.539.539,0,0,0-.564.576v4.26A.549.549,0,0,0,67.6.1a.556.556,0,0,0,.564-.564V-2.856a1.376,1.376,0,0,1,1.416-1.476,1.309,1.309,0,0,1,1.356,1.464v2.4A.549.549,0,0,0,71.5.1.541.541,0,0,0,72.06-.468ZM77.82-2.7A1.609,1.609,0,0,1,76.212-1a1.6,1.6,0,0,1-1.62-1.7,1.592,1.592,0,0,1,1.62-1.7A1.6,1.6,0,0,1,77.82-2.7ZM78.948-.372V-4.74A.526.526,0,0,0,78.4-5.3a.527.527,0,0,0-.54.576v.384A2.136,2.136,0,0,0,76-5.352,2.482,2.482,0,0,0,73.464-2.7,2.5,2.5,0,0,0,76-.048,2.119,2.119,0,0,0,77.82-1.056v.768c0,1.08-.4,1.716-1.752,1.716A2.917,2.917,0,0,1,74.556,1a.494.494,0,0,0-.8.372.521.521,0,0,0,.3.444,4.154,4.154,0,0,0,2.088.528C78.144,2.34,78.948,1.284,78.948-.372ZM91.224-4a3.8,3.8,0,0,0-4.008-4H85a.589.589,0,0,0-.588.588V-.588A.589.589,0,0,0,85,0h2.22A3.8,3.8,0,0,0,91.224-4ZM90.072-4a2.727,2.727,0,0,1-2.892,2.94H85.56v-5.88h1.62A2.727,2.727,0,0,1,90.072-4ZM95.9-4.8a.5.5,0,0,0-.528-.528,1.519,1.519,0,0,0-1.524,1.116v-.516A.536.536,0,0,0,93.3-5.3a.555.555,0,0,0-.576.576v4.26A.535.535,0,0,0,93.288.1a.556.556,0,0,0,.564-.564V-2.436c0-1.212.576-1.836,1.524-1.836A.518.518,0,0,0,95.9-4.8Zm.2,4.176a.722.722,0,0,0,.72.72.722.722,0,0,0,.72-.72.722.722,0,0,0-.72-.72A.722.722,0,0,0,96.108-.624Zm13.776-.888V-3.5a.551.551,0,0,0-.576-.588h-2.46a.515.515,0,0,0-.528.516.525.525,0,0,0,.528.528h1.908v1.476a3.375,3.375,0,0,1-2.22.72A2.873,2.873,0,0,1,103.632-4a2.884,2.884,0,0,1,2.88-3.072,3.051,3.051,0,0,1,1.98.72.638.638,0,0,0,.384.144.51.51,0,0,0,.528-.528.53.53,0,0,0-.18-.384,3.644,3.644,0,0,0-2.712-1.02A3.953,3.953,0,0,0,102.468-4a3.945,3.945,0,0,0,4.068,4.14,4.3,4.3,0,0,0,3.216-1.272A.474.474,0,0,0,109.884-1.512Zm6.8-1.092a2.66,2.66,0,0,0-2.748-2.748A2.66,2.66,0,0,0,111.192-2.6,2.66,2.66,0,0,0,113.94.144,2.66,2.66,0,0,0,116.688-2.6Zm-1.128,0a1.621,1.621,0,0,1-1.62,1.788A1.621,1.621,0,0,1,112.32-2.6a1.621,1.621,0,0,1,1.62-1.788A1.621,1.621,0,0,1,115.56-2.6ZM120.5-5.352A2.646,2.646,0,0,0,117.816-2.6,2.589,2.589,0,0,0,120.552.144a2.874,2.874,0,0,0,2.136-.876.5.5,0,0,0,.144-.324.454.454,0,0,0-.468-.468.551.551,0,0,0-.372.18,1.844,1.844,0,0,1-1.392.588,1.5,1.5,0,0,1-1.62-1.452h3.588c.324,0,.432-.192.432-.384A2.548,2.548,0,0,0,120.5-5.352Zm1.452,2.232H119a1.49,1.49,0,0,1,1.5-1.332A1.463,1.463,0,0,1,121.956-3.12ZM125.6-.468V-7.524a.549.549,0,0,0-.564-.564.549.549,0,0,0-.564.564V-.468A.549.549,0,0,0,125.04.1.549.549,0,0,0,125.6-.468ZM4.284,6.428a.461.461,0,0,0-.468-.468H3.4a1.8,1.8,0,0,0-2,2.04v.792H.684a.468.468,0,1,0,0,.936h.708v3.8a.549.549,0,0,0,.564.564.549.549,0,0,0,.564-.564v-3.8H3.708a.468.468,0,1,0,0-.936H2.52V7.916c0-.792.348-1.02.96-1.02h.336A.461.461,0,0,0,4.284,6.428ZM10.176,11.4A2.66,2.66,0,0,0,7.428,8.648,2.66,2.66,0,0,0,4.68,11.4a2.66,2.66,0,0,0,2.748,2.748A2.66,2.66,0,0,0,10.176,11.4Zm-1.128,0a1.628,1.628,0,1,1-3.24,0,1.628,1.628,0,1,1,3.24,0ZM14.82,9.2a.5.5,0,0,0-.528-.528,1.519,1.519,0,0,0-1.524,1.116V9.272a.536.536,0,0,0-.552-.576.555.555,0,0,0-.576.576v4.26a.535.535,0,0,0,.564.564.556.556,0,0,0,.564-.564V11.564c0-1.212.576-1.836,1.524-1.836A.518.518,0,0,0,14.82,9.2ZM22,13.532V6.488a.523.523,0,0,0-.552-.576.726.726,0,0,0-.264.048l-2.028.624a.481.481,0,0,0-.408.492.538.538,0,0,0,.564.516.6.6,0,0,0,.144-.024l1.416-.432v6.4a.564.564,0,1,0,1.128,0Zm8.22-1.98a2.509,2.509,0,0,0-2.808-2.508,2.683,2.683,0,0,0-2.328,1.092A5.622,5.622,0,0,1,28.1,6.776c.24-.132.348-.276.348-.48a.436.436,0,0,0-.48-.432.983.983,0,0,0-.36.084,5.88,5.88,0,0,0-3.7,5.232,2.883,2.883,0,0,0,3.216,2.964C29.04,14.144,30.216,13.028,30.216,11.552Zm-1.128.012c0,.912-.72,1.632-1.944,1.632s-1.956-.624-1.956-1.608c0-1.008.948-1.6,2-1.6C28.32,9.992,29.088,10.58,29.088,11.564Zm2.544,1.812a.72.72,0,1,0,.72-.72A.722.722,0,0,0,31.632,13.376Zm0-3.144a.72.72,0,1,0,.72-.72A.722.722,0,0,0,31.632,10.232ZM41.412,10c0-2.16-1.224-4.14-3.42-4.14s-3.42,1.98-3.42,4.14,1.224,4.14,3.42,4.14S41.412,12.164,41.412,10Zm-1.128,0c0,1.764-.9,3.132-2.292,3.132S35.7,11.768,35.7,10s.9-3.132,2.292-3.132S40.284,8.24,40.284,10Zm9.288,0c0-2.16-1.224-4.14-3.42-4.14s-3.42,1.98-3.42,4.14,1.224,4.14,3.42,4.14S49.572,12.164,49.572,10Zm-1.128,0c0,1.764-.9,3.132-2.292,3.132S43.86,11.768,43.86,10s.9-3.132,2.292-3.132S48.444,8.24,48.444,10Zm7.716,3.528V11.084a2.169,2.169,0,0,0-2.172-2.436A1.837,1.837,0,0,0,52.26,9.656V6.488a.526.526,0,0,0-.564-.576.539.539,0,0,0-.564.576v7.044a.549.549,0,0,0,.564.564.556.556,0,0,0,.564-.564V11.144a1.376,1.376,0,0,1,1.416-1.476,1.309,1.309,0,0,1,1.356,1.464v2.4a.549.549,0,0,0,.564.564A.541.541,0,0,0,56.16,13.532ZM61.08,9.2a.5.5,0,0,0-.528-.528,1.519,1.519,0,0,0-1.524,1.116V9.272a.536.536,0,0,0-.552-.576.555.555,0,0,0-.576.576v4.26a.535.535,0,0,0,.564.564.556.556,0,0,0,.564-.564V11.564c0-1.212.576-1.836,1.524-1.836A.518.518,0,0,0,61.08,9.2Zm5.148,3.408c0-.972-.672-1.32-1.968-1.692-.864-.252-1.224-.384-1.224-.792s.408-.576,1.008-.576a2.356,2.356,0,0,1,1.14.276,1.094,1.094,0,0,0,.492.168.393.393,0,0,0,.432-.42c0-.24-.228-.432-.552-.588a3.547,3.547,0,0,0-1.488-.336c-1.3,0-2.124.588-2.124,1.488,0,.864.54,1.368,2.016,1.764.84.228,1.176.384,1.176.792,0,.372-.348.612-1,.612a2.262,2.262,0,0,1-1.356-.468.7.7,0,0,0-.444-.168.4.4,0,0,0-.432.4.6.6,0,0,0,.24.468,3.125,3.125,0,0,0,1.908.612C65.484,14.144,66.228,13.5,66.228,12.608ZM76.272,11.4a2.748,2.748,0,1,0-5.5,0,2.748,2.748,0,1,0,5.5,0Zm-1.128,0a1.628,1.628,0,1,1-3.24,0,1.628,1.628,0,1,1,3.24,0Zm7.62,2.136V11.084a2.169,2.169,0,0,0-2.172-2.436,1.837,1.837,0,0,0-1.728,1.008V9.272A.526.526,0,0,0,78.3,8.7a.539.539,0,0,0-.564.576v4.26a.549.549,0,0,0,.564.564.556.556,0,0,0,.564-.564V11.144A1.376,1.376,0,0,1,80.28,9.668a1.309,1.309,0,0,1,1.356,1.464v2.4a.549.549,0,0,0,.564.564A.541.541,0,0,0,82.764,13.532ZM93.756,6.548a.523.523,0,0,0-.54-.54H88.74a.569.569,0,0,0-.576.576V13.52a.576.576,0,0,0,1.152,0V10.436h2.2a.53.53,0,0,0,.54-.54.538.538,0,0,0-.54-.54h-2.2V7.088h3.9A.545.545,0,0,0,93.756,6.548ZM97.188,9.2a.5.5,0,0,0-.528-.528,1.519,1.519,0,0,0-1.524,1.116V9.272a.536.536,0,0,0-.552-.576.555.555,0,0,0-.576.576v4.26a.535.535,0,0,0,.564.564.556.556,0,0,0,.564-.564V11.564c0-1.212.576-1.836,1.524-1.836A.518.518,0,0,0,97.188,9.2Zm2.172,4.332V9.26a.564.564,0,1,0-1.128,0v4.272a.564.564,0,1,0,1.128,0ZM98.136,7.22a.66.66,0,1,0,.66-.66A.666.666,0,0,0,98.136,7.22Zm2.688,4.176a2.591,2.591,0,0,0,2.508,2.748,2.163,2.163,0,0,0,1.884-1.032v.408a.542.542,0,0,0,.552.576.523.523,0,0,0,.54-.564V6.476a.564.564,0,1,0-1.128,0v3.2a2.158,2.158,0,0,0-1.848-1.032A2.556,2.556,0,0,0,100.824,11.4Zm1.128,0a1.623,1.623,0,0,1,1.608-1.812,1.7,1.7,0,0,1,1.62,1.812,1.7,1.7,0,0,1-1.62,1.812A1.623,1.623,0,0,1,101.952,11.4ZM112.6,13.532V10.916c0-1.464-.888-2.268-2.472-2.268a4.805,4.805,0,0,0-1.608.264c-.3.12-.528.264-.528.54a.45.45,0,0,0,.48.468,1.211,1.211,0,0,0,.372-.1,3.283,3.283,0,0,1,1.188-.216c1.044,0,1.44.432,1.44,1.38V11.5a2.354,2.354,0,0,0-1.62-.612c-1.164,0-2.04.564-2.04,1.632,0,.96.828,1.62,1.992,1.62a2.043,2.043,0,0,0,1.692-.72v.108a.539.539,0,0,0,.552.564A.519.519,0,0,0,112.6,13.532Zm-1.128-1.008c0,.5-.6.852-1.308.852s-1.224-.312-1.224-.852.492-.852,1.248-.852C110.82,11.672,111.468,11.984,111.468,12.524Zm7.188-3.312a.469.469,0,0,0-.48-.516.513.513,0,0,0-.528.408l-1.38,3.732-1.536-3.828a.512.512,0,0,0-.984.192.775.775,0,0,0,.048.228l1.872,4.488a3.568,3.568,0,0,1-1.368,1.5.5.5,0,0,0-.288.468.476.476,0,0,0,.5.456.578.578,0,0,0,.288-.084,5.072,5.072,0,0,0,2.22-2.784c.672-1.548,1.224-3,1.584-4A.863.863,0,0,0,118.656,9.212Zm.18,4.164a.72.72,0,1,0,.72-.72A.722.722,0,0,0,118.836,13.376Z" transform="translate(17374 1879)"/>
    <circle id="Ellipse_190" data-name="Ellipse 190" class="cls-3" cx="13" cy="13" r="13" transform="translate(17353 1844)"/>
    <g id="Hi-there" transform="translate(17358 1851)">
      <g id="lifeline-in-a-heart-outline" transform="translate(0 0)">
        <path id="Shape" class="cls-4" d="M15,4.058a3.979,3.979,0,0,1-.206,1.26c-.637,2.9-6.147,6.412-6.381,6.561a.45.45,0,0,1-.239.07.431.431,0,0,1-.24-.07A30.585,30.585,0,0,1,4.745,9.5a.449.449,0,0,1,.58-.685,30.855,30.855,0,0,0,2.851,2.153c1.655-1.086,5.308-3.848,5.755-5.886a3.23,3.23,0,0,0,.17-1.02,3.18,3.18,0,0,0-1.633-2.782,3.2,3.2,0,0,0-3.95.755.461.461,0,0,1-.689,0,3.208,3.208,0,0,0-3.95-.756A3.159,3.159,0,0,0,2.4,5.034a3.53,3.53,0,0,0,.355.889h2.61l.9-2.073a.445.445,0,0,1,.844.076l.66,2.808L8.62,5.324A.445.445,0,0,1,9,5.109h1.62a.45.45,0,0,1,0,.9H9.253L7.967,8.135a.445.445,0,0,1-.38.216.461.461,0,0,1-.07-.005.449.449,0,0,1-.365-.34l-.6-2.558-.476,1.1a.445.445,0,0,1-.41.271H.447a.45.45,0,0,1,0-.9H1.758a3.928,3.928,0,0,1-.215-.65,3.816,3.816,0,0,1-.192-1.215A4.078,4.078,0,0,1,3.449.488a4.117,4.117,0,0,1,4.727.6A4.112,4.112,0,0,1,12.9.488,4.082,4.082,0,0,1,15,4.058Z" transform="translate(0 0)"/>
      </g>
    </g>
  </g>
</svg>
