<svg xmlns="http://www.w3.org/2000/svg" viewBox="0 0 249 69">
  <defs>
    <style>
      .cls-1 {
        fill: #d3f6ff;
      }

      .cls-2 {
        fill: #36414c;
      }

      .cls-3 {
        fill: #fff;
      }

      .cls-4 {
        fill: #0099c2;
      }
    </style>
  </defs>
  <g id="Group_1366" data-name="Group 1366" transform="translate(-17353 -1927)">
    <path id="Rectangle_1326" data-name="Rectangle 1326" class="cls-1" d="M0,0H232a12,12,0,0,1,12,12V40a12,12,0,0,1-12,12H12A12,12,0,0,1,0,40V0A0,0,0,0,1,0,0Z" transform="translate(17358 1944)"/>
    <path id="Path_932" data-name="Path 932" class="cls-2" d="M6.384-7.716a.509.509,0,0,0-.516-.372.509.509,0,0,0-.516.372L3.408-1.944,1.44-7.7a.492.492,0,0,0-.516-.384.485.485,0,0,0-.516.516.731.731,0,0,0,.036.2L2.88-.312A.529.529,0,0,0,3.42.1a.5.5,0,0,0,.5-.348L5.868-6.024,7.812-.252a.5.5,0,0,0,.5.348.529.529,0,0,0,.54-.408l2.436-7.056a.731.731,0,0,0,.036-.2.485.485,0,0,0-.516-.516A.492.492,0,0,0,10.3-7.7L8.328-1.944ZM17.016-2.6a2.66,2.66,0,0,0-2.748-2.748A2.66,2.66,0,0,0,11.52-2.6,2.66,2.66,0,0,0,14.268.144,2.66,2.66,0,0,0,17.016-2.6Zm-1.128,0a1.621,1.621,0,0,1-1.62,1.788A1.621,1.621,0,0,1,12.648-2.6a1.621,1.621,0,0,1,1.62-1.788A1.621,1.621,0,0,1,15.888-2.6ZM18.42-4.74v2.448A2.169,2.169,0,0,0,20.592.144,1.837,1.837,0,0,0,22.32-.864V-.48A.526.526,0,0,0,22.884.1a.539.539,0,0,0,.564-.576V-4.74a.549.549,0,0,0-.564-.564.556.556,0,0,0-.564.564v2.388A1.376,1.376,0,0,1,20.9-.876,1.309,1.309,0,0,1,19.548-2.34v-2.4a.549.549,0,0,0-.564-.564A.541.541,0,0,0,18.42-4.74ZM26.376-.468V-7.524a.549.549,0,0,0-.564-.564.549.549,0,0,0-.564.564V-.468A.549.549,0,0,0,25.812.1.549.549,0,0,0,26.376-.468ZM27.84-2.6A2.591,2.591,0,0,0,30.348.144,2.163,2.163,0,0,0,32.232-.888V-.48A.542.542,0,0,0,32.784.1a.523.523,0,0,0,.54-.564V-7.524a.549.549,0,0,0-.564-.564.549.549,0,0,0-.564.564v3.2a2.158,2.158,0,0,0-1.848-1.032A2.556,2.556,0,0,0,27.84-2.6Zm1.128,0a1.623,1.623,0,0,1,1.608-1.812A1.7,1.7,0,0,1,32.2-2.6a1.7,1.7,0,0,1-1.62,1.812A1.623,1.623,0,0,1,28.968-2.6ZM42.732-4.788a.469.469,0,0,0-.48-.516.513.513,0,0,0-.528.408l-1.38,3.732L38.808-4.992a.479.479,0,0,0-.48-.312.478.478,0,0,0-.5.5.775.775,0,0,0,.048.228L39.744-.084a3.568,3.568,0,0,1-1.368,1.5.5.5,0,0,0-.288.468.476.476,0,0,0,.5.456.578.578,0,0,0,.288-.084A5.072,5.072,0,0,0,41.1-.528c.672-1.548,1.224-3,1.584-4A.863.863,0,0,0,42.732-4.788ZM48.948-2.6A2.66,2.66,0,0,0,46.2-5.352,2.66,2.66,0,0,0,43.452-2.6,2.66,2.66,0,0,0,46.2.144,2.66,2.66,0,0,0,48.948-2.6Zm-1.128,0A1.621,1.621,0,0,1,46.2-.816,1.621,1.621,0,0,1,44.58-2.6,1.621,1.621,0,0,1,46.2-4.392,1.621,1.621,0,0,1,47.82-2.6ZM50.352-4.74v2.448A2.169,2.169,0,0,0,52.524.144,1.837,1.837,0,0,0,54.252-.864V-.48A.526.526,0,0,0,54.816.1.539.539,0,0,0,55.38-.48V-4.74a.549.549,0,0,0-.564-.564.556.556,0,0,0-.564.564v2.388A1.376,1.376,0,0,1,52.836-.876,1.309,1.309,0,0,1,51.48-2.34v-2.4a.549.549,0,0,0-.564-.564A.541.541,0,0,0,50.352-4.74ZM61.788-.468V-7.524a.549.549,0,0,0-.564-.564.549.549,0,0,0-.564.564V-.468A.549.549,0,0,0,61.224.1.549.549,0,0,0,61.788-.468Zm2.928,0V-4.74a.556.556,0,0,0-.564-.564.556.556,0,0,0-.564.564V-.468A.549.549,0,0,0,64.152.1.549.549,0,0,0,64.716-.468ZM63.492-6.78a.666.666,0,0,0,.66.66.666.666,0,0,0,.66-.66.666.666,0,0,0-.66-.66A.666.666,0,0,0,63.492-6.78ZM67.644-.468V-1.932l.7-.564L70.188-.12A.459.459,0,0,0,70.572.1a.5.5,0,0,0,.54-.516.512.512,0,0,0-.12-.324L69.144-3.12l1.62-1.26a.55.55,0,0,0,.264-.432.493.493,0,0,0-.516-.492.557.557,0,0,0-.348.12l-2.52,1.968V-7.524a.549.549,0,0,0-.564-.564.549.549,0,0,0-.564.564V-.468A.549.549,0,0,0,67.08.1.549.549,0,0,0,67.644-.468Zm7.02-4.884A2.646,2.646,0,0,0,71.976-2.6,2.589,2.589,0,0,0,74.712.144a2.874,2.874,0,0,0,2.136-.876.5.5,0,0,0,.144-.324.454.454,0,0,0-.468-.468.551.551,0,0,0-.372.18,1.844,1.844,0,0,1-1.392.588,1.5,1.5,0,0,1-1.62-1.452h3.588c.324,0,.432-.192.432-.384A2.548,2.548,0,0,0,74.664-5.352ZM76.116-3.12H73.164a1.49,1.49,0,0,1,1.5-1.332A1.463,1.463,0,0,1,76.116-3.12ZM83.88-.468v-3.8h1.032a.461.461,0,0,0,.468-.468.461.461,0,0,0-.468-.468H83.88V-6.78a.549.549,0,0,0-.564-.564.549.549,0,0,0-.564.564v1.572H81.84a.461.461,0,0,0-.468.468.461.461,0,0,0,.468.468h.912v3.8A.549.549,0,0,0,83.316.1.549.549,0,0,0,83.88-.468ZM91.3-2.6a2.66,2.66,0,0,0-2.748-2.748A2.66,2.66,0,0,0,85.8-2.6,2.66,2.66,0,0,0,88.548.144,2.66,2.66,0,0,0,91.3-2.6Zm-1.128,0a1.621,1.621,0,0,1-1.62,1.788A1.621,1.621,0,0,1,86.928-2.6a1.621,1.621,0,0,1,1.62-1.788A1.621,1.621,0,0,1,90.168-2.6Zm14.88,2.136V-2.952c0-1.4-.7-2.4-2.148-2.4a2.259,2.259,0,0,0-2,1.068A1.981,1.981,0,0,0,99.06-5.352a1.88,1.88,0,0,0-1.692,1.008v-.384A.532.532,0,0,0,96.8-5.3a.539.539,0,0,0-.564.576v4.26A.556.556,0,0,0,96.8.1a.549.549,0,0,0,.564-.564V-2.856A1.363,1.363,0,0,1,98.76-4.332a1.3,1.3,0,0,1,1.32,1.464v2.4a.549.549,0,0,0,.564.564.542.542,0,0,0,.564-.564V-2.856a1.405,1.405,0,0,1,1.428-1.476c.888,0,1.284.636,1.284,1.464v2.4a.556.556,0,0,0,.564.564A.549.549,0,0,0,105.048-.468Zm6.228,0V-3.084c0-1.464-.888-2.268-2.472-2.268a4.805,4.805,0,0,0-1.608.264c-.3.12-.528.264-.528.54a.45.45,0,0,0,.48.468,1.211,1.211,0,0,0,.372-.1,3.283,3.283,0,0,1,1.188-.216c1.044,0,1.44.432,1.44,1.38V-2.5a2.354,2.354,0,0,0-1.62-.612c-1.164,0-2.04.564-2.04,1.632,0,.96.828,1.62,1.992,1.62a2.043,2.043,0,0,0,1.692-.72v.108a.539.539,0,0,0,.552.564A.519.519,0,0,0,111.276-.468Zm-1.128-1.008c0,.5-.6.852-1.308.852s-1.224-.312-1.224-.852.492-.852,1.248-.852C109.5-2.328,110.148-2.016,110.148-1.476ZM114.12-.468V-1.932l.7-.564L116.664-.12a.459.459,0,0,0,.384.216.5.5,0,0,0,.54-.516.512.512,0,0,0-.12-.324L115.62-3.12l1.62-1.26a.55.55,0,0,0,.264-.432.493.493,0,0,0-.516-.492.557.557,0,0,0-.348.12l-2.52,1.968V-7.524a.549.549,0,0,0-.564-.564.549.549,0,0,0-.564.564V-.468a.549.549,0,0,0,.564.564A.549.549,0,0,0,114.12-.468Zm7.02-4.884A2.646,2.646,0,0,0,118.452-2.6,2.589,2.589,0,0,0,121.188.144a2.874,2.874,0,0,0,2.136-.876.5.5,0,0,0,.144-.324A.454.454,0,0,0,123-1.524a.551.551,0,0,0-.372.18,1.844,1.844,0,0,1-1.392.588,1.5,1.5,0,0,1-1.62-1.452H123.2c.324,0,.432-.192.432-.384A2.548,2.548,0,0,0,121.14-5.352Zm1.452,2.232H119.64a1.49,1.49,0,0,1,1.5-1.332A1.463,1.463,0,0,1,122.592-3.12ZM133.08-.468V-3.084c0-1.464-.888-2.268-2.472-2.268A4.805,4.805,0,0,0,129-5.088c-.3.12-.528.264-.528.54a.45.45,0,0,0,.48.468,1.211,1.211,0,0,0,.372-.1,3.283,3.283,0,0,1,1.188-.216c1.044,0,1.44.432,1.44,1.38V-2.5a2.354,2.354,0,0,0-1.62-.612c-1.164,0-2.04.564-2.04,1.632,0,.96.828,1.62,1.992,1.62a2.043,2.043,0,0,0,1.692-.72v.108a.539.539,0,0,0,.552.564A.519.519,0,0,0,133.08-.468Zm-1.128-1.008c0,.5-.6.852-1.308.852s-1.224-.312-1.224-.852.492-.852,1.248-.852C131.3-2.328,131.952-2.016,131.952-1.476Zm7.872,1.008V-2.916a2.169,2.169,0,0,0-2.172-2.436,1.837,1.837,0,0,0-1.728,1.008v-.384a.526.526,0,0,0-.564-.576.539.539,0,0,0-.564.576v4.26A.549.549,0,0,0,135.36.1a.556.556,0,0,0,.564-.564V-2.856a1.376,1.376,0,0,1,1.416-1.476A1.309,1.309,0,0,1,138.7-2.868v2.4A.549.549,0,0,0,139.26.1.541.541,0,0,0,139.824-.468ZM150.2-2.6a2.66,2.66,0,0,0-2.748-2.748A2.66,2.66,0,0,0,144.708-2.6,2.66,2.66,0,0,0,147.456.144,2.66,2.66,0,0,0,150.2-2.6Zm-1.128,0a1.621,1.621,0,0,1-1.62,1.788,1.621,1.621,0,0,1-1.62-1.788,1.621,1.621,0,0,1,1.62-1.788A1.621,1.621,0,0,1,149.076-2.6ZM156.7-.468V-2.916a2.169,2.169,0,0,0-2.172-2.436A1.837,1.837,0,0,0,152.8-4.344v-.384a.526.526,0,0,0-.564-.576.539.539,0,0,0-.564.576v4.26a.549.549,0,0,0,.564.564.556.556,0,0,0,.564-.564V-2.856a1.376,1.376,0,0,1,1.416-1.476,1.309,1.309,0,0,1,1.356,1.464v2.4a.549.549,0,0,0,.564.564A.541.541,0,0,0,156.7-.468Zm2.868,0V-7.524A.549.549,0,0,0,159-8.088a.549.549,0,0,0-.564.564V-.468A.549.549,0,0,0,159,.1.549.549,0,0,0,159.564-.468Zm2.928,0V-4.74a.556.556,0,0,0-.564-.564.556.556,0,0,0-.564.564V-.468a.549.549,0,0,0,.564.564A.549.549,0,0,0,162.492-.468ZM161.268-6.78a.666.666,0,0,0,.66.66.666.666,0,0,0,.66-.66.666.666,0,0,0-.66-.66A.666.666,0,0,0,161.268-6.78ZM169.32-.468V-2.916a2.169,2.169,0,0,0-2.172-2.436,1.837,1.837,0,0,0-1.728,1.008v-.384a.526.526,0,0,0-.564-.576.539.539,0,0,0-.564.576v4.26a.549.549,0,0,0,.564.564.556.556,0,0,0,.564-.564V-2.856a1.376,1.376,0,0,1,1.416-1.476,1.309,1.309,0,0,1,1.356,1.464v2.4a.549.549,0,0,0,.564.564A.541.541,0,0,0,169.32-.468Zm4.092-4.884A2.646,2.646,0,0,0,170.724-2.6,2.589,2.589,0,0,0,173.46.144,2.874,2.874,0,0,0,175.6-.732a.5.5,0,0,0,.144-.324.454.454,0,0,0-.468-.468.551.551,0,0,0-.372.18,1.844,1.844,0,0,1-1.392.588,1.5,1.5,0,0,1-1.62-1.452h3.588c.324,0,.432-.192.432-.384A2.548,2.548,0,0,0,173.412-5.352Zm1.452,2.232h-2.952a1.49,1.49,0,0,1,1.5-1.332A1.463,1.463,0,0,1,174.864-3.12ZM6.384,13.4a2.591,2.591,0,0,0-2.508-2.748A2.163,2.163,0,0,0,1.992,11.68v-.408A.542.542,0,0,0,1.44,10.7a.523.523,0,0,0-.54.564v6.516a.549.549,0,0,0,.564.564.549.549,0,0,0,.564-.564V15.112a2.158,2.158,0,0,0,1.848,1.032A2.556,2.556,0,0,0,6.384,13.4Zm-1.128,0a1.623,1.623,0,0,1-1.608,1.812A1.7,1.7,0,0,1,2.028,13.4a1.7,1.7,0,0,1,1.62-1.812A1.623,1.623,0,0,1,5.256,13.4Zm7.08,2.136V12.916c0-1.464-.888-2.268-2.472-2.268a4.805,4.805,0,0,0-1.608.264c-.3.12-.528.264-.528.54a.45.45,0,0,0,.48.468,1.211,1.211,0,0,0,.372-.1,3.283,3.283,0,0,1,1.188-.216c1.044,0,1.44.432,1.44,1.38V13.5a2.354,2.354,0,0,0-1.62-.612c-1.164,0-2.04.564-2.04,1.632,0,.96.828,1.62,1.992,1.62a2.043,2.043,0,0,0,1.692-.72v.108a.539.539,0,0,0,.552.564A.519.519,0,0,0,12.336,15.532Zm-1.128-1.008c0,.5-.6.852-1.308.852s-1.224-.312-1.224-.852.492-.852,1.248-.852C10.56,13.672,11.208,13.984,11.208,14.524ZM18.4,11.212a.469.469,0,0,0-.48-.516.513.513,0,0,0-.528.408l-1.38,3.732-1.536-3.828a.512.512,0,0,0-.984.192.775.775,0,0,0,.048.228l1.872,4.488a3.568,3.568,0,0,1-1.368,1.5.5.5,0,0,0-.288.468.476.476,0,0,0,.5.456.578.578,0,0,0,.288-.084,5.072,5.072,0,0,0,2.22-2.784c.672-1.548,1.224-3,1.584-4A.863.863,0,0,0,18.4,11.212ZM28.4,15.532V13.048c0-1.4-.7-2.4-2.148-2.4a2.259,2.259,0,0,0-2,1.068,1.981,1.981,0,0,0-1.836-1.068,1.88,1.88,0,0,0-1.692,1.008v-.384a.532.532,0,0,0-.564-.576.539.539,0,0,0-.564.576v4.26a.556.556,0,0,0,.564.564.549.549,0,0,0,.564-.564V13.144a1.363,1.363,0,0,1,1.392-1.476,1.3,1.3,0,0,1,1.32,1.464v2.4A.549.549,0,0,0,24,16.1a.542.542,0,0,0,.564-.564V13.144a1.405,1.405,0,0,1,1.428-1.476c.888,0,1.284.636,1.284,1.464v2.4a.556.556,0,0,0,.564.564A.549.549,0,0,0,28.4,15.532ZM32.5,10.648A2.646,2.646,0,0,0,29.808,13.4a2.589,2.589,0,0,0,2.736,2.748,2.874,2.874,0,0,0,2.136-.876.5.5,0,0,0,.144-.324.454.454,0,0,0-.468-.468.551.551,0,0,0-.372.18,1.844,1.844,0,0,1-1.392.588,1.5,1.5,0,0,1-1.62-1.452H34.56c.324,0,.432-.192.432-.384A2.548,2.548,0,0,0,32.5,10.648Zm1.452,2.232H31a1.49,1.49,0,0,1,1.5-1.332A1.463,1.463,0,0,1,33.948,12.88ZM41.5,15.532V13.084a2.169,2.169,0,0,0-2.172-2.436A1.837,1.837,0,0,0,37.6,11.656v-.384a.526.526,0,0,0-.564-.576.539.539,0,0,0-.564.576v4.26a.549.549,0,0,0,.564.564.556.556,0,0,0,.564-.564V13.144a1.376,1.376,0,0,1,1.416-1.476,1.309,1.309,0,0,1,1.356,1.464v2.4a.549.549,0,0,0,.564.564A.541.541,0,0,0,41.5,15.532Zm3.468,0v-3.8H46a.468.468,0,1,0,0-.936H44.964V9.22a.564.564,0,0,0-1.128,0v1.572h-.912a.468.468,0,1,0,0,.936h.912v3.8a.564.564,0,1,0,1.128,0Zm2.808.1v-.48a.493.493,0,1,0-.984,0v.636a3.747,3.747,0,0,1-.312,1.476.845.845,0,0,0-.108.348.437.437,0,0,0,.492.4.539.539,0,0,0,.492-.36A4.45,4.45,0,0,0,47.772,15.628ZM58.152,13.4a2.748,2.748,0,0,0-5.5,0,2.748,2.748,0,0,0,5.5,0Zm-1.128,0a1.628,1.628,0,1,1-3.24,0,1.628,1.628,0,1,1,3.24,0ZM62.8,11.2a.5.5,0,0,0-.528-.528,1.519,1.519,0,0,0-1.524,1.116v-.516a.536.536,0,0,0-.552-.576.555.555,0,0,0-.576.576v4.26a.535.535,0,0,0,.564.564.556.556,0,0,0,.564-.564V13.564c0-1.212.576-1.836,1.524-1.836A.518.518,0,0,0,62.8,11.2ZM72.8,13.4A2.591,2.591,0,0,0,70.3,10.648a2.163,2.163,0,0,0-1.884,1.032v-.408a.542.542,0,0,0-.552-.576.523.523,0,0,0-.54.564v6.516a.564.564,0,1,0,1.128,0V15.112A2.158,2.158,0,0,0,70.3,16.144,2.556,2.556,0,0,0,72.8,13.4Zm-1.128,0a1.623,1.623,0,0,1-1.608,1.812,1.7,1.7,0,0,1-1.62-1.812,1.7,1.7,0,0,1,1.62-1.812A1.623,1.623,0,0,1,71.676,13.4Zm7.08,2.136V12.916c0-1.464-.888-2.268-2.472-2.268a4.805,4.805,0,0,0-1.608.264c-.3.12-.528.264-.528.54a.45.45,0,0,0,.48.468,1.211,1.211,0,0,0,.372-.1,3.283,3.283,0,0,1,1.188-.216c1.044,0,1.44.432,1.44,1.38V13.5a2.354,2.354,0,0,0-1.62-.612c-1.164,0-2.04.564-2.04,1.632,0,.96.828,1.62,1.992,1.62a2.043,2.043,0,0,0,1.692-.72v.108a.539.539,0,0,0,.552.564A.519.519,0,0,0,78.756,15.532Zm-1.128-1.008c0,.5-.6.852-1.308.852s-1.224-.312-1.224-.852.492-.852,1.248-.852C76.98,13.672,77.628,13.984,77.628,14.524Zm7.188-3.312a.469.469,0,0,0-.48-.516.513.513,0,0,0-.528.408l-1.38,3.732-1.536-3.828a.512.512,0,0,0-.984.192.775.775,0,0,0,.048.228l1.872,4.488a3.568,3.568,0,0,1-1.368,1.5.5.5,0,0,0-.288.468.476.476,0,0,0,.5.456.578.578,0,0,0,.288-.084,5.072,5.072,0,0,0,2.22-2.784c.672-1.548,1.224-3,1.584-4A.863.863,0,0,0,84.816,11.212Zm9.168,4.32V12.916c0-1.464-.888-2.268-2.472-2.268a4.805,4.805,0,0,0-1.608.264c-.3.12-.528.264-.528.54a.45.45,0,0,0,.48.468,1.211,1.211,0,0,0,.372-.1,3.283,3.283,0,0,1,1.188-.216c1.044,0,1.44.432,1.44,1.38V13.5a2.354,2.354,0,0,0-1.62-.612c-1.164,0-2.04.564-2.04,1.632,0,.96.828,1.62,1.992,1.62a2.043,2.043,0,0,0,1.692-.72v.108a.539.539,0,0,0,.552.564A.519.519,0,0,0,93.984,15.532Zm-1.128-1.008c0,.5-.6.852-1.308.852s-1.224-.312-1.224-.852.492-.852,1.248-.852C92.208,13.672,92.856,13.984,92.856,14.524Zm4.584,1.008v-3.8h1.032a.468.468,0,1,0,0-.936H97.44V9.22a.564.564,0,1,0-1.128,0v1.572H95.4a.468.468,0,1,0,0,.936h.912v3.8a.564.564,0,1,0,1.128,0Zm7.644,0v-3.8h1.032a.468.468,0,1,0,0-.936h-1.032V9.22a.564.564,0,1,0-1.128,0v1.572h-.912a.468.468,0,1,0,0,.936h.912v3.8a.564.564,0,1,0,1.128,0Zm7.428,0V13.084a2.169,2.169,0,0,0-2.172-2.436,1.837,1.837,0,0,0-1.728,1.008V8.488a.526.526,0,0,0-.564-.576.539.539,0,0,0-.564.576v7.044a.549.549,0,0,0,.564.564.556.556,0,0,0,.564-.564V13.144a1.376,1.376,0,0,1,1.416-1.476,1.309,1.309,0,0,1,1.356,1.464v2.4a.549.549,0,0,0,.564.564A.541.541,0,0,0,112.512,15.532Zm4.092-4.884a2.646,2.646,0,0,0-2.688,2.748,2.589,2.589,0,0,0,2.736,2.748,2.874,2.874,0,0,0,2.136-.876.5.5,0,0,0,.144-.324.454.454,0,0,0-.468-.468.551.551,0,0,0-.372.18,1.844,1.844,0,0,1-1.392.588,1.5,1.5,0,0,1-1.62-1.452h3.588c.324,0,.432-.192.432-.384A2.548,2.548,0,0,0,116.6,10.648Zm1.452,2.232H115.1a1.49,1.49,0,0,1,1.5-1.332A1.463,1.463,0,0,1,118.056,12.88Zm8.484-2.232a2.642,2.642,0,0,0-2.808,2.748,2.642,2.642,0,0,0,2.808,2.748,2.536,2.536,0,0,0,1.86-.756.55.55,0,0,0,.168-.4.472.472,0,0,0-.516-.456c-.2,0-.336.168-.48.288a1.523,1.523,0,0,1-1.02.372,1.659,1.659,0,0,1-1.692-1.8,1.659,1.659,0,0,1,1.692-1.8,1.523,1.523,0,0,1,1.02.372c.144.12.276.288.48.288a.472.472,0,0,0,.516-.456.55.55,0,0,0-.168-.4A2.536,2.536,0,0,0,126.54,10.648Zm4.656,4.884V8.476a.564.564,0,0,0-1.128,0v7.056a.564.564,0,0,0,1.128,0Zm2.928,0V11.26a.564.564,0,0,0-1.128,0v4.272a.564.564,0,0,0,1.128,0ZM132.9,9.22a.66.66,0,1,0,.66-.66A.666.666,0,0,0,132.9,9.22Zm8.052,6.312V13.084a2.169,2.169,0,0,0-2.172-2.436,1.837,1.837,0,0,0-1.728,1.008v-.384a.526.526,0,0,0-.564-.576.539.539,0,0,0-.564.576v4.26a.549.549,0,0,0,.564.564.556.556,0,0,0,.564-.564V13.144a1.376,1.376,0,0,1,1.416-1.476,1.309,1.309,0,0,1,1.356,1.464v2.4a.549.549,0,0,0,.564.564A.541.541,0,0,0,140.952,15.532Zm2.868,0V11.26a.564.564,0,0,0-1.128,0v4.272a.564.564,0,0,0,1.128,0ZM142.6,9.22a.66.66,0,1,0,.66-.66A.666.666,0,0,0,142.6,9.22Zm5.508,1.428A2.642,2.642,0,0,0,145.3,13.4a2.642,2.642,0,0,0,2.808,2.748,2.536,2.536,0,0,0,1.86-.756.55.55,0,0,0,.168-.4.472.472,0,0,0-.516-.456c-.2,0-.336.168-.48.288a1.523,1.523,0,0,1-1.02.372,1.659,1.659,0,0,1-1.692-1.8,1.659,1.659,0,0,1,1.692-1.8,1.523,1.523,0,0,1,1.02.372c.144.12.276.288.48.288a.472.472,0,0,0,.516-.456.55.55,0,0,0-.168-.4A2.536,2.536,0,0,0,148.1,10.648Zm8.136,4.884V11.26a.564.564,0,0,0-1.128,0v4.272a.564.564,0,0,0,1.128,0ZM155.016,9.22a.66.66,0,1,0,.66-.66A.666.666,0,0,0,155.016,9.22Zm8.052,6.312V13.084a2.169,2.169,0,0,0-2.172-2.436,1.837,1.837,0,0,0-1.728,1.008v-.384a.526.526,0,0,0-.564-.576.539.539,0,0,0-.564.576v4.26a.549.549,0,0,0,.564.564.556.556,0,0,0,.564-.564V13.144a1.376,1.376,0,0,1,1.416-1.476,1.309,1.309,0,0,1,1.356,1.464v2.4a.549.549,0,0,0,.564.564A.541.541,0,0,0,163.068,15.532Zm10.7-2.136a2.591,2.591,0,0,0-2.508-2.748,2.163,2.163,0,0,0-1.884,1.032v-.408a.542.542,0,0,0-.552-.576.523.523,0,0,0-.54.564v6.516a.564.564,0,0,0,1.128,0V15.112a2.158,2.158,0,0,0,1.848,1.032A2.556,2.556,0,0,0,173.772,13.4Zm-1.128,0a1.623,1.623,0,0,1-1.608,1.812,1.7,1.7,0,0,1-1.62-1.812,1.7,1.7,0,0,1,1.62-1.812A1.623,1.623,0,0,1,172.644,13.4Zm4.944-2.748A2.646,2.646,0,0,0,174.9,13.4a2.589,2.589,0,0,0,2.736,2.748,2.874,2.874,0,0,0,2.136-.876.5.5,0,0,0,.144-.324.454.454,0,0,0-.468-.468.551.551,0,0,0-.372.18,1.844,1.844,0,0,1-1.392.588,1.5,1.5,0,0,1-1.62-1.452h3.588c.324,0,.432-.192.432-.384A2.548,2.548,0,0,0,177.588,10.648Zm1.452,2.232h-2.952a1.49,1.49,0,0,1,1.5-1.332A1.463,1.463,0,0,1,179.04,12.88Zm5.7-1.68a.5.5,0,0,0-.528-.528,1.519,1.519,0,0,0-1.524,1.116v-.516a.536.536,0,0,0-.552-.576.555.555,0,0,0-.576.576v4.26a.535.535,0,0,0,.564.564.556.556,0,0,0,.564-.564V13.564c0-1.212.576-1.836,1.524-1.836A.518.518,0,0,0,184.74,11.2Zm5.148,3.408c0-.972-.672-1.32-1.968-1.692-.864-.252-1.224-.384-1.224-.792s.408-.576,1.008-.576a2.356,2.356,0,0,1,1.14.276,1.093,1.093,0,0,0,.492.168.393.393,0,0,0,.432-.42c0-.24-.228-.432-.552-.588a3.547,3.547,0,0,0-1.488-.336c-1.3,0-2.124.588-2.124,1.488,0,.864.54,1.368,2.016,1.764.84.228,1.176.384,1.176.792,0,.372-.348.612-1,.612a2.262,2.262,0,0,1-1.356-.468.7.7,0,0,0-.444-.168.4.4,0,0,0-.432.4.6.6,0,0,0,.24.468,3.125,3.125,0,0,0,1.908.612C189.144,16.144,189.888,15.5,189.888,14.608Zm6.564-1.212a2.748,2.748,0,0,0-5.5,0,2.748,2.748,0,0,0,5.5,0Zm-1.128,0a1.628,1.628,0,1,1-3.24,0,1.628,1.628,0,1,1,3.24,0Zm7.62,2.136V13.084a2.169,2.169,0,0,0-2.172-2.436,1.837,1.837,0,0,0-1.728,1.008v-.384a.526.526,0,0,0-.564-.576.539.539,0,0,0-.564.576v4.26a.549.549,0,0,0,.564.564.556.556,0,0,0,.564-.564V13.144a1.376,1.376,0,0,1,1.416-1.476,1.309,1.309,0,0,1,1.356,1.464v2.4a.549.549,0,0,0,.564.564A.541.541,0,0,0,202.944,15.532ZM209.1,9.688c0-1.236-.984-1.824-2.448-1.824a4.342,4.342,0,0,0-2.028.492c-.252.132-.42.288-.42.528a.464.464,0,0,0,.48.468A.664.664,0,0,0,205,9.28a3.176,3.176,0,0,1,1.608-.408c.84,0,1.368.252,1.368.84,0,.5-.408.84-1.068,1.392a2.183,2.183,0,0,0-1.068,1.992v.312a.529.529,0,0,0,.552.552.545.545,0,0,0,.576-.564v-.288c0-.66.18-.852.9-1.464C208.776,10.876,209.1,10.42,209.1,9.688Zm-3.4,5.688a.72.72,0,1,0,.72-.72A.722.722,0,0,0,205.7,15.376Z" transform="translate(17374 1965)"/>
    <circle id="Ellipse_191" data-name="Ellipse 191" class="cls-3" cx="13" cy="13" r="13" transform="translate(17353 1927)"/>
    <g id="Hi-there" transform="translate(17358 1934)">
      <g id="lifeline-in-a-heart-outline" transform="translate(0 0)">
        <path id="Shape" class="cls-4" d="M15,4.058a3.979,3.979,0,0,1-.206,1.26c-.637,2.9-6.147,6.412-6.381,6.561a.45.45,0,0,1-.239.07.431.431,0,0,1-.24-.07A30.585,30.585,0,0,1,4.745,9.5a.449.449,0,0,1,.58-.685,30.855,30.855,0,0,0,2.851,2.153c1.655-1.086,5.308-3.848,5.755-5.886a3.23,3.23,0,0,0,.17-1.02,3.18,3.18,0,0,0-1.633-2.782,3.2,3.2,0,0,0-3.95.755.461.461,0,0,1-.689,0,3.208,3.208,0,0,0-3.95-.756A3.159,3.159,0,0,0,2.4,5.034a3.53,3.53,0,0,0,.355.889h2.61l.9-2.073a.445.445,0,0,1,.844.076l.66,2.808L8.62,5.324A.445.445,0,0,1,9,5.109h1.62a.45.45,0,0,1,0,.9H9.253L7.967,8.135a.445.445,0,0,1-.38.216.461.461,0,0,1-.07-.005.449.449,0,0,1-.365-.34l-.6-2.558-.476,1.1a.445.445,0,0,1-.41.271H.447a.45.45,0,0,1,0-.9H1.758a3.928,3.928,0,0,1-.215-.65,3.816,3.816,0,0,1-.192-1.215A4.078,4.078,0,0,1,3.449.488a4.117,4.117,0,0,1,4.727.6A4.112,4.112,0,0,1,12.9.488,4.082,4.082,0,0,1,15,4.058Z" transform="translate(0 0)"/>
      </g>
    </g>
  </g>
</svg>
