<svg xmlns="http://www.w3.org/2000/svg" viewBox="0 0 127 42.521">
  <defs>
    <style>
      .cls-1 {
        fill: #0099c2;
      }

      .cls-2 {
        fill: #fff;
      }
    </style>
  </defs>
  <g id="Group_1383" data-name="Group 1383" transform="translate(-17480 -2022)">
    <path id="Rectangle_1319" data-name="Rectangle 1319" class="cls-1" d="M12,0H115a12,12,0,0,1,12,12V42.521a0,0,0,0,1,0,0H12a12,12,0,0,1-12-12V12A12,12,0,0,1,12,0Z" transform="translate(17480 2022)"/>
    <path id="Path_933" data-name="Path 933" class="cls-2" d="M2.232-.492V-3.276H4.716c1.824,0,2.724-.96,2.724-2.34s-.9-2.376-2.724-2.376H1.668A.554.554,0,0,0,1.08-7.4V-.492A.574.574,0,0,0,1.668.1.562.562,0,0,0,2.232-.492ZM4.944-6.936a1.259,1.259,0,0,1,1.344,1.32A1.232,1.232,0,0,1,4.944-4.332H2.232v-2.6ZM13.152-.468V-3.084c0-1.464-.888-2.268-2.472-2.268a4.805,4.805,0,0,0-1.608.264c-.3.12-.528.264-.528.54a.45.45,0,0,0,.48.468,1.211,1.211,0,0,0,.372-.1,3.283,3.283,0,0,1,1.188-.216c1.044,0,1.44.432,1.44,1.38V-2.5a2.354,2.354,0,0,0-1.62-.612c-1.164,0-2.04.564-2.04,1.632,0,.96.828,1.62,1.992,1.62a2.043,2.043,0,0,0,1.692-.72v.108A.539.539,0,0,0,12.6.1.519.519,0,0,0,13.152-.468ZM12.024-1.476c0,.5-.6.852-1.308.852S9.492-.936,9.492-1.476s.492-.852,1.248-.852C11.376-2.328,12.024-2.016,12.024-1.476Zm7.188-3.312a.469.469,0,0,0-.48-.516A.513.513,0,0,0,18.2-4.9l-1.38,3.732L15.288-4.992a.479.479,0,0,0-.48-.312.478.478,0,0,0-.5.5.775.775,0,0,0,.048.228L16.224-.084a3.568,3.568,0,0,1-1.368,1.5.5.5,0,0,0-.288.468.476.476,0,0,0,.5.456.578.578,0,0,0,.288-.084A5.072,5.072,0,0,0,17.58-.528c.672-1.548,1.224-3,1.584-4A.863.863,0,0,0,19.212-4.788ZM28.38-.468V-3.084c0-1.464-.888-2.268-2.472-2.268a4.805,4.805,0,0,0-1.608.264c-.3.12-.528.264-.528.54a.45.45,0,0,0,.48.468,1.211,1.211,0,0,0,.372-.1,3.283,3.283,0,0,1,1.188-.216c1.044,0,1.44.432,1.44,1.38V-2.5a2.354,2.354,0,0,0-1.62-.612c-1.164,0-2.04.564-2.04,1.632,0,.96.828,1.62,1.992,1.62a2.043,2.043,0,0,0,1.692-.72v.108A.539.539,0,0,0,27.828.1.519.519,0,0,0,28.38-.468ZM27.252-1.476c0,.5-.6.852-1.308.852S24.72-.936,24.72-1.476s.492-.852,1.248-.852C26.6-2.328,27.252-2.016,27.252-1.476ZM31.836-.468v-3.8h1.032a.461.461,0,0,0,.468-.468.461.461,0,0,0-.468-.468H31.836V-6.78a.549.549,0,0,0-.564-.564.549.549,0,0,0-.564.564v1.572H29.8a.461.461,0,0,0-.468.468.461.461,0,0,0,.468.468h.912v3.8A.549.549,0,0,0,31.272.1.549.549,0,0,0,31.836-.468Zm7.644,0v-3.8h1.032a.461.461,0,0,0,.468-.468.461.461,0,0,0-.468-.468H39.48V-6.78a.549.549,0,0,0-.564-.564.549.549,0,0,0-.564.564v1.572H37.44a.461.461,0,0,0-.468.468.461.461,0,0,0,.468.468h.912v3.8A.549.549,0,0,0,38.916.1.549.549,0,0,0,39.48-.468Zm7.428,0V-2.916a2.169,2.169,0,0,0-2.172-2.436,1.837,1.837,0,0,0-1.728,1.008V-7.512a.526.526,0,0,0-.564-.576.539.539,0,0,0-.564.576V-.468A.549.549,0,0,0,42.444.1a.556.556,0,0,0,.564-.564V-2.856a1.376,1.376,0,0,1,1.416-1.476A1.309,1.309,0,0,1,45.78-2.868v2.4A.549.549,0,0,0,46.344.1.541.541,0,0,0,46.908-.468ZM51-5.352A2.646,2.646,0,0,0,48.312-2.6,2.589,2.589,0,0,0,51.048.144a2.874,2.874,0,0,0,2.136-.876.5.5,0,0,0,.144-.324.454.454,0,0,0-.468-.468.551.551,0,0,0-.372.18A1.844,1.844,0,0,1,51.1-.756a1.5,1.5,0,0,1-1.62-1.452h3.588c.324,0,.432-.192.432-.384A2.548,2.548,0,0,0,51-5.352ZM52.452-3.12H49.5A1.49,1.49,0,0,1,51-4.452,1.463,1.463,0,0,1,52.452-3.12Zm8.484-2.232A2.642,2.642,0,0,0,58.128-2.6,2.642,2.642,0,0,0,60.936.144,2.536,2.536,0,0,0,62.8-.612a.55.55,0,0,0,.168-.4.472.472,0,0,0-.516-.456c-.2,0-.336.168-.48.288a1.523,1.523,0,0,1-1.02.372,1.659,1.659,0,0,1-1.692-1.8,1.659,1.659,0,0,1,1.692-1.8,1.523,1.523,0,0,1,1.02.372c.144.12.276.288.48.288a.472.472,0,0,0,.516-.456.55.55,0,0,0-.168-.4A2.536,2.536,0,0,0,60.936-5.352ZM65.592-.468V-7.524a.549.549,0,0,0-.564-.564.549.549,0,0,0-.564.564V-.468A.549.549,0,0,0,65.028.1.549.549,0,0,0,65.592-.468Zm2.928,0V-4.74a.556.556,0,0,0-.564-.564.556.556,0,0,0-.564.564V-.468A.549.549,0,0,0,67.956.1.549.549,0,0,0,68.52-.468ZM67.3-6.78a.666.666,0,0,0,.66.66.666.666,0,0,0,.66-.66.666.666,0,0,0-.66-.66A.666.666,0,0,0,67.3-6.78ZM75.348-.468V-2.916a2.169,2.169,0,0,0-2.172-2.436,1.837,1.837,0,0,0-1.728,1.008v-.384a.526.526,0,0,0-.564-.576.539.539,0,0,0-.564.576v4.26A.549.549,0,0,0,70.884.1a.556.556,0,0,0,.564-.564V-2.856a1.376,1.376,0,0,1,1.416-1.476A1.309,1.309,0,0,1,74.22-2.868v2.4A.549.549,0,0,0,74.784.1.541.541,0,0,0,75.348-.468Zm2.868,0V-4.74a.556.556,0,0,0-.564-.564.556.556,0,0,0-.564.564V-.468A.549.549,0,0,0,77.652.1.549.549,0,0,0,78.216-.468ZM76.992-6.78a.666.666,0,0,0,.66.66.666.666,0,0,0,.66-.66.666.666,0,0,0-.66-.66A.666.666,0,0,0,76.992-6.78ZM82.5-5.352A2.642,2.642,0,0,0,79.692-2.6,2.642,2.642,0,0,0,82.5.144a2.536,2.536,0,0,0,1.86-.756.55.55,0,0,0,.168-.4.472.472,0,0,0-.516-.456c-.2,0-.336.168-.48.288a1.523,1.523,0,0,1-1.02.372A1.659,1.659,0,0,1,80.82-2.6a1.659,1.659,0,0,1,1.692-1.8,1.523,1.523,0,0,1,1.02.372c.144.12.276.288.48.288a.472.472,0,0,0,.516-.456.55.55,0,0,0-.168-.4A2.536,2.536,0,0,0,82.5-5.352ZM85.968-.624a.722.722,0,0,0,.72.72.722.722,0,0,0,.72-.72.722.722,0,0,0-.72-.72A.722.722,0,0,0,85.968-.624Z" transform="translate(17500 2046)"/>
  </g>
</svg>
