<svg xmlns="http://www.w3.org/2000/svg" viewBox="0 0 183 68">
  <defs>
    <style>
      .cls-1 {
        fill: #d3f6ff;
      }

      .cls-2 {
        fill: #36414c;
      }

      .cls-3 {
        fill: #fff;
      }

      .cls-4 {
        fill: #0099c2;
      }
    </style>
  </defs>
  <g id="Group_1367" data-name="Group 1367" transform="translate(-17353 -2072)">
    <path id="Rectangle_1327" data-name="Rectangle 1327" class="cls-1" d="M0,0H166a12,12,0,0,1,12,12V40a12,12,0,0,1-12,12H12A12,12,0,0,1,0,40V0A0,0,0,0,1,0,0Z" transform="translate(17358 2088)"/>
    <path id="Path_934" data-name="Path 934" class="cls-2" d="M6.984-2.124C6.984-3.492,5.916-4.008,4-4.608,2.616-5.04,2.028-5.292,2.028-6c0-.78.756-1.116,1.932-1.116a4.071,4.071,0,0,1,2.052.588.46.46,0,0,0,.228.06.472.472,0,0,0,.492-.516c0-.372-.564-.66-.972-.816a5.161,5.161,0,0,0-1.812-.336c-1.8,0-3.072.72-3.072,2.16,0,1.128.672,1.788,2.808,2.424,1.44.432,2.148.684,2.148,1.488,0,.684-.624,1.2-1.9,1.2A3.842,3.842,0,0,1,1.68-1.608a.8.8,0,0,0-.408-.144.453.453,0,0,0-.492.468.731.731,0,0,0,.312.54A4.821,4.821,0,0,0,3.924.144C5.928.144,6.984-.84,6.984-2.124ZM8.412-4.74v2.448A2.169,2.169,0,0,0,10.584.144,1.837,1.837,0,0,0,12.312-.864V-.48A.526.526,0,0,0,12.876.1.539.539,0,0,0,13.44-.48V-4.74a.549.549,0,0,0-.564-.564.556.556,0,0,0-.564.564v2.388A1.376,1.376,0,0,1,10.9-.876,1.309,1.309,0,0,1,9.54-2.34v-2.4A.549.549,0,0,0,8.976-5.3.541.541,0,0,0,8.412-4.74ZM18.42-4.8a.5.5,0,0,0-.528-.528,1.519,1.519,0,0,0-1.524,1.116v-.516a.536.536,0,0,0-.552-.576.555.555,0,0,0-.576.576v4.26A.535.535,0,0,0,15.8.1a.556.556,0,0,0,.564-.564V-2.436c0-1.212.576-1.836,1.524-1.836A.518.518,0,0,0,18.42-4.8Zm3.216-.552A2.646,2.646,0,0,0,18.948-2.6,2.589,2.589,0,0,0,21.684.144,2.874,2.874,0,0,0,23.82-.732a.5.5,0,0,0,.144-.324.454.454,0,0,0-.468-.468.551.551,0,0,0-.372.18,1.844,1.844,0,0,1-1.392.588,1.5,1.5,0,0,1-1.62-1.452H23.7c.324,0,.432-.192.432-.384A2.548,2.548,0,0,0,21.636-5.352ZM23.088-3.12H20.136a1.49,1.49,0,0,1,1.5-1.332A1.463,1.463,0,0,1,23.088-3.12Zm2.46,2.5a.722.722,0,0,0,.72.72.722.722,0,0,0,.72-.72.722.722,0,0,0-.72-.72A.722.722,0,0,0,25.548-.624Zm10.3-7.128a.509.509,0,0,0-.516-.336.509.509,0,0,0-.516.336L31.644-.684a.59.59,0,0,0-.06.24.516.516,0,0,0,.54.54A.524.524,0,0,0,32.64-.24l.8-1.752h3.768l.8,1.752A.524.524,0,0,0,38.532.1a.516.516,0,0,0,.54-.54.59.59,0,0,0-.06-.24Zm.948,4.74H33.864l1.464-3.4Zm9.18.408a2.591,2.591,0,0,0-2.508-2.748A2.163,2.163,0,0,0,41.58-4.32v-.408a.542.542,0,0,0-.552-.576.523.523,0,0,0-.54.564V1.776a.564.564,0,1,0,1.128,0V-.888A2.158,2.158,0,0,0,43.464.144,2.556,2.556,0,0,0,45.972-2.6Zm-1.128,0A1.623,1.623,0,0,1,43.236-.792,1.7,1.7,0,0,1,41.616-2.6a1.7,1.7,0,0,1,1.62-1.812A1.623,1.623,0,0,1,44.844-2.6Zm8.076,0a2.591,2.591,0,0,0-2.508-2.748A2.163,2.163,0,0,0,48.528-4.32v-.408a.542.542,0,0,0-.552-.576.523.523,0,0,0-.54.564V1.776a.564.564,0,1,0,1.128,0V-.888A2.158,2.158,0,0,0,50.412.144,2.556,2.556,0,0,0,52.92-2.6Zm-1.128,0A1.623,1.623,0,0,1,50.184-.792,1.7,1.7,0,0,1,48.564-2.6a1.7,1.7,0,0,1,1.62-1.812A1.623,1.623,0,0,1,51.792-2.6Zm7.752,0A2.66,2.66,0,0,0,56.8-5.352,2.66,2.66,0,0,0,54.048-2.6,2.66,2.66,0,0,0,56.8.144,2.66,2.66,0,0,0,59.544-2.6Zm-1.128,0A1.621,1.621,0,0,1,56.8-.816,1.621,1.621,0,0,1,55.176-2.6,1.621,1.621,0,0,1,56.8-4.392,1.621,1.621,0,0,1,58.416-2.6Zm3.72,2.136V-4.74a.556.556,0,0,0-.564-.564.556.556,0,0,0-.564.564V-.468A.549.549,0,0,0,61.572.1.549.549,0,0,0,62.136-.468ZM60.912-6.78a.666.666,0,0,0,.66.66.666.666,0,0,0,.66-.66.666.666,0,0,0-.66-.66A.666.666,0,0,0,60.912-6.78ZM68.964-.468V-2.916a2.169,2.169,0,0,0-2.172-2.436,1.837,1.837,0,0,0-1.728,1.008v-.384A.526.526,0,0,0,64.5-5.3a.539.539,0,0,0-.564.576v4.26A.549.549,0,0,0,64.5.1a.556.556,0,0,0,.564-.564V-2.856A1.376,1.376,0,0,1,66.48-4.332a1.309,1.309,0,0,1,1.356,1.464v2.4A.549.549,0,0,0,68.4.1.541.541,0,0,0,68.964-.468Zm3.468,0v-3.8h1.032a.461.461,0,0,0,.468-.468.461.461,0,0,0-.468-.468H72.432V-6.78a.549.549,0,0,0-.564-.564.549.549,0,0,0-.564.564v1.572h-.912a.461.461,0,0,0-.468.468.461.461,0,0,0,.468.468H71.3v3.8A.549.549,0,0,0,71.868.1.549.549,0,0,0,72.432-.468Zm11.208,0V-2.952c0-1.4-.7-2.4-2.148-2.4a2.259,2.259,0,0,0-2,1.068,1.981,1.981,0,0,0-1.836-1.068A1.88,1.88,0,0,0,75.96-4.344v-.384A.532.532,0,0,0,75.4-5.3a.539.539,0,0,0-.564.576v4.26A.556.556,0,0,0,75.4.1a.549.549,0,0,0,.564-.564V-2.856a1.363,1.363,0,0,1,1.392-1.476,1.3,1.3,0,0,1,1.32,1.464v2.4A.549.549,0,0,0,79.236.1.542.542,0,0,0,79.8-.468V-2.856a1.405,1.405,0,0,1,1.428-1.476c.888,0,1.284.636,1.284,1.464v2.4A.556.556,0,0,0,83.076.1.549.549,0,0,0,83.64-.468Zm4.092-4.884A2.646,2.646,0,0,0,85.044-2.6,2.589,2.589,0,0,0,87.78.144a2.874,2.874,0,0,0,2.136-.876.5.5,0,0,0,.144-.324.454.454,0,0,0-.468-.468.551.551,0,0,0-.372.18,1.844,1.844,0,0,1-1.392.588,1.5,1.5,0,0,1-1.62-1.452H89.8c.324,0,.432-.192.432-.384A2.548,2.548,0,0,0,87.732-5.352ZM89.184-3.12H86.232a1.49,1.49,0,0,1,1.5-1.332A1.463,1.463,0,0,1,89.184-3.12ZM96.732-.468V-2.916A2.169,2.169,0,0,0,94.56-5.352a1.837,1.837,0,0,0-1.728,1.008v-.384a.526.526,0,0,0-.564-.576.539.539,0,0,0-.564.576v4.26A.549.549,0,0,0,92.268.1a.556.556,0,0,0,.564-.564V-2.856a1.376,1.376,0,0,1,1.416-1.476A1.309,1.309,0,0,1,95.6-2.868v2.4A.549.549,0,0,0,96.168.1.541.541,0,0,0,96.732-.468Zm3.468,0v-3.8h1.032a.461.461,0,0,0,.468-.468.461.461,0,0,0-.468-.468H100.2V-6.78a.549.549,0,0,0-.564-.564.549.549,0,0,0-.564.564v1.572H98.16a.461.461,0,0,0-.468.468.461.461,0,0,0,.468.468h.912v3.8A.549.549,0,0,0,99.636.1.549.549,0,0,0,100.2-.468ZM111.564-2.6a2.556,2.556,0,0,0-2.508-2.748,2.158,2.158,0,0,0-1.848,1.032v-3.2a.549.549,0,0,0-.564-.564.549.549,0,0,0-.564.564V-.468a.523.523,0,0,0,.54.564.542.542,0,0,0,.552-.576V-.888A2.163,2.163,0,0,0,109.056.144,2.591,2.591,0,0,0,111.564-2.6Zm-1.128,0a1.623,1.623,0,0,1-1.608,1.812,1.7,1.7,0,0,1-1.62-1.812,1.7,1.7,0,0,1,1.62-1.812A1.623,1.623,0,0,1,110.436-2.6Zm7.752,0a2.66,2.66,0,0,0-2.748-2.748A2.66,2.66,0,0,0,112.692-2.6,2.66,2.66,0,0,0,115.44.144,2.66,2.66,0,0,0,118.188-2.6Zm-1.128,0a1.621,1.621,0,0,1-1.62,1.788A1.621,1.621,0,0,1,113.82-2.6a1.621,1.621,0,0,1,1.62-1.788A1.621,1.621,0,0,1,117.06-2.6Zm7.752,0a2.66,2.66,0,0,0-2.748-2.748A2.66,2.66,0,0,0,119.316-2.6,2.66,2.66,0,0,0,122.064.144,2.66,2.66,0,0,0,124.812-2.6Zm-1.128,0a1.621,1.621,0,0,1-1.62,1.788,1.621,1.621,0,0,1-1.62-1.788,1.621,1.621,0,0,1,1.62-1.788A1.621,1.621,0,0,1,123.684-2.6ZM127.4-.468V-1.932l.7-.564L129.948-.12a.459.459,0,0,0,.384.216.5.5,0,0,0,.54-.516.512.512,0,0,0-.12-.324L128.9-3.12l1.62-1.26a.55.55,0,0,0,.264-.432.493.493,0,0,0-.516-.492.557.557,0,0,0-.348.12L127.4-3.216V-7.524a.549.549,0,0,0-.564-.564.549.549,0,0,0-.564.564V-.468A.549.549,0,0,0,126.84.1.549.549,0,0,0,127.4-.468Zm7.02-4.884A2.646,2.646,0,0,0,131.736-2.6,2.589,2.589,0,0,0,134.472.144a2.874,2.874,0,0,0,2.136-.876.5.5,0,0,0,.144-.324.454.454,0,0,0-.468-.468.551.551,0,0,0-.372.18,1.844,1.844,0,0,1-1.392.588,1.5,1.5,0,0,1-1.62-1.452h3.588c.324,0,.432-.192.432-.384A2.548,2.548,0,0,0,134.424-5.352Zm1.452,2.232h-2.952a1.49,1.49,0,0,1,1.5-1.332A1.463,1.463,0,0,1,135.876-3.12Zm2.184.516A2.591,2.591,0,0,0,140.568.144a2.163,2.163,0,0,0,1.884-1.032V-.48A.542.542,0,0,0,143,.1a.523.523,0,0,0,.54-.564V-7.524a.549.549,0,0,0-.564-.564.549.549,0,0,0-.564.564v3.2a2.158,2.158,0,0,0-1.848-1.032A2.556,2.556,0,0,0,138.06-2.6Zm1.128,0A1.623,1.623,0,0,1,140.8-4.416a1.7,1.7,0,0,1,1.62,1.812A1.7,1.7,0,0,1,140.8-.792,1.623,1.623,0,0,1,139.188-2.6Zm7.164,2.232v-.48a.482.482,0,0,0-.492-.528.482.482,0,0,0-.492.528v.636a3.747,3.747,0,0,1-.312,1.476.845.845,0,0,0-.108.348.437.437,0,0,0,.492.4.539.539,0,0,0,.492-.36A4.45,4.45,0,0,0,146.352-.372ZM5.268,11.212a.469.469,0,0,0-.48-.516.513.513,0,0,0-.528.408L2.88,14.836,1.344,11.008a.479.479,0,0,0-.48-.312.478.478,0,0,0-.5.5.775.775,0,0,0,.048.228L2.28,15.916a3.568,3.568,0,0,1-1.368,1.5.5.5,0,0,0-.288.468.476.476,0,0,0,.5.456.578.578,0,0,0,.288-.084,5.072,5.072,0,0,0,2.22-2.784c.672-1.548,1.224-3,1.584-4A.863.863,0,0,0,5.268,11.212ZM11.484,13.4a2.66,2.66,0,0,0-2.748-2.748A2.66,2.66,0,0,0,5.988,13.4a2.66,2.66,0,0,0,2.748,2.748A2.66,2.66,0,0,0,11.484,13.4Zm-1.128,0a1.628,1.628,0,1,1-3.24,0,1.628,1.628,0,1,1,3.24,0Zm2.532-2.136v2.448a2.169,2.169,0,0,0,2.172,2.436,1.837,1.837,0,0,0,1.728-1.008v.384a.526.526,0,0,0,.564.576.539.539,0,0,0,.564-.576V11.26a.549.549,0,0,0-.564-.564.556.556,0,0,0-.564.564v2.388a1.376,1.376,0,0,1-1.416,1.476,1.309,1.309,0,0,1-1.356-1.464v-2.4a.549.549,0,0,0-.564-.564A.541.541,0,0,0,12.888,11.26ZM22.9,11.2a.5.5,0,0,0-.528-.528,1.519,1.519,0,0,0-1.524,1.116v-.516a.536.536,0,0,0-.552-.576.555.555,0,0,0-.576.576v4.26a.535.535,0,0,0,.564.564.556.556,0,0,0,.564-.564V13.564c0-1.212.576-1.836,1.524-1.836A.518.518,0,0,0,22.9,11.2Zm5.916,4.308V8.5a.548.548,0,0,0-.564-.588.567.567,0,0,0-.588.588v7.008a.574.574,0,0,0,.588.588A.562.562,0,0,0,28.812,15.508ZM37.848,12a3.8,3.8,0,0,0-4.008-4H31.62a.589.589,0,0,0-.588.588v6.816A.589.589,0,0,0,31.62,16h2.22A3.8,3.8,0,0,0,37.848,12ZM36.7,12a2.727,2.727,0,0,1-2.892,2.94h-1.62V9.064H33.8A2.727,2.727,0,0,1,36.7,12Zm7.26,3.528V11.26a.564.564,0,1,0-1.128,0v4.272a.564.564,0,1,0,1.128,0ZM42.732,9.22a.66.66,0,1,0,.66-.66A.666.666,0,0,0,42.732,9.22ZM49.9,14.608c0-.972-.672-1.32-1.968-1.692-.864-.252-1.224-.384-1.224-.792s.408-.576,1.008-.576a2.356,2.356,0,0,1,1.14.276,1.094,1.094,0,0,0,.492.168.393.393,0,0,0,.432-.42c0-.24-.228-.432-.552-.588a3.547,3.547,0,0,0-1.488-.336c-1.3,0-2.124.588-2.124,1.488,0,.864.54,1.368,2.016,1.764.84.228,1.176.384,1.176.792,0,.372-.348.612-1,.612a2.262,2.262,0,0,1-1.356-.468.7.7,0,0,0-.444-.168.4.4,0,0,0-.432.4.6.6,0,0,0,.24.468,3.125,3.125,0,0,0,1.908.612C49.152,16.144,49.9,15.5,49.9,14.608Zm7.536.924V8.488a.523.523,0,0,0-.552-.576.726.726,0,0,0-.264.048l-2.028.624a.481.481,0,0,0-.408.492.538.538,0,0,0,.564.516.6.6,0,0,0,.144-.024L56.3,9.136v6.4a.564.564,0,1,0,1.128,0ZM66.072,12c0-2.16-1.224-4.14-3.42-4.14s-3.42,1.98-3.42,4.14,1.224,4.14,3.42,4.14S66.072,14.164,66.072,12Zm-1.128,0c0,1.764-.9,3.132-2.292,3.132S60.36,13.768,60.36,12s.9-3.132,2.292-3.132S64.944,10.24,64.944,12Zm2.412-1.548a2.509,2.509,0,0,0,2.808,2.508,2.683,2.683,0,0,0,2.328-1.092,5.622,5.622,0,0,1-3.024,3.36c-.24.132-.348.276-.348.48a.436.436,0,0,0,.48.432.983.983,0,0,0,.36-.084,5.88,5.88,0,0,0,3.7-5.232c0-1.752-1.08-2.964-3.192-2.964C68.64,7.864,67.356,9.016,67.356,10.456Zm1.128-.012c0-.912.72-1.632,1.944-1.632s1.956.624,1.956,1.608c0,1.008-.948,1.6-2,1.6C69.252,12.016,68.484,11.428,68.484,10.444Zm9.54-2.58c-1.548,0-2.628.876-2.628,2.064A1.955,1.955,0,0,0,76.512,11.6a2.235,2.235,0,0,0-1.68,2.124c0,1.344,1.188,2.424,3.192,2.424s3.192-1.08,3.192-2.424a2.235,2.235,0,0,0-1.68-2.124,1.955,1.955,0,0,0,1.116-1.668C80.652,8.74,79.572,7.864,78.024,7.864Zm0,4.308c1.212,0,2.064.588,2.064,1.512s-.864,1.524-2.064,1.524S75.96,14.6,75.96,13.684,76.812,12.172,78.024,12.172ZM76.5,10.012c0-.744.588-1.212,1.524-1.212s1.524.468,1.524,1.212a1.549,1.549,0,0,1-3.048,0Zm9.348-2.148c-1.548,0-2.628.876-2.628,2.064A1.955,1.955,0,0,0,84.336,11.6a2.235,2.235,0,0,0-1.68,2.124c0,1.344,1.188,2.424,3.192,2.424s3.192-1.08,3.192-2.424A2.235,2.235,0,0,0,87.36,11.6a1.955,1.955,0,0,0,1.116-1.668C88.476,8.74,87.4,7.864,85.848,7.864Zm0,4.308c1.212,0,2.064.588,2.064,1.512s-.864,1.524-2.064,1.524-2.064-.612-2.064-1.524S84.636,12.172,85.848,12.172Zm-1.524-2.16c0-.744.588-1.212,1.524-1.212s1.524.468,1.524,1.212a1.549,1.549,0,0,1-3.048,0ZM96.132,8.5c0-.336-.216-.492-.552-.492H90.42a.5.5,0,1,0,0,1.008h4.224a9.5,9.5,0,0,0-2.316,6.528.52.52,0,0,0,.564.552.526.526,0,0,0,.564-.552,9.706,9.706,0,0,1,2.556-6.732A.456.456,0,0,0,96.132,8.5Zm-.24,6.876a.72.72,0,1,0,.72-.72A.722.722,0,0,0,95.892,15.376Z" transform="translate(17372 2109)"/>
    <circle id="Ellipse_192" data-name="Ellipse 192" class="cls-3" cx="13" cy="13" r="13" transform="translate(17353 2072)"/>
    <g id="Hi-there" transform="translate(17358 2079)">
      <g id="lifeline-in-a-heart-outline" transform="translate(0 0)">
        <path id="Shape" class="cls-4" d="M15,4.058a3.979,3.979,0,0,1-.206,1.26c-.637,2.9-6.147,6.412-6.381,6.561a.45.45,0,0,1-.239.07.431.431,0,0,1-.24-.07A30.585,30.585,0,0,1,4.745,9.5a.449.449,0,0,1,.58-.685,30.855,30.855,0,0,0,2.851,2.153c1.655-1.086,5.308-3.848,5.755-5.886a3.23,3.23,0,0,0,.17-1.02,3.18,3.18,0,0,0-1.633-2.782,3.2,3.2,0,0,0-3.95.755.461.461,0,0,1-.689,0,3.208,3.208,0,0,0-3.95-.756A3.159,3.159,0,0,0,2.4,5.034a3.53,3.53,0,0,0,.355.889h2.61l.9-2.073a.445.445,0,0,1,.844.076l.66,2.808L8.62,5.324A.445.445,0,0,1,9,5.109h1.62a.45.45,0,0,1,0,.9H9.253L7.967,8.135a.445.445,0,0,1-.38.216.461.461,0,0,1-.07-.005.449.449,0,0,1-.365-.34l-.6-2.558-.476,1.1a.445.445,0,0,1-.41.271H.447a.45.45,0,0,1,0-.9H1.758a3.928,3.928,0,0,1-.215-.65,3.816,3.816,0,0,1-.192-1.215A4.078,4.078,0,0,1,3.449.488a4.117,4.117,0,0,1,4.727.6A4.112,4.112,0,0,1,12.9.488,4.082,4.082,0,0,1,15,4.058Z" transform="translate(0 0)"/>
      </g>
    </g>
  </g>
</svg>
