<?xml version="1.0" encoding="UTF-8"?>
<svg width="100px" height="23px" viewBox="0 0 100 23" version="1.1" xmlns="http://www.w3.org/2000/svg" xmlns:xlink="http://www.w3.org/1999/xlink">
    <!-- Generator: Sketch 48.2 (47327) - http://www.bohemiancoding.com/sketch -->
    <title>Group 4 Copy</title>
    <desc>Created with Sketch.</desc>
    <defs>
        <linearGradient x1="50%" y1="0%" x2="50%" y2="100%" id="linearGradient-1">
            <stop stop-color="#FFFFFF" offset="0%"></stop>
            <stop stop-color="#FBFBFB" offset="100%"></stop>
        </linearGradient>
        <rect id="path-2" x="0" y="0" width="100" height="23" rx="8"></rect>
    </defs>
    <g id="TMlabs" stroke="none" stroke-width="1" fill="none" fill-rule="evenodd" transform="translate(-855.000000, -1562.000000)">
        <g id="Group-4-Copy" transform="translate(855.000000, 1562.000000)">
            <g id="Group-16">
                <g id="Group-3">
                    <g id="Rectangle-20">
                        <use fill="url(#linearGradient-1)" fill-rule="evenodd" xlink:href="#path-2"></use>
                        <rect stroke="#EFEFEF" stroke-width="1" x="0.5" y="0.5" width="99" height="22" rx="8"></rect>
                    </g>
                    <g id="Group-2" transform="translate(47.000000, 6.000000)">
                        <polyline id="Fill-1" fill="#1A1919" points="0 2.08371041 1.86723305 2.08371041 1.86723305 8.73363127 5.32503771 8.73363127 5.32503771 10.418552 0 10.418552 0 2.08371041"></polyline>
                        <path d="M6.72263794,2.08371041 C7.27386857,2.08371041 7.72130468,2.53324581 7.72130468,3.08724127 C7.72130468,3.64105816 7.27386857,4.08934361 6.72263794,4.08934361 C6.17185165,4.08934361 5.72441554,3.64105816 5.72441554,3.08724127 C5.72441554,2.53324581 6.17185165,2.08371041 6.72263794,2.08371041 Z M5.86180108,10.418552 L7.58338594,10.418552 L7.58338594,4.85118782 L5.86180108,4.85118782 L5.86180108,10.418552 Z" id="Fill-2" fill="#1A1919"></path>
                        <polyline id="Fill-3" fill="#1A1919" points="13.845098 2.08371041 15.4299609 2.08371041 15.4299609 7.0647427 17.2266136 4.76525429 19.1701357 4.76525429 17.090387 7.38031436 19.1266644 10.418552 17.1339402 10.418552 15.4505095 7.626232 15.4299609 7.626232 15.4299609 10.418552 13.845098 10.418552 13.845098 2.08371041"></polyline>
                        <path d="M8.1206825,4.31935531 L9.75910821,4.31935531 L9.75910821,5.15259816 L9.78192652,5.15259816 C10.0092287,4.67302126 10.5669119,4.16742081 11.3975339,4.16742081 C13.1271448,4.16742081 13.4457202,5.4310306 13.4457202,7.07344939 L13.4457202,10.418552 L11.7388396,10.418552 L11.7388396,7.45245406 C11.7388396,6.74502433 11.7272101,5.83556966 10.8510396,5.83556966 C9.96368015,5.83556966 9.82756316,6.60600377 9.82756316,7.40187445 L9.82756316,10.418552 L8.1206825,10.418552 L8.1206825,4.31935531" id="Fill-4" fill="#1A1919"></path>
                        <path d="M24.6491395,9.24120979 C24.1349671,9.98931465 23.2909295,10.418552 22.4568276,10.418552 C20.8527919,10.418552 19.5695136,9.19271536 19.5695136,7.29241702 C19.5695136,5.39335239 20.8527919,4.16742081 22.4568276,4.16742081 C23.9544686,4.16742081 24.8945513,5.39335239 24.8945513,7.29241702 L24.8945513,7.8683714 L21.1735493,7.8683714 C21.3008919,8.56741243 21.7619911,9.02084958 22.3815647,9.02084958 C22.9061696,9.02084958 23.2582245,8.71469884 23.5256604,8.29798839 L24.6491395,9.24120979 Z M23.2909295,6.61937887 C23.3010308,6.00612838 22.884311,5.49157497 22.306219,5.49157497 C21.6010328,5.49157497 21.2164384,6.04332959 21.1735493,6.61937887 L23.2909295,6.61937887 Z" id="Fill-5" fill="#1A1919"></path>
                        <path d="M30.6189668,10.2807802 L29.2266934,10.2807802 L29.2266934,9.54353135 L29.2070191,9.54353135 C28.9739716,9.94695518 28.3898304,10.418552 27.7042726,10.418552 C26.251727,10.418552 25.2939291,9.22200424 25.2939291,7.53042234 C25.2939291,5.9759885 26.141332,4.54934565 27.5327465,4.54934565 C28.1584225,4.54934565 28.7426417,4.74441849 29.0857719,5.28534685 L29.1054463,5.28534685 L29.1054463,2.08371041 L30.6189668,2.08371041 L30.6189668,10.2807802 Z M28.016486,6.06822258 C27.2607407,6.06822258 26.8062785,6.64408404 26.8062785,7.48372605 C26.8062785,8.32461568 27.2607407,8.89976422 28.016486,8.89976422 C28.7734024,8.89976422 29.2266934,8.32461568 29.2266934,7.48372605 C29.2266934,6.64408404 28.7734024,6.06822258 28.016486,6.06822258 Z" id="Fill-6" fill="#1A1919"></path>
                        <path d="M43.0943967,0 L33.4505089,0 C32.9900555,0 32.615856,0.381152731 32.615856,0.851403752 L32.615856,10.955656 C32.615856,11.425907 32.9900555,11.8076923 33.4505089,11.8076923 L43.0943967,11.8076923 C43.5561491,11.8076923 43.9315611,11.425907 43.9315611,10.955656 L43.9315611,0.851403752 C43.9315611,0.381152731 43.5561491,0 43.0943967,0" id="Fill-7" fill="#0071A1"></path>
                        <path d="M34.9460486,2.08371041 C35.4967767,2.08371041 35.9440045,2.53324099 35.9440045,3.08705196 C35.9440045,3.64104148 35.4967767,4.09057207 34.9460486,4.09057207 C34.3930994,4.09057207 33.9471154,3.64104148 33.9471154,3.08705196 C33.9471154,2.53324099 34.3930994,2.08371041 34.9460486,2.08371041 Z M34.0841089,10.418552 L35.8073664,10.418552 L35.8073664,4.85124745 L34.0841089,4.85124745 L34.0841089,10.418552 Z" id="Fill-8" fill="#FFFFFE"></path>
                        <path d="M36.6096342,4.31884482 L38.2466771,4.31884482 L38.2466771,5.15265505 L38.2701175,5.15265505 C38.4978249,4.67314569 39.0553729,4.16742081 39.8862755,4.16742081 C41.6151415,4.16742081 41.9346719,5.43046136 41.9346719,7.07323576 L41.9346719,10.418552 L40.2273958,10.418552 L40.2273958,7.45228487 C40.2273958,6.74495477 40.2161162,5.83494345 39.3396546,5.83494345 C38.4509439,5.83494345 38.3154123,6.60585598 38.3154123,7.40161456 L38.3154123,10.418552 L36.6096342,10.418552 L36.6096342,4.31884482" id="Fill-9" fill="#FFFFFE"></path>
                    </g>
                </g>
                <path d="M7.702,15 L7.702,8.997 L10.114,8.997 C10.4140015,8.997 10.6809988,9.04499952 10.915,9.141 C11.1490012,9.23700048 11.3454992,9.36749917 11.5045,9.5325 C11.6635008,9.69750082 11.7849996,9.8894989 11.869,10.1085 C11.9530004,10.3275011 11.995,10.5599988 11.995,10.806 C11.995,11.0520012 11.9530004,11.2844989 11.869,11.5035 C11.7849996,11.7225011 11.6620008,11.9144992 11.5,12.0795 C11.3379992,12.2445008 11.1400012,12.3749995 10.906,12.471 C10.6719988,12.5670005 10.4080015,12.615 10.114,12.615 L8.449,12.615 L8.449,15 L7.702,15 Z M10.024,11.949 C10.3840018,11.949 10.6734989,11.844001 10.8925,11.634 C11.1115011,11.4239989 11.221,11.1480017 11.221,10.806 C11.221,10.4639983 11.1115011,10.1880011 10.8925,9.978 C10.6734989,9.76799895 10.3840018,9.663 10.024,9.663 L8.449,9.663 L8.449,11.949 L10.024,11.949 Z M12.958,15 L12.958,10.653 L13.633,10.653 L13.633,11.355 C13.8070009,11.1269989 14.0169988,10.9380008 14.263,10.788 C14.5090012,10.6379993 14.7819985,10.563 15.082,10.563 L15.082,11.256 C14.9979996,11.2379999 14.9080005,11.229 14.812,11.229 C14.7099995,11.229 14.6005006,11.2484998 14.4835,11.2875 C14.3664994,11.3265002 14.2525006,11.3789997 14.1415,11.445 C14.0304994,11.5110003 13.9300005,11.5844996 13.84,11.6655 C13.7499996,11.7465004 13.6810002,11.8319995 13.633,11.922 L13.633,15 L12.958,15 Z M17.827,15.108 C17.4969983,15.108 17.1985013,15.0480006 16.9315,14.928 C16.6644987,14.8079994 16.4380009,14.644501 16.252,14.4375 C16.0659991,14.230499 15.9235005,13.9890014 15.8245,13.713 C15.7254995,13.4369986 15.676,13.1400016 15.676,12.822 C15.676,12.5099984 15.7254995,12.2145014 15.8245,11.9355 C15.9235005,11.6564986 16.0659991,11.415001 16.252,11.211 C16.4380009,11.006999 16.6644987,10.8450006 16.9315,10.725 C17.1985013,10.6049994 17.4969983,10.545 17.827,10.545 C18.1570016,10.545 18.4554987,10.6049994 18.7225,10.725 C18.9895013,10.8450006 19.2159991,11.006999 19.402,11.211 C19.5880009,11.415001 19.7304995,11.6564986 19.8295,11.9355 C19.9285005,12.2145014 19.978,12.5099984 19.978,12.822 C19.978,13.1400016 19.9285005,13.4369986 19.8295,13.713 C19.7304995,13.9890014 19.5880009,14.230499 19.402,14.4375 C19.2159991,14.644501 18.9895013,14.8079994 18.7225,14.928 C18.4554987,15.0480006 18.1570016,15.108 17.827,15.108 Z M17.827,14.505 C18.0610012,14.505 18.2664991,14.4585005 18.4435,14.3655 C18.6205009,14.2724995 18.7704994,14.1495008 18.8935,13.9965 C19.0165006,13.8434992 19.1094997,13.665001 19.1725,13.461 C19.2355003,13.256999 19.267,13.0440011 19.267,12.822 C19.267,12.5999989 19.2355003,12.388501 19.1725,12.1875 C19.1094997,11.986499 19.0165006,11.8095008 18.8935,11.6565 C18.7704994,11.5034992 18.6205009,11.3805005 18.4435,11.2875 C18.2664991,11.1944995 18.0610012,11.148 17.827,11.148 C17.5929988,11.148 17.3860009,11.1944995 17.206,11.2875 C17.0259991,11.3805005 16.8745006,11.5034992 16.7515,11.6565 C16.6284994,11.8095008 16.5355003,11.986499 16.4725,12.1875 C16.4094997,12.388501 16.378,12.5999989 16.378,12.822 C16.378,13.0440011 16.4094997,13.256999 16.4725,13.461 C16.5355003,13.665001 16.6284994,13.8434992 16.7515,13.9965 C16.8745006,14.1495008 17.0259991,14.2724995 17.206,14.3655 C17.3860009,14.4585005 17.5929988,14.505 17.827,14.505 Z M21.265,15 L21.265,11.247 L20.545,11.247 L20.545,10.653 L21.265,10.653 L21.265,10.32 C21.265,9.86999775 21.3804988,9.52200123 21.6115,9.276 C21.8425012,9.02999877 22.1469981,8.907 22.525,8.907 C22.6510006,8.907 22.7709994,8.91899988 22.885,8.943 C22.9990006,8.96700012 23.0979996,9.00599973 23.182,9.06 L23.011,9.573 C22.9629998,9.54299985 22.9075003,9.5175001 22.8445,9.4965 C22.7814997,9.4754999 22.7080004,9.465 22.624,9.465 C22.4019989,9.465 22.2325006,9.53849927 22.1155,9.6855 C21.9984994,9.83250073 21.94,10.0439986 21.94,10.32 L21.94,10.653 L22.822,10.653 L22.822,11.247 L21.94,11.247 L21.94,15 L21.265,15 Z M23.956,10.032 C23.8359994,10.032 23.7310004,9.98850043 23.641,9.9015 C23.5509996,9.81449956 23.506,9.70800063 23.506,9.582 C23.506,9.45599937 23.5509996,9.34800045 23.641,9.258 C23.7310004,9.16799955 23.8359994,9.123 23.956,9.123 C24.0820006,9.123 24.1899995,9.16799955 24.28,9.258 C24.3700004,9.34800045 24.415,9.45599937 24.415,9.582 C24.415,9.70800063 24.3700004,9.81449956 24.28,9.9015 C24.1899995,9.98850043 24.0820006,10.032 23.956,10.032 Z M23.623,15 L23.623,10.653 L24.298,10.653 L24.298,15 L23.623,15 Z M25.657,15 L25.657,8.997 L26.332,8.997 L26.332,15 L25.657,15 Z M29.644,15.108 C29.3199984,15.108 29.0230013,15.0525006 28.753,14.9415 C28.4829986,14.8304994 28.250501,14.674501 28.0555,14.4735 C27.860499,14.272499 27.7075006,14.0325014 27.5965,13.7535 C27.4854994,13.4744986 27.43,13.1640017 27.43,12.822 C27.43,12.5099984 27.4839995,12.2145014 27.592,11.9355 C27.7000005,11.6564986 27.8484991,11.415001 28.0375,11.211 C28.2265009,11.006999 28.4514987,10.8450006 28.7125,10.725 C28.9735013,10.6049994 29.2599984,10.545 29.572,10.545 C29.9020016,10.545 30.1959987,10.6049994 30.454,10.725 C30.7120013,10.8450006 30.9309991,11.0099989 31.111,11.22 C31.2910009,11.430001 31.4274995,11.6774986 31.5205,11.9625 C31.6135005,12.2475014 31.66,12.5519984 31.66,12.876 L31.66,13.047 L28.141,13.047 C28.1530001,13.251001 28.1979996,13.4444991 28.276,13.6275 C28.3540004,13.8105009 28.4604993,13.9694993 28.5955,14.1045 C28.7305007,14.2395007 28.8909991,14.3474996 29.077,14.4285 C29.2630009,14.5095004 29.4729988,14.55 29.707,14.55 C29.9590013,14.55 30.2019988,14.5020005 30.436,14.406 C30.6700012,14.3099995 30.8739991,14.1750009 31.048,14.001 L31.372,14.442 C31.1559989,14.6580011 30.9040014,14.8229994 30.616,14.937 C30.3279986,15.0510006 30.0040018,15.108 29.644,15.108 Z M30.994,12.552 C30.994,12.3899992 30.9655003,12.2235009 30.9085,12.0525 C30.8514997,11.8814991 30.7645006,11.7255007 30.6475,11.5845 C30.5304994,11.4434993 30.3820009,11.3280004 30.202,11.238 C30.0219991,11.1479995 29.8090012,11.103 29.563,11.103 C29.3289988,11.103 29.1250009,11.1479995 28.951,11.238 C28.7769991,11.3280004 28.6315006,11.4419993 28.5145,11.58 C28.3974994,11.7180007 28.3075003,11.8724991 28.2445,12.0435 C28.1814997,12.2145009 28.147,12.3839992 28.141,12.552 L30.994,12.552 Z M36.97,15.108 C36.6399984,15.108 36.3415013,15.0480006 36.0745,14.928 C35.8074987,14.8079994 35.5810009,14.644501 35.395,14.4375 C35.2089991,14.230499 35.0665005,13.9890014 34.9675,13.713 C34.8684995,13.4369986 34.819,13.1400016 34.819,12.822 C34.819,12.5099984 34.8684995,12.2145014 34.9675,11.9355 C35.0665005,11.6564986 35.2089991,11.415001 35.395,11.211 C35.5810009,11.006999 35.8074987,10.8450006 36.0745,10.725 C36.3415013,10.6049994 36.6399984,10.545 36.97,10.545 C37.3000017,10.545 37.5984987,10.6049994 37.8655,10.725 C38.1325013,10.8450006 38.3589991,11.006999 38.545,11.211 C38.7310009,11.415001 38.8734995,11.6564986 38.9725,11.9355 C39.0715005,12.2145014 39.121,12.5099984 39.121,12.822 C39.121,13.1400016 39.0715005,13.4369986 38.9725,13.713 C38.8734995,13.9890014 38.7310009,14.230499 38.545,14.4375 C38.3589991,14.644501 38.1325013,14.8079994 37.8655,14.928 C37.5984987,15.0480006 37.3000017,15.108 36.97,15.108 Z M36.97,14.505 C37.2040012,14.505 37.4094991,14.4585005 37.5865,14.3655 C37.7635009,14.2724995 37.9134994,14.1495008 38.0365,13.9965 C38.1595006,13.8434992 38.2524997,13.665001 38.3155,13.461 C38.3785003,13.256999 38.41,13.0440011 38.41,12.822 C38.41,12.5999989 38.3785003,12.388501 38.3155,12.1875 C38.2524997,11.986499 38.1595006,11.8095008 38.0365,11.6565 C37.9134994,11.5034992 37.7635009,11.3805005 37.5865,11.2875 C37.4094991,11.1944995 37.2040012,11.148 36.97,11.148 C36.7359988,11.148 36.5290009,11.1944995 36.349,11.2875 C36.1689991,11.3805005 36.0175006,11.5034992 35.8945,11.6565 C35.7714994,11.8095008 35.6785003,11.986499 35.6155,12.1875 C35.5524997,12.388501 35.521,12.5999989 35.521,12.822 C35.521,13.0440011 35.5524997,13.256999 35.6155,13.461 C35.6785003,13.665001 35.7714994,13.8434992 35.8945,13.9965 C36.0175006,14.1495008 36.1689991,14.2724995 36.349,14.3655 C36.5290009,14.4585005 36.7359988,14.505 36.97,14.505 Z M43.153,15 L43.153,12.156 C43.153,11.7719981 43.0645009,11.5080007 42.8875,11.364 C42.7104991,11.2199993 42.4750015,11.148 42.181,11.148 C42.0489993,11.148 41.9200006,11.1659998 41.794,11.202 C41.6679994,11.2380002 41.5480006,11.2874997 41.434,11.3505 C41.3199994,11.4135003 41.2165005,11.4854996 41.1235,11.5665 C41.0304995,11.6475004 40.9540003,11.7329995 40.894,11.823 L40.894,15 L40.219,15 L40.219,10.653 L40.894,10.653 L40.894,11.283 C40.9720004,11.1929995 41.0649995,11.1045004 41.173,11.0175 C41.2810005,10.9304996 41.4024993,10.8510004 41.5375,10.779 C41.6725007,10.7069996 41.8164992,10.6500002 41.9695,10.608 C42.1225008,10.5659998 42.2799992,10.545 42.442,10.545 C43.3660046,10.545 43.828,11.0129953 43.828,11.949 L43.828,15 L43.153,15 Z" id="Profile-on" fill="#828282"></path>
            </g>
        </g>
    </g>
</svg>