<svg xmlns="http://www.w3.org/2000/svg" xmlns:xlink="http://www.w3.org/1999/xlink" viewBox="0 0 1920 914"><defs><style>.a{fill:#fff;stroke:#707070;}.b{clip-path:url(#a);}.c{fill:#348ffc;}.d{clip-path:url(#b);}.e{fill:#3287ed;}.f{clip-path:url(#c);}</style><clipPath id="a"><rect class="a" width="1920" height="914" transform="translate(1942 -3727)"/></clipPath><clipPath id="b"><rect class="a" width="1645.305" height="601.231" transform="translate(168 723)"/></clipPath><clipPath id="c"><rect class="a" width="1521.094" height="567.369" transform="translate(168 723)"/></clipPath></defs><g class="b" transform="translate(-1942 3727)"><g transform="translate(0 -612)"><rect class="c" width="1920" height="914" transform="translate(1942 -3115)"/><g class="d" transform="translate(3523 -1789.769) rotate(180)"><rect class="e" width="1565.572" height="564.597" rx="282.299" transform="translate(149.289 1198.222) rotate(-20)"/></g><g class="f" transform="translate(2350.425 -3490.369)"><path class="e" d="M262.077,3.283,1188.063,0c144.229-.511,260.736,118.272,260.224,265.31s-117.846,266.65-262.076,267.161l-925.986,3.282C116,536.266-.509,417.483,0,270.445S117.848,3.795,262.077,3.283Z" transform="matrix(0.985, -0.174, 0.174, 0.985, 186.279, 1120.907)"/></g></g></g></svg>