<svg xmlns="http://www.w3.org/2000/svg" viewBox="0 0 109.729 94.286">
  <defs>
    <style>
      .cls-1 {
        fill: #e4f4ec;
      }

      .cls-2 {
        fill: #bdead3;
      }

      .cls-3 {
        fill: #21c16c;
      }

      .cls-4 {
        fill: #fff;
      }
    </style>
  </defs>
  <g id="Group_389" data-name="Group 389" transform="translate(-566 -1286.66)">
    <g id="maintenance" transform="translate(566 1250.634)">
      <path id="Path_126" data-name="Path 126" class="cls-1" d="M109.729,40.408v87.9a2,2,0,0,1-2,2H2a2,2,0,0,1-2-2V40.405a4.379,4.379,0,0,1,4.379-4.379H105.35A4.382,4.382,0,0,1,109.729,40.408Z"/>
      <g id="Group_224" data-name="Group 224" transform="translate(0 36.026)">
        <path id="Path_129" data-name="Path 129" class="cls-2" d="M109.729,40.408V56.069H0V40.408a4.381,4.381,0,0,1,4.379-4.382H105.35A4.382,4.382,0,0,1,109.729,40.408Z" transform="translate(0 -36.026)"/>
      </g>
      <path id="Path_130" data-name="Path 130" class="cls-3" d="M109.731,52.568H0V40.409a4.38,4.38,0,0,1,4.38-4.38H105.351a4.38,4.38,0,0,1,4.38,4.38Z" transform="translate(-0.002 -0.002)"/>
      <path id="Path_131" data-name="Path 131" class="cls-4" d="M121.669,71.628H62.6a1.656,1.656,0,1,1,0-3.312h59.067a1.656,1.656,0,0,1,0,3.312Z" transform="translate(-47.885 -25.37)"/>
      <path id="Path_132" data-name="Path 132" class="cls-4" d="M375.574,69.817a1.656,1.656,0,0,1-1.656-1.656v-.288a1.656,1.656,0,0,1,3.312,0v.288A1.656,1.656,0,0,1,375.574,69.817Z" transform="translate(-293.782 -23.721)"/>
      <path id="Path_133" data-name="Path 133" class="cls-4" d="M406.415,69.817a1.656,1.656,0,0,1-1.656-1.656v-.288a1.656,1.656,0,1,1,3.312,0v.288A1.656,1.656,0,0,1,406.415,69.817Z" transform="translate(-318.013 -23.721)"/>
      <path id="Path_134" data-name="Path 134" class="cls-4" d="M437.257,69.817a1.656,1.656,0,0,1-1.656-1.656v-.288a1.656,1.656,0,0,1,3.312,0v.288A1.656,1.656,0,0,1,437.257,69.817Z" transform="translate(-342.245 -23.721)"/>
    </g>
    <g id="repair" transform="translate(556.318 1315.555)">
      <g id="Group_249" data-name="Group 249" transform="translate(42.682 0)">
        <g id="Group_248" data-name="Group 248" transform="translate(0 0)">
          <path id="Path_144" data-name="Path 144" class="cls-3" d="M84.72,31.833v-.082a3.294,3.294,0,0,0-3.291-3.29H72.04l.611-13.668a.756.756,0,0,0-.441-.721A6.923,6.923,0,0,1,71.2,2.037V6.7a1.951,1.951,0,0,0,1.949,1.948H77.01A1.951,1.951,0,0,0,78.959,6.7V2.037a6.924,6.924,0,0,1-1.148,12.1.756.756,0,0,0-.456.733l.531,10.311A.756.756,0,0,0,79.4,25.1l-.505-9.8A8.436,8.436,0,0,0,78.511.065a.756.756,0,0,0-1.063.69V6.7a.438.438,0,0,1-.437.437H73.153a.438.438,0,0,1-.437-.437V.756a.756.756,0,0,0-1.063-.69,8.434,8.434,0,0,0-.534,15.152l-.026,1.626a3.073,3.073,0,0,0-4.1.248,3.009,3.009,0,0,0-.821,2.045.629.629,0,0,1-.034.19,21.771,21.771,0,0,1-1.977,4.345.756.756,0,0,0,1.3.776A23.288,23.288,0,0,0,67.578,19.8a2.137,2.137,0,0,0,.11-.645,1.449,1.449,0,0,1,1.465-1.466h.034a1.57,1.57,0,0,1,1.567,1.57c0,.337,0,.649,0,.944,0,.474.007.884,0,1.289-.021,1.2-.075,2.268-.126,3.3-.067,1.342-.137,2.73-.137,4.422a.756.756,0,0,0,.756.756H81.429a1.781,1.781,0,0,1,1.779,1.779v.082a1.781,1.781,0,0,1-1.779,1.779H79.235a.756.756,0,0,0,0,1.511h2.194A1.781,1.781,0,0,1,83.209,36.9v.017A1.781,1.781,0,0,1,81.429,38.7H79.235a.756.756,0,1,0,0,1.511h2.194a1.781,1.781,0,0,1,1.779,1.779v.1a1.781,1.781,0,0,1-1.779,1.779H79.235a.756.756,0,1,0,0,1.511h2.194a1.779,1.779,0,0,1,0,3.558H63.394a6.8,6.8,0,0,1-4.741-1.913l-.758-.731V31.823a19.925,19.925,0,0,0,4.5-3.4.756.756,0,1,0-1.074-1.064,18.3,18.3,0,0,1-3.492,2.758,2.208,2.208,0,0,0-2.134-1.653H43.438a.756.756,0,0,0-.756.756V49.694a.756.756,0,0,0,.756.756H55.691a2.207,2.207,0,0,0,2.2-2.073,8.3,8.3,0,0,0,5.5,2.073H81.43a3.289,3.289,0,0,0,2.1-5.825,3.285,3.285,0,0,0,1.195-2.535v-.1a3.286,3.286,0,0,0-1.195-2.535A3.285,3.285,0,0,0,84.72,36.92V36.9a3.285,3.285,0,0,0-1.195-2.535A3.286,3.286,0,0,0,84.72,31.833Zm-28.337-.47V48.245a.694.694,0,0,1-.693.693h-11.5V29.972h11.5a.693.693,0,0,1,.693.693v.7Z" transform="translate(-42.682 0)"/>
        </g>
      </g>
      <g id="Group_251" data-name="Group 251" transform="translate(50.944 32.811)">
        <g id="Group_250" data-name="Group 250" transform="translate(0)">
          <circle id="Ellipse_61" data-name="Ellipse 61" class="cls-3" cx="1.058" cy="1.058" r="1.058"/>
        </g>
      </g>
    </g>
  </g>
</svg>
