<svg xmlns="http://www.w3.org/2000/svg" viewBox="0 0 105 105">
  <defs>
    <style>
      .cls-1 {
        fill: #bbdefb;
      }

      .cls-2 {
        fill: #0f71d3;
      }

      .cls-3 {
        fill: #348ffc;
      }
    </style>
  </defs>
  <g id="Group_1404" data-name="Group 1404" transform="translate(-1340 -2738)">
    <g id="Group_1389" data-name="Group 1389" transform="translate(126 244)">
      <circle id="Ellipse_83" data-name="Ellipse 83" class="cls-1" cx="52.5" cy="52.5" r="52.5" transform="translate(1214 2494)"/>
    </g>
    <g id="Group_1401" data-name="Group 1401" transform="translate(1353 2750.347)">
      <g id="Group_1400" data-name="Group 1400">
        <path id="Path_969" data-name="Path 969" class="cls-2" d="M67.665,45.975H78.279a1.326,1.326,0,0,0,1.327-1.327V34.034a1.326,1.326,0,0,0-1.327-1.327H67.665a1.326,1.326,0,0,0-1.327,1.327v3.98H61.031a1.329,1.329,0,0,0-.85.308L52.888,44.4,41.13,38.521V30.054h3.98a1.326,1.326,0,0,0,1.327-1.327V18.113a1.326,1.326,0,0,0-1.327-1.327H34.5a1.326,1.326,0,0,0-1.327,1.327V28.727A1.326,1.326,0,0,0,34.5,30.054h3.98v8.467L26.718,44.4l-7.293-6.078a1.329,1.329,0,0,0-.85-.308H13.268v-3.98a1.326,1.326,0,0,0-1.327-1.327H1.327A1.326,1.326,0,0,0,0,34.034V44.648a1.326,1.326,0,0,0,1.327,1.327H11.941a1.326,1.326,0,0,0,1.327-1.327v-3.98h4.827L25.209,46.6v13.35l-7.114,5.929H13.268V61.9a1.326,1.326,0,0,0-1.327-1.327H1.327A1.326,1.326,0,0,0,0,61.9V72.51a1.326,1.326,0,0,0,1.327,1.327H11.941a1.326,1.326,0,0,0,1.327-1.327V68.53h5.307a1.329,1.329,0,0,0,.85-.308l7.293-6.078,11.758,5.879v9.794H34.5a1.326,1.326,0,0,0-1.327,1.327V89.758A1.326,1.326,0,0,0,34.5,91.085H45.11a1.326,1.326,0,0,0,1.327-1.327V79.144a1.326,1.326,0,0,0-1.327-1.327H41.13V68.023l11.758-5.879,7.293,6.078a1.329,1.329,0,0,0,.85.308h5.307v3.98a1.326,1.326,0,0,0,1.327,1.327H78.28a1.326,1.326,0,0,0,1.327-1.327V61.9a1.326,1.326,0,0,0-1.327-1.327H67.665A1.326,1.326,0,0,0,66.339,61.9v3.98H61.512L54.4,59.947V46.6l7.114-5.929h4.827v3.98A1.326,1.326,0,0,0,67.665,45.975ZM38.476,65.056,27.862,59.749V47.934l5.307,2.123,5.307,2.123Zm13.268-5.307L41.13,65.056V52.18l5.307-2.123,5.307-2.123Z" transform="translate(0 -14.133)"/>
      </g>
    </g>
    <g id="Group_1402" data-name="Group 1402" transform="translate(1353 2750.347)">
      <g id="Group_1400-2" data-name="Group 1400">
        <path id="Path_969-2" data-name="Path 969" class="cls-3" d="M67.665,45.975H78.279a1.326,1.326,0,0,0,1.327-1.327V34.034a1.326,1.326,0,0,0-1.327-1.327H67.665a1.326,1.326,0,0,0-1.327,1.327c.1-.046-.152,11.185,0,10.614A1.326,1.326,0,0,0,67.665,45.975Z" transform="translate(0 -14.133)"/>
      </g>
    </g>
    <g id="Group_1403" data-name="Group 1403" transform="translate(1286.712 2778.06)">
      <g id="Group_1400-3" data-name="Group 1400" transform="translate(66.288 18.575)">
        <path id="Path_969-3" data-name="Path 969" class="cls-3" d="M67.7,46.262H78.539a1.355,1.355,0,0,0,1.355-1.355V34.063a1.355,1.355,0,0,0-1.355-1.355H67.7a1.355,1.355,0,0,0-1.355,1.355c.1-.047-.155,11.427,0,10.844A1.355,1.355,0,0,0,67.7,46.262Z" transform="translate(-66.288 -32.707)"/>
      </g>
    </g>
  </g>
</svg>
