<svg xmlns="http://www.w3.org/2000/svg" viewBox="0 0 100 100.035"><defs><style>.a{fill:#0f71d3;}.b{fill:#348ffc;}.c{fill:#fff;}.d{fill:#bbdefb;}</style></defs><g transform="translate(-910 -2729)"><g transform="translate(909.91 2729)"><path class="a" d="M100.09,289.846a12.542,12.542,0,0,1-5.627,10.42H5.684a12.5,12.5,0,0,1,6.877-22.924H87.586A12.542,12.542,0,0,1,100.09,289.846Z" transform="translate(0 -223.155)"/><path class="b" d="M100.1,405.1a12.542,12.542,0,0,1-12.5,12.5H12.566a12.5,12.5,0,0,1-6.877-22.924H94.469A12.542,12.542,0,0,1,100.1,405.1Z" transform="translate(-0.006 -317.564)"/><path class="c" d="M66.43,452.177a2.084,2.084,0,0,1-.042-4.168h.042a2.084,2.084,0,0,1,0,4.168Z" transform="translate(-51.702 -360.478)"/><path class="c" d="M430.755,435.013a4.168,4.168,0,1,1,4.168-4.168A4.168,4.168,0,0,1,430.755,435.013Z" transform="translate(-343.169 -343.313)"/><g transform="translate(12.644 66.691)"><path class="c" d="M109.1,452.177a2.084,2.084,0,0,1-.042-4.168h.042a2.084,2.084,0,0,1,0,4.168Z" transform="translate(-98.677 -427.169)"/><path class="c" d="M66.43,345.51a2.084,2.084,0,0,1-.042-4.168h.042a2.084,2.084,0,0,1,0,4.168Z" transform="translate(-64.346 -341.342)"/></g><path class="c" d="M430.755,328.346a4.168,4.168,0,1,1,4.168-4.168A4.168,4.168,0,0,1,430.755,328.346Z" transform="translate(-343.169 -257.487)"/><path class="c" d="M109.1,345.51a2.084,2.084,0,0,1-.042-4.168h.042a2.084,2.084,0,0,1,0,4.168Z" transform="translate(-86.033 -274.651)"/><path class="d" d="M114.6,15.287A25.817,25.817,0,0,0,90.873,0a25.508,25.508,0,0,0-25.7,23.066,13.7,13.7,0,0,0-11.925,13.4,13.755,13.755,0,0,0,13.93,13.546h47.382a17.648,17.648,0,0,0,17.881-17.368A17.647,17.647,0,0,0,114.6,15.287Z" transform="translate(-42.775 0)"/></g></g></svg>