<svg xmlns="http://www.w3.org/2000/svg" viewBox="0 0 146 80.104"><defs><style>.a{fill:#bbdefb;}.b{fill:#348ffc;}</style></defs><g transform="translate(-887 -2201)"><g transform="translate(-9 -132.263)"><ellipse class="a" cx="22.07" cy="22.07" rx="22.07" ry="22.07" transform="translate(896 2351.075)"/><ellipse class="a" cx="22.07" cy="22.07" rx="22.07" ry="22.07" transform="translate(997.861 2351.075)"/><g transform="translate(906.383 2333.263)"><path class="b" d="M121.852,46.572a9.945,9.945,0,0,0-9.388,6.763L93.736,25.988a9.915,9.915,0,0,0-19.748-.8H65.5a9.915,9.915,0,0,0-19.748.8L27.02,53.332a9.959,9.959,0,1,0,0,6.4L45.748,87.076a9.915,9.915,0,0,0,19.748.8h8.49a9.915,9.915,0,0,0,19.748-.8l18.728-27.346a9.94,9.94,0,1,0,9.388-13.156ZM69.742,75.3l3.6,10.078h-7.19ZM69.68,37.946,66.132,27.691H73.34ZM66.147,55.282l3.5-9.8,3.39,9.8Zm7.19,2.5-3.6,10.078-3.6-10.078Zm20.316-2.5A9.919,9.919,0,0,0,74.72,52.517l-3.738-10.8L74.89,30.771A9.894,9.894,0,0,0,93.2,29.638l17.566,25.644ZM55.664,36.4a9.941,9.941,0,0,0,8.9-5.583l3.77,10.893L64.594,52.2a9.9,9.9,0,0,0-18.763,3.078H28.715L46.276,29.641A9.945,9.945,0,0,0,55.664,36.4ZM45.831,57.782A9.9,9.9,0,0,0,64.594,60.86l3.823,10.716L64.594,82.293a9.895,9.895,0,0,0-18.316,1.13L28.715,57.782ZM83.823,76.663A9.938,9.938,0,0,0,74.895,82.3L71.072,71.578l3.823-10.716a9.9,9.9,0,0,0,18.761-3.078h17.116L93.211,83.428A9.943,9.943,0,0,0,83.823,76.663Z" transform="translate(-7.674 -16.48)"/></g></g></g></svg>