<svg xmlns="http://www.w3.org/2000/svg" viewBox="0 0 122.311 105.097"><defs><style>.a{fill:#bbdefb;}.b{fill:#348ffc;}.c{fill:#0f71d3;}</style></defs><g transform="translate(-1322.9 -2459)"><g transform="translate(1227.945 2341.379)"><path class="a" d="M217.266,122.5v97.981a2.231,2.231,0,0,1-2.232,2.232H97.187a2.231,2.231,0,0,1-2.232-2.232V122.5a4.882,4.882,0,0,1,4.879-4.883H212.382A4.885,4.885,0,0,1,217.266,122.5Z"/><path class="a" d="M217.266,122.5v19.425H94.955V122.5a4.882,4.882,0,0,1,4.879-4.883H212.382A4.885,4.885,0,0,1,217.266,122.5Z"/><path class="b" d="M217.264,136.057H94.955V122.5a4.882,4.882,0,0,1,4.882-4.882H212.382a4.882,4.882,0,0,1,4.882,4.882v13.553Z" transform="translate(0 -0.001)"/><path class="a" d="M192.439,140.936H133.362a2.934,2.934,0,1,1,0-5.868h59.077a2.934,2.934,0,1,1,0,5.868Z" transform="translate(-22.002 -10.822)"/><path class="a" d="M321.623,139.936A2.934,2.934,0,0,1,318.689,137v-.32a2.934,2.934,0,1,1,5.868,0V137A2.934,2.934,0,0,1,321.623,139.936Z" transform="translate(-138.773 -10.003)"/><path class="a" d="M345.336,139.936A2.934,2.934,0,0,1,342.4,137v-.32a2.934,2.934,0,0,1,5.868,0V137A2.934,2.934,0,0,1,345.336,139.936Z" transform="translate(-153.481 -10.003)"/><path class="a" d="M369.049,139.936A2.934,2.934,0,0,1,366.115,137v-.32a2.934,2.934,0,1,1,5.868,0V137A2.934,2.934,0,0,1,369.049,139.936Z" transform="translate(-168.189 -10.003)"/><g transform="translate(111.937 162.41)"><path class="c" d="M155.656,267.528a2.925,2.925,0,0,1-2.075-.859l-13.046-13.046a2.934,2.934,0,0,1,0-4.149l13.046-13.046a2.934,2.934,0,0,1,4.149,4.149l-10.971,10.971L157.73,262.52a2.934,2.934,0,0,1-2.075,5.008Z" transform="translate(-139.676 -235.568)"/><path class="c" d="M325.451,267.528a2.934,2.934,0,0,1-2.075-5.009l10.971-10.971-10.971-10.971a2.934,2.934,0,1,1,4.149-4.149l13.046,13.046a2.934,2.934,0,0,1,0,4.149l-13.046,13.046A2.925,2.925,0,0,1,325.451,267.528Z" transform="translate(-253.084 -235.567)"/><path class="c" d="M206.1,270.358a2.935,2.935,0,0,1-2.586-4.317l13.01-24.359a2.934,2.934,0,1,1,5.176,2.764l-13.01,24.359A2.933,2.933,0,0,1,206.1,270.358Z" transform="translate(-179.06 -238.398)"/><path class="c" d="M249.024,308.813a2.934,2.934,0,0,1-2.934-2.934v-.3a2.934,2.934,0,1,1,5.868,0v.3A2.934,2.934,0,0,1,249.024,308.813Z" transform="translate(-205.68 -277.175)"/><path class="c" d="M274.189,308.813a2.934,2.934,0,0,1-2.934-2.934v-.3a2.934,2.934,0,1,1,5.868,0v.3A2.933,2.933,0,0,1,274.189,308.813Z" transform="translate(-221.289 -277.175)"/><path class="c" d="M299.354,308.813a2.934,2.934,0,0,1-2.934-2.934v-.3a2.934,2.934,0,1,1,5.868,0v.3A2.934,2.934,0,0,1,299.354,308.813Z" transform="translate(-236.898 -277.175)"/></g></g></g></svg>