<?xml version="1.0" encoding="UTF-8"?>
<svg width="34px" height="34px" viewBox="0 0 34 34" version="1.1" xmlns="http://www.w3.org/2000/svg" xmlns:xlink="http://www.w3.org/1999/xlink">
    <!-- Generator: Sketch 48.2 (47327) - http://www.bohemiancoding.com/sketch -->
    <title>Group 21</title>
    <desc>Created with Sketch.</desc>
    <defs></defs>
    <g id="Botjet-Features" stroke="none" stroke-width="1" fill="none" fill-rule="evenodd" transform="translate(-1199.000000, -7242.000000)">
        <g id="Group-21" transform="translate(1199.000000, 7242.000000)">
            <path d="M34,17 C34,26.3884668 26.3884668,34 17,34 C7.61153323,34 0,26.3884668 0,17 C0,7.61153323 7.61153323,0 17,0 C26.3884668,0 34,7.61153323 34,17 Z" id="Fill-1" fill="#3B5998"></path>
            <path d="M21.9653846,18.2411538 L18.8853846,18.2411538 L18.8853846,29.5242308 L14.2192308,29.5242308 L14.2192308,18.2411538 L12,18.2411538 L12,14.2746154 L14.2192308,14.2746154 L14.2192308,11.7088462 C14.2192308,9.87423077 15.0903846,7 18.9276923,7 L22.3830769,7.015 L22.3830769,10.8642308 L19.8757692,10.8642308 C19.4638462,10.8642308 18.8853846,11.07 18.8853846,11.9446154 L18.8853846,14.2792308 L22.3742308,14.2792308 L21.9653846,18.2411538 Z" id="Fill-2" fill="#FFFFFF"></path>
        </g>
    </g>
</svg>