<?xml version="1.0" encoding="UTF-8"?>
<svg width="34px" height="34px" viewBox="0 0 34 34" version="1.1" xmlns="http://www.w3.org/2000/svg" xmlns:xlink="http://www.w3.org/1999/xlink">
    <!-- Generator: Sketch 48.2 (47327) - http://www.bohemiancoding.com/sketch -->
    <title>Group 20</title>
    <desc>Created with Sketch.</desc>
    <defs></defs>
    <g id="Botjet-Features" stroke="none" stroke-width="1" fill="none" fill-rule="evenodd" transform="translate(-1199.000000, -7296.000000)">
        <g id="Group-20" transform="translate(1199.000000, 7296.000000)">
            <path d="M33.535956,16.767978 C33.535956,26.0283077 26.0283077,33.535956 16.767978,33.535956 C7.50764835,33.535956 0,26.0283077 0,16.767978 C0,7.50764835 7.50764835,0 16.767978,0 C26.0283077,0 33.535956,7.50764835 33.535956,16.767978 Z" id="Fill-1-Copy" fill="#979797"></path>
            <path d="M21.3378022,16.7485495 L18.3458022,16.7485495 L18.3458022,27.7092527 L13.812967,27.7092527 L13.812967,16.7485495 L11.6571429,16.7485495 L11.6571429,12.8953407 L13.812967,12.8953407 L13.812967,10.4028791 C13.812967,8.62068132 14.6592308,5.82857143 18.3869011,5.82857143 L21.7435604,5.84314286 L21.7435604,9.5823956 L19.3078901,9.5823956 C18.9077363,9.5823956 18.3458022,9.78228571 18.3458022,10.6319121 L18.3458022,12.8998242 L21.734967,12.8998242 L21.3378022,16.7485495 Z" id="Fill-2-Copy" fill="#E1E1E1"></path>
        </g>
    </g>
</svg>