<svg xmlns="http://www.w3.org/2000/svg" xmlns:xlink="http://www.w3.org/1999/xlink" viewBox="0 0 176.921 46"><defs><style>.a,.e{fill:#fafafa;}.a,.b{clip-rule:evenodd;}.b,.c,.m{fill:none;}.c,.m{fill-rule:evenodd;}.d{clip-path:url(#a);}.f{clip-path:url(#b);}.g{clip-path:url(#c);}.h{opacity:0;}.i{fill:url(#e);}.j{fill:#348ffc;}.k{clip-path:url(#f);}.l{fill:#fff;}.m{stroke:#36414c;stroke-width:2px;}</style><clipPath id="a"><path class="a" d="M4.834-24.13q0,4.543,1.658,6.879,2.046,2.933,6.839,2.933t6.839-2.933Q21.8-19.587,21.8-24.13q0-4.595-1.554-6.879-1.969-2.933-6.735-2.933c-4.421,0-8.678,3.816-8.678,7.417Zm0-8.529c2.447-3.567,5.129-4.866,9.377-4.866q11.424,0,11.424,13.4t-12.3,13.4Q1-10.735,1-24.13V-47H2.917a1.84,1.84,0,0,1,1.347.571,1.848,1.848,0,0,1,.57,1.35Zm38.1-1.258q-4.792,0-6.839,2.907-1.658,2.336-1.658,6.879T36.1-17.225q2.046,2.907,6.839,2.907t6.839-2.907q1.632-2.362,1.632-6.905t-1.632-6.879Q47.73-33.916,42.938-33.916Zm0-3.608q12.3,0,12.3,13.4t-12.3,13.4q-12.33,0-12.33-13.4T42.938-37.525Zm18.133,3.946a1.84,1.84,0,0,1-1.347-.571,1.793,1.793,0,0,1-.57-1.35v-1.713H62.91v-5.114a1.793,1.793,0,0,1,.57-1.35,1.84,1.84,0,0,1,1.347-.571h1.917v7.035h7.043a1.84,1.84,0,0,1,1.347.571,1.848,1.848,0,0,1,.57,1.35v1.713h-8.96V-19.9q0,3.323,1.761,4.569a8.683,8.683,0,0,0,4.818,1.012,19.9,19.9,0,0,0,2.953-.234q1.813,0,1.813,1.4v1.921a22.483,22.483,0,0,1-4.766.493q-5.362,0-7.719-1.843-2.694-2.1-2.694-7.321V-33.579ZM85.912-10.112q0,4.7-2.15,6.853Q81.846-1.337,77.675-1a1.781,1.781,0,0,1-1.269-.519,1.788,1.788,0,0,1-.518-1.272V-4.5a7.57,7.57,0,0,0,4.43-1.038q1.761-1.246,1.761-4.569V-35.292a1.793,1.793,0,0,1,.57-1.35A1.84,1.84,0,0,1,84-37.213h1.917ZM82.079-45.079a1.848,1.848,0,0,1,.57-1.35A1.84,1.84,0,0,1,84-47h1.917v2.881a1.848,1.848,0,0,1-.57,1.35A1.786,1.786,0,0,1,84-42.2H82.079ZM110.34-26.051q-.311-4.05-1.451-5.633-1.632-2.258-5.647-2.258-4.067,0-5.906,2.207Q95.885-30,95.6-26.051Zm-6.321,15.316q-12.33,0-12.33-13.4t11.553-13.4q6.269,0,8.885,3.868,2.124,3.141,2.124,9.5,0,1.739-1.917,1.739H95.626q.207,8.1,8.393,8.1a23.985,23.985,0,0,0,8.341-1.558,3.134,3.134,0,0,1,.829-.13q.855,0,.855.96v1.973A19.238,19.238,0,0,1,104.019-10.735ZM119.9-33.579a1.84,1.84,0,0,1-1.347-.571,1.793,1.793,0,0,1-.57-1.35v-1.713h3.756v-5.114a1.793,1.793,0,0,1,.57-1.35,1.84,1.84,0,0,1,1.347-.571h1.917v7.035h7.043a1.84,1.84,0,0,1,1.347.571,1.848,1.848,0,0,1,.57,1.35v1.713h-8.96V-19.9q0,3.323,1.761,4.569a8.682,8.682,0,0,0,4.818,1.012,19.9,19.9,0,0,0,2.953-.234q1.813,0,1.813,1.4v1.921a22.483,22.483,0,0,1-4.766.493q-5.362,0-7.719-1.843-2.694-2.1-2.694-7.321V-33.579Z"/></clipPath><clipPath id="b"><path class="a" d="M163.756-23.269q0-4.515-1.628-6.837-2.042-2.916-6.824-2.916t-6.824,2.916q-1.654,2.322-1.654,6.837,0,4.567,1.551,6.837,1.964,2.916,6.72,2.916,6.643,0,8.659-5.754Zm0,9c-1.266,2.649-5.1,4.318-9.357,4.318q-11.4,0-11.4-13.314t12.3-13.314q12.278,0,12.278,13.314v13h-1.913a1.839,1.839,0,0,1-1.344-.568,1.779,1.779,0,0,1-.569-1.342ZM174.1-34.363a1.779,1.779,0,0,1,.569-1.342,1.84,1.84,0,0,1,1.344-.568h1.913v24.1a1.779,1.779,0,0,1-.569,1.342,1.839,1.839,0,0,1-1.344.568H174.1Zm0-9.727a1.833,1.833,0,0,1,.569-1.342A1.84,1.84,0,0,1,176.008-46h1.913v2.864a1.833,1.833,0,0,1-.569,1.342,1.839,1.839,0,0,1-1.344.568H174.1Z"/></clipPath><clipPath id="c"><path class="b" d="M142-4.946a10.014,10.014,0,0,0,10-10.027A10.014,10.014,0,0,0,142-25a10.014,10.014,0,0,0-10,10.027A10.014,10.014,0,0,0,142-4.946Z"/></clipPath><linearGradient id="e" x1="0.737" y1="0.479" x2="0.737" y2="21.813" gradientUnits="objectBoundingBox"><stop offset="0"/><stop offset="0" stop-color="#fc3832"/><stop offset="0.1" stop-color="#fb452f"/><stop offset="0.2" stop-color="#fa532c"/><stop offset="0.3" stop-color="#f96129"/><stop offset="0.4" stop-color="#f86f26"/><stop offset="0.5" stop-color="#f77d23"/><stop offset="0.6" stop-color="#f68b20"/><stop offset="0.7" stop-color="#f5991d"/><stop offset="0.8" stop-color="#f4a71a"/><stop offset="0.9" stop-color="#f3b517"/><stop offset="1" stop-color="#f2c314"/><stop offset="1"/></linearGradient><clipPath id="f"><path class="b" d="M143.632-13.89a1.823,1.823,0,0,1,.192.38.137.137,0,0,1-.059.161q-.067.055-1.769.8a.2.2,0,0,1-.23-.018c-.073-.095-.147-.2-.219-.311l-1.645.8.161.33-.156.076-.806-1.652a1.2,1.2,0,0,1-.091-.243c-.017-.072-.014-.114.008-.125s.058.013.1.071a1.2,1.2,0,0,1,.135.222l.174.356.929-2.224c-.574-1.19-1.129-2.428-.726-3.626a.166.166,0,0,1,.227-.1,4.74,4.74,0,0,1,2.278,2.43l-.011-.077.161.33,2.458.674-.174-.356a1.2,1.2,0,0,1-.091-.243c-.017-.072-.014-.114.008-.125s.057.013.1.071a1.2,1.2,0,0,1,.135.222l.806,1.652-.156.076-.161-.33Zm.507,3.341a.053.053,0,0,1-.051.017,1.259,1.259,0,0,1-.707-.429,2.106,2.106,0,0,1-.245-.441c-.176.122-.1.418-.1.421a.05.05,0,0,1-.01.044.053.053,0,0,1-.043.019c-.012,0-.3-.016-.512-.475-.008-.015-.014-.031-.021-.046a.91.91,0,0,1,.505-1.182.911.911,0,0,1,1.2.458c.01.023.032.088.032.088A2.373,2.373,0,0,1,144.139-10.549Z"/></clipPath></defs><g transform="translate(4783 150)"><g class="d" transform="translate(-4784 -103)"><path class="e" d="M-4,4H141.917V-52H-4Z"/></g><g class="f" transform="translate(-4784 -103)"><path class="e" d="M138-4.955h44.921V-51H138Z"/></g><g class="g" transform="translate(-4785 -102)"><g class="g"><g class="h"><g transform="translate(132 -25)"><path class="i" d="M-132-23H47V25H-132Z"/></g></g><g transform="translate(132 -25)"><path class="j" d="M-132-23H47V25H-132Z"/></g></g></g><g class="k" transform="translate(-4785 -103)"><path class="l" d="M134-5.53h16.538V-24H134Z"/></g><path class="m" d="M142-4.946a10.014,10.014,0,0,0,10-10.027A10.014,10.014,0,0,0,142-25a10.014,10.014,0,0,0-10,10.027A10.014,10.014,0,0,0,142-4.946Z" transform="translate(-4784.5 -102.5)"/></g></svg>