<svg xmlns="http://www.w3.org/2000/svg" xmlns:xlink="http://www.w3.org/1999/xlink" viewBox="0 0 1047 379.126">
  <defs>
    <style>
      .cls-1 {
        fill: #cf272d;
      }

      .cls-2 {
        fill: #3db4e7;
      }

      .cls-3 {
        fill: #82bc23;
      }

      .cls-4 {
        fill: none;
        stroke: #edf0f5;
        stroke-linecap: round;
        stroke-width: 3px;
        stroke-dasharray: 1 6;
      }

      .cls-18, .cls-19, .cls-26, .cls-4 {
        fill-rule: evenodd;
      }

      .cls-19, .cls-5 {
        fill: #fff;
      }

      .cls-6 {
        fill: #00aff0;
      }

      .cls-7 {
        fill: #2daae1;
      }

      .cls-8 {
        fill: url(#linear-gradient);
      }

      .cls-9 {
        fill: #6fa14d;
      }

      .cls-10 {
        fill: #77ab50;
      }

      .cls-11 {
        fill: url(#linear-gradient-2);
      }

      .cls-12 {
        fill: #c8daea;
      }

      .cls-13 {
        fill: #a9c9dd;
      }

      .cls-14 {
        fill: url(#linear-gradient-3);
      }

      .cls-15 {
        fill: #c73a63;
      }

      .cls-16 {
        fill: #4b4b4b;
      }

      .cls-17 {
        fill: #4a4a4a;
      }

      .cls-18 {
        fill: #3ace01;
      }

      .cls-20 {
        fill: #3e82f7;
      }

      .cls-21 {
        fill: #ed412d;
      }

      .cls-22 {
        fill: #2da94f;
      }

      .cls-23 {
        fill: #fdbd00;
      }

      .cls-24 {
        fill: url(#radial-gradient);
      }

      .cls-25 {
        fill: url(#radial-gradient-2);
      }

      .cls-26 {
        fill: #348ffc;
      }

      .cls-27 {
        fill: url(#linear-gradient-4);
      }

      .cls-28 {
        fill: url(#linear-gradient-5);
      }

      .cls-29 {
        fill: #7b519d;
      }

      .cls-30 {
        fill: #ededed;
      }

      .cls-31 {
        fill: #55cd6c;
      }

      .cls-32 {
        fill: #fefefe;
      }

      .cls-33 {
        fill: #dfa22f;
      }

      .cls-34 {
        fill: #3cb187;
      }

      .cls-35 {
        fill: #ce1e5b;
      }

      .cls-36 {
        fill: #392538;
      }

      .cls-37 {
        fill: #bb242a;
      }

      .cls-38 {
        fill: #72c5cd;
      }

      .cls-39 {
        fill: #248c73;
      }

      .cls-40 {
        fill: #62803a;
      }

      .cls-41 {
        fill: #2dc100;
      }

      .cls-42 {
        fill: #7289da;
      }

      .cls-43 {
        fill: #31c4f3;
      }

      .cls-44 {
        fill: #2196f3;
      }

      .cls-45 {
        fill: #fafafa;
      }
    </style>
    <linearGradient id="linear-gradient" x1="-6.126" y1="6.087" x2="-6.126" y2="7.087" gradientUnits="objectBoundingBox">
      <stop offset="0" stop-color="#67974a"/>
      <stop offset="0.495" stop-color="#82b750"/>
    </linearGradient>
    <linearGradient id="linear-gradient-2" x1="0.826" y1="0.874" x2="0.15" y2="0.113" gradientUnits="objectBoundingBox">
      <stop offset="0" stop-color="#37aee2"/>
      <stop offset="1" stop-color="#1e96c8"/>
    </linearGradient>
    <linearGradient id="linear-gradient-3" x1="0.613" y1="0.421" x2="0.805" y2="0.056" gradientUnits="objectBoundingBox">
      <stop offset="0" stop-color="#eff7fc"/>
      <stop offset="1" stop-color="#fff"/>
    </linearGradient>
    <radialGradient id="radial-gradient" cx="3.883" cy="58.686" r="76.178" gradientUnits="userSpaceOnUse">
      <stop offset="0.09" stop-color="#fa8f21"/>
      <stop offset="0.78" stop-color="#d82d7e"/>
    </radialGradient>
    <radialGradient id="radial-gradient-2" cx="41.56" cy="56.759" r="67.037" gradientUnits="userSpaceOnUse">
      <stop offset="0.64" stop-color="#8c3aaa" stop-opacity="0"/>
      <stop offset="1" stop-color="#8c3aaa"/>
    </radialGradient>
    <linearGradient id="linear-gradient-4" x1="-18.408" y1="29.129" x2="-17.408" y2="29.129" gradientUnits="objectBoundingBox">
      <stop offset="0" stop-color="#00ea66"/>
      <stop offset="1" stop-color="#00d50f"/>
    </linearGradient>
    <linearGradient id="linear-gradient-5" x1="-27.185" y1="2.352" x2="-27.185" y2="3.038" gradientUnits="objectBoundingBox">
      <stop offset="0" stop-color="#e5f5d9"/>
      <stop offset="1" stop-color="#fff"/>
    </linearGradient>
  </defs>
  <g id="Group_467" data-name="Group 467" transform="translate(-437 -4878.924)">
    <g id="twilio" transform="translate(1386.001 5033.719)">
      <path id="Path_169" data-name="Path 169" class="cls-1" d="M30,52.375A22.094,22.094,0,1,1,52.094,30.281,22.094,22.094,0,0,1,30,52.375ZM30,.281a30,30,0,1,0,30,30,30,30,0,0,0-30-30Z"/>
      <path id="Path_170" data-name="Path 170" class="cls-1" d="M84.374,75.95a6.238,6.238,0,1,1,6.238,6.238,6.238,6.238,0,0,1-6.238-6.238m0,14.943a6.238,6.238,0,1,1,6.238,6.238,6.238,6.238,0,0,1-6.238-6.238m-14.943,0a6.238,6.238,0,1,1,6.238,6.238,6.238,6.238,0,0,1-6.238-6.238m0-14.943a6.238,6.238,0,1,1,6.238,6.238,6.238,6.238,0,0,1-6.238-6.238" transform="translate(-53.14 -53.14)"/>
    </g>
    <g id="kik" transform="translate(1237.969 5012.956)">
      <path id="Path_184" data-name="Path 184" class="cls-2" d="M311.189,148.534a3.439,3.439,0,1,1-3.454,3.439A3.446,3.446,0,0,1,311.189,148.534Z" transform="translate(-194.611 -53.827)"/>
      <path id="Path_185" data-name="Path 185" class="cls-3" d="M171.162,148.475H164.9l.007-15.571,6.253.022Z" transform="translate(-82.393 -41.547)"/>
      <path id="Path_186" data-name="Path 186" class="cls-3" d="M85.889,103.747a3.14,3.14,0,1,1-3.092,3.14A3.116,3.116,0,0,1,85.889,103.747Zm0-15.6a3.141,3.141,0,1,1-3.092,3.14A3.116,3.116,0,0,1,85.889,88.144ZM63.4,103.824a3.1,3.1,0,1,1-3.057,3.1A3.079,3.079,0,0,1,63.4,103.824Zm.014-23.8a3.135,3.135,0,1,1-3.07,3.134A3.1,3.1,0,0,1,63.418,80.022Z" transform="translate(-0.247 0)"/>
      <path id="Path_187" data-name="Path 187" class="cls-3" d="M60.032,95.149l6.24.066.031,11.494,5.776-5.649,4.607,4.3-4.064,4,5.68,7.658-5.066,3.676-5.412-7.234-1.576,1.462v4.067l-6.217-.243Z" transform="translate(0 -11.885)"/>
      <path id="Path_188" data-name="Path 188" class="cls-3" d="M115.607,88.146a3.133,3.133,0,1,1-3.122,3.133A3.127,3.127,0,0,1,115.607,88.146Zm1.262,15.584a3.148,3.148,0,1,1-3.1,3.148A3.126,3.126,0,0,1,116.869,103.73Zm20.61.095a3.1,3.1,0,1,1-3.057,3.1A3.078,3.078,0,0,1,137.479,103.824Zm.013-23.8a3.135,3.135,0,1,1-3.069,3.134A3.1,3.1,0,0,1,137.492,80.022Z" transform="translate(-41.21 0)"/>
      <path id="Path_189" data-name="Path 189" class="cls-3" d="M214.514,95.149l6.24.066.031,11.494,5.777-5.649,4.607,4.3-4.064,4,5.68,7.658-5.066,3.676-5.412-7.234-1.576,1.462v4.067l-6.217-.243Z" transform="translate(-121.371 -11.885)"/>
      <path id="Path_190" data-name="Path 190" class="cls-3" d="M270.089,117.923a3.133,3.133,0,1,1-3.122,3.133A3.127,3.127,0,0,1,270.089,117.923Zm1.262,15.584a3.148,3.148,0,1,1-3.1,3.148A3.125,3.125,0,0,1,271.351,133.507Z" transform="translate(-162.581 -29.777)"/>
    </g>
    <g id="Group_465" data-name="Group 465">
      <path id="Path-2" class="cls-4" d="M-34.281-24.317c84.848,15.309,70.907,124.745,70.907,128.1" transform="translate(845.462 5042.773) rotate(180)"/>
      <path id="Path-4" class="cls-4" d="M29.935.855c24.182,39.036,88.344,64.7,132.819,40.875" transform="translate(844.742 5010.044) rotate(180)"/>
      <path id="Path-5" class="cls-4" d="M186.976,40.528c77.674-40.085,112.767-24.171,150.4,0" transform="translate(830.409 5015.507) rotate(180)"/>
      <path id="Path-6" class="cls-4" d="M171.664,108.662c26.3-47.372,73.868-70.085,114.274-76.508" transform="translate(831.069 5097.909) rotate(180)"/>
      <path id="Path-7" class="cls-4" d="M-36.525,138.033c113.767-5.107,163.164-51.793,250.746-33.24" transform="translate(845.466 5215.223) rotate(180)"/>
      <path id="Path-8" class="cls-4" d="M-33.216,254.561c22.14-57.273,74.176-92.09,116.16-91.748" transform="translate(845.296 5329.936) rotate(180)"/>
      <path id="Path-10" class="cls-4" d="M-33.336,305.19c25.518-72.067,83.909-161.944,220.121-133.7" transform="translate(845.435 5403.133) rotate(180)"/>
      <path id="Path-11" class="cls-4" d="M202.857,240.079c57.669,24.8,88.288,22.09,129.458,0" transform="translate(820.098 5457.115) rotate(180)"/>
      <path id="Path-7-2" data-name="Path-7" class="cls-4" d="M1.817,132.243c22.769,6.1,62.855,11.616,85.009,5.68" transform="translate(848.497 5188.228) rotate(180)"/>
      <g id="Group_466" data-name="Group 466" transform="translate(1917.773 10175.955) rotate(180)">
        <path id="Path-2-2" data-name="Path-2" class="cls-4" d="M0,128.1C84.847,112.8,70.907,3.359,70.907,0" transform="translate(879.742 5236.968) rotate(180)"/>
        <path id="Path-4-2" data-name="Path-4" class="cls-4" d="M0,50.062c24.182-39.036,88.344-64.7,132.819-40.875" transform="translate(814.806 5216.828) rotate(180)"/>
        <path id="Path-5-2" data-name="Path-5" class="cls-4" d="M0,0C77.674,40.085,112.767,24.17,150.395,0" transform="translate(643.433 5200.976) rotate(180)"/>
        <path id="Path-6-2" data-name="Path-6" class="cls-4" d="M0,0C26.3,47.372,73.868,70.085,114.274,76.508" transform="translate(659.405 5186.708) rotate(180)"/>
        <path id="Path-7-3" data-name="Path-7" class="cls-4" d="M0,0C113.766,5.107,163.164,51.793,250.745,33.24" transform="translate(881.99 5098.766) rotate(180)"/>
        <path id="Path-8-2" data-name="Path-8" class="cls-4" d="M0,0C22.14,57.273,74.176,92.09,116.16,91.747" transform="translate(878.51 5100.58) rotate(180)"/>
        <path id="Path-10-2" data-name="Path-10" class="cls-4" d="M0,0C25.518,72.067,83.908,161.943,220.12,133.7" transform="translate(878.77 5078.013) rotate(180)"/>
        <path id="Path-11-2" data-name="Path-11" class="cls-4" d="M0,17.6C57.669-7.2,88.288-4.493,129.458,17.6" transform="translate(617.241 4976.517) rotate(180)"/>
        <path id="Path-7-4" data-name="Path-7" class="cls-4" d="M0,8.224c22.769-6.1,62.854-11.616,85.009-5.68" transform="translate(846.679 5128.194) rotate(180)"/>
      </g>
    </g>
    <g id="skype-3" transform="translate(1139.411 5117.68)">
      <path id="Path_164" data-name="Path 164" class="cls-5" d="M40.016,63.052c-12.061,0-25.766-14.528-24.67-26.589,1.1-11.513,16.447-22.2,27.822-20.558,10.005,1.37,18.915,13.98,18.365,23.985-.546,10.551-10.964,23.163-21.517,23.163Z" transform="translate(1.338 1.543)"/>
      <path id="Path_165" data-name="Path 165" class="cls-6" d="M49.99,70.76c-.824-.274-2.057-.547-2.742-.822-.822-.41-1.782-.41-4.8-.274a30.882,30.882,0,0,1-6.441-.275A28.957,28.957,0,0,1,13.121,48.558c-.549-2.056-.685-3.152-.685-8.086,0-5.346-.137-5.756-.822-7.95a16.545,16.545,0,0,1,15.624-22.2,17.421,17.421,0,0,1,6.852,1.507c1.1.549,1.782.685,6.03.685,3.838,0,5.345.137,7.263.686A28.948,28.948,0,0,1,66.709,28.822a27.7,27.7,0,0,1,2.6,15.349c-.274,3.017-.274,3.291.411,5.071a16.8,16.8,0,0,1-5.208,18.229,22.157,22.157,0,0,1-6.99,3.427,19.219,19.219,0,0,1-7.4-.137H49.99Zm-3.7-10.553c4.524-.959,8.5-3.7,10.005-6.988A10.542,10.542,0,0,0,55.06,41.7c-2.193-2.467-5.483-3.837-13.295-5.755-5.209-1.233-6.442-1.782-7.538-3.016a2.2,2.2,0,0,1-.274-3.152c.822-1.371,2.878-2.193,5.619-2.329,3.975-.274,5.756.685,8.086,4.385,1.782,2.742,3.563,3.427,5.9,2.33,3.014-1.507,2.741-6.441-.55-9.319-3.152-2.6-6.577-3.7-12.335-3.7-6.03,0-10.143,1.233-12.884,3.974-2.193,2.193-2.6,3.427-2.6,6.852,0,3.563.411,4.659,2.741,6.716,2.467,2.33,4.523,3.153,11.922,4.934,5.209,1.233,6.58,1.918,7.812,3.289a3.345,3.345,0,0,1,.824,2.467c0,1.371-.137,1.645-1.233,2.742-1.645,1.643-4.112,2.328-7.263,2.193-3.7-.275-5.345-1.371-7.263-5.209-1.371-2.6-2.467-3.563-4.249-3.563-3.975,0-5.345,3.289-3.289,7.537,1.782,3.7,5.345,6.169,9.868,7.127a39.519,39.519,0,0,0,11.376,0h-.137Z" transform="translate(0)"/>
    </g>
    <g id="twitter-3" transform="translate(310.556 5195.719)">
      <circle id="Ellipse_62" data-name="Ellipse 62" class="cls-7" cx="30" cy="30" r="30" transform="translate(126.444 2.281)"/>
      <path id="Path_171" data-name="Path 171" class="cls-5" d="M270.586,147.022a15.758,15.758,0,0,1-4.533,1.243,7.915,7.915,0,0,0,3.47-4.366,15.767,15.767,0,0,1-5.013,1.915,7.9,7.9,0,0,0-13.652,5.4,7.982,7.982,0,0,0,.2,1.8,22.409,22.409,0,0,1-16.267-8.246,7.9,7.9,0,0,0,2.442,10.536,7.856,7.856,0,0,1-3.575-.987v.1a7.9,7.9,0,0,0,6.331,7.738,7.852,7.852,0,0,1-2.079.277,8.009,8.009,0,0,1-1.486-.139,7.9,7.9,0,0,0,7.371,5.48,15.891,15.891,0,0,1-11.685,3.267,22.335,22.335,0,0,0,12.1,3.547c14.516,0,22.454-12.026,22.454-22.454q0-.514-.024-1.021A16.08,16.08,0,0,0,270.586,147.022Z" transform="translate(-94.907 -126.674)"/>
    </g>
    <g id="google-hangouts_1_" data-name="google-hangouts (1)" transform="translate(705.002 5139)">
      <path id="Path_178" data-name="Path 178" class="cls-8" d="M59.532,24.675a29.746,29.746,0,0,0-7.6-15.159,29.4,29.4,0,0,0-5.673-4.748A29.694,29.694,0,0,0,33.526.19,14.513,14.513,0,0,1,31.844,0H27.876c-.043.1-.135.063-.208.07-1.022.09-2.039.206-3.047.4a29.565,29.565,0,0,0-18.1,10.859A29.233,29.233,0,0,0,.083,27.795,30.035,30.035,0,0,0,.73,36.639,28.491,28.491,0,0,0,2.913,42.9c.086.17.17.341.257.511a30.086,30.086,0,0,0,6.237,8.383,29.837,29.837,0,0,0,20.157,8.158c.35,0,.446.091.444.449C29.991,63.456,30,66.511,30,69.567c0,.119.01.237.016.384.1-.04.161-.063.22-.091a62.915,62.915,0,0,0,15.7-10.374q1.4-1.276,2.689-2.667c.368-.4.734-.8,1.1-1.2.57-.61,1.064-1.291,1.6-1.933.621-.74,1.178-1.528,1.728-2.32a38.589,38.589,0,0,0,3.213-5.507c.461-.975.9-1.958,1.29-2.964a.339.339,0,0,0,.039-.056,35.937,35.937,0,0,0,2.1-8.531c.126-1.019.208-2.044.26-3.068a28.476,28.476,0,0,0-.43-6.569ZM20.893,43.066a13.267,13.267,0,0,1-1.565.3.738.738,0,0,1-.822-.532l0-3.386c.02-.332-.114-.688.152-.981a.93.93,0,0,1,.483-.295,6.207,6.207,0,0,0,1.728-.589,3.958,3.958,0,0,0,1.882-2.559c.043-.175.083-.352.124-.528l-7.14-.012a2.272,2.272,0,0,1-.61-.063,1.444,1.444,0,0,1-1.072-1.347q-.007-5.4.005-10.8a1.634,1.634,0,0,1,.484-1.525,1.353,1.353,0,0,1,.9-.357q5.249,0,10.5,0a1.455,1.455,0,0,1,1.4,1.845,1.358,1.358,0,0,1,.058.535c0,3.922.023,7.845-.007,11.766A8.761,8.761,0,0,1,24.452,41.1c-.1.092-.2.189-.293.283a9.386,9.386,0,0,1-3.266,1.681Zm19.361-.25-.133.037-.076.043a16.1,16.1,0,0,1-2.059.452.755.755,0,0,1-.942-.759c-.005-.376-.008-.752-.011-1.128l.019-2.019c0-.149-.008-.3-.008-.444,0-.517.2-.735.842-.882A4.612,4.612,0,0,0,40.1,37.079a4.42,4.42,0,0,0,1.32-2.587l-6.6-.013c-.239,0-.479,0-.718,0A1.465,1.465,0,0,1,32.6,32.94q0-5.332.008-10.663c0-.034,0-.068-.006-.1a1.52,1.52,0,0,1,.713-1.58,1.362,1.362,0,0,1,.743-.2q5.215,0,10.429,0a1.456,1.456,0,0,1,1.4,1.846,1.37,1.37,0,0,1,.058.535q0,5.893,0,11.786A8.943,8.943,0,0,1,40.494,42.7c-.082.035-.16.08-.239.12Z" transform="translate(0)"/>
      <path id="Path_179" data-name="Path 179" class="cls-5" d="M62.973,77.371a16.093,16.093,0,0,1-2.059.452.755.755,0,0,1-.942-.759c-.005-.376-.008-.752-.011-1.128l.019-2.019c.194-.45.613-.531,1.023-.624a4.043,4.043,0,0,0,3.338-3.589c.034-.239.182-.491.009-.739l-6.6-.013c-.239,0-.479,0-.718,0a1.465,1.465,0,0,1-1.512-1.538q0-5.332.008-10.663c0-.034,0-.068-.006-.1.1-.041.1-.142.146-.219a1.465,1.465,0,0,1,1.357-.816q5.175,0,10.35,0a1.433,1.433,0,0,1,1.428,1.092,1.37,1.37,0,0,1,.058.535q0,5.893,0,11.786a8.943,8.943,0,0,1-5.444,8.142c-.083.034-.16.079-.24.119l-.134.037c-.022.015-.048.029-.073.044ZM47.089,75.86a9.4,9.4,0,0,1-3.268,1.681,13.266,13.266,0,0,1-1.565.3.738.738,0,0,1-.822-.533l0-3.386c.186-.433.585-.522.985-.614a4.04,4.04,0,0,0,3.366-3.537c.044-.258.19-.532.019-.8l-7.14-.012a2.272,2.272,0,0,1-.61-.063,1.444,1.444,0,0,1-1.072-1.347q-.007-5.4.005-10.8a1.506,1.506,0,0,1,1.456-1.129q5.213-.01,10.426,0a1.427,1.427,0,0,1,1.394,1.092,1.358,1.358,0,0,1,.058.535c0,3.922.023,7.845-.007,11.766a8.761,8.761,0,0,1-2.938,6.566C47.283,75.669,47.186,75.765,47.089,75.86Z" transform="translate(-22.928 -34.475)"/>
      <path id="Path_180" data-name="Path 180" class="cls-9" d="M50.252,55.484a1.427,1.427,0,0,0-1.394-1.092q-5.213-.006-10.426,0a1.506,1.506,0,0,0-1.456,1.129A1.634,1.634,0,0,1,37.46,54a1.353,1.353,0,0,1,.9-.357q5.249,0,10.5,0A1.456,1.456,0,0,1,50.252,55.484Zm18.542,0a1.432,1.432,0,0,0-1.428-1.092q-5.175,0-10.351,0a1.465,1.465,0,0,0-1.357.816c-.043.077-.05.178-.146.219a1.52,1.52,0,0,1,.713-1.58,1.362,1.362,0,0,1,.743-.2q5.215,0,10.429,0a1.456,1.456,0,0,1,1.4,1.846ZM64.335,67.742c.172.247.025.5-.009.739a4.043,4.043,0,0,1-3.338,3.589c-.409.092-.83.174-1.023.624,0-.148-.008-.3-.008-.444,0-.517.2-.735.842-.882a4.612,4.612,0,0,0,2.216-1.038A4.428,4.428,0,0,0,64.335,67.742Zm-18.542,0c.171.27.025.545-.019.8a4.04,4.04,0,0,1-3.366,3.537c-.4.092-.8.182-.985.614.02-.332-.114-.688.152-.981a.93.93,0,0,1,.483-.295,6.207,6.207,0,0,0,1.728-.589,3.958,3.958,0,0,0,1.882-2.559C45.712,68.094,45.752,67.917,45.793,67.742Z" transform="translate(-22.913 -33.25)"/>
      <path id="Path_181" data-name="Path 181" class="cls-10" d="M105.355,112.853Z" transform="translate(-65.31 -69.957)"/>
    </g>
    <g id="telegram_1_" data-name="telegram (1)" transform="translate(494.001 5037)">
      <path id="path2995-1-0" class="cls-11" d="M60,30A30,30,0,1,1,30,0,29.992,29.992,0,0,1,60,30Z"/>
      <path id="path2993" class="cls-12" d="M86,109.75c-.975,0-.8-.375-1.15-1.3L82,99.05,99.7,88l2.075.55-1.725,4.7Z" transform="translate(-61.5 -66)"/>
      <path id="path2989" class="cls-13" d="M98,142.75a1.953,1.953,0,0,0,1.5-.75c.65-.625,9-8.75,9-8.75L103.375,132l-4.75,3L98,142.5Z" transform="translate(-73.5 -99)"/>
      <path id="path2991" class="cls-14" d="M61.695,90.226l12.1,8.925c1.375.75,2.375.375,2.725-1.275l4.925-23.2c.5-2.025-.775-2.925-2.1-2.325L50.445,83.5c-1.975.8-1.95,1.9-.35,2.375L57.52,88.2,74.695,77.376c.8-.5,1.55-.225.95.325Z" transform="translate(-36.695 -54.126)"/>
    </g>
    <g id="webhooks" transform="translate(638 4937.027)">
      <path id="Path_153" data-name="Path 153" class="cls-15" d="M55.82,24.512c-2.5,4.218-4.887,8.3-7.328,12.357a3.245,3.245,0,0,0-.436,3.212,6.014,6.014,0,0,1-4.234,8.177,6.1,6.1,0,0,1-7.511-5.095c-.608-3.294,1.935-6.523,5.547-7.038.3-.044.612-.048,1.12-.087l5.495-9.263c-3.456-3.455-5.513-7.493-5.057-12.5A14.43,14.43,0,0,1,65.584,3.286a14.077,14.077,0,0,1,5.847,16.326l-5.021-1.369A9.609,9.609,0,0,0,64.386,9.5a8.672,8.672,0,0,0-5.439-2.86,8.846,8.846,0,0,0-9.663,6.3c-1.406,4.761.722,8.65,6.536,11.581Z" transform="translate(-27.7)"/>
      <path id="Path_154" data-name="Path 154" class="cls-16" d="M113.549,47.692l5.313,9.421c8.943-2.782,15.687,2.2,18.106,7.525a14.586,14.586,0,0,1-4.814,18.033A14.17,14.17,0,0,1,113.6,80.815l4.095-3.445c5.154,3.356,9.663,3.2,13.009-.776a9.055,9.055,0,0,0-.145-11.766c-3.389-3.831-7.929-3.947-13.416-.27-2.276-4.06-4.592-8.088-6.8-12.178a4.137,4.137,0,0,0-3.239-2.47,5.785,5.785,0,0,1-4.712-5.609,6.165,6.165,0,0,1,3.913-6.038,6.083,6.083,0,0,1,6.911,1.9,5.78,5.78,0,0,1,1.056,5.7c-.2.583-.448,1.148-.722,1.839Z" transform="translate(-78.301 -28.168)"/>
      <path id="Path_155" data-name="Path 155" class="cls-17" d="M39.451,133.187H28.684a14.83,14.83,0,0,1-7.1,9.9,14.293,14.293,0,0,1-9.629,1.724,14.488,14.488,0,0,1-.819-28.362c.458,1.672.921,3.361,1.379,5.029-6.087,3.122-8.194,7.056-6.49,11.976a8.859,8.859,0,0,0,10.385,5.784c4.723-.937,7.1-4.884,6.814-11.218,4.478,0,8.959-.047,13.438.023,1.749.028,3.1-.155,4.416-1.7,2.169-2.55,6.161-2.32,8.5.088a6.155,6.155,0,0,1-.253,8.781,6.067,6.067,0,0,1-8.568-.3,21.166,21.166,0,0,1-1.3-1.726Z" transform="translate(0 -88.169)"/>
    </g>
    <g id="line-messenger" transform="translate(439.001 4933)">
      <path id="Path_196" data-name="Path 196" class="cls-18" d="M12.28,0H47.72A12.316,12.316,0,0,1,60,12.28V47.72A12.316,12.316,0,0,1,47.72,60H12.28A12.316,12.316,0,0,1,0,47.72V12.28A12.316,12.316,0,0,1,12.28,0Z"/>
      <path id="Path_197" data-name="Path 197" class="cls-19" d="M71.936,62.576c12.157,0,22.013,7.892,22.013,17.627a15.064,15.064,0,0,1-3.286,9.268,4.563,4.563,0,0,1-.408.51l-.013.014a19.086,19.086,0,0,1-2.394,2.388c-6.087,5.627-16.107,12.325-17.429,11.292-1.15-.9,1.893-5.292-1.617-6.024-.245-.028-.489-.058-.731-.093h0C57.753,96.093,49.923,88.88,49.923,80.2c0-9.735,9.855-17.627,22.013-17.627Z" transform="translate(-41.994 -52.637)"/>
      <path id="Path_198" data-name="Path 198" class="cls-18" d="M102.023,151.7h4.44a1.151,1.151,0,0,0,1.148-1.148v-.1a1.151,1.151,0,0,0-1.148-1.148h-3.2v-7.271a1.151,1.151,0,0,0-1.148-1.148h-.1a1.151,1.151,0,0,0-1.148,1.148v8.515A1.151,1.151,0,0,0,102.023,151.7Zm27.51-5.337v-.1a1.151,1.151,0,0,0-1.148-1.148h-3.2V143.3h3.2a1.151,1.151,0,0,0,1.148-1.148v-.1a1.151,1.151,0,0,0-1.148-1.148h-4.44a1.151,1.151,0,0,0-1.148,1.148v8.515a1.151,1.151,0,0,0,1.148,1.148h4.44a1.152,1.152,0,0,0,1.148-1.148v-.1a1.151,1.151,0,0,0-1.148-1.148h-3.2v-1.818h3.2a1.151,1.151,0,0,0,1.148-1.148ZM121,151.356h0a1.145,1.145,0,0,0,.332-.805v-8.515a1.151,1.151,0,0,0-1.148-1.148h-.1a1.151,1.151,0,0,0-1.148,1.148v5l-4.15-5.566a1.15,1.15,0,0,0-1-.581h-.1a1.151,1.151,0,0,0-1.148,1.148v8.515a1.151,1.151,0,0,0,1.148,1.148h.1a1.151,1.151,0,0,0,1.148-1.148v-5.092l4.179,5.708a1.171,1.171,0,0,0,.084.115h0a.964.964,0,0,0,.447.33,1.138,1.138,0,0,0,.436.086h.1a1.137,1.137,0,0,0,.536-.134A.808.808,0,0,0,121,151.356Zm-11.31.342h.1a1.151,1.151,0,0,0,1.148-1.148v-8.515a1.151,1.151,0,0,0-1.148-1.148h-.1a1.151,1.151,0,0,0-1.148,1.148v8.515A1.152,1.152,0,0,0,109.685,151.7Z" transform="translate(-84.853 -118.51)"/>
    </g>
    <g id="Group_437" data-name="Group 437" transform="translate(-45.999 -5.836)">
      <circle id="Ellipse_87" data-name="Ellipse 87" class="cls-20" cx="17.44" cy="17.44" r="17.44" transform="translate(660 5209)"/>
      <circle id="Ellipse_88" data-name="Ellipse 88" class="cls-21" cx="7.203" cy="7.203" r="7.203" transform="translate(695.638 5228.714)"/>
      <circle id="Ellipse_90" data-name="Ellipse 90" class="cls-22" cx="3.791" cy="3.791" r="3.791" transform="translate(708.528 5223.407)"/>
      <circle id="Ellipse_91" data-name="Ellipse 91" class="cls-23" cx="8.72" cy="8.72" r="8.72" transform="translate(694.121 5245.396)"/>
    </g>
    <g id="instagram-2-1" transform="translate(787.001 4878.924)">
      <path id="Path_193" data-name="Path 193" class="cls-24" d="M15.214,59.788a20.2,20.2,0,0,1-6.8-1.259A11.37,11.37,0,0,1,4.21,55.792a11.283,11.283,0,0,1-2.737-4.207,20.2,20.2,0,0,1-1.259-6.8C.036,40.932,0,39.775,0,30S.039,19.075.212,15.214a20.314,20.314,0,0,1,1.259-6.8,11.414,11.414,0,0,1,2.737-4.21A11.3,11.3,0,0,1,8.417,1.471a20.2,20.2,0,0,1,6.8-1.259C19.072.036,20.231,0,30,0S40.927.039,44.787.212a20.314,20.314,0,0,1,6.8,1.259,11.326,11.326,0,0,1,4.208,2.737,11.334,11.334,0,0,1,2.737,4.208,20.2,20.2,0,0,1,1.259,6.8C59.964,19.073,60,20.229,60,30s-.036,10.928-.212,14.788a20.293,20.293,0,0,1-1.259,6.8,12.118,12.118,0,0,1-6.946,6.944,20.2,20.2,0,0,1-6.8,1.259C40.93,59.964,39.771,60,30,60s-10.928-.034-14.785-.212" transform="translate(0)"/>
      <path id="Path_194" data-name="Path 194" class="cls-25" d="M15.214,59.788a20.2,20.2,0,0,1-6.8-1.259A11.37,11.37,0,0,1,4.21,55.792a11.283,11.283,0,0,1-2.737-4.207,20.2,20.2,0,0,1-1.259-6.8C.036,40.932,0,39.775,0,30S.039,19.075.212,15.214a20.314,20.314,0,0,1,1.259-6.8,11.414,11.414,0,0,1,2.737-4.21A11.3,11.3,0,0,1,8.417,1.471a20.2,20.2,0,0,1,6.8-1.259C19.072.036,20.231,0,30,0S40.927.039,44.787.212a20.314,20.314,0,0,1,6.8,1.259,11.326,11.326,0,0,1,4.208,2.737,11.334,11.334,0,0,1,2.737,4.208,20.2,20.2,0,0,1,1.259,6.8C59.964,19.073,60,20.229,60,30s-.036,10.928-.212,14.788a20.293,20.293,0,0,1-1.259,6.8,12.118,12.118,0,0,1-6.946,6.944,20.2,20.2,0,0,1-6.8,1.259C40.93,59.964,39.771,60,30,60s-10.928-.034-14.785-.212" transform="translate(0)"/>
      <path id="Path_195" data-name="Path 195" class="cls-5" d="M450.711,461.81a7.43,7.43,0,1,1,7.429,7.431,7.43,7.43,0,0,1-7.429-7.431m-4.017,0a11.446,11.446,0,1,0,11.446-11.446,11.446,11.446,0,0,0-11.446,11.446m20.67-11.9a2.675,2.675,0,1,0,2.676-2.674h0a2.676,2.676,0,0,0-2.675,2.674m-18.229,30.043a12.319,12.319,0,0,1-4.139-.767,7.381,7.381,0,0,1-4.231-4.229,12.308,12.308,0,0,1-.767-4.139c-.108-2.35-.13-3.055-.13-9.008s.023-6.656.13-9.008a12.4,12.4,0,0,1,.767-4.139A7.377,7.377,0,0,1,445,444.432a12.309,12.309,0,0,1,4.139-.767c2.35-.108,3.055-.13,9.005-.13s6.656.023,9.008.13a12.4,12.4,0,0,1,4.139.767,7.377,7.377,0,0,1,4.231,4.231,12.308,12.308,0,0,1,.767,4.139c.108,2.352.13,3.055.13,9.008s-.022,6.656-.13,9.008a12.366,12.366,0,0,1-.767,4.139,7.381,7.381,0,0,1-4.231,4.229,12.308,12.308,0,0,1-4.139.767c-2.35.108-3.055.13-9.008.13s-6.656-.022-9.005-.13m-.185-40.3a16.344,16.344,0,0,0-5.41,1.035,11.4,11.4,0,0,0-6.52,6.52,16.349,16.349,0,0,0-1.035,5.41c-.11,2.377-.135,3.136-.135,9.19s.025,6.813.135,9.19a16.348,16.348,0,0,0,1.035,5.41,11.4,11.4,0,0,0,6.52,6.52,16.36,16.36,0,0,0,5.41,1.035c2.378.108,3.136.135,9.19.135s6.813-.025,9.19-.135a16.348,16.348,0,0,0,5.41-1.035,11.4,11.4,0,0,0,6.52-6.52A16.305,16.305,0,0,0,480.3,471c.108-2.378.133-3.136.133-9.19s-.025-6.813-.133-9.19a16.345,16.345,0,0,0-1.035-5.41,11.4,11.4,0,0,0-6.518-6.52,16.322,16.322,0,0,0-5.41-1.035c-2.377-.109-3.137-.135-9.189-.135s-6.814.025-9.192.135" transform="translate(-428.078 -431.682)"/>
    </g>
    <g id="icone_two" data-name="icone two" transform="translate(871.001 4993.006)">
      <g id="Group-71" transform="translate(0)">
        <g id="Group-70" transform="translate(0)">
          <path id="Fill-1" class="cls-26" d="M13.522,138.756a91.023,91.023,0,1,1,168.521-46.42A92.643,92.643,0,0,1,88.554,181.99h-84l8.842-15.018a27.36,27.36,0,0,0,.13-28.216" transform="translate(0 0)"/>
          <path id="Combined-Shape" class="cls-19" d="M154.453,138.744c1.008,1.78,2.14,3.65,2.149,4.231a1.515,1.515,0,0,1-.65,1.786q-.747.605-19.667,8.9a2.19,2.19,0,0,1-2.558-.2c-.807-1.043-1.626-2.253-2.421-3.425l-18.255,8.9,1.794,3.677-1.735.846-8.968-18.386a13.389,13.389,0,0,1-1.017-2.7c-.192-.805-.162-1.272.092-1.4s.64.14,1.156.787a13.388,13.388,0,0,1,1.5,2.466l1.935,3.966,10.265-24.679c-6.4-13.213-12.594-26.968-8.119-40.261a1.84,1.84,0,0,1,2.522-1.105c12.741,4.96,20.29,17.044,26.668,29.5l.347.253,27.294,7.529-1.935-3.966a13.386,13.386,0,0,1-1.017-2.7c-.192-.805-.162-1.272.092-1.4s.636.141,1.156.787a13.39,13.39,0,0,1,1.5,2.466L175.556,133l-1.735.846-1.794-3.677Zm5.62,37.036a.588.588,0,0,1-.564.194,13.966,13.966,0,0,1-7.859-4.753,23.316,23.316,0,0,1-2.717-4.893c-1.964,1.353-1.143,4.641-1.134,4.677a.553.553,0,0,1-.115.491.593.593,0,0,1-.474.211c-.135,0-3.338-.17-5.683-5.265-.084-.167-.157-.339-.23-.511a10.32,10.32,0,0,1,18.982-8.057c.107.252.353.981.353.981A26.3,26.3,0,0,1,160.073,175.78Z" transform="translate(-47.997 -38.211)"/>
        </g>
      </g>
    </g>
    <g id="messages-ios_1_" data-name="messages-ios (1)" transform="translate(1258.797 5200.927)">
      <path id="Path_191" data-name="Path 191" class="cls-27" d="M54.2,5.135V37.011A14.063,14.063,0,0,1,40.142,51.073H8.266A14.063,14.063,0,0,1-5.8,37.011V5.135A14.063,14.063,0,0,1,8.266-8.927H40.142A14.063,14.063,0,0,1,54.2,5.135Z" transform="translate(0 0)"/>
      <g id="Group_269" data-name="Group 269" transform="translate(8.267 7.01)">
        <path id="Path_192" data-name="Path 192" class="cls-28" d="M35.337,1001.368a17.722,17.722,0,0,0-8.878,2.318c-.43.248-.853.5-1.252.78s-.737.573-1.089.876c-.013.01-.034.012-.047.023a12.258,12.258,0,0,0-.115,19.182,2.437,2.437,0,0,1,.023.284,3.9,3.9,0,0,1-3.8,3.974,8.81,8.81,0,0,0,3.384.685,8.605,8.605,0,0,0,5.4-1.963,18.21,18.21,0,0,0,6.375,1.159c8.8,0,15.926-6.127,15.926-13.672s-7.126-13.647-15.927-13.647Z" transform="translate(-19.388 -1001.368)"/>
      </g>
    </g>
    <g id="viber-icon" transform="translate(592.571 5080.57)">
      <rect id="Rectangle_593" data-name="Rectangle 593" class="cls-29" width="54.86" height="54.86" rx="13"/>
      <g id="Group_268" data-name="Group 268" transform="translate(11.415 11.095)">
        <path id="Path_175" data-name="Path 175" class="cls-19" d="M89.49,79.642c-1-.8-2.061-1.522-3.109-2.257-2.09-1.468-4-1.582-5.561.78a2.433,2.433,0,0,1-3.384.8A15,15,0,0,1,69.573,71.3c-.707-1.589-.7-3.014.957-4.138a2.935,2.935,0,0,0,1.688-2.6c-.092-1.694-4.2-7.354-5.828-7.951a2.954,2.954,0,0,0-2.025,0c-3.808,1.281-5.385,4.412-3.875,8.12C65,75.8,72.927,83.5,83.843,88.2a10.776,10.776,0,0,0,1.664.471c2.485.025,5.4-2.369,6.237-4.746.809-2.286-.9-3.194-2.255-4.283ZM77.25,57.751c7.98,1.227,11.661,5.022,12.677,13.06.094.742-.182,1.86.877,1.88,1.107.021.84-1.08.85-1.823A15.171,15.171,0,0,0,77.481,56.022c-.578.083-1.775-.4-1.85.9C75.581,57.793,76.589,57.65,77.25,57.751Z" transform="translate(-59.923 -56)"/>
        <path id="Path_176" data-name="Path 176" class="cls-19" d="M268.9,102.916c-.768-.092-1.781-.454-1.96.611-.187,1.118.942,1,1.668,1.167,4.929,1.1,6.645,2.9,7.457,7.785.119.713-.117,1.822,1.094,1.638.9-.137.573-1.088.648-1.643C277.846,107.78,273.824,103.507,268.9,102.916Z" transform="translate(-250.011 -98.961)"/>
        <path id="Path_177" data-name="Path 177" class="cls-19" d="M282.366,151.407c-.512.013-1.015.068-1.2.616-.283.818.312,1.014.918,1.111a3.591,3.591,0,0,1,3.288,3.533c.055.547.4.991.93.928.733-.087.8-.739.776-1.359C287.111,153.971,284.55,151.352,282.366,151.407Z" transform="translate(-263.025 -143.613)"/>
      </g>
    </g>
    <g id="whatsapp" transform="translate(1223.001 4943)">
      <path id="Path_166" data-name="Path 166" class="cls-30" d="M0,60,4.138,45A29.84,29.84,0,0,1,29.9,0C46.345,0,60,13.448,60,29.793S46.345,60,29.9,60A30.115,30.115,0,0,1,15.31,55.862Z"/>
      <path id="Path_167" data-name="Path 167" class="cls-31" d="M55.1,89.448l.931.517a24.562,24.562,0,0,0,12.931,3.828A25.079,25.079,0,0,0,93.793,68.759a24.828,24.828,0,0,0-49.655,0A25.06,25.06,0,0,0,47.966,82.1l.621.931-2.379,8.69Z" transform="translate(-38.966 -38.966)"/>
      <path id="Path_168" data-name="Path 168" class="cls-32" d="M136.441,135.165l-1.965-.1a2.349,2.349,0,0,0-1.655.621,8.571,8.571,0,0,0-2.9,4.448c-.724,3.1.414,6.828,3.1,10.552a31.35,31.35,0,0,0,16.965,12.31,8.4,8.4,0,0,0,7.035-.828,6.1,6.1,0,0,0,2.69-3.931l.31-1.448a1.04,1.04,0,0,0-.517-1.138l-6.517-3a.987.987,0,0,0-1.241.31l-2.586,3.31a.8.8,0,0,1-.828.207,20.1,20.1,0,0,1-10.862-9.31.781.781,0,0,1,.1-.828l2.483-2.793a1.274,1.274,0,0,0,.207-1.035l-3-6.724a.9.9,0,0,0-.828-.621" transform="translate(-114.509 -119.234)"/>
    </g>
    <g id="slack-1_1_" data-name="slack-1 (1)" transform="translate(1079.001 4882.921)">
      <path id="Path_156" data-name="Path 156" class="cls-33" d="M131.91,3.774a5.345,5.345,0,0,0-10.166,3.3L135.564,49.6a5.346,5.346,0,0,0,10.162-3.3L131.91,3.774" transform="translate(-93 0)"/>
      <path id="Path_157" data-name="Path 157" class="cls-34" d="M40.57,33.452a5.345,5.345,0,1,0-10.166,3.3l13.82,42.521a5.346,5.346,0,0,0,10.162-3.3L40.57,33.452" transform="translate(-23.074 -22.72)"/>
      <path id="Path_158" data-name="Path 158" class="cls-35" d="M79.026,131.99a5.345,5.345,0,0,0-3.3-10.166L33.2,135.645a5.345,5.345,0,0,0,3.3,10.162L79.026,131.99" transform="translate(-22.72 -93)"/>
      <path id="Path_159" data-name="Path 159" class="cls-36" d="M71.722,173.3,81.885,170l-3.3-10.164-10.163,3.3,3.3,10.163" transform="translate(-52.378 -122.3)"/>
      <path id="Path_160" data-name="Path 160" class="cls-37" d="M163.06,143.615l10.163-3.3-3.3-10.166-10.163,3.3,3.3,10.164" transform="translate(-122.302 -99.573)"/>
      <path id="Path_161" data-name="Path 161" class="cls-38" d="M49.348,40.651a5.345,5.345,0,1,0-3.3-10.166L3.523,44.305a5.345,5.345,0,0,0,3.3,10.161L49.348,40.651" transform="translate(0 -23.075)"/>
      <path id="Path_162" data-name="Path 162" class="cls-39" d="M42.035,81.961l10.164-3.3c-1.248-3.843-2.408-7.414-3.3-10.164L38.732,71.8l3.3,10.162" transform="translate(-29.651 -52.376)"/>
      <path id="Path_163" data-name="Path 163" class="cls-40" d="M133.373,52.292l10.165-3.3q-1.654-5.076-3.308-10.161l-10.16,3.3,3.3,10.165" transform="translate(-99.575 -29.664)"/>
    </g>
    <g id="wechat" transform="translate(1424.001 4938)">
      <path id="Path_172" data-name="Path 172" class="cls-41" d="M60,51a9,9,0,0,1-9,9H9a9,9,0,0,1-9-9V9A9,9,0,0,1,9,0H51a9,9,0,0,1,9,9Z"/>
      <g id="Group_267" data-name="Group 267" transform="translate(3.916 7.584)">
        <path id="Path_173" data-name="Path 173" class="cls-5" d="M55.826,52.712c-4.843.253-9.054,1.721-12.472,5.038a14.811,14.811,0,0,0-4.6,12.547c-1.893-.234-3.617-.492-5.351-.638a3.324,3.324,0,0,0-1.817.307c-1.684.95-3.3,2.023-5.211,3.218.351-1.588.578-2.978.98-4.315a1.64,1.64,0,0,0-.747-2.17c-5.813-4.1-8.264-10.246-6.43-16.57,1.7-5.85,5.863-9.4,11.524-11.247,7.727-2.524,16.411.051,21.109,6.185A14.459,14.459,0,0,1,55.826,52.712Zm-22.287-1.97a2.232,2.232,0,0,0-2.148-2.233,2.169,2.169,0,0,0-2.257,2.1,2.143,2.143,0,0,0,2.123,2.224A2.2,2.2,0,0,0,33.539,50.741Zm11.628-2.234a2.235,2.235,0,0,0-2.183,2.2,2.18,2.18,0,0,0,2.241,2.13,2.166,2.166,0,1,0-.058-4.331Z" transform="translate(-19.582 -37.92)"/>
        <path id="Path_174" data-name="Path 174" class="cls-5" d="M151.033,149.227c-1.533-.683-2.94-1.707-4.438-1.864s-3.06.7-4.621.864a15.441,15.441,0,0,1-12.525-4.086c-6.679-6.178-5.725-15.651,2-20.714,6.868-4.5,16.941-3,21.783,3.244a12.372,12.372,0,0,1-1.43,17.257c-1.493,1.325-2.03,2.415-1.072,4.161a4.952,4.952,0,0,1,.3,1.138Zm-17.455-16.9a1.8,1.8,0,1,0,.013-3.608,1.8,1.8,0,1,0-.013,3.608Zm11.252-3.6a1.8,1.8,0,0,0-1.791,1.726,1.78,1.78,0,1,0,1.791-1.726Z" transform="translate(-103.91 -104.245)"/>
      </g>
    </g>
    <path id="discord_1_" data-name="discord (1)" class="cls-42" d="M46.79,0H6.209A6.224,6.224,0,0,0,0,6.239V47.184a6.223,6.223,0,0,0,6.209,6.239H40.552l-1.605-5.6,3.877,3.6,3.664,3.392L53,60.57V6.239A6.223,6.223,0,0,0,46.79,0ZM35.1,39.552s-1.09-1.3-2-2.453a9.557,9.557,0,0,0,5.482-3.6A17.309,17.309,0,0,1,35.1,35.282a19.931,19.931,0,0,1-4.391,1.3,21.216,21.216,0,0,1-7.844-.03,25.441,25.441,0,0,1-4.452-1.3,17.77,17.77,0,0,1-2.211-1.03c-.091-.061-.182-.091-.272-.152a.418.418,0,0,1-.121-.091c-.545-.3-.848-.515-.848-.515a9.419,9.419,0,0,0,5.3,3.573c-.908,1.151-2.029,2.514-2.029,2.514-6.693-.212-9.237-4.6-9.237-4.6a40.557,40.557,0,0,1,4.361-17.656,14.976,14.976,0,0,1,8.51-3.18l.3.364c-5.451,1.574-7.965,3.967-7.965,3.967s.666-.363,1.787-.878a22.742,22.742,0,0,1,6.875-1.908,2.967,2.967,0,0,1,.515-.061,25.625,25.625,0,0,1,6.118-.06,24.687,24.687,0,0,1,9.116,2.907A20.155,20.155,0,0,0,31.072,14.6l.424-.484a14.974,14.974,0,0,1,8.51,3.18,40.554,40.554,0,0,1,4.361,17.656s-2.574,4.391-9.267,4.6ZM21.018,25.409a3.374,3.374,0,0,0,0,6.723,3.226,3.226,0,0,0,3.089-3.362,3.207,3.207,0,0,0-3.089-3.361m11.054,0a3.374,3.374,0,1,0,3.089,3.361,3.227,3.227,0,0,0-3.089-3.361" transform="translate(709 5020)"/>
    <path id="Subtraction_1" data-name="Subtraction 1" class="cls-43" d="M30.285,60.57a30.666,30.666,0,0,1-4.11-.277c.173-.065.778-.331,1.661-.768.757-.374,1.958-.992,3.376-1.809,1.508-.868,2.948-1.779,4.281-2.708a42.531,42.531,0,0,0,4.374-3.466c5.9-5.116,8.321-9.286,9.236-11.315a21.23,21.23,0,0,0,2.473-9.976,21.483,21.483,0,0,0-.433-4.3,21.209,21.209,0,0,0-3.209-7.625A21.388,21.388,0,0,0,38.552,10.6a21.218,21.218,0,0,0-4-1.243,21.534,21.534,0,0,0-8.6,0,21.209,21.209,0,0,0-7.625,3.209A21.388,21.388,0,0,0,10.6,21.95a21.218,21.218,0,0,0-1.243,4,21.475,21.475,0,0,0,.66,11.058,21.235,21.235,0,0,0,3.045,5.867,21.448,21.448,0,0,0,4.642,4.62,21.231,21.231,0,0,0,5.884,3.017,4.638,4.638,0,0,1,1.62,1.23,4.013,4.013,0,0,1,.734,1.364,4.311,4.311,0,0,1,.189,1.106,2.99,2.99,0,0,1-.013.456c0,.052-.031,5.207,0,5.615-.913-.126-1.83-.3-2.725-.5s-1.771-.455-2.634-.741a30.22,30.22,0,0,1-9.389-5.1A30.331,30.331,0,0,1,2.006,41.147c-.324-.844-.614-1.712-.86-2.581s-.461-1.78-.629-2.678-.3-1.84-.386-2.764S0,31.231,0,30.285a30.771,30.771,0,0,1,.156-3.1,30.361,30.361,0,0,1,.459-3.007c.2-.976.451-1.952.746-2.9S2,19.4,2.38,18.5A30.373,30.373,0,0,1,18.5,2.38C19.4,2,20.34,1.654,21.279,1.362s1.927-.547,2.9-.746A30.361,30.361,0,0,1,27.188.156a30.739,30.739,0,0,1,6.193,0,30.361,30.361,0,0,1,3.007.459c.976.2,1.952.451,2.9.746S41.166,2,42.073,2.38A30.373,30.373,0,0,1,58.19,18.5c.384.907.726,1.843,1.018,2.782s.547,1.927.746,2.9a30.358,30.358,0,0,1,.459,3.007,30.738,30.738,0,0,1,0,6.193,30.358,30.358,0,0,1-.459,3.007c-.2.976-.451,1.952-.746,2.9s-.635,1.876-1.018,2.782A30.373,30.373,0,0,1,42.073,58.19c-.907.384-1.843.726-2.782,1.018s-1.927.547-2.9.746a30.358,30.358,0,0,1-3.007.459A30.77,30.77,0,0,1,30.285,60.57Z" transform="translate(1162 5020)"/>
    <g id="messenger" transform="translate(1415.975 5225.648)">
      <path id="Path_1017" data-name="Path 1017" class="cls-44" d="M31.723.006A31.093,31.093,0,0,0,.025,30.383,29.8,29.8,0,0,0,10.591,52.994v9.087a1.321,1.321,0,0,0,2.021,1.12l7.362-4.6A32.706,32.706,0,0,0,31.723,60.76a31.093,31.093,0,0,0,31.7-30.377A31.093,31.093,0,0,0,31.723.006Z" transform="translate(1 -31)"/>
      <path id="Path_1018" data-name="Path 1018" class="cls-45" d="M127.37,171.225a1.321,1.321,0,0,0-1.691-.37l-13.736,7.489-8.545-7.327a1.321,1.321,0,0,0-1.794.069L85.757,186.934a1.321,1.321,0,0,0,1.566,2.092l13.736-7.489,8.553,7.33a1.321,1.321,0,0,0,1.794-.069l15.849-15.849A1.321,1.321,0,0,0,127.37,171.225Z" transform="translate(-73.78 -180.559)"/>
    </g>
  </g>
</svg>
