<svg xmlns="http://www.w3.org/2000/svg" viewBox="0 0 111.063 110.718">
  <defs>
    <style>
      .cls-1, .cls-2 {
        fill: #36a2fe;
      }

      .cls-1 {
        fill-rule: evenodd;
      }

      .cls-2 {
        opacity: 0.094;
      }
    </style>
  </defs>
  <g id="Group_1646" data-name="Group 1646" transform="translate(-460.469 -1113.641)">
    <path id="Rounded_Rectangle_2_copy_3" data-name="Rounded Rectangle 2 copy 3" class="cls-1" d="M16490.873,1734.926a6.938,6.938,0,1,1,6.959-6.938,6.936,6.936,0,0,1-6.959,6.938Zm-15.666,5.22a6.975,6.975,0,1,1-13.949,0v-12.158a6.975,6.975,0,1,1,13.949,0Z" transform="translate(-15963.258 -565.012)"/>
    <path id="Rectangle_59" data-name="Rectangle 59" class="cls-2" d="M28,0h2A50,50,0,0,1,80,50v0A28,28,0,0,1,52,78H28A28,28,0,0,1,0,50V28A28,28,0,0,1,28,0Z" transform="matrix(0.788, 0.616, -0.616, 0.788, 508.49, 1113.641)"/>
  </g>
</svg>
