<svg xmlns="http://www.w3.org/2000/svg" viewBox="0 0 85.246 83.391">
  <defs>
    <style>
      .cls-1, .cls-2 {
        fill: #36a2fe;
      }

      .cls-1 {
        opacity: 0.094;
      }

      .cls-2 {
        fill-rule: evenodd;
      }
    </style>
  </defs>
  <g id="Group_1648" data-name="Group 1648" transform="translate(-1025 -1130)">
    <path id="Rectangle_61" data-name="Rectangle 61" class="cls-1" d="M28,0h2A50,50,0,0,1,80,50v0A28,28,0,0,1,52,78H28A28,28,0,0,1,0,50V28A28,28,0,0,1,28,0Z" transform="matrix(-0.998, 0.07, -0.07, -0.998, 1110.246, 1207.81)"/>
    <path id="Rounded_Rectangle_2_copy_3" data-name="Rounded Rectangle 2 copy 3" class="cls-2" d="M16455.133,1702.5a3.241,3.241,0,0,1,0-6.481h28.945a3.241,3.241,0,1,1,0,6.481Zm10.338,20.9a3.24,3.24,0,1,1,0-6.48h18.607a3.24,3.24,0,1,1,0,6.48Zm-16.885-10.449a3.241,3.241,0,1,1,0-6.482h42.063a3.241,3.241,0,0,1,0,6.482Z" transform="translate(-14050.095 7926.148) rotate(-30)"/>
  </g>
</svg>
