<svg xmlns="http://www.w3.org/2000/svg" viewBox="0 0 100 98.369">
  <defs>
    <style>
      .cls-1 {
        fill: #bbdefb;
      }

      .cls-2 {
        fill: #0f71d3;
      }

      .cls-3, .cls-4 {
        fill: #348ffc;
      }

      .cls-4 {
        stroke: #348ffc;
      }

      .cls-5 {
        fill: #fff;
      }
    </style>
  </defs>
  <g id="Group_1449" data-name="Group 1449" transform="translate(-495 -2731.016)">
    <g id="Group_452" data-name="Group 452">
      <g id="Group_424" data-name="Group 424" transform="translate(18 -154.984)">
        <g id="translate" transform="translate(477 2886)">
          <path id="Path_311" data-name="Path 311" class="cls-1" d="M280.376,96h-42.25l-4.4,17.012-1.579,11.18,8.463,23.6,1.359,28.64h38.4A6.433,6.433,0,0,0,286.808,170V102.432A6.433,6.433,0,0,0,280.376,96Z" transform="translate(-186.808 -78.065)"/>
          <path id="Path_312" data-name="Path 312" class="cls-2" d="M274.7,389.06l-16.848,17.935-5.967-17.935,2.435-6.539Z" transform="translate(-202.686 -308.625)"/>
          <path id="Path_314" data-name="Path 314" class="cls-3" d="M68.228,73.187l3.783,11.421H6.432A6.431,6.431,0,0,1,0,78.177V10.606A6.431,6.431,0,0,1,6.432,4.174H45.38l5.937,17.935,8.908,26.9Z" transform="translate(0 -4.174)"/>
          <path id="Path_1015" data-name="Path 1015" class="cls-4" d="M-8.532,6.452a7.562,7.562,0,0,0,6,3.037,6,6,0,0,0,6.191-6.36A4.683,4.683,0,0,0,3.63,2.45a4.751,4.751,0,0,0,2.095.5,4.1,4.1,0,0,0,1.907-.429v9.04h2.939V-8.913h5.753V11.561h2.939V-8.913h3.658v-2.751H4.537v2.751h3.1V-.552A4.977,4.977,0,0,1,4.975.163a5.088,5.088,0,0,1-2.72-.75A4.314,4.314,0,0,0,.473-1.66V-1.8a5.007,5.007,0,0,0,2.22-4.4c0-3.216-2.032-5.538-5.315-5.538A5.567,5.567,0,0,0-7.406-9.27L-5.437-7.2a3.034,3.034,0,0,1,2.72-1.608A2.542,2.542,0,0,1-.153-5.947,2.952,2.952,0,0,1-3.248-2.7h-1V.234H-2.56C-.4.234.754,1.342.754,3.2A3.111,3.111,0,0,1-2.5,6.559a4.779,4.779,0,0,1-4-2.394Z" transform="translate(67.532 51.953)"/>
        </g>
        <path id="Path_1016" data-name="Path 1016" class="cls-5" d="M7.38-.9A1.891,1.891,0,0,0,9.216.288,2.035,2.035,0,0,0,11.3-1.764a1.917,1.917,0,0,0-.216-.864L1.872-23.112A1.848,1.848,0,0,0,0-24.264a1.9,1.9,0,0,0-1.872,1.152L-11.088-2.628a1.917,1.917,0,0,0-.216.864A2.035,2.035,0,0,0-9.216.288,1.943,1.943,0,0,0-7.38-.9l2.052-4.392H5.328ZM3.744-9.144H-3.744L0-18.288Z" transform="translate(508.778 2939.37)"/>
      </g>
    </g>
  </g>
</svg>
