<?xml version="1.0" encoding="UTF-8"?>
<svg width="34px" height="34px" viewBox="0 0 34 34" version="1.1" xmlns="http://www.w3.org/2000/svg" xmlns:xlink="http://www.w3.org/1999/xlink">
    <!-- Generator: Sketch 48.2 (47327) - http://www.bohemiancoding.com/sketch -->
    <title>linkedin</title>
    <desc>Created with Sketch.</desc>
    <defs></defs>
    <g id="Botjet-Features" stroke="none" stroke-width="1" fill="none" fill-rule="evenodd" transform="translate(-1254.000000, -7243.000000)">
        <g id="linkedin" transform="translate(1254.000000, 7243.000000)">
            <path d="M33.535956,16.8587692 C33.535956,26.1190989 26.0283077,33.6267473 16.767978,33.6267473 C7.50764835,33.6267473 0,26.1190989 0,16.8587692 C0,7.59843956 7.50764835,0.0907912088 16.767978,0.0907912088 C26.0283077,0.0907912088 33.535956,7.59843956 33.535956,16.8587692 Z" id="Fill-1" fill="#007AB9"></path>
            <path d="M26.7856484,18.2071868 L26.7856484,25.1207692 L22.7781319,25.1207692 L22.7781319,18.6716044 C22.7781319,17.0515604 22.2001319,15.9452527 20.7478462,15.9452527 C19.6415385,15.9452527 18.9835824,16.691011 18.6929011,17.4121099 C18.5864176,17.6687912 18.5602637,18.0263516 18.5602637,18.3883956 L18.5602637,25.1207692 L14.5508791,25.1207692 C14.5508791,25.1207692 14.6050549,14.1966813 14.5508791,13.0657143 L18.5602637,13.0657143 L18.5602637,14.7746813 C18.5527912,14.7877582 18.5412088,14.8008352 18.5337363,14.8139121 L18.5602637,14.8139121 L18.5602637,14.7746813 C19.0930549,13.9545714 20.0431868,12.7825055 22.1724835,12.7825055 C24.8095385,12.7825055 26.7856484,14.506044 26.7856484,18.2071868 Z M10.3595385,7.25545055 C8.98758242,7.25545055 8.09125275,8.15589011 8.09125275,9.33804396 C8.09125275,10.4955385 8.96105495,11.4206374 10.3068571,11.4206374 L10.3315165,11.4206374 C11.73,11.4206374 12.5998022,10.4955385 12.5998022,9.33804396 C12.5732747,8.15589011 11.73,7.25545055 10.3595385,7.25545055 Z M8.32925275,25.1207692 L12.3356484,25.1207692 L12.3356484,13.0657143 L8.32925275,13.0657143 L8.32925275,25.1207692 Z" id="Fill-2" fill="#F1F2F2"></path>
        </g>
    </g>
</svg>