<svg xmlns="http://www.w3.org/2000/svg" viewBox="0 0 235.078 59.732">
  <defs>
    <style>
      .cls-1 {
        fill: #fff;
        font-size: 31px;
        font-family: Helvetica-Bold, Helvetica;
        font-weight: 700;
      }

      .cls-2 {
        fill: #36a2fe;
        fill-rule: evenodd;
      }
    </style>
  </defs>
  <g id="Group_9" data-name="Group 9" transform="translate(-735 -300.78)">
    <g id="df-2" transform="translate(735 329.512)">
      <text id="Deepforge" class="cls-1" transform="translate(0 24)"><tspan x="0" y="0">Deepforge</tspan></text>
      <text id="AI" class="cls-1" transform="translate(171.6 24)"><tspan x="0" y="0">AI</tspan></text>
    </g>
    <path id="Rounded_Rectangle_2_copy_3" data-name="Rounded Rectangle 2 copy 3" class="cls-2" d="M16443.152,1701.189a2.585,2.585,0,1,1,0-5.17h33.086a2.585,2.585,0,1,1,0,5.17Zm8.244,16.67a2.584,2.584,0,0,1,0-5.168h24.842a2.584,2.584,0,1,1,0,5.168Zm-13.467-8.334a2.585,2.585,0,1,1,0-5.17h43.547a2.585,2.585,0,1,1,0,5.17Zm34.361,16.67a2.584,2.584,0,1,1,2.592-2.584,2.582,2.582,0,0,1-2.592,2.584Zm-5.834,1.944a2.6,2.6,0,1,1-5.2,0v-4.528a2.6,2.6,0,1,1,5.2,0Z" transform="translate(-15513.984 -1395.239)"/>
  </g>
</svg>
