<svg xmlns="http://www.w3.org/2000/svg" xmlns:xlink="http://www.w3.org/1999/xlink" viewBox="0 0 1288 138"><defs><style>.a{fill:#348ffc;}.b{fill:#fafafa;}.c{fill:#fff;stroke:#707070;}.d{clip-path:url(#a);}.e{clip-path:url(#b);}.f{clip-path:url(#c);}.g{fill:#3287ed;}.h{clip-path:url(#d);}</style><clipPath id="a"><rect class="a" width="1288" height="138" transform="translate(-6993 -818)"/></clipPath><clipPath id="b"><rect class="b" width="1331.89" height="360.027" transform="translate(-660 116)"/></clipPath><clipPath id="c"><rect class="c" width="1155.181" height="422.129" transform="translate(0 0)"/></clipPath><clipPath id="d"><rect class="c" width="1067.971" height="398.354" transform="translate(0 0)"/></clipPath></defs><g class="d" transform="translate(6993 818)"><g class="e" transform="translate(-6350.034 -1050.184)"><g transform="translate(-822.536 -67.203)"><rect class="a" width="1348.046" height="641.726" transform="translate(163.103)"/><g class="f" transform="translate(1155.181 422.831) rotate(180)"><rect class="g" width="1099.199" height="396.408" rx="198.204" transform="translate(-13.137 333.657) rotate(-20)"/></g><g class="h" transform="translate(567.816 244.074)"><path class="g" d="M184.006,2.305,834.147,0c101.264-.359,183.064,83.04,182.706,186.276S934.112,373.494,832.848,373.853l-650.141,2.3C81.442,376.516-.358,293.118,0,189.881S82.742,2.664,184.006,2.305Z" transform="matrix(0.985, -0.174, 0.174, 0.985, 12.834, 279.373)"/></g></g></g></g></svg>