<svg xmlns="http://www.w3.org/2000/svg" viewBox="0 0 122.311 105.097">
  <defs>
    <style>
      .cls-1 {
        fill: #bbdefb;
      }

      .cls-2 {
        fill: #348ffc;
      }

      .cls-3 {
        fill: #0f71d3;
      }
    </style>
  </defs>
  <g id="Group_1451" data-name="Group 1451" transform="translate(-94.955 -117.621)">
    <path id="Path_292" data-name="Path 292" class="cls-1" d="M217.266,122.5v97.981a2.231,2.231,0,0,1-2.232,2.232H97.187a2.231,2.231,0,0,1-2.232-2.232V122.5a4.882,4.882,0,0,1,4.879-4.883H212.382A4.885,4.885,0,0,1,217.266,122.5Z"/>
    <path id="Path_293" data-name="Path 293" class="cls-1" d="M217.266,122.5v19.425H94.955V122.5a4.882,4.882,0,0,1,4.879-4.883H212.382A4.885,4.885,0,0,1,217.266,122.5Z"/>
    <path id="Path_294" data-name="Path 294" class="cls-2" d="M217.264,136.057H94.955V122.5a4.882,4.882,0,0,1,4.882-4.882H212.382a4.882,4.882,0,0,1,4.882,4.882v13.553Z" transform="translate(0 -0.001)"/>
    <path id="Path_295" data-name="Path 295" class="cls-1" d="M192.439,140.936H133.362a2.934,2.934,0,1,1,0-5.868h59.077a2.934,2.934,0,1,1,0,5.868Z" transform="translate(-22.002 -10.822)"/>
    <path id="Path_296" data-name="Path 296" class="cls-1" d="M321.623,139.936A2.934,2.934,0,0,1,318.689,137v-.32a2.934,2.934,0,1,1,5.868,0V137A2.934,2.934,0,0,1,321.623,139.936Z" transform="translate(-138.773 -10.003)"/>
    <path id="Path_297" data-name="Path 297" class="cls-1" d="M345.336,139.936A2.934,2.934,0,0,1,342.4,137v-.32a2.934,2.934,0,0,1,5.868,0V137A2.934,2.934,0,0,1,345.336,139.936Z" transform="translate(-153.481 -10.003)"/>
    <path id="Path_298" data-name="Path 298" class="cls-1" d="M369.049,139.936A2.934,2.934,0,0,1,366.115,137v-.32a2.934,2.934,0,1,1,5.868,0V137A2.934,2.934,0,0,1,369.049,139.936Z" transform="translate(-168.189 -10.003)"/>
    <g id="visual" transform="translate(130.422 151.141)">
      <g id="Group_1413" data-name="Group 1413">
        <g id="Group_1412" data-name="Group 1412">
          <path id="Path_997" data-name="Path 997" class="cls-3" d="M7.434,0H1.487A1.486,1.486,0,0,0,0,1.487V7.434A1.486,1.486,0,0,0,1.487,8.92H7.434A1.486,1.486,0,0,0,8.92,7.434V1.487A1.486,1.486,0,0,0,7.434,0Z"/>
        </g>
      </g>
      <g id="Group_1415" data-name="Group 1415" transform="translate(0 41.826)">
        <g id="Group_1414" data-name="Group 1414">
          <path id="Path_998" data-name="Path 998" class="cls-3" d="M7.434,422H1.487A1.486,1.486,0,0,0,0,423.487v5.947a1.486,1.486,0,0,0,1.487,1.487H7.434a1.486,1.486,0,0,0,1.487-1.487v-5.947A1.486,1.486,0,0,0,7.434,422Z" transform="translate(0 -422)"/>
        </g>
      </g>
      <g id="Group_1417" data-name="Group 1417" transform="translate(41.826)">
        <g id="Group_1416" data-name="Group 1416">
          <path id="Path_999" data-name="Path 999" class="cls-3" d="M429.434,0h-5.947A1.486,1.486,0,0,0,422,1.487V7.434a1.486,1.486,0,0,0,1.487,1.487h5.947a1.486,1.486,0,0,0,1.487-1.487V1.487A1.486,1.486,0,0,0,429.434,0Z" transform="translate(-422)"/>
        </g>
      </g>
      <g id="Group_1419" data-name="Group 1419" transform="translate(41.826 41.826)">
        <g id="Group_1418" data-name="Group 1418">
          <path id="Path_1000" data-name="Path 1000" class="cls-3" d="M429.434,422h-5.947A1.486,1.486,0,0,0,422,423.487v5.947a1.486,1.486,0,0,0,1.487,1.487h5.947a1.486,1.486,0,0,0,1.487-1.487v-5.947A1.486,1.486,0,0,0,429.434,422Z" transform="translate(-422 -422)"/>
        </g>
      </g>
      <g id="Group_1421" data-name="Group 1421" transform="translate(23.887 23.887)">
        <g id="Group_1420" data-name="Group 1420">
          <path id="Path_1001" data-name="Path 1001" class="cls-3" d="M242.487,241a1.487,1.487,0,1,0,1.487,1.487A1.488,1.488,0,0,0,242.487,241Z" transform="translate(-241 -241)"/>
        </g>
      </g>
      <g id="Group_1423" data-name="Group 1423" transform="translate(9.019 14.966)">
        <g id="Group_1422" data-name="Group 1422">
          <path id="Path_1002" data-name="Path 1002" class="cls-3" d="M123.41,160.518c-.29-.389-7.206-9.518-16.059-9.518s-15.769,9.129-16.059,9.518a1.485,1.485,0,0,0,0,1.777c.29.389,7.206,9.518,16.059,9.518s15.769-9.129,16.059-9.518A1.485,1.485,0,0,0,123.41,160.518Zm-16.059,5.349a4.46,4.46,0,1,1,4.46-4.46A4.465,4.465,0,0,1,107.351,165.867Z" transform="translate(-90.997 -151)"/>
        </g>
      </g>
      <g id="Group_1425" data-name="Group 1425" transform="translate(11.993 3.073)">
        <g id="Group_1424" data-name="Group 1424">
          <path id="Path_1003" data-name="Path 1003" class="cls-3" d="M125.46,31h-2.973a1.487,1.487,0,1,0,0,2.973h2.973a1.487,1.487,0,0,0,0-2.973Z" transform="translate(-121 -31)"/>
        </g>
      </g>
      <g id="Group_1427" data-name="Group 1427" transform="translate(22.4 3.073)">
        <g id="Group_1426" data-name="Group 1426">
          <path id="Path_1004" data-name="Path 1004" class="cls-3" d="M230.46,31h-2.973a1.487,1.487,0,1,0,0,2.973h2.973a1.487,1.487,0,1,0,0-2.973Z" transform="translate(-226 -31)"/>
        </g>
      </g>
      <g id="Group_1429" data-name="Group 1429" transform="translate(32.807 3.073)">
        <g id="Group_1428" data-name="Group 1428">
          <path id="Path_1005" data-name="Path 1005" class="cls-3" d="M335.46,31h-2.973a1.487,1.487,0,0,0,0,2.973h2.973a1.487,1.487,0,0,0,0-2.973Z" transform="translate(-331 -31)"/>
        </g>
      </g>
      <g id="Group_1431" data-name="Group 1431" transform="translate(11.993 44.701)">
        <g id="Group_1430" data-name="Group 1430">
          <path id="Path_1006" data-name="Path 1006" class="cls-3" d="M125.46,451h-2.973a1.487,1.487,0,1,0,0,2.973h2.973a1.487,1.487,0,1,0,0-2.973Z" transform="translate(-121 -451)"/>
        </g>
      </g>
      <g id="Group_1433" data-name="Group 1433" transform="translate(22.4 44.701)">
        <g id="Group_1432" data-name="Group 1432">
          <path id="Path_1007" data-name="Path 1007" class="cls-3" d="M230.46,451h-2.973a1.487,1.487,0,1,0,0,2.973h2.973a1.487,1.487,0,1,0,0-2.973Z" transform="translate(-226 -451)"/>
        </g>
      </g>
      <g id="Group_1435" data-name="Group 1435" transform="translate(32.807 44.701)">
        <g id="Group_1434" data-name="Group 1434">
          <path id="Path_1008" data-name="Path 1008" class="cls-3" d="M335.46,451h-2.973a1.487,1.487,0,0,0,0,2.973h2.973a1.487,1.487,0,1,0,0-2.973Z" transform="translate(-331 -451)"/>
        </g>
      </g>
      <g id="Group_1437" data-name="Group 1437" transform="translate(3.073 32.807)">
        <g id="Group_1436" data-name="Group 1436">
          <path id="Path_1009" data-name="Path 1009" class="cls-3" d="M32.487,331A1.486,1.486,0,0,0,31,332.487v2.973a1.487,1.487,0,0,0,2.973,0v-2.973A1.486,1.486,0,0,0,32.487,331Z" transform="translate(-31 -331)"/>
        </g>
      </g>
      <g id="Group_1439" data-name="Group 1439" transform="translate(3.073 22.4)">
        <g id="Group_1438" data-name="Group 1438">
          <path id="Path_1010" data-name="Path 1010" class="cls-3" d="M32.487,226A1.486,1.486,0,0,0,31,227.487v2.973a1.487,1.487,0,1,0,2.973,0v-2.973A1.486,1.486,0,0,0,32.487,226Z" transform="translate(-31 -226)"/>
        </g>
      </g>
      <g id="Group_1441" data-name="Group 1441" transform="translate(3.073 11.993)">
        <g id="Group_1440" data-name="Group 1440">
          <path id="Path_1011" data-name="Path 1011" class="cls-3" d="M32.487,121A1.486,1.486,0,0,0,31,122.487v2.973a1.487,1.487,0,0,0,2.973,0v-2.973A1.486,1.486,0,0,0,32.487,121Z" transform="translate(-31 -121)"/>
        </g>
      </g>
      <g id="Group_1443" data-name="Group 1443" transform="translate(44.701 32.807)">
        <g id="Group_1442" data-name="Group 1442">
          <path id="Path_1012" data-name="Path 1012" class="cls-3" d="M452.487,331A1.486,1.486,0,0,0,451,332.487v2.973a1.487,1.487,0,1,0,2.973,0v-2.973A1.486,1.486,0,0,0,452.487,331Z" transform="translate(-451 -331)"/>
        </g>
      </g>
      <g id="Group_1445" data-name="Group 1445" transform="translate(44.701 22.4)">
        <g id="Group_1444" data-name="Group 1444">
          <path id="Path_1013" data-name="Path 1013" class="cls-3" d="M452.487,226A1.486,1.486,0,0,0,451,227.487v2.973a1.487,1.487,0,1,0,2.973,0v-2.973A1.486,1.486,0,0,0,452.487,226Z" transform="translate(-451 -226)"/>
        </g>
      </g>
      <g id="Group_1447" data-name="Group 1447" transform="translate(44.701 11.993)">
        <g id="Group_1446" data-name="Group 1446">
          <path id="Path_1014" data-name="Path 1014" class="cls-3" d="M452.487,121A1.486,1.486,0,0,0,451,122.487v2.973a1.487,1.487,0,1,0,2.973,0v-2.973A1.486,1.486,0,0,0,452.487,121Z" transform="translate(-451 -121)"/>
        </g>
      </g>
    </g>
  </g>
</svg>
