<svg xmlns="http://www.w3.org/2000/svg" viewBox="0 0 109.729 94.286">
  <defs>
    <style>
      .cls-1 {
        fill: #e6effa;
      }

      .cls-2 {
        fill: #b0d3fa;
      }

      .cls-3 {
        fill: #348ffc;
      }

      .cls-4 {
        fill: #fff;
      }
    </style>
  </defs>
  <g id="Group_387" data-name="Group 387" transform="translate(-1245 -1286.66)">
    <g id="maintenance" transform="translate(1245 1250.634)">
      <path id="Path_126" data-name="Path 126" class="cls-1" d="M109.729,40.408v87.9a2,2,0,0,1-2,2H2a2,2,0,0,1-2-2V40.405a4.379,4.379,0,0,1,4.379-4.379H105.35A4.382,4.382,0,0,1,109.729,40.408Z"/>
      <g id="Group_224" data-name="Group 224" transform="translate(0 36.026)">
        <path id="Path_129" data-name="Path 129" class="cls-2" d="M109.729,40.408V56.069H0V40.408a4.381,4.381,0,0,1,4.379-4.382H105.35A4.382,4.382,0,0,1,109.729,40.408Z" transform="translate(0 -36.026)"/>
      </g>
      <path id="Path_130" data-name="Path 130" class="cls-3" d="M109.731,52.568H0V40.409a4.38,4.38,0,0,1,4.38-4.38H105.351a4.38,4.38,0,0,1,4.38,4.38Z" transform="translate(-0.002 -0.002)"/>
      <path id="Path_131" data-name="Path 131" class="cls-4" d="M121.669,71.628H62.6a1.656,1.656,0,1,1,0-3.312h59.067a1.656,1.656,0,0,1,0,3.312Z" transform="translate(-47.885 -25.37)"/>
      <path id="Path_132" data-name="Path 132" class="cls-4" d="M375.574,69.817a1.656,1.656,0,0,1-1.656-1.656v-.288a1.656,1.656,0,0,1,3.312,0v.288A1.656,1.656,0,0,1,375.574,69.817Z" transform="translate(-293.782 -23.721)"/>
      <path id="Path_133" data-name="Path 133" class="cls-4" d="M406.415,69.817a1.656,1.656,0,0,1-1.656-1.656v-.288a1.656,1.656,0,1,1,3.312,0v.288A1.656,1.656,0,0,1,406.415,69.817Z" transform="translate(-318.013 -23.721)"/>
      <path id="Path_134" data-name="Path 134" class="cls-4" d="M437.257,69.817a1.656,1.656,0,0,1-1.656-1.656v-.288a1.656,1.656,0,0,1,3.312,0v.288A1.656,1.656,0,0,1,437.257,69.817Z" transform="translate(-342.245 -23.721)"/>
    </g>
    <g id="Group_241" data-name="Group 241" transform="translate(1281 1318.427)">
      <g id="Group_240" data-name="Group 240">
        <path id="Path_140" data-name="Path 140" class="cls-3" d="M37.848,15.666l-2.95-.735-1.66-4.005L37.7,6.464A2.449,2.449,0,0,0,37.7,3L35.419.719a2.452,2.452,0,0,0-3.463,0L27.494,5.181l-4.006-1.66L22.753.571A.75.75,0,0,0,22.025,0H16.393a.75.75,0,0,0-.728.569l-.735,2.95-3.788,1.57-2.6-1.566a.75.75,0,0,0-.917.112L3.636,7.621a.75.75,0,0,0-.112.917l1.566,2.6-1.57,3.788-2.95.735A.75.75,0,0,0,0,16.394v5.632a.75.75,0,0,0,.569.728l2.95.735,1.57,3.788-1.566,2.6a.75.75,0,0,0,.112.917l3.984,3.984a.751.751,0,0,0,.917.112l2.6-1.566,3.788,1.57.735,2.95a.75.75,0,0,0,.728.569h5.632a.75.75,0,0,0,.728-.569l.735-2.95,3.788-1.57,2.6,1.566a.751.751,0,0,0,.917-.112L34.781,30.8a.75.75,0,0,0,.112-.917l-1.566-2.6L34.9,23.49l2.95-.735a.75.75,0,0,0,.569-.728V16.394A.75.75,0,0,0,37.848,15.666ZM33.017,1.78a.949.949,0,0,1,1.341,0l2.282,2.282a.948.948,0,0,1,0,1.341L34.7,7.341,31.079,3.719Zm-3,3L31.3,6.067,28.119,9.253a.75.75,0,1,0,1.061,1.061l3.186-3.186L33.64,8.4l-4.9,4.9,0,0-8.357,8.357L19.1,20.393l6.047-6.047a.75.75,0,1,0-1.061-1.061L18.04,19.332l-1.287-1.287L25.11,9.687l0,0ZM15.474,20.907,16,19.416l1.506,1.506v0h0L19,22.418l-1.491.528Zm.471,2.593-1.588.562.562-1.588Zm20.971-2.06-2.748.685a.75.75,0,0,0-.512.441L31.8,27.053a.75.75,0,0,0,.05.674l1.459,2.426-3.154,3.154-2.426-1.459a.75.75,0,0,0-.674-.05l-4.487,1.86a.75.75,0,0,0-.441.512l-.685,2.748h-4.46l-.685-2.748a.75.75,0,0,0-.441-.512L11.366,31.8a.75.75,0,0,0-.674.05L8.266,33.308,5.112,30.153,6.57,27.727a.75.75,0,0,0,.05-.674L4.76,22.566a.75.75,0,0,0-.512-.441L1.5,21.441v-4.46L4.249,16.3a.75.75,0,0,0,.512-.441l1.86-4.487a.75.75,0,0,0-.05-.674L5.112,8.268,8.266,5.114l2.426,1.459a.75.75,0,0,0,.674.05l4.487-1.86a.75.75,0,0,0,.441-.512L16.979,1.5h4.46l.685,2.748a.75.75,0,0,0,.441.512L26.345,6.33,24.438,8.237a12.164,12.164,0,0,0-11.446.526.75.75,0,1,0,.769,1.289,10.668,10.668,0,0,1,9.542-.68l-8.141,8.141a.75.75,0,0,0-.177.28l-2.567,7.25a.75.75,0,0,0,.958.958l7.25-2.567a.75.75,0,0,0,.28-.177l8.141-8.141a10.655,10.655,0,1,1-19.03-1.3.75.75,0,0,0-1.294-.761,12.156,12.156,0,1,0,21.459.924l1.907-1.907,1.567,3.781a.75.75,0,0,0,.512.441l2.748.685v4.46Z" transform="translate(0 -0.002)"/>
      </g>
    </g>
  </g>
</svg>
