<?xml version="1.0" encoding="UTF-8"?>
<svg width="150px" height="150px" viewBox="0 0 150 150" version="1.1" xmlns="http://www.w3.org/2000/svg" xmlns:xlink="http://www.w3.org/1999/xlink">
    <!-- Generator: Sketch 48.2 (47327) - http://www.bohemiancoding.com/sketch -->
    <title>Group 5</title>
    <desc>Created with Sketch.</desc>
    <defs>
        <linearGradient x1="131.464038%" y1="132.869294%" x2="7.37486355%" y2="-11.5216026%" id="linearGradient-1">
            <stop stop-color="#FC3832" offset="0%"></stop>
            <stop stop-color="#F2C314" offset="100%"></stop>
        </linearGradient>
    </defs>
    <g id="TMlabs" stroke="none" stroke-width="1" fill="none" fill-rule="evenodd" transform="translate(-403.000000, -1679.000000)">
        <g id="Group-5" transform="translate(403.000000, 1679.000000)">
            <g id="Group-17">
                <circle id="Oval" fill="#F7F7F7" cx="75" cy="75" r="75"></circle>
                <g id="Group-Copy" transform="translate(29.250000, 28.500000)" fill="url(#linearGradient-1)" fill-rule="nonzero">
                    <path d="M87.2042558,41.8554902 C87.197873,41.8554902 87.1913721,41.8553717 87.184871,41.8553717 L84.7447601,41.8553717 L84.7447601,40.9034868 C84.7447601,32.3169575 77.1533962,25.3621972 67.8384468,25.3621972 L51.416275,25.3621972 L51.416275,24.3908666 C51.416275,22.2450939 49.6821698,20.5055442 47.5431132,20.5055442 L44.1734815,20.5055442 C43.6635687,18.0128338 44.2185155,15.4198127 45.7033378,13.3565651 L47.9497195,16.1345565 C48.5483077,16.8573409 49.4408951,16.551599 49.7120743,16.3288937 L57.4583979,10.0152448 C57.9921869,9.58530764 58.0775268,8.80274154 57.6489355,8.26739521 C57.6436165,8.26063669 57.6381794,8.25399667 57.6326239,8.24735685 L51.3581208,0.476712054 C50.9360304,-0.0638514912 50.1570956,-0.158826449 49.6182239,0.264470684 C49.6106593,0.270399298 49.6032125,0.276446414 49.5958843,0.282493335 L41.8495608,6.57669658 C41.3157717,7.02536778 41.2383511,7.82002811 41.6752164,8.36391167 L44.4445129,11.8024599 C42.4845285,14.2448963 41.6724978,17.4180834 42.2175158,20.5055442 L39.9129799,20.5055442 C37.773805,20.5055442 36.0398181,22.2450939 36.0398181,24.3908666 L36.0398181,25.3621972 L23.2970847,25.3621972 C13.9821354,25.3621972 6.39077141,32.3364031 6.39077141,40.9034868 L6.39077141,41.8553717 L3.91189075,41.8553717 C1.77295227,41.8339103 0.0215900512,43.5559117 0.000195867541,45.7016843 C-4.05889847e-05,45.7211299 -4.05889847e-05,45.7406941 7.77361073e-05,45.7601396 L7.77361073e-05,61.1654287 C7.77361073e-05,63.31132 1.73406437,65.0507511 3.87323931,65.0507511 L6.42079403,65.0507511 C6.73662306,73.3650422 14.1817744,80.0481571 23.2970846,80.0481571 L33.4253629,80.0481571 C33.5319788,83.6299387 32.5674707,87.1616836 30.6560663,90.1887917 C30.2410679,90.7880477 30.2974489,91.5961065 30.7916411,92.1314529 C31.5999152,93.0265054 32.805761,92.830901 32.805761,92.830901 C40.5520845,91.1990134 45.8969484,82.8844852 47.7367239,80.0676028 L67.8384466,80.0676028 C77.153396,80.0676028 84.7447599,73.0933968 84.7447599,64.5263132 L84.7447599,65.0896422 L87.1848708,65.0896422 C89.3239274,65.0896422 91.0580326,63.3500924 91.0580326,61.2043198 L91.0580326,45.7601396 C91.0687889,43.6143669 89.3434305,41.8661616 87.2042558,41.8554902 Z M44.4058619,7.7034731 L50.2156045,2.98282057 L54.9020971,8.81080417 L49.0923545,13.5314567 L44.4058619,7.7034731 Z M38.5961192,24.3520938 C38.5961192,23.5902774 39.2117023,22.9727616 39.9710159,22.9727616 L47.5817647,22.9727616 C48.3411966,22.9727616 48.9567797,23.5902774 48.9567797,24.3520938 L48.9567797,25.3234244 L38.5379651,25.3234244 L38.5961192,24.3520938 Z M3.91189075,62.5253152 C3.15257714,62.5361052 2.52836541,61.927245 2.51772739,61.1656659 C2.51760926,61.1591446 2.51760926,61.152623 2.51760926,61.1461017 L2.51760926,45.7601397 C2.51749113,44.9984421 3.13307422,44.3808076 3.89238783,44.3806891 C3.89888874,44.3806891 6.39077141,44.3809263 6.39077141,44.3809263 L6.39077141,62.5254564 L3.91189075,62.5253154 L3.91189075,62.5253152 Z M87.2042558,62.5447609 L84.7447603,62.5447609 L84.7447603,44.3809261 L87.1848712,44.3809261 C87.9443031,44.3809261 88.5598862,44.9984419 88.5598862,45.7601396 L88.579271,61.1654287 C88.5792706,61.927245 87.9636875,62.5447609 87.2042558,62.5447609 Z" id="Shape"></path>
                </g>
                <path d="M56.7464171,73.3496182 C54.7309416,73.3496182 53.095164,74.9905577 53.095164,77.0171634 C53.095164,79.0436636 54.7309546,80.68459 56.7464171,80.68459 C58.761879,80.68459 60.3976684,79.0436639 60.3976684,77.0171634 C60.3976684,74.9905579 58.761891,73.3496182 56.7464171,73.3496182 Z" id="Shape" stroke="#FFFFFF" stroke-width="3" fill-rule="nonzero"></path>
                <path d="M92.5124708,73.3496445 C90.4969828,73.3420885 88.8550904,74.9767842 88.8474528,77.0032273 C88.8398986,79.0298889 90.4694993,80.6769589 92.4850241,80.6845192 C94.4987062,80.6921561 96.139449,79.0604073 96.1502032,77.0144342 C96.1501106,77.0171187 96.150105,77.0177535 96.1501004,77.0184922 C96.1500904,77.0199522 96.1500907,77.0190349 96.1500914,77.0172003 C96.1500914,74.9959839 94.5225868,73.3572087 92.5124708,73.3496445 Z" id="Shape" stroke="#FFFFFF" stroke-width="3" fill-rule="nonzero"></path>
                <path d="M65.4491657,92.4071691 C68.6528385,94.0446778 71.8565114,94.8634321 75.0601842,94.8634321 C78.263857,94.8634321 81.4675298,94.0446778 84.6712026,92.4071691" id="Line-5" stroke="#FFFFFF" stroke-width="3" stroke-linecap="round"></path>
            </g>
            <g id="Group-66-Copy" transform="translate(29.250000, 28.500000)"></g>
        </g>
    </g>
</svg>