<svg xmlns="http://www.w3.org/2000/svg" viewBox="0 0 103.058 104.117">
  <defs>
    <style>
      .cls-1, .cls-2 {
        fill: #36a2fe;
      }

      .cls-1 {
        opacity: 0.094;
      }

      .cls-2 {
        fill-rule: evenodd;
      }
    </style>
  </defs>
  <g id="Group_1647" data-name="Group 1647" transform="translate(-464.471 -1307.035)">
    <path id="Rectangle_60" data-name="Rectangle 60" class="cls-1" d="M28,0h2A50,50,0,0,1,80,50v0A28,28,0,0,1,52,78H28A28,28,0,0,1,0,50V28A28,28,0,0,1,28,0Z" transform="matrix(0.391, -0.921, 0.921, 0.391, 464.471, 1380.676)"/>
    <path id="Rounded_Rectangle_2_copy_3" data-name="Rounded Rectangle 2 copy 3" class="cls-2" d="M16468.418,1704.675a4.328,4.328,0,1,1,0-8.656h21.91a4.328,4.328,0,1,1,0,8.656Zm-8.746,13.956a4.328,4.328,0,1,1,0-8.656h39.426a4.328,4.328,0,1,1,0,8.656h-39.426Z" transform="matrix(0.996, 0.087, -0.087, 0.996, -15751.851, -1777.792)"/>
  </g>
</svg>
