<svg xmlns="http://www.w3.org/2000/svg" viewBox="0 0 105 105"><defs><style>.a{fill:#bbdefb;}.b{fill:#0f71d3;}</style></defs><g transform="translate(-908 -2459)"><circle class="a" cx="52.5" cy="52.5" r="52.5" transform="translate(908 2459)"/><g transform="translate(918.271 2469.271)"><g transform="translate(10.729 10.729)"><path class="b" d="M108.737,73.658h-4.415a24.086,24.086,0,0,0-1.636-3.96l3.126-3.126a3.256,3.256,0,0,0,0-4.608l-5.776-5.776a3.257,3.257,0,0,0-4.608,0L92.3,59.314a24.107,24.107,0,0,0-3.96-1.636V53.263A3.267,3.267,0,0,0,85.079,50H76.921a3.267,3.267,0,0,0-3.263,3.263v4.415a24.087,24.087,0,0,0-3.96,1.636l-3.126-3.126a3.256,3.256,0,0,0-4.608,0l-5.776,5.776a3.257,3.257,0,0,0,0,4.608L59.314,69.7a24.108,24.108,0,0,0-1.636,3.96H53.263A3.267,3.267,0,0,0,50,76.921v8.158a3.267,3.267,0,0,0,3.263,3.263h4.415a24.088,24.088,0,0,0,1.636,3.96l-3.126,3.126a3.256,3.256,0,0,0,0,4.608l5.776,5.776a3.257,3.257,0,0,0,4.608,0l3.126-3.126a24.106,24.106,0,0,0,3.96,1.636v4.415A3.267,3.267,0,0,0,76.921,112h8.158a3.267,3.267,0,0,0,3.263-3.263v-4.415a24.087,24.087,0,0,0,3.96-1.636l3.126,3.126a3.256,3.256,0,0,0,4.608,0l5.776-5.776a3.257,3.257,0,0,0,0-4.608L102.686,92.3a24.105,24.105,0,0,0,1.636-3.96h4.415A3.267,3.267,0,0,0,112,85.079V76.921A3.267,3.267,0,0,0,108.737,73.658Zm0,11.421h-5.645a1.632,1.632,0,0,0-1.58,1.224,20.818,20.818,0,0,1-2.254,5.447,1.632,1.632,0,0,0,.249,1.988l4,3.99L97.735,103.5l-4-4a1.632,1.632,0,0,0-1.988-.249,20.815,20.815,0,0,1-5.447,2.254,1.632,1.632,0,0,0-1.224,1.58v5.645H76.921v-5.645a1.632,1.632,0,0,0-1.224-1.58,20.818,20.818,0,0,1-5.447-2.254,1.631,1.631,0,0,0-1.987.249l-3.99,4L58.5,97.736l4-4a1.632,1.632,0,0,0,.249-1.988A20.815,20.815,0,0,1,60.488,86.3a1.632,1.632,0,0,0-1.58-1.224H53.263V76.921h5.645a1.632,1.632,0,0,0,1.58-1.224,20.818,20.818,0,0,1,2.254-5.447,1.632,1.632,0,0,0-.249-1.988l-4-3.99L64.264,58.5l4,4a1.632,1.632,0,0,0,1.988.249A20.815,20.815,0,0,1,75.7,60.488a1.632,1.632,0,0,0,1.224-1.58V53.263h8.158v5.645a1.632,1.632,0,0,0,1.224,1.58,20.818,20.818,0,0,1,5.447,2.254,1.632,1.632,0,0,0,1.988-.249l3.99-4,5.776,5.769-4,4a1.632,1.632,0,0,0-.249,1.988,20.815,20.815,0,0,1,2.254,5.447,1.632,1.632,0,0,0,1.58,1.224h5.645Z" transform="translate(-50 -50)"/><path class="b" d="M196.364,248.562l-6.526-5.711-2.149,2.456,3.258,2.851h-9.526A8.167,8.167,0,0,1,173.263,240H170a11.434,11.434,0,0,0,11.421,11.421h9.526l-3.258,2.851,2.149,2.456,6.526-5.711a1.631,1.631,0,0,0,0-2.456Z" transform="translate(-150.421 -209)"/><path class="b" d="M154.232,148.895l-3.258-2.851H160.5a8.167,8.167,0,0,1,8.158,8.158h3.263A11.434,11.434,0,0,0,160.5,142.781h-9.526l3.258-2.851-2.149-2.456-6.526,5.711a1.631,1.631,0,0,0,0,2.456l6.526,5.711Z" transform="translate(-129.5 -123.202)"/></g></g></g></svg>