<svg xmlns="http://www.w3.org/2000/svg" viewBox="0 0 100.41 95.219"><defs><style>.a{fill:#bbdefb;}.b{fill:#0f71d3;stroke:#0f71d3;fill-rule:evenodd;}</style></defs><g transform="translate(-492 -2464)"><g transform="translate(0 -96)"><path class="a" d="M50.206,9.586C22.478,9.586,0,29.739,0,54.6A41.557,41.557,0,0,0,8.3,79.386C7.615,87.6,5.633,99.17,0,104.8c0,0,13.8-16.089,33.646-7.712A55.267,55.267,0,0,0,50.2,99.611c27.728,0,50.206-20.153,50.206-45.013S77.934,9.586,50.206,9.586Z" transform="translate(492 2550.414)"/><g transform="translate(505.131 2581.211)"><g transform="translate(0 25.137)"><path class="b" d="M5.027,21H1.676a1.676,1.676,0,0,0,0,3.352H5.027a1.676,1.676,0,0,0,0-3.352Zm67.031,0H68.707a1.676,1.676,0,1,0,0,3.352h3.352a1.676,1.676,0,1,0,0-3.352Z" transform="translate(0 -21)"/></g><g transform="translate(11.73 0)"><path class="b" d="M55.6,19.406a1.675,1.675,0,0,0-1.676,1.676V44.543a1.676,1.676,0,0,0,3.352,0V21.082A1.675,1.675,0,0,0,55.6,19.406Zm-33.516,0a1.675,1.675,0,0,0-1.676,1.676V44.543a1.676,1.676,0,1,0,3.352,0V21.082A1.675,1.675,0,0,0,22.082,19.406Zm-13.406,6.7A1.675,1.675,0,0,0,7,27.785V37.84a1.676,1.676,0,1,0,3.352,0V27.785A1.675,1.675,0,0,0,8.676,26.109ZM48.895,12.7a1.675,1.675,0,0,0-1.676,1.676V51.246a1.676,1.676,0,1,0,3.352,0V14.379A1.675,1.675,0,0,0,48.895,12.7Zm-13.406,0a1.675,1.675,0,0,0-1.676,1.676V51.246a1.676,1.676,0,1,0,3.352,0V14.379A1.675,1.675,0,0,0,35.488,12.7Zm-20.109,0A1.675,1.675,0,0,0,13.7,14.379V51.246a1.676,1.676,0,1,0,3.352,0V14.379A1.675,1.675,0,0,0,15.379,12.7ZM42.191,6a1.675,1.675,0,0,0-1.676,1.676V57.949a1.676,1.676,0,0,0,3.352,0V7.676A1.675,1.675,0,0,0,42.191,6ZM28.785,6a1.675,1.675,0,0,0-1.676,1.676V57.949a1.676,1.676,0,1,0,3.352,0V7.676A1.675,1.675,0,0,0,28.785,6Z" transform="translate(-7 -6)"/></g></g></g><g transform="translate(0 -96)"><path class="a" d="M50.206,9.586C22.478,9.586,0,29.739,0,54.6A41.557,41.557,0,0,0,8.3,79.386C7.615,87.6,5.633,99.17,0,104.8c0,0,13.8-16.089,33.646-7.712A55.267,55.267,0,0,0,50.2,99.611c27.728,0,50.206-20.153,50.206-45.013S77.934,9.586,50.206,9.586Z" transform="translate(492 2550.414)"/><g transform="translate(505.131 2581.211)"><g transform="translate(0 25.137)"><path class="b" d="M5.027,21H1.676a1.676,1.676,0,0,0,0,3.352H5.027a1.676,1.676,0,0,0,0-3.352Zm67.031,0H68.707a1.676,1.676,0,1,0,0,3.352h3.352a1.676,1.676,0,1,0,0-3.352Z" transform="translate(0 -21)"/></g><g transform="translate(11.73 0)"><path class="b" d="M55.6,19.406a1.675,1.675,0,0,0-1.676,1.676V44.543a1.676,1.676,0,0,0,3.352,0V21.082A1.675,1.675,0,0,0,55.6,19.406Zm-33.516,0a1.675,1.675,0,0,0-1.676,1.676V44.543a1.676,1.676,0,1,0,3.352,0V21.082A1.675,1.675,0,0,0,22.082,19.406Zm-13.406,6.7A1.675,1.675,0,0,0,7,27.785V37.84a1.676,1.676,0,1,0,3.352,0V27.785A1.675,1.675,0,0,0,8.676,26.109ZM48.895,12.7a1.675,1.675,0,0,0-1.676,1.676V51.246a1.676,1.676,0,1,0,3.352,0V14.379A1.675,1.675,0,0,0,48.895,12.7Zm-13.406,0a1.675,1.675,0,0,0-1.676,1.676V51.246a1.676,1.676,0,1,0,3.352,0V14.379A1.675,1.675,0,0,0,35.488,12.7Zm-20.109,0A1.675,1.675,0,0,0,13.7,14.379V51.246a1.676,1.676,0,1,0,3.352,0V14.379A1.675,1.675,0,0,0,15.379,12.7ZM42.191,6a1.675,1.675,0,0,0-1.676,1.676V57.949a1.676,1.676,0,0,0,3.352,0V7.676A1.675,1.675,0,0,0,42.191,6ZM28.785,6a1.675,1.675,0,0,0-1.676,1.676V57.949a1.676,1.676,0,1,0,3.352,0V7.676A1.675,1.675,0,0,0,28.785,6Z" transform="translate(-7 -6)"/></g></g></g></g></svg>