<svg xmlns="http://www.w3.org/2000/svg" viewBox="0 0 89 89"><defs><style>.a{fill:#bbdefb;}.b{fill:#348ffc;stroke:#348ffc;}</style></defs><g transform="translate(-1340 -2197)"><g transform="translate(0 -127)"><circle class="a" cx="44.5" cy="44.5" r="44.5" transform="translate(1340 2324)"/><g transform="translate(1349 2333)"><path class="b" d="M70.737,35.368a35.368,35.368,0,1,0-67.881,13.9,1.478,1.478,0,0,0,.069.144,35.273,35.273,0,0,0,55.988,12.27c.022-.015.045-.024.067-.039l-.009-.014A35.249,35.249,0,0,0,70.737,35.368ZM61.557,54.4c-1.685-.34-3.388-.708-5.13-1.143a33.743,33.743,0,0,0,6.8-3.007c.232.174.459.339.683.485A32.453,32.453,0,0,1,61.557,54.4ZM31.372,50.338c1.3-1.023,2.557-1.989,3.9-2.854a73.547,73.547,0,0,0,10.8,5.679A64.212,64.212,0,0,0,34.883,58.72a46.708,46.708,0,0,1-5.2-3.869c-.674-.552-1.383-1.126-2.12-1.71C28.922,52.213,30.188,51.27,31.372,50.338Zm-6.346.96c-3.915-2.4-10.242-3.424-14.922-3.843a65.111,65.111,0,0,0,9.975-6.515c.722-.578,1.409-1.09,2.1-1.6,2.645,1.475,5.365,3.219,8.149,5.011q1.1.707,2.208,1.417c-1.017.722-2,1.481-2.981,2.256C28.148,49.124,26.67,50.246,25.026,51.3Zm13.253-5.434a21.7,21.7,0,0,1,8.879-1.654c7.006,0,10.9,2.149,13.526,4.079a37.022,37.022,0,0,1-9.424,3.324c-.142.032-.284.078-.426.111-.1-.031-.2-.053-.3-.084A55.261,55.261,0,0,1,38.279,45.864Zm25.1.763c-2.827-2.224-7.416-5.364-16.217-5.364A23.516,23.516,0,0,0,35.3,44.03q-1.7-1.074-3.386-2.16c-2.405-1.548-4.764-3.05-7.091-4.4,5.368-3.556,9.866-5.042,14.959-5.042,6.841,0,14.911,4.132,25.224,12.847A16.082,16.082,0,0,1,63.375,46.627ZM35.368,2.947A32.3,32.3,0,0,1,66.852,42.972C56,33.818,47.34,29.477,39.787,29.477c-6.865,0-12.331,2.483-17.862,6.394-3.954-2.047-7.815-3.45-11.609-3.45a29.3,29.3,0,0,0-7.255.716A32.438,32.438,0,0,1,35.368,2.947ZM2.991,36.235c.878-.331,2.951-.866,7.325-.866a21.3,21.3,0,0,1,8.956,2.471c-.345.269-.687.52-1.035.8A63.842,63.842,0,0,1,5.018,46.665,32.178,32.178,0,0,1,2.991,36.235Zm7.363,19.738a32.515,32.515,0,0,1-3.794-5.8C10.266,50.349,17.424,50.951,22,53A33.038,33.038,0,0,1,10.355,55.972ZM12.9,58.691a34.7,34.7,0,0,0,12.018-3.875c1.03.8,2,1.577,2.9,2.315,1.47,1.2,2.858,2.334,4.338,3.342a88.273,88.273,0,0,0-7.392,5.5A32.434,32.434,0,0,1,12.9,58.691Zm22.465,9.1a32.328,32.328,0,0,1-7.139-.818c1.584-1.242,3.944-2.99,6.772-4.811,3.277,1.647,7.352,2.682,13.63,2.682l.173,0A32.18,32.18,0,0,1,35.368,67.789Zm21.8-8.489a17.957,17.957,0,0,1-8.532,2.594,28.654,28.654,0,0,1-10.565-1.62,52.056,52.056,0,0,1,12.75-5.5c2.949.857,5.839,1.576,8.667,2.187A32.646,32.646,0,0,1,57.163,59.3Z"/></g></g></g></svg>