<svg xmlns="http://www.w3.org/2000/svg" viewBox="0 0 46.848 44.886">
  <defs>
    <style>
      .cls-1 {
        fill: #cecece;
      }
    </style>
  </defs>
  <g id="star" transform="translate(0 -10.705)">
    <path id="Path_1046" data-name="Path 1046" class="cls-1" d="M10.974,39.7a2.422,2.422,0,0,1,1.342-4.131L23.66,33.919a2.422,2.422,0,0,0,1.824-1.325l5.073-10.278a2.408,2.408,0,0,1,2.876-1.239,5.238,5.238,0,0,0-.727,1.239L29.18,32.594a2.422,2.422,0,0,1-1.824,1.325L16.013,35.567A2.422,2.422,0,0,0,14.671,39.7l8.208,8a2.422,2.422,0,0,1,.7,2.144l-1.938,11.3c-.248,1.448.323,1.735,1.341,1.422a.989.989,0,0,0,.119.268l-1.643.864a2.422,2.422,0,0,1-3.514-2.553l1.938-11.3a2.422,2.422,0,0,0-.7-2.144Z" transform="translate(-9.304 -9.322)"/>
    <path id="Path_1047" data-name="Path 1047" class="cls-1" d="M35.827,55.591a3.352,3.352,0,0,1-1.566-.389L24.114,49.868a1.484,1.484,0,0,0-1.381,0L12.588,55.2A3.36,3.36,0,0,1,7.713,51.66l1.938-11.3a1.486,1.486,0,0,0-.428-1.314l-8.208-8a3.36,3.36,0,0,1,1.863-5.731l11.343-1.648a1.485,1.485,0,0,0,1.118-.812l5.073-10.279a3.36,3.36,0,0,1,6.026,0h0L31.51,22.857a1.485,1.485,0,0,0,1.117.812l11.344,1.648a3.36,3.36,0,0,1,1.863,5.731l-8.208,8a1.486,1.486,0,0,0-.428,1.314l1.938,11.3a3.366,3.366,0,0,1-3.308,3.931Zm-12.4-7.77a3.368,3.368,0,0,1,1.564.386l10.147,5.335a1.484,1.484,0,0,0,2.152-1.565l-1.938-11.3a3.358,3.358,0,0,1,.967-2.974l8.208-8a1.484,1.484,0,0,0-.822-2.531L32.357,25.525a3.356,3.356,0,0,1-2.53-1.838L24.755,13.408a1.485,1.485,0,0,0-2.661,0L17.02,23.687a3.357,3.357,0,0,1-2.53,1.838L3.147,27.173A1.484,1.484,0,0,0,2.325,29.7l8.208,8a3.358,3.358,0,0,1,.967,2.974l-1.938,11.3a1.484,1.484,0,0,0,2.153,1.565L21.86,48.208a3.364,3.364,0,0,1,1.564-.387Z"/>
  </g>
</svg>
