<svg xmlns="http://www.w3.org/2000/svg" xmlns:xlink="http://www.w3.org/1999/xlink" viewBox="0 0 1227.335 255.565">
  <defs>
    <style>
      .cls-1, .cls-6 {
        fill: #3c4f76;
      }

      .cls-1, .cls-2, .cls-4, .cls-5 {
        fill-rule: evenodd;
      }

      .cls-2, .cls-3 {
        fill: #4ed4c3;
      }

      .cls-4 {
        fill: url(#linear-gradient);
      }

      .cls-5 {
        fill: url(#linear-gradient-2);
      }
    </style>
    <linearGradient id="linear-gradient" x1="1.034" y1="0.739" x2="-0.038" y2="0.26" gradientUnits="objectBoundingBox">
      <stop offset="0" stop-color="#4ed4c3"/>
      <stop offset="1" stop-color="#3c4f76"/>
    </linearGradient>
    <linearGradient id="linear-gradient-2" x1="0.94" y1="0.907" x2="0.062" y2="0.093" xlink:href="#linear-gradient"/>
  </defs>
  <g id="With_New_Fonts_1_" data-name="With New Fonts (1)" transform="translate(-315 -1275)">
    <g id="_893668720" transform="translate(315 1275)">
      <g id="Group_390" data-name="Group 390">
        <path id="Path_272" data-name="Path 272" class="cls-1" d="M328.2,1275H458.39c6.807,0,12.2,5.1,12.2,11.631h0c0,6.237-5.389,11.629-12.2,11.629H328.2c-6.807,0-12.2-5.108-12.2-11.629h0C316,1280.387,321.39,1275,328.2,1275Z" transform="translate(-315.717 -1275)"/>
        <path id="Path_273" data-name="Path 273" class="cls-2" d="M560.2,1494H754.777c6.808,0,12.2,5.1,12.2,11.63h0c0,6.237-5.39,11.628-12.2,11.628H560.2c-6.809,0-12.2-5.106-12.2-11.628h0C548,1499.386,553.388,1494,560.2,1494Z" transform="translate(-481.911 -1431.88)"/>
        <path id="Path_274" data-name="Path 274" class="cls-2" d="M1009,1814.656V1700.63c0-6.24,5.389-11.63,12.2-11.63h0c6.808,0,12.2,5.1,12.2,11.63v114.026c0,6.241-5.39,11.633-12.2,11.633h0C1014.39,1826.289,1009,1821.182,1009,1814.656Z" transform="translate(-812.151 -1571.571)"/>
        <rect id="Rectangle_649" data-name="Rectangle 649" class="cls-3" width="139.121" height="24.459" rx="7.783" transform="translate(261.033 201.231) rotate(-90)"/>
        <path id="Path_275" data-name="Path 275" class="cls-4" d="M801.11,1454.412H919.39c6.807,0,12.2,5.109,12.2,11.631h0c0,6.243-5.39,11.631-12.2,11.631H789.2c-6.807,0-12.2-5.106-12.2-11.631V1287.629c0-6.238,5.389-11.629,12.2-11.629h0c6.807,0,12.2,5.107,12.2,11.629v166.783Z" transform="translate(-645.956 -1275.716)"/>
        <path id="Path_276" data-name="Path 276" class="cls-5" d="M339.677,1391.012l184.085.284c6.808,0,12.2,5.1,12.2,11.628h0c0,6.24-5.389,11.063-12.2,11.063H327.481a6.242,6.242,0,0,1-2.269-.284c-5.673-.851-10.212-5.389-10.212-11.062v-116.01c0-6.244,5.389-11.631,12.2-11.631h0c6.807,0,12.2,5.1,12.2,11.631v104.381Z" transform="translate(-315 -1275)"/>
        <path id="Path_277" data-name="Path 277" class="cls-2" d="M572.393,1667.769h118c6.808,0,12.2,5.106,12.2,11.629h0c0,6.241-5.39,11.629-12.2,11.629H556.51c-.284,0-.284,0-.568-.281h-.569c-.283,0-.283-.283-.566-.283h-.283s1.7.849-.284,0c-1.985-1.137-6.24-5.675-6.24-9.93h0v-169.9c0-6.241,5.388-11.63,12.2-11.63h0c6.807,0,12.2,5.1,12.2,11.63v157.14Z" transform="translate(-481.911 -1435.462)"/>
      </g>
      <g id="Group_391" data-name="Group 391" transform="translate(355.407 70.912)">
        <path id="Path_278" data-name="Path 278" class="cls-6" d="M3761.709,1601.018h28.084l-13.9-33.187ZM3722,1634.772,3776.178,1525h1.7l53.041,109.772h-26.662l-6.809-15.6h-43.113l-6.807,15.6Z" transform="translate(-3111.029 -1525)"/>
        <path id="Path_279" data-name="Path 279" class="cls-6" d="M1601.755,1643.371V1559.41H1568V1537h93.037v22.41h-33.753v83.961Z" transform="translate(-1568.001 -1533.596)"/>
        <path id="Path_280" data-name="Path 280" class="cls-6" d="M1966.217,1556.29h-4.253v29.5h5.386c6.527,0,11.35-1.417,14.749-3.97s5.11-6.241,5.11-11.063c0-5.1-1.705-8.791-4.823-11.062-3.4-2.269-8.509-3.4-15.887-3.4Zm-28.932,87.081V1537h27.228q13.192,0,20.422,1.7a37.262,37.262,0,0,1,12.765,5.673,30.174,30.174,0,0,1,9.359,10.5,27.12,27.12,0,0,1,3.12,13.33,30.507,30.507,0,0,1-5.1,17.586,32.807,32.807,0,0,1-14.749,11.915l32.333,45.668h-28.932l-28.361-41.7h-3.687v41.7h-24.395Z" transform="translate(-1832.335 -1533.596)"/>
        <path id="Path_281" data-name="Path 281" class="cls-6" d="M2276,1643.371V1537h65.528v21.842h-40.845v19.29h35.172v21.838h-35.172v20.991H2342.1v22.41Z" transform="translate(-2075.18 -1533.596)"/>
        <path id="Path_282" data-name="Path 282" class="cls-6" d="M2558.855,1604.706a103.748,103.748,0,0,0,16.731,8.51,37.68,37.68,0,0,0,13.333,2.27c4.255,0,7.941-.852,10.5-2.839a9.3,9.3,0,0,0,3.968-7.373c0-4.255-4.822-9.361-14.179-14.751-1.424-.85-2.84-1.7-3.408-1.984l-7.089-3.971c-7.092-3.972-12.2-8.51-15.6-13.334a30,30,0,0,1-5.109-17.019c0-8.508,3.123-15.6,9.646-20.99s14.753-8.225,24.96-8.225a64.461,64.461,0,0,1,12.2,1.42,129.064,129.064,0,0,1,14.752,3.971v24.961a87.228,87.228,0,0,0-14.466-7.375,34.642,34.642,0,0,0-11.627-2.554,14.462,14.462,0,0,0-8.51,2.27,7.532,7.532,0,0,0-3.122,6.239,7.952,7.952,0,0,0,1.7,5.107,17.64,17.64,0,0,0,5.391,4.538l12.482,6.807c10.494,5.674,17.589,11.063,20.989,15.885,3.687,4.822,5.388,10.779,5.388,17.3,0,10.5-3.4,18.721-10.491,25.245s-16.453,9.643-28.08,9.643a116.169,116.169,0,0,1-13.052-1.136,152.727,152.727,0,0,1-15.313-3.971l-2.273-28.364Z" transform="translate(-2277.192 -1525)"/>
        <path id="Path_283" data-name="Path 283" class="cls-6" d="M2839,1634.772,2861.121,1525h1.707l40.273,69.209L2940.826,1525h1.986l22.129,109.772h-24.115l-9.078-48.5-28.359,52.475h-1.7l-30.639-53.324-9.359,49.354Z" transform="translate(-2478.489 -1525)"/>
        <path id="Path_284" data-name="Path 284" class="cls-6" d="M3498,1643.371V1537h25.529v83.677h41.977l-11.627,22.694Z" transform="translate(-2950.568 -1533.596)"/>
        <path id="Path_285" data-name="Path 285" class="cls-6" d="M4114.979,1624.083h10.488c5.1,0,9.076-1.135,11.922-3.69a13.11,13.11,0,0,0,4.254-10.208c0-4.255-1.434-7.659-4.254-9.931-2.846-2.268-6.826-3.4-12.217-3.4h-10.488v27.231Zm0-45.1h8.508c5.1,0,8.8-1.132,11.629-3.4a11.209,11.209,0,0,0,4.252-9.077,10.489,10.489,0,0,0-3.959-8.791c-2.572-1.985-6.824-2.837-12.5-2.837h-7.932Zm-12.2,64.391L4092,1620.96V1537h32.906q18.721,0,28.064,6.811c6.236,4.537,9.646,11.346,9.646,20.137a23.088,23.088,0,0,1-4.254,13.9c-2.822,3.686-7.371,6.807-13.057,8.792a26.377,26.377,0,0,1,15.332,9.075c3.684,4.538,5.391,10.214,5.391,16.735,0,10.213-3.7,17.87-11.344,23.262-7.654,5.1-18.732,7.942-33.477,7.942h-18.152Z" transform="translate(-3376.083 -1533.596)"/>
        <path id="Path_286" data-name="Path 286" class="cls-6" d="M4396.848,1604.706a103.6,103.6,0,0,0,16.744,8.51,37.639,37.639,0,0,0,13.332,2.27c4.254,0,7.943-.852,10.488-2.839a9.282,9.282,0,0,0,3.975-7.373c0-4.255-4.816-9.361-14.178-14.751-1.422-.85-2.842-1.7-3.406-1.984l-7.086-3.971c-7.1-3.972-12.207-8.51-15.613-13.334a30.062,30.062,0,0,1-5.1-17.019c0-8.508,3.123-15.6,9.648-20.99s14.744-8.225,24.963-8.225a64.487,64.487,0,0,1,12.2,1.42,129.259,129.259,0,0,1,14.746,3.971v24.961a86.831,86.831,0,0,0-14.463-7.375,34.642,34.642,0,0,0-11.625-2.554,14.449,14.449,0,0,0-8.51,2.27,7.537,7.537,0,0,0-3.119,6.239,7.91,7.91,0,0,0,1.693,5.107,17.648,17.648,0,0,0,5.395,4.538l12.473,6.807c10.49,5.674,17.594,11.063,20.994,15.885,3.691,4.822,5.389,10.779,5.389,17.3,0,10.5-3.395,18.721-10.5,25.245-7.08,6.524-16.443,9.643-28.07,9.643a116.005,116.005,0,0,1-13.049-1.136,152.662,152.662,0,0,1-15.324-3.971l-2.264-28.364Z" transform="translate(-3593.852 -1525)"/>
      </g>
    </g>
  </g>
</svg>
