<svg xmlns="http://www.w3.org/2000/svg" xmlns:xlink="http://www.w3.org/1999/xlink" viewBox="0 0 16 16"><defs><style>.a{fill:none;clip-rule:evenodd;}.b{clip-path:url(#c);}.c{fill:#348ffc;}.d{clip-path:url(#a);}.e{fill:#fff;}</style><clipPath id="a"><path class="a" d="M143.632-13.89a1.823,1.823,0,0,1,.192.38.137.137,0,0,1-.059.161q-.067.055-1.769.8a.2.2,0,0,1-.23-.018c-.073-.095-.147-.2-.219-.311l-1.645.8.161.33-.156.076-.806-1.652a1.2,1.2,0,0,1-.091-.243c-.017-.072-.014-.114.008-.125s.058.013.1.071a1.2,1.2,0,0,1,.135.222l.174.356.929-2.224c-.574-1.19-1.129-2.428-.726-3.626a.166.166,0,0,1,.227-.1,4.74,4.74,0,0,1,2.278,2.43l-.011-.077.161.33,2.458.674-.174-.356a1.2,1.2,0,0,1-.091-.243c-.017-.072-.014-.114.008-.125s.057.013.1.071a1.2,1.2,0,0,1,.135.222l.806,1.652-.156.076-.161-.33Zm.507,3.341a.053.053,0,0,1-.051.017,1.259,1.259,0,0,1-.707-.429,2.106,2.106,0,0,1-.245-.441c-.176.122-.1.418-.1.421a.05.05,0,0,1-.01.044.053.053,0,0,1-.043.019c-.012,0-.3-.016-.512-.475-.008-.015-.014-.031-.021-.046a.91.91,0,0,1,.505-1.182.911.911,0,0,1,1.2.458c.01.023.032.088.032.088A2.373,2.373,0,0,1,144.139-10.549Z"/></clipPath><clipPath id="c"><rect width="16" height="16"/></clipPath></defs><g id="b" class="b"><rect class="e" width="16" height="16"/><circle class="c" cx="8" cy="8" r="8"/><g class="d" transform="translate(-134 23)"><path class="e" d="M134-5.53h16.538V-24H134Z"/></g></g></svg>