<?xml version="1.0" encoding="UTF-8"?>
<svg width="34px" height="34px" viewBox="0 0 34 34" version="1.1" xmlns="http://www.w3.org/2000/svg" xmlns:xlink="http://www.w3.org/1999/xlink">
    <!-- Generator: Sketch 48.2 (47327) - http://www.bohemiancoding.com/sketch -->
    <title>twitter</title>
    <desc>Created with Sketch.</desc>
    <defs></defs>
    <g id="Botjet-Features" stroke="none" stroke-width="1" fill="none" fill-rule="evenodd" transform="translate(-1305.000000, -7243.000000)">
        <g id="twitter" transform="translate(1305.000000, 7243.000000)">
            <path d="M33.535956,16.8587692 C33.535956,26.1190989 26.0283077,33.6267473 16.767978,33.6267473 C7.50764835,33.6267473 0,26.1190989 0,16.8587692 C0,7.59843956 7.50764835,0.0907912088 16.767978,0.0907912088 C26.0283077,0.0907912088 33.535956,7.59843956 33.535956,16.8587692 Z" id="Fill-1" fill="#55ACEE"></path>
            <path d="M27.0382198,12.1417363 C26.3201099,12.4600659 25.5467033,12.676022 24.7366813,12.7724176 C25.5642637,12.2758681 26.1990549,11.4908791 26.4998242,10.5553187 C25.7249231,11.0137582 24.8667033,11.3477802 23.9543077,11.5274945 C23.2231209,10.7481099 22.1810769,10.262022 21.0280659,10.262022 C18.813956,10.262022 17.0205495,12.0572967 17.0205495,14.2695385 C17.0205495,14.5833846 17.0552967,14.8901319 17.124044,15.1834286 C13.7935385,15.0156703 10.8396484,13.4202857 8.86353846,10.9947033 C8.51756044,11.5872747 8.32065934,12.2758681 8.32065934,13.010044 C8.32065934,14.4010549 9.02830769,15.6284176 10.1024835,16.3465275 C9.44564835,16.325978 8.82841758,16.1451429 8.28703297,15.8443736 C8.28703297,15.8619341 8.28703297,15.878 8.28703297,15.8955604 C8.28703297,17.8365495 9.66907692,19.4565934 11.5020879,19.8246154 C11.1665714,19.9165275 10.812,19.9662198 10.446967,19.9662198 C10.1887912,19.9662198 9.93771429,19.9411868 9.69224176,19.8944835 C10.2033626,21.4868791 11.6832967,22.6454945 13.4374725,22.6776264 C12.0655165,23.7532967 10.3374945,24.3925714 8.45927473,24.3925714 C8.13496703,24.3925714 7.81551648,24.375011 7.50316484,24.3372747 C9.2763956,25.4742198 11.3825275,26.1381538 13.645956,26.1381538 C21.017978,26.1381538 25.0505275,20.0301099 25.0505275,14.733956 C25.0505275,14.5602198 25.046044,14.387978 25.0389451,14.2157363 C25.8224396,13.6508132 26.5013187,12.9446593 27.0382198,12.1417363 Z" id="Fill-2" fill="#F1F2F2"></path>
        </g>
    </g>
</svg>